<svg xmlns="http://www.w3.org/2000/svg" viewBox="0 0 318.24 583.97"><defs><style>.a{fill:silver;}.b,.c,.d{fill:none;stroke-linecap:round;stroke-linejoin:round;}.b{stroke:silver;}.c{stroke:#1d1d1b;stroke-width:0.2px;}.d{stroke:#009fe3;stroke-width:0.25px;}.e{fill:#1d1d1b;}</style></defs><polygon class="a" points="127.69 197.58 127.69 214.6 179.53 214.6 179.53 275.19 179.65 275.19 196.49 275.19 196.49 197.58 176.12 197.58 139.32 197.58 127.69 197.58"/><line class="b" x1="179.53" y1="275.19" x2="179.65" y2="275.19"/><rect class="a" x="185" y="313.06" width="12.97" height="9.13"/><path class="a" d="M196.22,363.43l.33,0,.31.11.27.18.24.24.17.28.11.31,0,.32v.48l0,.47-.07.46-.1.47-.12.45-.15.45-.18.44-.2.43H186.22l-.2-.43-.17-.44-.15-.45-.13-.45-.09-.47-.07-.46,0-.47,0-.48,0-.32.11-.31.17-.28.23-.24.27-.18.31-.11.33,0,.24,0-.45-4.83,0-1.46.15-1.46.36-1.41.53-1.33.73-1,.94-.81,1.08-.51,1.17-.18,1.16.18,1.09.51.93.81.73,1,.54,1.33.35,1.41.15,1.46,0,1.46-.44,4.83Zm-6.9.35,1.1.09,1.1,0,1.1,0,1.1-.09.89-.12h-6.18Z"/><line class="c" x1="185" y1="313.06" x2="197.97" y2="313.06"/><rect class="c" x="185.72" y="313.54" width="11.53" height="8.17"/><line class="c" x1="185" y1="313.06" x2="185" y2="322.19"/><polyline class="c" points="185 322.19 197.97 322.19 197.97 313.06"/><line class="c" x1="191.73" y1="315.7" x2="197.97" y2="315.7"/><line class="c" x1="185" y1="315.7" x2="191.25" y2="315.7"/><polygon class="c" points="196.81 368.56 197.01 368.13 197.19 367.69 197.34 367.24 197.46 366.79 197.56 366.32 197.63 365.86 197.67 365.38 197.68 364.91 197.65 364.59 197.54 364.27 197.37 364 197.13 363.76 196.86 363.58 196.55 363.47 196.22 363.43 195.9 363.45 194.81 363.65 193.72 363.78 192.62 363.87 191.52 363.89 190.41 363.87 189.31 363.78 188.22 363.65 187.14 363.45 186.81 363.43 186.48 363.47 186.18 363.58 185.9 363.76 185.67 364 185.5 364.27 185.39 364.59 185.35 364.91 185.37 365.38 185.41 365.86 185.48 366.32 185.57 366.79 185.7 367.24 185.85 367.69 186.02 368.13 186.22 368.56 196.81 368.56"/><polyline class="c" points="189.22 351.42 189.04 351.58 188.86 351.76 188.69 351.94 188.53 352.12 188.37 352.31 188.22 352.5 188.08 352.7 187.94 352.91 187.81 353.12 187.69 353.33 187.57 353.55 187.46 353.77 187.36 353.99 187.27 354.22 187.18 354.45 187.1 354.69 187.03 354.92 186.97 355.16 186.92 355.4 186.87 355.64 186.84 355.89 186.81 356.13 186.79 356.38 186.77 356.62 186.77 356.87"/><polyline class="c" points="196.26 356.87 196.26 356.62 196.25 356.38 196.23 356.13 196.2 355.89 196.16 355.64 196.11 355.4 196.06 355.16 196 354.92 195.93 354.69 195.85 354.45 195.77 354.22 195.67 353.99 195.57 353.77 195.46 353.55 195.35 353.33 195.22 353.12 195.09 352.91 194.96 352.7 194.81 352.5 194.66 352.31 194.5 352.12 194.34 351.94 194.17 351.76 194 351.58 193.82 351.42"/><polyline class="c" points="194.6 363.65 194.8 363.3 194.99 362.95 195.16 362.59 195.32 362.22 195.47 361.85 195.6 361.48 195.72 361.1 195.84 360.71 195.93 360.33 196.02 359.94 196.09 359.55 196.15 359.15 196.19 358.75 196.23 358.36 196.25 357.96 196.25 357.56"/><line class="c" x1="191.52" y1="363.65" x2="194.6" y2="363.65"/><line class="c" x1="188.43" y1="363.65" x2="191.52" y2="363.65"/><polyline class="c" points="186.78 357.56 186.78 357.96 186.81 358.36 186.84 358.75 186.88 359.15 186.94 359.55 187.01 359.94 187.1 360.33 187.2 360.71 187.31 361.1 187.43 361.48 187.57 361.85 187.72 362.22 187.88 362.59 188.05 362.95 188.23 363.3 188.43 363.65"/><polygon class="c" points="196.32 355.7 195.97 354.29 195.43 352.96 194.7 351.91 193.77 351.1 192.68 350.59 191.52 350.41 190.35 350.59 189.27 351.1 188.33 351.91 187.6 352.96 187.07 354.29 186.72 355.7 186.56 357.16 186.6 358.62 187.52 368.56 195.51 368.56 196.43 358.62 196.47 357.16 196.32 355.7"/><polyline class="c" points="194.81 350.76 195.41 351.48 195.95 352.25 196.25 353.09 196.49 354.05 196.59 355.48 196.49 357.47 196.25 358.67 195.83 359.81 195.59 361.78 195.59 363.87 193.74 363.52 191.52 363.34 189.3 363.52 187.38 363.88 187.38 361.78 187.14 359.81 186.72 358.67 186.48 357.47 186.42 356.21 186.42 354.95 186.48 354.05 186.72 353.09 187.02 352.25 187.56 351.48 188.16 350.76 188.88 350.1 189.66 349.62 190.56 349.32 191.52 349.2 192.48 349.32 193.38 349.62 194.15 350.1 194.87 350.76"/><polyline class="c" points="195.47 362.26 195.23 362.56 193.38 362.8 191.52 362.86"/><polyline class="c" points="191.46 362.86 189.6 362.8 187.74 362.56 187.5 362.26"/><polyline class="c" points="191.46 361.9 189.54 361.84 187.62 361.54"/><line class="c" x1="115.23" y1="189.79" x2="115.23" y2="172.23"/><line class="c" x1="178.93" y1="422.79" x2="178.93" y2="384.8"/><line class="c" x1="180.37" y1="422.79" x2="180.37" y2="384.08"/><polyline class="c" points="200.75 429.8 181.81 429.8 181.09 429.68 180.37 429.44 179.83 428.96 179.35 428.42 179.11 427.7 178.99 426.99"/><polyline class="c" points="69.98 489.85 84.19 505.31 123.86 505.31 138.06 489.85"/><line class="c" x1="181.09" y1="424.17" x2="200.75" y2="424.17"/><line class="c" x1="180.37" y1="418.6" x2="200.75" y2="418.6"/><line class="c" x1="180.37" y1="412.96" x2="200.75" y2="412.96"/><line class="c" x1="180.37" y1="407.33" x2="200.75" y2="407.33"/><line class="c" x1="180.37" y1="401.7" x2="200.75" y2="401.7"/><line class="c" x1="180.37" y1="396.06" x2="200.75" y2="396.06"/><line class="c" x1="180.37" y1="390.43" x2="200.75" y2="390.43"/><line class="c" x1="180.37" y1="384.8" x2="200.75" y2="384.8"/><line class="c" x1="190.56" y1="379.16" x2="200.75" y2="379.16"/><line class="c" x1="152.26" y1="492.13" x2="155.14" y2="492.13"/><polyline class="c" points="152.26 506.27 170.72 506.27 170.72 509.09 152.26 509.09 152.26 490.69"/><polyline class="c" points="200.45 490.69 200.45 509.09 203.26 509.09 203.26 490.69"/><polyline class="c" points="127.69 197.58 127.69 214.6 179.53 214.6 179.53 275.19"/><line class="c" x1="155.14" y1="490.69" x2="155.14" y2="509.09"/><line class="c" x1="153.82" y1="492.13" x2="153.82" y2="506.27"/><line class="c" x1="153.58" y1="492.13" x2="153.58" y2="506.27"/><line class="c" x1="201.71" y1="492.13" x2="201.71" y2="506.27"/><line class="c" x1="201.94" y1="492.13" x2="201.94" y2="506.27"/><line class="c" x1="169.28" y1="507.59" x2="155.14" y2="507.59"/><line class="c" x1="169.28" y1="507.83" x2="155.14" y2="507.83"/><polyline class="c" points="59.2 490.69 80.47 513.76 127.57 513.76 148.85 490.69"/><polyline class="c" points="142.2 493.75 126.31 510.95 81.73 510.95 65.85 493.75"/><line class="c" x1="123.68" y1="509.63" x2="84.37" y2="509.63"/><polyline class="c" points="140.1 491.77 125.06 508.13 82.93 508.13 67.89 491.77"/><line class="c" x1="123.68" y1="509.45" x2="84.37" y2="509.45"/><line class="c" x1="101.2" y1="505.31" x2="84.19" y2="505.31"/><line class="c" x1="67.76" y1="493.87" x2="80.89" y2="508.13"/><line class="c" x1="67.88" y1="493.75" x2="81.01" y2="507.95"/><line class="c" x1="139.14" y1="492.85" x2="141.24" y2="494.77"/><line class="c" x1="140.28" y1="493.87" x2="127.15" y2="508.13"/><line class="c" x1="140.1" y1="493.75" x2="126.97" y2="507.95"/><line class="c" x1="126.02" y1="507.11" x2="128.11" y2="509.03"/><line class="c" x1="171.56" y1="486.44" x2="171.56" y2="489.31"/><polyline class="c" points="161.61 490.69 161.61 492.13 172.94 492.13 172.94 483.62 161.61 483.62"/><line class="c" x1="172.94" y1="489.31" x2="161.61" y2="489.31"/><line class="c" x1="171.56" y1="487.99" x2="163.05" y2="487.99"/><line class="c" x1="172.94" y1="486.44" x2="161.61" y2="486.44"/><line class="c" x1="171.56" y1="487.75" x2="163.05" y2="487.75"/><line class="c" x1="163.05" y1="486.44" x2="163.05" y2="489.31"/><line class="c" x1="81.97" y1="279.44" x2="81.97" y2="276.57"/><polyline class="c" points="73.16 275.19 73.16 273.75 83.35 273.75 83.35 282.26 73.16 282.26"/><line class="c" x1="83.35" y1="276.57" x2="73.16" y2="276.57"/><line class="c" x1="81.97" y1="277.88" x2="74.6" y2="277.88"/><line class="c" x1="83.35" y1="279.44" x2="73.16" y2="279.44"/><line class="c" x1="81.97" y1="278.12" x2="74.6" y2="278.12"/><line class="c" x1="74.6" y1="279.44" x2="74.6" y2="276.57"/><line class="c" x1="126.49" y1="279.44" x2="126.49" y2="276.57"/><polyline class="c" points="127.93 282.26 117.75 282.26 117.75 273.75 127.93 273.75 127.93 275.19"/><line class="c" x1="127.93" y1="276.57" x2="117.75" y2="276.57"/><line class="c" x1="126.49" y1="277.88" x2="119.18" y2="277.88"/><line class="c" x1="127.93" y1="279.44" x2="117.75" y2="279.44"/><line class="c" x1="126.49" y1="278.12" x2="119.18" y2="278.12"/><line class="c" x1="119.18" y1="279.44" x2="119.18" y2="276.57"/><polyline class="c" points="139.32 189.79 139.32 188.41 176.12 188.41 176.12 189.79"/><line class="c" x1="176.12" y1="191.23" x2="139.32" y2="191.23"/><line class="c" x1="174.74" y1="192.49" x2="140.76" y2="192.49"/><line class="c" x1="176.12" y1="194.04" x2="139.32" y2="194.04"/><line class="c" x1="174.74" y1="192.73" x2="140.76" y2="192.73"/><line class="c" x1="176.12" y1="197.58" x2="139.32" y2="197.58"/><line class="c" x1="78.31" y1="189.79" x2="116.13" y2="189.79"/><polyline class="c" points="81.85 172.41 82.45 172.51 83.05 172.64 83.64 172.79 84.23 172.96 84.81 173.14 85.39 173.35 85.96 173.58 86.52 173.82 87.07 174.09 87.61 174.38 88.14 174.68 88.66 175 89.17 175.34 89.67 175.7 90.16 176.07 90.63 176.46 91.08 176.87 91.53 177.29 91.95 177.73 92.37 178.18 92.77 178.64 93.15 179.12 93.51 179.62 93.86 180.12 94.19 180.64 94.5 181.16 94.79 181.7 95.06 182.25 95.32 182.8 95.55 183.37 95.77 183.94 95.97 184.52 96.14 185.11 96.3 185.7 96.43 186.3 96.55 186.9 96.64 187.5 96.71 188.11"/><polygon class="c" points="78.31 192.13 79.21 192.13 79.21 189.79 80.17 189.79 80.17 172.23 79.21 172.23 79.21 189.79 78.31 189.79 78.31 192.13"/><polyline class="c" points="97.73 188.11 97.8 187.5 97.89 186.9 98.01 186.3 98.14 185.7 98.3 185.11 98.47 184.52 98.67 183.94 98.89 183.37 99.12 182.8 99.38 182.25 99.65 181.7 99.94 181.16 100.25 180.64 100.58 180.12 100.93 179.62 101.29 179.12 101.67 178.64 102.07 178.18 102.48 177.73 102.91 177.29 103.36 176.87 103.81 176.46 104.28 176.07 104.77 175.7 105.27 175.34 105.78 175 106.3 174.68 106.83 174.38 107.37 174.09 107.92 173.82 108.48 173.58 109.05 173.35 109.62 173.14 110.21 172.96 110.8 172.79 111.39 172.64 111.99 172.51 112.59 172.41"/><line class="c" x1="114.21" y1="172.23" x2="114.21" y2="189.79"/><polyline class="c" points="86.7 260.8 87.24 260.9 87.78 261.02 88.31 261.15 88.84 261.31 89.37 261.48 89.88 261.66 90.39 261.87 90.9 262.09 91.39 262.33 91.88 262.59 92.36 262.87 92.82 263.16 93.28 263.46 93.73 263.79 94.16 264.12 94.58 264.47 95 264.84 95.39 265.22 95.78 265.61 96.15 266.02 96.51 266.44 96.85 266.87 97.18 267.31 97.49 267.77 97.78 268.23 98.06 268.7 98.33 269.19 98.57 269.68 98.8 270.18 99.02 270.69 99.21 271.2 99.39 271.72 99.55 272.25 99.69 272.78 99.81 273.32 99.91 273.86 100 274.4 100.07 274.95"/><polygon class="c" points="83.35 278.66 84.19 278.66 84.19 276.56 85.08 276.56 85.08 260.56 84.19 260.56 84.19 276.56 83.35 276.56 83.35 278.66"/><polyline class="c" points="101.08 274.95 101.15 274.4 101.24 273.86 101.34 273.32 101.46 272.78 101.61 272.25 101.76 271.72 101.94 271.2 102.14 270.69 102.35 270.18 102.58 269.68 102.82 269.19 103.09 268.7 103.37 268.23 103.66 267.77 103.98 267.31 104.3 266.87 104.64 266.44 105 266.02 105.37 265.61 105.76 265.22 106.16 264.84 106.57 264.47 106.99 264.12 107.42 263.79 107.87 263.46 108.33 263.16 108.8 262.87 109.27 262.59 109.76 262.33 110.25 262.09 110.76 261.87 111.27 261.66 111.78 261.48 112.31 261.31 112.84 261.15 113.37 261.02 113.91 260.9 114.45 260.8"/><polygon class="c" points="117.75 278.66 116.97 278.66 116.97 276.56 116.01 276.56 116.01 260.56 116.97 260.56 116.97 276.56 117.75 276.56 117.75 278.66"/><polyline class="c" points="185.1 510.59 185.04 511.06 184.96 511.54 184.87 512.01 184.75 512.48 184.62 512.95 184.48 513.41 184.32 513.87 184.14 514.32 183.95 514.76 183.74 515.19 183.52 515.62 183.28 516.04 183.03 516.46 182.76 516.86 182.48 517.25 182.19 517.63 181.88 518.01 181.56 518.37 181.23 518.72 180.89 519.06 180.53 519.39 180.17 519.7 179.79 520 179.4 520.29 179 520.57 178.6 520.83 178.18 521.07 177.76 521.3 177.33 521.52 176.89 521.72 176.44 521.91 175.99 522.08 175.53 522.24 175.07 522.37 174.6 522.5 174.13 522.6 173.66 522.69"/><polygon class="c" points="170.72 507.29 171.38 507.29 171.38 509.09 172.16 509.09 172.16 522.93 171.38 522.93 171.38 509.09 170.72 509.09 170.72 507.29"/><polyline class="c" points="197.45 522.69 196.98 522.6 196.5 522.5 196.04 522.37 195.57 522.23 195.12 522.08 194.67 521.91 194.22 521.72 193.78 521.52 193.35 521.3 192.93 521.07 192.51 520.83 192.1 520.57 191.71 520.29 191.32 520 190.94 519.7 190.58 519.39 190.22 519.06 189.88 518.72 189.54 518.37 189.22 518.01 188.92 517.63 188.63 517.25 188.34 516.86 188.08 516.46 187.83 516.04 187.59 515.62 187.37 515.19 187.16 514.76 186.97 514.32 186.79 513.87 186.63 513.41 186.49 512.95 186.36 512.48 186.24 512.01 186.15 511.54 186.07 511.06 186 510.59"/><polygon class="c" points="200.45 507.29 199.73 507.29 199.73 509.09 198.95 509.09 198.95 522.93 199.73 522.93 199.73 509.09 200.45 509.09 200.45 507.29"/><polyline class="c" points="174.08 484.82 174.15 484.12 174.25 483.42 174.37 482.72 174.52 482.04 174.69 481.35 174.88 480.67 175.09 480 175.33 479.34 175.59 478.68 175.88 478.04 176.18 477.4 176.51 476.78 176.86 476.17 177.23 475.57 177.62 474.98 178.02 474.4 178.45 473.85 178.9 473.3 179.37 472.77 179.85 472.26 180.35 471.76 180.87 471.29 181.41 470.83 181.95 470.39 182.52 469.96 183.1 469.56 183.69 469.18 184.29 468.82 184.91 468.48 185.54 468.16 186.18 467.86 186.83 467.58 187.48 467.33 188.15 467.1 188.82 466.89 189.5 466.71 190.19 466.55 190.88 466.41 191.58 466.3"/><rect class="c" x="172.94" y="486.62" width="1.02" height="2.7"/><polygon class="c" points="195.59 489.31 194.57 489.31 194.57 486.62 193.38 486.62 193.38 466 194.57 466 194.57 486.62 195.59 486.62 195.59 489.31"/><polyline class="c" points="134.94 374.61 135.05 373.99 135.18 373.37 135.33 372.76 135.5 372.16 135.69 371.56 135.9 370.97 136.13 370.39 136.39 369.81 136.66 369.25 136.95 368.69 137.26 368.14 137.59 367.61 137.94 367.08 138.31 366.57 138.69 366.08 139.09 365.59 139.51 365.13 139.94 364.67 140.39 364.23 140.86 363.81 141.34 363.4 141.83 363.01 142.33 362.64 142.85 362.28 143.38 361.95 143.93 361.63 144.48 361.33 145.04 361.05 145.61 360.79 146.19 360.55 146.78 360.33 147.38 360.13 147.98 359.96 148.59 359.8 149.2 359.66 149.82 359.55 150.44 359.46 151.07 359.39"/><polyline class="c" points="178.03 342.31 177.49 342.24 176.95 342.15 176.41 342.05 175.88 341.93 175.35 341.78 174.82 341.62 174.31 341.45 173.8 341.25 173.29 341.04 172.79 340.81 172.3 340.56 171.82 340.3 171.35 340.02 170.89 339.73 170.44 339.42 170 339.09 169.57 338.75 169.16 338.4 168.75 338.03 168.36 337.64 167.98 337.25 167.62 336.84 167.27 336.42 166.93 335.99 166.61 335.54 166.3 335.09 166.01 334.62 165.74 334.15 165.48 333.67 165.24 333.17 165.02 332.67 164.81 332.17 164.63 331.65 164.45 331.13 164.3 330.61 164.17 330.08 164.05 329.54 163.95 329"/><line class="c" x1="163.77" y1="327.38" x2="179.65" y2="327.38"/><line class="c" x1="179.65" y1="326.49" x2="163.77" y2="326.49"/><rect class="c" x="178.27" y="422.79" width="2.82" height="2.82"/><polyline class="c" points="206.32 371.49 191.82 378.5 190.38 377.07 190.8 381.2 189.3 379.76 174.8 386.77"/><polyline class="c" points="193.38 387.61 190.56 384.8 187.74 387.61"/><line class="c" x1="190.56" y1="384.8" x2="190.56" y2="429.8"/><line class="c" x1="161.73" y1="292.69" x2="161.73" y2="310.66"/><line class="c" x1="160.71" y1="310.66" x2="160.71" y2="292.69"/><polyline class="c" points="163.41 292.87 164.03 292.97 164.65 293.1 165.25 293.25 165.86 293.42 166.46 293.61 167.05 293.82 167.63 294.06 168.21 294.31 168.78 294.58 169.33 294.87 169.88 295.18 170.41 295.51 170.93 295.86 171.44 296.23 171.94 296.61 172.43 297.01 172.9 297.43 173.35 297.87 173.79 298.31 174.21 298.78 174.62 299.26 175.01 299.75 175.38 300.25 175.74 300.77 176.07 301.3 176.39 301.85 176.69 302.4 176.97 302.96 177.23 303.53 177.47 304.11 177.69 304.7 177.89 305.3 178.06 305.9 178.22 306.51 178.36 307.12 178.47 307.74 178.56 308.36 178.63 308.99"/><polyline class="c" points="186.18 368.56 191.52 368.56 196.79 368.56"/><polyline class="c" points="166.89 212.98 167.31 212.86 167.67 212.56 167.79 212.08 167.79 200.04 167.67 199.62 167.31 199.26 166.89 199.14 140.4 199.14 139.92 199.26 139.62 199.62 139.5 200.04"/><line class="c" x1="139.44" y1="212.08" x2="139.44" y2="200.04"/><line class="c" x1="166.89" y1="213.04" x2="140.4" y2="213.04"/><line class="c" x1="152.62" y1="201.83" x2="142.8" y2="201.83"/><line class="c" x1="141.48" y1="210.46" x2="141.48" y2="203.15"/><polyline class="c" points="152.62 201.89 153.1 202.01 153.52 202.25 153.76 202.67 153.88 203.15 153.88 210.46 153.76 210.94 153.52 211.36 153.1 211.6 152.62 211.72 142.79 211.72 142.32 211.6 141.9 211.36 141.66 210.94 141.54 210.46"/><rect class="c" x="180.97" y="236.65" width="14.14" height="16.42"/><line class="c" x1="195.11" y1="239.23" x2="180.97" y2="239.23"/><line class="c" x1="170.72" y1="509.09" x2="200.45" y2="509.09"/><polygon class="c" points="152.74 377.31 152.74 376.23 134.71 376.23 134.71 377.31 152.74 377.31 152.74 378.2 155.14 378.2 155.14 377.31 152.74 377.31"/><polyline class="c" points="195.35 361.54 193.44 361.84 191.52 361.9"/><rect class="d" x="113.85" y="223.65" width="28.59" height="28.47"/><rect class="d" x="112.41" y="222.21" width="31.46" height="31.28"/><polygon class="e" points="127.93 275.19 155.14 275.19 155.14 310.25 159.81 310.25 159.81 313.06 155.14 313.06 155.14 358.37 152.02 358.37 152.02 282.26 127.93 282.26 127.93 275.19"/><polygon class="e" points="152.26 385.34 147.77 385.34 147.77 381.08 152.02 381.08 152.02 378.2 155.14 378.2 155.14 483.62 161.61 483.62 161.61 490.69 146.87 490.69 143.22 494.7 138.06 489.85 143.81 483.62 152.26 483.62 152.26 385.34"/><polygon class="e" points="64.23 483.62 69.98 489.85 64.77 494.7 61.11 490.69 46.67 490.69 46.67 275.19 50.87 275.19 50.87 189.79 78.31 189.79 78.31 197.58 58.66 197.58 58.66 275.19 73.16 275.19 73.16 282.26 53.74 282.26 53.74 381.08 64.23 381.08 64.23 385.34 53.74 385.34 53.74 483.62 64.23 483.62"/><rect class="e" x="116.13" y="189.79" width="23.19" height="7.79"/><polyline class="e" points="200.75 371.37 179.65 371.37 179.65 343.15 182.23 343.15 182.23 368.56 200.75 368.56"/><polygon class="e" points="196.49 275.19 196.49 197.58 176.12 197.58 176.12 189.79 204.28 189.79 204.28 275.19 207.82 275.19 207.82 490.69 195.59 490.69 195.59 483.62 200.75 483.62 200.75 313.06 182.23 313.06 182.23 325.71 179.65 325.71 179.65 310.25 200.75 310.25 200.75 282.26 179.65 282.26 179.65 275.19 196.49 275.19"/></svg>