<svg xmlns="http://www.w3.org/2000/svg" viewBox="0 0 113.39 198.43"><defs><style>.a,.c{fill:none;stroke-linecap:round;stroke-linejoin:round;stroke-width:0.1px;}.a{stroke:#1d1d1b;}.b{fill:silver;}.c{stroke:blue;}.d{fill:#1d1d1b;}</style></defs><line class="a" x1="50.15" y1="166.07" x2="62.14" y2="166.07"/><line class="a" x1="38.32" y1="166.07" x2="49.13" y2="166.07"/><line class="a" x1="49.13" y1="163.5" x2="38.32" y2="163.5"/><line class="a" x1="60.98" y1="163.5" x2="50.15" y2="163.5"/><line class="a" x1="50.15" y1="164.53" x2="60.98" y2="164.53"/><line class="a" x1="38.32" y1="164.53" x2="49.13" y2="164.53"/><line class="a" x1="50.15" y1="165.03" x2="60.98" y2="165.03"/><line class="a" x1="38.32" y1="165.03" x2="49.13" y2="165.03"/><line class="a" x1="76.6" y1="151.97" x2="73.97" y2="151.97"/><line class="a" x1="76.6" y1="152.5" x2="73.97" y2="152.5"/><line class="a" x1="81.56" y1="20.8" x2="69.23" y2="20.8"/><line class="a" x1="81.56" y1="21.3" x2="69.23" y2="21.3"/><line class="a" x1="39.43" y1="20.8" x2="51.76" y2="20.8"/><line class="a" x1="39.43" y1="21.3" x2="51.76" y2="21.3"/><polyline class="a" points="60.48 20.54 60.48 21.56 68.71 21.56"/><line class="a" x1="52.26" y1="20.54" x2="60.48" y2="20.54"/><line class="a" x1="52.26" y1="21.06" x2="68.71" y2="21.06"/><line class="a" x1="52.26" y1="22.58" x2="68.71" y2="22.58"/><line class="a" x1="52.26" y1="19.52" x2="68.71" y2="19.52"/><line class="a" x1="69.23" y1="22.58" x2="69.23" y2="19.52"/><line class="a" x1="68.71" y1="22.58" x2="68.71" y2="19.52"/><line class="a" x1="51.76" y1="22.58" x2="51.76" y2="19.52"/><line class="a" x1="52.26" y1="22.58" x2="52.26" y2="19.52"/><polyline class="a" points="73.97 152.76 77.63 152.76 77.63 151.71 76.6 151.71"/><line class="a" x1="52.26" y1="22.58" x2="39.43" y2="22.58"/><line class="a" x1="81.56" y1="22.58" x2="68.71" y2="22.58"/><line class="a" x1="52.26" y1="19.52" x2="39.43" y2="19.52"/><line class="a" x1="81.56" y1="19.52" x2="68.71" y2="19.52"/><line class="a" x1="62.24" y1="164.37" x2="69.42" y2="156.24"/><line class="a" x1="62.14" y1="166.07" x2="70.25" y2="156.84"/><line class="a" x1="61.83" y1="164.09" x2="69.01" y2="155.93"/><line class="a" x1="60.98" y1="163.5" x2="68.16" y2="155.32"/><line class="a" x1="78.54" y1="126.39" x2="86.04" y2="130.55"/><polyline class="a" points="63.09 164.96 60.98 163.5 60.98 166.07"/><line class="a" x1="73.97" y1="151.71" x2="76.6" y2="151.71"/><line class="a" x1="78.54" y1="134.68" x2="86.04" y2="134.68"/><line class="a" x1="78.54" y1="132.61" x2="86.04" y2="132.61"/><line class="a" x1="78.54" y1="130.55" x2="86.04" y2="130.55"/><polyline class="a" points="78.54 128.46 82.3 128.46 82.56 128.46"/><line class="a" x1="78.54" y1="136.75" x2="86.04" y2="136.75"/><line class="a" x1="78.54" y1="138.83" x2="86.04" y2="138.83"/><line class="a" x1="76.6" y1="151.71" x2="76.6" y2="152.76"/><polygon class="b" points="81.02 113.47 80.86 112.97 80.81 112.81 80.77 112.66 80.73 112.51 80.69 112.36 80.66 112.2 80.63 112.05 80.61 111.9 80.58 111.74 80.56 111.59 80.54 111.43 80.53 111.27 80.52 111.12 80.51 110.96 80.5 110.8 80.5 110.59 80.5 110.47 80.5 110.4 80.5 110.33 80.51 110.27 80.52 110.2 80.53 110.13 80.54 110.06 80.56 110 80.57 109.93 80.59 109.87 80.61 109.8 80.63 109.74 80.65 109.68 80.68 109.61 80.7 109.55 80.73 109.49 80.76 109.43 80.79 109.37 80.82 109.31 80.86 109.25 80.89 109.2 80.93 109.14 80.97 109.09 81.01 109.03 81.05 108.98 81.09 108.93 81.14 108.88 81.19 108.83 81.23 108.78 81.28 108.73 81.33 108.69 81.38 108.64 81.4 108.62 81.43 108.6 81.45 108.58 81.48 108.56 81.51 108.54 81.54 108.53 81.56 108.51 81.59 108.49 81.62 108.47 81.65 108.46 81.68 108.44 81.71 108.43 81.74 108.42 81.77 108.4 81.8 108.39 81.83 108.38 81.86 108.37 81.9 108.36 81.93 108.35 81.96 108.34 81.99 108.33 82.02 108.33 82.06 108.32 82.09 108.31 82.12 108.31 82.15 108.3 82.19 108.3 82.22 108.3 82.25 108.29 82.29 108.29 82.32 108.29 82.35 108.29 82.39 108.29 82.42 108.29 82.45 108.29 82.49 108.3 82.52 108.3 82.55 108.3 82.58 108.31 82.62 108.31 82.65 108.32 82.68 108.33 82.72 108.33 82.75 108.34 82.78 108.35 82.81 108.36 82.84 108.37 82.87 108.38 82.9 108.39 82.94 108.4 82.97 108.42 83 108.43 83.03 108.44 83.06 108.46 83.08 108.47 83.11 108.49 83.14 108.51 83.17 108.53 83.2 108.54 83.22 108.56 83.25 108.58 83.28 108.6 83.31 108.62 83.34 108.64 83.39 108.69 83.44 108.73 83.49 108.78 83.54 108.83 83.59 108.88 83.63 108.93 83.68 108.98 83.72 109.03 83.76 109.09 83.8 109.14 83.84 109.2 83.87 109.25 83.91 109.31 83.94 109.37 83.97 109.43 84 109.49 84.03 109.55 84.05 109.61 84.08 109.68 84.1 109.74 84.12 109.8 84.14 109.87 84.16 109.93 84.17 110 84.19 110.06 84.2 110.13 84.21 110.2 84.22 110.27 84.22 110.33 84.23 110.4 84.23 110.47 84.23 110.59 84.23 110.8 84.22 110.96 84.21 111.12 84.2 111.27 84.19 111.43 84.17 111.59 84.15 111.74 84.12 111.9 84.1 112.05 84.07 112.2 84.03 112.36 84 112.51 83.96 112.66 83.92 112.81 83.87 112.97 83.71 113.47 83.8 113.47 84.3 113.52 84.3 114.76 80.45 114.76 80.45 113.53 80.45 113.52 80.91 113.47 81.02 113.47"/><polygon class="b" points="84.86 102.66 86.08 102.66 86.08 106.59 84.86 106.59 84.58 106.55 84.3 106.42 84.04 106.23 83.82 105.99 83.65 105.7 83.52 105.36 83.43 105.01 83.41 104.64 83.43 104.27 83.52 103.9 83.65 103.58 83.82 103.27 84.04 103.03 84.3 102.86 84.58 102.73 84.86 102.66"/><polygon class="b" points="78.67 101.69 78.67 94.23 86.17 94.23 86.17 101.69 86.1 101.69 78.8 101.69 78.67 101.69"/><polygon class="b" points="43.06 28.91 43.06 49.77 43.06 75.09 58.47 75.09 58.47 81.24 42.96 81.24 36.92 81.24 36.92 22.74 39.61 22.74 51.93 22.74 51.93 28.91 43.06 28.91"/><line class="c" x1="79.54" y1="57.78" x2="79.54" y2="57.61"/><line class="c" x1="79.54" y1="58.26" x2="79.54" y2="58.02"/><line class="c" x1="79.54" y1="58.76" x2="79.54" y2="58.52"/><line class="c" x1="79.54" y1="59.26" x2="79.54" y2="59"/><line class="c" x1="79.54" y1="59.74" x2="79.54" y2="59.5"/><line class="c" x1="79.54" y1="60.24" x2="79.54" y2="60"/><line class="c" x1="79.54" y1="60.74" x2="79.54" y2="60.48"/><line class="c" x1="79.54" y1="61.22" x2="79.54" y2="60.98"/><line class="c" x1="79.54" y1="61.72" x2="79.54" y2="61.48"/><line class="c" x1="79.54" y1="62.22" x2="79.54" y2="61.96"/><line class="c" x1="79.54" y1="62.7" x2="79.54" y2="62.46"/><line class="c" x1="79.54" y1="63.2" x2="79.54" y2="62.96"/><line class="c" x1="79.54" y1="63.7" x2="79.54" y2="63.44"/><line class="c" x1="79.54" y1="64.18" x2="79.54" y2="63.94"/><polyline class="c" points="79.3 64.59 79.54 64.59 79.54 64.44"/><line class="c" x1="78.8" y1="64.59" x2="79.06" y2="64.59"/><line class="c" x1="78.32" y1="64.59" x2="78.56" y2="64.59"/><line class="c" x1="77.82" y1="64.59" x2="78.06" y2="64.59"/><line class="c" x1="77.32" y1="64.59" x2="77.58" y2="64.59"/><line class="c" x1="76.84" y1="64.59" x2="77.08" y2="64.59"/><line class="c" x1="76.34" y1="64.59" x2="76.58" y2="64.59"/><line class="c" x1="75.84" y1="64.59" x2="76.1" y2="64.59"/><line class="c" x1="75.36" y1="64.59" x2="75.6" y2="64.59"/><line class="c" x1="74.86" y1="64.59" x2="75.1" y2="64.59"/><line class="c" x1="74.36" y1="64.59" x2="74.62" y2="64.59"/><line class="c" x1="73.88" y1="64.59" x2="74.12" y2="64.59"/><line class="c" x1="73.38" y1="64.59" x2="73.62" y2="64.59"/><line class="c" x1="72.88" y1="64.59" x2="73.14" y2="64.59"/><line class="c" x1="72.4" y1="64.59" x2="72.64" y2="64.59"/><line class="c" x1="71.9" y1="64.59" x2="72.14" y2="64.59"/><line class="c" x1="71.4" y1="64.59" x2="71.66" y2="64.59"/><line class="c" x1="70.92" y1="64.59" x2="71.16" y2="64.59"/><line class="c" x1="70.42" y1="64.59" x2="70.66" y2="64.59"/><line class="c" x1="69.92" y1="64.59" x2="70.19" y2="64.59"/><line class="c" x1="69.45" y1="64.59" x2="69.68" y2="64.59"/><line class="c" x1="68.95" y1="64.59" x2="69.18" y2="64.59"/><polyline class="c" points="68.44 64.44 68.44 64.59 68.71 64.59"/><line class="c" x1="68.44" y1="63.94" x2="68.44" y2="64.18"/><line class="c" x1="68.44" y1="63.44" x2="68.44" y2="63.7"/><line class="c" x1="68.44" y1="62.96" x2="68.44" y2="63.2"/><line class="c" x1="68.44" y1="62.46" x2="68.44" y2="62.7"/><line class="c" x1="68.44" y1="61.96" x2="68.44" y2="62.22"/><line class="c" x1="68.44" y1="61.48" x2="68.44" y2="61.72"/><line class="c" x1="68.44" y1="60.98" x2="68.44" y2="61.22"/><line class="c" x1="68.44" y1="60.48" x2="68.44" y2="60.74"/><line class="c" x1="68.44" y1="60" x2="68.44" y2="60.24"/><line class="c" x1="68.44" y1="59.5" x2="68.44" y2="59.74"/><line class="c" x1="68.44" y1="59" x2="68.44" y2="59.26"/><line class="c" x1="68.44" y1="58.52" x2="68.44" y2="58.76"/><line class="c" x1="68.44" y1="58.02" x2="68.44" y2="58.26"/><polyline class="c" points="68.71 57.61 68.44 57.61 68.44 57.78"/><line class="c" x1="69.18" y1="57.61" x2="68.95" y2="57.61"/><line class="c" x1="69.68" y1="57.61" x2="69.45" y2="57.61"/><line class="c" x1="70.19" y1="57.61" x2="69.92" y2="57.61"/><line class="c" x1="70.66" y1="57.61" x2="70.42" y2="57.61"/><line class="c" x1="71.16" y1="57.61" x2="70.92" y2="57.61"/><line class="c" x1="71.66" y1="57.61" x2="71.4" y2="57.61"/><line class="c" x1="72.14" y1="57.61" x2="71.9" y2="57.61"/><line class="c" x1="72.64" y1="57.61" x2="72.4" y2="57.61"/><line class="c" x1="73.14" y1="57.61" x2="72.88" y2="57.61"/><line class="c" x1="73.62" y1="57.61" x2="73.38" y2="57.61"/><line class="c" x1="74.12" y1="57.61" x2="73.88" y2="57.61"/><line class="c" x1="74.62" y1="57.61" x2="74.36" y2="57.61"/><line class="c" x1="75.1" y1="57.61" x2="74.86" y2="57.61"/><line class="c" x1="75.6" y1="57.61" x2="75.36" y2="57.61"/><line class="c" x1="76.1" y1="57.61" x2="75.84" y2="57.61"/><line class="c" x1="76.58" y1="57.61" x2="76.34" y2="57.61"/><line class="c" x1="77.08" y1="57.61" x2="76.84" y2="57.61"/><line class="c" x1="77.58" y1="57.61" x2="77.32" y2="57.61"/><line class="c" x1="78.06" y1="57.61" x2="77.82" y2="57.61"/><line class="c" x1="78.56" y1="57.61" x2="78.32" y2="57.61"/><line class="c" x1="79.06" y1="57.61" x2="78.8" y2="57.61"/><line class="c" x1="79.54" y1="57.61" x2="79.3" y2="57.61"/><line class="c" x1="80.06" y1="57.28" x2="80.06" y2="57.08"/><line class="c" x1="80.06" y1="57.78" x2="80.06" y2="57.52"/><line class="c" x1="80.06" y1="58.26" x2="80.06" y2="58.02"/><line class="c" x1="80.06" y1="58.76" x2="80.06" y2="58.52"/><line class="c" x1="80.06" y1="59.26" x2="80.06" y2="59"/><line class="c" x1="80.06" y1="59.74" x2="80.06" y2="59.5"/><line class="c" x1="80.06" y1="60.24" x2="80.06" y2="60"/><line class="c" x1="80.06" y1="60.74" x2="80.06" y2="60.48"/><line class="c" x1="80.06" y1="61.22" x2="80.06" y2="60.98"/><line class="c" x1="80.06" y1="61.72" x2="80.06" y2="61.48"/><line class="c" x1="80.06" y1="62.22" x2="80.06" y2="61.96"/><line class="c" x1="80.06" y1="62.7" x2="80.06" y2="62.46"/><line class="c" x1="80.06" y1="63.2" x2="80.06" y2="62.96"/><line class="c" x1="80.06" y1="63.7" x2="80.06" y2="63.44"/><line class="c" x1="80.06" y1="64.18" x2="80.06" y2="63.94"/><line class="c" x1="80.06" y1="64.68" x2="80.06" y2="64.44"/><polyline class="c" points="79.8 65.11 80.06 65.11 80.06 64.92"/><line class="c" x1="79.3" y1="65.11" x2="79.54" y2="65.11"/><line class="c" x1="78.8" y1="65.11" x2="79.06" y2="65.11"/><line class="c" x1="78.32" y1="65.11" x2="78.56" y2="65.11"/><line class="c" x1="77.82" y1="65.11" x2="78.06" y2="65.11"/><line class="c" x1="77.32" y1="65.11" x2="77.58" y2="65.11"/><line class="c" x1="76.84" y1="65.11" x2="77.08" y2="65.11"/><line class="c" x1="76.34" y1="65.11" x2="76.58" y2="65.11"/><line class="c" x1="75.84" y1="65.11" x2="76.1" y2="65.11"/><line class="c" x1="75.36" y1="65.11" x2="75.6" y2="65.11"/><line class="c" x1="74.86" y1="65.11" x2="75.1" y2="65.11"/><line class="c" x1="74.36" y1="65.11" x2="74.62" y2="65.11"/><line class="c" x1="73.88" y1="65.11" x2="74.12" y2="65.11"/><line class="c" x1="73.38" y1="65.11" x2="73.62" y2="65.11"/><line class="c" x1="72.88" y1="65.11" x2="73.14" y2="65.11"/><line class="c" x1="72.4" y1="65.11" x2="72.64" y2="65.11"/><line class="c" x1="71.9" y1="65.11" x2="72.14" y2="65.11"/><line class="c" x1="71.4" y1="65.11" x2="71.66" y2="65.11"/><line class="c" x1="70.92" y1="65.11" x2="71.16" y2="65.11"/><line class="c" x1="70.42" y1="65.11" x2="70.66" y2="65.11"/><line class="c" x1="69.92" y1="65.11" x2="70.19" y2="65.11"/><line class="c" x1="69.45" y1="65.11" x2="69.68" y2="65.11"/><line class="c" x1="68.95" y1="65.11" x2="69.18" y2="65.11"/><line class="c" x1="68.44" y1="65.11" x2="68.71" y2="65.11"/><polyline class="c" points="67.94 64.92 67.94 65.11 68.21 65.11"/><line class="c" x1="67.94" y1="64.44" x2="67.94" y2="64.68"/><line class="c" x1="67.94" y1="63.94" x2="67.94" y2="64.18"/><line class="c" x1="67.94" y1="63.44" x2="67.94" y2="63.7"/><line class="c" x1="67.94" y1="62.96" x2="67.94" y2="63.2"/><line class="c" x1="67.94" y1="62.46" x2="67.94" y2="62.7"/><line class="c" x1="67.94" y1="61.96" x2="67.94" y2="62.22"/><line class="c" x1="67.94" y1="61.48" x2="67.94" y2="61.72"/><line class="c" x1="67.94" y1="60.98" x2="67.94" y2="61.22"/><line class="c" x1="67.94" y1="60.48" x2="67.94" y2="60.74"/><line class="c" x1="67.94" y1="60" x2="67.94" y2="60.24"/><line class="c" x1="67.94" y1="59.5" x2="67.94" y2="59.74"/><line class="c" x1="67.94" y1="59" x2="67.94" y2="59.26"/><line class="c" x1="67.94" y1="58.52" x2="67.94" y2="58.76"/><line class="c" x1="67.94" y1="58.02" x2="67.94" y2="58.26"/><line class="c" x1="67.94" y1="57.52" x2="67.94" y2="57.78"/><polyline class="c" points="68.21 57.08 67.94 57.08 67.94 57.28"/><line class="c" x1="68.71" y1="57.08" x2="68.44" y2="57.08"/><line class="c" x1="69.18" y1="57.08" x2="68.95" y2="57.08"/><line class="c" x1="69.68" y1="57.08" x2="69.45" y2="57.08"/><line class="c" x1="70.19" y1="57.08" x2="69.92" y2="57.08"/><line class="c" x1="70.66" y1="57.08" x2="70.42" y2="57.08"/><line class="c" x1="71.16" y1="57.08" x2="70.92" y2="57.08"/><line class="c" x1="71.66" y1="57.08" x2="71.4" y2="57.08"/><line class="c" x1="72.14" y1="57.08" x2="71.9" y2="57.08"/><line class="c" x1="72.64" y1="57.08" x2="72.4" y2="57.08"/><line class="c" x1="73.14" y1="57.08" x2="72.88" y2="57.08"/><line class="c" x1="73.62" y1="57.08" x2="73.38" y2="57.08"/><line class="c" x1="74.12" y1="57.08" x2="73.88" y2="57.08"/><line class="c" x1="74.62" y1="57.08" x2="74.36" y2="57.08"/><line class="c" x1="75.1" y1="57.08" x2="74.86" y2="57.08"/><line class="c" x1="75.6" y1="57.08" x2="75.36" y2="57.08"/><line class="c" x1="76.1" y1="57.08" x2="75.84" y2="57.08"/><line class="c" x1="76.58" y1="57.08" x2="76.34" y2="57.08"/><line class="c" x1="77.08" y1="57.08" x2="76.84" y2="57.08"/><line class="c" x1="77.58" y1="57.08" x2="77.32" y2="57.08"/><line class="c" x1="78.06" y1="57.08" x2="77.82" y2="57.08"/><line class="c" x1="78.56" y1="57.08" x2="78.32" y2="57.08"/><line class="c" x1="79.06" y1="57.08" x2="78.8" y2="57.08"/><line class="c" x1="79.54" y1="57.08" x2="79.3" y2="57.08"/><line class="c" x1="80.06" y1="57.08" x2="79.8" y2="57.08"/><line class="c" x1="79.54" y1="38.07" x2="79.54" y2="38.25"/><line class="c" x1="79.54" y1="37.59" x2="79.54" y2="37.83"/><line class="c" x1="79.54" y1="37.09" x2="79.54" y2="37.33"/><line class="c" x1="79.54" y1="36.59" x2="79.54" y2="36.85"/><line class="c" x1="79.54" y1="36.11" x2="79.54" y2="36.35"/><line class="c" x1="79.54" y1="35.61" x2="79.54" y2="35.85"/><line class="c" x1="79.54" y1="35.11" x2="79.54" y2="35.37"/><line class="c" x1="79.54" y1="34.63" x2="79.54" y2="34.87"/><line class="c" x1="79.54" y1="34.13" x2="79.54" y2="34.37"/><line class="c" x1="79.54" y1="33.63" x2="79.54" y2="33.9"/><line class="c" x1="79.54" y1="33.16" x2="79.54" y2="33.39"/><line class="c" x1="79.54" y1="32.66" x2="79.54" y2="32.89"/><line class="c" x1="79.54" y1="32.15" x2="79.54" y2="32.42"/><line class="c" x1="79.54" y1="31.68" x2="79.54" y2="31.92"/><polyline class="c" points="79.3 31.26 79.54 31.26 79.54 31.41"/><line class="c" x1="78.8" y1="31.26" x2="79.06" y2="31.26"/><line class="c" x1="78.32" y1="31.26" x2="78.56" y2="31.26"/><line class="c" x1="77.82" y1="31.26" x2="78.06" y2="31.26"/><line class="c" x1="77.32" y1="31.26" x2="77.58" y2="31.26"/><line class="c" x1="76.84" y1="31.26" x2="77.08" y2="31.26"/><line class="c" x1="76.34" y1="31.26" x2="76.58" y2="31.26"/><line class="c" x1="75.84" y1="31.26" x2="76.1" y2="31.26"/><line class="c" x1="75.36" y1="31.26" x2="75.6" y2="31.26"/><line class="c" x1="74.86" y1="31.26" x2="75.1" y2="31.26"/><line class="c" x1="74.36" y1="31.26" x2="74.62" y2="31.26"/><line class="c" x1="73.88" y1="31.26" x2="74.12" y2="31.26"/><line class="c" x1="73.38" y1="31.26" x2="73.62" y2="31.26"/><line class="c" x1="72.88" y1="31.26" x2="73.14" y2="31.26"/><line class="c" x1="72.4" y1="31.26" x2="72.64" y2="31.26"/><line class="c" x1="71.9" y1="31.26" x2="72.14" y2="31.26"/><line class="c" x1="71.4" y1="31.26" x2="71.66" y2="31.26"/><line class="c" x1="70.92" y1="31.26" x2="71.16" y2="31.26"/><line class="c" x1="70.42" y1="31.26" x2="70.66" y2="31.26"/><line class="c" x1="69.92" y1="31.26" x2="70.19" y2="31.26"/><line class="c" x1="69.45" y1="31.26" x2="69.68" y2="31.26"/><line class="c" x1="68.95" y1="31.26" x2="69.18" y2="31.26"/><polyline class="c" points="68.44 31.41 68.44 31.26 68.71 31.26"/><line class="c" x1="68.44" y1="31.92" x2="68.44" y2="31.68"/><line class="c" x1="68.44" y1="32.42" x2="68.44" y2="32.15"/><line class="c" x1="68.44" y1="32.89" x2="68.44" y2="32.66"/><line class="c" x1="68.44" y1="33.39" x2="68.44" y2="33.16"/><line class="c" x1="68.44" y1="33.9" x2="68.44" y2="33.63"/><line class="c" x1="68.44" y1="34.37" x2="68.44" y2="34.13"/><line class="c" x1="68.44" y1="34.87" x2="68.44" y2="34.63"/><line class="c" x1="68.44" y1="35.37" x2="68.44" y2="35.11"/><line class="c" x1="68.44" y1="35.85" x2="68.44" y2="35.61"/><line class="c" x1="68.44" y1="36.35" x2="68.44" y2="36.11"/><line class="c" x1="68.44" y1="36.85" x2="68.44" y2="36.59"/><line class="c" x1="68.44" y1="37.33" x2="68.44" y2="37.09"/><line class="c" x1="68.44" y1="37.83" x2="68.44" y2="37.59"/><polyline class="c" points="68.71 38.25 68.44 38.25 68.44 38.07"/><line class="c" x1="69.18" y1="38.25" x2="68.95" y2="38.25"/><line class="c" x1="69.68" y1="38.25" x2="69.45" y2="38.25"/><line class="c" x1="70.19" y1="38.25" x2="69.92" y2="38.25"/><line class="c" x1="70.66" y1="38.25" x2="70.42" y2="38.25"/><line class="c" x1="71.16" y1="38.25" x2="70.92" y2="38.25"/><line class="c" x1="71.66" y1="38.25" x2="71.4" y2="38.25"/><line class="c" x1="72.14" y1="38.25" x2="71.9" y2="38.25"/><line class="c" x1="72.64" y1="38.25" x2="72.4" y2="38.25"/><line class="c" x1="73.14" y1="38.25" x2="72.88" y2="38.25"/><line class="c" x1="73.62" y1="38.25" x2="73.38" y2="38.25"/><line class="c" x1="74.12" y1="38.25" x2="73.88" y2="38.25"/><line class="c" x1="74.62" y1="38.25" x2="74.36" y2="38.25"/><line class="c" x1="75.1" y1="38.25" x2="74.86" y2="38.25"/><line class="c" x1="75.6" y1="38.25" x2="75.36" y2="38.25"/><line class="c" x1="76.1" y1="38.25" x2="75.84" y2="38.25"/><line class="c" x1="76.58" y1="38.25" x2="76.34" y2="38.25"/><line class="c" x1="77.08" y1="38.25" x2="76.84" y2="38.25"/><line class="c" x1="77.58" y1="38.25" x2="77.32" y2="38.25"/><line class="c" x1="78.06" y1="38.25" x2="77.82" y2="38.25"/><line class="c" x1="78.56" y1="38.25" x2="78.32" y2="38.25"/><line class="c" x1="79.06" y1="38.25" x2="78.8" y2="38.25"/><line class="c" x1="79.54" y1="38.25" x2="79.3" y2="38.25"/><line class="c" x1="80.06" y1="38.57" x2="80.06" y2="38.77"/><line class="c" x1="80.06" y1="38.07" x2="80.06" y2="38.33"/><line class="c" x1="80.06" y1="37.59" x2="80.06" y2="37.83"/><line class="c" x1="80.06" y1="37.09" x2="80.06" y2="37.33"/><line class="c" x1="80.06" y1="36.59" x2="80.06" y2="36.85"/><line class="c" x1="80.06" y1="36.11" x2="80.06" y2="36.35"/><line class="c" x1="80.06" y1="35.61" x2="80.06" y2="35.85"/><line class="c" x1="80.06" y1="35.11" x2="80.06" y2="35.37"/><line class="c" x1="80.06" y1="34.63" x2="80.06" y2="34.87"/><line class="c" x1="80.06" y1="34.13" x2="80.06" y2="34.37"/><line class="c" x1="80.06" y1="33.63" x2="80.06" y2="33.9"/><line class="c" x1="80.06" y1="33.16" x2="80.06" y2="33.39"/><line class="c" x1="80.06" y1="32.66" x2="80.06" y2="32.89"/><line class="c" x1="80.06" y1="32.15" x2="80.06" y2="32.42"/><line class="c" x1="80.06" y1="31.68" x2="80.06" y2="31.92"/><line class="c" x1="80.06" y1="31.18" x2="80.06" y2="31.42"/><polyline class="c" points="79.8 30.74 80.06 30.74 80.06 30.94"/><line class="c" x1="79.3" y1="30.74" x2="79.54" y2="30.74"/><line class="c" x1="78.8" y1="30.74" x2="79.06" y2="30.74"/><line class="c" x1="78.32" y1="30.74" x2="78.56" y2="30.74"/><line class="c" x1="77.82" y1="30.74" x2="78.06" y2="30.74"/><line class="c" x1="77.32" y1="30.74" x2="77.58" y2="30.74"/><line class="c" x1="76.84" y1="30.74" x2="77.08" y2="30.74"/><line class="c" x1="76.34" y1="30.74" x2="76.58" y2="30.74"/><line class="c" x1="75.84" y1="30.74" x2="76.1" y2="30.74"/><line class="c" x1="75.36" y1="30.74" x2="75.6" y2="30.74"/><line class="c" x1="74.86" y1="30.74" x2="75.1" y2="30.74"/><line class="c" x1="74.36" y1="30.74" x2="74.62" y2="30.74"/><line class="c" x1="73.88" y1="30.74" x2="74.12" y2="30.74"/><line class="c" x1="73.38" y1="30.74" x2="73.62" y2="30.74"/><line class="c" x1="72.88" y1="30.74" x2="73.14" y2="30.74"/><line class="c" x1="72.4" y1="30.74" x2="72.64" y2="30.74"/><line class="c" x1="71.9" y1="30.74" x2="72.14" y2="30.74"/><line class="c" x1="71.4" y1="30.74" x2="71.66" y2="30.74"/><line class="c" x1="70.92" y1="30.74" x2="71.16" y2="30.74"/><line class="c" x1="70.42" y1="30.74" x2="70.66" y2="30.74"/><line class="c" x1="69.92" y1="30.74" x2="70.19" y2="30.74"/><line class="c" x1="69.45" y1="30.74" x2="69.68" y2="30.74"/><line class="c" x1="68.95" y1="30.74" x2="69.18" y2="30.74"/><line class="c" x1="68.44" y1="30.74" x2="68.71" y2="30.74"/><polyline class="c" points="67.94 30.94 67.94 30.74 68.21 30.74"/><line class="c" x1="67.94" y1="31.42" x2="67.94" y2="31.18"/><line class="c" x1="67.94" y1="31.92" x2="67.94" y2="31.68"/><line class="c" x1="67.94" y1="32.42" x2="67.94" y2="32.15"/><line class="c" x1="67.94" y1="32.89" x2="67.94" y2="32.66"/><line class="c" x1="67.94" y1="33.39" x2="67.94" y2="33.16"/><line class="c" x1="67.94" y1="33.9" x2="67.94" y2="33.63"/><line class="c" x1="67.94" y1="34.37" x2="67.94" y2="34.13"/><line class="c" x1="67.94" y1="34.87" x2="67.94" y2="34.63"/><line class="c" x1="67.94" y1="35.37" x2="67.94" y2="35.11"/><line class="c" x1="67.94" y1="35.85" x2="67.94" y2="35.61"/><line class="c" x1="67.94" y1="36.35" x2="67.94" y2="36.11"/><line class="c" x1="67.94" y1="36.85" x2="67.94" y2="36.59"/><line class="c" x1="67.94" y1="37.33" x2="67.94" y2="37.09"/><line class="c" x1="67.94" y1="37.83" x2="67.94" y2="37.59"/><line class="c" x1="67.94" y1="38.33" x2="67.94" y2="38.07"/><polyline class="c" points="68.21 38.77 67.94 38.77 67.94 38.57"/><line class="c" x1="68.71" y1="38.77" x2="68.44" y2="38.77"/><line class="c" x1="69.18" y1="38.77" x2="68.95" y2="38.77"/><line class="c" x1="69.68" y1="38.77" x2="69.45" y2="38.77"/><line class="c" x1="70.19" y1="38.77" x2="69.92" y2="38.77"/><line class="c" x1="70.66" y1="38.77" x2="70.42" y2="38.77"/><line class="c" x1="71.16" y1="38.77" x2="70.92" y2="38.77"/><line class="c" x1="71.66" y1="38.77" x2="71.4" y2="38.77"/><line class="c" x1="72.14" y1="38.77" x2="71.9" y2="38.77"/><line class="c" x1="72.64" y1="38.77" x2="72.4" y2="38.77"/><line class="c" x1="73.14" y1="38.77" x2="72.88" y2="38.77"/><line class="c" x1="73.62" y1="38.77" x2="73.38" y2="38.77"/><line class="c" x1="74.12" y1="38.77" x2="73.88" y2="38.77"/><line class="c" x1="74.62" y1="38.77" x2="74.36" y2="38.77"/><line class="c" x1="75.1" y1="38.77" x2="74.86" y2="38.77"/><line class="c" x1="75.6" y1="38.77" x2="75.36" y2="38.77"/><line class="c" x1="76.1" y1="38.77" x2="75.84" y2="38.77"/><line class="c" x1="76.58" y1="38.77" x2="76.34" y2="38.77"/><line class="c" x1="77.08" y1="38.77" x2="76.84" y2="38.77"/><line class="c" x1="77.58" y1="38.77" x2="77.32" y2="38.77"/><line class="c" x1="78.06" y1="38.77" x2="77.82" y2="38.77"/><line class="c" x1="78.56" y1="38.77" x2="78.32" y2="38.77"/><line class="c" x1="79.06" y1="38.77" x2="78.8" y2="38.77"/><line class="c" x1="79.54" y1="38.77" x2="79.3" y2="38.77"/><line class="c" x1="80.06" y1="38.77" x2="79.8" y2="38.77"/><line class="c" x1="41.58" y1="57.78" x2="41.58" y2="57.61"/><line class="c" x1="41.58" y1="58.26" x2="41.58" y2="58.02"/><line class="c" x1="41.58" y1="58.76" x2="41.58" y2="58.52"/><line class="c" x1="41.58" y1="59.26" x2="41.58" y2="59"/><line class="c" x1="41.58" y1="59.74" x2="41.58" y2="59.5"/><line class="c" x1="41.58" y1="60.24" x2="41.58" y2="60"/><line class="c" x1="41.58" y1="60.74" x2="41.58" y2="60.48"/><line class="c" x1="41.58" y1="61.22" x2="41.58" y2="60.98"/><line class="c" x1="41.58" y1="61.72" x2="41.58" y2="61.48"/><line class="c" x1="41.58" y1="62.22" x2="41.58" y2="61.96"/><line class="c" x1="41.58" y1="62.7" x2="41.58" y2="62.46"/><line class="c" x1="41.58" y1="63.2" x2="41.58" y2="62.96"/><line class="c" x1="41.58" y1="63.7" x2="41.58" y2="63.44"/><line class="c" x1="41.58" y1="64.18" x2="41.58" y2="63.94"/><polyline class="c" points="41.82 64.59 41.58 64.59 41.58 64.44"/><line class="c" x1="42.32" y1="64.59" x2="42.08" y2="64.59"/><line class="c" x1="42.82" y1="64.59" x2="42.56" y2="64.59"/><line class="c" x1="43.3" y1="64.59" x2="43.06" y2="64.59"/><line class="c" x1="43.8" y1="64.59" x2="43.56" y2="64.59"/><line class="c" x1="44.3" y1="64.59" x2="44.04" y2="64.59"/><line class="c" x1="44.78" y1="64.59" x2="44.54" y2="64.59"/><line class="c" x1="45.28" y1="64.59" x2="45.04" y2="64.59"/><line class="c" x1="45.78" y1="64.59" x2="45.52" y2="64.59"/><line class="c" x1="46.26" y1="64.59" x2="46.02" y2="64.59"/><line class="c" x1="46.76" y1="64.59" x2="46.52" y2="64.59"/><line class="c" x1="47.26" y1="64.59" x2="47" y2="64.59"/><line class="c" x1="47.74" y1="64.59" x2="47.5" y2="64.59"/><line class="c" x1="48.24" y1="64.59" x2="48" y2="64.59"/><line class="c" x1="48.74" y1="64.59" x2="48.48" y2="64.59"/><line class="c" x1="49.21" y1="64.59" x2="48.98" y2="64.59"/><line class="c" x1="49.71" y1="64.59" x2="49.48" y2="64.59"/><line class="c" x1="50.22" y1="64.59" x2="49.95" y2="64.59"/><line class="c" x1="50.72" y1="64.59" x2="50.45" y2="64.59"/><line class="c" x1="51.19" y1="64.59" x2="50.95" y2="64.59"/><line class="c" x1="51.69" y1="64.59" x2="51.46" y2="64.59"/><line class="c" x1="52.19" y1="64.59" x2="51.93" y2="64.59"/><polyline class="c" points="52.67 64.44 52.67 64.59 52.43 64.59"/><line class="c" x1="52.67" y1="63.94" x2="52.67" y2="64.18"/><line class="c" x1="52.67" y1="63.44" x2="52.67" y2="63.7"/><line class="c" x1="52.67" y1="62.96" x2="52.67" y2="63.2"/><line class="c" x1="52.67" y1="62.46" x2="52.67" y2="62.7"/><line class="c" x1="52.67" y1="61.96" x2="52.67" y2="62.22"/><line class="c" x1="52.67" y1="61.48" x2="52.67" y2="61.72"/><line class="c" x1="52.67" y1="60.98" x2="52.67" y2="61.22"/><line class="c" x1="52.67" y1="60.48" x2="52.67" y2="60.74"/><line class="c" x1="52.67" y1="60" x2="52.67" y2="60.24"/><line class="c" x1="52.67" y1="59.5" x2="52.67" y2="59.74"/><line class="c" x1="52.67" y1="59" x2="52.67" y2="59.26"/><line class="c" x1="52.67" y1="58.52" x2="52.67" y2="58.76"/><line class="c" x1="52.67" y1="58.02" x2="52.67" y2="58.26"/><polyline class="c" points="52.43 57.61 52.67 57.61 52.67 57.78"/><line class="c" x1="51.93" y1="57.61" x2="52.19" y2="57.61"/><line class="c" x1="51.46" y1="57.61" x2="51.69" y2="57.61"/><line class="c" x1="50.95" y1="57.61" x2="51.19" y2="57.61"/><line class="c" x1="50.45" y1="57.61" x2="50.72" y2="57.61"/><line class="c" x1="49.95" y1="57.61" x2="50.22" y2="57.61"/><line class="c" x1="49.48" y1="57.61" x2="49.71" y2="57.61"/><line class="c" x1="48.98" y1="57.61" x2="49.21" y2="57.61"/><line class="c" x1="48.48" y1="57.61" x2="48.74" y2="57.61"/><line class="c" x1="48" y1="57.61" x2="48.24" y2="57.61"/><line class="c" x1="47.5" y1="57.61" x2="47.74" y2="57.61"/><line class="c" x1="47" y1="57.61" x2="47.26" y2="57.61"/><line class="c" x1="46.52" y1="57.61" x2="46.76" y2="57.61"/><line class="c" x1="46.02" y1="57.61" x2="46.26" y2="57.61"/><line class="c" x1="45.52" y1="57.61" x2="45.78" y2="57.61"/><line class="c" x1="45.04" y1="57.61" x2="45.28" y2="57.61"/><line class="c" x1="44.54" y1="57.61" x2="44.78" y2="57.61"/><line class="c" x1="44.04" y1="57.61" x2="44.3" y2="57.61"/><line class="c" x1="43.56" y1="57.61" x2="43.8" y2="57.61"/><line class="c" x1="43.06" y1="57.61" x2="43.3" y2="57.61"/><line class="c" x1="42.56" y1="57.61" x2="42.82" y2="57.61"/><line class="c" x1="42.08" y1="57.61" x2="42.32" y2="57.61"/><line class="c" x1="41.58" y1="57.61" x2="41.82" y2="57.61"/><line class="c" x1="41.06" y1="57.28" x2="41.06" y2="57.08"/><line class="c" x1="41.06" y1="57.78" x2="41.06" y2="57.52"/><line class="c" x1="41.06" y1="58.26" x2="41.06" y2="58.02"/><line class="c" x1="41.06" y1="58.76" x2="41.06" y2="58.52"/><line class="c" x1="41.06" y1="59.26" x2="41.06" y2="59"/><line class="c" x1="41.06" y1="59.74" x2="41.06" y2="59.5"/><line class="c" x1="41.06" y1="60.24" x2="41.06" y2="60"/><line class="c" x1="41.06" y1="60.74" x2="41.06" y2="60.48"/><line class="c" x1="41.06" y1="61.22" x2="41.06" y2="60.98"/><line class="c" x1="41.06" y1="61.72" x2="41.06" y2="61.48"/><line class="c" x1="41.06" y1="62.22" x2="41.06" y2="61.96"/><line class="c" x1="41.06" y1="62.7" x2="41.06" y2="62.46"/><line class="c" x1="41.06" y1="63.2" x2="41.06" y2="62.96"/><line class="c" x1="41.06" y1="63.7" x2="41.06" y2="63.44"/><line class="c" x1="41.06" y1="64.18" x2="41.06" y2="63.94"/><line class="c" x1="41.06" y1="64.68" x2="41.06" y2="64.44"/><polyline class="c" points="41.34 65.11 41.06 65.11 41.06 64.92"/><line class="c" x1="41.82" y1="65.11" x2="41.58" y2="65.11"/><line class="c" x1="42.32" y1="65.11" x2="42.08" y2="65.11"/><line class="c" x1="42.82" y1="65.11" x2="42.56" y2="65.11"/><line class="c" x1="43.3" y1="65.11" x2="43.06" y2="65.11"/><line class="c" x1="43.8" y1="65.11" x2="43.56" y2="65.11"/><line class="c" x1="44.3" y1="65.11" x2="44.04" y2="65.11"/><line class="c" x1="44.78" y1="65.11" x2="44.54" y2="65.11"/><line class="c" x1="45.28" y1="65.11" x2="45.04" y2="65.11"/><line class="c" x1="45.78" y1="65.11" x2="45.52" y2="65.11"/><line class="c" x1="46.26" y1="65.11" x2="46.02" y2="65.11"/><line class="c" x1="46.76" y1="65.11" x2="46.52" y2="65.11"/><line class="c" x1="47.26" y1="65.11" x2="47" y2="65.11"/><line class="c" x1="47.74" y1="65.11" x2="47.5" y2="65.11"/><line class="c" x1="48.24" y1="65.11" x2="48" y2="65.11"/><line class="c" x1="48.74" y1="65.11" x2="48.48" y2="65.11"/><line class="c" x1="49.21" y1="65.11" x2="48.98" y2="65.11"/><line class="c" x1="49.71" y1="65.11" x2="49.48" y2="65.11"/><line class="c" x1="50.22" y1="65.11" x2="49.95" y2="65.11"/><line class="c" x1="50.72" y1="65.11" x2="50.45" y2="65.11"/><line class="c" x1="51.19" y1="65.11" x2="50.95" y2="65.11"/><line class="c" x1="51.69" y1="65.11" x2="51.46" y2="65.11"/><line class="c" x1="52.19" y1="65.11" x2="51.93" y2="65.11"/><line class="c" x1="52.67" y1="65.11" x2="52.43" y2="65.11"/><polyline class="c" points="53.2 64.92 53.2 65.11 52.93 65.11"/><line class="c" x1="53.2" y1="64.44" x2="53.2" y2="64.68"/><line class="c" x1="53.2" y1="63.94" x2="53.2" y2="64.18"/><line class="c" x1="53.2" y1="63.44" x2="53.2" y2="63.7"/><line class="c" x1="53.2" y1="62.96" x2="53.2" y2="63.2"/><line class="c" x1="53.2" y1="62.46" x2="53.2" y2="62.7"/><line class="c" x1="53.2" y1="61.96" x2="53.2" y2="62.22"/><line class="c" x1="53.2" y1="61.48" x2="53.2" y2="61.72"/><line class="c" x1="53.2" y1="60.98" x2="53.2" y2="61.22"/><line class="c" x1="53.2" y1="60.48" x2="53.2" y2="60.74"/><line class="c" x1="53.2" y1="60" x2="53.2" y2="60.24"/><line class="c" x1="53.2" y1="59.5" x2="53.2" y2="59.74"/><line class="c" x1="53.2" y1="59" x2="53.2" y2="59.26"/><line class="c" x1="53.2" y1="58.52" x2="53.2" y2="58.76"/><line class="c" x1="53.2" y1="58.02" x2="53.2" y2="58.26"/><line class="c" x1="53.2" y1="57.52" x2="53.2" y2="57.78"/><polyline class="c" points="52.93 57.08 53.2 57.08 53.2 57.28"/><line class="c" x1="52.43" y1="57.08" x2="52.67" y2="57.08"/><line class="c" x1="51.93" y1="57.08" x2="52.19" y2="57.08"/><line class="c" x1="51.46" y1="57.08" x2="51.69" y2="57.08"/><line class="c" x1="50.95" y1="57.08" x2="51.19" y2="57.08"/><line class="c" x1="50.45" y1="57.08" x2="50.72" y2="57.08"/><line class="c" x1="49.95" y1="57.08" x2="50.22" y2="57.08"/><line class="c" x1="49.48" y1="57.08" x2="49.71" y2="57.08"/><line class="c" x1="48.98" y1="57.08" x2="49.21" y2="57.08"/><line class="c" x1="48.48" y1="57.08" x2="48.74" y2="57.08"/><line class="c" x1="48" y1="57.08" x2="48.24" y2="57.08"/><line class="c" x1="47.5" y1="57.08" x2="47.74" y2="57.08"/><line class="c" x1="47" y1="57.08" x2="47.26" y2="57.08"/><line class="c" x1="46.52" y1="57.08" x2="46.76" y2="57.08"/><line class="c" x1="46.02" y1="57.08" x2="46.26" y2="57.08"/><line class="c" x1="45.52" y1="57.08" x2="45.78" y2="57.08"/><line class="c" x1="45.04" y1="57.08" x2="45.28" y2="57.08"/><line class="c" x1="44.54" y1="57.08" x2="44.78" y2="57.08"/><line class="c" x1="44.04" y1="57.08" x2="44.3" y2="57.08"/><line class="c" x1="43.56" y1="57.08" x2="43.8" y2="57.08"/><line class="c" x1="43.06" y1="57.08" x2="43.3" y2="57.08"/><line class="c" x1="42.56" y1="57.08" x2="42.82" y2="57.08"/><line class="c" x1="42.08" y1="57.08" x2="42.32" y2="57.08"/><line class="c" x1="41.58" y1="57.08" x2="41.82" y2="57.08"/><line class="c" x1="41.06" y1="57.08" x2="41.34" y2="57.08"/><line class="c" x1="41.58" y1="38.07" x2="41.58" y2="38.25"/><line class="c" x1="41.58" y1="37.59" x2="41.58" y2="37.83"/><line class="c" x1="41.58" y1="37.09" x2="41.58" y2="37.33"/><line class="c" x1="41.58" y1="36.59" x2="41.58" y2="36.85"/><line class="c" x1="41.58" y1="36.11" x2="41.58" y2="36.35"/><line class="c" x1="41.58" y1="35.61" x2="41.58" y2="35.85"/><line class="c" x1="41.58" y1="35.11" x2="41.58" y2="35.37"/><line class="c" x1="41.58" y1="34.63" x2="41.58" y2="34.87"/><line class="c" x1="41.58" y1="34.13" x2="41.58" y2="34.37"/><line class="c" x1="41.58" y1="33.63" x2="41.58" y2="33.9"/><line class="c" x1="41.58" y1="33.16" x2="41.58" y2="33.39"/><line class="c" x1="41.58" y1="32.66" x2="41.58" y2="32.89"/><line class="c" x1="41.58" y1="32.15" x2="41.58" y2="32.42"/><line class="c" x1="41.58" y1="31.68" x2="41.58" y2="31.92"/><polyline class="c" points="41.82 31.26 41.58 31.26 41.58 31.41"/><line class="c" x1="42.32" y1="31.26" x2="42.08" y2="31.26"/><line class="c" x1="42.82" y1="31.26" x2="42.56" y2="31.26"/><line class="c" x1="43.3" y1="31.26" x2="43.06" y2="31.26"/><line class="c" x1="43.8" y1="31.26" x2="43.56" y2="31.26"/><line class="c" x1="44.3" y1="31.26" x2="44.04" y2="31.26"/><line class="c" x1="44.78" y1="31.26" x2="44.54" y2="31.26"/><line class="c" x1="45.28" y1="31.26" x2="45.04" y2="31.26"/><line class="c" x1="45.78" y1="31.26" x2="45.52" y2="31.26"/><line class="c" x1="46.26" y1="31.26" x2="46.02" y2="31.26"/><line class="c" x1="46.76" y1="31.26" x2="46.52" y2="31.26"/><line class="c" x1="47.26" y1="31.26" x2="47" y2="31.26"/><line class="c" x1="47.74" y1="31.26" x2="47.5" y2="31.26"/><line class="c" x1="48.24" y1="31.26" x2="48" y2="31.26"/><line class="c" x1="48.74" y1="31.26" x2="48.48" y2="31.26"/><line class="c" x1="49.21" y1="31.26" x2="48.98" y2="31.26"/><line class="c" x1="49.71" y1="31.26" x2="49.48" y2="31.26"/><line class="c" x1="50.22" y1="31.26" x2="49.95" y2="31.26"/><line class="c" x1="50.72" y1="31.26" x2="50.45" y2="31.26"/><line class="c" x1="51.19" y1="31.26" x2="50.95" y2="31.26"/><line class="c" x1="51.69" y1="31.26" x2="51.46" y2="31.26"/><line class="c" x1="52.19" y1="31.26" x2="51.93" y2="31.26"/><polyline class="c" points="52.67 31.41 52.67 31.26 52.43 31.26"/><line class="c" x1="52.67" y1="31.92" x2="52.67" y2="31.68"/><line class="c" x1="52.67" y1="32.42" x2="52.67" y2="32.15"/><line class="c" x1="52.67" y1="32.89" x2="52.67" y2="32.66"/><line class="c" x1="52.67" y1="33.39" x2="52.67" y2="33.16"/><line class="c" x1="52.67" y1="33.9" x2="52.67" y2="33.63"/><line class="c" x1="52.67" y1="34.37" x2="52.67" y2="34.13"/><line class="c" x1="52.67" y1="34.87" x2="52.67" y2="34.63"/><line class="c" x1="52.67" y1="35.37" x2="52.67" y2="35.11"/><line class="c" x1="52.67" y1="35.85" x2="52.67" y2="35.61"/><line class="c" x1="52.67" y1="36.35" x2="52.67" y2="36.11"/><line class="c" x1="52.67" y1="36.85" x2="52.67" y2="36.59"/><line class="c" x1="52.67" y1="37.33" x2="52.67" y2="37.09"/><line class="c" x1="52.67" y1="37.83" x2="52.67" y2="37.59"/><polyline class="c" points="52.43 38.25 52.67 38.25 52.67 38.07"/><line class="c" x1="51.93" y1="38.25" x2="52.19" y2="38.25"/><line class="c" x1="51.46" y1="38.25" x2="51.69" y2="38.25"/><line class="c" x1="50.95" y1="38.25" x2="51.19" y2="38.25"/><line class="c" x1="50.45" y1="38.25" x2="50.72" y2="38.25"/><line class="c" x1="49.95" y1="38.25" x2="50.22" y2="38.25"/><line class="c" x1="49.48" y1="38.25" x2="49.71" y2="38.25"/><line class="c" x1="48.98" y1="38.25" x2="49.21" y2="38.25"/><line class="c" x1="48.48" y1="38.25" x2="48.74" y2="38.25"/><line class="c" x1="48" y1="38.25" x2="48.24" y2="38.25"/><line class="c" x1="47.5" y1="38.25" x2="47.74" y2="38.25"/><line class="c" x1="47" y1="38.25" x2="47.26" y2="38.25"/><line class="c" x1="46.52" y1="38.25" x2="46.76" y2="38.25"/><line class="c" x1="46.02" y1="38.25" x2="46.26" y2="38.25"/><line class="c" x1="45.52" y1="38.25" x2="45.78" y2="38.25"/><line class="c" x1="45.04" y1="38.25" x2="45.28" y2="38.25"/><line class="c" x1="44.54" y1="38.25" x2="44.78" y2="38.25"/><line class="c" x1="44.04" y1="38.25" x2="44.3" y2="38.25"/><line class="c" x1="43.56" y1="38.25" x2="43.8" y2="38.25"/><line class="c" x1="43.06" y1="38.25" x2="43.3" y2="38.25"/><line class="c" x1="42.56" y1="38.25" x2="42.82" y2="38.25"/><line class="c" x1="42.08" y1="38.25" x2="42.32" y2="38.25"/><line class="c" x1="41.58" y1="38.25" x2="41.82" y2="38.25"/><line class="c" x1="41.06" y1="38.57" x2="41.06" y2="38.77"/><line class="c" x1="41.06" y1="38.07" x2="41.06" y2="38.33"/><line class="c" x1="41.06" y1="37.59" x2="41.06" y2="37.83"/><line class="c" x1="41.06" y1="37.09" x2="41.06" y2="37.33"/><line class="c" x1="41.06" y1="36.59" x2="41.06" y2="36.85"/><line class="c" x1="41.06" y1="36.11" x2="41.06" y2="36.35"/><line class="c" x1="41.06" y1="35.61" x2="41.06" y2="35.85"/><line class="c" x1="41.06" y1="35.11" x2="41.06" y2="35.37"/><line class="c" x1="41.06" y1="34.63" x2="41.06" y2="34.87"/><line class="c" x1="41.06" y1="34.13" x2="41.06" y2="34.37"/><line class="c" x1="41.06" y1="33.63" x2="41.06" y2="33.9"/><line class="c" x1="41.06" y1="33.16" x2="41.06" y2="33.39"/><line class="c" x1="41.06" y1="32.66" x2="41.06" y2="32.89"/><line class="c" x1="41.06" y1="32.15" x2="41.06" y2="32.42"/><line class="c" x1="41.06" y1="31.68" x2="41.06" y2="31.92"/><line class="c" x1="41.06" y1="31.18" x2="41.06" y2="31.42"/><polyline class="c" points="41.34 30.74 41.06 30.74 41.06 30.94"/><line class="c" x1="41.82" y1="30.74" x2="41.58" y2="30.74"/><line class="c" x1="42.32" y1="30.74" x2="42.08" y2="30.74"/><line class="c" x1="42.82" y1="30.74" x2="42.56" y2="30.74"/><line class="c" x1="43.3" y1="30.74" x2="43.06" y2="30.74"/><line class="c" x1="43.8" y1="30.74" x2="43.56" y2="30.74"/><line class="c" x1="44.3" y1="30.74" x2="44.04" y2="30.74"/><line class="c" x1="44.78" y1="30.74" x2="44.54" y2="30.74"/><line class="c" x1="45.28" y1="30.74" x2="45.04" y2="30.74"/><line class="c" x1="45.78" y1="30.74" x2="45.52" y2="30.74"/><line class="c" x1="46.26" y1="30.74" x2="46.02" y2="30.74"/><line class="c" x1="46.76" y1="30.74" x2="46.52" y2="30.74"/><line class="c" x1="47.26" y1="30.74" x2="47" y2="30.74"/><line class="c" x1="47.74" y1="30.74" x2="47.5" y2="30.74"/><line class="c" x1="48.24" y1="30.74" x2="48" y2="30.74"/><line class="c" x1="48.74" y1="30.74" x2="48.48" y2="30.74"/><line class="c" x1="49.21" y1="30.74" x2="48.98" y2="30.74"/><line class="c" x1="49.71" y1="30.74" x2="49.48" y2="30.74"/><line class="c" x1="50.22" y1="30.74" x2="49.95" y2="30.74"/><line class="c" x1="50.72" y1="30.74" x2="50.45" y2="30.74"/><line class="c" x1="51.19" y1="30.74" x2="50.95" y2="30.74"/><line class="c" x1="51.69" y1="30.74" x2="51.46" y2="30.74"/><line class="c" x1="52.19" y1="30.74" x2="51.93" y2="30.74"/><line class="c" x1="52.67" y1="30.74" x2="52.43" y2="30.74"/><polyline class="c" points="53.2 30.94 53.2 30.74 52.93 30.74"/><line class="c" x1="53.2" y1="31.42" x2="53.2" y2="31.18"/><line class="c" x1="53.2" y1="31.92" x2="53.2" y2="31.68"/><line class="c" x1="53.2" y1="32.42" x2="53.2" y2="32.15"/><line class="c" x1="53.2" y1="32.89" x2="53.2" y2="32.66"/><line class="c" x1="53.2" y1="33.39" x2="53.2" y2="33.16"/><line class="c" x1="53.2" y1="33.9" x2="53.2" y2="33.63"/><line class="c" x1="53.2" y1="34.37" x2="53.2" y2="34.13"/><line class="c" x1="53.2" y1="34.87" x2="53.2" y2="34.63"/><line class="c" x1="53.2" y1="35.37" x2="53.2" y2="35.11"/><line class="c" x1="53.2" y1="35.85" x2="53.2" y2="35.61"/><line class="c" x1="53.2" y1="36.35" x2="53.2" y2="36.11"/><line class="c" x1="53.2" y1="36.85" x2="53.2" y2="36.59"/><line class="c" x1="53.2" y1="37.33" x2="53.2" y2="37.09"/><line class="c" x1="53.2" y1="37.83" x2="53.2" y2="37.59"/><line class="c" x1="53.2" y1="38.33" x2="53.2" y2="38.07"/><polyline class="c" points="52.93 38.77 53.2 38.77 53.2 38.57"/><line class="c" x1="52.43" y1="38.77" x2="52.67" y2="38.77"/><line class="c" x1="51.93" y1="38.77" x2="52.19" y2="38.77"/><line class="c" x1="51.46" y1="38.77" x2="51.69" y2="38.77"/><line class="c" x1="50.95" y1="38.77" x2="51.19" y2="38.77"/><line class="c" x1="50.45" y1="38.77" x2="50.72" y2="38.77"/><line class="c" x1="49.95" y1="38.77" x2="50.22" y2="38.77"/><line class="c" x1="49.48" y1="38.77" x2="49.71" y2="38.77"/><line class="c" x1="48.98" y1="38.77" x2="49.21" y2="38.77"/><line class="c" x1="48.48" y1="38.77" x2="48.74" y2="38.77"/><line class="c" x1="48" y1="38.77" x2="48.24" y2="38.77"/><line class="c" x1="47.5" y1="38.77" x2="47.74" y2="38.77"/><line class="c" x1="47" y1="38.77" x2="47.26" y2="38.77"/><line class="c" x1="46.52" y1="38.77" x2="46.76" y2="38.77"/><line class="c" x1="46.02" y1="38.77" x2="46.26" y2="38.77"/><line class="c" x1="45.52" y1="38.77" x2="45.78" y2="38.77"/><line class="c" x1="45.04" y1="38.77" x2="45.28" y2="38.77"/><line class="c" x1="44.54" y1="38.77" x2="44.78" y2="38.77"/><line class="c" x1="44.04" y1="38.77" x2="44.3" y2="38.77"/><line class="c" x1="43.56" y1="38.77" x2="43.8" y2="38.77"/><line class="c" x1="43.06" y1="38.77" x2="43.3" y2="38.77"/><line class="c" x1="42.56" y1="38.77" x2="42.82" y2="38.77"/><line class="c" x1="42.08" y1="38.77" x2="42.32" y2="38.77"/><line class="c" x1="41.58" y1="38.77" x2="41.82" y2="38.77"/><line class="c" x1="41.06" y1="38.77" x2="41.34" y2="38.77"/><polygon class="d" points="71.32 155.63 73.97 155.63 73.97 151.71 69.21 151.71 69.21 137.85 68.16 137.85 68.16 155.32 70.25 156.84 71.32 155.63"/><polygon class="d" points="86.04 115.75 86.04 155.63 88.61 155.63 88.61 81.17 87.33 81.17 87.33 19.52 81.56 19.52 81.56 22.58 84.26 22.58 84.26 81.17 77.52 81.17 77.52 84.25 78.54 84.25 78.54 83.73 86.04 83.73 86.04 93.13 78.54 93.13 78.54 91.45 77.52 91.45 77.52 101.9 78.54 101.9 78.54 94.17 86.04 94.17 86.04 114.73 78.54 114.73 78.54 114.58 78.54 114.34 78.54 114.08 78.54 113.84 78.54 113.6 78.54 113.34 78.54 113.1 78.54 112.86 78.54 112.6 78.54 112.36 78.54 112.12 78.54 111.86 78.54 111.62 78.54 111.38 78.54 111.23 78.54 109.1 77.52 109.1 77.52 138.83 78.54 138.83 78.54 115.75 86.04 115.75"/><rect class="d" x="49.13" y="163.5" width="1.02" height="2.57"/><polygon class="d" points="34.92 128.91 34.92 120.32 68.16 120.32 68.16 128.5 69.21 128.5 69.21 120.32 69.81 120.32 69.81 119.3 35.6 119.3 35.6 83.73 42.78 83.73 42.78 81.17 36.73 81.17 36.73 22.58 39.43 22.58 39.43 19.52 33.64 19.52 33.64 81.17 32.36 81.17 32.36 166.07 38.32 166.07 38.32 163.5 34.92 163.5 34.92 144.53 38.77 144.53 38.77 128.91 34.92 128.91"/></svg>