<svg xmlns="http://www.w3.org/2000/svg" viewBox="0 0 318.24 583.97"><defs><style>.a{fill:silver;}.b{fill:none;stroke:#1d1d1b;stroke-linecap:round;stroke-linejoin:round;stroke-width:0.2px;}.c{fill:#1d1d1b;}</style></defs><polygon class="a" points="192.37 142.46 133.13 142.46 133.13 159.47 174.94 159.47 174.77 232.78 192.37 232.78 192.37 142.46"/><polyline class="b" points="118.62 499.91 118.53 499.85 128.43 487.08"/><line class="b" x1="136.12" y1="136.24" x2="171.43" y2="136.24"/><line class="b" x1="171.2" y1="142.19" x2="136.41" y2="142.19"/><polyline class="b" points="171.21 142.19 171.21 142.35 136.41 142.35"/><line class="b" x1="136.41" y1="136.63" x2="171.2" y2="136.63"/><line class="b" x1="136.41" y1="142.35" x2="136.41" y2="142.19"/><line class="b" x1="136.41" y1="139.43" x2="171.2" y2="139.43"/><line class="b" x1="136.35" y1="138.66" x2="171.09" y2="138.66"/><line class="b" x1="171.2" y1="136.63" x2="136.41" y2="136.63"/><polyline class="b" points="136.12 136.24 136.12 135.85 171.43 135.85 171.43 136.24"/><polygon class="b" points="192.37 142.46 133.13 142.46 133.13 159.47 174.94 159.47 174.77 232.78 192.37 232.78 192.37 142.46"/><polygon class="b" points="165.09 143.78 143.99 143.78 143.65 143.78 143.48 143.84 143.37 143.89 143.31 143.89 143.25 143.95 143.14 144 143.14 144.06 143.08 144.06 143.03 144.11 142.97 144.17 142.91 144.22 142.86 144.28 142.8 144.33 142.8 144.39 142.74 144.39 142.74 144.44 142.69 144.5 142.63 144.5 142.63 144.55 142.57 144.61 142.57 144.66 142.52 144.72 142.52 144.77 142.52 144.83 142.46 144.88 142.46 144.94 142.46 144.99 142.46 145.05 142.46 145.1 142.46 145.16 142.46 145.21 142.46 145.27 142.41 145.32 142.41 156.61 142.46 156.61 142.46 156.66 142.46 156.72 142.46 156.83 142.46 156.88 142.46 156.94 142.52 156.99 142.52 157.05 142.52 157.1 142.57 157.16 142.57 157.21 142.63 157.27 142.63 157.32 142.69 157.32 142.69 157.38 142.74 157.43 142.74 157.49 142.8 157.49 142.8 157.54 142.86 157.6 142.91 157.65 142.97 157.71 143.03 157.71 143.08 157.82 143.14 157.82 143.25 157.87 143.31 157.93 143.37 157.93 143.48 157.98 143.65 158.04 143.99 158.09 165.09 158.09 165.38 158.09 165.55 158.04 165.66 157.98 165.72 157.98 165.83 157.93 165.89 157.87 165.94 157.82 166 157.82 166.06 157.82 166.11 157.71 166.23 157.65 166.23 157.6 166.23 157.54 166.28 157.54 166.28 157.49 166.34 157.43 166.34 157.38 166.4 157.38 166.4 157.32 166.45 157.27 166.45 157.21 166.51 157.16 166.51 157.1 166.51 157.05 166.56 156.99 166.56 156.94 166.56 156.88 166.56 156.83 166.56 156.72 166.56 156.66 166.62 156.61 166.62 145.32 166.56 145.32 166.56 145.27 166.56 145.21 166.56 145.16 166.56 145.1 166.56 145.05 166.56 144.99 166.56 144.94 166.51 144.88 166.51 144.83 166.51 144.77 166.45 144.72 166.45 144.66 166.4 144.61 166.4 144.55 166.34 144.55 166.34 144.5 166.28 144.5 166.28 144.44 166.23 144.44 166.23 144.39 166.23 144.33 166.11 144.28 166.11 144.22 166.06 144.17 166 144.11 165.94 144.11 165.89 144.06 165.83 144 165.72 143.95 165.66 143.95 165.55 143.89 165.38 143.84 165.09 143.78"/><rect class="b" x="79.54" y="506.4" width="35.31" height="0.77"/><line class="b" x1="114.62" y1="504.36" x2="79.88" y2="504.36"/><line class="b" x1="114.57" y1="503.59" x2="79.77" y2="503.59"/><polyline class="b" points="79.77 500.78 79.77 500.73 114.57 500.73 114.57 500.78"/><line class="b" x1="79.77" y1="500.78" x2="114.57" y2="500.78"/><line class="b" x1="114.57" y1="506.07" x2="79.77" y2="506.07"/><line class="b" x1="70.01" y1="502.46" x2="59.37" y2="490.28"/><line class="b" x1="63.53" y1="486.9" x2="74.16" y2="499.08"/><line class="b" x1="79.77" y1="506.4" x2="79.77" y2="506.07"/><polyline class="b" points="70.01 502.46 69.64 502.76 69.53 502.63"/><polyline class="b" points="63.53 486.9 63.59 486.86 74.17 499.07 74.16 499.08"/><line class="b" x1="71.9" y1="500.95" x2="61.32" y2="488.73"/><line class="b" x1="71.28" y1="501.44" x2="60.76" y2="489.28"/><polygon class="b" points="69.13 503.37 58.44 490.93 59.06 490.43 69.75 502.87 69.13 503.37"/><line class="b" x1="196.67" y1="398.84" x2="176.69" y2="398.84"/><line class="b" x1="196.67" y1="405.01" x2="176.69" y2="405.01"/><line class="b" x1="196.55" y1="411.23" x2="176.58" y2="411.23"/><line class="b" x1="196.67" y1="417.45" x2="176.69" y2="417.45"/><line class="b" x1="196.67" y1="423.56" x2="176.69" y2="423.56"/><line class="b" x1="197.12" y1="429.28" x2="176.81" y2="429.28"/><rect class="b" x="175.45" y="394.72" width="1.13" height="34.84"/><polygon class="b" points="133.8 490.87 123.79 503.81 123.17 503.31 133.18 490.38 133.8 490.87"/><line class="b" x1="131.43" y1="489.28" x2="121.58" y2="501.99"/><line class="b" x1="130.75" y1="488.78" x2="120.9" y2="501.55"/><polyline class="b" points="132.66 490.19 133.07 490.49 123.22 503.26 122.95 503.06"/><line class="b" x1="114.57" y1="506.07" x2="114.57" y2="506.4"/><line class="b" x1="118.62" y1="499.91" x2="123.92" y2="492.89"/><line class="b" x1="132.66" y1="490.19" x2="122.95" y2="503.06"/><rect class="b" x="175.34" y="194.64" width="17.14" height="27.52"/><polygon class="c" points="114.57 506.06 120.68 506.06 122.95 503.06 118.62 499.91 117.96 500.78 114.57 500.78 114.57 506.06"/><polygon class="c" points="70.01 502.46 73.15 506.06 79.77 506.06 79.77 500.78 75.64 500.78 74.16 499.08 70.01 502.46"/><rect class="c" x="149.7" y="389.87" width="3.85" height="69.24"/><polygon class="c" points="167.92 513.11 156.44 513.11 156.44 489.06 167.92 489.06 167.92 483.77 153.55 483.77 153.55 477.94 149.7 477.94 149.7 483.77 130.81 483.77 128.43 487.08 132.66 490.19 133.52 489.06 152.48 489.06 152.48 516.96 167.92 516.96 167.92 513.11"/><polygon class="c" points="196.84 370.61 196.84 483.77 184.78 483.77 184.78 489.06 195.31 489.06 195.31 513.11 184.78 513.11 184.78 516.96 199.27 516.96 199.27 489.06 202.38 489.06 202.38 292.83 198.65 292.83 198.65 136.24 171.43 136.24 171.43 136.63 171.21 136.63 171.21 142.19 192.54 142.19 192.54 292.83 127.58 292.83 127.58 298.12 149.7 298.12 149.7 371.71 153.55 371.71 153.55 298.12 196.84 298.12 196.84 367.86 173.47 367.86 173.47 370.61 196.84 370.61"/><polygon class="c" points="44.18 292.83 44.18 136.24 68.28 136.24 68.28 142.19 50.29 142.19 50.29 292.83 70.32 292.83 70.32 298.12 46.78 298.12 46.78 326.19 52.52 326.19 52.52 365.16 46.78 365.16 46.78 390.86 55.52 390.86 55.52 394.72 46.78 394.72 46.78 423.12 52.75 423.12 52.75 462.09 46.78 462.09 46.78 484.78 61.66 484.76 63.53 486.9 59.37 490.28 59.17 490.05 41.12 490.07 41.12 484.79 41.12 295.42 41.12 292.83 44.18 292.83"/><polygon class="c" points="108.68 142.19 136.41 142.19 136.41 136.63 136.12 136.63 136.12 136.24 108.68 136.24 108.68 142.19"/></svg>