<svg xmlns="http://www.w3.org/2000/svg" viewBox="0 0 318.24 583.97"><defs><style>.a{fill:silver;}.b,.c{fill:none;stroke-linecap:round;stroke-linejoin:round;}.b{stroke:#1d1d1b;stroke-width:0.2px;}.c{stroke:#009fe3;stroke-width:0.25px;}.d{font-size:22.2px;fill:#3a7979;font-family:ArialMT, Arial;}.e{fill:#1d1d1b;}</style></defs><polygon class="a" points="179.59 184.57 199.17 184.57 199.17 232.14 199.17 232.26 179.59 232.26 179.59 184.57"/><polygon class="a" points="76.9 275.38 73.06 275.38 59.84 275.38 59.84 184.57 81.1 184.57 115.22 184.57 115.22 201.51 76.9 201.51 76.9 275.38"/><polygon class="a" points="160.29 218.03 156.92 218.03 156.92 207.16 160.29 207.16 161.07 207.28 161.85 207.64 162.57 208.18 163.17 208.84 163.65 209.62 164.01 210.58 164.25 211.54 164.31 212.56 164.25 213.58 164.01 214.6 163.65 215.5 163.17 216.34 162.57 217 161.85 217.49 161.07 217.84 160.29 218.03"/><polygon class="a" points="170.92 188.16 171.36 189.55 171.49 189.96 171.6 190.38 171.71 190.8 171.81 191.22 171.9 191.65 171.98 192.07 172.06 192.5 172.12 192.93 172.18 193.36 172.23 193.79 172.27 194.22 172.31 194.65 172.33 195.09 172.35 195.52 172.36 196.11 172.36 196.44 172.35 196.63 172.34 196.82 172.32 197.01 172.29 197.19 172.26 197.38 172.23 197.56 172.19 197.75 172.15 197.93 172.1 198.11 172.05 198.29 171.99 198.46 171.93 198.64 171.86 198.81 171.79 198.98 171.71 199.15 171.63 199.32 171.54 199.48 171.46 199.65 171.36 199.81 171.26 199.96 171.16 200.12 171.05 200.27 170.94 200.42 170.82 200.56 170.7 200.71 170.58 200.85 170.45 200.99 170.32 201.12 170.18 201.25 170.04 201.38 169.91 201.5 169.86 201.55 169.78 201.61 169.71 201.66 169.63 201.72 169.56 201.77 169.48 201.82 169.4 201.87 169.32 201.91 169.24 201.96 169.16 202 169.08 202.04 169 202.08 168.92 202.12 168.83 202.15 168.75 202.19 168.66 202.22 168.57 202.25 168.49 202.28 168.4 202.3 168.31 202.33 168.22 202.35 168.14 202.37 168.05 202.39 167.96 202.41 167.87 202.42 167.78 202.44 167.68 202.45 167.59 202.46 167.5 202.46 167.41 202.47 167.32 202.47 167.22 202.47 167.13 202.47 167.04 202.47 166.95 202.46 166.85 202.46 166.76 202.45 166.67 202.44 166.58 202.42 166.49 202.41 166.4 202.39 166.31 202.37 166.22 202.35 166.13 202.33 166.05 202.3 165.96 202.28 165.87 202.25 165.78 202.22 165.7 202.19 165.62 202.15 165.53 202.12 165.45 202.08 165.37 202.04 165.28 202 165.2 201.96 165.12 201.91 165.04 201.87 164.97 201.82 164.89 201.77 164.81 201.72 164.74 201.66 164.66 201.61 164.59 201.55 164.5 201.5 164.35 201.38 164.21 201.25 164.07 201.12 163.94 200.99 163.81 200.85 163.68 200.71 163.56 200.56 163.45 200.42 163.34 200.27 163.23 200.12 163.13 199.96 163.03 199.81 162.93 199.65 162.84 199.48 162.76 199.32 162.67 199.15 162.6 198.98 162.53 198.81 162.46 198.64 162.4 198.46 162.34 198.29 162.28 198.11 162.24 197.93 162.19 197.75 162.16 197.56 162.12 197.38 162.09 197.19 162.07 197.01 162.05 196.82 162.04 196.63 162.03 196.44 162.03 196.11 162.04 195.52 162.06 195.09 162.08 194.65 162.12 194.22 162.16 193.79 162.21 193.36 162.26 192.93 162.33 192.5 162.41 192.07 162.49 191.65 162.58 191.22 162.68 190.8 162.79 190.38 162.9 189.96 163.03 189.55 163.47 188.15 163.23 188.14 161.85 188 161.85 184.57 172.48 184.57 172.48 188 172.48 188.02 171.22 188.14 170.92 188.16"/><line class="b" x1="183.2" y1="386.72" x2="183.2" y2="437.89"/><line class="b" x1="181.88" y1="386.72" x2="181.88" y2="437.89"/><line class="b" x1="204.22" y1="432.85" x2="183.2" y2="432.85"/><line class="b" x1="204.22" y1="439.21" x2="183.92" y2="439.21"/><line class="b" x1="204.22" y1="426.48" x2="183.2" y2="426.48"/><line class="b" x1="204.22" y1="420.11" x2="183.2" y2="420.11"/><line class="b" x1="204.22" y1="413.75" x2="183.2" y2="413.75"/><line class="b" x1="204.22" y1="407.38" x2="183.2" y2="407.38"/><line class="b" x1="204.22" y1="400.9" x2="183.2" y2="400.9"/><line class="b" x1="189.32" y1="394.53" x2="183.2" y2="394.53"/><polyline class="b" points="183.2 388.88 189.68 393.45 188.72 396.33 192.57 391.65 191.73 394.41 204.22 400.9"/><rect class="b" x="181.16" y="437.89" width="2.76" height="2.76"/><rect class="b" x="201.82" y="450.98" width="1.08" height="22.1"/><polyline class="b" points="76.9 275.38 76.9 201.51 115.22 201.51"/><polyline class="b" points="115.22 174.6 79.66 174.6 79.66 176.05"/><line class="b" x1="115.21" y1="201.51" x2="115.21" y2="184.57"/><line class="b" x1="179.59" y1="475.13" x2="179.59" y2="472.24"/><polygon class="b" points="160.29 218.03 161.07 217.84 161.85 217.49 162.57 217 163.17 216.34 163.65 215.5 164.01 214.6 164.25 213.58 164.31 212.56 164.25 211.54 164.01 210.58 163.65 209.62 163.17 208.84 162.57 208.18 161.85 207.64 161.07 207.28 160.29 207.16 156.92 207.16 156.92 218.03 160.29 218.03"/><line class="b" x1="91.55" y1="508.4" x2="120.86" y2="508.4"/><polygon class="b" points="172.48 188.02 172.48 188 172.48 184.57 161.85 184.57 161.85 188 163.23 188.14 164.56 188.23 165.89 188.28 167.22 188.3 168.56 188.28 169.89 188.23 171.22 188.14 172.48 188.02"/><polyline class="b" points="163.47 188.15 163.03 189.55 162.9 189.96 162.79 190.38 162.68 190.8 162.58 191.22 162.49 191.65 162.41 192.07 162.33 192.5 162.26 192.93 162.21 193.36 162.16 193.79 162.12 194.22 162.08 194.65 162.06 195.09 162.04 195.52 162.03 196.11 162.03 196.44 162.04 196.63 162.05 196.82 162.07 197.01 162.09 197.19 162.12 197.38 162.16 197.56 162.19 197.75 162.24 197.93 162.28 198.11 162.34 198.29 162.4 198.46 162.46 198.64 162.53 198.81 162.6 198.98 162.67 199.15 162.76 199.32 162.84 199.48 162.93 199.65 163.03 199.81 163.13 199.96 163.23 200.12 163.34 200.27 163.45 200.42 163.56 200.56 163.68 200.71 163.81 200.85 163.94 200.99 164.07 201.12 164.21 201.25 164.35 201.38 164.5 201.5 164.59 201.55 164.66 201.61 164.74 201.66 164.81 201.72 164.89 201.77 164.97 201.82 165.04 201.87 165.12 201.91 165.2 201.96 165.28 202 165.37 202.04 165.45 202.08 165.53 202.12 165.62 202.15 165.7 202.19 165.78 202.22 165.87 202.25 165.96 202.28 166.05 202.3 166.13 202.33 166.22 202.35 166.31 202.37 166.4 202.39 166.49 202.41 166.58 202.42 166.67 202.44 166.76 202.45 166.85 202.46 166.95 202.46 167.04 202.47 167.13 202.47 167.22 202.47 167.32 202.47 167.41 202.47 167.5 202.46 167.59 202.46 167.68 202.45 167.78 202.44 167.87 202.42 167.96 202.41 168.05 202.39 168.14 202.37 168.22 202.35 168.31 202.33 168.4 202.3 168.49 202.28 168.57 202.25 168.66 202.22 168.75 202.19 168.83 202.15 168.92 202.12 169 202.08 169.08 202.04 169.16 202 169.24 201.96 169.32 201.91 169.4 201.87 169.48 201.82 169.56 201.77 169.63 201.72 169.71 201.66 169.78 201.61 169.86 201.55 169.91 201.5 170.04 201.38 170.18 201.25 170.32 201.12 170.45 200.99 170.58 200.85 170.7 200.71 170.82 200.56 170.94 200.42 171.05 200.27 171.16 200.12 171.26 199.96 171.36 199.81 171.46 199.65 171.54 199.48 171.63 199.32 171.71 199.15 171.79 198.98 171.86 198.81 171.93 198.64 171.99 198.46 172.05 198.29 172.1 198.11 172.15 197.93 172.19 197.75 172.23 197.56 172.26 197.38 172.29 197.19 172.32 197.01 172.34 196.82 172.35 196.63 172.36 196.44 172.36 196.11 172.35 195.52 172.33 195.09 172.31 194.65 172.27 194.22 172.23 193.79 172.18 193.36 172.12 192.93 172.06 192.5 171.98 192.07 171.9 191.65 171.81 191.22 171.71 190.8 171.6 190.38 171.49 189.96 171.36 189.55 170.92 188.16"/><line class="b" x1="91.55" y1="510.92" x2="120.86" y2="510.92"/><line class="b" x1="93.59" y1="512" x2="118.82" y2="512"/><line class="b" x1="91.55" y1="515.6" x2="120.86" y2="515.6"/><line class="b" x1="91.55" y1="513.08" x2="120.86" y2="513.08"/><line class="b" x1="68.97" y1="485.21" x2="91.55" y2="508.4"/><line class="b" x1="67.29" y1="487.02" x2="89.75" y2="510.2"/><line class="b" x1="67.89" y1="489.18" x2="87.47" y2="509.36"/><line class="b" x1="63.93" y1="490.14" x2="86.39" y2="513.44"/><line class="b" x1="65.73" y1="488.46" x2="88.19" y2="511.64"/><line class="b" x1="143.44" y1="485.21" x2="120.86" y2="508.4"/><line class="b" x1="145.24" y1="487.02" x2="122.66" y2="510.2"/><line class="b" x1="144.52" y1="489.18" x2="124.94" y2="509.36"/><line class="b" x1="148.49" y1="490.14" x2="126.02" y2="513.44"/><line class="b" x1="146.68" y1="488.46" x2="124.22" y2="511.64"/><line class="b" x1="160.02" y1="473.92" x2="178.51" y2="473.92"/><polyline class="b" points="178.51 473.8 160.02 473.8 160.38 473.8"/><line class="b" x1="160.02" y1="473.56" x2="178.51" y2="473.56"/><line class="b" x1="160.02" y1="473.44" x2="178.51" y2="473.44"/><polyline class="b" points="179.59 472.72 158.94 472.72 160.38 472.72"/><line class="b" x1="158.94" y1="474.64" x2="179.59" y2="474.64"/><line class="b" x1="179.59" y1="475.13" x2="158.94" y2="475.13"/><line class="b" x1="179.59" y1="472.24" x2="158.94" y2="472.24"/><line class="b" x1="51.32" y1="176.89" x2="51.32" y2="188.3"/><line class="b" x1="51.32" y1="199.59" x2="51.32" y2="211"/><line class="b" x1="51.32" y1="222.29" x2="51.32" y2="233.7"/><line class="b" x1="51.32" y1="244.99" x2="51.32" y2="256.4"/><line class="b" x1="115.21" y1="184.57" x2="115.21" y2="174.6"/><line class="b" x1="115.21" y1="184.57" x2="81.1" y2="184.57"/><line class="b" x1="82.18" y1="180.49" x2="114.01" y2="180.49"/><line class="b" x1="82.18" y1="180.37" x2="114.01" y2="180.37"/><line class="b" x1="114.01" y1="180.13" x2="82.18" y2="180.13"/><line class="b" x1="82.18" y1="180.13" x2="114.01" y2="180.13"/><line class="b" x1="115.21" y1="179.41" x2="81.94" y2="179.41"/><line class="b" x1="81.1" y1="181.21" x2="113.65" y2="181.21"/><line class="b" x1="199.17" y1="184.57" x2="177.91" y2="184.57"/><rect class="b" x="116.18" y="158.63" width="0.84" height="17.54"/><rect class="b" x="151.97" y="158.63" width="0.84" height="17.54"/><line class="b" x1="153.77" y1="176.05" x2="115.21" y2="176.05"/><line class="b" x1="73.06" y1="176.05" x2="51.32" y2="176.05"/><line class="b" x1="51.32" y1="176.05" x2="81.1" y2="176.05"/><line class="b" x1="177.91" y1="184.57" x2="177.91" y2="177.37"/><line class="b" x1="177.91" y1="184.57" x2="156.65" y2="184.57"/><line class="b" x1="157.73" y1="181.21" x2="176.83" y2="181.21"/><polyline class="b" points="176.83 181.09 157.74 181.09 158.09 181.09"/><line class="b" x1="157.73" y1="180.85" x2="176.83" y2="180.85"/><line class="b" x1="157.73" y1="180.73" x2="176.83" y2="180.73"/><polyline class="b" points="177.91 180.01 156.65 180.01 158.09 180.01"/><line class="b" x1="156.65" y1="181.93" x2="177.91" y2="181.93"/><polyline class="b" points="155.21 176.05 155.21 174.6 179.35 174.6 179.35 176.05"/><line class="b" x1="179.59" y1="232.26" x2="179.59" y2="184.57"/><line class="b" x1="199.17" y1="232.14" x2="199.17" y2="184.57"/><rect class="b" x="179.59" y="184.57" width="19.58" height="47.68"/><line class="b" x1="73.06" y1="275.38" x2="76.9" y2="275.38"/><line class="c" x1="125.9" y1="235.98" x2="128.07" y2="235.98"/><line class="c" x1="120.74" y1="235.98" x2="122.78" y2="235.98"/><line class="c" x1="115.58" y1="235.98" x2="117.74" y2="235.98"/><line class="c" x1="110.53" y1="235.98" x2="112.57" y2="235.98"/><polyline class="c" points="105.25 237.06 105.25 235.98 107.41 235.98"/><line class="c" x1="105.25" y1="242.11" x2="105.25" y2="240.07"/><line class="c" x1="105.25" y1="247.27" x2="105.25" y2="245.23"/><line class="c" x1="105.25" y1="252.32" x2="105.25" y2="250.28"/><line class="c" x1="105.25" y1="257.48" x2="105.25" y2="255.44"/><polyline class="c" points="107.41 261.57 105.25 261.57 105.25 260.49"/><line class="c" x1="112.57" y1="261.57" x2="110.53" y2="261.57"/><line class="c" x1="117.74" y1="261.57" x2="115.58" y2="261.57"/><line class="c" x1="122.78" y1="261.57" x2="120.74" y2="261.57"/><polyline class="c" points="128.07 260.49 128.07 261.57 125.91 261.57"/><line class="c" x1="128.07" y1="255.44" x2="128.07" y2="257.48"/><line class="c" x1="128.07" y1="250.28" x2="128.07" y2="252.32"/><line class="c" x1="128.07" y1="245.23" x2="128.07" y2="247.27"/><line class="c" x1="128.07" y1="240.07" x2="128.07" y2="242.11"/><line class="c" x1="128.07" y1="235.98" x2="128.07" y2="237.06"/><line class="c" x1="128.43" y1="234.54" x2="129.39" y2="234.54"/><line class="c" x1="123.26" y1="234.54" x2="125.3" y2="234.54"/><line class="c" x1="118.22" y1="234.54" x2="120.26" y2="234.54"/><line class="c" x1="113.05" y1="234.54" x2="115.09" y2="234.54"/><line class="c" x1="108.01" y1="234.54" x2="110.05" y2="234.54"/><polyline class="c" points="103.92 237.06 103.92 234.54 104.89 234.54"/><line class="c" x1="103.92" y1="242.11" x2="103.92" y2="240.07"/><line class="c" x1="103.92" y1="247.27" x2="103.92" y2="245.23"/><line class="c" x1="103.92" y1="252.32" x2="103.92" y2="250.28"/><line class="c" x1="103.92" y1="257.48" x2="103.92" y2="255.44"/><polyline class="c" points="104.89 262.89 103.92 262.89 103.92 260.49"/><line class="c" x1="110.05" y1="262.89" x2="108.01" y2="262.89"/><line class="c" x1="115.09" y1="262.89" x2="113.05" y2="262.89"/><line class="c" x1="120.26" y1="262.89" x2="118.22" y2="262.89"/><line class="c" x1="125.3" y1="262.89" x2="123.26" y2="262.89"/><polyline class="c" points="129.39 260.49 129.39 262.89 128.43 262.89"/><line class="c" x1="129.39" y1="255.44" x2="129.39" y2="257.48"/><line class="c" x1="129.39" y1="250.28" x2="129.39" y2="252.32"/><line class="c" x1="129.39" y1="245.23" x2="129.39" y2="247.27"/><line class="c" x1="129.39" y1="240.07" x2="129.39" y2="242.11"/><line class="c" x1="129.39" y1="234.54" x2="129.39" y2="237.06"/><text class="d" transform="translate(47.71 600.8)">56 Montpelier 000</text><polygon class="e" points="81.1 176.05 81.1 184.57 59.84 184.57 59.84 275.38 73.06 275.38 73.06 282.47 54.92 282.47 54.92 409.78 64.41 409.78 64.41 453.75 54.92 453.75 54.92 483.05 66.93 483.05 68.97 485.21 63.93 490.14 47.71 490.14 47.71 275.38 51.31 275.38 51.31 256.4 51.31 244.99 51.31 233.7 51.31 222.29 51.31 211 51.31 199.59 51.31 188.3 51.31 176.89 51.31 176.05 73.06 176.05 81.1 176.05"/><rect class="e" x="153.77" y="176.05" width="2.88" height="72.19"/><polygon class="e" points="158.94 483.05 163.98 483.05 163.98 490.14 148.49 490.14 143.44 485.21 145.48 483.05 156.05 483.05 156.05 386.72 155.33 386.72 155.33 383.96 156.05 383.96 159.78 383.96 159.78 384.92 159.78 385.52 159.78 386.12 159.78 386.72 158.94 386.72 158.94 472.24 158.94 475.13 158.94 483.05"/><polygon class="e" points="120.86 515.6 120.86 508.4 126.03 513.44 123.86 515.6 120.86 515.6"/><polygon class="e" points="86.39 513.44 91.55 508.4 91.55 515.6 88.55 515.6 86.39 513.44"/><polygon class="e" points="199.17 245.47 178.15 245.47 178.15 248.23 199.17 248.23 199.17 275.38 185.96 275.38 185.96 282.47 204.22 282.47 204.22 483.05 199.17 483.05 199.17 490.14 211.31 490.14 211.31 275.38 207.7 275.38 207.7 265.65 207.7 254.36 207.7 242.95 207.7 231.66 207.7 220.25 207.7 208.96 207.7 197.55 207.7 186.26 207.7 176.05 177.91 176.05 177.91 184.57 199.17 184.57 199.17 245.47"/></svg>