<svg xmlns="http://www.w3.org/2000/svg" viewBox="0 0 318.24 583.97"><defs><style>.a{fill:silver;}.b,.c{fill:none;stroke-linecap:round;stroke-linejoin:round;}.b{stroke:#1d1d1b;stroke-width:0.2px;}.c{stroke:#009fe3;stroke-width:0.25px;}.d{fill:#1d1d1b;}</style></defs><polygon class="a" points="195.99 279.61 174.01 279.61 174.01 134.94 144.64 134.94 144.64 117.94 151.31 117.94 151.31 117.88 179.66 117.88 191.01 117.88 191.01 249.83 191.01 256.91 195.99 256.91 195.99 279.61"/><rect class="a" x="58.52" y="143.29" width="9.13" height="12.97"/><path class="a" d="M75,121v8.06a5.15,5.15,0,0,1-5.11,5.11,5.31,5.31,0,0,1-5.22-5h0V117.88H75Z"/><line class="b" x1="58.52" y1="143.29" x2="58.52" y2="156.26"/><rect class="b" x="59" y="144.01" width="8.17" height="11.53"/><line class="b" x1="58.52" y1="143.29" x2="67.65" y2="143.29"/><polyline class="b" points="67.65 143.29 67.65 156.26 58.52 156.26"/><line class="b" x1="61.17" y1="150.01" x2="61.17" y2="156.26"/><line class="b" x1="61.17" y1="143.29" x2="61.17" y2="149.53"/><path class="b" d="M64.71,129.07a5.31,5.31,0,0,0,5.22,5.11A5.15,5.15,0,0,0,75,129.07V117.88"/><line class="b" x1="60.87" y1="117.88" x2="77.92" y2="117.88"/><rect class="b" x="64.71" y="117.88" width="10.33" height="3.12"/><line class="b" x1="75.04" y1="121.49" x2="64.71" y2="121.49"/><line class="b" x1="64.71" y1="129.17" x2="64.71" y2="118.36"/><line class="b" x1="143.4" y1="135.33" x2="142.92" y2="135.81"/><polygon class="b" points="132.27 112.3 132.27 114.94 130.71 114.94 130.71 113.38 131.25 113.38 131.25 112.3 132.27 112.3"/><polygon class="b" points="90.77 112.3 90.77 113.38 91.31 113.38 91.31 114.94 89.75 114.94 89.75 112.3 90.77 112.3"/><polyline class="b" points="130.17 92.12 130.17 112.3 131.25 112.3 131.25 92.12"/><polyline class="b" points="190.77 508.49 190.41 508.49 190.05 508.43 189.69 508.43 189.32 508.37 188.97 508.31 188.6 508.25 188.24 508.19 187.88 508.13 187.46 508.07 187.1 508.01 186.8 507.95 186.44 507.83 186.08 507.71 185.72 507.65 185.36 507.53 185 507.41 184.64 507.29 184.28 507.17 183.98 506.99 183.62 506.87 183.26 506.75 182.96 506.57 182.6 506.39 182.3 506.27 181.94 506.09 181.64 505.9 181.34 505.73 180.98 505.55 180.68 505.31 180.38 505.13 180.08 504.94 179.78 504.7 179.48 504.46 179.18 504.28 178.88 504.04 178.63 503.8 178.34 503.56 178.03 503.32 177.79 503.08 177.49 502.84 177.25 502.54 177.01 502.3 176.71 502 176.47 501.76 176.23 501.46 175.99 501.22 175.75 500.92 175.51 500.62 175.33 500.32 175.09 500.02 174.91 499.72 174.67 499.42 174.49 499.12 174.31 498.82 174.07 498.46 173.89 498.16 173.71 497.86 173.59 497.5 173.41 497.2 173.23 496.84 173.11 496.54 172.93 496.18 172.81 495.82 172.69 495.52 172.51 495.15 172.39 494.8 172.27 494.44 172.21 494.07 172.09 493.71 171.97 493.35 171.91 493.05 171.79 492.69 171.73 492.33 171.67 491.97 171.61 491.55 171.55 491.19 171.49 490.83 171.43 490.47 171.43 490.11 171.37 489.75 171.37 489.39 171.37 489.03 171.31 488.67 171.31 488.25 171.31 488.67 171.31 489.03 171.31 489.39 171.31 489.75 171.25 490.11 171.19 490.47 171.19 490.83 171.13 491.19 171.07 491.55 171.01 491.97 170.95 492.33 170.83 492.69 170.77 493.05 170.65 493.35 170.59 493.71 170.47 494.07 170.35 494.44 170.23 494.8 170.11 495.15 169.99 495.52 169.87 495.82 169.75 496.18 169.57 496.54 169.45 496.84 169.27 497.2 169.09 497.5 168.91 497.86 168.73 498.16 168.55 498.46 168.37 498.82 168.19 499.12 168 499.42 167.76 499.72 167.59 500.02 167.34 500.32 167.1 500.62 166.92 500.92 166.68 501.22 166.44 501.46 166.2 501.76 165.9 502 165.66 502.3 165.42 502.54 165.18 502.84 164.88 503.08 164.64 503.32 164.34 503.56 164.04 503.8 163.8 504.04 163.5 504.28 163.2 504.46 162.9 504.7 162.6 504.94 162.3 505.13 162 505.31 161.64 505.55 161.34 505.73 161.04 505.9 160.68 506.09 160.38 506.27 160.02 506.39 159.72 506.57 159.36 506.75 159.06 506.87 158.7 506.99 158.34 507.17 158.04 507.29 157.68 507.41 157.31 507.53 156.96 507.65 156.59 507.71 156.23 507.83 155.87 507.95 155.51 508.01 155.15 508.07 154.79 508.13 154.43 508.19 154.07 508.25 153.71 508.31 153.35 508.37 152.99 508.43 152.63 508.43 152.27 508.49 151.91 508.49"/><polyline class="b" points="90.77 92.12 90.77 112.3 91.85 112.3 91.85 92.12"/><polyline class="b" points="81.04 265.98 81.34 265.98 81.64 265.98 81.94 265.98 82.25 266.04 82.55 266.1 82.85 266.1 83.15 266.16 83.39 266.22 83.69 266.28 83.99 266.34 84.29 266.4 84.59 266.46 84.83 266.52 85.13 266.64 85.43 266.7 85.67 266.82 85.97 266.88 86.27 267 86.51 267.12 86.81 267.24 87.05 267.36 87.35 267.48 87.59 267.6 87.83 267.72 88.13 267.9 88.37 268.02 88.61 268.14 88.91 268.32 89.15 268.44 89.39 268.62 89.63 268.8 89.87 268.98 90.11 269.17 90.35 269.35 90.59 269.52 90.83 269.7 91.01 269.88 91.25 270.06 91.49 270.25 91.67 270.49 91.91 270.67 92.09 270.91 92.33 271.09 92.52 271.33 92.69 271.57 92.88 271.75 93.06 271.99 93.23 272.23 93.42 272.47 93.6 272.71 93.78 272.95 93.96 273.19 94.08 273.43 94.26 273.67 94.44 273.97 94.56 274.21 94.68 274.45 94.86 274.75 94.98 274.99 95.1 275.23 95.22 275.53 95.34 275.77 95.46 276.07 95.58 276.31 95.64 276.61 95.76 276.91 95.88 277.15 95.94 277.45 96 277.75 96.12 278.05 96.18 278.29 96.24 278.59 96.3 278.89 96.36 279.19 96.42 279.49 96.48 279.73 96.48 280.04 96.54 280.33 96.54 280.63 96.6 280.94 96.6 281.24 96.6 281.54 96.6 281.84 96.6 282.14 96.6 281.84 96.66 281.54 96.66 281.24 96.66 280.94 96.72 280.63 96.72 280.33 96.78 280.04 96.78 279.73 96.84 279.49 96.9 279.19 96.96 278.89 97.02 278.59 97.08 278.29 97.14 278.05 97.2 277.75 97.32 277.45 97.38 277.15 97.5 276.91 97.56 276.61 97.68 276.31 97.8 276.07 97.92 275.77 98.04 275.53 98.16 275.23 98.28 274.99 98.4 274.75 98.52 274.45 98.7 274.21 98.82 273.97 99 273.67 99.12 273.43 99.3 273.19 99.48 272.95 99.66 272.71 99.84 272.47 100.02 272.23 100.2 271.99 100.38 271.75 100.56 271.57 100.74 271.33 100.92 271.09 101.16 270.91 101.34 270.67 101.58 270.49 101.76 270.25 102 270.06 102.24 269.88 102.42 269.7 102.66 269.52 102.91 269.35 103.14 269.17 103.39 268.98 103.63 268.8 103.86 268.62 104.11 268.44 104.35 268.32 104.59 268.14 104.89 268.02 105.13 267.9 105.37 267.72 105.67 267.6 105.91 267.48 106.21 267.36 106.45 267.24 106.75 267.12 106.99 267 107.29 266.88 107.59 266.82 107.83 266.7 108.13 266.64 108.43 266.52 108.67 266.46 108.97 266.4 109.27 266.34 109.57 266.28 109.87 266.22 110.11 266.16 110.41 266.1 110.71 266.1 111.01 266.04 111.31 265.98 111.61 265.98 111.91 265.98 112.21 265.98"/><polyline class="b" points="111.97 265.98 111.97 282.14 112.81 282.14 112.81 265.98"/><polyline class="b" points="80.44 265.98 80.44 282.14 81.28 282.14 81.28 265.98"/><polyline class="b" points="91.55 92.12 91.91 92.12 92.28 92.12 92.64 92.18 93.06 92.24 93.42 92.24 93.78 92.3 94.14 92.36 94.5 92.42 94.86 92.48 95.22 92.6 95.58 92.66 95.94 92.78 96.3 92.84 96.66 92.96 97.02 93.08 97.32 93.2 97.68 93.32 98.04 93.44 98.4 93.56 98.7 93.68 99.06 93.86 99.42 93.98 99.72 94.16 100.08 94.34 100.38 94.52 100.68 94.7 101.04 94.88 101.34 95.06 101.64 95.24 101.94 95.48 102.24 95.66 102.54 95.9 102.84 96.08 103.14 96.32 103.44 96.56 103.75 96.8 104.05 97.04 104.29 97.28 104.59 97.52 104.83 97.77 105.13 98 105.37 98.31 105.61 98.55 105.85 98.85 106.09 99.09 106.33 99.39 106.57 99.69 106.81 99.99 107.05 100.23 107.23 100.53 107.47 100.83 107.65 101.19 107.89 101.49 108.07 101.79 108.25 102.09 108.43 102.45 108.61 102.75 108.79 103.05 108.97 103.41 109.09 103.71 109.27 104.07 109.39 104.43 109.57 104.73 109.69 105.09 109.81 105.45 109.93 105.81 110.05 106.11 110.17 106.47 110.23 106.83 110.35 107.19 110.47 107.55 110.53 107.91 110.59 108.27 110.65 108.64 110.71 109 110.77 109.36 110.83 109.72 110.89 110.08 110.95 110.5 110.95 110.86 110.95 111.22 111.01 111.58 111.01 111.94 111.01 112.3 111.01 111.94 111.01 111.58 111.01 111.22 111.07 110.86 111.07 110.5 111.13 110.08 111.19 109.72 111.25 109.36 111.31 109 111.37 108.64 111.43 108.27 111.49 107.91 111.55 107.55 111.67 107.19 111.79 106.83 111.85 106.47 111.97 106.11 112.09 105.81 112.21 105.45 112.33 105.09 112.45 104.73 112.63 104.43 112.75 104.07 112.93 103.71 113.05 103.41 113.23 103.05 113.41 102.75 113.59 102.45 113.78 102.09 113.95 101.79 114.14 101.49 114.38 101.19 114.56 100.83 114.8 100.53 114.98 100.23 115.22 99.99 115.46 99.69 115.7 99.39 115.94 99.09 116.18 98.85 116.42 98.55 116.66 98.31 116.9 98 117.2 97.77 117.44 97.52 117.74 97.28 117.98 97.04 118.28 96.8 118.58 96.56 118.88 96.32 119.18 96.08 119.48 95.9 119.78 95.66 120.08 95.48 120.38 95.24 120.68 95.06 120.98 94.88 121.34 94.7 121.64 94.52 121.94 94.34 122.3 94.16 122.6 93.98 122.96 93.86 123.32 93.68 123.62 93.56 123.98 93.44 124.34 93.32 124.7 93.2 125 93.08 125.36 92.96 125.73 92.84 126.09 92.78 126.45 92.66 126.81 92.6 127.17 92.48 127.53 92.42 127.89 92.36 128.25 92.3 128.61 92.24 128.97 92.24 129.39 92.18 129.75 92.12 130.11 92.12 130.47 92.12"/><polyline class="b" points="152.21 508.49 152.21 488.25 151.13 488.25 151.13 508.49"/><polygon class="b" points="191.55 488.25 191.55 487.23 191.01 487.23 191.01 485.61 192.63 485.61 192.63 488.25 191.55 488.25"/><polygon class="b" points="150.05 488.25 150.05 485.61 151.67 485.61 151.67 487.23 151.13 487.23 151.13 488.25 150.05 488.25"/><polyline class="b" points="191.55 508.49 191.55 488.25 190.47 488.25 190.47 508.49"/><polyline class="b" points="165.24 373.96 167.04 374.68 168.97 375.22 170.95 375.58 172.93 375.7"/><rect class="b" x="83.87" y="158.48" width="17.9" height="0.96"/><polygon class="b" points="81.4 140.59 81.4 142.09 82.91 142.09 82.91 141.61 83.87 141.61 83.87 140.59 81.4 140.59"/><polygon class="b" points="82.91 159.44 82.91 158.96 81.4 158.96 81.4 160.46 83.87 160.46 83.87 159.44 82.91 159.44"/><path class="b" d="M166.8,279.43a23,23,0,0,0-21.68-22.94"/><rect class="b" x="143.86" y="256.49" width="1.26" height="23"/><polygon class="b" points="168.13 282.62 166.2 282.62 166.2 280.75 166.8 280.75 166.8 279.43 168.13 279.43 168.13 282.62"/><polygon class="b" points="143.86 280.75 144.46 280.75 144.46 282.62 142.54 282.62 142.54 279.43 143.86 279.43 143.86 280.75"/><path class="b" d="M119.3,362.61a20.51,20.51,0,0,0,20.42,19.28"/><rect class="b" x="119.3" y="361.47" width="20.42" height="1.14"/><polygon class="b" points="142.54 383.03 142.54 381.35 140.86 381.35 140.86 381.89 139.72 381.89 139.72 383.03 142.54 383.03"/><polygon class="b" points="140.86 361.47 140.86 362.01 142.54 362.01 142.54 360.33 139.72 360.33 139.72 361.47 140.86 361.47"/><polygon class="b" points="165.24 373.96 164.34 373.48 172.93 357.81 173.83 358.29 165.24 373.96"/><polygon class="b" points="175.39 376.67 175.39 375.16 173.95 375.16 173.95 375.7 172.93 375.7 172.93 376.67 175.39 376.67"/><polygon class="b" points="173.95 357.81 173.95 358.29 175.39 358.29 175.39 356.79 172.93 356.79 172.93 357.81 173.95 357.81"/><path class="b" d="M101.7,158.48a17.72,17.72,0,0,0-17.83-16.87"/><line class="b" x1="174.01" y1="279.61" x2="174.01" y2="134.94"/><polygon class="b" points="75.16 508.61 80.68 504.22 81.58 505.31 83.03 505.31 83.03 512.39 78.16 512.39 75.16 508.61"/><polygon class="b" points="125 508.61 119.42 504.22 118.52 505.31 117.14 505.31 117.14 512.39 121.94 512.39 125 508.61"/><line class="b" x1="50" y1="279.61" x2="58.52" y2="279.61"/><rect class="b" x="172.75" y="376.66" width="2.82" height="2.82"/><polyline class="b" points="174.01 134.94 144.64 134.94 144.64 117.88"/><polyline class="b" points="130.95 256.91 128.73 256.91 128.73 259.25"/><line class="b" x1="89.75" y1="117.88" x2="89.75" y2="109.36"/><path class="b" d="M150.87,120.12a20.37,20.37,0,0,0,0,12.64"/><path class="b" d="M175.53,132.76a20.37,20.37,0,0,0,0-12.64"/><path class="b" d="M175.93,132.89a20.76,20.76,0,0,0,0-12.9"/><line class="b" x1="174.85" y1="133.2" x2="151.55" y2="133.2"/><line class="b" x1="174.85" y1="119.63" x2="151.55" y2="119.63"/><line class="b" x1="174.85" y1="119.14" x2="151.55" y2="119.14"/><line class="b" x1="174.85" y1="133.62" x2="151.55" y2="133.62"/><polyline class="b" points="58.52 145.33 58.52 149.77 58.52 154.16"/><path class="b" d="M150.47,120a20.9,20.9,0,0,0,0,12.9"/><polyline class="b" points="81.22 176.68 81.22 185.99 58.52 185.99 58.52 163.29 67.83 163.29"/><path class="b" d="M81.22,176.71A13.42,13.42,0,0,0,67.8,163.29"/><line class="b" x1="117.14" y1="512.39" x2="83.03" y2="512.39"/><line class="b" x1="195.99" y1="391.44" x2="191.55" y2="391.44"/><polyline class="b" points="149.87 109.42 149.87 108.03 181.1 108.03 181.1 109.42"/><line class="b" x1="132.09" y1="488.13" x2="119.42" y2="504.22"/><line class="b" x1="62.79" y1="112.6" x2="76.96" y2="112.6"/><line class="b" x1="137.68" y1="492.51" x2="125.01" y2="508.61"/><line class="b" x1="195.99" y1="441.35" x2="180.44" y2="441.35"/><line class="b" x1="174.19" y1="379.49" x2="174.19" y2="434.5"/><line class="b" x1="68.01" y1="488.13" x2="80.68" y2="504.22"/><line class="b" x1="195.99" y1="403.93" x2="174.19" y2="403.93"/><line class="b" x1="195.99" y1="410.18" x2="174.19" y2="410.18"/><line class="b" x1="195.99" y1="416.42" x2="174.19" y2="416.42"/><line class="b" x1="195.99" y1="422.67" x2="174.19" y2="422.67"/><line class="b" x1="195.99" y1="428.85" x2="174.19" y2="428.85"/><line class="b" x1="195.99" y1="435.1" x2="174.85" y2="435.1"/><line class="b" x1="151.31" y1="117.88" x2="179.66" y2="117.88"/><line class="b" x1="172.75" y1="379.49" x2="172.75" y2="434.5"/><line class="b" x1="78.76" y1="505.73" x2="66.09" y2="489.69"/><line class="b" x1="62.49" y1="492.51" x2="75.16" y2="508.61"/><line class="b" x1="77.08" y1="507.05" x2="64.41" y2="491.01"/><line class="b" x1="83.03" y1="507.83" x2="117.14" y2="507.83"/><line class="b" x1="151.31" y1="112.66" x2="179.66" y2="112.66"/><line class="b" x1="151.31" y1="114.76" x2="179.66" y2="114.76"/><line class="b" x1="117.14" y1="505.3" x2="83.03" y2="505.3"/><line class="b" x1="62.79" y1="117.88" x2="76.96" y2="117.88"/><line class="b" x1="195.99" y1="397.68" x2="177.85" y2="397.68"/><polyline class="b" points="61.35 109.36 61.35 107.97 78.4 107.97 78.4 109.36"/><line class="b" x1="123.02" y1="507.05" x2="135.7" y2="491.01"/><line class="b" x1="121.34" y1="505.73" x2="134.01" y2="489.69"/><polyline class="b" points="174.19 399.25 183.32 395.28 183.26 392.1 186.32 397.5 186.32 393.78 195.99 389.4"/><rect class="b" x="172.03" y="434.5" width="2.82" height="2.82"/><path class="b" d="M174.83,437.38a7,7,0,0,0,5.57,4"/><line class="b" x1="62.79" y1="114.7" x2="76.96" y2="114.7"/><line class="b" x1="83.03" y1="509.93" x2="117.14" y2="509.93"/><rect class="b" x="175.69" y="165.69" width="13.27" height="25.52"/><line class="c" x1="80.32" y1="234.21" x2="80.32" y2="191.69"/><line class="c" x1="105.91" y1="230.19" x2="95.52" y2="230.19"/><line class="c" x1="94.38" y1="230.19" x2="85.13" y2="230.19"/><line class="c" x1="85.13" y1="195.72" x2="94.38" y2="195.72"/><line class="c" x1="95.52" y1="195.72" x2="105.91" y2="195.72"/><polyline class="c" points="105.91 211.57 105.91 191.69 106.99 191.69 106.99 211.57"/><polyline class="c" points="106.99 214.33 106.99 234.21 105.91 234.21 105.91 214.33"/><polyline class="c" points="94.38 204.97 94.38 191.69 95.52 191.69 95.52 206.11"/><polyline class="c" points="93.6 220.16 80.32 220.16 80.32 219.02 94.74 219.02"/><polyline class="c" points="94.74 206.89 80.32 206.89 80.32 205.75 93.6 205.75"/><polyline class="c" points="95.52 219.8 95.52 234.21 94.38 234.21 94.38 220.94"/><line class="c" x1="80.5" y1="233.25" x2="80.5" y2="220.16"/><line class="c" x1="84.35" y1="229.41" x2="84.35" y2="220.16"/><line class="c" x1="80.62" y1="233.07" x2="80.62" y2="220.16"/><line class="c" x1="81.46" y1="191.99" x2="94.38" y2="191.99"/><line class="c" x1="81.28" y1="191.87" x2="94.38" y2="191.87"/><line class="c" x1="84.17" y1="205.75" x2="84.17" y2="196.38"/><line class="c" x1="80.5" y1="205.75" x2="80.5" y2="192.65"/><line class="c" x1="80.62" y1="205.75" x2="80.62" y2="192.83"/><line class="c" x1="80.5" y1="219.02" x2="80.5" y2="206.89"/><line class="c" x1="84.35" y1="219.02" x2="84.35" y2="206.89"/><line class="c" x1="80.62" y1="219.02" x2="80.62" y2="206.89"/><line class="c" x1="94.38" y1="234.03" x2="81.28" y2="234.03"/><line class="c" x1="94.38" y1="233.91" x2="81.46" y2="233.91"/><line class="c" x1="105.91" y1="234.03" x2="95.52" y2="234.03"/><line class="c" x1="105.91" y1="233.91" x2="95.52" y2="233.91"/><line class="c" x1="95.52" y1="191.99" x2="105.91" y2="191.99"/><line class="c" x1="95.52" y1="191.87" x2="105.91" y2="191.87"/><line class="c" x1="100.92" y1="211.51" x2="81.1" y2="191.69"/><line class="c" x1="100.14" y1="212.29" x2="80.32" y2="192.47"/><polyline class="c" points="100.92 214.39 89.81 225.5 81.1 234.21"/><polyline class="c" points="100.14 213.61 88.97 224.72 80.32 233.43"/><path class="c" d="M103,213a1.23,1.23,0,1,0-1.23,1.23A1.23,1.23,0,0,0,103,213Z"/><line class="c" x1="123.44" y1="191.69" x2="123.44" y2="211.57"/><line class="c" x1="122.3" y1="191.69" x2="122.3" y2="211.57"/><line class="c" x1="122.3" y1="234.21" x2="122.3" y2="214.33"/><line class="c" x1="123.44" y1="234.21" x2="123.44" y2="214.33"/><line class="c" x1="165.42" y1="234.21" x2="165.42" y2="191.69"/><line class="c" x1="123.44" y1="230.19" x2="138.7" y2="230.19"/><line class="c" x1="106.99" y1="230.19" x2="122.3" y2="230.19"/><line class="c" x1="139.84" y1="230.19" x2="150.17" y2="230.19"/><line class="c" x1="151.31" y1="230.19" x2="160.56" y2="230.19"/><line class="c" x1="160.56" y1="195.72" x2="151.31" y2="195.72"/><line class="c" x1="150.17" y1="195.72" x2="139.84" y2="195.72"/><line class="c" x1="122.3" y1="195.72" x2="106.99" y2="195.72"/><line class="c" x1="138.7" y1="195.72" x2="123.44" y2="195.72"/><polyline class="c" points="145.18 214.03 165.42 234.21 80.32 234.21 100.5 214.03"/><polyline class="c" points="139.84 211.57 139.84 191.69 138.7 191.69 138.7 211.57"/><polyline class="c" points="138.7 214.33 138.7 234.21 139.84 234.21 139.84 214.33"/><polyline class="c" points="151.31 204.97 151.31 191.69 150.17 191.69 150.17 206.11"/><polyline class="c" points="152.09 220.16 165.42 220.16 165.42 219.02 151.01 219.02"/><polyline class="c" points="151.01 206.89 165.42 206.89 165.42 205.75 152.09 205.75"/><polyline class="c" points="150.17 219.8 150.17 234.21 151.31 234.21 151.31 220.94"/><line class="c" x1="165.24" y1="233.25" x2="165.24" y2="220.16"/><line class="c" x1="161.4" y1="229.41" x2="161.4" y2="220.16"/><line class="c" x1="165.06" y1="233.07" x2="165.06" y2="220.16"/><line class="c" x1="164.28" y1="191.99" x2="151.31" y2="191.99"/><line class="c" x1="164.4" y1="191.87" x2="151.31" y2="191.87"/><line class="c" x1="161.52" y1="205.75" x2="161.52" y2="196.38"/><line class="c" x1="165.24" y1="205.75" x2="165.24" y2="192.65"/><line class="c" x1="165.06" y1="205.75" x2="165.06" y2="192.83"/><line class="c" x1="165.24" y1="219.02" x2="165.24" y2="206.89"/><line class="c" x1="161.4" y1="219.02" x2="161.4" y2="206.89"/><line class="c" x1="165.06" y1="219.02" x2="165.06" y2="206.89"/><line class="c" x1="151.31" y1="234.03" x2="164.4" y2="234.03"/><line class="c" x1="151.31" y1="233.91" x2="164.28" y2="233.91"/><line class="c" x1="139.84" y1="234.03" x2="150.17" y2="234.03"/><line class="c" x1="139.84" y1="233.91" x2="150.17" y2="233.91"/><line class="c" x1="123.44" y1="234.03" x2="138.7" y2="234.03"/><line class="c" x1="106.99" y1="234.03" x2="122.3" y2="234.03"/><line class="c" x1="123.44" y1="233.91" x2="138.7" y2="233.91"/><line class="c" x1="106.99" y1="233.91" x2="122.3" y2="233.91"/><line class="c" x1="122.3" y1="191.99" x2="106.99" y2="191.99"/><line class="c" x1="138.7" y1="191.99" x2="123.44" y2="191.99"/><line class="c" x1="122.3" y1="191.87" x2="106.99" y2="191.87"/><line class="c" x1="138.7" y1="191.87" x2="123.44" y2="191.87"/><line class="c" x1="150.17" y1="191.99" x2="139.84" y2="191.99"/><line class="c" x1="150.17" y1="191.87" x2="139.84" y2="191.87"/><line class="c" x1="144.76" y1="211.51" x2="164.64" y2="191.69"/><line class="c" x1="145.6" y1="212.29" x2="165.42" y2="192.47"/><polyline class="c" points="144.76 214.39 155.93 225.5 164.64 234.21"/><polyline class="c" points="145.6 213.61 156.72 224.72 165.42 233.43"/><polyline class="c" points="100.5 211.87 80.32 191.69 165.42 191.69 145.18 211.87"/><polyline class="c" points="143.32 214.33 102.18 214.33 102.12 214.39 100.92 214.39 100.5 213.97"/><line class="c" x1="143.32" y1="211.57" x2="102.36" y2="211.57"/><path class="c" d="M145.12,213a1.23,1.23,0,1,0-1.23,1.23A1.23,1.23,0,0,0,145.12,213Z"/><rect class="d" x="132.27" y="109.42" width="19.04" height="8.53"/><polygon class="d" points="135.51 483.75 147.23 483.75 147.23 400.75 139.12 388.68 132.63 388.68 132.63 383.03 142.54 383.03 142.54 388.68 150.05 399.91 150.05 490.83 138.94 490.83 137.68 492.51 132.09 488.13 135.51 483.75"/><polygon class="d" points="113.66 279.61 113.66 286.7 139.72 286.7 139.72 299.13 142.54 299.13 142.54 279.61 113.66 279.61"/><polygon class="d" points="81.22 117.88 81.22 140.59 84.05 140.59 84.05 117.88 89.75 117.88 89.75 109.36 76.96 109.36 76.96 117.88 81.22 117.88"/><polygon class="d" points="46.45 490.83 61.17 490.83 62.49 492.51 68.01 488.13 64.59 483.75 53.54 483.75 53.54 286.7 79.6 286.7 79.6 279.61 58.52 279.61 58.52 188.81 84.05 188.81 84.05 160.46 81.22 160.46 81.22 185.99 58.52 185.99 58.52 117.88 62.79 117.88 62.79 109.36 49.99 109.36 49.99 279.61 46.45 279.61 46.45 490.83"/><polygon class="d" points="195.99 279.61 168.13 279.61 168.13 282.5 195.99 282.5 195.99 353.96 142.54 353.96 142.54 333.96 139.72 333.96 139.72 360.33 142.54 360.33 142.54 356.79 195.99 356.79 195.99 483.75 192.63 483.75 192.63 490.83 203.08 490.83 203.08 279.61 203.08 249.83 199.53 249.83 199.53 109.36 179.66 109.36 179.66 117.88 191.01 117.88 191.01 249.83 191.01 256.91 195.99 256.91 195.99 279.61"/></svg>