<svg xmlns="http://www.w3.org/2000/svg" viewBox="0 0 318.24 583.97"><defs><style>.a{fill:silver;}.b,.c,.d{fill:none;stroke-linecap:round;stroke-linejoin:round;}.b{stroke:silver;}.c{stroke:#1d1d1b;stroke-width:0.2px;}.d{stroke:#009fe3;stroke-width:0.25px;}.e{fill:#1d1d1b;}</style></defs><polygon class="a" points="140.71 256.67 140.72 256.67 156.32 256.67 156.32 221.18 140.71 221.18 140.71 230.85 140.71 256.67"/><polygon class="a" points="180.01 212.56 180.01 229.59 180.01 263.64 180.01 280.67 180.01 297.69 180.01 314.72 180.01 331.74 180.01 348.77 180.79 348.77 197.04 348.77 197.04 272.26 197.04 263.64 197.04 246.62 197.04 229.59 197.04 212.56 180.01 212.56"/><polygon class="a" points="78.13 247.25 78.13 230.22 78.13 213.19 61.1 213.19 61.1 230.22 61.1 247.25 61.1 264.27 78.13 264.27 78.13 247.25"/><rect class="b" x="180.01" y="229.59" width="17.03" height="34.05"/><polyline class="c" points="180.01 348.77 180.01 331.74 197.04 331.74"/><polyline class="c" points="197.04 314.72 180.01 314.72 180.01 331.74 197.04 331.74"/><polyline class="c" points="197.04 314.72 180.01 314.72 180.01 297.69 197.04 297.69"/><polyline class="c" points="197.04 280.67 180.01 280.67 180.01 297.69 197.04 297.69"/><polyline class="c" points="197.04 280.67 180.01 280.67 180.01 263.64 197.04 263.64"/><line class="c" x1="202.71" y1="453.48" x2="183.71" y2="453.48"/><path class="c" d="M183.72,453.48a4.25,4.25,0,0,1-4.25-4.25"/><line class="c" x1="179.44" y1="449.21" x2="179.44" y2="447.23"/><line class="c" x1="202.71" y1="447.23" x2="179.8" y2="447.23"/><line class="c" x1="202.71" y1="440.99" x2="182.08" y2="440.99"/><line class="c" x1="202.71" y1="434.74" x2="182.08" y2="434.74"/><line class="c" x1="202.71" y1="428.52" x2="182.08" y2="428.52"/><line class="c" x1="202.71" y1="422.28" x2="182.08" y2="422.28"/><line class="c" x1="182.08" y1="444.26" x2="182.08" y2="416.03"/><line class="c" x1="179.8" y1="444.26" x2="179.8" y2="416.03"/><rect class="c" x="179.44" y="444.26" width="3" height="2.97"/><polyline class="c" points="162.5 483.51 178 483.51 178 490.86 162.5 490.86"/><line class="c" x1="123.02" y1="512.03" x2="143.74" y2="490.77"/><line class="c" x1="180.79" y1="348.77" x2="203.61" y2="348.77"/><line class="c" x1="184.07" y1="375.41" x2="179.8" y2="375.41"/><line class="c" x1="184.07" y1="377.54" x2="181.93" y2="377.54"/><line class="c" x1="179.8" y1="375.41" x2="179.8" y2="416.03"/><line class="c" x1="181.93" y1="377.54" x2="181.93" y2="416.03"/><polyline class="c" points="178.21 416.03 190.7 416.03 191.54 418.86 193.25 413.18 194.09 416.03 206.59 416.03"/><line class="c" x1="184.07" y1="377.54" x2="184.07" y2="375.41"/><line class="c" x1="202.71" y1="382.82" x2="181.93" y2="382.82"/><line class="c" x1="202.71" y1="387.09" x2="181.93" y2="387.09"/><line class="c" x1="202.71" y1="391.35" x2="181.93" y2="391.35"/><line class="c" x1="202.71" y1="395.58" x2="181.93" y2="395.58"/><line class="c" x1="202.71" y1="399.85" x2="181.93" y2="399.85"/><line class="c" x1="202.71" y1="404.11" x2="181.93" y2="404.11"/><line class="c" x1="202.71" y1="408.38" x2="181.93" y2="408.38"/><line class="c" x1="200.58" y1="376.46" x2="200.58" y2="392.91"/><path class="c" d="M200.61,392.94a16.49,16.49,0,0,1-16.51-16.48"/><polyline class="c" points="200.58 376.46 199.83 376.46 199.83 392.91 200.58 392.91"/><line class="c" x1="154.46" y1="375.38" x2="133.29" y2="375.41"/><path class="c" d="M133.26,375.41a21.26,21.26,0,0,1,21.24-21.29"/><polyline class="c" points="154.49 375.38 154.46 374.62 133.26 374.62 133.26 375.38"/><polygon class="c" points="122.42 511.43 122 511.85 121.46 511.85 121.46 513.53 122.75 513.53 123.62 512.63 122.42 511.43"/><polyline class="c" points="162.5 488.04 178 488.04 178 486.33 162.5 486.33"/><line class="c" x1="176.86" y1="488.04" x2="176.86" y2="486.33"/><line class="c" x1="163.65" y1="488.04" x2="163.65" y2="486.33"/><line class="c" x1="163.65" y1="487.17" x2="176.86" y2="487.17"/><line class="c" x1="200.01" y1="483.51" x2="199.98" y2="465.25"/><path class="c" d="M178,487.23a22,22,0,0,1,22-22"/><polyline class="c" points="200.01 487.17 199.26 487.17 199.23 465.22 199.98 465.22"/><line class="c" x1="200.01" y1="487.14" x2="200.01" y2="483.51"/><rect class="c" x="180.79" y="350.3" width="19.22" height="1.14"/><line class="c" x1="197.04" y1="272.26" x2="197.04" y2="348.77"/><rect class="c" x="150.37" y="203.19" width="5.95" height="2.85"/><line class="c" x1="195.9" y1="234.99" x2="180.58" y2="234.99"/><line class="c" x1="180.58" y1="258.09" x2="195.9" y2="258.09"/><line class="c" x1="195.9" y1="258.09" x2="195.9" y2="234.99"/><line class="c" x1="180.58" y1="234.99" x2="180.58" y2="258.09"/><polyline class="c" points="156.32 208.3 157.04 208.3 157.04 207.67 156.59 207.67 156.59 206.05 156.32 206.05"/><line class="c" x1="156.59" y1="206.05" x2="179.71" y2="206.05"/><line class="c" x1="179.29" y1="208.3" x2="157.04" y2="208.3"/><line class="c" x1="157.94" y1="206.74" x2="178.39" y2="206.77"/><line class="c" x1="157.94" y1="207.04" x2="178.39" y2="207.04"/><line class="c" x1="157.94" y1="207.31" x2="178.39" y2="207.31"/><line class="c" x1="157.94" y1="207.61" x2="178.39" y2="207.61"/><line class="c" x1="180.01" y1="203.19" x2="156.32" y2="203.19"/><polyline class="c" points="150.37 208.3 149.65 208.3 149.65 207.67 150.07 207.67 150.07 206.68 149.65 206.68 149.65 206.05 150.37 206.05"/><polyline class="c" points="114.25 208.3 114.94 208.3 114.94 207.67 114.52 207.67 114.52 206.68 114.94 206.68 114.94 206.05 114.25 206.05"/><line class="c" x1="114.94" y1="206.05" x2="149.65" y2="206.05"/><line class="c" x1="149.65" y1="208.3" x2="114.94" y2="208.3"/><line class="c" x1="115.87" y1="206.74" x2="148.72" y2="206.74"/><line class="c" x1="115.87" y1="207.04" x2="148.72" y2="207.04"/><line class="c" x1="115.87" y1="207.31" x2="148.72" y2="207.31"/><line class="c" x1="115.87" y1="207.61" x2="148.72" y2="207.61"/><polyline class="c" points="114.25 208.3 113.53 208.3 113.53 207.67 113.95 207.67 113.95 206.68 113.53 206.68 113.53 206.05 114.25 206.05"/><line class="c" x1="156.32" y1="221.18" x2="156.32" y2="256.67"/><line class="c" x1="152.63" y1="382.91" x2="133.29" y2="382.88"/><path class="c" d="M154,404.19a21.26,21.26,0,0,1-20.7-21.28"/><polyline class="c" points="154.49 382.91 154.46 383.66 133.26 383.66 133.26 382.91"/><line class="c" x1="152.63" y1="382.91" x2="154.46" y2="382.91"/><line class="c" x1="140.7" y1="230.85" x2="140.7" y2="256.67"/><polyline class="c" points="140.71 230.85 140.71 218.36 150.37 218.36 150.37 203.19 156.32 203.19 156.32 221.18"/><line class="c" x1="156.32" y1="221.18" x2="156.32" y2="208.3"/><polyline class="c" points="67.26 483.51 91.58 508.43 120.59 508.43 144.64 483.78"/><polyline class="c" points="62.57 490.86 88.01 516.96 124.16 516.96 149.59 490.86"/><line class="c" x1="68.43" y1="490.77" x2="89.15" y2="512.03"/><line class="c" x1="90.71" y1="512.69" x2="121.46" y2="512.69"/><polyline class="c" points="69.03 490.2 90.14 511.85 122.03 511.85 144.64 488.67"/><polygon class="c" points="89.45 513.53 90.71 513.53 90.71 511.85 90.14 511.85 89.75 511.43 88.55 512.63 89.45 513.53"/><line class="c" x1="67.26" y1="490.8" x2="67.31" y2="490.86"/><line class="c" x1="69.03" y1="490.2" x2="67.26" y2="488.37"/><rect class="c" x="61.1" y="213.19" width="17.03" height="17.03"/><rect class="c" x="61.1" y="230.22" width="17.03" height="17.03"/><rect class="c" x="61.1" y="247.25" width="17.03" height="17.03"/><line class="c" x1="150.37" y1="203.19" x2="78.13" y2="203.19"/><polyline class="c" points="78.13 208.3 78.85 208.3 78.85 207.67 78.4 207.67 78.4 206.68 78.85 206.68 78.85 206.05 78.13 206.05"/><line class="c" x1="78.85" y1="206.05" x2="113.53" y2="206.05"/><line class="c" x1="113.53" y1="208.3" x2="78.85" y2="208.3"/><line class="c" x1="79.75" y1="206.74" x2="112.6" y2="206.74"/><line class="c" x1="79.75" y1="207.04" x2="112.6" y2="207.04"/><line class="c" x1="79.75" y1="207.31" x2="112.6" y2="207.31"/><line class="c" x1="79.75" y1="207.61" x2="112.6" y2="207.61"/><rect class="c" x="61.1" y="213.19" width="17.03" height="51.08"/><line class="c" x1="59.69" y1="212.56" x2="59.69" y2="264.9"/><polyline class="c" points="67.26 490.8 89.45 513.53 122.75 513.53 144.85 490.86"/><line class="c" x1="197.04" y1="212.56" x2="180.01" y2="212.56"/><polyline class="c" points="180.01 212.56 180.01 229.59 197.04 229.59"/><line class="c" x1="181.84" y1="234.99" x2="181.84" y2="258.09"/><polygon class="c" points="145.54 239.32 145.54 246.01 155.81 246.01 155.81 221.81 145.54 221.81 145.54 238.54 145.54 239.32"/><line class="d" x1="93.43" y1="227.16" x2="94.84" y2="227.16"/><line class="d" x1="95.68" y1="227.16" x2="97.12" y2="227.16"/><line class="d" x1="97.96" y1="227.16" x2="99.37" y2="227.16"/><line class="d" x1="100.21" y1="227.16" x2="101.65" y2="227.16"/><line class="d" x1="102.49" y1="227.16" x2="103.91" y2="227.16"/><line class="d" x1="104.78" y1="227.16" x2="106.19" y2="227.16"/><polyline class="d" points="107.03 227.16 108.02 227.16 108.02 228.15"/><line class="d" x1="108.02" y1="229.02" x2="108.02" y2="230.43"/><line class="d" x1="108.02" y1="231.28" x2="108.02" y2="232.72"/><line class="d" x1="108.02" y1="233.56" x2="108.02" y2="234.97"/><line class="d" x1="108.02" y1="235.81" x2="108.02" y2="237.25"/><line class="d" x1="108.02" y1="238.09" x2="108.02" y2="239.5"/><line class="d" x1="108.02" y1="240.37" x2="108.02" y2="241.79"/><line class="d" x1="108.02" y1="242.63" x2="108.02" y2="244.04"/><line class="d" x1="108.02" y1="244.91" x2="108.02" y2="246.32"/><line class="d" x1="108.02" y1="247.16" x2="108.02" y2="248.6"/><line class="d" x1="108.02" y1="249.44" x2="108.02" y2="250.85"/><polyline class="d" points="108.02 251.72 108.02 252.72 107.03 252.72"/><line class="d" x1="106.19" y1="252.72" x2="104.78" y2="252.72"/><line class="d" x1="103.91" y1="252.72" x2="102.49" y2="252.72"/><line class="d" x1="101.65" y1="252.72" x2="100.21" y2="252.72"/><line class="d" x1="99.37" y1="252.72" x2="97.96" y2="252.72"/><line class="d" x1="97.12" y1="252.72" x2="95.68" y2="252.72"/><line class="d" x1="94.84" y1="252.72" x2="93.43" y2="252.72"/><line class="d" x1="84.33" y1="227.16" x2="85.77" y2="227.16"/><line class="d" x1="86.61" y1="227.16" x2="88.02" y2="227.16"/><line class="d" x1="88.89" y1="227.16" x2="90.3" y2="227.16"/><line class="d" x1="91.14" y1="227.16" x2="92.56" y2="227.16"/><line class="d" x1="92.56" y1="252.72" x2="91.14" y2="252.72"/><line class="d" x1="90.3" y1="252.72" x2="88.89" y2="252.72"/><line class="d" x1="88.02" y1="252.72" x2="86.61" y2="252.72"/><line class="d" x1="85.77" y1="252.72" x2="84.33" y2="252.72"/><line class="d" x1="163.36" y1="227.16" x2="164.8" y2="227.16"/><line class="d" x1="165.64" y1="227.16" x2="167.05" y2="227.16"/><line class="d" x1="167.9" y1="227.16" x2="169.34" y2="227.16"/><line class="d" x1="170.18" y1="227.16" x2="171.59" y2="227.16"/><polyline class="d" points="172.46 227.16 173.45 227.16 173.45 228.15"/><polyline class="d" points="173.45 251.72 173.45 252.72 172.46 252.72"/><line class="d" x1="171.59" y1="252.72" x2="170.18" y2="252.72"/><line class="d" x1="169.34" y1="252.72" x2="167.9" y2="252.72"/><line class="d" x1="167.05" y1="252.72" x2="165.64" y2="252.72"/><line class="d" x1="164.8" y1="252.72" x2="163.36" y2="252.72"/><line class="d" x1="83.49" y1="252.72" x2="82.5" y2="252.72"/><polyline class="d" points="82.5 228.15 82.5 227.16 83.49 227.16"/><line class="d" x1="82.5" y1="230.43" x2="82.5" y2="229.02"/><line class="d" x1="82.5" y1="232.72" x2="82.5" y2="231.28"/><line class="d" x1="82.5" y1="234.97" x2="82.5" y2="233.56"/><line class="d" x1="82.5" y1="237.25" x2="82.5" y2="235.81"/><line class="d" x1="82.5" y1="239.5" x2="82.5" y2="238.09"/><line class="d" x1="82.5" y1="241.79" x2="82.5" y2="240.37"/><line class="d" x1="82.5" y1="244.04" x2="82.5" y2="242.63"/><line class="d" x1="82.5" y1="246.32" x2="82.5" y2="244.91"/><line class="d" x1="82.5" y1="248.6" x2="82.5" y2="247.16"/><line class="d" x1="82.5" y1="250.85" x2="82.5" y2="249.44"/><line class="d" x1="82.5" y1="252.72" x2="82.5" y2="251.72"/><line class="d" x1="148.89" y1="252.72" x2="147.9" y2="252.72"/><line class="d" x1="151.17" y1="252.72" x2="149.76" y2="252.72"/><line class="d" x1="153.45" y1="252.72" x2="152.01" y2="252.72"/><line class="d" x1="155.7" y1="252.72" x2="154.29" y2="252.72"/><line class="d" x1="157.99" y1="252.72" x2="156.57" y2="252.72"/><line class="d" x1="160.24" y1="252.72" x2="158.83" y2="252.72"/><line class="d" x1="162.52" y1="252.72" x2="161.11" y2="252.72"/><line class="d" x1="173.45" y1="249.44" x2="173.45" y2="250.85"/><line class="d" x1="173.45" y1="247.16" x2="173.45" y2="248.6"/><line class="d" x1="173.45" y1="244.91" x2="173.45" y2="246.32"/><line class="d" x1="173.45" y1="242.63" x2="173.45" y2="244.04"/><line class="d" x1="173.45" y1="240.37" x2="173.45" y2="241.79"/><line class="d" x1="173.45" y1="238.09" x2="173.45" y2="239.5"/><line class="d" x1="173.45" y1="235.81" x2="173.45" y2="237.25"/><line class="d" x1="173.45" y1="233.56" x2="173.45" y2="234.97"/><line class="d" x1="173.45" y1="231.28" x2="173.45" y2="232.72"/><line class="d" x1="173.45" y1="229.02" x2="173.45" y2="230.43"/><line class="d" x1="161.11" y1="227.16" x2="162.52" y2="227.16"/><line class="d" x1="158.83" y1="227.16" x2="160.24" y2="227.16"/><line class="d" x1="156.57" y1="227.16" x2="157.99" y2="227.16"/><line class="d" x1="154.29" y1="227.16" x2="155.7" y2="227.16"/><line class="d" x1="152.01" y1="227.16" x2="153.45" y2="227.16"/><line class="d" x1="149.76" y1="227.16" x2="151.17" y2="227.16"/><polyline class="d" points="147.9 228.15 147.9 227.16 148.89 227.16"/><line class="d" x1="147.9" y1="230.43" x2="147.9" y2="229.02"/><line class="d" x1="147.9" y1="232.72" x2="147.9" y2="231.28"/><line class="d" x1="147.9" y1="234.97" x2="147.9" y2="233.56"/><line class="d" x1="147.9" y1="237.25" x2="147.9" y2="235.81"/><line class="d" x1="147.9" y1="239.5" x2="147.9" y2="238.09"/><line class="d" x1="147.9" y1="241.79" x2="147.9" y2="240.37"/><line class="d" x1="147.9" y1="244.04" x2="147.9" y2="242.63"/><line class="d" x1="147.9" y1="246.32" x2="147.9" y2="244.91"/><line class="d" x1="147.9" y1="248.6" x2="147.9" y2="247.16"/><line class="d" x1="147.9" y1="250.85" x2="147.9" y2="249.44"/><line class="d" x1="147.9" y1="252.72" x2="147.9" y2="251.72"/><polygon class="e" points="156.32 272.26 150.37 272.26 150.37 259.5 140.71 259.5 140.72 256.67 156.32 256.67 156.32 272.26"/><polygon class="e" points="156.32 221.18 156.32 203.19 150.37 203.19 150.37 218.36 140.71 218.36 140.71 221.18 156.32 221.18"/><polygon class="e" points="54.01 380.42 78.67 380.42 78.67 376.73 54.01 376.73 54.01 342.28 66.45 342.28 66.45 301.15 53.92 301.15 53.92 272.26 78.13 272.26 78.13 264.9 59.69 264.9 59.69 212.56 78.13 212.56 78.13 203.19 50.32 203.19 46.72 203.19 46.72 490.86 67.31 490.86 67.8 491.37 69.03 490.2 69.03 490.2 67.26 488.37 67.26 483.51 54.01 483.51 54.01 444.02 63.14 444.02 63.14 400.93 54.01 400.93 54.01 380.42"/><line class="e" x1="180.01" y1="203.19" x2="203.61" y2="203.19"/><polygon class="e" points="197.04 348.77 197.04 331.74 197.04 314.72 197.04 297.69 197.04 280.67 197.04 263.64 197.04 246.62 197.04 229.59 197.04 212.56 180.01 212.56 180.01 208.3 179.29 208.3 179.29 207.67 179.71 207.67 179.71 206.05 180.01 206.05 180.01 203.19 203.61 203.19 209.2 203.19 209.2 490.86 200.01 490.86 200.01 487.14 200.01 483.51 200.01 483.51 202.71 483.51 202.71 377.54 200.58 377.54 200.58 375.4 202.71 375.4 202.71 353 180.79 353 180.01 353 180.01 351.74 180.79 351.74 202.71 351.74 202.71 350.03 180.79 350.03 180.01 350.03 180.01 348.77 197.04 348.77"/><line class="e" x1="153.96" y1="404.2" x2="154.5" y2="404.2"/><line class="e" x1="156.32" y1="483.51" x2="152.63" y2="483.51"/><polygon class="e" points="152.63 346.49 156.32 346.49 156.32 349.31 161.6 349.31 161.6 353 156.32 353 156.32 354.08 152.63 354.08 150.37 354.08 150.37 346.49 152.63 346.49"/><polygon class="e" points="140.1 376.73 152.63 376.73 152.63 375.38 156.32 375.38 156.32 382.91 154.46 382.91 152.63 382.91 152.63 380.42 127.97 380.42 127.97 376.73 140.1 376.73"/><path class="e" d="M144.64,483.51h8V404.2h3.69v79.31h6.19v7.35H144.85l-.48.51-1.23-1.17,1.5-1.53Z"/><line class="e" x1="152.63" y1="483.51" x2="152.63" y2="404.2"/></svg>