<svg xmlns="http://www.w3.org/2000/svg" viewBox="0 0 113.39 198.43"><defs><style>.a,.c{fill:none;stroke-linecap:round;stroke-linejoin:round;stroke-width:0.1px;}.a{stroke:#1d1d1b;}.b{fill:silver;}.c{stroke:blue;}.d{fill:#1d1d1b;}</style></defs><line class="a" x1="81.52" y1="125.09" x2="81.87" y2="124.74"/><line class="a" x1="80.82" y1="125.87" x2="81.17" y2="125.52"/><line class="a" x1="80.04" y1="126.57" x2="80.39" y2="126.22"/><line class="a" x1="79.34" y1="127.35" x2="79.69" y2="126.91"/><line class="a" x1="78.56" y1="128.04" x2="78.91" y2="127.7"/><line class="a" x1="85.87" y1="125.52" x2="86.04" y2="125.43"/><line class="a" x1="85.43" y1="125.61" x2="85.96" y2="125.43"/><line class="a" x1="84.48" y1="125.96" x2="85" y2="125.78"/><line class="a" x1="83.52" y1="126.3" x2="83.95" y2="126.13"/><line class="a" x1="82.48" y1="126.65" x2="83" y2="126.48"/><line class="a" x1="81.52" y1="127" x2="82.04" y2="126.83"/><line class="a" x1="80.56" y1="127.35" x2="81" y2="127.17"/><line class="a" x1="79.52" y1="127.7" x2="80.04" y2="127.52"/><line class="a" x1="78.56" y1="128.04" x2="79.08" y2="127.87"/><line class="a" x1="86.04" y1="121.78" x2="86.04" y2="122.74"/><line class="a" x1="48.28" y1="177.56" x2="58.63" y2="177.56"/><line class="a" x1="36.62" y1="177.56" x2="45.84" y2="177.56"/><line class="a" x1="48.28" y1="174.51" x2="58.63" y2="174.51"/><line class="a" x1="36.62" y1="174.51" x2="45.84" y2="174.51"/><line class="a" x1="68.34" y1="169.07" x2="60.77" y2="176.64"/><line class="a" x1="66.2" y1="166.94" x2="58.63" y2="174.51"/><line class="a" x1="78.91" y1="128.04" x2="78.56" y2="128.04"/><line class="a" x1="79.95" y1="128.04" x2="79.43" y2="128.04"/><line class="a" x1="81" y1="128.04" x2="80.47" y2="128.04"/><line class="a" x1="82.04" y1="128.04" x2="81.52" y2="128.04"/><line class="a" x1="83.08" y1="128.04" x2="82.56" y2="128.04"/><line class="a" x1="84.13" y1="128.04" x2="83.61" y2="128.04"/><line class="a" x1="85.17" y1="128.04" x2="84.65" y2="128.04"/><line class="a" x1="86.04" y1="128.04" x2="85.7" y2="128.04"/><line class="a" x1="78.91" y1="130.31" x2="78.56" y2="130.31"/><line class="a" x1="79.95" y1="130.31" x2="79.43" y2="130.31"/><line class="a" x1="81" y1="130.31" x2="80.47" y2="130.31"/><line class="a" x1="82.04" y1="130.31" x2="81.52" y2="130.31"/><line class="a" x1="83.08" y1="130.31" x2="82.56" y2="130.31"/><line class="a" x1="84.13" y1="130.31" x2="83.61" y2="130.31"/><line class="a" x1="85.17" y1="130.31" x2="84.65" y2="130.31"/><line class="a" x1="86.04" y1="130.31" x2="85.7" y2="130.31"/><line class="a" x1="78.91" y1="132.57" x2="78.56" y2="132.57"/><line class="a" x1="79.95" y1="132.57" x2="79.43" y2="132.57"/><line class="a" x1="81" y1="132.57" x2="80.47" y2="132.57"/><line class="a" x1="82.04" y1="132.57" x2="81.52" y2="132.57"/><line class="a" x1="83.08" y1="132.57" x2="82.56" y2="132.57"/><line class="a" x1="84.13" y1="132.57" x2="83.61" y2="132.57"/><line class="a" x1="85.17" y1="132.57" x2="84.65" y2="132.57"/><line class="a" x1="86.04" y1="132.57" x2="85.7" y2="132.57"/><line class="a" x1="78.91" y1="134.83" x2="78.56" y2="134.83"/><line class="a" x1="79.95" y1="134.83" x2="79.43" y2="134.83"/><line class="a" x1="81" y1="134.83" x2="80.47" y2="134.83"/><line class="a" x1="82.04" y1="134.83" x2="81.52" y2="134.83"/><line class="a" x1="83.08" y1="134.83" x2="82.56" y2="134.83"/><line class="a" x1="84.13" y1="134.83" x2="83.61" y2="134.83"/><line class="a" x1="85.17" y1="134.83" x2="84.65" y2="134.83"/><line class="a" x1="86.04" y1="134.83" x2="85.7" y2="134.83"/><line class="a" x1="78.91" y1="137.09" x2="78.56" y2="137.09"/><line class="a" x1="79.95" y1="137.09" x2="79.43" y2="137.09"/><line class="a" x1="81" y1="137.09" x2="80.47" y2="137.09"/><line class="a" x1="82.04" y1="137.09" x2="81.52" y2="137.09"/><line class="a" x1="83.08" y1="137.09" x2="82.56" y2="137.09"/><line class="a" x1="84.13" y1="137.09" x2="83.61" y2="137.09"/><line class="a" x1="85.17" y1="137.09" x2="84.65" y2="137.09"/><line class="a" x1="86.04" y1="137.09" x2="85.7" y2="137.09"/><line class="a" x1="86.04" y1="139.36" x2="78.56" y2="139.36"/><line class="a" x1="86.04" y1="141.62" x2="78.56" y2="141.62"/><line class="a" x1="86.04" y1="143.88" x2="78.56" y2="143.88"/><line class="a" x1="86.04" y1="146.14" x2="78.56" y2="146.14"/><line class="a" x1="86.04" y1="148.41" x2="78.56" y2="148.41"/><line class="a" x1="86.04" y1="150.67" x2="77.95" y2="150.67"/><line class="a" x1="83.08" y1="162.94" x2="86.04" y2="162.94"/><line class="a" x1="82.74" y1="164.07" x2="82.3" y2="164.07"/><line class="a" x1="74.21" y1="164.07" x2="74.21" y2="164.94"/><line class="a" x1="82.74" y1="164.07" x2="82.74" y2="164.94"/><line class="a" x1="73.86" y1="164.94" x2="74.21" y2="164.94"/><line class="a" x1="83.08" y1="164.94" x2="82.74" y2="164.94"/><line class="a" x1="73.86" y1="164.07" x2="74.21" y2="164.07"/><line class="a" x1="83.08" y1="164.07" x2="82.74" y2="164.07"/><rect class="a" x="73.86" y="164.07" width="0.35" height="0.87"/><rect class="a" x="82.74" y="164.07" width="0.35" height="0.87"/><line class="a" x1="73.86" y1="164.07" x2="73.86" y2="164.94"/><line class="a" x1="83.08" y1="164.07" x2="83.08" y2="164.94"/><line class="a" x1="78.47" y1="129.78" x2="78.47" y2="129.44"/><line class="a" x1="78.47" y1="122.74" x2="78.47" y2="123.17"/><line class="a" x1="71.6" y1="164.5" x2="73.08" y2="164.5"/><line class="a" x1="71.6" y1="164.5" x2="73.08" y2="164.5"/><line class="a" x1="73.08" y1="164.5" x2="71.6" y2="164.5"/><line class="a" x1="71.6" y1="164.5" x2="73.08" y2="164.5"/><line class="a" x1="73.08" y1="164.76" x2="73.08" y2="164.24"/><line class="a" x1="71.6" y1="164.76" x2="71.6" y2="164.24"/><line class="a" x1="73.6" y1="164.24" x2="73.08" y2="164.24"/><line class="a" x1="71.08" y1="164.24" x2="71.6" y2="164.24"/><line class="a" x1="73.6" y1="164.76" x2="73.08" y2="164.76"/><line class="a" x1="71.08" y1="164.76" x2="71.6" y2="164.76"/><rect class="a" x="73.08" y="164.24" width="0.52" height="0.52"/><rect class="a" x="71.08" y="164.24" width="0.52" height="0.52"/><rect class="a" x="71.6" y="164.24" width="1.48" height="0.52"/><line class="a" x1="73.6" y1="164.76" x2="73.6" y2="164.24"/><line class="a" x1="71.08" y1="164.76" x2="71.08" y2="164.24"/><line class="a" x1="70.82" y1="163.72" x2="73.86" y2="163.72"/><line class="a" x1="70.82" y1="165.29" x2="73.86" y2="165.29"/><line class="a" x1="73.6" y1="165.29" x2="73.6" y2="163.72"/><line class="a" x1="71.08" y1="165.29" x2="71.08" y2="163.72"/><line class="a" x1="73.86" y1="163.72" x2="73.6" y2="163.72"/><line class="a" x1="70.82" y1="163.72" x2="71.08" y2="163.72"/><line class="a" x1="73.86" y1="165.29" x2="73.6" y2="165.29"/><line class="a" x1="70.82" y1="165.29" x2="71.08" y2="165.29"/><rect class="a" x="73.6" y="163.72" width="0.26" height="1.57"/><polyline class="a" points="70.82 165.29 71.08 165.29 71.08 163.72 70.82 163.72"/><line class="a" x1="83.78" y1="164.5" x2="85.35" y2="164.5"/><line class="a" x1="83.78" y1="164.5" x2="85.35" y2="164.5"/><line class="a" x1="85.35" y1="164.5" x2="83.78" y2="164.5"/><line class="a" x1="83.78" y1="164.5" x2="85.35" y2="164.5"/><line class="a" x1="85.35" y1="164.76" x2="85.35" y2="164.24"/><line class="a" x1="83.78" y1="164.76" x2="83.78" y2="164.24"/><line class="a" x1="85.87" y1="164.24" x2="85.35" y2="164.24"/><line class="a" x1="83.26" y1="164.24" x2="83.78" y2="164.24"/><line class="a" x1="85.87" y1="164.76" x2="85.35" y2="164.76"/><line class="a" x1="83.26" y1="164.76" x2="83.78" y2="164.76"/><rect class="a" x="85.35" y="164.24" width="0.52" height="0.52"/><rect class="a" x="83.26" y="164.24" width="0.52" height="0.52"/><rect class="a" x="83.78" y="164.24" width="1.57" height="0.52"/><line class="a" x1="85.87" y1="164.76" x2="85.87" y2="164.24"/><line class="a" x1="83.26" y1="164.76" x2="83.26" y2="164.24"/><line class="a" x1="83.08" y1="163.72" x2="86.04" y2="163.72"/><line class="a" x1="83.08" y1="165.29" x2="86.04" y2="165.29"/><line class="a" x1="85.87" y1="165.29" x2="85.87" y2="163.72"/><line class="a" x1="83.26" y1="165.29" x2="83.26" y2="163.72"/><line class="a" x1="86.04" y1="163.72" x2="85.87" y2="163.72"/><line class="a" x1="83.08" y1="163.72" x2="83.26" y2="163.72"/><line class="a" x1="86.04" y1="165.29" x2="85.87" y2="165.29"/><line class="a" x1="83.08" y1="165.29" x2="83.26" y2="165.29"/><line class="a" x1="86.04" y1="163.72" x2="85.87" y2="163.72"/><polyline class="a" points="85.87 163.72 85.87 165.29 86.04 165.29"/><rect class="a" x="83.08" y="163.72" width="0.17" height="1.57"/><line class="a" x1="37.32" y1="176.08" x2="45.06" y2="176.08"/><line class="a" x1="37.32" y1="176.08" x2="45.06" y2="176.08"/><line class="a" x1="45.06" y1="176.08" x2="37.32" y2="176.08"/><line class="a" x1="37.32" y1="176.08" x2="45.06" y2="176.08"/><line class="a" x1="45.06" y1="176.34" x2="45.06" y2="175.82"/><line class="a" x1="37.32" y1="176.34" x2="37.32" y2="175.82"/><line class="a" x1="45.58" y1="175.82" x2="45.06" y2="175.82"/><line class="a" x1="36.79" y1="175.82" x2="37.32" y2="175.82"/><line class="a" x1="45.58" y1="176.34" x2="45.06" y2="176.34"/><line class="a" x1="36.79" y1="176.34" x2="37.32" y2="176.34"/><rect class="a" x="45.06" y="175.82" width="0.52" height="0.52"/><rect class="a" x="36.79" y="175.82" width="0.52" height="0.52"/><rect class="a" x="37.32" y="175.82" width="7.74" height="0.52"/><line class="a" x1="45.58" y1="176.34" x2="45.58" y2="175.82"/><line class="a" x1="36.79" y1="176.34" x2="36.79" y2="175.82"/><line class="a" x1="36.62" y1="175.29" x2="45.84" y2="175.29"/><line class="a" x1="36.62" y1="176.86" x2="45.84" y2="176.86"/><line class="a" x1="45.58" y1="176.86" x2="45.58" y2="175.29"/><line class="a" x1="36.79" y1="176.86" x2="36.79" y2="175.29"/><line class="a" x1="45.84" y1="175.29" x2="45.58" y2="175.29"/><line class="a" x1="36.62" y1="175.29" x2="36.79" y2="175.29"/><line class="a" x1="45.84" y1="176.86" x2="45.58" y2="176.86"/><line class="a" x1="36.62" y1="176.86" x2="36.79" y2="176.86"/><line class="a" x1="45.84" y1="175.29" x2="45.58" y2="175.29"/><polyline class="a" points="45.58 175.29 45.58 176.86 45.84 176.86"/><polyline class="a" points="36.62 176.86 36.79 176.86 36.79 175.29 36.62 175.29"/><line class="a" x1="48.98" y1="176.08" x2="57.85" y2="176.08"/><line class="a" x1="48.98" y1="176.08" x2="57.85" y2="176.08"/><line class="a" x1="57.85" y1="176.08" x2="48.98" y2="176.08"/><line class="a" x1="48.98" y1="176.08" x2="57.85" y2="176.08"/><line class="a" x1="57.85" y1="176.34" x2="57.85" y2="175.82"/><line class="a" x1="48.98" y1="176.34" x2="48.98" y2="175.82"/><line class="a" x1="58.37" y1="175.82" x2="57.85" y2="175.82"/><line class="a" x1="48.45" y1="175.82" x2="48.98" y2="175.82"/><line class="a" x1="58.37" y1="176.34" x2="57.85" y2="176.34"/><line class="a" x1="48.45" y1="176.34" x2="48.98" y2="176.34"/><rect class="a" x="57.85" y="175.82" width="0.52" height="0.52"/><rect class="a" x="48.45" y="175.82" width="0.52" height="0.52"/><rect class="a" x="48.98" y="175.82" width="8.88" height="0.52"/><line class="a" x1="58.37" y1="176.34" x2="58.37" y2="175.82"/><line class="a" x1="48.45" y1="176.34" x2="48.45" y2="175.82"/><line class="a" x1="48.28" y1="175.29" x2="58.63" y2="175.29"/><line class="a" x1="48.28" y1="176.86" x2="58.63" y2="176.86"/><line class="a" x1="58.37" y1="176.86" x2="58.37" y2="175.29"/><line class="a" x1="48.45" y1="176.86" x2="48.45" y2="175.29"/><line class="a" x1="58.63" y1="175.29" x2="58.37" y2="175.29"/><line class="a" x1="48.28" y1="175.29" x2="48.45" y2="175.29"/><line class="a" x1="58.63" y1="176.86" x2="58.37" y2="176.86"/><line class="a" x1="48.28" y1="176.86" x2="48.45" y2="176.86"/><line class="a" x1="58.63" y1="175.29" x2="58.37" y2="175.29"/><polyline class="a" points="58.37 175.29 58.37 176.86 58.63 176.86"/><polyline class="a" points="48.28 176.86 48.45 176.86 48.45 175.29 48.28 175.29"/><line class="a" x1="60.2" y1="175.12" x2="66.73" y2="168.51"/><line class="a" x1="60.2" y1="175.12" x2="66.73" y2="168.51"/><polyline class="a" points="60.2 175.12 66.73 168.51 60.2 175.12"/><line class="a" x1="66.9" y1="168.68" x2="66.55" y2="168.33"/><line class="a" x1="60.37" y1="175.29" x2="60.03" y2="174.95"/><line class="a" x1="66.9" y1="167.98" x2="66.55" y2="168.33"/><line class="a" x1="59.68" y1="175.29" x2="60.03" y2="174.95"/><line class="a" x1="67.34" y1="168.33" x2="66.9" y2="168.68"/><line class="a" x1="60.03" y1="175.64" x2="60.37" y2="175.29"/><polygon class="a" points="66.9 168.68 67.33 168.33 66.9 167.98 66.55 168.33 66.9 168.68"/><rect class="a" x="59.78" y="175.05" width="0.49" height="0.49" transform="translate(-106.37 93.79) rotate(-45)"/><polygon class="a" points="60.37 175.29 66.9 168.68 66.55 168.33 60.03 174.94 60.37 175.29"/><line class="a" x1="67.34" y1="168.33" x2="66.9" y2="167.98"/><line class="a" x1="60.03" y1="175.64" x2="59.68" y2="175.29"/><line class="a" x1="59.16" y1="175.03" x2="66.73" y2="167.46"/><line class="a" x1="60.2" y1="176.16" x2="67.77" y2="168.59"/><line class="a" x1="67.68" y1="168.68" x2="66.55" y2="167.64"/><line class="a" x1="60.37" y1="175.99" x2="59.33" y2="174.95"/><line class="a" x1="66.73" y1="167.46" x2="66.55" y2="167.64"/><line class="a" x1="59.16" y1="175.03" x2="59.33" y2="174.95"/><line class="a" x1="67.77" y1="168.59" x2="67.68" y2="168.68"/><line class="a" x1="60.2" y1="176.16" x2="60.37" y2="175.99"/><polygon class="a" points="67.68 168.68 67.77 168.59 66.73 167.46 66.55 167.64 67.68 168.68"/><polyline class="a" points="60.24 176.12 60.37 175.99 59.33 174.94 59.16 175.03"/><line class="a" x1="37.05" y1="58.26" x2="37.14" y2="58.35"/><line class="a" x1="77.52" y1="59.83" x2="82.3" y2="59.83"/><line class="a" x1="77.52" y1="59.83" x2="82.3" y2="59.83"/><line class="a" x1="82.3" y1="59.83" x2="77.52" y2="59.83"/><line class="a" x1="77.52" y1="59.83" x2="82.3" y2="59.83"/><line class="a" x1="82.3" y1="60.09" x2="82.3" y2="59.56"/><line class="a" x1="77.52" y1="60.09" x2="77.52" y2="59.56"/><line class="a" x1="82.82" y1="59.56" x2="82.3" y2="59.56"/><line class="a" x1="76.99" y1="59.56" x2="77.52" y2="59.56"/><line class="a" x1="82.82" y1="60.09" x2="82.3" y2="60.09"/><line class="a" x1="76.99" y1="60.09" x2="77.52" y2="60.09"/><rect class="a" x="82.3" y="59.56" width="0.52" height="0.52"/><rect class="a" x="76.99" y="59.56" width="0.52" height="0.52"/><rect class="a" x="77.52" y="59.56" width="4.79" height="0.52"/><line class="a" x1="82.82" y1="60.09" x2="82.82" y2="59.56"/><line class="a" x1="76.99" y1="60.09" x2="76.99" y2="59.56"/><line class="a" x1="76.82" y1="59.04" x2="83" y2="59.04"/><line class="a" x1="76.82" y1="60.61" x2="83" y2="60.61"/><line class="a" x1="82.82" y1="60.61" x2="82.82" y2="59.04"/><line class="a" x1="76.99" y1="60.61" x2="76.99" y2="59.04"/><line class="a" x1="83" y1="59.04" x2="82.82" y2="59.04"/><line class="a" x1="76.82" y1="59.04" x2="76.99" y2="59.04"/><line class="a" x1="83" y1="60.61" x2="82.82" y2="60.61"/><line class="a" x1="76.82" y1="60.61" x2="76.99" y2="60.61"/><line class="a" x1="83" y1="59.04" x2="82.82" y2="59.04"/><polyline class="a" points="82.82 59.04 82.82 60.61 83 60.61"/><polyline class="a" points="76.82 60.61 76.99 60.61 76.99 59.04 76.82 59.04"/><line class="a" x1="76.82" y1="58.43" x2="76.91" y2="58.52"/><line class="a" x1="76.65" y1="58.26" x2="76.73" y2="58.35"/><line class="a" x1="75.17" y1="61.3" x2="75.34" y2="61.48"/><polyline class="a" points="37.05 60.61 37.4 60.61 37.4 59.04 37.05 59.04"/><line class="a" x1="74.3" y1="59.04" x2="73.86" y2="59.04"/><polyline class="a" points="73.86 59.04 73.86 60.61 74.3 60.61"/><path class="a" d="M53.85,57a.13.13,0,1,1-.13-.13A.13.13,0,0,1,53.85,57Z"/><path class="a" d="M42.88,57a.13.13,0,0,1-.13.13.13.13,0,0,1,0-.26A.13.13,0,0,1,42.88,57Z"/><path class="a" d="M48.37,59.65c0,.05-.06.09-.13.09s-.14,0-.14-.09.06-.09.14-.09S48.37,59.6,48.37,59.65Z"/><path class="a" d="M59.33,59.65c0,.05-.06.09-.13.09s-.13,0-.13-.09.06-.09.13-.09S59.33,59.6,59.33,59.65Z"/><polygon class="a" points="59.42 60 64.72 56.95 64.46 56.61 59.24 59.65 59.42 60"/><polygon class="a" points="59.24 59.65 53.94 56.61 53.76 56.95 58.98 60 59.24 59.65"/><polygon class="a" points="48.45 60 53.76 56.95 53.5 56.61 48.19 59.65 48.45 60"/><polygon class="a" points="48.19 59.65 42.97 56.61 42.71 56.95 48.02 60 48.19 59.65"/><polygon class="a" points="37.23 59.65 37.49 60 42.71 56.95 42.54 56.61 37.23 59.65"/><line class="a" x1="37.05" y1="58.35" x2="74.3" y2="58.35"/><line class="a" x1="76.73" y1="58.35" x2="83" y2="58.35"/><line class="a" x1="74.3" y1="60.61" x2="74.3" y2="59.04"/><line class="a" x1="76.82" y1="59.04" x2="76.82" y2="60.61"/><line class="a" x1="76.82" y1="58.35" x2="76.82" y2="58.43"/><line class="a" x1="83" y1="59.04" x2="83" y2="60.61"/><line class="a" x1="37.05" y1="60.61" x2="37.05" y2="59.04"/><line class="a" x1="83" y1="61.39" x2="76.82" y2="61.39"/><line class="a" x1="59.68" y1="175.55" x2="67.25" y2="167.98"/><line class="a" x1="68.38" y1="169.12" x2="68.34" y2="169.07"/><line class="a" x1="60.24" y1="176.12" x2="59.16" y2="175.03"/><line class="a" x1="60.81" y1="176.69" x2="60.77" y2="176.64"/><line class="a" x1="58.63" y1="175.29" x2="58.63" y2="176.86"/><line class="a" x1="45.84" y1="175.29" x2="45.84" y2="176.86"/><line class="a" x1="48.28" y1="175.29" x2="48.28" y2="176.86"/><line class="a" x1="36.62" y1="175.29" x2="36.62" y2="176.86"/><line class="a" x1="73.86" y1="166.07" x2="70.82" y2="166.07"/><line class="a" x1="83.08" y1="166.07" x2="73.86" y2="166.07"/><line class="a" x1="86.04" y1="166.07" x2="83.08" y2="166.07"/><line class="a" x1="73.86" y1="162.94" x2="70.82" y2="162.94"/><line class="a" x1="70.82" y1="165.29" x2="70.82" y2="163.72"/><line class="a" x1="73.86" y1="166.07" x2="73.86" y2="162.94"/><line class="a" x1="83.08" y1="166.07" x2="83.08" y2="162.94"/><line class="a" x1="86.04" y1="163.72" x2="86.04" y2="165.29"/><line class="a" x1="77.95" y1="150.67" x2="77.95" y2="148.41"/><line class="a" x1="78.56" y1="122.04" x2="78.56" y2="121.78"/><line class="a" x1="78.56" y1="123.08" x2="78.56" y2="122.56"/><line class="a" x1="78.56" y1="124.13" x2="78.56" y2="123.61"/><line class="a" x1="78.56" y1="125.17" x2="78.56" y2="124.65"/><line class="a" x1="78.56" y1="126.22" x2="78.56" y2="125.7"/><line class="a" x1="78.56" y1="127.26" x2="78.56" y2="126.74"/><line class="a" x1="78.56" y1="128.04" x2="78.56" y2="127.78"/><line class="a" x1="80.82" y1="122.3" x2="81" y2="121.78"/><line class="a" x1="80.39" y1="123.26" x2="80.65" y2="122.74"/><line class="a" x1="80.04" y1="124.22" x2="80.21" y2="123.78"/><line class="a" x1="79.69" y1="125.17" x2="79.87" y2="124.74"/><line class="a" x1="79.26" y1="126.22" x2="79.52" y2="125.7"/><line class="a" x1="78.91" y1="127.17" x2="79.08" y2="126.65"/><line class="a" x1="78.56" y1="128.04" x2="78.73" y2="127.61"/><line class="a" x1="84.48" y1="122.21" x2="84.91" y2="121.78"/><line class="a" x1="83.78" y1="122.91" x2="84.13" y2="122.56"/><line class="a" x1="83" y1="123.61" x2="83.43" y2="123.26"/><line class="a" x1="82.3" y1="124.39" x2="82.65" y2="124.04"/><rect class="b" x="81.57" y="69.5" width="3.3" height="4.69"/><path class="b" d="M78.19,62.64v2.92A1.86,1.86,0,0,0,80,67.41a1.92,1.92,0,0,0,1.89-1.82h0V61.51H78.19Z"/><polygon class="b" points="80.27 121.82 86.35 121.82 86.35 98.01 83.83 98.01 83.83 95.05 84.88 95.05 84.88 77.93 78.71 77.93 78.71 95.05 80.27 95.05 80.27 121.82"/><rect class="b" x="59.42" y="88.8" width="9.21" height="22.68"/><line class="c" x1="59.42" y1="70.88" x2="59.07" y2="70.62"/><line class="c" x1="60.2" y1="71.49" x2="59.76" y2="71.22"/><line class="c" x1="61.07" y1="72.18" x2="60.64" y2="71.83"/><line class="c" x1="61.85" y1="72.79" x2="61.42" y2="72.44"/><line class="c" x1="62.64" y1="73.4" x2="62.29" y2="73.14"/><line class="c" x1="63.51" y1="74.1" x2="63.07" y2="73.75"/><line class="c" x1="64.29" y1="74.7" x2="63.94" y2="74.44"/><line class="c" x1="65.16" y1="75.4" x2="64.72" y2="75.05"/><line class="c" x1="65.94" y1="76.01" x2="65.59" y2="75.66"/><line class="c" x1="66.81" y1="76.62" x2="66.38" y2="76.36"/><line class="c" x1="67.6" y1="77.32" x2="67.16" y2="76.97"/><line class="c" x1="68.29" y1="77.84" x2="68.03" y2="77.66"/><line class="c" x1="67.94" y1="70.88" x2="68.29" y2="70.62"/><line class="c" x1="67.16" y1="71.49" x2="67.6" y2="71.22"/><line class="c" x1="66.29" y1="72.18" x2="66.73" y2="71.83"/><line class="c" x1="65.51" y1="72.79" x2="65.94" y2="72.44"/><line class="c" x1="64.72" y1="73.4" x2="65.07" y2="73.14"/><line class="c" x1="63.85" y1="74.1" x2="64.29" y2="73.75"/><line class="c" x1="63.07" y1="74.7" x2="63.42" y2="74.44"/><line class="c" x1="62.2" y1="75.4" x2="62.64" y2="75.05"/><line class="c" x1="61.42" y1="76.01" x2="61.77" y2="75.66"/><line class="c" x1="60.55" y1="76.62" x2="60.98" y2="76.36"/><line class="c" x1="59.76" y1="77.32" x2="60.2" y2="76.97"/><line class="c" x1="59.07" y1="77.84" x2="59.33" y2="77.66"/><line class="c" x1="59.07" y1="77.66" x2="59.07" y2="77.84"/><line class="c" x1="59.07" y1="76.62" x2="59.07" y2="77.14"/><line class="c" x1="59.07" y1="75.58" x2="59.07" y2="76.1"/><line class="c" x1="59.07" y1="74.53" x2="59.07" y2="75.05"/><line class="c" x1="59.07" y1="73.49" x2="59.07" y2="74.01"/><line class="c" x1="59.07" y1="72.44" x2="59.07" y2="72.96"/><line class="c" x1="59.07" y1="71.4" x2="59.07" y2="71.92"/><line class="c" x1="59.07" y1="70.62" x2="59.07" y2="70.88"/><line class="c" x1="59.24" y1="70.62" x2="59.07" y2="70.62"/><line class="c" x1="60.29" y1="70.62" x2="59.76" y2="70.62"/><line class="c" x1="61.33" y1="70.62" x2="60.81" y2="70.62"/><line class="c" x1="62.38" y1="70.62" x2="61.85" y2="70.62"/><line class="c" x1="63.42" y1="70.62" x2="62.9" y2="70.62"/><line class="c" x1="64.46" y1="70.62" x2="63.94" y2="70.62"/><line class="c" x1="65.51" y1="70.62" x2="64.99" y2="70.62"/><line class="c" x1="66.55" y1="70.62" x2="66.03" y2="70.62"/><line class="c" x1="67.6" y1="70.62" x2="67.07" y2="70.62"/><line class="c" x1="68.29" y1="70.62" x2="68.12" y2="70.62"/><line class="c" x1="68.29" y1="70.79" x2="68.29" y2="70.62"/><line class="c" x1="68.29" y1="71.83" x2="68.29" y2="71.31"/><line class="c" x1="68.29" y1="72.88" x2="68.29" y2="72.36"/><line class="c" x1="68.29" y1="73.92" x2="68.29" y2="73.4"/><line class="c" x1="68.29" y1="74.97" x2="68.29" y2="74.44"/><line class="c" x1="68.29" y1="76.01" x2="68.29" y2="75.49"/><line class="c" x1="68.29" y1="77.05" x2="68.29" y2="76.53"/><line class="c" x1="68.29" y1="77.84" x2="68.29" y2="77.58"/><line class="c" x1="68.12" y1="77.84" x2="68.29" y2="77.84"/><line class="c" x1="67.07" y1="77.84" x2="67.6" y2="77.84"/><line class="c" x1="66.03" y1="77.84" x2="66.55" y2="77.84"/><line class="c" x1="64.99" y1="77.84" x2="65.51" y2="77.84"/><line class="c" x1="63.94" y1="77.84" x2="64.46" y2="77.84"/><line class="c" x1="62.9" y1="77.84" x2="63.42" y2="77.84"/><line class="c" x1="61.85" y1="77.84" x2="62.38" y2="77.84"/><line class="c" x1="60.81" y1="77.84" x2="61.33" y2="77.84"/><line class="c" x1="59.76" y1="77.84" x2="60.29" y2="77.84"/><line class="c" x1="59.07" y1="77.84" x2="59.24" y2="77.84"/><line class="c" x1="43.32" y1="70.88" x2="43.06" y2="70.62"/><line class="c" x1="44.19" y1="71.49" x2="43.75" y2="71.14"/><line class="c" x1="44.97" y1="72.09" x2="44.62" y2="71.83"/><line class="c" x1="45.84" y1="72.79" x2="45.41" y2="72.44"/><line class="c" x1="46.63" y1="73.4" x2="46.28" y2="73.05"/><line class="c" x1="47.5" y1="74.01" x2="47.06" y2="73.75"/><line class="c" x1="48.28" y1="74.7" x2="47.93" y2="74.36"/><line class="c" x1="49.15" y1="75.31" x2="48.71" y2="75.05"/><line class="c" x1="49.93" y1="76.01" x2="49.58" y2="75.66"/><line class="c" x1="50.8" y1="76.62" x2="50.37" y2="76.27"/><line class="c" x1="51.59" y1="77.23" x2="51.24" y2="76.97"/><line class="c" x1="52.37" y1="77.84" x2="52.02" y2="77.58"/><line class="c" x1="52.11" y1="70.88" x2="52.37" y2="70.62"/><line class="c" x1="51.24" y1="71.49" x2="51.67" y2="71.14"/><line class="c" x1="50.45" y1="72.09" x2="50.8" y2="71.83"/><line class="c" x1="49.58" y1="72.79" x2="50.02" y2="72.44"/><line class="c" x1="48.8" y1="73.4" x2="49.15" y2="73.05"/><line class="c" x1="47.93" y1="74.01" x2="48.37" y2="73.75"/><line class="c" x1="47.15" y1="74.7" x2="47.5" y2="74.36"/><line class="c" x1="46.28" y1="75.31" x2="46.71" y2="75.05"/><line class="c" x1="45.49" y1="76.01" x2="45.84" y2="75.66"/><line class="c" x1="44.62" y1="76.62" x2="45.06" y2="76.27"/><line class="c" x1="43.84" y1="77.23" x2="44.19" y2="76.97"/><line class="c" x1="43.06" y1="77.84" x2="43.41" y2="77.58"/><line class="c" x1="43.06" y1="77.66" x2="43.06" y2="77.84"/><line class="c" x1="43.06" y1="76.62" x2="43.06" y2="77.14"/><line class="c" x1="43.06" y1="75.58" x2="43.06" y2="76.1"/><line class="c" x1="43.06" y1="74.53" x2="43.06" y2="75.05"/><line class="c" x1="43.06" y1="73.49" x2="43.06" y2="74.01"/><line class="c" x1="43.06" y1="72.44" x2="43.06" y2="72.96"/><line class="c" x1="43.06" y1="71.4" x2="43.06" y2="71.92"/><line class="c" x1="43.06" y1="70.62" x2="43.06" y2="70.88"/><line class="c" x1="43.23" y1="70.62" x2="43.06" y2="70.62"/><line class="c" x1="44.28" y1="70.62" x2="43.75" y2="70.62"/><line class="c" x1="45.32" y1="70.62" x2="44.8" y2="70.62"/><line class="c" x1="46.36" y1="70.62" x2="45.84" y2="70.62"/><line class="c" x1="47.41" y1="70.62" x2="46.89" y2="70.62"/><line class="c" x1="48.45" y1="70.62" x2="47.93" y2="70.62"/><line class="c" x1="49.5" y1="70.62" x2="48.98" y2="70.62"/><line class="c" x1="50.54" y1="70.62" x2="50.02" y2="70.62"/><line class="c" x1="51.59" y1="70.62" x2="51.06" y2="70.62"/><line class="c" x1="52.37" y1="70.62" x2="52.11" y2="70.62"/><line class="c" x1="52.37" y1="70.79" x2="52.37" y2="70.62"/><line class="c" x1="52.37" y1="71.83" x2="52.37" y2="71.31"/><line class="c" x1="52.37" y1="72.88" x2="52.37" y2="72.36"/><line class="c" x1="52.37" y1="73.92" x2="52.37" y2="73.4"/><line class="c" x1="52.37" y1="74.97" x2="52.37" y2="74.44"/><line class="c" x1="52.37" y1="76.01" x2="52.37" y2="75.49"/><line class="c" x1="52.37" y1="77.05" x2="52.37" y2="76.53"/><line class="c" x1="52.37" y1="77.84" x2="52.37" y2="77.58"/><line class="c" x1="52.19" y1="77.84" x2="52.37" y2="77.84"/><line class="c" x1="51.15" y1="77.84" x2="51.67" y2="77.84"/><line class="c" x1="50.11" y1="77.84" x2="50.63" y2="77.84"/><line class="c" x1="49.06" y1="77.84" x2="49.58" y2="77.84"/><line class="c" x1="48.02" y1="77.84" x2="48.54" y2="77.84"/><line class="c" x1="46.97" y1="77.84" x2="47.5" y2="77.84"/><line class="c" x1="45.93" y1="77.84" x2="46.45" y2="77.84"/><line class="c" x1="44.89" y1="77.84" x2="45.41" y2="77.84"/><line class="c" x1="43.84" y1="77.84" x2="44.36" y2="77.84"/><line class="c" x1="43.06" y1="77.84" x2="43.32" y2="77.84"/><line class="d" x1="78.39" y1="94.98" x2="83.52" y2="94.98"/><polygon class="d" points="69.95 135.53 69.95 121.78 59.07 121.78 59.07 122.74 68.73 122.74 68.73 129.96 67.6 129.96 67.6 134.57 68.73 134.57 68.73 135.53 68.9 135.53 69.77 135.53 69.95 135.53"/><polygon class="d" points="74.3 58.35 74.3 59.04 74.3 60.61 74.3 61.39 74.3 69.57 75.25 69.57 75.25 61.39 76.82 61.39 76.82 60.61 76.82 59.04 76.82 58.43 76.73 58.35 74.3 58.35"/><polygon class="d" points="36.62 174.51 35.49 174.51 35.49 162.94 35.49 121.78 35.49 97.94 37.05 97.94 37.05 94.98 37.05 61.39 37.05 60.61 37.05 59.04 37.05 58.35 33.92 58.35 33.92 58.61 33.92 59.13 33.92 59.65 33.92 60.17 33.92 60.7 33.92 61.22 33.92 61.74 33.92 62.09 32.79 62.09 32.36 62.09 32.36 98.11 32.36 174.51 32.36 177.56 33.92 177.56 36.62 177.56 36.62 176.86 36.62 175.29 36.62 174.51"/><polygon class="d" points="48.28 174.51 45.84 174.51 45.84 175.29 45.84 176.86 45.84 177.56 48.28 177.56 48.28 176.86 48.28 175.29 48.28 174.51"/><polygon class="d" points="70.82 162.94 69.95 162.94 69.95 144.14 69.77 144.14 68.9 144.14 68.73 144.14 68.73 162.94 66.2 162.94 66.2 166.94 68.34 169.07 69.25 168.16 69.25 166.07 70.82 166.07 70.82 165.29 70.82 163.72 70.82 162.94"/><polygon class="d" points="86.04 150.67 86.04 162.94 86.04 163.72 86.04 165.29 86.04 166.07 87.61 166.07 89.18 166.07 89.18 162.94 89.18 61.39 89.18 58.35 87.61 58.35 83 58.35 83 59.04 83 60.61 83 61.39 84.56 61.39 84.56 69.4 84.56 74.1 84.56 76.79 74.3 76.79 74.3 77.84 84.56 77.84 84.56 94.98 83.52 94.98 83.52 97.94 86.04 97.94 86.04 121.78 77.95 121.78 77.95 122.74 78.47 122.74 86.04 122.74 86.04 150.67"/><polygon class="d" points="60.24 176.12 60.2 176.16 59.16 175.03 58.63 174.51 58.63 175.29 58.63 176.86 58.63 177.56 59.85 177.56 60.77 176.64 60.24 176.12"/><polygon class="d" points="78.56 148.41 78.56 129.78 78.47 129.78 77.95 129.78 77.95 148.41 78.56 148.41"/><line class="d" x1="89.18" y1="162.94" x2="89.18" y2="61.39"/></svg>