<svg xmlns="http://www.w3.org/2000/svg" viewBox="0 0 318.24 583.97"><defs><style>.a{fill:silver;}.b{fill:none;stroke:#1d1d1b;stroke-linecap:round;stroke-linejoin:round;stroke-width:0.2px;}.c{fill:#1d1d1b;}</style></defs><polygon class="a" points="195.25 142.46 137.62 142.46 137.62 159.47 178.3 159.47 178.13 232.78 195.25 232.78 195.25 142.46"/><polyline class="b" points="123.51 499.91 123.42 499.85 133.05 487.08"/><line class="b" x1="140.54" y1="136.24" x2="174.88" y2="136.24"/><line class="b" x1="174.66" y1="142.19" x2="140.81" y2="142.19"/><polyline class="b" points="174.66 142.19 174.66 142.35 140.81 142.35"/><line class="b" x1="140.81" y1="136.63" x2="174.66" y2="136.63"/><line class="b" x1="140.81" y1="142.35" x2="140.81" y2="142.19"/><line class="b" x1="140.81" y1="139.43" x2="174.66" y2="139.43"/><line class="b" x1="140.76" y1="138.66" x2="174.55" y2="138.66"/><line class="b" x1="174.66" y1="136.63" x2="140.81" y2="136.63"/><polyline class="b" points="140.54 136.24 140.54 135.85 174.88 135.85 174.88 136.24"/><polygon class="b" points="195.25 142.46 137.62 142.46 137.62 159.47 178.3 159.47 178.13 232.78 195.25 232.78 195.25 142.46"/><polygon class="b" points="168.72 143.78 148.19 143.78 147.86 143.78 147.69 143.84 147.58 143.89 147.53 143.89 147.47 143.95 147.36 144 147.36 144.06 147.31 144.06 147.25 144.11 147.2 144.17 147.14 144.22 147.09 144.28 147.03 144.33 147.03 144.39 146.98 144.39 146.98 144.44 146.92 144.5 146.87 144.5 146.87 144.55 146.81 144.61 146.81 144.66 146.76 144.72 146.76 144.77 146.76 144.83 146.7 144.88 146.7 144.94 146.7 144.99 146.7 145.05 146.7 145.1 146.7 145.16 146.7 145.21 146.7 145.27 146.65 145.32 146.65 156.61 146.7 156.61 146.7 156.66 146.7 156.72 146.7 156.83 146.7 156.88 146.7 156.94 146.76 156.99 146.76 157.05 146.76 157.1 146.81 157.16 146.81 157.21 146.87 157.27 146.87 157.32 146.92 157.32 146.92 157.38 146.98 157.43 146.98 157.49 147.03 157.49 147.03 157.54 147.09 157.6 147.14 157.65 147.2 157.71 147.25 157.71 147.31 157.82 147.36 157.82 147.47 157.87 147.53 157.93 147.58 157.93 147.69 157.98 147.86 158.04 148.19 158.09 168.72 158.09 168.99 158.09 169.16 158.04 169.27 157.98 169.32 157.98 169.43 157.93 169.49 157.87 169.54 157.82 169.6 157.82 169.66 157.82 169.71 157.71 169.82 157.65 169.82 157.6 169.82 157.54 169.88 157.54 169.88 157.49 169.93 157.43 169.93 157.38 169.99 157.38 169.99 157.32 170.04 157.27 170.04 157.21 170.09 157.16 170.09 157.1 170.09 157.05 170.15 156.99 170.15 156.94 170.15 156.88 170.15 156.83 170.15 156.72 170.15 156.66 170.21 156.61 170.21 145.32 170.15 145.32 170.15 145.27 170.15 145.21 170.15 145.16 170.15 145.1 170.15 145.05 170.15 144.99 170.15 144.94 170.09 144.88 170.09 144.83 170.09 144.77 170.04 144.72 170.04 144.66 169.99 144.61 169.99 144.55 169.93 144.55 169.93 144.5 169.88 144.5 169.88 144.44 169.82 144.44 169.82 144.39 169.82 144.33 169.71 144.28 169.71 144.22 169.66 144.17 169.6 144.11 169.54 144.11 169.49 144.06 169.43 144 169.32 143.95 169.27 143.95 169.16 143.89 168.99 143.84 168.72 143.78"/><rect class="b" x="85.5" y="506.4" width="34.35" height="0.77"/><line class="b" x1="119.62" y1="504.36" x2="85.83" y2="504.36"/><line class="b" x1="119.57" y1="503.59" x2="85.72" y2="503.59"/><polyline class="b" points="85.72 500.78 85.72 500.73 119.57 500.73 119.57 500.78"/><line class="b" x1="85.72" y1="500.78" x2="119.57" y2="500.78"/><line class="b" x1="119.57" y1="506.07" x2="85.72" y2="506.07"/><line class="b" x1="76.22" y1="502.46" x2="65.88" y2="490.28"/><line class="b" x1="69.92" y1="486.9" x2="80.26" y2="499.08"/><line class="b" x1="85.72" y1="506.4" x2="85.72" y2="506.07"/><polyline class="b" points="76.22 502.46 75.86 502.76 75.75 502.63"/><polyline class="b" points="69.92 486.9 69.97 486.86 80.27 499.07 80.26 499.08"/><line class="b" x1="78.07" y1="500.95" x2="67.77" y2="488.73"/><line class="b" x1="77.46" y1="501.44" x2="67.22" y2="489.28"/><polygon class="b" points="75.37 503.37 64.97 490.93 65.57 490.43 75.97 502.87 75.37 503.37"/><line class="b" x1="199.43" y1="398.84" x2="180" y2="398.84"/><line class="b" x1="199.43" y1="405.01" x2="180" y2="405.01"/><line class="b" x1="199.32" y1="411.23" x2="179.89" y2="411.23"/><line class="b" x1="199.43" y1="417.45" x2="180" y2="417.45"/><line class="b" x1="199.43" y1="423.56" x2="180" y2="423.56"/><line class="b" x1="199.87" y1="429.28" x2="180.11" y2="429.28"/><rect class="b" x="178.79" y="394.72" width="1.1" height="34.84"/><polygon class="b" points="138.28 490.87 128.54 503.81 127.93 503.31 137.68 490.38 138.28 490.87"/><line class="b" x1="135.97" y1="489.28" x2="126.39" y2="501.99"/><line class="b" x1="135.31" y1="488.78" x2="125.73" y2="501.55"/><polyline class="b" points="137.17 490.19 137.56 490.49 127.99 503.26 127.72 503.06"/><line class="b" x1="119.57" y1="506.07" x2="119.57" y2="506.4"/><line class="b" x1="123.51" y1="499.91" x2="128.67" y2="492.89"/><line class="b" x1="137.17" y1="490.19" x2="127.72" y2="503.06"/><rect class="b" x="178.68" y="194.64" width="16.68" height="27.52"/><polygon class="c" points="119.57 506.06 125.51 506.06 127.72 503.06 123.51 499.91 122.87 500.78 119.57 500.78 119.57 506.06"/><polygon class="c" points="76.22 502.46 79.28 506.06 85.72 506.06 85.72 500.78 81.7 500.78 80.26 499.08 76.22 502.46"/><rect class="c" x="153.75" y="389.87" width="3.74" height="69.24"/><polygon class="c" points="171.47 513.11 160.3 513.11 160.3 489.06 171.47 489.06 171.47 483.77 157.49 483.77 157.49 477.94 153.75 477.94 153.75 483.77 135.36 483.77 133.05 487.08 137.17 490.19 138.01 489.06 156.44 489.06 156.44 516.96 171.47 516.96 171.47 513.11"/><polygon class="c" points="199.6 370.61 199.6 483.77 187.87 483.77 187.87 489.06 198.11 489.06 198.11 513.11 187.87 513.11 187.87 516.96 201.96 516.96 201.96 489.06 204.99 489.06 204.99 292.83 201.36 292.83 201.36 136.24 174.88 136.24 174.88 136.63 174.66 136.63 174.66 142.19 195.41 142.19 195.41 292.83 132.23 292.83 132.23 298.12 153.75 298.12 153.75 371.71 157.49 371.71 157.49 298.12 199.6 298.12 199.6 367.86 176.87 367.86 176.87 370.61 199.6 370.61"/><polygon class="c" points="51.09 292.83 51.09 136.24 74.54 136.24 74.54 142.19 57.04 142.19 57.04 292.83 76.52 292.83 76.52 298.12 53.63 298.12 53.63 326.19 59.21 326.19 59.21 365.16 53.63 365.16 53.63 390.86 62.13 390.86 62.13 394.72 53.63 394.72 53.63 423.12 59.43 423.12 59.43 462.09 53.63 462.09 53.63 484.78 68.1 484.76 69.92 486.9 65.88 490.28 65.68 490.05 48.12 490.07 48.12 484.79 48.12 295.42 48.12 292.83 51.09 292.83"/><polygon class="c" points="113.84 142.19 140.81 142.19 140.81 136.63 140.54 136.63 140.54 136.24 113.84 136.24 113.84 142.19"/></svg>