<svg xmlns="http://www.w3.org/2000/svg" viewBox="0 0 318.24 583.97"><defs><style>.a{fill:silver;}.b,.c,.d{fill:none;stroke-linecap:round;stroke-linejoin:round;}.b{stroke:silver;stroke-width:1.01px;}.c{stroke:#1d1d1b;stroke-width:0.2px;}.d{stroke:#009fe3;stroke-width:0.25px;}.e{fill:#1d1d1b;}</style></defs><polygon class="a" points="122.67 197.58 122.67 214.6 175.78 214.6 175.78 275.19 175.9 275.19 193.16 275.19 193.16 197.58 172.28 197.58 134.59 197.58 122.67 197.58"/><line class="b" x1="175.78" y1="275.19" x2="175.9" y2="275.19"/><rect class="a" x="181.38" y="313.06" width="13.29" height="9.13"/><path class="a" d="M192.88,363.43l.34,0,.31.11.29.18.23.24.18.28.11.31,0,.32,0,.48,0,.47-.07.46-.1.47-.13.45-.15.45-.18.44-.21.43H182.64l-.21-.43-.18-.44-.15-.45-.13-.45-.1-.47-.07-.46,0-.47,0-.48,0-.32.11-.31.18-.28.23-.24.29-.18.31-.11.34,0,.24,0-.45-4.83-.05-1.46.16-1.46.36-1.41.55-1.33.75-1,1-.81,1.11-.51,1.19-.18,1.19.18,1.11.51,1,.81.75,1,.55,1.33.36,1.41.16,1.46,0,1.46-.45,4.83Zm-7.08.35,1.13.09,1.13,0,1.13,0,1.12-.09.91-.12h-6.33Z"/><line class="c" x1="181.38" y1="313.06" x2="194.67" y2="313.06"/><rect class="c" x="182.12" y="313.54" width="11.81" height="8.17"/><line class="c" x1="181.38" y1="313.06" x2="181.38" y2="322.19"/><polyline class="c" points="181.38 322.19 194.67 322.19 194.67 313.06"/><line class="c" x1="188.28" y1="315.7" x2="194.67" y2="315.7"/><line class="c" x1="181.38" y1="315.7" x2="187.78" y2="315.7"/><polygon class="c" points="193.48 368.56 193.69 368.13 193.87 367.69 194.02 367.24 194.15 366.79 194.25 366.32 194.32 365.86 194.36 365.38 194.38 364.91 194.34 364.59 194.23 364.27 194.05 364 193.81 363.76 193.53 363.58 193.22 363.47 192.88 363.43 192.55 363.45 191.43 363.65 190.31 363.78 189.19 363.87 188.06 363.89 186.93 363.87 185.8 363.78 184.69 363.65 183.57 363.45 183.24 363.43 182.9 363.47 182.59 363.58 182.3 363.76 182.07 364 181.89 364.27 181.78 364.59 181.74 364.91 181.76 365.38 181.8 365.86 181.87 366.32 181.97 366.79 182.1 367.24 182.25 367.69 182.43 368.13 182.64 368.56 193.48 368.56"/><polyline class="c" points="185.71 351.42 185.52 351.58 185.34 351.76 185.17 351.94 185 352.12 184.84 352.31 184.68 352.5 184.53 352.7 184.4 352.91 184.26 353.12 184.13 353.33 184.02 353.55 183.91 353.77 183.8 353.99 183.71 354.22 183.62 354.45 183.54 354.69 183.47 354.92 183.4 355.16 183.35 355.4 183.3 355.64 183.26 355.89 183.24 356.13 183.21 356.38 183.2 356.62 183.2 356.87"/><polyline class="c" points="192.92 356.87 192.92 356.62 192.91 356.38 192.88 356.13 192.85 355.89 192.82 355.64 192.77 355.4 192.72 355.16 192.65 354.92 192.58 354.69 192.5 354.45 192.41 354.22 192.32 353.99 192.21 353.77 192.1 353.55 191.98 353.33 191.86 353.12 191.72 352.91 191.58 352.7 191.44 352.5 191.28 352.31 191.12 352.12 190.95 351.94 190.78 351.76 190.6 351.58 190.41 351.42"/><polyline class="c" points="191.22 363.65 191.42 363.3 191.61 362.95 191.79 362.59 191.95 362.22 192.1 361.85 192.24 361.48 192.37 361.1 192.48 360.71 192.58 360.33 192.67 359.94 192.75 359.55 192.81 359.15 192.85 358.75 192.89 358.36 192.91 357.96 192.91 357.56"/><line class="c" x1="188.06" y1="363.65" x2="191.22" y2="363.65"/><line class="c" x1="184.9" y1="363.65" x2="188.06" y2="363.65"/><polyline class="c" points="183.21 357.56 183.21 357.96 183.23 358.36 183.27 358.75 183.31 359.15 183.37 359.55 183.45 359.94 183.53 360.33 183.63 360.71 183.75 361.1 183.88 361.48 184.01 361.85 184.17 362.22 184.33 362.59 184.51 362.95 184.69 363.3 184.9 363.65"/><polygon class="c" points="192.98 355.7 192.62 354.29 192.07 352.96 191.32 351.91 190.36 351.1 189.25 350.59 188.06 350.41 186.87 350.59 185.75 351.1 184.79 351.91 184.05 352.96 183.5 354.29 183.14 355.7 182.98 357.16 183.03 358.62 183.97 368.56 192.15 368.56 193.09 358.62 193.14 357.16 192.98 355.7"/><polyline class="c" points="191.44 350.76 192.05 351.48 192.6 352.25 192.91 353.09 193.16 354.05 193.25 355.48 193.16 357.47 192.91 358.67 192.48 359.81 192.24 361.78 192.24 363.87 190.33 363.52 188.06 363.34 185.79 363.52 183.82 363.88 183.82 361.78 183.58 359.81 183.15 358.67 182.9 357.47 182.84 356.21 182.84 354.95 182.9 354.05 183.15 353.09 183.46 352.25 184.01 351.48 184.62 350.76 185.36 350.1 186.16 349.62 187.08 349.32 188.06 349.2 189.04 349.32 189.96 349.62 190.76 350.1 191.5 350.76"/><polyline class="c" points="192.11 362.26 191.87 362.56 189.96 362.8 188.06 362.86"/><polyline class="c" points="188 362.86 186.09 362.8 184.19 362.56 183.95 362.26"/><polyline class="c" points="188 361.9 186.03 361.84 184.07 361.54"/><line class="c" x1="109.91" y1="189.79" x2="109.91" y2="172.23"/><line class="c" x1="175.17" y1="422.79" x2="175.17" y2="384.8"/><line class="c" x1="176.64" y1="422.79" x2="176.64" y2="384.08"/><polyline class="c" points="197.51 429.8 178.11 429.8 177.38 429.68 176.64 429.44 176.09 428.96 175.6 428.42 175.35 427.7 175.23 426.99"/><polyline class="c" points="63.55 489.85 78.1 505.31 118.75 505.31 133.3 489.85"/><line class="c" x1="177.38" y1="424.17" x2="197.51" y2="424.17"/><line class="c" x1="176.64" y1="418.6" x2="197.51" y2="418.6"/><line class="c" x1="176.64" y1="412.96" x2="197.51" y2="412.96"/><line class="c" x1="176.64" y1="407.33" x2="197.51" y2="407.33"/><line class="c" x1="176.64" y1="401.7" x2="197.51" y2="401.7"/><line class="c" x1="176.64" y1="396.06" x2="197.51" y2="396.06"/><line class="c" x1="176.64" y1="390.43" x2="197.51" y2="390.43"/><line class="c" x1="176.64" y1="384.8" x2="197.51" y2="384.8"/><line class="c" x1="187.08" y1="379.16" x2="197.51" y2="379.16"/><line class="c" x1="147.85" y1="492.13" x2="150.79" y2="492.13"/><polyline class="c" points="147.85 506.27 166.76 506.27 166.76 509.09 147.85 509.09 147.85 490.69"/><polyline class="c" points="197.21 490.69 197.21 509.09 200.09 509.09 200.09 490.69"/><polyline class="c" points="122.67 197.58 122.67 214.6 175.78 214.6 175.78 275.19"/><line class="c" x1="150.79" y1="490.69" x2="150.79" y2="509.09"/><line class="c" x1="149.44" y1="492.13" x2="149.44" y2="506.27"/><line class="c" x1="149.2" y1="492.13" x2="149.2" y2="506.27"/><line class="c" x1="198.5" y1="492.13" x2="198.5" y2="506.27"/><line class="c" x1="198.74" y1="492.13" x2="198.74" y2="506.27"/><line class="c" x1="165.28" y1="507.59" x2="150.79" y2="507.59"/><line class="c" x1="165.28" y1="507.83" x2="150.79" y2="507.83"/><polyline class="c" points="52.5 490.69 74.3 513.76 122.55 513.76 144.35 490.69"/><polyline class="c" points="137.53 493.75 121.26 510.95 75.59 510.95 59.32 493.75"/><line class="c" x1="118.56" y1="509.63" x2="78.29" y2="509.63"/><polyline class="c" points="135.38 491.77 119.97 508.13 76.81 508.13 61.4 491.77"/><line class="c" x1="118.56" y1="509.45" x2="78.29" y2="509.45"/><line class="c" x1="95.54" y1="505.31" x2="78.1" y2="505.31"/><line class="c" x1="61.28" y1="493.87" x2="74.73" y2="508.13"/><line class="c" x1="61.4" y1="493.75" x2="74.85" y2="507.95"/><line class="c" x1="134.4" y1="492.85" x2="136.55" y2="494.77"/><line class="c" x1="135.57" y1="493.87" x2="122.12" y2="508.13"/><line class="c" x1="135.38" y1="493.75" x2="121.94" y2="507.95"/><line class="c" x1="120.96" y1="507.11" x2="123.1" y2="509.03"/><line class="c" x1="167.62" y1="486.44" x2="167.62" y2="489.31"/><polyline class="c" points="157.42 490.69 157.42 492.13 169.03 492.13 169.03 483.62 157.42 483.62"/><line class="c" x1="169.03" y1="489.31" x2="157.42" y2="489.31"/><line class="c" x1="167.62" y1="487.99" x2="158.9" y2="487.99"/><line class="c" x1="169.03" y1="486.44" x2="157.42" y2="486.44"/><line class="c" x1="167.62" y1="487.75" x2="158.9" y2="487.75"/><line class="c" x1="158.9" y1="486.44" x2="158.9" y2="489.31"/><line class="c" x1="75.83" y1="279.44" x2="75.83" y2="276.57"/><polyline class="c" points="66.81 275.19 66.81 273.75 77.24 273.75 77.24 282.26 66.81 282.26"/><line class="c" x1="77.24" y1="276.57" x2="66.81" y2="276.57"/><line class="c" x1="75.83" y1="277.88" x2="68.28" y2="277.88"/><line class="c" x1="77.24" y1="279.44" x2="66.81" y2="279.44"/><line class="c" x1="75.83" y1="278.12" x2="68.28" y2="278.12"/><line class="c" x1="68.28" y1="279.44" x2="68.28" y2="276.57"/><line class="c" x1="121.45" y1="279.44" x2="121.45" y2="276.57"/><polyline class="c" points="122.92 282.26 112.48 282.26 112.48 273.75 122.92 273.75 122.92 275.19"/><line class="c" x1="122.92" y1="276.57" x2="112.48" y2="276.57"/><line class="c" x1="121.45" y1="277.88" x2="113.96" y2="277.88"/><line class="c" x1="122.92" y1="279.44" x2="112.48" y2="279.44"/><line class="c" x1="121.45" y1="278.12" x2="113.96" y2="278.12"/><line class="c" x1="113.96" y1="279.44" x2="113.96" y2="276.57"/><polyline class="c" points="134.59 189.79 134.59 188.41 172.28 188.41 172.28 189.79"/><line class="c" x1="172.28" y1="191.23" x2="134.59" y2="191.23"/><line class="c" x1="170.87" y1="192.49" x2="136.06" y2="192.49"/><line class="c" x1="172.28" y1="194.04" x2="134.59" y2="194.04"/><line class="c" x1="170.87" y1="192.73" x2="136.06" y2="192.73"/><line class="c" x1="172.28" y1="197.58" x2="134.59" y2="197.58"/><line class="c" x1="72.09" y1="189.79" x2="110.83" y2="189.79"/><polyline class="c" points="75.71 172.41 76.33 172.51 76.94 172.64 77.55 172.79 78.15 172.96 78.75 173.14 79.34 173.35 79.92 173.58 80.49 173.82 81.06 174.09 81.61 174.38 82.16 174.68 82.69 175 83.21 175.34 83.72 175.7 84.22 176.07 84.7 176.46 85.17 176.87 85.62 177.29 86.06 177.73 86.49 178.18 86.89 178.64 87.28 179.12 87.66 179.62 88.01 180.12 88.35 180.64 88.67 181.16 88.97 181.7 89.25 182.25 89.51 182.8 89.75 183.37 89.97 183.94 90.17 184.52 90.35 185.11 90.51 185.7 90.65 186.3 90.77 186.9 90.86 187.5 90.93 188.11"/><polygon class="c" points="72.09 192.13 73.01 192.13 73.01 189.79 73.99 189.79 73.99 172.23 73.01 172.23 73.01 189.79 72.09 189.79 72.09 192.13"/><polyline class="c" points="91.98 188.11 92.05 187.5 92.15 186.9 92.26 186.3 92.4 185.7 92.56 185.11 92.74 184.52 92.94 183.94 93.16 183.37 93.4 182.8 93.67 182.25 93.94 181.7 94.25 181.16 94.56 180.64 94.9 180.12 95.26 179.62 95.63 179.12 96.02 178.64 96.43 178.18 96.85 177.73 97.29 177.29 97.74 176.87 98.21 176.46 98.69 176.07 99.19 175.7 99.7 175.34 100.22 175 100.75 174.68 101.3 174.38 101.85 174.09 102.42 173.82 102.99 173.58 103.57 173.35 104.16 173.14 104.76 172.96 105.36 172.79 105.97 172.64 106.59 172.51 107.2 172.41"/><line class="c" x1="108.86" y1="172.23" x2="108.86" y2="189.79"/><polyline class="c" points="80.68 260.8 81.24 260.9 81.79 261.02 82.33 261.15 82.88 261.31 83.41 261.48 83.94 261.66 84.46 261.87 84.98 262.09 85.49 262.33 85.98 262.59 86.47 262.87 86.95 263.16 87.42 263.46 87.88 263.79 88.32 264.12 88.76 264.47 89.18 264.84 89.58 265.22 89.98 265.61 90.36 266.02 90.72 266.44 91.08 266.87 91.41 267.31 91.73 267.77 92.03 268.23 92.32 268.7 92.59 269.19 92.84 269.68 93.08 270.18 93.3 270.69 93.5 271.2 93.68 271.72 93.84 272.25 93.98 272.78 94.11 273.32 94.22 273.86 94.3 274.4 94.37 274.95"/><polygon class="c" points="77.24 278.66 78.1 278.66 78.1 276.56 79.02 276.56 79.02 260.56 78.1 260.56 78.1 276.56 77.24 276.56 77.24 278.66"/><polyline class="c" points="95.42 274.95 95.48 274.4 95.57 273.86 95.68 273.32 95.8 272.78 95.95 272.25 96.11 271.72 96.29 271.2 96.49 270.69 96.71 270.18 96.94 269.68 97.2 269.19 97.47 268.7 97.75 268.23 98.06 267.77 98.38 267.31 98.71 266.87 99.06 266.44 99.43 266.02 99.81 265.61 100.2 265.22 100.61 264.84 101.03 264.47 101.47 264.12 101.91 263.79 102.37 263.46 102.84 263.16 103.32 262.87 103.8 262.59 104.3 262.33 104.81 262.09 105.33 261.87 105.85 261.66 106.38 261.48 106.91 261.31 107.45 261.15 108 261.02 108.55 260.9 109.11 260.8"/><polygon class="c" points="112.48 278.66 111.69 278.66 111.69 276.56 110.7 276.56 110.7 260.56 111.69 260.56 111.69 276.56 112.48 276.56 112.48 278.66"/><polyline class="c" points="181.49 510.59 181.43 511.06 181.34 511.54 181.25 512.01 181.13 512.48 181 512.95 180.85 513.41 180.69 513.87 180.5 514.32 180.31 514.76 180.09 515.19 179.87 515.62 179.62 516.04 179.37 516.46 179.09 516.86 178.81 517.25 178.5 517.63 178.19 518.01 177.86 518.37 177.52 518.72 177.17 519.06 176.81 519.39 176.43 519.7 176.05 520 175.65 520.29 175.24 520.57 174.82 520.83 174.4 521.07 173.97 521.3 173.52 521.52 173.07 521.72 172.62 521.91 172.15 522.08 171.69 522.24 171.21 522.37 170.73 522.5 170.25 522.6 169.76 522.69"/><polygon class="c" points="166.76 507.29 167.43 507.29 167.43 509.09 168.23 509.09 168.23 522.93 167.43 522.93 167.43 509.09 166.76 509.09 166.76 507.29"/><polyline class="c" points="194.14 522.69 193.65 522.6 193.17 522.5 192.69 522.37 192.22 522.23 191.75 522.08 191.29 521.91 190.83 521.72 190.38 521.52 189.94 521.3 189.5 521.07 189.08 520.83 188.66 520.57 188.25 520.29 187.86 520 187.47 519.7 187.09 519.39 186.73 519.06 186.38 518.72 186.04 518.37 185.71 518.01 185.4 517.63 185.1 517.25 184.81 516.86 184.54 516.46 184.28 516.04 184.04 515.62 183.81 515.19 183.6 514.76 183.4 514.32 183.22 513.87 183.05 513.41 182.91 512.95 182.77 512.48 182.66 512.01 182.56 511.54 182.48 511.06 182.41 510.59"/><polygon class="c" points="197.21 507.29 196.47 507.29 196.47 509.09 195.67 509.09 195.67 522.93 196.47 522.93 196.47 509.09 197.21 509.09 197.21 507.29"/><polyline class="c" points="170.19 484.82 170.27 484.12 170.37 483.42 170.5 482.72 170.64 482.04 170.82 481.35 171.01 480.67 171.23 480 171.48 479.34 171.75 478.68 172.04 478.04 172.35 477.4 172.68 476.78 173.04 476.17 173.42 475.57 173.82 474.98 174.24 474.4 174.68 473.85 175.13 473.3 175.61 472.77 176.11 472.26 176.62 471.76 177.15 471.29 177.7 470.83 178.26 470.39 178.84 469.96 179.43 469.56 180.04 469.18 180.66 468.82 181.29 468.48 181.94 468.16 182.59 467.86 183.25 467.58 183.93 467.33 184.61 467.1 185.3 466.89 186 466.71 186.7 466.55 187.41 466.41 188.12 466.3"/><rect class="c" x="169.03" y="486.62" width="1.04" height="2.7"/><polygon class="c" points="192.24 489.31 191.19 489.31 191.19 486.62 189.96 486.62 189.96 466 191.19 466 191.19 486.62 192.24 486.62 192.24 489.31"/><polyline class="c" points="130.1 374.61 130.21 373.99 130.34 373.37 130.5 372.76 130.67 372.16 130.87 371.56 131.08 370.97 131.32 370.39 131.58 369.81 131.86 369.25 132.16 368.69 132.48 368.14 132.82 367.61 133.17 367.08 133.55 366.57 133.94 366.08 134.35 365.59 134.78 365.13 135.22 364.67 135.69 364.23 136.16 363.81 136.65 363.4 137.16 363.01 137.67 362.64 138.21 362.28 138.75 361.95 139.3 361.63 139.87 361.33 140.45 361.05 141.03 360.79 141.63 360.55 142.23 360.33 142.84 360.13 143.46 359.96 144.08 359.8 144.71 359.66 145.34 359.55 145.98 359.46 146.62 359.39"/><polyline class="c" points="174.25 342.31 173.69 342.24 173.14 342.15 172.59 342.05 172.04 341.93 171.5 341.78 170.96 341.62 170.43 341.45 169.91 341.25 169.39 341.04 168.88 340.81 168.38 340.56 167.88 340.3 167.4 340.02 166.93 339.73 166.47 339.42 166.02 339.09 165.58 338.75 165.15 338.4 164.74 338.03 164.34 337.64 163.95 337.25 163.57 336.84 163.22 336.42 162.87 335.99 162.54 335.54 162.23 335.09 161.93 334.62 161.65 334.15 161.39 333.67 161.14 333.17 160.91 332.67 160.7 332.17 160.51 331.65 160.34 331.13 160.18 330.61 160.04 330.08 159.92 329.54 159.82 329"/><line class="c" x1="159.63" y1="327.38" x2="175.9" y2="327.38"/><line class="c" x1="175.9" y1="326.49" x2="159.63" y2="326.49"/><rect class="c" x="174.49" y="422.79" width="2.89" height="2.82"/><polyline class="c" points="203.22 371.49 188.37 378.5 186.89 377.07 187.32 381.2 185.79 379.76 170.93 386.77"/><polyline class="c" points="189.96 387.61 187.08 384.8 184.19 387.61"/><line class="c" x1="187.08" y1="384.8" x2="187.08" y2="429.8"/><line class="c" x1="157.55" y1="292.69" x2="157.55" y2="310.66"/><line class="c" x1="156.5" y1="310.66" x2="156.5" y2="292.69"/><polyline class="c" points="159.27 292.87 159.9 292.97 160.53 293.1 161.16 293.25 161.78 293.42 162.39 293.61 162.99 293.82 163.59 294.06 164.18 294.31 164.76 294.58 165.33 294.87 165.89 295.18 166.44 295.51 166.97 295.86 167.5 296.23 168.01 296.61 168.5 297.01 168.98 297.43 169.45 297.87 169.9 298.31 170.33 298.78 170.75 299.26 171.15 299.75 171.53 300.25 171.89 300.77 172.24 301.3 172.56 301.85 172.87 302.4 173.16 302.96 173.42 303.53 173.67 304.11 173.89 304.7 174.09 305.3 174.28 305.9 174.44 306.51 174.58 307.12 174.69 307.74 174.79 308.36 174.86 308.99"/><polyline class="c" points="182.6 368.56 188.06 368.56 193.46 368.56"/><polyline class="c" points="162.83 212.98 163.26 212.86 163.63 212.56 163.75 212.08 163.75 200.04 163.63 199.62 163.26 199.26 162.83 199.14 135.69 199.14 135.2 199.26 134.89 199.62 134.77 200.04"/><line class="c" x1="134.71" y1="212.08" x2="134.71" y2="200.04"/><line class="c" x1="162.83" y1="213.04" x2="135.69" y2="213.04"/><line class="c" x1="148.22" y1="201.83" x2="138.15" y2="201.83"/><line class="c" x1="136.8" y1="210.46" x2="136.8" y2="203.15"/><polyline class="c" points="148.22 201.89 148.71 202.01 149.14 202.25 149.38 202.67 149.5 203.15 149.5 210.46 149.38 210.94 149.14 211.36 148.71 211.6 148.22 211.72 138.15 211.72 137.66 211.6 137.23 211.36 136.98 210.94 136.86 210.46"/><rect class="c" x="177.25" y="236.65" width="14.49" height="16.42"/><line class="c" x1="191.74" y1="239.23" x2="177.25" y2="239.23"/><line class="c" x1="166.76" y1="509.09" x2="197.21" y2="509.09"/><polygon class="c" points="148.34 377.31 148.34 376.23 129.86 376.23 129.86 377.31 148.34 377.31 148.34 378.2 150.79 378.2 150.79 377.31 148.34 377.31"/><polyline class="c" points="191.99 361.54 190.03 361.84 188.06 361.9"/><rect class="d" x="108.49" y="223.65" width="29.29" height="28.47"/><rect class="d" x="107.02" y="222.21" width="32.23" height="31.28"/><polygon class="e" points="122.92 275.19 150.79 275.19 150.79 310.25 155.58 310.25 155.58 313.06 150.79 313.06 150.79 358.37 147.6 358.37 147.6 282.26 122.92 282.26 122.92 275.19"/><polygon class="e" points="147.85 385.34 143.24 385.34 143.24 381.08 147.6 381.08 147.6 378.2 150.79 378.2 150.79 483.62 157.42 483.62 157.42 490.69 142.32 490.69 138.58 494.7 133.3 489.85 139.19 483.62 147.85 483.62 147.85 385.34"/><polygon class="e" points="57.66 483.62 63.55 489.85 58.21 494.7 54.47 490.69 39.67 490.69 39.67 275.19 43.97 275.19 43.97 189.79 72.09 189.79 72.09 197.58 51.95 197.58 51.95 275.19 66.81 275.19 66.81 282.26 46.91 282.26 46.91 381.08 57.66 381.08 57.66 385.34 46.91 385.34 46.91 483.62 57.66 483.62"/><rect class="e" x="110.83" y="189.79" width="23.76" height="7.79"/><polyline class="e" points="197.51 371.37 175.9 371.37 175.9 343.15 178.54 343.15 178.54 368.56 197.51 368.56"/><polygon class="e" points="193.16 275.19 193.16 197.58 172.28 197.58 172.28 189.79 201.14 189.79 201.14 275.19 204.76 275.19 204.76 490.69 192.24 490.69 192.24 483.62 197.51 483.62 197.51 313.06 178.54 313.06 178.54 325.71 175.9 325.71 175.9 310.25 197.51 310.25 197.51 282.26 175.9 282.26 175.9 275.19 193.16 275.19"/></svg>