<svg xmlns="http://www.w3.org/2000/svg" viewBox="0 0 318.24 583.97"><defs><style>.a{fill:silver;}.b,.c{fill:none;stroke-linecap:round;stroke-linejoin:round;}.b{stroke:#1d1d1b;stroke-width:0.2px;}.c{stroke:#009fe3;stroke-width:0.25px;}.d{font-size:22.2px;fill:#3a7979;font-family:ArialMT, Arial;}.e{fill:#1d1d1b;}</style></defs><polygon class="a" points="177.4 375.06 177.36 374.58 177.35 374.11 177.38 373.79 177.49 373.48 177.66 373.19 177.89 372.96 178.17 372.78 178.48 372.67 178.8 372.62 179.04 372.64 178.6 367.82 178.55 366.36 178.71 364.9 179.06 363.49 179.6 362.16 180.33 361.11 181.26 360.3 182.35 359.79 183.51 359.61 184.68 359.79 185.76 360.3 186.7 361.11 187.42 362.16 187.96 363.49 188.31 364.9 188.47 366.36 188.43 367.82 187.98 372.65 188.22 372.62 188.54 372.67 188.85 372.78 189.13 372.96 189.36 373.19 189.53 373.48 189.64 373.79 189.68 374.11 189.66 374.58 189.62 375.06 189.55 375.52 189.46 375.99 189.33 376.44 189.18 376.89 189.01 377.33 188.81 377.75 187.51 377.75 185.13 377.75 184.66 377.75 183.97 377.75 183.83 377.75 183.51 377.75 183.19 377.75 183.06 377.75 182.37 377.75 181.9 377.75 179.51 377.75 178.22 377.75 178.02 377.33 177.84 376.89 177.69 376.44 177.56 375.99 177.47 375.52 177.4 375.06"/><path class="a" d="M191.8,342.07v9.17a.42.42,0,0,1-.42.43h-7.66a.42.42,0,0,1-.42-.43v-11.9a.42.42,0,0,1,.42-.43h7.66a.42.42,0,0,1,.42.43Z"/><polygon class="a" points="186.26 289.16 165 289.16 165 263.65 169.26 263.65 169.26 145.24 131.94 145.24 131.94 128.23 135.81 128.23 136.24 128.23 169.4 128.23 169.83 128.23 186.26 128.23 186.26 263.65 186.26 289.16"/><polygon class="a" points="130.73 243.75 113.72 243.75 113.72 176.6 130.73 176.6 147.74 176.6 147.74 243.75 130.73 243.75"/><line class="b" x1="190.89" y1="433.09" x2="190.89" y2="426.85"/><line class="b" x1="158.98" y1="520.49" x2="163.87" y2="520.49"/><line class="b" x1="160.12" y1="520.49" x2="168.74" y2="520.49"/><line class="b" x1="160.12" y1="520.49" x2="168.74" y2="520.49"/><line class="b" x1="169.53" y1="520.49" x2="170.66" y2="520.49"/><line class="b" x1="160.12" y1="517.75" x2="160.12" y2="520.49"/><line class="b" x1="168.74" y1="517.75" x2="160.12" y2="517.75"/><line class="b" x1="168.74" y1="520.49" x2="168.74" y2="517.75"/><line class="b" x1="161.73" y1="517.75" x2="161.73" y2="516.5"/><line class="b" x1="159.83" y1="517.75" x2="161.73" y2="517.75"/><line class="b" x1="159.83" y1="516.5" x2="159.83" y2="517.75"/><line class="b" x1="161.73" y1="516.5" x2="159.83" y2="516.5"/><line class="b" x1="167.12" y1="516.5" x2="167.12" y2="517.75"/><line class="b" x1="169.02" y1="516.5" x2="167.12" y2="516.5"/><line class="b" x1="169.02" y1="517.75" x2="169.02" y2="516.5"/><line class="b" x1="167.12" y1="517.75" x2="169.02" y2="517.75"/><line class="b" x1="194.7" y1="517.23" x2="194.7" y2="519.36"/><line class="b" x1="194.7" y1="519.36" x2="195.04" y2="519.36"/><line class="b" x1="195.04" y1="519.36" x2="195.04" y2="520.49"/><line class="b" x1="195.04" y1="520.49" x2="195.83" y2="520.49"/><line class="b" x1="195.83" y1="520.49" x2="195.83" y2="517.23"/><line class="b" x1="195.83" y1="517.23" x2="194.7" y2="517.23"/><line class="b" x1="158.98" y1="520.49" x2="160.12" y2="520.49"/><line class="b" x1="160.12" y1="520.49" x2="160.12" y2="517.75"/><line class="b" x1="160.12" y1="517.75" x2="159.83" y2="517.75"/><line class="b" x1="159.83" y1="517.75" x2="159.83" y2="517.23"/><line class="b" x1="159.83" y1="517.23" x2="158.98" y2="517.23"/><line class="b" x1="158.98" y1="517.23" x2="158.98" y2="517.66"/><line class="b" x1="169.02" y1="517.23" x2="169.02" y2="517.75"/><line class="b" x1="169.02" y1="517.75" x2="168.74" y2="517.75"/><line class="b" x1="168.74" y1="517.75" x2="168.74" y2="520.49"/><line class="b" x1="168.74" y1="520.49" x2="169.53" y2="520.49"/><line class="b" x1="169.53" y1="520.49" x2="169.53" y2="519.36"/><line class="b" x1="169.53" y1="519.36" x2="169.87" y2="519.36"/><line class="b" x1="169.87" y1="519.36" x2="169.87" y2="517.23"/><line class="b" x1="169.87" y1="517.23" x2="169.02" y2="517.23"/><line class="b" x1="167.12" y1="516.5" x2="161.73" y2="516.5"/><line class="b" x1="161.73" y1="517.75" x2="167.12" y2="517.75"/><line class="b" x1="161.73" y1="517.12" x2="167.12" y2="517.12"/><line class="b" x1="195.83" y1="520.49" x2="195.83" y2="517.66"/><line class="b" x1="195.83" y1="520.49" x2="195.83" y2="517.66"/><line class="b" x1="158.98" y1="520.49" x2="158.98" y2="517.66"/><line class="b" x1="158.98" y1="520.49" x2="158.98" y2="517.66"/><line class="b" x1="197.16" y1="520.49" x2="197.16" y2="489.92"/><line class="b" x1="173.88" y1="331.99" x2="173.88" y2="328.67"/><line class="b" x1="171.04" y1="328.67" x2="171.04" y2="331.99"/><line class="b" x1="173.88" y1="328.67" x2="174.44" y2="328.67"/><line class="b" x1="173.74" y1="328.67" x2="173.88" y2="328.67"/><line class="b" x1="171.04" y1="328.67" x2="173.74" y2="328.67"/><line class="b" x1="170.48" y1="328.67" x2="171.04" y2="328.67"/><line class="b" x1="174.44" y1="329.72" x2="174.44" y2="328.67"/><line class="b" x1="170.48" y1="328.67" x2="170.48" y2="329.72"/><line class="b" x1="173.74" y1="338.15" x2="173.74" y2="337.44"/><line class="b" x1="174.44" y1="337.81" x2="174.44" y2="336.39"/><line class="b" x1="174.98" y1="336.39" x2="174.98" y2="337.81"/><line class="b" x1="174.98" y1="337.81" x2="174.44" y2="337.81"/><line class="b" x1="169.94" y1="337.81" x2="169.94" y2="336.39"/><line class="b" x1="170.48" y1="337.81" x2="169.94" y2="337.81"/><line class="b" x1="170.48" y1="337.44" x2="170.48" y2="337.81"/><line class="b" x1="173.74" y1="338.15" x2="173.74" y2="337.44"/><line class="b" x1="170.48" y1="338.23" x2="170.48" y2="339.37"/><line class="b" x1="173.74" y1="328.67" x2="174.44" y2="328.67"/><line class="b" x1="173.74" y1="327.97" x2="173.74" y2="328.67"/><line class="b" x1="174.44" y1="328.31" x2="174.44" y2="329.72"/><line class="b" x1="174.98" y1="329.72" x2="174.98" y2="328.31"/><line class="b" x1="174.98" y1="328.31" x2="174.44" y2="328.31"/><line class="b" x1="169.94" y1="328.31" x2="169.94" y2="329.72"/><line class="b" x1="170.48" y1="329.72" x2="170.48" y2="328.67"/><line class="b" x1="170.48" y1="328.31" x2="169.94" y2="328.31"/><line class="b" x1="173.74" y1="328.67" x2="170.48" y2="328.67"/><line class="b" x1="170.48" y1="328.67" x2="170.48" y2="328.31"/><line class="b" x1="173.74" y1="327.97" x2="173.74" y2="328.67"/><line class="b" x1="170.48" y1="327.88" x2="170.48" y2="326.75"/><line class="b" x1="170.48" y1="328.67" x2="171.04" y2="328.67"/><line class="b" x1="170.48" y1="328.67" x2="171.04" y2="328.67"/><line class="b" x1="171.04" y1="328.67" x2="173.74" y2="328.67"/><line class="b" x1="171.04" y1="328.67" x2="173.74" y2="328.67"/><line class="b" x1="173.74" y1="328.67" x2="173.88" y2="328.67"/><line class="b" x1="173.88" y1="328.67" x2="174.44" y2="328.67"/><line class="b" x1="170.48" y1="328.67" x2="170.48" y2="329.72"/><line class="b" x1="170.48" y1="328.67" x2="170.48" y2="329.72"/><line class="b" x1="173.74" y1="328.67" x2="173.88" y2="328.67"/><line class="b" x1="173.88" y1="328.67" x2="174.44" y2="328.67"/><line class="b" x1="174.44" y1="328.67" x2="174.44" y2="329.72"/><line class="b" x1="174.44" y1="328.67" x2="174.44" y2="329.72"/><line class="b" x1="169.94" y1="329.72" x2="170.48" y2="329.72"/><line class="b" x1="174.44" y1="329.72" x2="174.98" y2="329.72"/><line class="b" x1="174.44" y1="337.44" x2="174.44" y2="336.39"/><line class="b" x1="174.44" y1="337.44" x2="174.44" y2="336.39"/><line class="b" x1="173.88" y1="337.44" x2="174.44" y2="337.44"/><line class="b" x1="173.74" y1="337.44" x2="173.88" y2="337.44"/><line class="b" x1="170.48" y1="337.44" x2="170.48" y2="336.39"/><line class="b" x1="170.48" y1="337.44" x2="170.48" y2="336.39"/><line class="b" x1="173.88" y1="337.44" x2="174.44" y2="337.44"/><line class="b" x1="173.74" y1="337.44" x2="173.88" y2="337.44"/><line class="b" x1="171.04" y1="337.44" x2="173.74" y2="337.44"/><line class="b" x1="171.04" y1="337.44" x2="173.74" y2="337.44"/><line class="b" x1="170.48" y1="337.44" x2="171.04" y2="337.44"/><line class="b" x1="170.48" y1="337.44" x2="171.04" y2="337.44"/><line class="b" x1="173.74" y1="337.44" x2="170.48" y2="337.44"/><line class="b" x1="170.48" y1="336.39" x2="170.48" y2="337.44"/><line class="b" x1="169.94" y1="336.39" x2="170.48" y2="336.39"/><line class="b" x1="174.44" y1="336.39" x2="174.98" y2="336.39"/><line class="b" x1="173.74" y1="337.44" x2="174.44" y2="337.44"/><line class="b" x1="170.48" y1="336.39" x2="170.48" y2="337.44"/><line class="b" x1="174.44" y1="337.44" x2="174.44" y2="336.39"/><line class="b" x1="170.48" y1="337.44" x2="171.04" y2="337.44"/><line class="b" x1="171.04" y1="337.44" x2="173.74" y2="337.44"/><line class="b" x1="173.74" y1="337.44" x2="173.88" y2="337.44"/><line class="b" x1="173.88" y1="337.44" x2="174.44" y2="337.44"/><line class="b" x1="171.04" y1="334.82" x2="171.04" y2="337.44"/><line class="b" x1="173.88" y1="337.44" x2="173.88" y2="334.82"/><line class="b" x1="171.04" y1="331.99" x2="171.04" y2="334.82"/><line class="b" x1="174.44" y1="331.99" x2="173.88" y2="331.99"/><line class="b" x1="173.88" y1="334.82" x2="174.44" y2="334.82"/><line class="b" x1="171.55" y1="451.79" x2="171.55" y2="396.58"/><line class="b" x1="144.51" y1="413.78" x2="144.51" y2="414.83"/><line class="b" x1="147.77" y1="414.83" x2="147.77" y2="413.78"/><line class="b" x1="148.31" y1="415.2" x2="148.31" y2="413.78"/><line class="b" x1="148.31" y1="413.78" x2="147.77" y2="413.78"/><line class="b" x1="147.77" y1="413.78" x2="147.77" y2="415.2"/><line class="b" x1="147.77" y1="415.2" x2="148.31" y2="415.2"/><line class="b" x1="144.51" y1="415.2" x2="144.51" y2="413.78"/><line class="b" x1="144.51" y1="413.78" x2="143.97" y2="413.78"/><line class="b" x1="143.97" y1="413.78" x2="143.97" y2="415.2"/><line class="b" x1="143.97" y1="415.2" x2="144.51" y2="415.2"/><line class="b" x1="147.77" y1="415.96" x2="145.64" y2="415.96"/><line class="b" x1="145.64" y1="415.96" x2="145.64" y2="415.62"/><line class="b" x1="145.64" y1="415.62" x2="144.51" y2="415.62"/><line class="b" x1="144.51" y1="415.62" x2="144.51" y2="414.83"/><line class="b" x1="144.51" y1="414.83" x2="147.77" y2="414.83"/><line class="b" x1="147.77" y1="414.83" x2="147.77" y2="415.96"/><line class="b" x1="144.51" y1="414.83" x2="147.77" y2="414.83"/><line class="b" x1="144.51" y1="414.83" x2="147.77" y2="414.83"/><line class="b" x1="144.51" y1="414.83" x2="144.51" y2="413.78"/><line class="b" x1="144.51" y1="414.83" x2="144.51" y2="413.78"/><line class="b" x1="147.77" y1="414.83" x2="147.77" y2="413.78"/><line class="b" x1="147.77" y1="414.83" x2="147.77" y2="413.78"/><line class="b" x1="144.51" y1="436.43" x2="144.51" y2="437.48"/><line class="b" x1="147.77" y1="437.48" x2="147.77" y2="436.43"/><line class="b" x1="147.77" y1="436.06" x2="147.77" y2="437.48"/><line class="b" x1="147.77" y1="437.48" x2="148.31" y2="437.48"/><line class="b" x1="148.31" y1="437.48" x2="148.31" y2="436.06"/><line class="b" x1="148.31" y1="436.06" x2="147.77" y2="436.06"/><line class="b" x1="143.97" y1="436.06" x2="143.97" y2="437.48"/><line class="b" x1="143.97" y1="437.48" x2="144.51" y2="437.48"/><line class="b" x1="144.51" y1="437.48" x2="144.51" y2="436.06"/><line class="b" x1="144.51" y1="436.06" x2="143.97" y2="436.06"/><line class="b" x1="147.77" y1="436.43" x2="144.51" y2="436.43"/><line class="b" x1="144.51" y1="436.43" x2="144.51" y2="435.64"/><line class="b" x1="144.51" y1="435.64" x2="145.64" y2="435.64"/><line class="b" x1="145.64" y1="435.64" x2="145.64" y2="435.3"/><line class="b" x1="145.64" y1="435.3" x2="147.77" y2="435.3"/><line class="b" x1="147.77" y1="435.3" x2="147.77" y2="436.43"/><line class="b" x1="144.51" y1="435.64" x2="144.51" y2="434.5"/><line class="b" x1="144.51" y1="436.43" x2="147.77" y2="436.43"/><line class="b" x1="144.51" y1="436.43" x2="147.77" y2="436.43"/><line class="b" x1="144.51" y1="436.43" x2="144.51" y2="437.48"/><line class="b" x1="144.51" y1="436.43" x2="144.51" y2="437.48"/><line class="b" x1="147.77" y1="436.43" x2="147.77" y2="437.48"/><line class="b" x1="147.77" y1="436.43" x2="147.77" y2="437.48"/><path class="b" d="M124.5,435.64a20,20,0,0,1,20-20"/><line class="b" x1="124.5" y1="435.64" x2="144.51" y2="435.64"/><line class="b" x1="144.51" y1="434.5" x2="124.5" y2="434.5"/><line class="b" x1="124.5" y1="434.5" x2="124.5" y2="435.64"/><line class="b" x1="144.25" y1="493.55" x2="145.13" y2="492.81"/><line class="b" x1="145.67" y1="493.46" x2="145.13" y2="492.81"/><line class="b" x1="144.21" y1="491.73" x2="143.13" y2="492.64"/><line class="b" x1="143.13" y1="492.64" x2="144.04" y2="493.72"/><line class="b" x1="144.04" y1="493.72" x2="145.13" y2="492.81"/><line class="b" x1="145.13" y1="492.81" x2="144.21" y2="491.73"/><line class="b" x1="171.55" y1="396.58" x2="190.89" y2="384.1"/><line class="b" x1="191.96" y1="383.41" x2="190.89" y2="384.1"/><line class="b" x1="190.89" y1="384.1" x2="190.89" y2="395.48"/><line class="b" x1="190.89" y1="395.48" x2="190.89" y2="451.79"/><line class="b" x1="190.89" y1="451.79" x2="191.96" y2="451.79"/><line class="b" x1="188.76" y1="385.47" x2="190.89" y2="384.59"/><line class="b" x1="190.89" y1="384.59" x2="190.89" y2="384.1"/><line class="b" x1="190.89" y1="395.67" x2="190.89" y2="395.48"/><line class="b" x1="172.96" y1="395.67" x2="190.89" y2="395.67"/><line class="b" x1="190.89" y1="384.59" x2="188.76" y2="385.47"/><line class="b" x1="190.89" y1="395.48" x2="190.89" y2="384.59"/><line class="b" x1="190.89" y1="401.9" x2="190.89" y2="395.67"/><line class="b" x1="171.55" y1="401.9" x2="190.89" y2="401.9"/><line class="b" x1="190.89" y1="395.67" x2="172.96" y2="395.67"/><line class="b" x1="190.89" y1="408.14" x2="190.89" y2="401.9"/><line class="b" x1="171.55" y1="408.14" x2="190.89" y2="408.14"/><line class="b" x1="190.89" y1="401.9" x2="171.55" y2="401.9"/><line class="b" x1="190.89" y1="408.14" x2="171.55" y2="408.14"/><line class="b" x1="190.89" y1="414.38" x2="190.89" y2="408.14"/><line class="b" x1="171.55" y1="414.38" x2="190.89" y2="414.38"/><line class="b" x1="190.89" y1="414.38" x2="171.55" y2="414.38"/><line class="b" x1="190.89" y1="420.61" x2="190.89" y2="414.38"/><line class="b" x1="171.55" y1="420.61" x2="190.89" y2="420.61"/><line class="b" x1="190.89" y1="420.61" x2="171.55" y2="420.61"/><line class="b" x1="190.89" y1="426.85" x2="190.89" y2="420.61"/><line class="b" x1="171.55" y1="426.85" x2="190.89" y2="426.85"/><line class="b" x1="190.89" y1="426.85" x2="171.55" y2="426.85"/><line class="b" x1="171.55" y1="433.09" x2="190.89" y2="433.09"/><line class="b" x1="190.89" y1="433.09" x2="171.55" y2="433.09"/><line class="b" x1="190.89" y1="439.32" x2="190.89" y2="433.09"/><line class="b" x1="171.55" y1="439.32" x2="190.89" y2="439.32"/><line class="b" x1="190.89" y1="439.32" x2="171.55" y2="439.32"/><line class="b" x1="190.89" y1="445.56" x2="190.89" y2="439.32"/><line class="b" x1="171.55" y1="445.56" x2="190.89" y2="445.56"/><line class="b" x1="190.89" y1="445.56" x2="171.55" y2="445.56"/><line class="b" x1="190.89" y1="451.79" x2="190.89" y2="445.56"/><line class="b" x1="171.55" y1="451.79" x2="190.89" y2="451.79"/><line class="b" x1="165" y1="263.65" x2="165" y2="289.16"/><line class="b" x1="165" y1="289.16" x2="186.26" y2="289.16"/><line class="b" x1="186.26" y1="289.16" x2="186.26" y2="263.65"/><path class="b" d="M188.26,339.76a.43.43,0,0,1,.43.43"/><path class="b" d="M184.15,340.19a.43.43,0,0,1,.43-.43"/><path class="b" d="M184.58,350.82a.43.43,0,0,1-.43-.43"/><path class="b" d="M188.69,350.39a.43.43,0,0,1-.43.43"/><line class="b" x1="184.58" y1="339.76" x2="188.26" y2="339.76"/><line class="b" x1="184.15" y1="350.39" x2="184.15" y2="340.19"/><line class="b" x1="188.26" y1="350.82" x2="184.58" y2="350.82"/><line class="b" x1="188.69" y1="340.19" x2="188.69" y2="350.39"/><path class="b" d="M191.38,338.91a.42.42,0,0,1,.42.43"/><line class="b" x1="183.72" y1="338.91" x2="191.38" y2="338.91"/><path class="b" d="M183.3,339.34a.42.42,0,0,1,.42-.43"/><line class="b" x1="183.3" y1="351.24" x2="183.3" y2="339.34"/><path class="b" d="M183.72,351.67a.42.42,0,0,1-.42-.43"/><line class="b" x1="191.38" y1="351.67" x2="183.72" y2="351.67"/><path class="b" d="M191.8,351.24a.42.42,0,0,1-.42.43"/><line class="b" x1="191.8" y1="339.34" x2="191.8" y2="351.24"/><line class="b" x1="191.8" y1="347.74" x2="191.8" y2="348.51"/><line class="b" x1="191.8" y1="348.51" x2="191.96" y2="348.51"/><line class="b" x1="191.96" y1="347.74" x2="191.8" y2="347.74"/><line class="b" x1="191.8" y1="342.07" x2="191.8" y2="342.84"/><line class="b" x1="191.8" y1="342.84" x2="191.96" y2="342.84"/><line class="b" x1="191.96" y1="342.07" x2="191.8" y2="342.07"/><line class="b" x1="188.8" y1="377.75" x2="189.01" y2="377.33"/><line class="b" x1="189.01" y1="377.33" x2="189.18" y2="376.89"/><line class="b" x1="189.18" y1="376.89" x2="189.33" y2="376.44"/><line class="b" x1="189.33" y1="376.44" x2="189.46" y2="375.98"/><line class="b" x1="189.46" y1="375.98" x2="189.55" y2="375.52"/><line class="b" x1="189.55" y1="375.52" x2="189.62" y2="375.05"/><line class="b" x1="189.62" y1="375.05" x2="189.66" y2="374.58"/><line class="b" x1="189.66" y1="374.58" x2="189.68" y2="374.11"/><line class="b" x1="189.68" y1="374.11" x2="189.64" y2="373.78"/><line class="b" x1="189.64" y1="373.78" x2="189.53" y2="373.48"/><line class="b" x1="189.53" y1="373.48" x2="189.36" y2="373.2"/><line class="b" x1="189.36" y1="373.2" x2="189.13" y2="372.96"/><line class="b" x1="189.13" y1="372.96" x2="188.85" y2="372.78"/><line class="b" x1="188.85" y1="372.78" x2="188.54" y2="372.67"/><line class="b" x1="188.54" y1="372.67" x2="188.22" y2="372.62"/><line class="b" x1="188.22" y1="372.62" x2="187.89" y2="372.65"/><line class="b" x1="187.89" y1="372.65" x2="186.81" y2="372.85"/><line class="b" x1="186.81" y1="372.85" x2="185.71" y2="372.98"/><line class="b" x1="185.71" y1="372.98" x2="184.61" y2="373.06"/><line class="b" x1="184.61" y1="373.06" x2="183.51" y2="373.09"/><line class="b" x1="183.51" y1="373.09" x2="182.41" y2="373.06"/><line class="b" x1="182.41" y1="373.06" x2="181.31" y2="372.98"/><line class="b" x1="181.31" y1="372.98" x2="180.22" y2="372.85"/><line class="b" x1="180.22" y1="372.85" x2="179.13" y2="372.65"/><line class="b" x1="179.13" y1="372.65" x2="178.8" y2="372.62"/><line class="b" x1="178.8" y1="372.62" x2="178.48" y2="372.67"/><line class="b" x1="178.48" y1="372.67" x2="178.17" y2="372.78"/><line class="b" x1="178.17" y1="372.78" x2="177.89" y2="372.96"/><line class="b" x1="177.89" y1="372.96" x2="177.66" y2="373.2"/><line class="b" x1="177.66" y1="373.2" x2="177.49" y2="373.48"/><line class="b" x1="177.49" y1="373.48" x2="177.38" y2="373.78"/><line class="b" x1="177.38" y1="373.78" x2="177.35" y2="374.11"/><line class="b" x1="177.35" y1="374.11" x2="177.36" y2="374.58"/><line class="b" x1="177.36" y1="374.58" x2="177.4" y2="375.05"/><line class="b" x1="177.4" y1="375.05" x2="177.47" y2="375.52"/><line class="b" x1="177.47" y1="375.52" x2="177.57" y2="375.98"/><line class="b" x1="177.57" y1="375.98" x2="177.69" y2="376.44"/><line class="b" x1="177.69" y1="376.44" x2="177.84" y2="376.89"/><line class="b" x1="177.84" y1="376.89" x2="178.02" y2="377.33"/><line class="b" x1="178.02" y1="377.33" x2="178.22" y2="377.75"/><line class="b" x1="178.22" y1="377.75" x2="188.8" y2="377.75"/><path class="b" d="M183.51,359.86a3.89,3.89,0,0,1,2.3.76"/><path class="b" d="M185.81,360.62a7.27,7.27,0,0,1,2.45,5.45c0,.13,0,.27,0,.4"/><path class="b" d="M188.25,366.47v.29a12.08,12.08,0,0,1-1.65,6.09"/><path class="b" d="M180.42,372.85a12.08,12.08,0,0,1-1.65-6.09,2.81,2.81,0,0,1,0-.29"/><path class="b" d="M178.78,366.47c0-.13,0-.27,0-.4a7.3,7.3,0,0,1,2.45-5.45"/><path class="b" d="M181.21,360.62a3.89,3.89,0,0,1,2.3-.76"/><line class="b" x1="183.51" y1="372.85" x2="186.6" y2="372.85"/><line class="b" x1="180.42" y1="372.85" x2="183.51" y2="372.85"/><line class="b" x1="188.31" y1="364.9" x2="187.96" y2="363.49"/><line class="b" x1="187.96" y1="363.49" x2="187.42" y2="362.16"/><line class="b" x1="187.42" y1="362.16" x2="186.7" y2="361.11"/><line class="b" x1="186.7" y1="361.11" x2="185.76" y2="360.3"/><line class="b" x1="185.76" y1="360.3" x2="184.67" y2="359.79"/><line class="b" x1="184.67" y1="359.79" x2="183.51" y2="359.61"/><line class="b" x1="183.51" y1="359.61" x2="182.35" y2="359.79"/><line class="b" x1="182.35" y1="359.79" x2="181.26" y2="360.3"/><line class="b" x1="181.26" y1="360.3" x2="180.33" y2="361.11"/><line class="b" x1="180.33" y1="361.11" x2="179.6" y2="362.16"/><line class="b" x1="179.6" y1="362.16" x2="179.06" y2="363.49"/><line class="b" x1="179.06" y1="363.49" x2="178.71" y2="364.9"/><line class="b" x1="178.71" y1="364.9" x2="178.55" y2="366.36"/><line class="b" x1="178.55" y1="366.36" x2="178.6" y2="367.82"/><line class="b" x1="178.6" y1="367.82" x2="179.52" y2="377.75"/><line class="b" x1="179.52" y1="377.75" x2="187.51" y2="377.75"/><line class="b" x1="187.51" y1="377.75" x2="188.42" y2="367.82"/><line class="b" x1="188.42" y1="367.82" x2="188.47" y2="366.36"/><line class="b" x1="188.47" y1="366.36" x2="188.31" y2="364.9"/><line class="b" x1="181.9" y1="377.75" x2="181.9" y2="378.32"/><line class="b" x1="185.13" y1="377.75" x2="185.13" y2="378.32"/><line class="b" x1="182.37" y1="378.32" x2="181.9" y2="378.32"/><line class="b" x1="183.06" y1="378.32" x2="182.37" y2="378.32"/><line class="b" x1="184.65" y1="378.32" x2="183.97" y2="378.32"/><line class="b" x1="185.13" y1="378.32" x2="184.65" y2="378.32"/><line class="b" x1="182.37" y1="377.75" x2="181.9" y2="377.75"/><line class="b" x1="183.06" y1="377.75" x2="182.37" y2="377.75"/><line class="b" x1="184.65" y1="377.75" x2="183.97" y2="377.75"/><line class="b" x1="185.13" y1="377.75" x2="184.65" y2="377.75"/><line class="b" x1="183.06" y1="377.75" x2="183.06" y2="378.32"/><line class="b" x1="183.97" y1="377.75" x2="183.97" y2="378.32"/><line class="b" x1="183.19" y1="378.32" x2="183.06" y2="378.32"/><line class="b" x1="183.51" y1="378.32" x2="183.19" y2="378.32"/><line class="b" x1="183.83" y1="378.32" x2="183.51" y2="378.32"/><line class="b" x1="183.97" y1="378.32" x2="183.83" y2="378.32"/><line class="b" x1="183.19" y1="377.75" x2="183.06" y2="377.75"/><line class="b" x1="183.51" y1="377.75" x2="183.19" y2="377.75"/><line class="b" x1="183.83" y1="377.75" x2="183.51" y2="377.75"/><line class="b" x1="183.97" y1="377.75" x2="183.83" y2="377.75"/><line class="b" x1="191.96" y1="335.39" x2="191.96" y2="334.82"/><line class="b" x1="174.44" y1="300.33" x2="174.44" y2="299.28"/><line class="b" x1="174.44" y1="300.33" x2="174.44" y2="299.28"/><line class="b" x1="173.88" y1="300.33" x2="174.44" y2="300.33"/><line class="b" x1="173.74" y1="300.33" x2="173.88" y2="300.33"/><line class="b" x1="170.48" y1="300.33" x2="170.48" y2="299.28"/><line class="b" x1="170.48" y1="300.33" x2="170.48" y2="299.28"/><line class="b" x1="173.88" y1="300.33" x2="174.44" y2="300.33"/><line class="b" x1="173.74" y1="300.33" x2="173.88" y2="300.33"/><line class="b" x1="171.04" y1="300.33" x2="173.74" y2="300.33"/><line class="b" x1="171.04" y1="300.33" x2="173.74" y2="300.33"/><line class="b" x1="170.48" y1="300.33" x2="171.04" y2="300.33"/><line class="b" x1="170.48" y1="300.33" x2="171.04" y2="300.33"/><line class="b" x1="157.1" y1="302.26" x2="157.1" y2="301.12"/><line class="b" x1="170.48" y1="302.26" x2="157.1" y2="302.26"/><line class="b" x1="170.48" y1="301.12" x2="170.48" y2="302.26"/><line class="b" x1="157.1" y1="301.12" x2="170.48" y2="301.12"/><line class="b" x1="157.1" y1="326.75" x2="157.1" y2="327.88"/><line class="b" x1="170.48" y1="326.75" x2="157.1" y2="326.75"/><line class="b" x1="157.1" y1="327.88" x2="170.48" y2="327.88"/><line class="b" x1="173.74" y1="300.33" x2="173.74" y2="301.04"/><line class="b" x1="170.48" y1="300.33" x2="173.74" y2="300.33"/><line class="b" x1="170.48" y1="300.7" x2="170.48" y2="300.33"/><path class="b" d="M170.48,314.5a13.38,13.38,0,0,1-13.38-13.38"/><path class="b" d="M157.1,327.88a13.38,13.38,0,0,1,13.38-13.38"/><line class="b" x1="169.94" y1="300.7" x2="170.48" y2="300.7"/><line class="b" x1="169.94" y1="299.28" x2="169.94" y2="300.7"/><line class="b" x1="170.48" y1="299.28" x2="169.94" y2="299.28"/><line class="b" x1="170.48" y1="300.33" x2="170.48" y2="299.28"/><line class="b" x1="174.44" y1="300.7" x2="174.98" y2="300.7"/><line class="b" x1="174.44" y1="299.28" x2="174.44" y2="300.7"/><line class="b" x1="174.98" y1="299.28" x2="174.44" y2="299.28"/><line class="b" x1="174.98" y1="300.7" x2="174.98" y2="299.28"/><line class="b" x1="173.74" y1="300.33" x2="173.74" y2="301.04"/><line class="b" x1="174.44" y1="300.33" x2="173.74" y2="300.33"/><line class="b" x1="174.44" y1="356.88" x2="174.44" y2="357.93"/><line class="b" x1="174.44" y1="356.88" x2="174.44" y2="357.93"/><line class="b" x1="173.88" y1="356.88" x2="174.44" y2="356.88"/><line class="b" x1="173.74" y1="356.88" x2="173.88" y2="356.88"/><line class="b" x1="170.48" y1="356.88" x2="170.48" y2="357.93"/><line class="b" x1="170.48" y1="356.88" x2="170.48" y2="357.93"/><line class="b" x1="173.88" y1="356.88" x2="174.44" y2="356.88"/><line class="b" x1="173.74" y1="356.88" x2="173.88" y2="356.88"/><line class="b" x1="171.04" y1="356.88" x2="173.74" y2="356.88"/><line class="b" x1="171.04" y1="356.88" x2="173.74" y2="356.88"/><line class="b" x1="170.48" y1="356.88" x2="171.04" y2="356.88"/><line class="b" x1="170.48" y1="356.88" x2="171.04" y2="356.88"/><line class="b" x1="152.62" y1="339.37" x2="152.62" y2="338.23"/><line class="b" x1="170.48" y1="339.37" x2="152.62" y2="339.37"/><line class="b" x1="152.62" y1="338.23" x2="170.48" y2="338.23"/><line class="b" x1="173.74" y1="356.88" x2="173.74" y2="356.18"/><line class="b" x1="170.48" y1="356.88" x2="173.74" y2="356.88"/><line class="b" x1="170.48" y1="356.52" x2="170.48" y2="356.88"/><path class="b" d="M170.48,356.09a17.85,17.85,0,0,1-17.86-17.86"/><line class="b" x1="169.94" y1="356.52" x2="170.48" y2="356.52"/><line class="b" x1="169.94" y1="357.93" x2="169.94" y2="356.52"/><line class="b" x1="170.48" y1="357.93" x2="169.94" y2="357.93"/><line class="b" x1="170.48" y1="356.88" x2="170.48" y2="357.93"/><line class="b" x1="174.44" y1="356.52" x2="174.98" y2="356.52"/><line class="b" x1="174.44" y1="357.93" x2="174.44" y2="356.52"/><line class="b" x1="174.98" y1="357.93" x2="174.44" y2="357.93"/><line class="b" x1="174.98" y1="356.52" x2="174.98" y2="357.93"/><line class="b" x1="173.74" y1="356.88" x2="173.74" y2="356.18"/><line class="b" x1="174.44" y1="356.88" x2="173.74" y2="356.88"/><line class="b" x1="170.48" y1="356.88" x2="170.48" y2="357.93"/><line class="b" x1="170.48" y1="299.28" x2="170.48" y2="300.33"/><line class="b" x1="173.88" y1="296.02" x2="174.44" y2="296.02"/><line class="b" x1="171.04" y1="296.02" x2="173.88" y2="296.02"/><line class="b" x1="170.48" y1="296.02" x2="171.04" y2="296.02"/><line class="b" x1="174.44" y1="300.33" x2="174.44" y2="299.28"/><line class="b" x1="174.44" y1="357.93" x2="174.44" y2="356.88"/><line class="b" x1="170.48" y1="300.33" x2="171.04" y2="300.33"/><line class="b" x1="171.04" y1="300.33" x2="173.74" y2="300.33"/><line class="b" x1="173.74" y1="300.33" x2="173.88" y2="300.33"/><line class="b" x1="173.88" y1="300.33" x2="174.44" y2="300.33"/><line class="b" x1="170.48" y1="356.88" x2="171.04" y2="356.88"/><line class="b" x1="171.04" y1="356.88" x2="173.74" y2="356.88"/><line class="b" x1="173.74" y1="356.88" x2="173.88" y2="356.88"/><line class="b" x1="173.88" y1="356.88" x2="174.44" y2="356.88"/><line class="b" x1="171.04" y1="296.02" x2="171.04" y2="300.33"/><line class="b" x1="173.88" y1="300.33" x2="173.88" y2="296.02"/><line class="b" x1="186.26" y1="128.23" x2="186.26" y2="289.21"/><line class="b" x1="147.59" y1="377.13" x2="148.14" y2="373.92"/><line class="b" x1="146.62" y1="376.97" x2="147.64" y2="377.14"/><line class="b" x1="147.59" y1="377.13" x2="148.14" y2="373.92"/><line class="b" x1="146.86" y1="372.59" x2="144.56" y2="374.9"/><line class="b" x1="148.2" y1="373.93" x2="146.86" y2="372.59"/><line class="b" x1="144.56" y1="374.9" x2="146.62" y2="376.97"/><line class="b" x1="128.5" y1="390.95" x2="126.2" y2="393.26"/><line class="b" x1="120.29" y1="393.26" x2="120.29" y2="390"/><line class="b" x1="126.63" y1="388.22" x2="125.89" y2="388.96"/><line class="b" x1="126.63" y1="388.22" x2="125.89" y2="388.96"/><line class="b" x1="128.93" y1="390.53" x2="128.19" y2="391.27"/><line class="b" x1="128.93" y1="390.53" x2="128.19" y2="391.27"/><line class="b" x1="128.93" y1="390.53" x2="126.63" y2="388.22"/><line class="b" x1="128.93" y1="390.53" x2="126.63" y2="388.22"/><line class="b" x1="141.9" y1="372.95" x2="142.64" y2="372.21"/><line class="b" x1="141.9" y1="372.95" x2="142.64" y2="372.21"/><line class="b" x1="144.21" y1="375.25" x2="144.95" y2="374.51"/><line class="b" x1="144.21" y1="375.25" x2="144.95" y2="374.51"/><line class="b" x1="144.21" y1="375.25" x2="141.9" y2="372.95"/><line class="b" x1="144.21" y1="375.25" x2="141.9" y2="372.95"/><line class="b" x1="113.84" y1="372.7" x2="113.04" y2="373.51"/><line class="b" x1="127.99" y1="386.86" x2="113.84" y2="372.7"/><line class="b" x1="127.19" y1="387.66" x2="127.99" y2="386.86"/><line class="b" x1="113.04" y1="373.51" x2="127.19" y2="387.66"/><line class="b" x1="129.19" y1="390.27" x2="128.93" y2="390.53"/><line class="b" x1="126.63" y1="388.22" x2="126.89" y2="387.96"/><line class="b" x1="128.93" y1="390.53" x2="126.63" y2="388.22"/><line class="b" x1="144.21" y1="375.25" x2="143.95" y2="375.51"/><line class="b" x1="141.9" y1="372.95" x2="144.21" y2="375.25"/><line class="b" x1="141.64" y1="373.21" x2="141.9" y2="372.95"/><path class="b" d="M113,373.51a20,20,0,0,1,28.3,0"/><line class="b" x1="129.19" y1="390.27" x2="129.57" y2="390.65"/><line class="b" x1="128.19" y1="391.27" x2="128.93" y2="390.53"/><line class="b" x1="128.57" y1="391.65" x2="128.19" y2="391.27"/><line class="b" x1="129.57" y1="390.65" x2="128.57" y2="391.65"/><line class="b" x1="144.33" y1="375.89" x2="143.95" y2="375.51"/><line class="b" x1="145.33" y1="374.89" x2="144.33" y2="375.89"/><line class="b" x1="144.95" y1="374.51" x2="145.33" y2="374.89"/><line class="b" x1="144.21" y1="375.25" x2="144.95" y2="374.51"/><line class="b" x1="126.51" y1="387.58" x2="126.89" y2="387.96"/><line class="b" x1="125.5" y1="388.58" x2="126.51" y2="387.58"/><line class="b" x1="125.89" y1="388.96" x2="125.5" y2="388.58"/><line class="b" x1="126.63" y1="388.22" x2="125.89" y2="388.96"/><line class="b" x1="141.64" y1="373.21" x2="141.26" y2="372.83"/><line class="b" x1="142.64" y1="372.21" x2="141.9" y2="372.95"/><line class="b" x1="142.26" y1="371.82" x2="142.64" y2="372.21"/><line class="b" x1="141.26" y1="372.83" x2="142.26" y2="371.82"/><line class="b" x1="144.21" y1="375.25" x2="144.95" y2="374.51"/><line class="b" x1="126.2" y1="393.26" x2="128.93" y2="390.53"/><line class="b" x1="126.63" y1="388.22" x2="125.89" y2="388.96"/><line class="b" x1="142.64" y1="372.21" x2="141.9" y2="372.95"/><line class="b" x1="144.21" y1="375.25" x2="141.9" y2="372.95"/><line class="b" x1="128.93" y1="390.53" x2="126.63" y2="388.22"/><line class="b" x1="128.5" y1="390.95" x2="128.19" y2="391.27"/><line class="b" x1="146.86" y1="296.02" x2="143.6" y2="296.02"/><line class="b" x1="121.03" y1="511.18" x2="121.03" y2="512.6"/><line class="b" x1="119.61" y1="511.18" x2="87.56" y2="511.18"/><line class="b" x1="87.56" y1="512.6" x2="119.61" y2="512.6"/><line class="b" x1="87.56" y1="511.89" x2="119.61" y2="511.89"/><line class="b" x1="121.03" y1="512.6" x2="121.54" y2="512.6"/><line class="b" x1="119.61" y1="512.6" x2="121.03" y2="512.6"/><line class="b" x1="119.61" y1="511.18" x2="119.61" y2="512.6"/><line class="b" x1="121.03" y1="511.18" x2="119.61" y2="511.18"/><line class="b" x1="86.96" y1="508.91" x2="120.2" y2="508.91"/><line class="b" x1="115.58" y1="512.6" x2="121.54" y2="512.6"/><line class="b" x1="99.58" y1="512.6" x2="107.58" y2="512.6"/><line class="b" x1="86.96" y1="508.91" x2="120.2" y2="508.91"/><line class="b" x1="85.31" y1="513.45" x2="121.85" y2="513.45"/><line class="b" x1="121.03" y1="511.18" x2="121.94" y2="512.27"/><line class="b" x1="143.13" y1="492.64" x2="122.11" y2="510.27"/><line class="b" x1="123.03" y1="511.36" x2="144.04" y2="493.72"/><line class="b" x1="122.57" y1="510.81" x2="143.58" y2="493.18"/><line class="b" x1="121.54" y1="512.6" x2="121.94" y2="512.27"/><line class="b" x1="122.11" y1="510.27" x2="121.03" y2="511.18"/><line class="b" x1="123.03" y1="511.36" x2="122.11" y2="510.27"/><line class="b" x1="121.94" y1="512.27" x2="123.03" y2="511.36"/><line class="b" x1="120.2" y1="508.91" x2="142.76" y2="489.99"/><line class="b" x1="141.96" y1="495.47" x2="145.13" y2="492.81"/><line class="b" x1="130.27" y1="505.28" x2="136.4" y2="500.13"/><line class="b" x1="121.54" y1="512.6" x2="124.71" y2="509.94"/><line class="b" x1="120.2" y1="508.91" x2="142.76" y2="489.99"/><line class="b" x1="121.85" y1="513.45" x2="145.67" y2="493.46"/><line class="b" x1="197.16" y1="489.92" x2="195.93" y2="489.92"/><line class="b" x1="198.77" y1="489.92" x2="195.93" y2="489.92"/><line class="b" x1="147.38" y1="289.21" x2="147.38" y2="296.02"/><line class="b" x1="135.78" y1="296.02" x2="135.78" y2="289.21"/><line class="b" x1="143.6" y1="296.02" x2="146.86" y2="296.02"/><line class="b" x1="189.12" y1="489.92" x2="190.17" y2="489.92"/><line class="b" x1="189.12" y1="489.92" x2="190.17" y2="489.92"/><line class="b" x1="189.12" y1="486.38" x2="189.12" y2="489.92"/><line class="b" x1="189.12" y1="483.12" x2="190.17" y2="483.12"/><line class="b" x1="189.12" y1="483.12" x2="190.17" y2="483.12"/><line class="b" x1="189.12" y1="486.38" x2="189.12" y2="489.92"/><line class="b" x1="189.12" y1="483.12" x2="189.12" y2="486.38"/><line class="b" x1="189.12" y1="483.12" x2="189.12" y2="486.38"/><line class="b" x1="167.52" y1="489.92" x2="166.48" y2="489.92"/><line class="b" x1="167.52" y1="489.92" x2="166.48" y2="489.92"/><line class="b" x1="167.52" y1="486.38" x2="167.52" y2="489.92"/><line class="b" x1="167.52" y1="483.12" x2="166.48" y2="483.12"/><line class="b" x1="167.52" y1="483.12" x2="166.48" y2="483.12"/><line class="b" x1="167.52" y1="486.38" x2="167.52" y2="489.92"/><line class="b" x1="167.52" y1="483.12" x2="167.52" y2="486.38"/><line class="b" x1="167.52" y1="483.12" x2="167.52" y2="486.38"/><line class="b" x1="187.2" y1="463.1" x2="188.33" y2="463.1"/><line class="b" x1="187.2" y1="483.12" x2="187.2" y2="463.1"/><line class="b" x1="188.33" y1="483.12" x2="187.2" y2="483.12"/><line class="b" x1="188.33" y1="463.1" x2="188.33" y2="483.12"/><line class="b" x1="187.99" y1="486.38" x2="189.12" y2="486.38"/><line class="b" x1="187.99" y1="484.25" x2="187.99" y2="486.38"/><line class="b" x1="188.33" y1="484.25" x2="187.99" y2="484.25"/><line class="b" x1="188.33" y1="483.12" x2="188.33" y2="484.25"/><line class="b" x1="189.12" y1="483.12" x2="188.33" y2="483.12"/><line class="b" x1="167.52" y1="486.38" x2="168.66" y2="486.38"/><line class="b" x1="168.32" y1="483.12" x2="167.52" y2="483.12"/><line class="b" x1="168.32" y1="484.25" x2="168.32" y2="483.12"/><line class="b" x1="168.66" y1="484.25" x2="168.32" y2="484.25"/><line class="b" x1="168.66" y1="486.38" x2="168.66" y2="484.25"/><path class="b" d="M168.32,483.12a20,20,0,0,1,20-20"/><line class="b" x1="188.76" y1="483.12" x2="188.76" y2="482.58"/><line class="b" x1="190.17" y1="483.12" x2="188.76" y2="483.12"/><line class="b" x1="190.17" y1="482.58" x2="190.17" y2="483.12"/><line class="b" x1="188.76" y1="482.58" x2="190.17" y2="482.58"/><line class="b" x1="167.89" y1="482.58" x2="167.89" y2="483.12"/><line class="b" x1="166.48" y1="482.58" x2="167.89" y2="482.58"/><line class="b" x1="166.48" y1="483.12" x2="166.48" y2="482.58"/><line class="b" x1="167.89" y1="483.12" x2="166.48" y2="483.12"/><line class="b" x1="188.76" y1="490.46" x2="188.76" y2="489.92"/><line class="b" x1="190.17" y1="490.46" x2="188.76" y2="490.46"/><line class="b" x1="190.17" y1="489.92" x2="190.17" y2="490.46"/><line class="b" x1="188.76" y1="489.92" x2="190.17" y2="489.92"/><line class="b" x1="188.42" y1="486.38" x2="189.12" y2="486.38"/><line class="b" x1="188.42" y1="489.92" x2="188.42" y2="486.38"/><line class="b" x1="189.12" y1="489.92" x2="188.42" y2="489.92"/><line class="b" x1="167.89" y1="489.92" x2="167.89" y2="490.46"/><line class="b" x1="166.48" y1="489.92" x2="167.89" y2="489.92"/><line class="b" x1="166.48" y1="490.46" x2="166.48" y2="489.92"/><line class="b" x1="167.89" y1="490.46" x2="166.48" y2="490.46"/><line class="b" x1="167.52" y1="486.38" x2="168.23" y2="486.38"/><line class="b" x1="168.23" y1="489.92" x2="167.52" y2="489.92"/><line class="b" x1="168.23" y1="486.38" x2="168.23" y2="489.92"/><line class="b" x1="131.99" y1="503.83" x2="138.12" y2="498.69"/><line class="b" x1="121.54" y1="512.6" x2="125.86" y2="508.97"/><line class="b" x1="115.58" y1="512.6" x2="121.54" y2="512.6"/><line class="b" x1="99.58" y1="512.6" x2="107.58" y2="512.6"/><line class="b" x1="131.94" y1="145.24" x2="169.26" y2="145.24"/><line class="b" x1="134.86" y1="218.39" x2="130.73" y2="218.39"/><line class="b" x1="145.19" y1="218.39" x2="141.05" y2="218.39"/><line class="b" x1="134.86" y1="201.95" x2="130.73" y2="201.95"/><line class="b" x1="145.19" y1="201.95" x2="141.05" y2="201.95"/><line class="b" x1="146.32" y1="218.39" x2="146.32" y2="201.95"/><line class="b" x1="146.32" y1="201.95" x2="132.15" y2="201.95"/><line class="b" x1="132.15" y1="218.39" x2="146.32" y2="218.39"/><line class="b" x1="130.73" y1="243.75" x2="130.73" y2="176.6"/><line class="b" x1="130.73" y1="176.6" x2="113.72" y2="176.6"/><line class="b" x1="113.72" y1="176.6" x2="113.72" y2="243.75"/><line class="b" x1="113.72" y1="243.75" x2="130.73" y2="243.75"/><line class="b" x1="130.73" y1="176.6" x2="130.73" y2="243.75"/><line class="b" x1="130.73" y1="243.75" x2="147.74" y2="243.75"/><line class="b" x1="147.74" y1="243.75" x2="147.74" y2="176.6"/><line class="b" x1="147.74" y1="176.6" x2="130.73" y2="176.6"/><line class="b" x1="141.95" y1="131.92" x2="141.95" y2="141.84"/><line class="b" x1="151.44" y1="131.92" x2="141.95" y2="131.92"/><line class="b" x1="151.44" y1="141.84" x2="151.44" y2="131.92"/><line class="b" x1="141.95" y1="141.84" x2="151.44" y2="141.84"/><line class="b" x1="140.53" y1="143.26" x2="163.21" y2="143.26"/><line class="b" x1="163.21" y1="143.26" x2="163.21" y2="129.08"/><line class="b" x1="163.21" y1="129.08" x2="140.53" y2="129.08"/><line class="b" x1="140.53" y1="129.08" x2="140.53" y2="143.26"/><line class="b" x1="186.26" y1="263.65" x2="165" y2="263.65"/><line class="b" x1="186.26" y1="263.65" x2="186.26" y2="128.23"/><line class="b" x1="186.26" y1="128.23" x2="131.94" y2="128.23"/><line class="b" x1="131.94" y1="128.23" x2="131.94" y2="145.24"/><line class="b" x1="169.26" y1="145.24" x2="169.26" y2="263.65"/><line class="b" x1="169.26" y1="263.65" x2="186.26" y2="263.65"/><line class="b" x1="130.29" y1="122.96" x2="130.29" y2="128.23"/><line class="b" x1="130.72" y1="128.23" x2="130.29" y2="128.23"/><line class="b" x1="130.72" y1="119.13" x2="130.72" y2="119.7"/><line class="b" x1="130.72" y1="122.05" x2="130.72" y2="122.96"/><line class="b" x1="130.72" y1="122.05" x2="130.72" y2="122.96"/><line class="b" x1="130.72" y1="119.7" x2="130.72" y2="122.05"/><line class="b" x1="130.72" y1="119.7" x2="130.72" y2="122.05"/><line class="b" x1="121.08" y1="118.96" x2="111.01" y2="113.47"/><line class="b" x1="108.86" y1="111.49" x2="108.18" y2="112.73"/><line class="b" x1="111.35" y1="112.84" x2="108.86" y2="111.49"/><line class="b" x1="110.67" y1="114.09" x2="111.35" y2="112.84"/><line class="b" x1="108.18" y1="112.73" x2="110.67" y2="114.09"/><line class="b" x1="123.23" y1="120.95" x2="123.91" y2="119.7"/><line class="b" x1="120.75" y1="119.59" x2="123.23" y2="120.95"/><line class="b" x1="121.43" y1="118.34" x2="120.75" y2="119.59"/><line class="b" x1="123.91" y1="119.7" x2="121.43" y2="118.34"/><line class="b" x1="105.35" y1="113.47" x2="95.28" y2="118.96"/><line class="b" x1="94.94" y1="118.34" x2="92.45" y2="119.7"/><line class="b" x1="95.62" y1="119.59" x2="94.94" y2="118.34"/><line class="b" x1="93.13" y1="120.95" x2="95.62" y2="119.59"/><line class="b" x1="108.18" y1="112.73" x2="107.5" y2="111.49"/><line class="b" x1="105.69" y1="114.09" x2="108.18" y2="112.73"/><line class="b" x1="105.02" y1="112.84" x2="105.69" y2="114.09"/><line class="b" x1="107.5" y1="111.49" x2="105.02" y2="112.84"/><line class="b" x1="129.58" y1="122.96" x2="130.72" y2="122.96"/><line class="b" x1="129.58" y1="119.7" x2="129.58" y2="122.96"/><line class="b" x1="130.72" y1="119.7" x2="129.58" y2="119.7"/><line class="b" x1="130.72" y1="122.96" x2="130.72" y2="119.7"/><line class="b" x1="121.08" y1="118.96" x2="111.01" y2="113.47"/><line class="b" x1="111.01" y1="113.47" x2="110.67" y2="114.09"/><line class="b" x1="110.67" y1="114.09" x2="120.75" y2="119.59"/><line class="b" x1="120.75" y1="119.59" x2="121.08" y2="118.96"/><line class="b" x1="121.43" y1="118.34" x2="111.35" y2="112.84"/><line class="b" x1="111.35" y1="112.84" x2="111.01" y2="113.47"/><line class="b" x1="111.01" y1="113.47" x2="121.08" y2="118.96"/><line class="b" x1="121.08" y1="118.96" x2="121.43" y2="118.34"/><line class="b" x1="105.35" y1="113.47" x2="95.28" y2="118.96"/><line class="b" x1="95.28" y1="118.96" x2="95.62" y2="119.59"/><line class="b" x1="95.62" y1="119.59" x2="105.69" y2="114.09"/><line class="b" x1="105.69" y1="114.09" x2="105.35" y2="113.47"/><line class="b" x1="105.02" y1="112.84" x2="94.94" y2="118.34"/><line class="b" x1="94.94" y1="118.34" x2="95.28" y2="118.96"/><line class="b" x1="95.28" y1="118.96" x2="105.35" y2="113.47"/><line class="b" x1="105.35" y1="113.47" x2="105.02" y2="112.84"/><line class="b" x1="169.4" y1="121.12" x2="169.4" y2="128.23"/><line class="b" x1="169.83" y1="128.23" x2="169.4" y2="128.23"/><line class="b" x1="136.24" y1="121.12" x2="136.24" y2="128.23"/><line class="b" x1="135.81" y1="128.23" x2="136.24" y2="128.23"/><line class="b" x1="135.81" y1="119.13" x2="135.81" y2="119.7"/><line class="b" x1="135.81" y1="119.7" x2="135.81" y2="121.12"/><line class="b" x1="135.81" y1="119.7" x2="135.81" y2="121.12"/><line class="b" x1="167.7" y1="121.12" x2="154.24" y2="121.12"/><line class="b" x1="154.24" y1="119.7" x2="167.7" y2="119.7"/><line class="b" x1="154.24" y1="120.41" x2="167.7" y2="120.41"/><line class="b" x1="167.7" y1="119.7" x2="169.83" y2="119.7"/><line class="b" x1="167.7" y1="121.12" x2="167.7" y2="119.7"/><line class="b" x1="169.83" y1="121.12" x2="167.7" y2="121.12"/><line class="b" x1="154.24" y1="121.12" x2="152.82" y2="121.12"/><line class="b" x1="154.24" y1="119.7" x2="154.24" y2="121.12"/><line class="b" x1="152.82" y1="119.7" x2="154.24" y2="119.7"/><line class="b" x1="152.11" y1="121.12" x2="137.23" y2="121.12"/><line class="b" x1="137.23" y1="119.7" x2="152.11" y2="119.7"/><line class="b" x1="137.23" y1="120.41" x2="152.11" y2="120.41"/><line class="b" x1="152.11" y1="119.7" x2="152.82" y2="119.7"/><line class="b" x1="152.11" y1="121.12" x2="152.11" y2="119.7"/><line class="b" x1="152.82" y1="121.12" x2="152.11" y2="121.12"/><line class="b" x1="137.23" y1="121.12" x2="135.81" y2="121.12"/><line class="b" x1="137.23" y1="119.7" x2="137.23" y2="121.12"/><line class="b" x1="135.81" y1="119.7" x2="137.23" y2="119.7"/><line class="b" x1="136.24" y1="128.23" x2="169.4" y2="128.23"/><line class="b" x1="164.82" y1="119.13" x2="169.83" y2="119.13"/><line class="b" x1="148.82" y1="119.13" x2="156.82" y2="119.13"/><line class="b" x1="135.81" y1="119.13" x2="140.82" y2="119.13"/><line class="b" x1="135.81" y1="118.28" x2="169.83" y2="118.28"/><line class="b" x1="135.81" y1="119.13" x2="135.81" y2="118.28"/><line class="b" x1="130.72" y1="128.23" x2="135.81" y2="128.23"/><line class="b" x1="130.72" y1="122.96" x2="130.29" y2="122.96"/><line class="b" x1="130.72" y1="128.23" x2="130.29" y2="128.23"/><line class="b" x1="130.29" y1="122.96" x2="130.29" y2="128.23"/><line class="b" x1="135.81" y1="121.12" x2="136.24" y2="121.12"/><line class="b" x1="135.81" y1="128.23" x2="136.24" y2="128.23"/><line class="b" x1="136.24" y1="121.12" x2="136.24" y2="128.23"/><line class="b" x1="169.83" y1="121.12" x2="169.4" y2="121.12"/><line class="b" x1="169.83" y1="128.23" x2="169.4" y2="128.23"/><line class="b" x1="169.4" y1="121.12" x2="169.4" y2="128.23"/><line class="b" x1="50.88" y1="116.3" x2="51.44" y2="116.3"/><line class="b" x1="49.74" y1="116.3" x2="49.74" y2="119.13"/><line class="b" x1="49.74" y1="119.13" x2="52.58" y2="119.13"/><line class="b" x1="52.58" y1="119.13" x2="52.58" y2="116.3"/><line class="b" x1="52.58" y1="116.3" x2="49.74" y2="116.3"/><line class="b" x1="60.28" y1="122.96" x2="60.28" y2="128.23"/><line class="b" x1="59.85" y1="128.23" x2="60.28" y2="128.23"/><line class="b" x1="59.85" y1="119.13" x2="59.85" y2="119.7"/><line class="b" x1="59.85" y1="122.05" x2="59.85" y2="122.96"/><line class="b" x1="59.85" y1="122.05" x2="59.85" y2="122.96"/><line class="b" x1="59.85" y1="119.7" x2="59.85" y2="122.05"/><line class="b" x1="59.85" y1="119.7" x2="59.85" y2="122.05"/><line class="b" x1="92.45" y1="119.7" x2="93.13" y2="120.95"/><line class="b" x1="89.62" y1="118.96" x2="79.54" y2="113.47"/><line class="b" x1="77.4" y1="111.49" x2="76.72" y2="112.73"/><line class="b" x1="79.88" y1="112.84" x2="77.4" y2="111.49"/><line class="b" x1="79.21" y1="114.09" x2="79.88" y2="112.84"/><line class="b" x1="76.72" y1="112.73" x2="79.21" y2="114.09"/><line class="b" x1="91.77" y1="120.95" x2="92.45" y2="119.7"/><line class="b" x1="89.28" y1="119.59" x2="91.77" y2="120.95"/><line class="b" x1="89.96" y1="118.34" x2="89.28" y2="119.59"/><line class="b" x1="92.45" y1="119.7" x2="89.96" y2="118.34"/><line class="b" x1="73.89" y1="113.47" x2="63.81" y2="118.96"/><line class="b" x1="60.98" y1="119.7" x2="61.67" y2="120.95"/><line class="b" x1="63.47" y1="118.34" x2="60.98" y2="119.7"/><line class="b" x1="64.15" y1="119.59" x2="63.47" y2="118.34"/><line class="b" x1="61.67" y1="120.95" x2="64.15" y2="119.59"/><line class="b" x1="76.72" y1="112.73" x2="76.04" y2="111.49"/><line class="b" x1="74.23" y1="114.09" x2="76.72" y2="112.73"/><line class="b" x1="73.55" y1="112.84" x2="74.23" y2="114.09"/><line class="b" x1="76.04" y1="111.49" x2="73.55" y2="112.84"/><line class="b" x1="59.85" y1="122.96" x2="60.98" y2="122.96"/><line class="b" x1="59.85" y1="119.7" x2="59.85" y2="122.96"/><line class="b" x1="60.98" y1="119.7" x2="59.85" y2="119.7"/><line class="b" x1="60.98" y1="122.96" x2="60.98" y2="119.7"/><line class="b" x1="89.62" y1="118.96" x2="79.54" y2="113.47"/><line class="b" x1="79.54" y1="113.47" x2="79.21" y2="114.09"/><line class="b" x1="79.21" y1="114.09" x2="89.28" y2="119.59"/><line class="b" x1="89.28" y1="119.59" x2="89.62" y2="118.96"/><line class="b" x1="89.96" y1="118.34" x2="79.88" y2="112.84"/><line class="b" x1="79.88" y1="112.84" x2="79.54" y2="113.47"/><line class="b" x1="79.54" y1="113.47" x2="89.62" y2="118.96"/><line class="b" x1="89.62" y1="118.96" x2="89.96" y2="118.34"/><line class="b" x1="73.89" y1="113.47" x2="63.81" y2="118.96"/><line class="b" x1="63.81" y1="118.96" x2="64.15" y2="119.59"/><line class="b" x1="64.15" y1="119.59" x2="74.23" y2="114.09"/><line class="b" x1="74.23" y1="114.09" x2="73.89" y2="113.47"/><line class="b" x1="73.55" y1="112.84" x2="63.47" y2="118.34"/><line class="b" x1="63.47" y1="118.34" x2="63.81" y2="118.96"/><line class="b" x1="63.81" y1="118.96" x2="73.89" y2="113.47"/><line class="b" x1="73.89" y1="113.47" x2="73.55" y2="112.84"/><line class="b" x1="49.72" y1="197.32" x2="49.72" y2="260.17"/><line class="b" x1="64.74" y1="491.6" x2="66.27" y2="489.92"/><line class="b" x1="63.78" y1="492.64" x2="64.74" y2="491.6"/><line class="b" x1="63.78" y1="492.64" x2="64.74" y2="491.6"/><line class="b" x1="86.2" y1="511.21" x2="85.24" y2="512.25"/><line class="b" x1="85.15" y1="510.25" x2="65.79" y2="492.55"/><line class="b" x1="64.83" y1="493.6" x2="84.19" y2="511.29"/><line class="b" x1="65.31" y1="493.08" x2="84.67" y2="510.77"/><line class="b" x1="85.24" y1="512.25" x2="85.62" y2="512.6"/><line class="b" x1="84.19" y1="511.29" x2="85.24" y2="512.25"/><line class="b" x1="85.15" y1="510.25" x2="84.19" y2="511.29"/><line class="b" x1="86.2" y1="511.21" x2="85.15" y2="510.25"/><line class="b" x1="65.79" y1="492.55" x2="64.74" y2="491.6"/><line class="b" x1="64.83" y1="493.6" x2="65.79" y2="492.55"/><line class="b" x1="63.78" y1="492.64" x2="64.83" y2="493.6"/><line class="b" x1="66.27" y1="489.92" x2="87.12" y2="508.97"/><line class="b" x1="82.57" y1="509.81" x2="85.62" y2="512.6"/><line class="b" x1="71.75" y1="499.92" x2="77.66" y2="505.32"/><line class="b" x1="63.78" y1="492.64" x2="66.83" y2="495.43"/><line class="b" x1="63.21" y1="493.27" x2="85.28" y2="513.44"/><line class="b" x1="63.78" y1="492.64" x2="63.21" y2="493.27"/><line class="b" x1="60.81" y1="489.92" x2="63.78" y2="492.64"/><line class="b" x1="86.14" y1="511.18" x2="86.14" y2="512.6"/><line class="b" x1="85.62" y1="512.6" x2="86.14" y2="512.6"/><line class="b" x1="87.56" y1="511.18" x2="86.14" y2="511.18"/><line class="b" x1="87.56" y1="512.6" x2="87.56" y2="511.18"/><line class="b" x1="86.14" y1="512.6" x2="87.56" y2="512.6"/><line class="b" x1="85.62" y1="512.6" x2="91.58" y2="512.6"/><line class="b" x1="66.27" y1="489.92" x2="66.27" y2="483.12"/><line class="b" x1="85.62" y1="512.6" x2="91.58" y2="512.6"/><line class="b" x1="82.07" y1="509.35" x2="85.62" y2="512.6"/><line class="b" x1="70.26" y1="498.56" x2="76.17" y2="503.96"/><line class="b" x1="63.78" y1="492.64" x2="64.36" y2="493.17"/><line class="c" x1="75.06" y1="247.02" x2="75.06" y2="274.73"/><line class="c" x1="76.76" y1="272.21" x2="76.76" y2="248.66"/><line class="c" x1="89.31" y1="264.15" x2="86.11" y2="272.21"/><line class="c" x1="76.76" y1="248.66" x2="79.96" y2="256.72"/><line class="c" x1="82.91" y1="264.15" x2="86.11" y2="272.21"/><line class="c" x1="72.67" y1="147.22" x2="72.67" y2="190.31"/><line class="c" x1="83.66" y1="158.58" x2="83.66" y2="178.95"/><line class="c" x1="83.38" y1="158.3" x2="83.38" y2="179.23"/><line class="c" x1="83.61" y1="178.99" x2="83.61" y2="158.53"/><line class="c" x1="73.21" y1="189.4" x2="73.21" y2="148.13"/><line class="c" x1="72.67" y1="147.22" x2="72.67" y2="190.31"/><line class="c" x1="72.95" y1="190.02" x2="72.95" y2="147.5"/><line class="c" x1="84.08" y1="158.26" x2="94.07" y2="158.26"/><line class="c" x1="94.07" y1="147.61" x2="94.07" y2="157.93"/><line class="c" x1="94.07" y1="157.93" x2="83.75" y2="157.93"/><line class="c" x1="83.98" y1="158.16" x2="94.07" y2="158.16"/><line class="c" x1="94.21" y1="147.61" x2="94.07" y2="147.61"/><line class="c" x1="94.07" y1="158.16" x2="94.07" y2="168.25"/><line class="c" x1="94.07" y1="169.27" x2="94.07" y2="179.36"/><line class="c" x1="94.07" y1="179.27" x2="84.08" y2="179.27"/><line class="c" x1="83.75" y1="179.6" x2="94.07" y2="179.6"/><line class="c" x1="94.07" y1="179.6" x2="94.07" y2="189.92"/><line class="c" x1="94.07" y1="179.36" x2="83.98" y2="179.36"/><line class="c" x1="94.07" y1="189.92" x2="94.21" y2="189.92"/><line class="c" x1="72.95" y1="147.87" x2="93.84" y2="168.76"/><line class="c" x1="93.84" y1="168.76" x2="72.95" y2="189.65"/><line class="c" x1="72.95" y1="190.02" x2="94.21" y2="168.76"/><line class="c" x1="94.21" y1="168.76" x2="72.95" y2="147.5"/><line class="c" x1="74.45" y1="148.64" x2="94.07" y2="148.64"/><line class="c" x1="94.07" y1="188.89" x2="74.45" y2="188.89"/><line class="c" x1="73.89" y1="148.07" x2="94.07" y2="148.07"/><line class="c" x1="94.07" y1="189.46" x2="73.89" y2="189.46"/><line class="c" x1="160.52" y1="247.02" x2="138.41" y2="247.02"/><line class="c" x1="140.11" y1="248.66" x2="158.82" y2="248.66"/><line class="c" x1="158.82" y1="248.66" x2="155.62" y2="256.72"/><line class="c" x1="140.11" y1="248.66" x2="143.32" y2="256.72"/><line class="c" x1="128.68" y1="247.02" x2="106.57" y2="247.02"/><line class="c" x1="108.27" y1="248.66" x2="126.98" y2="248.66"/><line class="c" x1="126.98" y1="248.66" x2="123.78" y2="256.72"/><line class="c" x1="108.27" y1="248.66" x2="111.47" y2="256.72"/><line class="c" x1="97.17" y1="247.02" x2="75.06" y2="247.02"/><line class="c" x1="97.17" y1="274.73" x2="97.17" y2="247.02"/><line class="c" x1="75.06" y1="274.73" x2="97.17" y2="274.73"/><line class="c" x1="97.17" y1="273.85" x2="75.06" y2="273.85"/><line class="c" x1="95.47" y1="272.21" x2="76.76" y2="272.21"/><line class="c" x1="76.76" y1="248.66" x2="95.47" y2="248.66"/><line class="c" x1="95.47" y1="248.66" x2="95.47" y2="272.21"/><line class="c" x1="95.47" y1="248.66" x2="92.27" y2="256.72"/><line class="c" x1="157.99" y1="147.22" x2="72.67" y2="147.22"/><line class="c" x1="157.99" y1="190.31" x2="157.99" y2="147.22"/><line class="c" x1="72.67" y1="190.31" x2="157.99" y2="190.31"/><line class="c" x1="136.87" y1="158.26" x2="146.87" y2="158.26"/><line class="c" x1="147.2" y1="157.93" x2="136.87" y2="157.93"/><line class="c" x1="136.87" y1="157.93" x2="136.87" y2="147.61"/><line class="c" x1="136.87" y1="158.16" x2="146.96" y2="158.16"/><line class="c" x1="136.87" y1="147.61" x2="136.73" y2="147.61"/><line class="c" x1="115.61" y1="158.26" x2="136.59" y2="158.26"/><line class="c" x1="136.59" y1="147.61" x2="136.59" y2="157.93"/><line class="c" x1="136.59" y1="157.93" x2="115.61" y2="157.93"/><line class="c" x1="115.61" y1="157.93" x2="115.61" y2="147.61"/><line class="c" x1="115.61" y1="158.16" x2="136.59" y2="158.16"/><line class="c" x1="136.73" y1="147.61" x2="136.59" y2="147.61"/><line class="c" x1="115.61" y1="147.61" x2="115.47" y2="147.61"/><line class="c" x1="94.35" y1="158.26" x2="115.33" y2="158.26"/><line class="c" x1="115.33" y1="147.61" x2="115.33" y2="157.93"/><line class="c" x1="115.33" y1="157.93" x2="94.35" y2="157.93"/><line class="c" x1="94.35" y1="157.93" x2="94.35" y2="147.61"/><line class="c" x1="94.35" y1="158.16" x2="115.33" y2="158.16"/><line class="c" x1="115.47" y1="147.61" x2="115.33" y2="147.61"/><line class="c" x1="94.35" y1="147.61" x2="94.21" y2="147.61"/><line class="c" x1="136.87" y1="168.25" x2="136.87" y2="158.16"/><line class="c" x1="136.59" y1="158.16" x2="136.59" y2="168.53"/><line class="c" x1="115.61" y1="168.53" x2="115.61" y2="158.16"/><line class="c" x1="115.33" y1="158.16" x2="115.33" y2="168.53"/><line class="c" x1="94.35" y1="168.53" x2="94.35" y2="158.16"/><line class="c" x1="157.62" y1="147.5" x2="136.6" y2="168.53"/><line class="c" x1="136.6" y1="168.53" x2="94.34" y2="168.53"/><line class="c" x1="94.34" y1="168.53" x2="73.32" y2="147.5"/><line class="c" x1="94.21" y1="168.76" x2="136.73" y2="168.76"/><line class="c" x1="147.28" y1="178.95" x2="147.28" y2="158.58"/><line class="c" x1="147.57" y1="179.23" x2="147.57" y2="158.3"/><line class="c" x1="147.33" y1="158.53" x2="147.33" y2="178.99"/><line class="c" x1="136.87" y1="179.36" x2="136.87" y2="169.27"/><line class="c" x1="115.61" y1="179.36" x2="115.61" y2="169"/><line class="c" x1="136.59" y1="169" x2="136.59" y2="179.36"/><line class="c" x1="94.35" y1="179.36" x2="94.35" y2="169"/><line class="c" x1="115.33" y1="169" x2="115.33" y2="179.36"/><line class="c" x1="157.73" y1="148.13" x2="157.73" y2="189.4"/><line class="c" x1="146.87" y1="179.27" x2="136.87" y2="179.27"/><line class="c" x1="136.87" y1="189.92" x2="136.87" y2="179.6"/><line class="c" x1="136.87" y1="179.6" x2="147.2" y2="179.6"/><line class="c" x1="146.96" y1="179.36" x2="136.87" y2="179.36"/><line class="c" x1="136.73" y1="189.92" x2="136.87" y2="189.92"/><line class="c" x1="136.59" y1="179.27" x2="115.61" y2="179.27"/><line class="c" x1="115.61" y1="189.92" x2="115.61" y2="179.6"/><line class="c" x1="115.61" y1="179.6" x2="136.59" y2="179.6"/><line class="c" x1="136.59" y1="179.6" x2="136.59" y2="189.92"/><line class="c" x1="136.59" y1="179.36" x2="115.61" y2="179.36"/><line class="c" x1="115.47" y1="189.92" x2="115.61" y2="189.92"/><line class="c" x1="136.59" y1="189.92" x2="136.73" y2="189.92"/><line class="c" x1="115.33" y1="179.27" x2="94.35" y2="179.27"/><line class="c" x1="94.35" y1="189.92" x2="94.35" y2="179.6"/><line class="c" x1="94.35" y1="179.6" x2="115.33" y2="179.6"/><line class="c" x1="115.33" y1="179.6" x2="115.33" y2="189.92"/><line class="c" x1="115.33" y1="179.36" x2="94.35" y2="179.36"/><line class="c" x1="94.21" y1="189.92" x2="94.35" y2="189.92"/><line class="c" x1="115.33" y1="189.92" x2="115.47" y2="189.92"/><line class="c" x1="157.99" y1="189.65" x2="137.1" y2="168.76"/><line class="c" x1="137.1" y1="168.76" x2="157.99" y2="147.87"/><line class="c" x1="157.99" y1="147.5" x2="136.73" y2="168.76"/><line class="c" x1="136.73" y1="168.76" x2="157.99" y2="190.02"/><line class="c" x1="73.32" y1="190.02" x2="94.34" y2="169"/><line class="c" x1="94.34" y1="169" x2="136.6" y2="169"/><line class="c" x1="136.6" y1="169" x2="157.62" y2="190.02"/><line class="c" x1="94.35" y1="148.64" x2="115.33" y2="148.64"/><line class="c" x1="115.61" y1="148.64" x2="136.59" y2="148.64"/><line class="c" x1="136.87" y1="148.64" x2="156.49" y2="148.64"/><line class="c" x1="156.49" y1="188.89" x2="136.87" y2="188.89"/><line class="c" x1="136.59" y1="188.89" x2="115.61" y2="188.89"/><line class="c" x1="115.33" y1="188.89" x2="94.35" y2="188.89"/><line class="c" x1="94.35" y1="148.07" x2="115.33" y2="148.07"/><line class="c" x1="115.61" y1="148.07" x2="136.59" y2="148.07"/><line class="c" x1="136.87" y1="148.07" x2="157.06" y2="148.07"/><line class="c" x1="157.06" y1="189.46" x2="136.87" y2="189.46"/><line class="c" x1="136.59" y1="189.46" x2="115.61" y2="189.46"/><line class="c" x1="115.33" y1="189.46" x2="94.35" y2="189.46"/><line class="c" x1="72.67" y1="190.31" x2="158.28" y2="190.31"/><line class="c" x1="158.28" y1="190.31" x2="158.28" y2="147.22"/><line class="c" x1="158.28" y1="147.22" x2="72.67" y2="147.22"/><line class="c" x1="72.95" y1="147.5" x2="157.99" y2="147.5"/><line class="c" x1="157.99" y1="147.5" x2="157.99" y2="190.02"/><line class="c" x1="157.99" y1="190.02" x2="72.95" y2="190.02"/><line class="c" x1="138.41" y1="247.02" x2="138.41" y2="274.73"/><line class="c" x1="160.52" y1="274.73" x2="160.52" y2="247.02"/><line class="c" x1="138.41" y1="274.73" x2="160.52" y2="274.73"/><line class="c" x1="160.52" y1="273.85" x2="138.41" y2="273.85"/><line class="c" x1="158.82" y1="272.21" x2="140.11" y2="272.21"/><line class="c" x1="140.11" y1="272.21" x2="140.11" y2="248.66"/><line class="c" x1="158.82" y1="248.66" x2="158.82" y2="272.21"/><line class="c" x1="152.67" y1="264.15" x2="149.47" y2="272.21"/><line class="c" x1="146.27" y1="264.15" x2="149.47" y2="272.21"/><line class="c" x1="106.57" y1="247.02" x2="106.57" y2="274.73"/><line class="c" x1="128.68" y1="274.73" x2="128.68" y2="247.02"/><line class="c" x1="106.57" y1="274.73" x2="128.68" y2="274.73"/><line class="c" x1="128.68" y1="273.85" x2="106.57" y2="273.85"/><line class="c" x1="126.98" y1="272.21" x2="108.27" y2="272.21"/><line class="c" x1="108.27" y1="272.21" x2="108.27" y2="248.66"/><line class="c" x1="126.98" y1="248.66" x2="126.98" y2="272.21"/><line class="c" x1="120.82" y1="264.15" x2="117.62" y2="272.21"/><line class="c" x1="114.42" y1="264.15" x2="117.62" y2="272.21"/><text class="d" transform="matrix(-1, 0, 0, 1, 210.08, 601.53)">27 Montpelier 003</text><text class="d" transform="translate(46.32 600.58)">172 Henniker 020</text><polyline class="e" points="190.17 489.92 189.13 489.92 189.13 486.38 189.13 483.12 190.17 483.12"/><polyline class="e" points="191.96 348.51 192.37 348.51 192.37 347.74 191.96 347.74"/><polyline class="e" points="191.96 342.84 192.37 342.84 192.37 342.07 191.96 342.07"/><polygon class="e" points="173.74 356.18 174.44 356.18 174.44 356.88 174.44 357.93 174.44 377.75 191.96 377.75 191.96 348.51 191.96 347.74 191.96 342.84 191.96 342.07 191.96 335.39 174.44 335.39 174.44 336.39 174.44 337.44 174.44 338.15 173.74 338.15 173.74 338.57 171.61 338.57 171.61 338.23 170.48 338.23 170.48 337.81 170.48 337.44 170.48 336.39 170.48 329.72 170.48 328.67 170.48 328.31 170.48 327.88 171.61 327.88 171.61 327.54 173.74 327.54 173.74 327.97 174.44 327.97 174.44 328.67 174.44 329.72 174.44 331.42 191.96 331.42 191.96 296.02 174.44 296.02 174.44 299.28 174.44 300.33 174.44 301.04 173.74 301.04 173.74 301.46 171.61 301.46 171.61 301.12 170.48 301.12 170.48 300.7 170.48 300.33 170.48 299.28 170.48 296.02 170.06 296.02 170.06 289.21 186.26 289.21 186.69 289.21 186.69 127.81 169.83 127.81 169.83 121.12 169.83 119.7 169.83 119.14 195.36 119.14 195.36 197.32 195.36 289.21 198.77 289.21 198.77 489.92 195.93 489.92 195.36 489.92 190.17 489.92 189.13 489.92 189.13 486.38 189.13 483.12 190.17 483.12 191.96 483.12 191.96 451.79 191.96 395.48 191.96 383.41 191.96 381.01 174.44 381.01 174.44 381.75 173.88 381.64 171.04 381.16 170.48 381.06 170.48 377.84 170.48 377.75 170.48 357.93 170.48 356.88 170.48 356.52 170.48 356.09 171.61 356.09 171.61 355.75 173.74 355.75 173.74 356.18"/><polygon class="e" points="147.77 483.12 166.48 483.12 167.53 483.12 167.53 486.38 167.53 489.92 166.48 489.92 158.73 489.92 158.73 517.66 158.98 517.66 158.98 520.5 155.89 520.5 155.89 516.37 155.89 509.21 155.89 501.21 155.89 494.05 155.89 489.92 148.57 489.92 145.13 492.81 144.21 491.73 142.76 489.99 142.84 489.92 142.84 483.12 144.51 483.12 144.51 437.48 144.51 436.43 147.77 436.43 147.77 437.48 147.77 483.12"/><polygon class="e" points="128.5 390.95 147.77 410.22 147.77 413.78 147.77 414.83 144.51 414.83 144.51 413.78 144.51 411.57 126.2 393.26 120.29 393.26 120.29 390 124.85 390 125.89 388.96 126.63 388.22 126.89 387.96 127.19 387.66 127.99 388.46 128.23 388.22 129.73 389.72 129.19 390.27 128.93 390.53 128.5 390.95"/><polygon class="e" points="142.14 374.31 141.34 373.51 141.64 373.21 141.9 372.95 142.64 372.21 143.6 371.25 143.6 296.02 135.78 296.02 135.78 289.21 142.59 289.21 142.59 284.92 147.38 284.92 147.38 289.21 147.38 296.02 146.86 296.02 146.86 372.59 144.95 374.51 144.21 375.25 143.95 375.51 143.41 376.05 141.9 374.55 142.14 374.31"/><polyline class="e" points="198.77 489.92 198.77 520.5 195.84 520.5 195.84 517.66 195.93 517.66 195.93 489.92 195.36 489.92"/><polyline class="e" points="158.98 517.66 158.98 520.5 155.89 520.5 155.89 516.37"/><polygon class="e" points="135.81 121.12 135.81 127.81 130.72 127.81 130.72 122.96 130.72 122.05 130.72 119.7 130.72 119.14 135.81 119.14 135.81 119.7 135.81 121.12"/><polygon class="e" points="59.85 122.96 60.28 122.96 60.28 128.23 59.85 128.23 58.82 128.23 58.82 260.17 58.82 266.98 53.12 266.98 53.12 289.21 53.12 296.02 53.12 310.12 64.66 310.12 64.66 355.79 53.12 355.79 53.12 390 59.43 390 59.43 393.26 53.12 393.26 53.12 415.2 62.7 415.2 62.7 456.5 53.12 456.5 53.12 483.12 66.27 483.12 66.27 489.92 64.74 491.6 63.78 492.64 60.81 489.92 49.72 489.92 46.32 489.92 46.32 260.17 49.72 260.17 49.72 197.32 49.72 119.14 59.85 119.14 59.85 119.7 59.85 122.05 59.85 122.96"/><polyline class="e" points="166.48 483.12 167.53 483.12 167.53 486.38 167.53 489.92 166.48 489.92"/><polyline class="e" points="155.89 494.05 155.89 489.92 148.57 489.92 145.13 492.81 144.21 491.73 142.76 489.99"/></svg>