<svg xmlns="http://www.w3.org/2000/svg" viewBox="0 0 113.39 198.43"><defs><style>.a,.c{fill:none;stroke-linecap:round;stroke-linejoin:round;stroke-width:0.1px;}.a{stroke:#1d1d1b;}.b{fill:silver;}.c{stroke:blue;}.d{fill:#1d1d1b;}</style></defs><polyline class="a" points="39.8 166.05 47.83 174.28 59.9 174.28 67.9 166.07"/><line class="a" x1="44.32" y1="63.47" x2="56.22" y2="63.47"/><line class="a" x1="44.32" y1="63.36" x2="56.22" y2="63.36"/><line class="a" x1="44.32" y1="63.26" x2="56.22" y2="63.26"/><line class="a" x1="44.32" y1="63.15" x2="56.22" y2="63.15"/><line class="a" x1="56.56" y1="63.72" x2="43.99" y2="63.72"/><line class="a" x1="43.99" y1="62.9" x2="56.56" y2="62.9"/><polyline class="a" points="43.73 63.72 43.99 63.72 43.99 63.49 43.83 63.49 43.83 63.13 43.99 63.13 43.99 62.9 43.73 62.9"/><line class="a" x1="69.9" y1="61.87" x2="43.73" y2="61.87"/><line class="a" x1="40.44" y1="165.83" x2="39.8" y2="165.17"/><line class="a" x1="39.8" y1="166.05" x2="39.82" y2="166.07"/><polygon class="a" points="47.83 174.28 48.29 174.28 48.29 173.67 48.08 173.67 47.94 173.52 47.51 173.96 47.83 174.28"/><polyline class="a" points="40.44 165.83 48.08 173.67 59.63 173.67 67.83 165.28"/><line class="a" x1="48.29" y1="173.98" x2="59.43" y2="173.98"/><line class="a" x1="40.22" y1="166.04" x2="47.72" y2="173.74"/><polyline class="a" points="38.1 166.07 47.31 175.52 60.41 175.52 69.62 166.07"/><polyline class="a" points="39.8 163.41 48.6 172.43 59.11 172.43 67.83 163.5"/><polyline class="a" points="56.82 63.72 56.56 63.72 56.56 63.49 56.71 63.49 56.71 63.13 56.56 63.13 56.56 62.9 56.82 62.9"/><line class="a" x1="57.4" y1="63.47" x2="69.3" y2="63.47"/><line class="a" x1="57.4" y1="63.36" x2="69.3" y2="63.36"/><line class="a" x1="57.4" y1="63.26" x2="69.3" y2="63.26"/><line class="a" x1="57.4" y1="63.15" x2="69.3" y2="63.15"/><line class="a" x1="69.64" y1="63.72" x2="57.07" y2="63.72"/><line class="a" x1="57.07" y1="62.9" x2="69.64" y2="62.9"/><polyline class="a" points="56.82 63.72 57.07 63.72 57.07 63.49 56.91 63.49 56.91 63.13 57.07 63.13 57.07 62.9 56.82 62.9"/><polyline class="a" points="69.9 63.72 69.64 63.72 69.64 63.49 69.79 63.49 69.79 63.13 69.64 63.13 69.64 62.9 69.9 62.9"/><line class="a" x1="80.64" y1="61.87" x2="72.06" y2="61.87"/><line class="a" x1="72.64" y1="63.47" x2="80.05" y2="63.47"/><line class="a" x1="72.64" y1="63.36" x2="80.05" y2="63.36"/><line class="a" x1="72.64" y1="63.26" x2="80.05" y2="63.26"/><line class="a" x1="72.64" y1="63.15" x2="80.05" y2="63.16"/><line class="a" x1="80.38" y1="63.72" x2="72.32" y2="63.72"/><line class="a" x1="72.15" y1="62.9" x2="80.53" y2="62.9"/><polyline class="a" points="72.06 63.72 72.32 63.72 72.32 63.49 72.15 63.49 72.15 62.9 72.06 62.9"/><rect class="a" x="69.9" y="61.87" width="2.15" height="1.03"/><line class="a" x1="87.88" y1="164.72" x2="87.88" y2="163.4"/><polyline class="a" points="87.88 164.73 87.61 164.73 87.6 156.78 87.87 156.78"/><path class="a" d="M79.91,164.75a8,8,0,0,1,8-8"/><line class="a" x1="87.88" y1="163.4" x2="87.87" y2="156.79"/><line class="a" x1="74.71" y1="164.73" x2="79.5" y2="164.73"/><line class="a" x1="74.71" y1="165.05" x2="74.71" y2="164.43"/><line class="a" x1="79.5" y1="165.05" x2="79.5" y2="164.43"/><polyline class="a" points="74.3 165.05 79.91 165.05 79.91 164.43 74.3 164.43"/><polygon class="a" points="59.78 173.52 59.62 173.67 59.43 173.67 59.43 174.28 59.9 174.28 60.21 173.96 59.78 173.52"/><polyline class="a" points="88.09 124.63 87.82 124.63 87.82 130.59 88.09 130.59"/><path class="a" d="M88.1,130.6a6,6,0,0,1-6-6"/><line class="a" x1="88.09" y1="124.63" x2="88.09" y2="130.59"/><line class="a" x1="88.86" y1="136.19" x2="81.33" y2="136.19"/><line class="a" x1="88.86" y1="134.65" x2="81.33" y2="134.65"/><line class="a" x1="88.86" y1="133.1" x2="81.33" y2="133.1"/><line class="a" x1="88.86" y1="131.56" x2="81.33" y2="131.56"/><line class="a" x1="88.86" y1="130.02" x2="81.33" y2="130.02"/><line class="a" x1="88.86" y1="128.48" x2="81.33" y2="128.48"/><line class="a" x1="88.86" y1="126.93" x2="81.33" y2="126.93"/><line class="a" x1="82.11" y1="125.02" x2="82.11" y2="124.25"/><polyline class="a" points="79.98 138.97 84.51 138.97 84.81 139.99 85.43 137.93 85.74 138.97 90.26 138.97"/><line class="a" x1="81.33" y1="125.02" x2="81.33" y2="138.96"/><line class="a" x1="80.56" y1="124.25" x2="80.56" y2="138.96"/><line class="a" x1="82.11" y1="125.02" x2="81.33" y2="125.02"/><line class="a" x1="82.11" y1="124.25" x2="80.56" y2="124.25"/><line class="a" x1="59.99" y1="173.74" x2="67.5" y2="166.04"/><polyline class="a" points="74.3 163.41 79.91 163.41 79.91 166.07 74.3 166.07"/><rect class="a" x="80.43" y="149.19" width="1.09" height="1.08"/><line class="a" x1="80.56" y1="149.19" x2="80.56" y2="138.96"/><line class="a" x1="81.39" y1="149.19" x2="81.39" y2="138.96"/><line class="a" x1="88.86" y1="141.23" x2="81.39" y2="141.23"/><line class="a" x1="88.86" y1="143.49" x2="81.39" y2="143.49"/><line class="a" x1="88.86" y1="145.74" x2="81.39" y2="145.74"/><line class="a" x1="88.86" y1="148" x2="81.39" y2="148"/><line class="a" x1="88.86" y1="150.27" x2="80.56" y2="150.27"/><line class="a" x1="80.43" y1="150.98" x2="80.43" y2="150.27"/><path class="a" d="M82,152.53A1.54,1.54,0,0,1,80.44,151"/><line class="a" x1="88.86" y1="152.53" x2="81.98" y2="152.53"/><rect class="b" x="80.62" y="71.54" width="6.16" height="12.32"/><polygon class="b" points="43.77 77.92 43.77 71.76 43.77 65.61 37.61 65.61 37.61 71.76 37.61 77.92 37.61 84.08 43.77 84.08 43.77 77.92"/><polygon class="b" points="80.62 65.38 80.62 71.54 80.62 83.85 80.62 90.01 80.62 96.17 80.62 102.33 80.62 108.49 80.62 114.65 80.91 114.65 86.78 114.65 86.78 86.97 86.78 83.85 86.78 77.69 86.78 71.54 86.78 65.38 80.62 65.38"/><polygon class="b" points="66.41 81.33 66.41 81.33 72.05 81.33 72.05 68.49 66.41 68.49 66.41 71.99 66.41 81.33"/><line class="c" x1="49.27" y1="70.55" x2="49.79" y2="70.55"/><line class="c" x1="50.09" y1="70.55" x2="50.61" y2="70.55"/><line class="c" x1="50.92" y1="70.55" x2="51.43" y2="70.55"/><line class="c" x1="51.73" y1="70.55" x2="52.25" y2="70.55"/><line class="c" x1="52.56" y1="70.55" x2="53.07" y2="70.55"/><line class="c" x1="53.39" y1="70.55" x2="53.9" y2="70.55"/><polyline class="c" points="54.2 70.55 54.56 70.55 54.56 70.91"/><line class="c" x1="54.56" y1="71.23" x2="54.56" y2="71.74"/><line class="c" x1="54.56" y1="72.04" x2="54.56" y2="72.56"/><line class="c" x1="54.56" y1="72.87" x2="54.56" y2="73.38"/><line class="c" x1="54.56" y1="73.68" x2="54.56" y2="74.21"/><line class="c" x1="54.56" y1="74.51" x2="54.56" y2="75.02"/><line class="c" x1="54.56" y1="75.34" x2="54.56" y2="75.85"/><line class="c" x1="54.56" y1="76.15" x2="54.56" y2="76.66"/><line class="c" x1="54.56" y1="76.98" x2="54.56" y2="77.49"/><line class="c" x1="54.56" y1="77.8" x2="54.56" y2="78.32"/><line class="c" x1="54.56" y1="78.62" x2="54.56" y2="79.13"/><polyline class="c" points="54.56 79.45 54.56 79.81 54.2 79.81"/><line class="c" x1="53.9" y1="79.81" x2="53.39" y2="79.81"/><line class="c" x1="53.07" y1="79.81" x2="52.56" y2="79.81"/><line class="c" x1="52.25" y1="79.81" x2="51.73" y2="79.81"/><line class="c" x1="51.43" y1="79.81" x2="50.92" y2="79.81"/><line class="c" x1="50.61" y1="79.81" x2="50.09" y2="79.81"/><line class="c" x1="49.79" y1="79.81" x2="49.27" y2="79.81"/><line class="c" x1="45.98" y1="70.55" x2="46.5" y2="70.55"/><line class="c" x1="46.81" y1="70.55" x2="47.32" y2="70.55"/><line class="c" x1="47.63" y1="70.55" x2="48.14" y2="70.55"/><line class="c" x1="48.45" y1="70.55" x2="48.96" y2="70.55"/><line class="c" x1="48.96" y1="79.81" x2="48.45" y2="79.81"/><line class="c" x1="48.14" y1="79.81" x2="47.63" y2="79.81"/><line class="c" x1="47.32" y1="79.81" x2="46.81" y2="79.81"/><line class="c" x1="46.5" y1="79.81" x2="45.98" y2="79.81"/><line class="c" x1="74.61" y1="70.55" x2="75.13" y2="70.55"/><line class="c" x1="75.43" y1="70.55" x2="75.94" y2="70.55"/><line class="c" x1="76.25" y1="70.55" x2="76.77" y2="70.55"/><line class="c" x1="77.08" y1="70.55" x2="77.59" y2="70.55"/><polyline class="c" points="77.9 70.55 78.26 70.55 78.26 70.91"/><polyline class="c" points="78.26 79.45 78.26 79.81 77.9 79.81"/><line class="c" x1="77.59" y1="79.81" x2="77.08" y2="79.81"/><line class="c" x1="76.77" y1="79.81" x2="76.25" y2="79.81"/><line class="c" x1="75.94" y1="79.81" x2="75.43" y2="79.81"/><line class="c" x1="75.13" y1="79.81" x2="74.61" y2="79.81"/><line class="c" x1="45.67" y1="79.81" x2="45.32" y2="79.81"/><polyline class="c" points="45.31 70.91 45.31 70.55 45.67 70.55"/><line class="c" x1="45.32" y1="71.74" x2="45.32" y2="71.23"/><line class="c" x1="45.32" y1="72.56" x2="45.32" y2="72.04"/><line class="c" x1="45.32" y1="73.38" x2="45.32" y2="72.87"/><line class="c" x1="45.32" y1="74.21" x2="45.32" y2="73.68"/><line class="c" x1="45.32" y1="75.02" x2="45.32" y2="74.51"/><line class="c" x1="45.32" y1="75.85" x2="45.32" y2="75.34"/><line class="c" x1="45.32" y1="76.66" x2="45.32" y2="76.15"/><line class="c" x1="45.32" y1="77.49" x2="45.32" y2="76.98"/><line class="c" x1="45.32" y1="78.32" x2="45.32" y2="77.8"/><line class="c" x1="45.32" y1="79.13" x2="45.32" y2="78.62"/><line class="c" x1="45.32" y1="79.81" x2="45.32" y2="79.45"/><line class="c" x1="69.36" y1="79.81" x2="69" y2="79.81"/><line class="c" x1="70.19" y1="79.81" x2="69.68" y2="79.81"/><line class="c" x1="71.02" y1="79.81" x2="70.49" y2="79.81"/><line class="c" x1="71.83" y1="79.81" x2="71.32" y2="79.81"/><line class="c" x1="72.66" y1="79.81" x2="72.15" y2="79.81"/><line class="c" x1="73.48" y1="79.81" x2="72.96" y2="79.81"/><line class="c" x1="74.3" y1="79.81" x2="73.79" y2="79.81"/><line class="c" x1="78.26" y1="78.62" x2="78.26" y2="79.13"/><line class="c" x1="78.26" y1="77.8" x2="78.26" y2="78.32"/><line class="c" x1="78.26" y1="76.98" x2="78.26" y2="77.49"/><line class="c" x1="78.26" y1="76.15" x2="78.26" y2="76.66"/><line class="c" x1="78.26" y1="75.34" x2="78.26" y2="75.85"/><line class="c" x1="78.26" y1="74.51" x2="78.26" y2="75.02"/><line class="c" x1="78.26" y1="73.68" x2="78.26" y2="74.21"/><line class="c" x1="78.26" y1="72.87" x2="78.26" y2="73.38"/><line class="c" x1="78.26" y1="72.04" x2="78.26" y2="72.56"/><line class="c" x1="78.26" y1="71.23" x2="78.26" y2="71.74"/><line class="c" x1="73.79" y1="70.55" x2="74.3" y2="70.55"/><line class="c" x1="72.96" y1="70.55" x2="73.48" y2="70.55"/><line class="c" x1="72.15" y1="70.55" x2="72.66" y2="70.55"/><line class="c" x1="71.32" y1="70.55" x2="71.83" y2="70.55"/><line class="c" x1="70.49" y1="70.55" x2="71.02" y2="70.55"/><line class="c" x1="69.68" y1="70.55" x2="70.19" y2="70.55"/><polyline class="c" points="69 70.91 69 70.55 69.36 70.55"/><line class="c" x1="69" y1="71.74" x2="69" y2="71.23"/><line class="c" x1="69" y1="72.56" x2="69" y2="72.04"/><line class="c" x1="69" y1="73.38" x2="69" y2="72.87"/><line class="c" x1="69" y1="74.21" x2="69" y2="73.68"/><line class="c" x1="69" y1="75.02" x2="69" y2="74.51"/><line class="c" x1="69" y1="75.85" x2="69" y2="75.34"/><line class="c" x1="69" y1="76.66" x2="69" y2="76.15"/><line class="c" x1="69" y1="77.49" x2="69" y2="76.98"/><line class="c" x1="69" y1="78.32" x2="69" y2="77.8"/><line class="c" x1="69" y1="79.13" x2="69" y2="78.62"/><line class="c" x1="69" y1="79.81" x2="69" y2="79.45"/><polygon class="d" points="72.06 86.89 69.9 86.89 69.9 82.26 66.4 82.26 66.41 81.24 72.06 81.24 72.06 86.89"/><polygon class="d" points="72.06 68.39 72.06 61.87 69.9 61.87 69.9 67.36 66.4 67.36 66.4 68.39 72.06 68.39"/><polygon class="d" points="35 126.06 43.93 126.06 43.93 124.73 35 124.73 35 112.25 39.5 112.25 39.5 97.35 34.97 97.35 34.97 86.89 43.73 86.89 43.73 84.22 37.05 84.22 37.05 65.26 43.73 65.26 43.73 61.87 33.66 61.87 32.36 61.87 32.36 166.07 39.82 166.07 39.99 166.25 40.44 165.83 40.44 165.83 39.8 165.17 39.8 163.41 35 163.41 35 149.1 38.3 149.1 38.3 133.49 35 133.49 35 126.06"/><line class="d" x1="80.64" y1="61.87" x2="89.19" y2="61.87"/><polygon class="d" points="86.81 114.6 86.81 108.43 86.81 102.27 86.81 96.1 86.81 89.93 86.81 83.77 86.81 77.6 86.81 71.43 86.81 65.26 80.64 65.26 80.64 63.72 80.38 63.72 80.38 63.49 80.53 63.49 80.53 62.9 80.64 62.9 80.64 61.87 89.19 61.87 91.21 61.87 91.21 166.07 87.88 166.07 87.88 164.72 87.88 163.41 87.88 163.41 88.86 163.41 88.86 125.02 88.09 125.02 88.09 124.25 88.86 124.25 88.86 116.13 80.92 116.13 80.64 116.13 80.64 115.68 80.92 115.68 88.86 115.68 88.86 115.06 80.92 115.06 80.64 115.06 80.64 114.6 86.81 114.6"/><line class="d" x1="70.72" y1="163.4" x2="70.72" y2="134.68"/><line class="d" x1="71.2" y1="134.68" x2="71.4" y2="134.68"/><line class="d" x1="72.06" y1="163.4" x2="70.72" y2="163.4"/><polygon class="d" points="70.72 113.77 72.06 113.77 72.06 114.8 73.97 114.8 73.97 116.13 72.06 116.13 72.06 116.53 70.72 116.53 69.9 116.53 69.9 113.77 70.72 113.77"/><polygon class="d" points="66.18 124.73 70.72 124.73 70.72 124.24 72.06 124.24 72.06 126.97 71.38 126.97 70.72 126.97 70.72 126.06 61.79 126.06 61.79 124.73 66.18 124.73"/><path class="d" d="M67.82,163.4h2.9V134.68h1.34V163.4H74.3v2.67H67.9l-.17.18-.45-.42.54-.55Z"/></svg>