<svg xmlns="http://www.w3.org/2000/svg" viewBox="0 0 113.39 198.43"><defs><style>.a,.c{fill:none;stroke-linecap:round;stroke-linejoin:round;stroke-width:0.1px;}.a{stroke:#1d1d1b;}.b{fill:silver;}.c{stroke:blue;}.d{fill:#1d1d1b;}</style></defs><line class="a" x1="78.6" y1="125.19" x2="85.87" y2="125.19"/><line class="a" x1="78.6" y1="123.15" x2="85.87" y2="123.15"/><line class="a" x1="78.6" y1="123.15" x2="78.6" y2="129.04"/><polyline class="a" points="78.4 140.92 78.37 140.89 78.34 140.86 78.31 140.82 78.29 140.79 78.26 140.76 78.24 140.72 78.21 140.69 78.19 140.65 78.17 140.62 78.15 140.58 78.13 140.55 78.11 140.51 78.09 140.47 78.08 140.43 78.06 140.39 78.05 140.35 78.03 140.32 78.02 140.28 78.01 140.24 78 140.2 77.99 140.16 77.98 140.11 77.97 140.07 77.97 140.03 77.96 139.99 77.96 139.95 77.95 139.91 77.95 139.86 77.95 139.82 77.95 139.78 77.95 139.74 77.96 139.69"/><polyline class="a" points="79.62 141.38 79.58 141.38 79.53 141.38 79.49 141.38 79.45 141.38 79.41 141.38 79.37 141.37 79.32 141.37 79.28 141.36 79.24 141.36 79.2 141.35 79.16 141.34 79.12 141.33 79.08 141.32 79.04 141.31 79 141.29 78.96 141.28 78.92 141.26 78.88 141.25 78.84 141.23 78.81 141.21 78.77 141.19 78.73 141.17 78.7 141.15 78.66 141.13 78.63 141.11 78.59 141.08 78.56 141.06 78.53 141.03 78.49 141 78.46 140.98 78.43 140.95 78.4 140.92"/><line class="a" x1="77.65" y1="128.98" x2="77.65" y2="123.15"/><line class="a" x1="78.28" y1="129.28" x2="78.28" y2="123.15"/><line class="a" x1="77.65" y1="138.53" x2="78.28" y2="138.53"/><line class="a" x1="85.87" y1="129.04" x2="78.28" y2="129.04"/><line class="a" x1="79.95" y1="130.07" x2="78.28" y2="130.07"/><line class="a" x1="84.74" y1="132.33" x2="78.28" y2="132.33"/><line class="a" x1="85.87" y1="134.59" x2="78.28" y2="134.59"/><line class="a" x1="85.87" y1="136.85" x2="78.28" y2="136.85"/><line class="a" x1="85.87" y1="139.12" x2="78.52" y2="139.12"/><line class="a" x1="85.87" y1="141.38" x2="79.63" y2="141.38"/><line class="a" x1="36.71" y1="83.95" x2="33.64" y2="83.95"/><line class="a" x1="69.36" y1="150.25" x2="71.99" y2="152.89"/><polyline class="a" points="71.99 150.25 69.36 152.89 71.99 152.89 71.99 150.25 69.36 150.25 69.36 152.89"/><line class="a" x1="74.97" y1="152.89" x2="74.97" y2="153.91"/><rect class="a" x="77.28" y="152.89" width="0.41" height="1.02"/><rect class="a" x="85.46" y="152.89" width="0.41" height="1.02"/><rect class="a" x="76.78" y="152.89" width="0.5" height="1.02"/><line class="a" x1="74.97" y1="153.91" x2="75.47" y2="153.91"/><polyline class="a" points="75.47 153.91 75.47 152.89 74.97 152.89"/><line class="a" x1="75.47" y1="153.91" x2="76.78" y2="153.91"/><line class="a" x1="75.47" y1="153.39" x2="76.78" y2="153.39"/><line class="a" x1="75.47" y1="152.89" x2="76.78" y2="152.89"/><polygon class="a" points="68.49 156.78 68.1 157.11 68.75 157.89 69.14 157.59 68.49 156.78"/><line class="a" x1="61.18" y1="164.07" x2="68.75" y2="157.89"/><line class="a" x1="60.85" y1="163.68" x2="68.42" y2="157.5"/><line class="a" x1="60.53" y1="163.26" x2="68.1" y2="157.11"/><rect class="a" x="48.91" y="164.26" width="0.52" height="1.04"/><line class="a" x1="49.43" y1="165.31" x2="57.68" y2="165.31"/><line class="a" x1="49.43" y1="164.79" x2="57.68" y2="164.79"/><line class="a" x1="49.43" y1="164.26" x2="57.68" y2="164.26"/><rect class="a" x="45.82" y="164.26" width="0.52" height="1.04"/><rect class="a" x="37.05" y="164.26" width="0.52" height="1.04"/><line class="a" x1="37.58" y1="165.31" x2="45.82" y2="165.31"/><line class="a" x1="37.58" y1="164.79" x2="45.82" y2="164.79"/><line class="a" x1="37.58" y1="164.26" x2="45.82" y2="164.26"/><line class="a" x1="58.83" y1="162.83" x2="36.51" y2="162.83"/><rect class="a" x="72.9" y="164.42" width="1.04" height="1.02"/><rect class="a" x="72.9" y="158.5" width="1.04" height="0.52"/><line class="a" x1="72.9" y1="159.02" x2="72.9" y2="164.42"/><line class="a" x1="73.43" y1="159.02" x2="73.43" y2="164.42"/><line class="a" x1="73.95" y1="159.02" x2="73.95" y2="164.42"/><line class="a" x1="72.49" y1="158.5" x2="73.95" y2="158.5"/><rect class="a" x="85.87" y="164.42" width="1.02" height="1.02"/><rect class="a" x="85.87" y="158.5" width="1.02" height="0.52"/><line class="a" x1="86.89" y1="159.02" x2="86.89" y2="164.42"/><line class="a" x1="86.39" y1="159.02" x2="86.39" y2="164.42"/><line class="a" x1="85.87" y1="159.02" x2="85.87" y2="164.42"/><polyline class="a" points="74.84 166.87 74.84 166.81 74.71 165.87 74.67 164.94"/><rect class="a" x="74.25" y="164.42" width="0.41" height="1.02"/><rect class="a" x="85.46" y="164.42" width="0.41" height="1.02"/><polyline class="a" points="70.16 158.83 60.16 166.96 36.51 166.98 36.51 166.07"/><line class="a" x1="85.87" y1="158.5" x2="87.3" y2="158.5"/><line class="a" x1="68.03" y1="155.35" x2="58.83" y2="162.83"/><polyline class="a" points="60.51 164.06 60.77 164.39 61.18 164.07 60.53 163.26"/><line class="a" x1="60.53" y1="163.26" x2="60.16" y2="163.57"/><rect class="a" x="57.68" y="164.26" width="0.52" height="1.04"/><line class="a" x1="60.51" y1="164.06" x2="60.16" y2="163.57"/><polyline class="a" points="83.56 41.2 83.56 38.14 84.06 38.14 84.06 41.2"/><line class="a" x1="59.92" y1="41.2" x2="61.55" y2="41.2"/><line class="a" x1="62.35" y1="41.2" x2="63.99" y2="41.2"/><line class="a" x1="64.81" y1="41.2" x2="66.44" y2="41.2"/><line class="a" x1="67.25" y1="41.2" x2="68.88" y2="41.2"/><line class="a" x1="69.71" y1="41.2" x2="71.34" y2="41.2"/><line class="a" x1="72.14" y1="41.2" x2="73.77" y2="41.2"/><line class="a" x1="74.6" y1="41.2" x2="76.23" y2="41.2"/><line class="a" x1="77.04" y1="41.2" x2="78.67" y2="41.2"/><line class="a" x1="79.5" y1="41.2" x2="81.13" y2="41.2"/><line class="a" x1="81.93" y1="41.2" x2="83.56" y2="41.2"/><rect class="a" x="53.78" y="42.25" width="0.41" height="1.02"/><line class="a" x1="36.71" y1="83.95" x2="34.97" y2="83.95"/><rect class="a" x="36.97" y="57.41" width="0.46" height="13.33"/><line class="a" x1="38.77" y1="42.25" x2="38.77" y2="43.27"/><polyline class="a" points="38.77 42.25 39.19 42.25 39.19 43.27 38.77 43.27"/><polyline class="a" points="59.92 41.2 59.92 38.14 59.42 38.14 59.42 41.2"/><line class="a" x1="59.92" y1="38.64" x2="83.56" y2="38.64"/><line class="a" x1="59.92" y1="38.14" x2="83.56" y2="38.14"/><line class="a" x1="54.2" y1="44.29" x2="59.48" y2="44.29"/><polyline class="a" points="55.22 42.25 58.96 42.25 58.96 43.27 55.22 43.27"/><polyline class="a" points="37.75 43.27 35.68 43.27 35.68 82.93 34.66 82.93 34.66 42.25 37.75 42.25"/><polyline class="a" points="54.2 41.2 59.92 41.2 59.92 44.29 54.2 44.29"/><polyline class="a" points="36.71 83.95 33.64 83.95 33.64 41.2 38.77 41.2"/><line class="a" x1="38.77" y1="44.29" x2="36.71" y2="44.29"/><line class="a" x1="85.87" y1="130.81" x2="82.08" y2="130.81"/><line class="a" x1="82.24" y1="123.15" x2="82.24" y2="130.81"/><line class="a" x1="82.08" y1="132.33" x2="82.08" y2="141.38"/><polyline class="a" points="78.28 129.28 81.56 130.83 81.56 131.46 82.08 130.48 82.08 131.07 85.87 132.85"/><line class="a" x1="78.6" y1="127.26" x2="85.87" y2="127.26"/><polygon class="b" points="83.54 41.04 83.54 38.48 59.93 38.48 59.93 41.04 59.93 44.13 78.92 44.13 78.92 79.1 67.92 79.1 67.92 83.73 78.98 83.73 83.54 83.73 83.54 44.13 83.54 41.04"/><rect class="b" x="69.57" y="86.29" width="14.38" height="8.21"/><polygon class="b" points="80.33 96.09 80.24 96.09 80.17 96.11 80.09 96.11 80 96.14 79.91 96.16 79.85 96.16 79.76 96.2 79.67 96.22 79.61 96.24 79.52 96.29 79.46 96.31 79.39 96.35 79.31 96.4 79.24 96.44 79.17 96.5 79.11 96.55 79.05 96.61 79 96.66 78.94 96.72 78.87 96.79 78.83 96.85 78.78 96.92 78.74 96.98 78.7 97.07 78.65 97.14 78.61 97.2 78.59 97.29 78.57 97.37 78.52 97.44 78.5 97.53 78.5 97.61 78.48 97.68 78.46 97.77 78.46 97.85 78.46 97.94 78.46 98.03 78.46 98.09 78.46 98.18 78.48 98.26 78.5 98.35 78.5 98.42 78.52 98.5 78.57 98.59 78.59 98.66 78.61 98.74 78.65 98.81 78.7 98.89 78.74 98.96 78.78 99.03 78.83 99.09 78.87 99.16 78.94 99.22 79 99.28 79.05 99.35 79.11 99.39 79.17 99.46 79.24 99.5 79.31 99.55 79.39 99.59 79.46 99.63 79.52 99.68 79.61 99.7 79.67 99.74 79.76 99.76 79.85 99.78 79.91 99.81 80 99.83 80.09 99.83 80.17 99.85 80.24 99.85 80.33 99.85 83.95 99.85 83.95 96.09 80.33 96.09"/><polygon class="b" points="83.95 106.69 83.95 101.57 80.87 101.57 80.85 101.57 80.85 106.69 80.87 106.69 83.93 106.69 83.95 106.69"/><line class="c" x1="46.04" y1="71.7" x2="44.73" y2="73.03"/><line class="c" x1="47.74" y1="69.94" x2="46.6" y2="71.12"/><line class="c" x1="49.43" y1="68.18" x2="48.3" y2="69.35"/><line class="c" x1="51.15" y1="66.44" x2="50" y2="67.59"/><line class="c" x1="52.85" y1="64.68" x2="51.72" y2="65.85"/><polyline class="c" points="53.41 61.41 54.72 62.76 53.41 64.09"/><line class="c" x1="51.72" y1="59.67" x2="52.85" y2="60.83"/><line class="c" x1="50" y1="57.91" x2="51.15" y2="59.09"/><line class="c" x1="48.3" y1="56.15" x2="49.43" y2="57.32"/><line class="c" x1="46.6" y1="54.39" x2="47.74" y2="55.56"/><line class="c" x1="44.73" y1="52.47" x2="46.04" y2="53.82"/><line class="c" x1="74.25" y1="71.7" x2="75.54" y2="73.03"/><line class="c" x1="72.53" y1="69.94" x2="73.69" y2="71.12"/><line class="c" x1="70.84" y1="68.18" x2="71.97" y2="69.35"/><line class="c" x1="69.14" y1="66.44" x2="70.27" y2="67.59"/><line class="c" x1="67.42" y1="64.68" x2="68.55" y2="65.85"/><polyline class="c" points="66.86 61.41 65.57 62.76 66.86 64.09"/><line class="c" x1="68.55" y1="59.67" x2="67.42" y2="60.83"/><line class="c" x1="70.27" y1="57.91" x2="69.14" y2="59.09"/><line class="c" x1="71.97" y1="56.15" x2="70.84" y2="57.32"/><line class="c" x1="73.69" y1="54.39" x2="72.53" y2="55.56"/><line class="c" x1="75.54" y1="52.47" x2="74.25" y2="53.82"/><line class="c" x1="64.22" y1="62.76" x2="65.57" y2="62.76"/><line class="c" x1="61.77" y1="62.76" x2="63.4" y2="62.76"/><line class="c" x1="59.33" y1="62.76" x2="60.96" y2="62.76"/><line class="c" x1="56.87" y1="62.76" x2="58.5" y2="62.76"/><line class="c" x1="54.72" y1="62.76" x2="56.07" y2="62.76"/><line class="c" x1="44.73" y1="71.72" x2="44.73" y2="73.03"/><line class="c" x1="44.73" y1="69.29" x2="44.73" y2="70.92"/><line class="c" x1="44.73" y1="66.83" x2="44.73" y2="68.46"/><line class="c" x1="44.73" y1="64.39" x2="44.73" y2="66.03"/><line class="c" x1="44.73" y1="61.94" x2="44.73" y2="63.57"/><line class="c" x1="44.73" y1="59.5" x2="44.73" y2="61.13"/><line class="c" x1="44.73" y1="57.04" x2="44.73" y2="58.67"/><line class="c" x1="44.73" y1="54.6" x2="44.73" y2="56.24"/><polyline class="c" points="46.28 52.47 44.73 52.47 44.73 53.78"/><line class="c" x1="48.71" y1="52.47" x2="47.08" y2="52.47"/><line class="c" x1="51.17" y1="52.47" x2="49.54" y2="52.47"/><line class="c" x1="53.61" y1="52.47" x2="51.98" y2="52.47"/><line class="c" x1="56.07" y1="52.47" x2="54.44" y2="52.47"/><line class="c" x1="58.5" y1="52.47" x2="56.87" y2="52.47"/><line class="c" x1="60.96" y1="52.47" x2="59.33" y2="52.47"/><line class="c" x1="63.4" y1="52.47" x2="61.77" y2="52.47"/><line class="c" x1="65.86" y1="52.47" x2="64.22" y2="52.47"/><line class="c" x1="68.29" y1="52.47" x2="66.66" y2="52.47"/><line class="c" x1="70.75" y1="52.47" x2="69.12" y2="52.47"/><line class="c" x1="73.19" y1="52.47" x2="71.56" y2="52.47"/><polyline class="c" points="75.54 53.78 75.54 52.47 74.01 52.47"/><line class="c" x1="75.54" y1="56.24" x2="75.54" y2="54.6"/><line class="c" x1="75.54" y1="58.67" x2="75.54" y2="57.04"/><line class="c" x1="75.54" y1="61.13" x2="75.54" y2="59.5"/><line class="c" x1="75.54" y1="63.57" x2="75.54" y2="61.94"/><line class="c" x1="75.54" y1="66.03" x2="75.54" y2="64.39"/><line class="c" x1="75.54" y1="68.46" x2="75.54" y2="66.83"/><line class="c" x1="75.54" y1="70.92" x2="75.54" y2="69.29"/><polyline class="c" points="74.01 73.03 75.54 73.03 75.54 71.72"/><line class="c" x1="71.56" y1="73.03" x2="73.19" y2="73.03"/><line class="c" x1="69.12" y1="73.03" x2="70.75" y2="73.03"/><line class="c" x1="66.66" y1="73.03" x2="68.29" y2="73.03"/><line class="c" x1="64.22" y1="73.03" x2="65.86" y2="73.03"/><line class="c" x1="61.77" y1="73.03" x2="63.4" y2="73.03"/><line class="c" x1="59.33" y1="73.03" x2="60.96" y2="73.03"/><line class="c" x1="56.87" y1="73.03" x2="58.5" y2="73.03"/><line class="c" x1="54.44" y1="73.03" x2="56.07" y2="73.03"/><line class="c" x1="51.98" y1="73.03" x2="53.61" y2="73.03"/><line class="c" x1="49.54" y1="73.03" x2="51.17" y2="73.03"/><line class="c" x1="47.08" y1="73.03" x2="48.71" y2="73.03"/><line class="c" x1="44.73" y1="73.03" x2="46.28" y2="73.03"/><polygon class="d" points="59.07 163.5 58.2 163.5 58.2 166.07 59.98 166.07 61.2 165.07 60.51 164.06 60.13 163.59 60.16 163.57 59.74 162.96 59.07 163.5"/><polygon class="d" points="71.9 158.5 70.71 159.48 68.03 156.19 68.03 156.02 68.03 138.88 69.36 138.88 69.36 152.89 73.95 152.89 74.97 152.89 74.97 153.91 73.95 153.91 73.95 158.5 71.9 158.5"/><rect class="d" x="46.34" y="163.5" width="2.57" height="2.57"/><polygon class="d" points="38.77 43.27 38.77 44.29 36.71 44.29 36.71 83.95 36.71 86.52 34.97 86.52 34.97 118.58 62.79 118.58 67.92 123.63 67.92 118.58 68.12 118.58 69.16 118.58 69.36 118.58 69.36 125.26 69.36 129.81 69.21 129.81 68.18 129.81 68.03 129.81 68.03 126.37 62.03 120.5 35.08 120.5 35.08 128.68 38.16 128.68 38.16 144.79 34.92 144.79 34.92 163.5 37.05 163.5 37.05 166.07 34.92 166.07 32.36 166.07 32.36 83.95 33.64 83.95 33.64 41.2 38.77 41.2 38.77 42.25 38.77 43.27"/><polygon class="d" points="78.52 138.53 78.52 139.7 77.41 139.7 77.41 138.53 77.65 138.53 77.65 128.98 78.28 129.28 78.28 138.53 78.52 138.53"/><polygon class="d" points="83.56 41.2 86.65 41.2 86.65 83.95 88.44 83.95 88.44 158.5 87.31 158.5 85.87 158.5 85.87 116.86 77.73 116.86 77.73 115.64 85.87 115.64 85.87 109.49 77.8 109.49 77.8 108.16 85.87 108.16 85.87 86.52 79 86.52 69.58 86.52 69.58 110.36 67.92 110.36 67.92 86.52 67.92 83.95 79 83.95 83.56 83.95 83.56 44.29 83.56 41.2"/><rect class="d" x="54.2" y="41.2" width="5.72" height="3.09"/></svg>