<svg xmlns="http://www.w3.org/2000/svg" viewBox="0 0 113.39 198.43"><defs><style>.a,.c{fill:none;stroke-linecap:round;stroke-linejoin:round;stroke-width:0.1px;}.a{stroke:#1d1d1b;}.b{fill:silver;}.c{stroke:blue;}.d{fill:#1d1d1b;}</style></defs><line class="a" x1="37.58" y1="31.28" x2="43.75" y2="31.28"/><polygon class="a" points="84.91 165.44 84.91 165.07 84.72 165.07 84.72 164.48 85.3 164.48 85.3 165.44 84.91 165.44"/><polygon class="a" points="69.88 165.44 69.88 164.48 70.47 164.48 70.47 165.07 70.27 165.07 70.27 165.44 69.88 165.44"/><polyline class="a" points="70.66 172.77 70.66 165.44 70.27 165.44 70.27 172.77"/><polygon class="a" points="63.44 29.26 63.44 30.22 62.88 30.22 62.88 29.65 63.07 29.65 63.07 29.26 63.44 29.26"/><polygon class="a" points="48.41 29.26 48.41 29.65 48.6 29.65 48.6 30.22 48.04 30.22 48.04 29.26 48.41 29.26"/><polygon class="a" points="42.75 172.81 44.76 171.22 45.08 171.62 45.6 171.62 45.6 174.18 43.84 174.18 42.75 172.81"/><line class="a" x1="48.04" y1="31.28" x2="48.04" y2="28.2"/><polygon class="a" points="60.81 172.81 58.79 171.22 58.46 171.62 57.96 171.62 57.96 174.18 59.7 174.18 60.81 172.81"/><line class="a" x1="78.86" y1="31.74" x2="70.42" y2="31.74"/><line class="a" x1="78.86" y1="31.92" x2="70.42" y2="31.92"/><line class="a" x1="86.52" y1="146.19" x2="78.86" y2="146.19"/><polyline class="a" points="69.81 28.22 69.81 27.72 81.13 27.72 81.13 28.22"/><line class="a" x1="70.34" y1="29.39" x2="80.6" y2="29.39"/><line class="a" x1="70.34" y1="30.15" x2="80.6" y2="30.15"/><line class="a" x1="38.27" y1="31.28" x2="43.41" y2="31.28"/><polyline class="a" points="37.75 28.2 37.75 27.7 43.93 27.7 43.93 28.2"/><line class="a" x1="38.27" y1="29.37" x2="43.41" y2="29.37"/><line class="a" x1="38.27" y1="30.13" x2="43.41" y2="30.13"/><path class="a" d="M78.86,147a2.53,2.53,0,0,0,2,1.47"/><rect class="a" x="77.84" y="145.97" width="1.02" height="1.02"/><line class="a" x1="86.52" y1="130.37" x2="84.91" y2="130.37"/><line class="a" x1="78.63" y1="126.04" x2="78.63" y2="145.97"/><line class="a" x1="78.1" y1="126.04" x2="78.1" y2="145.97"/><line class="a" x1="44.06" y1="171.77" x2="39.47" y2="165.96"/><line class="a" x1="43.45" y1="172.25" x2="38.86" y2="166.44"/><line class="a" x1="45.6" y1="172.53" x2="57.96" y2="172.53"/><line class="a" x1="45.6" y1="173.29" x2="57.96" y2="173.29"/><line class="a" x1="59.48" y1="171.77" x2="64.07" y2="165.96"/><line class="a" x1="60.09" y1="172.25" x2="64.68" y2="166.44"/><line class="a" x1="70.34" y1="31.28" x2="80.6" y2="31.28"/><line class="a" x1="38.16" y1="166.98" x2="42.75" y2="172.81"/><line class="a" x1="40.17" y1="165.39" x2="44.76" y2="171.22"/><line class="a" x1="65.4" y1="166.98" x2="60.81" y2="172.81"/><line class="a" x1="63.38" y1="165.39" x2="58.79" y2="171.22"/><line class="a" x1="57.96" y1="174.18" x2="45.6" y2="174.18"/><line class="a" x1="57.96" y1="171.62" x2="45.6" y2="171.62"/><polyline class="a" points="78.63 133.2 81.93 131.76 81.91 130.61 83.02 132.57 83.02 131.22 86.52 129.63"/><line class="a" x1="86.52" y1="148.45" x2="80.89" y2="148.45"/><line class="a" x1="86.52" y1="132.63" x2="79.95" y2="132.63"/><line class="a" x1="86.52" y1="134.9" x2="78.63" y2="134.9"/><line class="a" x1="86.52" y1="137.16" x2="78.63" y2="137.16"/><line class="a" x1="86.52" y1="139.42" x2="78.63" y2="139.42"/><line class="a" x1="86.52" y1="141.68" x2="78.63" y2="141.68"/><line class="a" x1="86.52" y1="143.92" x2="78.63" y2="143.92"/><path class="b" d="M43.06,32V34.9a1.87,1.87,0,0,1-1.85,1.85,1.93,1.93,0,0,1-1.89-1.82h0V30.85h3.74Z"/><rect class="b" x="37.08" y="40.04" width="3.3" height="4.69"/><polygon class="b" points="86.81 89.35 78.86 89.35 78.86 37.02 68.24 37.02 68.24 30.87 70.65 30.87 70.65 30.85 80.9 30.85 85.01 30.85 85.01 78.58 85.01 81.14 86.81 81.14 86.81 89.35"/><line class="c" x1="44.62" y1="73.42" x2="44.62" y2="58.02"/><line class="c" x1="53.89" y1="71.96" x2="50.13" y2="71.96"/><line class="c" x1="49.71" y1="71.96" x2="46.36" y2="71.96"/><line class="c" x1="46.36" y1="59.48" x2="49.71" y2="59.48"/><line class="c" x1="50.13" y1="59.48" x2="53.89" y2="59.48"/><polyline class="c" points="53.89 65.22 53.89 58.02 54.28 58.02 54.28 65.22"/><polyline class="c" points="54.28 66.22 54.28 73.42 53.89 73.42 53.89 66.22"/><polyline class="c" points="49.72 62.83 49.72 58.02 50.13 58.02 50.13 63.24"/><polyline class="c" points="49.43 68.33 44.62 68.33 44.62 67.92 49.84 67.92"/><polyline class="c" points="49.84 63.52 44.62 63.52 44.62 63.11 49.43 63.11"/><polyline class="c" points="50.13 68.2 50.13 73.42 49.72 73.42 49.72 68.61"/><line class="c" x1="44.69" y1="73.07" x2="44.69" y2="68.33"/><line class="c" x1="46.08" y1="71.68" x2="46.08" y2="68.33"/><line class="c" x1="44.73" y1="73.01" x2="44.73" y2="68.33"/><line class="c" x1="45.04" y1="58.13" x2="49.71" y2="58.13"/><line class="c" x1="44.97" y1="58.08" x2="49.71" y2="58.08"/><line class="c" x1="46.02" y1="63.11" x2="46.02" y2="59.72"/><line class="c" x1="44.69" y1="63.11" x2="44.69" y2="58.37"/><line class="c" x1="44.73" y1="63.11" x2="44.73" y2="58.43"/><line class="c" x1="44.69" y1="67.92" x2="44.69" y2="63.52"/><line class="c" x1="46.08" y1="67.92" x2="46.08" y2="63.52"/><line class="c" x1="44.73" y1="67.92" x2="44.73" y2="63.52"/><line class="c" x1="49.71" y1="73.36" x2="44.97" y2="73.36"/><line class="c" x1="49.71" y1="73.31" x2="45.04" y2="73.31"/><line class="c" x1="53.89" y1="73.36" x2="50.13" y2="73.36"/><line class="c" x1="53.89" y1="73.31" x2="50.13" y2="73.31"/><line class="c" x1="50.13" y1="58.13" x2="53.89" y2="58.13"/><line class="c" x1="50.13" y1="58.08" x2="53.89" y2="58.08"/><line class="c" x1="52.09" y1="65.2" x2="44.91" y2="58.02"/><line class="c" x1="51.8" y1="65.48" x2="44.62" y2="58.3"/><polyline class="c" points="52.09 66.24 48.06 70.27 44.91 73.42"/><polyline class="c" points="51.8 65.96 47.76 69.98 44.62 73.14"/><path class="c" d="M52.83,65.73a.45.45,0,0,0-.9,0,.45.45,0,0,0,.9,0Z"/><line class="c" x1="60.24" y1="58.02" x2="60.24" y2="65.22"/><line class="c" x1="59.83" y1="58.02" x2="59.83" y2="65.22"/><line class="c" x1="59.83" y1="73.42" x2="59.83" y2="66.22"/><line class="c" x1="60.24" y1="73.42" x2="60.24" y2="66.22"/><line class="c" x1="75.45" y1="73.42" x2="75.45" y2="58.02"/><line class="c" x1="60.24" y1="71.96" x2="65.77" y2="71.96"/><line class="c" x1="54.28" y1="71.96" x2="59.83" y2="71.96"/><line class="c" x1="66.18" y1="71.96" x2="69.92" y2="71.96"/><line class="c" x1="70.34" y1="71.96" x2="73.69" y2="71.96"/><line class="c" x1="73.69" y1="59.48" x2="70.34" y2="59.48"/><line class="c" x1="69.92" y1="59.48" x2="66.18" y2="59.48"/><line class="c" x1="59.83" y1="59.48" x2="54.28" y2="59.48"/><line class="c" x1="65.77" y1="59.48" x2="60.24" y2="59.48"/><polyline class="c" points="68.12 66.11 75.45 73.42 44.62 73.42 51.93 66.11"/><polyline class="c" points="66.18 65.22 66.18 58.02 65.77 58.02 65.77 65.22"/><polyline class="c" points="65.77 66.22 65.77 73.42 66.18 73.42 66.18 66.22"/><polyline class="c" points="70.34 62.83 70.34 58.02 69.92 58.02 69.92 63.24"/><polyline class="c" points="70.62 68.33 75.45 68.33 75.45 67.92 70.23 67.92"/><polyline class="c" points="70.23 63.52 75.45 63.52 75.45 63.11 70.62 63.11"/><polyline class="c" points="69.92 68.2 69.92 73.42 70.34 73.42 70.34 68.61"/><line class="c" x1="75.38" y1="73.07" x2="75.38" y2="68.33"/><line class="c" x1="73.99" y1="71.68" x2="73.99" y2="68.33"/><line class="c" x1="75.32" y1="73.01" x2="75.32" y2="68.33"/><line class="c" x1="75.04" y1="58.13" x2="70.34" y2="58.13"/><line class="c" x1="75.08" y1="58.08" x2="70.34" y2="58.08"/><line class="c" x1="74.04" y1="63.11" x2="74.04" y2="59.72"/><line class="c" x1="75.38" y1="63.11" x2="75.38" y2="58.37"/><line class="c" x1="75.32" y1="63.11" x2="75.32" y2="58.43"/><line class="c" x1="75.38" y1="67.92" x2="75.38" y2="63.52"/><line class="c" x1="73.99" y1="67.92" x2="73.99" y2="63.52"/><line class="c" x1="75.32" y1="67.92" x2="75.32" y2="63.52"/><line class="c" x1="70.34" y1="73.36" x2="75.08" y2="73.36"/><line class="c" x1="70.34" y1="73.31" x2="75.04" y2="73.31"/><line class="c" x1="66.18" y1="73.36" x2="69.92" y2="73.36"/><line class="c" x1="66.18" y1="73.31" x2="69.92" y2="73.31"/><line class="c" x1="60.24" y1="73.36" x2="65.77" y2="73.36"/><line class="c" x1="54.28" y1="73.36" x2="59.83" y2="73.36"/><line class="c" x1="60.24" y1="73.31" x2="65.77" y2="73.31"/><line class="c" x1="54.28" y1="73.31" x2="59.83" y2="73.31"/><line class="c" x1="59.83" y1="58.13" x2="54.28" y2="58.13"/><line class="c" x1="65.77" y1="58.13" x2="60.24" y2="58.13"/><line class="c" x1="59.83" y1="58.08" x2="54.28" y2="58.08"/><line class="c" x1="65.77" y1="58.08" x2="60.24" y2="58.08"/><line class="c" x1="69.92" y1="58.13" x2="66.18" y2="58.13"/><line class="c" x1="69.92" y1="58.08" x2="66.18" y2="58.08"/><line class="c" x1="67.97" y1="65.2" x2="75.17" y2="58.02"/><line class="c" x1="68.27" y1="65.48" x2="75.45" y2="58.3"/><polyline class="c" points="67.97 66.24 72.01 70.27 75.17 73.42"/><polyline class="c" points="68.27 65.96 72.3 69.98 75.45 73.14"/><polyline class="c" points="51.93 65.33 44.62 58.02 75.45 58.02 68.12 65.33"/><polyline class="c" points="67.44 66.22 52.54 66.22 52.52 66.24 52.09 66.24 51.93 66.09"/><line class="c" x1="67.44" y1="65.22" x2="52.61" y2="65.22"/><circle class="c" cx="67.65" cy="65.73" r="0.45"/><polygon class="d" points="56.7 89.87 56.7 92.43 66.14 92.43 66.14 96.94 67.16 96.94 67.16 89.87 56.7 89.87"/><polygon class="d" points="64.62 163.81 68.86 163.81 68.86 133.74 65.92 129.37 63.57 129.37 63.57 127.33 67.16 127.33 67.16 129.37 69.88 133.44 69.88 166.37 65.86 166.37 65.4 166.98 63.38 165.4 64.62 163.81"/><rect class="d" x="63.44" y="28.22" width="6.9" height="3.09"/><polygon class="d" points="44.95 31.28 44.95 39.51 45.97 39.51 45.97 31.28 48.04 31.28 48.04 28.2 43.41 28.2 43.41 31.28 44.95 31.28"/><polygon class="d" points="32.36 166.37 37.69 166.37 38.16 166.98 40.16 165.4 38.92 163.81 34.92 163.81 34.92 92.43 44.36 92.43 44.36 89.87 36.73 89.87 36.73 56.98 45.97 56.98 45.97 46.71 44.95 46.71 44.95 55.95 36.73 55.95 36.73 31.28 38.27 31.28 38.27 28.2 33.64 28.2 33.64 89.87 32.36 89.87 32.36 166.37"/><polygon class="d" points="86.52 89.87 76.43 89.87 76.43 90.91 86.52 90.91 86.52 116.8 67.16 116.8 67.16 109.55 66.14 109.55 66.14 119.1 67.16 119.1 67.16 117.82 86.52 117.82 86.52 163.81 85.3 163.81 85.3 166.37 89.09 166.37 89.09 89.87 89.09 79.08 87.81 79.08 87.81 28.2 80.61 28.2 80.61 31.28 84.72 31.28 84.72 79.08 84.72 81.64 86.52 81.64 86.52 89.87"/></svg>