<svg xmlns="http://www.w3.org/2000/svg" viewBox="0 0 113.39 198.43"><defs><style>.a{fill:none;stroke:#1d1d1b;stroke-linecap:round;stroke-linejoin:round;stroke-width:0.1px;}.b{fill:silver;}.c{fill:#1d1d1b;}</style></defs><polyline class="a" points="78 41.01 73.91 46.14 74.26 46.4 78.35 41.27 78.69 41.57 74.61 46.7"/><line class="a" x1="91.39" y1="86.65" x2="91.39" y2="63.61"/><polyline class="a" points="72.3 160.07 72.56 160.07 72.56 159.03 72.3 159.03 78.69 159.03 78.69 160.07 78.95 160.07"/><polyline class="a" points="78.87 144.42 78.87 124.25 78.87 137.12"/><rect class="a" x="63.91" y="174.63" width="3.09" height="3.09"/><rect class="a" x="51.05" y="174.63" width="3.04" height="3.09"/><rect class="a" x="38.14" y="174.63" width="3.09" height="3.09"/><polyline class="a" points="37.7 166.07 37.7 178.15 38.14 178.15 67.44 178.15 67.44 177.72 67.44 166.07"/><line class="a" x1="88.3" y1="111.04" x2="88.3" y2="112.08"/><line class="a" x1="88.3" y1="89.69" x2="88.3" y2="90.91"/><polygon class="a" points="50.48 47.18 51.18 46.62 50.79 46.14 50.09 46.7 50.48 47.18"/><polyline class="a" points="50.44 46.4 46.35 41.27 46.01 41.57 50.09 46.7"/><line class="a" x1="46.7" y1="41.01" x2="50.79" y2="46.14"/><polygon class="a" points="46.01 41.57 46.7 41.01 46.31 40.53 45.61 41.05 46.01 41.57"/><polygon class="a" points="40.79 47.18 40.09 46.62 40.48 46.14 41.18 46.7 40.79 47.18"/><polyline class="a" points="40.83 46.4 44.88 41.27 45.22 41.57 41.18 46.7"/><line class="a" x1="44.53" y1="41.01" x2="40.48" y2="46.14"/><polygon class="a" points="45.22 41.57 44.53 41.01 44.92 40.53 45.61 41.05 45.22 41.57"/><polygon class="a" points="72.83 47.18 73.52 46.62 73.13 46.14 72.43 46.7 72.83 47.18"/><polyline class="a" points="72.78 46.4 68.74 41.27 68.39 41.57 72.43 46.7"/><line class="a" x1="69.09" y1="41.01" x2="73.13" y2="46.14"/><polygon class="a" points="68.39 41.57 69.09 41.01 68.7 40.53 68 41.05 68.39 41.57"/><polyline class="a" points="41.22 166.07 41.22 174.63 63.91 174.63 63.91 166.07"/><polygon class="a" points="74.22 47.18 73.52 46.62 73.91 46.14 74.61 46.7 74.22 47.18"/><polygon class="a" points="78.69 41.57 78 41.01 78.39 40.53 79.08 41.05 78.69 41.57"/><polyline class="a" points="80.13 41.01 84.21 46.14 83.87 46.4 79.82 41.27 79.48 41.57 83.52 46.7"/><polygon class="a" points="83.91 47.18 84.61 46.62 84.21 46.14 83.52 46.7 83.91 47.18"/><polygon class="a" points="79.48 41.57 80.13 41.01 79.74 40.53 79.08 41.05 79.48 41.57"/><line class="a" x1="78.87" y1="125.25" x2="88.3" y2="125.25"/><circle class="a" cx="78.37" cy="145.18" r="0.5"/><rect class="a" x="77.69" y="144.42" width="1.39" height="1.52"/><line class="a" x1="79.08" y1="145.6" x2="88.3" y2="145.6"/><line class="a" x1="78.87" y1="143.42" x2="88.3" y2="143.42"/><line class="a" x1="78.87" y1="141.25" x2="88.3" y2="141.25"/><line class="a" x1="78.87" y1="139.08" x2="88.3" y2="139.08"/><line class="a" x1="78.87" y1="136.86" x2="88.3" y2="136.86"/><line class="a" x1="78.87" y1="134.68" x2="88.3" y2="134.68"/><line class="a" x1="78.87" y1="132.51" x2="88.3" y2="132.51"/><line class="a" x1="78.87" y1="130.29" x2="88.3" y2="130.29"/><line class="a" x1="78.87" y1="128.12" x2="88.3" y2="128.12"/><line class="a" x1="78.87" y1="125.95" x2="88.3" y2="125.95"/><polyline class="a" points="78 144.42 78 124.25 78.87 124.25 88.3 124.25"/><rect class="a" x="87.69" y="158.98" width="0.35" height="1.09"/><rect class="a" x="78.82" y="158.98" width="0.35" height="1.09"/><line class="a" x1="66.22" y1="166.07" x2="66.22" y2="174.63"/><line class="a" x1="65.48" y1="174.63" x2="65.48" y2="166.07"/><line class="a" x1="51.05" y1="176.89" x2="41.22" y2="176.89"/><line class="a" x1="41.22" y1="176.02" x2="51.05" y2="176.02"/><line class="a" x1="63.65" y1="176.63" x2="54.39" y2="176.63"/><line class="a" x1="63.65" y1="176.28" x2="54.39" y2="176.28"/><line class="a" x1="63.91" y1="176.89" x2="54.09" y2="176.89"/><line class="a" x1="54.09" y1="176.02" x2="63.91" y2="176.02"/><line class="a" x1="66" y1="166.33" x2="66" y2="174.42"/><line class="a" x1="65.7" y1="166.33" x2="65.7" y2="174.42"/><line class="a" x1="39.14" y1="166.33" x2="39.14" y2="174.42"/><line class="a" x1="50.74" y1="176.63" x2="41.48" y2="176.63"/><line class="a" x1="50.74" y1="176.28" x2="41.48" y2="176.28"/><line class="a" x1="72.56" y1="159.25" x2="78.69" y2="159.25"/><line class="a" x1="78.69" y1="159.81" x2="72.56" y2="159.81"/><line class="a" x1="78.52" y1="159.42" x2="72.74" y2="159.42"/><line class="a" x1="78.52" y1="159.68" x2="72.74" y2="159.68"/><line class="a" x1="39.66" y1="174.63" x2="39.66" y2="166.07"/><line class="a" x1="38.92" y1="166.07" x2="38.92" y2="174.63"/><line class="a" x1="39.44" y1="166.33" x2="39.44" y2="174.42"/><rect class="b" x="49.93" y="83.39" width="11.33" height="12.29"/><polygon class="b" points="42.33 106.88 61 106.88 61 113.91 42.33 113.91 35.3 113.91 35.3 88.91 42.33 88.91 42.33 106.88"/><polygon class="c" points="63.91 166.07 72.3 166.07 72.3 127.25 72.3 125.9 70.17 125.9 69.13 125.9 68.04 125.9 68.04 127.25 71.26 127.25 71.26 163.07 63.91 163.07 63.91 166.07"/><polygon class="c" points="35.44 113.86 35.44 83.44 35.44 66.7 35.44 48.66 40.09 48.66 40.09 45.57 32.36 45.57 32.36 63.61 32.36 166.07 41.22 166.07 41.22 163.07 35.44 163.07 35.44 153.81 37.88 153.81 37.88 136.34 35.44 136.34 35.44 115.12 69.13 115.12 69.13 115.82 70.17 115.82 70.17 113.86 35.44 113.86"/><polygon class="c" points="79.22 111.04 79.22 109.65 78 109.65 78 111.04 78 117.04 78.87 117.04 78.87 112.08 88.3 112.08 88.3 166.07 91.39 166.07 91.39 86.65 91.39 45.57 84.61 45.57 84.61 48.66 88.3 48.66 88.3 89.69 78 89.69 78 101.87 79.22 101.87 79.22 90.91 88.3 90.91 88.3 111.04 79.22 111.04"/></svg>