<svg xmlns="http://www.w3.org/2000/svg" viewBox="0 0 113.39 198.43"><defs><style>.a,.c{fill:none;stroke-linecap:round;stroke-linejoin:round;stroke-width:0.1px;}.a{stroke:#1d1d1b;}.b{fill:silver;}.c{stroke:blue;}.d{fill:#1d1d1b;}</style></defs><line class="a" x1="73.17" y1="177" x2="74.93" y2="177"/><line class="a" x1="73.58" y1="177" x2="76.7" y2="177"/><line class="a" x1="73.58" y1="177" x2="76.7" y2="177"/><line class="a" x1="76.98" y1="177" x2="77.4" y2="177"/><line class="a" x1="73.58" y1="176" x2="73.58" y2="177"/><line class="a" x1="76.7" y1="176" x2="73.58" y2="176"/><line class="a" x1="76.7" y1="177" x2="76.7" y2="176"/><line class="a" x1="74.16" y1="176" x2="74.16" y2="175.55"/><line class="a" x1="73.47" y1="176" x2="74.16" y2="176"/><line class="a" x1="73.47" y1="175.55" x2="73.47" y2="176"/><line class="a" x1="74.16" y1="175.55" x2="73.47" y2="175.55"/><line class="a" x1="76.11" y1="175.55" x2="76.11" y2="176"/><line class="a" x1="76.8" y1="175.55" x2="76.11" y2="175.55"/><line class="a" x1="76.8" y1="176" x2="76.8" y2="175.55"/><line class="a" x1="76.11" y1="176" x2="76.8" y2="176"/><line class="a" x1="86.1" y1="175.82" x2="86.1" y2="176.59"/><line class="a" x1="86.1" y1="176.59" x2="86.23" y2="176.59"/><line class="a" x1="86.23" y1="176.59" x2="86.23" y2="177"/><line class="a" x1="86.23" y1="177" x2="86.51" y2="177"/><line class="a" x1="86.51" y1="177" x2="86.51" y2="175.82"/><line class="a" x1="86.51" y1="175.82" x2="86.1" y2="175.82"/><line class="a" x1="73.17" y1="177" x2="73.58" y2="177"/><line class="a" x1="73.58" y1="177" x2="73.58" y2="176"/><line class="a" x1="73.58" y1="176" x2="73.47" y2="176"/><line class="a" x1="73.47" y1="176" x2="73.47" y2="175.82"/><line class="a" x1="73.47" y1="175.82" x2="73.17" y2="175.82"/><line class="a" x1="73.17" y1="175.82" x2="73.17" y2="175.97"/><line class="a" x1="76.8" y1="175.82" x2="76.8" y2="176"/><line class="a" x1="76.8" y1="176" x2="76.7" y2="176"/><line class="a" x1="76.7" y1="176" x2="76.7" y2="177"/><line class="a" x1="76.7" y1="177" x2="76.98" y2="177"/><line class="a" x1="76.98" y1="177" x2="76.98" y2="176.59"/><line class="a" x1="76.98" y1="176.59" x2="77.11" y2="176.59"/><line class="a" x1="77.11" y1="176.59" x2="77.11" y2="175.82"/><line class="a" x1="77.11" y1="175.82" x2="76.8" y2="175.82"/><line class="a" x1="76.11" y1="175.55" x2="74.16" y2="175.55"/><line class="a" x1="74.16" y1="176" x2="76.11" y2="176"/><line class="a" x1="74.16" y1="175.78" x2="76.11" y2="175.78"/><line class="a" x1="86.51" y1="177" x2="86.51" y2="175.97"/><line class="a" x1="86.51" y1="177" x2="86.51" y2="175.97"/><line class="a" x1="73.17" y1="177" x2="73.17" y2="175.97"/><line class="a" x1="73.17" y1="177" x2="73.17" y2="175.97"/><line class="a" x1="77.72" y1="152.11" x2="77.72" y2="132.11"/><line class="a" x1="67.83" y1="167.24" x2="68.15" y2="166.97"/><line class="a" x1="68.34" y1="167.21" x2="68.15" y2="166.97"/><line class="a" x1="67.81" y1="166.58" x2="67.42" y2="166.91"/><line class="a" x1="67.42" y1="166.91" x2="67.75" y2="167.3"/><line class="a" x1="67.75" y1="167.3" x2="68.15" y2="166.97"/><line class="a" x1="68.15" y1="166.97" x2="67.81" y2="166.58"/><line class="a" x1="77.72" y1="132.11" x2="84.72" y2="127.59"/><line class="a" x1="85.11" y1="127.34" x2="84.72" y2="127.59"/><line class="a" x1="84.72" y1="127.59" x2="84.72" y2="131.71"/><line class="a" x1="84.72" y1="131.71" x2="84.72" y2="152.11"/><line class="a" x1="84.72" y1="152.11" x2="85.11" y2="152.11"/><line class="a" x1="83.95" y1="128.09" x2="84.72" y2="127.77"/><line class="a" x1="84.72" y1="127.77" x2="84.72" y2="127.59"/><line class="a" x1="84.72" y1="131.78" x2="84.72" y2="131.71"/><line class="a" x1="78.23" y1="131.78" x2="84.72" y2="131.78"/><line class="a" x1="84.72" y1="127.77" x2="83.95" y2="128.09"/><line class="a" x1="84.72" y1="131.71" x2="84.72" y2="127.77"/><line class="a" x1="84.72" y1="134.04" x2="84.72" y2="131.78"/><line class="a" x1="77.72" y1="134.04" x2="84.72" y2="134.04"/><line class="a" x1="84.72" y1="131.78" x2="78.23" y2="131.78"/><line class="a" x1="84.72" y1="136.3" x2="84.72" y2="134.04"/><line class="a" x1="77.72" y1="136.3" x2="84.72" y2="136.3"/><line class="a" x1="84.72" y1="134.04" x2="77.72" y2="134.04"/><line class="a" x1="84.72" y1="136.3" x2="77.72" y2="136.3"/><line class="a" x1="84.72" y1="138.56" x2="84.72" y2="136.3"/><line class="a" x1="77.72" y1="138.56" x2="84.72" y2="138.56"/><line class="a" x1="84.72" y1="138.56" x2="77.72" y2="138.56"/><line class="a" x1="84.72" y1="140.82" x2="84.72" y2="138.56"/><line class="a" x1="77.72" y1="140.82" x2="84.72" y2="140.82"/><line class="a" x1="84.72" y1="140.82" x2="77.72" y2="140.82"/><line class="a" x1="84.72" y1="143.08" x2="84.72" y2="140.82"/><line class="a" x1="77.72" y1="143.08" x2="84.72" y2="143.08"/><line class="a" x1="84.72" y1="143.08" x2="77.72" y2="143.08"/><line class="a" x1="84.72" y1="145.34" x2="84.72" y2="143.08"/><line class="a" x1="77.72" y1="145.34" x2="84.72" y2="145.34"/><line class="a" x1="84.72" y1="145.34" x2="77.72" y2="145.34"/><line class="a" x1="84.72" y1="147.59" x2="84.72" y2="145.34"/><line class="a" x1="77.72" y1="147.59" x2="84.72" y2="147.59"/><line class="a" x1="84.72" y1="147.59" x2="77.72" y2="147.59"/><line class="a" x1="84.72" y1="149.85" x2="84.72" y2="147.59"/><line class="a" x1="77.72" y1="149.85" x2="84.72" y2="149.85"/><line class="a" x1="84.72" y1="149.85" x2="77.72" y2="149.85"/><line class="a" x1="84.72" y1="152.11" x2="84.72" y2="149.85"/><line class="a" x1="77.72" y1="152.11" x2="84.72" y2="152.11"/><line class="a" x1="59.42" y1="173.62" x2="59.42" y2="174.14"/><line class="a" x1="58.9" y1="173.62" x2="47.29" y2="173.62"/><line class="a" x1="47.29" y1="174.14" x2="58.9" y2="174.14"/><line class="a" x1="47.29" y1="173.88" x2="58.9" y2="173.88"/><line class="a" x1="59.42" y1="174.14" x2="59.6" y2="174.14"/><line class="a" x1="58.9" y1="174.14" x2="59.42" y2="174.14"/><line class="a" x1="58.9" y1="173.62" x2="58.9" y2="174.14"/><line class="a" x1="59.42" y1="173.62" x2="58.9" y2="173.62"/><line class="a" x1="47.08" y1="172.8" x2="59.12" y2="172.8"/><line class="a" x1="57.44" y1="174.14" x2="59.6" y2="174.14"/><line class="a" x1="51.65" y1="174.14" x2="54.55" y2="174.14"/><line class="a" x1="47.08" y1="172.8" x2="59.12" y2="172.8"/><line class="a" x1="46.48" y1="174.44" x2="59.72" y2="174.44"/><line class="a" x1="59.42" y1="173.62" x2="59.75" y2="174.02"/><line class="a" x1="67.42" y1="166.91" x2="59.81" y2="173.29"/><line class="a" x1="60.14" y1="173.69" x2="67.75" y2="167.3"/><line class="a" x1="59.98" y1="173.49" x2="67.59" y2="167.1"/><line class="a" x1="59.6" y1="174.14" x2="59.75" y2="174.02"/><line class="a" x1="59.81" y1="173.29" x2="59.42" y2="173.62"/><line class="a" x1="60.14" y1="173.69" x2="59.81" y2="173.29"/><line class="a" x1="59.75" y1="174.02" x2="60.14" y2="173.69"/><line class="a" x1="59.12" y1="172.8" x2="67.29" y2="165.95"/><line class="a" x1="67" y1="167.93" x2="68.15" y2="166.97"/><line class="a" x1="62.76" y1="171.48" x2="64.98" y2="169.62"/><line class="a" x1="59.6" y1="174.14" x2="60.75" y2="173.17"/><line class="a" x1="59.12" y1="172.8" x2="67.29" y2="165.95"/><line class="a" x1="59.72" y1="174.44" x2="68.34" y2="167.21"/><line class="a" x1="86.99" y1="165.92" x2="86.55" y2="165.92"/><line class="a" x1="87.57" y1="165.92" x2="86.55" y2="165.92"/><line class="a" x1="84.08" y1="165.92" x2="84.46" y2="165.92"/><line class="a" x1="84.08" y1="165.92" x2="84.46" y2="165.92"/><line class="a" x1="84.08" y1="164.64" x2="84.08" y2="165.92"/><line class="a" x1="84.08" y1="163.46" x2="84.46" y2="163.46"/><line class="a" x1="84.08" y1="163.46" x2="84.46" y2="163.46"/><line class="a" x1="84.08" y1="164.64" x2="84.08" y2="165.92"/><line class="a" x1="84.08" y1="163.46" x2="84.08" y2="164.64"/><line class="a" x1="84.08" y1="163.46" x2="84.08" y2="164.64"/><line class="a" x1="76.26" y1="165.92" x2="75.88" y2="165.92"/><line class="a" x1="76.26" y1="165.92" x2="75.88" y2="165.92"/><line class="a" x1="76.26" y1="164.64" x2="76.26" y2="165.92"/><line class="a" x1="76.26" y1="163.46" x2="75.88" y2="163.46"/><line class="a" x1="76.26" y1="163.46" x2="75.88" y2="163.46"/><line class="a" x1="76.26" y1="164.64" x2="76.26" y2="165.92"/><line class="a" x1="76.26" y1="163.46" x2="76.26" y2="164.64"/><line class="a" x1="76.26" y1="163.46" x2="76.26" y2="164.64"/><line class="a" x1="83.8" y1="163.46" x2="83.38" y2="163.46"/><line class="a" x1="83.67" y1="164.64" x2="84.08" y2="164.64"/><line class="a" x1="83.67" y1="163.87" x2="83.67" y2="164.64"/><line class="a" x1="83.8" y1="163.87" x2="83.67" y2="163.87"/><line class="a" x1="83.8" y1="163.46" x2="83.8" y2="163.87"/><line class="a" x1="84.08" y1="163.46" x2="83.8" y2="163.46"/><line class="a" x1="76.26" y1="164.64" x2="76.67" y2="164.64"/><line class="a" x1="76.55" y1="163.46" x2="76.26" y2="163.46"/><line class="a" x1="76.55" y1="163.87" x2="76.55" y2="163.46"/><line class="a" x1="76.67" y1="163.87" x2="76.55" y2="163.87"/><line class="a" x1="76.67" y1="164.64" x2="76.67" y2="163.87"/><line class="a" x1="83.95" y1="163.46" x2="83.95" y2="163.26"/><line class="a" x1="84.46" y1="163.46" x2="83.95" y2="163.46"/><line class="a" x1="84.46" y1="163.26" x2="84.46" y2="163.46"/><line class="a" x1="83.95" y1="163.26" x2="84.46" y2="163.26"/><line class="a" x1="76.39" y1="163.26" x2="76.39" y2="163.46"/><line class="a" x1="75.88" y1="163.26" x2="76.39" y2="163.26"/><line class="a" x1="75.88" y1="163.46" x2="75.88" y2="163.26"/><line class="a" x1="76.39" y1="163.46" x2="75.88" y2="163.46"/><line class="a" x1="83.95" y1="166.12" x2="83.95" y2="165.92"/><line class="a" x1="84.46" y1="166.12" x2="83.95" y2="166.12"/><line class="a" x1="84.46" y1="165.92" x2="84.46" y2="166.12"/><line class="a" x1="83.95" y1="165.92" x2="84.46" y2="165.92"/><line class="a" x1="83.83" y1="164.64" x2="84.08" y2="164.64"/><line class="a" x1="83.83" y1="165.92" x2="83.83" y2="164.64"/><line class="a" x1="84.08" y1="165.92" x2="83.83" y2="165.92"/><line class="a" x1="76.39" y1="165.92" x2="76.39" y2="166.12"/><line class="a" x1="75.88" y1="165.92" x2="76.39" y2="165.92"/><line class="a" x1="75.88" y1="166.12" x2="75.88" y2="165.92"/><line class="a" x1="76.39" y1="166.12" x2="75.88" y2="166.12"/><line class="a" x1="76.26" y1="164.64" x2="76.52" y2="164.64"/><line class="a" x1="76.52" y1="165.92" x2="76.26" y2="165.92"/><line class="a" x1="76.52" y1="164.64" x2="76.52" y2="165.92"/><line class="a" x1="63.39" y1="170.96" x2="65.61" y2="169.1"/><line class="a" x1="59.6" y1="174.14" x2="61.17" y2="172.82"/><line class="a" x1="57.44" y1="174.14" x2="59.6" y2="174.14"/><line class="a" x1="51.65" y1="174.14" x2="54.55" y2="174.14"/><line class="a" x1="83.05" y1="34.91" x2="63.37" y2="34.91"/><line class="a" x1="62.77" y1="33" x2="62.77" y2="34.91"/><line class="a" x1="62.93" y1="34.91" x2="62.77" y2="34.91"/><line class="a" x1="62.93" y1="31.62" x2="62.93" y2="31.82"/><line class="a" x1="62.93" y1="32.67" x2="62.93" y2="33"/><line class="a" x1="62.93" y1="32.67" x2="62.93" y2="33"/><line class="a" x1="62.93" y1="31.82" x2="62.93" y2="32.67"/><line class="a" x1="62.93" y1="31.82" x2="62.93" y2="32.67"/><line class="a" x1="59.44" y1="31.55" x2="55.79" y2="29.56"/><line class="a" x1="55.01" y1="28.85" x2="54.76" y2="29.3"/><line class="a" x1="55.91" y1="29.34" x2="55.01" y2="28.85"/><line class="a" x1="55.67" y1="29.79" x2="55.91" y2="29.34"/><line class="a" x1="54.76" y1="29.3" x2="55.67" y2="29.79"/><line class="a" x1="60.22" y1="32.27" x2="60.46" y2="31.82"/><line class="a" x1="59.32" y1="31.78" x2="60.22" y2="32.27"/><line class="a" x1="59.56" y1="31.33" x2="59.32" y2="31.78"/><line class="a" x1="60.46" y1="31.82" x2="59.56" y2="31.33"/><line class="a" x1="53.74" y1="29.56" x2="50.09" y2="31.55"/><line class="a" x1="49.97" y1="31.33" x2="49.07" y2="31.82"/><line class="a" x1="50.21" y1="31.78" x2="49.97" y2="31.33"/><line class="a" x1="49.31" y1="32.27" x2="50.21" y2="31.78"/><line class="a" x1="54.76" y1="29.3" x2="54.52" y2="28.85"/><line class="a" x1="53.86" y1="29.79" x2="54.76" y2="29.3"/><line class="a" x1="53.62" y1="29.34" x2="53.86" y2="29.79"/><line class="a" x1="54.52" y1="28.85" x2="53.62" y2="29.34"/><line class="a" x1="62.52" y1="33" x2="62.93" y2="33"/><line class="a" x1="62.52" y1="31.82" x2="62.52" y2="33"/><line class="a" x1="62.93" y1="31.82" x2="62.52" y2="31.82"/><line class="a" x1="62.93" y1="33" x2="62.93" y2="31.82"/><line class="a" x1="59.44" y1="31.55" x2="55.79" y2="29.56"/><line class="a" x1="55.79" y1="29.56" x2="55.67" y2="29.79"/><line class="a" x1="55.67" y1="29.79" x2="59.32" y2="31.78"/><line class="a" x1="59.32" y1="31.78" x2="59.44" y2="31.55"/><line class="a" x1="59.56" y1="31.33" x2="55.91" y2="29.34"/><line class="a" x1="55.91" y1="29.34" x2="55.79" y2="29.56"/><line class="a" x1="55.79" y1="29.56" x2="59.44" y2="31.55"/><line class="a" x1="59.44" y1="31.55" x2="59.56" y2="31.33"/><line class="a" x1="53.74" y1="29.56" x2="50.09" y2="31.55"/><line class="a" x1="50.09" y1="31.55" x2="50.21" y2="31.78"/><line class="a" x1="50.21" y1="31.78" x2="53.86" y2="29.79"/><line class="a" x1="53.86" y1="29.79" x2="53.74" y2="29.56"/><line class="a" x1="53.62" y1="29.34" x2="49.97" y2="31.33"/><line class="a" x1="49.97" y1="31.33" x2="50.09" y2="31.55"/><line class="a" x1="50.09" y1="31.55" x2="53.74" y2="29.56"/><line class="a" x1="53.74" y1="29.56" x2="53.62" y2="29.34"/><line class="a" x1="76.94" y1="32.33" x2="76.94" y2="34.91"/><line class="a" x1="77.09" y1="34.91" x2="76.94" y2="34.91"/><line class="a" x1="64.93" y1="32.33" x2="64.93" y2="34.91"/><line class="a" x1="64.77" y1="34.91" x2="64.93" y2="34.91"/><line class="a" x1="64.77" y1="31.62" x2="64.77" y2="31.82"/><line class="a" x1="64.77" y1="31.82" x2="64.77" y2="32.33"/><line class="a" x1="64.77" y1="31.82" x2="64.77" y2="32.33"/><line class="a" x1="76.32" y1="32.33" x2="71.45" y2="32.33"/><line class="a" x1="71.45" y1="31.82" x2="76.32" y2="31.82"/><line class="a" x1="71.45" y1="32.08" x2="76.32" y2="32.08"/><line class="a" x1="76.32" y1="31.82" x2="77.09" y2="31.82"/><line class="a" x1="76.32" y1="32.33" x2="76.32" y2="31.82"/><line class="a" x1="77.09" y1="32.33" x2="76.32" y2="32.33"/><line class="a" x1="71.45" y1="32.33" x2="70.93" y2="32.33"/><line class="a" x1="71.45" y1="31.82" x2="71.45" y2="32.33"/><line class="a" x1="70.93" y1="31.82" x2="71.45" y2="31.82"/><line class="a" x1="70.68" y1="32.33" x2="65.29" y2="32.33"/><line class="a" x1="65.29" y1="31.82" x2="70.68" y2="31.82"/><line class="a" x1="65.29" y1="32.08" x2="70.68" y2="32.08"/><line class="a" x1="70.68" y1="31.82" x2="70.93" y2="31.82"/><line class="a" x1="70.68" y1="32.33" x2="70.68" y2="31.82"/><line class="a" x1="70.93" y1="32.33" x2="70.68" y2="32.33"/><line class="a" x1="65.29" y1="32.33" x2="64.77" y2="32.33"/><line class="a" x1="65.29" y1="31.82" x2="65.29" y2="32.33"/><line class="a" x1="64.77" y1="31.82" x2="65.29" y2="31.82"/><line class="a" x1="64.93" y1="34.91" x2="76.94" y2="34.91"/><line class="a" x1="75.28" y1="31.62" x2="77.09" y2="31.62"/><line class="a" x1="69.48" y1="31.62" x2="72.38" y2="31.62"/><line class="a" x1="64.77" y1="31.62" x2="66.59" y2="31.62"/><line class="a" x1="64.77" y1="31.31" x2="77.09" y2="31.31"/><line class="a" x1="64.77" y1="31.62" x2="64.77" y2="31.31"/><line class="a" x1="62.93" y1="34.91" x2="64.77" y2="34.91"/><line class="a" x1="62.93" y1="33" x2="62.77" y2="33"/><line class="a" x1="62.93" y1="34.91" x2="62.77" y2="34.91"/><line class="a" x1="62.77" y1="33" x2="62.77" y2="34.91"/><line class="a" x1="64.77" y1="32.33" x2="64.93" y2="32.33"/><line class="a" x1="64.77" y1="34.91" x2="64.93" y2="34.91"/><line class="a" x1="64.93" y1="32.33" x2="64.93" y2="34.91"/><line class="a" x1="77.09" y1="32.33" x2="76.94" y2="32.33"/><line class="a" x1="77.09" y1="34.91" x2="76.94" y2="34.91"/><line class="a" x1="76.94" y1="32.33" x2="76.94" y2="34.91"/><line class="a" x1="37.41" y1="33" x2="37.41" y2="34.91"/><line class="a" x1="37.26" y1="34.91" x2="37.41" y2="34.91"/><line class="a" x1="37.26" y1="31.62" x2="37.26" y2="31.82"/><line class="a" x1="37.26" y1="32.67" x2="37.26" y2="33"/><line class="a" x1="37.26" y1="32.67" x2="37.26" y2="33"/><line class="a" x1="37.26" y1="31.82" x2="37.26" y2="32.67"/><line class="a" x1="37.26" y1="31.82" x2="37.26" y2="32.67"/><line class="a" x1="49.07" y1="31.82" x2="49.31" y2="32.27"/><line class="a" x1="48.04" y1="31.55" x2="44.39" y2="29.56"/><line class="a" x1="43.61" y1="28.85" x2="43.37" y2="29.3"/><line class="a" x1="44.51" y1="29.34" x2="43.61" y2="28.85"/><line class="a" x1="44.27" y1="29.79" x2="44.51" y2="29.34"/><line class="a" x1="43.37" y1="29.3" x2="44.27" y2="29.79"/><line class="a" x1="48.82" y1="32.27" x2="49.07" y2="31.82"/><line class="a" x1="47.92" y1="31.78" x2="48.82" y2="32.27"/><line class="a" x1="48.16" y1="31.33" x2="47.92" y2="31.78"/><line class="a" x1="49.07" y1="31.82" x2="48.16" y2="31.33"/><line class="a" x1="42.34" y1="29.56" x2="38.69" y2="31.55"/><line class="a" x1="37.67" y1="31.82" x2="37.91" y2="32.27"/><line class="a" x1="38.57" y1="31.33" x2="37.67" y2="31.82"/><line class="a" x1="38.82" y1="31.78" x2="38.57" y2="31.33"/><line class="a" x1="37.91" y1="32.27" x2="38.82" y2="31.78"/><line class="a" x1="43.37" y1="29.3" x2="43.12" y2="28.85"/><line class="a" x1="42.47" y1="29.79" x2="43.37" y2="29.3"/><line class="a" x1="42.22" y1="29.34" x2="42.47" y2="29.79"/><line class="a" x1="43.12" y1="28.85" x2="42.22" y2="29.34"/><line class="a" x1="37.26" y1="33" x2="37.67" y2="33"/><line class="a" x1="37.26" y1="31.82" x2="37.26" y2="33"/><line class="a" x1="37.67" y1="31.82" x2="37.26" y2="31.82"/><line class="a" x1="37.67" y1="33" x2="37.67" y2="31.82"/><line class="a" x1="48.04" y1="31.55" x2="44.39" y2="29.56"/><line class="a" x1="44.39" y1="29.56" x2="44.27" y2="29.79"/><line class="a" x1="44.27" y1="29.79" x2="47.92" y2="31.78"/><line class="a" x1="47.92" y1="31.78" x2="48.04" y2="31.55"/><line class="a" x1="48.16" y1="31.33" x2="44.51" y2="29.34"/><line class="a" x1="44.51" y1="29.34" x2="44.39" y2="29.56"/><line class="a" x1="44.39" y1="29.56" x2="48.04" y2="31.55"/><line class="a" x1="48.04" y1="31.55" x2="48.16" y2="31.33"/><line class="a" x1="42.34" y1="29.56" x2="38.69" y2="31.55"/><line class="a" x1="38.69" y1="31.55" x2="38.82" y2="31.78"/><line class="a" x1="38.82" y1="31.78" x2="42.47" y2="29.79"/><line class="a" x1="42.47" y1="29.79" x2="42.34" y2="29.56"/><line class="a" x1="42.22" y1="29.34" x2="38.57" y2="31.33"/><line class="a" x1="38.57" y1="31.33" x2="38.69" y2="31.55"/><line class="a" x1="38.69" y1="31.55" x2="42.34" y2="29.56"/><line class="a" x1="42.34" y1="29.56" x2="42.22" y2="29.34"/><line class="a" x1="39.03" y1="166.53" x2="39.58" y2="165.92"/><line class="a" x1="38.68" y1="166.91" x2="39.03" y2="166.53"/><line class="a" x1="38.68" y1="166.91" x2="39.03" y2="166.53"/><line class="a" x1="46.8" y1="173.63" x2="46.45" y2="174.01"/><line class="a" x1="46.42" y1="173.29" x2="39.41" y2="166.88"/><line class="a" x1="39.06" y1="167.25" x2="46.08" y2="173.66"/><line class="a" x1="39.23" y1="167.07" x2="46.25" y2="173.48"/><line class="a" x1="46.45" y1="174.01" x2="46.59" y2="174.14"/><line class="a" x1="46.08" y1="173.66" x2="46.45" y2="174.01"/><line class="a" x1="46.42" y1="173.29" x2="46.08" y2="173.66"/><line class="a" x1="46.8" y1="173.63" x2="46.42" y2="173.29"/><line class="a" x1="39.41" y1="166.88" x2="39.03" y2="166.53"/><line class="a" x1="39.06" y1="167.25" x2="39.41" y2="166.88"/><line class="a" x1="38.68" y1="166.91" x2="39.06" y2="167.25"/><line class="a" x1="39.58" y1="165.92" x2="47.13" y2="172.82"/><line class="a" x1="45.49" y1="173.13" x2="46.59" y2="174.14"/><line class="a" x1="41.57" y1="169.55" x2="43.71" y2="171.5"/><line class="a" x1="38.68" y1="166.91" x2="39.79" y2="167.92"/><line class="a" x1="38.47" y1="167.14" x2="46.47" y2="174.44"/><line class="a" x1="38.68" y1="166.91" x2="38.47" y2="167.14"/><line class="a" x1="37.6" y1="165.92" x2="38.68" y2="166.91"/><line class="a" x1="46.78" y1="173.62" x2="46.78" y2="174.14"/><line class="a" x1="46.59" y1="174.14" x2="46.78" y2="174.14"/><line class="a" x1="47.29" y1="173.62" x2="46.78" y2="173.62"/><line class="a" x1="47.29" y1="174.14" x2="47.29" y2="173.62"/><line class="a" x1="46.78" y1="174.14" x2="47.29" y2="174.14"/><line class="a" x1="46.59" y1="174.14" x2="48.75" y2="174.14"/><line class="a" x1="39.58" y1="165.92" x2="39.58" y2="163.46"/><line class="a" x1="46.59" y1="174.14" x2="48.75" y2="174.14"/><line class="a" x1="45.31" y1="172.96" x2="46.59" y2="174.14"/><line class="a" x1="41.03" y1="169.05" x2="43.17" y2="171.01"/><line class="a" x1="38.68" y1="166.91" x2="38.89" y2="167.1"/><polygon class="b" points="83.16 92.98 75.47 92.98 75.47 83.75 77.01 83.75 77.01 40.92 63.51 40.92 63.51 34.77 64.91 34.77 65.06 34.77 77.06 34.77 77.21 34.77 83.16 34.77 83.16 83.75 83.16 92.98"/><polygon class="b" points="79.95 124.05 79.94 123.88 79.93 123.71 79.95 123.59 79.98 123.48 80.05 123.38 80.13 123.3 80.23 123.23 80.34 123.19 80.46 123.17 80.55 123.18 80.39 121.44 80.37 120.91 80.43 120.38 80.55 119.87 80.75 119.39 81.01 119.01 81.35 118.71 81.74 118.53 82.16 118.47 82.58 118.53 82.98 118.71 83.32 119.01 83.58 119.39 83.77 119.87 83.9 120.38 83.96 120.91 83.94 121.44 83.78 123.18 83.87 123.17 83.98 123.19 84.09 123.23 84.2 123.3 84.28 123.38 84.34 123.48 84.38 123.59 84.39 123.71 84.39 123.88 84.37 124.05 84.35 124.22 84.31 124.39 84.27 124.55 84.22 124.72 84.15 124.88 84.08 125.03 83.61 125.03 82.75 125.03 82.58 125.03 82.33 125.03 82.28 125.03 82.16 125.03 82.05 125.03 82 125.03 81.75 125.03 81.58 125.03 80.72 125.03 80.25 125.03 80.17 124.88 80.11 124.72 80.06 124.55 80.01 124.39 79.98 124.22 79.95 124.05"/><polygon class="b" points="63.07 76.55 56.92 76.55 56.92 52.26 63.07 52.26 69.22 52.26 69.22 76.55 63.07 76.55"/><path class="b" d="M85.16,112.12v3.32a.15.15,0,0,1-.15.15H82.24a.15.15,0,0,1-.15-.15v-4.31a.15.15,0,0,1,.15-.15H85a.15.15,0,0,1,.15.15Z"/><line class="c" x1="57.02" y1="84.15" x2="58.18" y2="87.06"/><line class="c" x1="59.34" y1="84.15" x2="58.18" y2="87.06"/><line class="c" x1="61.57" y1="78.53" x2="61.57" y2="87.06"/><line class="c" x1="54.8" y1="87.06" x2="54.8" y2="78.53"/><line class="c" x1="61.57" y1="87.06" x2="54.8" y2="87.06"/><line class="c" x1="62.19" y1="87.66" x2="54.18" y2="87.66"/><line class="c" x1="54.18" y1="87.98" x2="62.19" y2="87.98"/><line class="c" x1="62.19" y1="87.98" x2="62.19" y2="77.94"/><line class="c" x1="54.18" y1="77.94" x2="54.18" y2="87.98"/><line class="c" x1="68.56" y1="84.15" x2="69.72" y2="87.06"/><line class="c" x1="70.88" y1="84.15" x2="69.72" y2="87.06"/><line class="c" x1="73.11" y1="78.53" x2="73.11" y2="87.06"/><line class="c" x1="66.33" y1="87.06" x2="66.33" y2="78.53"/><line class="c" x1="73.11" y1="87.06" x2="66.33" y2="87.06"/><line class="c" x1="73.72" y1="87.66" x2="65.71" y2="87.66"/><line class="c" x1="65.71" y1="87.98" x2="73.72" y2="87.98"/><line class="c" x1="73.72" y1="87.98" x2="73.72" y2="77.94"/><line class="c" x1="65.71" y1="77.94" x2="65.71" y2="87.98"/><line class="c" x1="72.81" y1="57.29" x2="42" y2="57.29"/><line class="c" x1="72.81" y1="41.89" x2="72.81" y2="57.29"/><line class="c" x1="42" y1="41.89" x2="72.81" y2="41.89"/><line class="c" x1="72.91" y1="41.79" x2="41.9" y2="41.79"/><line class="c" x1="72.91" y1="57.4" x2="72.91" y2="41.79"/><line class="c" x1="41.9" y1="57.4" x2="72.91" y2="57.4"/><line class="c" x1="57.35" y1="57.09" x2="49.76" y2="57.09"/><line class="c" x1="65.05" y1="57.09" x2="57.46" y2="57.09"/><line class="c" x1="72.47" y1="57.09" x2="65.16" y2="57.09"/><line class="c" x1="57.46" y1="42.1" x2="65.05" y2="42.1"/><line class="c" x1="49.76" y1="42.1" x2="57.35" y2="42.1"/><line class="c" x1="57.35" y1="56.88" x2="49.76" y2="56.88"/><line class="c" x1="65.05" y1="56.88" x2="57.46" y2="56.88"/><line class="c" x1="72.26" y1="56.88" x2="65.16" y2="56.88"/><line class="c" x1="65.16" y1="42.3" x2="72.26" y2="42.3"/><line class="c" x1="57.46" y1="42.3" x2="65.05" y2="42.3"/><line class="c" x1="49.76" y1="42.3" x2="57.35" y2="42.3"/><line class="c" x1="65.06" y1="49.68" x2="72.67" y2="57.29"/><line class="c" x1="49.75" y1="49.68" x2="65.06" y2="49.68"/><line class="c" x1="42.14" y1="57.29" x2="49.75" y2="49.68"/><line class="c" x1="65.11" y1="49.59" x2="72.81" y2="57.29"/><line class="c" x1="72.81" y1="41.89" x2="65.11" y2="49.59"/><line class="c" x1="65.24" y1="49.59" x2="72.81" y2="42.03"/><line class="c" x1="72.81" y1="57.16" x2="65.24" y2="49.59"/><line class="c" x1="57.35" y1="57.26" x2="57.4" y2="57.26"/><line class="c" x1="49.7" y1="57.26" x2="49.76" y2="57.26"/><line class="c" x1="57.35" y1="53.43" x2="49.76" y2="53.43"/><line class="c" x1="57.35" y1="53.52" x2="57.35" y2="57.26"/><line class="c" x1="49.76" y1="53.52" x2="57.35" y2="53.52"/><line class="c" x1="49.76" y1="57.26" x2="49.76" y2="53.52"/><line class="c" x1="57.35" y1="53.4" x2="49.76" y2="53.4"/><line class="c" x1="65.05" y1="57.26" x2="65.11" y2="57.26"/><line class="c" x1="57.4" y1="57.26" x2="57.46" y2="57.26"/><line class="c" x1="65.05" y1="53.43" x2="57.46" y2="53.43"/><line class="c" x1="65.05" y1="53.52" x2="65.05" y2="57.26"/><line class="c" x1="57.46" y1="53.52" x2="65.05" y2="53.52"/><line class="c" x1="57.46" y1="57.26" x2="57.46" y2="53.52"/><line class="c" x1="65.05" y1="53.4" x2="57.46" y2="53.4"/><line class="c" x1="65.11" y1="57.26" x2="65.16" y2="57.26"/><line class="c" x1="68.81" y1="53.43" x2="65.16" y2="53.43"/><line class="c" x1="65.16" y1="53.52" x2="68.9" y2="53.52"/><line class="c" x1="65.16" y1="57.26" x2="65.16" y2="53.52"/><line class="c" x1="68.78" y1="53.4" x2="65.16" y2="53.4"/><line class="c" x1="72.71" y1="42.12" x2="72.71" y2="57.07"/><line class="c" x1="57.35" y1="49.68" x2="57.35" y2="53.43"/><line class="c" x1="49.76" y1="53.43" x2="49.76" y2="49.68"/><line class="c" x1="65.05" y1="49.68" x2="65.05" y2="53.43"/><line class="c" x1="57.46" y1="53.43" x2="57.46" y2="49.68"/><line class="c" x1="65.16" y1="53.43" x2="65.16" y2="49.78"/><line class="c" x1="68.94" y1="45.89" x2="68.94" y2="53.3"/><line class="c" x1="69.03" y1="53.38" x2="69.03" y2="45.8"/><line class="c" x1="68.93" y1="53.28" x2="68.93" y2="45.9"/><line class="c" x1="49.7" y1="49.59" x2="65.11" y2="49.59"/><line class="c" x1="49.75" y1="49.51" x2="42.14" y2="41.89"/><line class="c" x1="65.06" y1="49.51" x2="49.75" y2="49.51"/><line class="c" x1="72.67" y1="41.89" x2="65.06" y2="49.51"/><line class="c" x1="49.76" y1="49.51" x2="49.76" y2="45.75"/><line class="c" x1="57.35" y1="45.75" x2="57.35" y2="49.51"/><line class="c" x1="57.46" y1="49.51" x2="57.46" y2="45.75"/><line class="c" x1="65.05" y1="45.75" x2="65.05" y2="49.51"/><line class="c" x1="65.16" y1="49.41" x2="65.16" y2="45.75"/><line class="c" x1="49.76" y1="41.93" x2="49.7" y2="41.93"/><line class="c" x1="57.4" y1="41.93" x2="57.35" y2="41.93"/><line class="c" x1="49.76" y1="45.75" x2="57.35" y2="45.75"/><line class="c" x1="49.76" y1="45.67" x2="49.76" y2="41.93"/><line class="c" x1="57.35" y1="45.67" x2="49.76" y2="45.67"/><line class="c" x1="57.35" y1="41.93" x2="57.35" y2="45.67"/><line class="c" x1="49.76" y1="45.79" x2="57.35" y2="45.79"/><line class="c" x1="57.46" y1="41.93" x2="57.4" y2="41.93"/><line class="c" x1="65.11" y1="41.93" x2="65.05" y2="41.93"/><line class="c" x1="57.46" y1="45.75" x2="65.05" y2="45.75"/><line class="c" x1="57.46" y1="45.67" x2="57.46" y2="41.93"/><line class="c" x1="65.05" y1="45.67" x2="57.46" y2="45.67"/><line class="c" x1="65.05" y1="41.93" x2="65.05" y2="45.67"/><line class="c" x1="57.46" y1="45.79" x2="65.05" y2="45.79"/><line class="c" x1="65.16" y1="41.93" x2="65.11" y2="41.93"/><line class="c" x1="65.16" y1="45.75" x2="68.81" y2="45.75"/><line class="c" x1="65.16" y1="45.67" x2="65.16" y2="41.93"/><line class="c" x1="68.9" y1="45.67" x2="65.16" y2="45.67"/><line class="c" x1="65.16" y1="45.79" x2="68.78" y2="45.79"/><line class="c" x1="41.9" y1="57.4" x2="72.81" y2="57.4"/><line class="c" x1="72.81" y1="57.4" x2="72.81" y2="41.79"/><line class="c" x1="72.81" y1="41.79" x2="41.9" y2="41.79"/><line class="c" x1="50.16" y1="78.53" x2="49" y2="81.45"/><line class="c" x1="50.16" y1="78.53" x2="50.16" y2="87.06"/><line class="c" x1="43.38" y1="78.53" x2="50.16" y2="78.53"/><line class="c" x1="50.16" y1="87.06" x2="43.38" y2="87.06"/><line class="c" x1="50.77" y1="87.66" x2="42.76" y2="87.66"/><line class="c" x1="42.76" y1="87.98" x2="50.77" y2="87.98"/><line class="c" x1="50.77" y1="87.98" x2="50.77" y2="77.94"/><line class="c" x1="50.77" y1="77.94" x2="42.76" y2="77.94"/><line class="c" x1="54.8" y1="78.53" x2="55.95" y2="81.45"/><line class="c" x1="61.57" y1="78.53" x2="60.41" y2="81.45"/><line class="c" x1="54.8" y1="78.53" x2="61.57" y2="78.53"/><line class="c" x1="62.19" y1="77.94" x2="54.18" y2="77.94"/><line class="c" x1="66.33" y1="78.53" x2="67.49" y2="81.45"/><line class="c" x1="73.11" y1="78.53" x2="71.95" y2="81.45"/><line class="c" x1="66.33" y1="78.53" x2="73.11" y2="78.53"/><line class="c" x1="73.72" y1="77.94" x2="65.71" y2="77.94"/><line class="c" x1="49.65" y1="57.09" x2="42.34" y2="57.09"/><line class="c" x1="42.34" y1="42.1" x2="49.65" y2="42.1"/><line class="c" x1="49.65" y1="56.88" x2="42.55" y2="56.88"/><line class="c" x1="42.55" y1="42.3" x2="49.65" y2="42.3"/><line class="c" x1="49.7" y1="49.59" x2="42" y2="41.89"/><line class="c" x1="42" y1="57.29" x2="49.7" y2="49.59"/><line class="c" x1="49.57" y1="49.59" x2="42" y2="57.16"/><line class="c" x1="42" y1="42.03" x2="49.57" y2="49.59"/><line class="c" x1="49.65" y1="57.26" x2="49.7" y2="57.26"/><line class="c" x1="49.65" y1="53.43" x2="46" y2="53.43"/><line class="c" x1="49.65" y1="53.52" x2="49.65" y2="57.26"/><line class="c" x1="45.91" y1="53.52" x2="49.65" y2="53.52"/><line class="c" x1="49.65" y1="53.4" x2="46.03" y2="53.4"/><line class="c" x1="49.65" y1="49.78" x2="49.65" y2="53.43"/><line class="c" x1="49.65" y1="45.75" x2="49.65" y2="49.41"/><line class="c" x1="49.7" y1="41.93" x2="49.65" y2="41.93"/><line class="c" x1="46" y1="45.75" x2="49.65" y2="45.75"/><line class="c" x1="49.65" y1="45.67" x2="45.91" y2="45.67"/><line class="c" x1="49.65" y1="41.93" x2="49.65" y2="45.67"/><line class="c" x1="46.03" y1="45.79" x2="49.65" y2="45.79"/><line class="c" x1="42" y1="57.29" x2="42" y2="41.89"/><line class="c" x1="41.9" y1="41.79" x2="41.9" y2="57.4"/><line class="c" x1="42.1" y1="57.07" x2="42.1" y2="42.12"/><line class="c" x1="45.86" y1="53.3" x2="45.86" y2="45.89"/><line class="c" x1="45.78" y1="45.8" x2="45.78" y2="53.38"/><line class="c" x1="45.88" y1="45.9" x2="45.88" y2="53.28"/><line class="c" x1="41.9" y1="41.79" x2="41.9" y2="57.4"/><line class="c" x1="45.61" y1="84.15" x2="46.77" y2="87.06"/><line class="c" x1="43.38" y1="78.53" x2="44.54" y2="81.45"/><line class="c" x1="47.93" y1="84.15" x2="46.77" y2="87.06"/><line class="c" x1="43.38" y1="87.06" x2="43.38" y2="78.53"/><line class="c" x1="42.76" y1="77.94" x2="42.76" y2="87.98"/><polyline class="d" points="85.11 114.7 85.26 114.7 85.26 114.42 85.11 114.42"/><polyline class="d" points="72.05 167.42 72.05 165.92 69.39 165.92 68.14 166.97 67.81 166.58 67.29 165.95"/><polyline class="d" points="75.88 163.46 76.26 163.46 76.26 164.64 76.26 165.92 75.88 165.92"/><polyline class="d" points="84.46 165.92 84.08 165.92 84.08 164.64 84.08 163.46 84.46 163.46"/><polyline class="d" points="85.11 112.65 85.26 112.65 85.26 112.37 85.11 112.37"/><polygon class="d" points="37.26 33 37.41 33 37.41 34.91 37.26 34.91 36.88 34.91 36.88 82.7 36.88 85.17 34.82 85.17 34.82 93.22 34.82 95.69 34.82 100.8 39 100.8 39 117.34 34.82 117.34 34.82 129.73 37.11 129.73 37.11 130.91 34.82 130.91 34.82 138.86 38.29 138.86 38.29 153.82 34.82 153.82 34.82 163.46 39.58 163.46 39.58 165.92 39.03 166.53 38.68 166.91 37.6 165.92 33.59 165.92 32.36 165.92 32.36 82.7 33.59 82.7 33.59 59.94 33.59 31.62 37.26 31.62 37.26 31.82 37.26 32.67 37.26 33"/><polygon class="d" points="78.51 117.48 78.77 117.48 78.77 117.73 78.77 118.11 78.77 125.29 85.11 125.29 85.11 114.7 85.11 114.42 85.11 112.65 85.11 112.37 85.11 109.95 78.77 109.95 78.77 110.31 78.77 110.69 78.77 110.95 78.51 110.95 78.51 111.1 77.74 111.1 77.74 110.98 77.33 110.98 77.33 110.82 77.33 110.69 77.33 110.31 77.33 107.9 77.33 107.52 77.33 107.38 77.33 107.23 77.74 107.23 77.74 107.11 78.51 107.11 78.51 107.26 78.77 107.26 78.77 107.52 78.77 107.9 78.77 108.51 85.11 108.51 85.11 95.69 78.77 95.69 78.77 96.87 78.77 97.25 78.77 97.5 78.51 97.5 78.51 97.66 77.74 97.66 77.74 97.54 77.33 97.54 77.33 97.38 77.33 97.25 77.33 96.87 77.33 95.69 77.18 95.69 77.18 93.22 83.05 93.22 83.2 93.22 83.2 34.76 77.09 34.76 77.09 32.34 77.09 31.82 77.09 31.62 86.34 31.62 86.34 59.94 86.34 93.22 87.58 93.22 87.58 165.92 86.55 165.92 86.34 165.92 84.46 165.92 84.08 165.92 84.08 164.64 84.08 163.46 84.46 163.46 85.11 163.46 85.11 152.11 85.11 131.71 85.11 127.34 85.11 126.47 78.77 126.47 78.77 126.74 78.56 126.7 77.53 126.53 77.33 126.49 77.33 125.32 77.33 125.29 77.33 118.11 77.33 117.73 77.33 117.6 77.33 117.45 77.74 117.45 77.74 117.32 78.51 117.32 78.51 117.48"/><polygon class="d" points="69.1 163.46 75.88 163.46 76.26 163.46 76.26 164.64 76.26 165.92 75.88 165.92 73.07 165.92 73.07 175.97 73.17 175.97 73.17 177 72.05 177 72.05 175.5 72.05 172.91 72.05 170.01 72.05 167.42 72.05 165.92 69.39 165.92 68.14 166.97 67.81 166.58 67.29 165.95 67.32 165.92 67.32 163.46 67.92 163.46 67.92 146.93 67.92 146.55 69.1 146.55 69.1 146.93 69.1 163.46"/><polygon class="d" points="62.13 130.07 69.1 137.05 69.1 138.34 69.1 138.72 67.92 138.72 67.92 138.34 67.92 137.54 61.29 130.91 59.15 130.91 59.15 129.73 60.8 129.73 61.18 129.35 61.45 129.08 61.54 128.99 61.65 128.88 61.94 129.17 62.03 129.08 62.57 129.63 62.37 129.82 62.28 129.92 62.13 130.07"/><polygon class="d" points="67.06 124.05 66.77 123.75 66.88 123.65 66.98 123.55 67.25 123.28 67.59 122.94 67.59 95.69 64.76 95.69 64.76 93.22 67.23 93.22 67.23 91.67 68.96 91.67 68.96 93.22 68.96 95.69 68.78 95.69 68.78 123.42 68.08 124.12 67.81 124.39 67.72 124.48 67.52 124.68 66.98 124.13 67.06 124.05"/><polyline class="d" points="73.17 175.97 73.17 177 72.05 177 72.05 175.5"/><polygon class="d" points="64.77 32.34 64.77 34.76 62.93 34.76 62.93 33 62.93 32.67 62.93 31.82 62.93 31.62 64.77 31.62 64.77 31.82 64.77 32.34"/><polyline class="d" points="87.58 165.92 87.58 177 86.51 177 86.51 175.97 86.55 175.97 86.55 165.92 86.34 165.92"/></svg>