<svg xmlns="http://www.w3.org/2000/svg" viewBox="0 0 113.39 198.43"><defs><style>.a,.c{fill:none;stroke-linecap:round;stroke-linejoin:round;stroke-width:0.1px;}.a{stroke:#1d1d1b;}.b{fill:silver;}.c{stroke:blue;}.d{fill:#1d1d1b;}</style></defs><line class="a" x1="70.82" y1="52.3" x2="56.85" y2="52.3"/><rect class="a" x="70.17" y="45.99" width="0.3" height="6.35"/><rect class="a" x="57.2" y="45.99" width="0.3" height="6.35"/><line class="a" x1="44.5" y1="54.17" x2="56.29" y2="54.17"/><line class="a" x1="56.85" y1="53.52" x2="44.8" y2="53.52"/><line class="a" x1="44.89" y1="53.78" x2="56.42" y2="53.78"/><line class="a" x1="56.42" y1="53.78" x2="44.89" y2="53.78"/><line class="a" x1="44.89" y1="53.86" x2="56.42" y2="53.86"/><line class="a" x1="44.89" y1="53.91" x2="56.42" y2="53.91"/><line class="a" x1="56.85" y1="55.39" x2="44.5" y2="55.39"/><line class="a" x1="56.85" y1="55.39" x2="56.85" y2="51.78"/><line class="a" x1="80.17" y1="159.59" x2="72.69" y2="159.59"/><line class="a" x1="80.17" y1="160.63" x2="72.69" y2="160.63"/><line class="a" x1="72.69" y1="160.46" x2="80.17" y2="160.46"/><polyline class="a" points="80.17 159.76 72.69 159.76 73.21 159.76"/><line class="a" x1="73.08" y1="160.02" x2="79.78" y2="160.02"/><line class="a" x1="73.08" y1="160.07" x2="79.78" y2="160.07"/><polyline class="a" points="79.78 160.15 73.08 160.15 73.21 160.15"/><line class="a" x1="73.08" y1="160.2" x2="79.78" y2="160.2"/><line class="a" x1="68.25" y1="165.46" x2="60.12" y2="173.86"/><line class="a" x1="68.9" y1="166.07" x2="60.77" y2="174.51"/><line class="a" x1="67.47" y1="165.72" x2="60.38" y2="173.03"/><line class="a" x1="67.73" y1="164.94" x2="59.55" y2="173.34"/><line class="a" x1="67.08" y1="164.29" x2="58.9" y2="172.68"/><line class="a" x1="38.93" y1="165.46" x2="47.06" y2="173.86"/><line class="a" x1="38.28" y1="166.07" x2="46.41" y2="174.51"/><line class="a" x1="39.71" y1="165.72" x2="46.8" y2="173.03"/><line class="a" x1="39.49" y1="164.94" x2="47.63" y2="173.34"/><line class="a" x1="40.1" y1="164.29" x2="48.28" y2="172.68"/><line class="a" x1="48.28" y1="174.38" x2="58.9" y2="174.38"/><line class="a" x1="48.28" y1="175.29" x2="58.9" y2="175.29"/><line class="a" x1="49.02" y1="173.99" x2="58.16" y2="173.99"/><line class="a" x1="48.28" y1="173.6" x2="58.9" y2="173.6"/><line class="a" x1="48.28" y1="172.68" x2="58.9" y2="172.68"/><line class="a" x1="80.17" y1="160.63" x2="80.17" y2="159.59"/><rect class="a" x="88.22" y="151.89" width="0.39" height="8.01"/><rect class="a" x="80.74" y="147.14" width="1" height="1"/><polyline class="a" points="81.48 129.39 83.83 131.05 83.48 132.09 84.87 130.39 84.57 131.4 89.09 133.74"/><line class="a" x1="83.7" y1="131.44" x2="81.48" y2="131.44"/><line class="a" x1="89.09" y1="133.74" x2="81.48" y2="133.74"/><line class="a" x1="89.09" y1="136.09" x2="81.48" y2="136.09"/><line class="a" x1="89.09" y1="138.4" x2="81.48" y2="138.4"/><line class="a" x1="89.09" y1="140.71" x2="81.48" y2="140.71"/><line class="a" x1="89.09" y1="143.01" x2="81.48" y2="143.01"/><line class="a" x1="89.09" y1="147.62" x2="81.74" y2="147.62"/><line class="a" x1="89.09" y1="145.32" x2="81.48" y2="145.32"/><line class="a" x1="81" y1="128.61" x2="81" y2="147.14"/><line class="a" x1="81.48" y1="128.61" x2="81.48" y2="147.14"/><polyline class="a" points="56.85 51.78 43.98 51.78 43.98 52.3"/><polyline class="a" points="71.34 52.3 71.34 51.78 80.09 51.78 80.09 52.3"/><line class="a" x1="71.86" y1="54.43" x2="79.56" y2="54.43"/><polyline class="a" points="79.56 53.73 71.86 53.73 72.39 53.73"/><line class="a" x1="72.25" y1="54" x2="79.17" y2="54"/><line class="a" x1="72.25" y1="54.04" x2="79.17" y2="54.04"/><polyline class="a" points="79.17 54.13 72.25 54.13 72.39 54.13"/><line class="a" x1="72.25" y1="54.17" x2="79.17" y2="54.17"/><line class="a" x1="79.56" y1="55.39" x2="71.86" y2="55.39"/><line class="a" x1="79.56" y1="55.39" x2="79.56" y2="52.78"/><polygon class="b" points="77.33 56.81 77.49 57.31 77.54 57.46 77.58 57.62 77.62 57.77 77.65 57.92 77.69 58.07 77.72 58.23 77.74 58.38 77.77 58.54 77.79 58.69 77.81 58.85 77.82 59 77.83 59.16 77.84 59.32 77.85 59.47 77.85 59.69 77.85 59.81 77.85 59.88 77.84 59.95 77.84 60.01 77.83 60.08 77.82 60.15 77.81 60.21 77.79 60.28 77.78 60.34 77.76 60.41 77.74 60.48 77.72 60.54 77.7 60.6 77.67 60.66 77.65 60.73 77.62 60.79 77.59 60.85 77.56 60.91 77.53 60.97 77.49 61.02 77.46 61.08 77.42 61.14 77.38 61.19 77.34 61.25 77.3 61.3 77.25 61.35 77.21 61.4 77.16 61.45 77.11 61.5 77.06 61.55 77.01 61.59 76.97 61.64 76.95 61.66 76.92 61.68 76.89 61.7 76.87 61.72 76.84 61.73 76.81 61.75 76.78 61.77 76.75 61.79 76.73 61.8 76.7 61.82 76.67 61.83 76.64 61.85 76.61 61.86 76.58 61.87 76.55 61.89 76.52 61.9 76.48 61.91 76.45 61.92 76.42 61.93 76.39 61.94 76.36 61.95 76.33 61.95 76.29 61.96 76.26 61.97 76.23 61.97 76.19 61.98 76.16 61.98 76.13 61.98 76.09 61.98 76.06 61.99 76.03 61.99 76 61.99 75.96 61.99 75.93 61.99 75.89 61.98 75.86 61.98 75.83 61.98 75.8 61.98 75.76 61.97 75.73 61.97 75.7 61.96 75.67 61.95 75.63 61.95 75.6 61.94 75.57 61.93 75.54 61.92 75.51 61.91 75.47 61.9 75.44 61.89 75.41 61.87 75.38 61.86 75.35 61.85 75.32 61.83 75.29 61.82 75.26 61.8 75.23 61.79 75.21 61.77 75.18 61.75 75.15 61.73 75.12 61.72 75.09 61.7 75.07 61.68 75.04 61.66 75.01 61.64 74.95 61.59 74.9 61.55 74.85 61.5 74.81 61.45 74.76 61.4 74.72 61.35 74.67 61.3 74.63 61.25 74.59 61.19 74.55 61.14 74.51 61.08 74.48 61.02 74.44 60.97 74.41 60.91 74.38 60.85 74.35 60.79 74.32 60.73 74.3 60.66 74.27 60.6 74.25 60.54 74.23 60.48 74.21 60.41 74.19 60.34 74.18 60.28 74.16 60.21 74.15 60.15 74.14 60.08 74.13 60.01 74.12 59.95 74.12 59.88 74.12 59.81 74.11 59.69 74.12 59.47 74.13 59.32 74.14 59.16 74.15 59 74.16 58.85 74.18 58.69 74.2 58.54 74.23 58.38 74.25 58.23 74.28 58.07 74.31 57.92 74.35 57.77 74.39 57.62 74.43 57.46 74.48 57.31 74.64 56.81 74.55 56.8 74.05 56.76 74.05 55.52 77.9 55.52 77.9 56.75 77.9 56.76 77.44 56.8 77.33 56.81"/><polygon class="b" points="73.49 67.61 72.27 67.61 72.27 63.68 73.49 63.68 73.77 63.73 74.05 63.86 74.31 64.05 74.53 64.29 74.7 64.57 74.83 64.92 74.92 65.27 74.94 65.64 74.92 66.01 74.83 66.38 74.7 66.7 74.53 67.01 74.31 67.25 74.05 67.42 73.77 67.55 73.49 67.61"/><polygon class="b" points="43.32 88.36 41.93 88.36 37.15 88.36 37.15 55.52 44.84 55.52 57.18 55.52 57.18 61.64 43.32 61.64 43.32 88.36"/><polygon class="b" points="80.47 55.52 87.55 55.52 87.55 72.72 87.55 72.76 80.47 72.76 80.47 55.52"/><line class="c" x1="60.73" y1="74.01" x2="61.51" y2="74.01"/><line class="c" x1="58.85" y1="74.01" x2="59.59" y2="74.01"/><line class="c" x1="56.98" y1="74.01" x2="57.77" y2="74.01"/><line class="c" x1="55.16" y1="74.01" x2="55.9" y2="74.01"/><polyline class="c" points="53.24 74.4 53.24 74.01 54.02 74.01"/><line class="c" x1="53.24" y1="76.23" x2="53.24" y2="75.49"/><line class="c" x1="53.24" y1="78.1" x2="53.24" y2="77.36"/><line class="c" x1="53.24" y1="79.93" x2="53.24" y2="79.19"/><line class="c" x1="53.24" y1="81.8" x2="53.24" y2="81.06"/><polyline class="c" points="54.02 83.28 53.24 83.28 53.24 82.88"/><line class="c" x1="55.9" y1="83.28" x2="55.16" y2="83.28"/><line class="c" x1="57.77" y1="83.28" x2="56.98" y2="83.28"/><line class="c" x1="59.59" y1="83.28" x2="58.85" y2="83.28"/><polyline class="c" points="61.51 82.88 61.51 83.28 60.73 83.28"/><line class="c" x1="61.51" y1="81.06" x2="61.51" y2="81.8"/><line class="c" x1="61.51" y1="79.19" x2="61.51" y2="79.93"/><line class="c" x1="61.51" y1="77.36" x2="61.51" y2="78.1"/><line class="c" x1="61.51" y1="75.49" x2="61.51" y2="76.23"/><line class="c" x1="61.51" y1="74.01" x2="61.51" y2="74.4"/><line class="c" x1="61.64" y1="73.49" x2="61.99" y2="73.49"/><line class="c" x1="59.77" y1="73.49" x2="60.51" y2="73.49"/><line class="c" x1="57.94" y1="73.49" x2="58.68" y2="73.49"/><line class="c" x1="56.07" y1="73.49" x2="56.81" y2="73.49"/><line class="c" x1="54.24" y1="73.49" x2="54.98" y2="73.49"/><polyline class="c" points="52.76 74.4 52.76 73.49 53.11 73.49"/><line class="c" x1="52.76" y1="76.23" x2="52.76" y2="75.49"/><line class="c" x1="52.76" y1="78.1" x2="52.76" y2="77.36"/><line class="c" x1="52.76" y1="79.93" x2="52.76" y2="79.19"/><line class="c" x1="52.76" y1="81.8" x2="52.76" y2="81.06"/><polyline class="c" points="53.11 83.75 52.76 83.75 52.76 82.88"/><line class="c" x1="54.98" y1="83.75" x2="54.24" y2="83.75"/><line class="c" x1="56.81" y1="83.75" x2="56.07" y2="83.75"/><line class="c" x1="58.68" y1="83.75" x2="57.94" y2="83.75"/><line class="c" x1="60.51" y1="83.75" x2="59.77" y2="83.75"/><polyline class="c" points="61.99 82.88 61.99 83.75 61.64 83.75"/><line class="c" x1="61.99" y1="81.06" x2="61.99" y2="81.8"/><line class="c" x1="61.99" y1="79.19" x2="61.99" y2="79.93"/><line class="c" x1="61.99" y1="77.36" x2="61.99" y2="78.1"/><line class="c" x1="61.99" y1="75.49" x2="61.99" y2="76.23"/><line class="c" x1="61.99" y1="73.49" x2="61.99" y2="74.4"/><polygon class="d" points="44.5 52.3 44.5 55.39 36.8 55.39 36.8 88.28 41.58 88.28 41.58 90.85 35.01 90.85 35.01 136.96 38.45 136.96 38.45 152.89 35.01 152.89 35.01 163.5 39.36 163.5 40.1 164.29 38.27 166.07 32.4 166.07 32.4 88.28 33.71 88.28 33.71 81.41 33.71 77.27 33.71 73.18 33.71 69.05 33.71 64.96 33.71 60.83 33.71 56.74 33.71 52.6 33.71 52.3 41.58 52.3 44.5 52.3"/><rect class="d" x="70.82" y="52.3" width="1.04" height="26.15"/><polygon class="d" points="87.26 77.45 79.65 77.45 79.65 78.45 87.26 78.45 87.26 88.28 82.48 88.28 82.48 90.85 89.09 90.85 89.09 163.5 87.26 163.5 87.26 166.07 91.66 166.07 91.66 88.28 90.35 88.28 90.35 84.75 90.35 80.67 90.35 76.53 90.35 72.44 90.35 68.31 90.35 64.22 90.35 60.09 90.35 56 90.35 52.3 79.56 52.3 79.56 55.39 87.26 55.39 87.26 77.45"/><polygon class="d" points="46.41 174.51 48.28 172.68 48.28 175.29 47.19 175.29 46.41 174.51"/><polygon class="d" points="58.9 175.29 58.9 172.68 60.77 174.51 59.98 175.29 58.9 175.29"/><polygon class="d" points="72.69 163.5 74.52 163.5 74.52 166.07 68.9 166.07 67.08 164.29 67.82 163.5 71.64 163.5 71.64 128.61 71.38 128.61 71.38 127.61 71.64 127.61 72.99 127.61 72.99 127.96 72.99 128.18 72.99 128.39 72.99 128.61 72.69 128.61 72.69 159.59 72.69 160.63 72.69 163.5"/></svg>