<svg xmlns="http://www.w3.org/2000/svg" viewBox="0 0 318.24 583.97"><defs><style>.a{fill:silver;}.b,.c{fill:none;stroke-linecap:round;stroke-linejoin:round;}.b{stroke:#1d1d1b;stroke-width:0.21px;}.c{stroke:#009fe3;stroke-width:0.26px;}.d{font-size:22.2px;fill:#3a7979;font-family:ArialMT, Arial;}.e{fill:#1d1d1b;}</style></defs><polygon class="a" points="180.95 375.06 180.91 374.58 180.89 374.11 180.93 373.79 181.04 373.48 181.23 373.19 181.48 372.96 181.78 372.78 182.11 372.67 182.46 372.62 182.71 372.64 182.23 367.82 182.19 366.36 182.35 364.9 182.73 363.49 183.31 362.16 184.09 361.11 185.09 360.3 186.26 359.79 187.51 359.61 188.75 359.79 189.92 360.3 190.93 361.11 191.71 362.16 192.28 363.49 192.66 364.9 192.83 366.36 192.78 367.82 192.3 372.65 192.56 372.62 192.91 372.67 193.24 372.78 193.53 372.96 193.78 373.19 193.97 373.48 194.08 373.79 194.12 374.11 194.11 374.58 194.06 375.06 193.99 375.52 193.88 375.99 193.75 376.44 193.59 376.89 193.4 377.33 193.19 377.75 191.79 377.75 189.24 377.75 188.73 377.75 187.99 377.75 187.85 377.75 187.51 377.75 187.16 377.75 187.02 377.75 186.28 377.75 185.77 377.75 183.22 377.75 181.83 377.75 181.61 377.33 181.42 376.89 181.26 376.44 181.13 375.99 181.02 375.52 180.95 375.06"/><path class="a" d="M196.4,342.07v9.17a.44.44,0,0,1-.45.43h-8.21a.44.44,0,0,1-.46-.43v-11.9a.44.44,0,0,1,.46-.43H196a.44.44,0,0,1,.45.43Z"/><polygon class="a" points="190.46 289.16 167.65 289.16 167.65 263.65 172.21 263.65 172.21 145.24 132.18 145.24 132.18 128.23 136.33 128.23 136.79 128.23 172.37 128.23 172.83 128.23 190.46 128.23 190.46 263.65 190.46 289.16"/><polygon class="a" points="130.88 243.75 112.63 243.75 112.63 176.6 130.88 176.6 149.13 176.6 149.13 243.75 130.88 243.75"/><line class="b" x1="195.42" y1="433.09" x2="195.42" y2="426.85"/><line class="b" x1="161.19" y1="520.49" x2="166.43" y2="520.49"/><line class="b" x1="162.41" y1="520.49" x2="171.65" y2="520.49"/><line class="b" x1="162.41" y1="520.49" x2="171.65" y2="520.49"/><line class="b" x1="172.51" y1="520.49" x2="173.72" y2="520.49"/><line class="b" x1="162.41" y1="517.75" x2="162.41" y2="520.49"/><line class="b" x1="171.65" y1="517.75" x2="162.41" y2="517.75"/><line class="b" x1="171.65" y1="520.49" x2="171.65" y2="517.75"/><line class="b" x1="164.14" y1="517.75" x2="164.14" y2="516.5"/><line class="b" x1="162.1" y1="517.75" x2="164.14" y2="517.75"/><line class="b" x1="162.1" y1="516.5" x2="162.1" y2="517.75"/><line class="b" x1="164.14" y1="516.5" x2="162.1" y2="516.5"/><line class="b" x1="169.92" y1="516.5" x2="169.92" y2="517.75"/><line class="b" x1="171.96" y1="516.5" x2="169.92" y2="516.5"/><line class="b" x1="171.96" y1="517.75" x2="171.96" y2="516.5"/><line class="b" x1="169.92" y1="517.75" x2="171.96" y2="517.75"/><line class="b" x1="199.51" y1="517.23" x2="199.51" y2="519.36"/><line class="b" x1="199.51" y1="519.36" x2="199.88" y2="519.36"/><line class="b" x1="199.88" y1="519.36" x2="199.88" y2="520.49"/><line class="b" x1="199.88" y1="520.49" x2="200.73" y2="520.49"/><line class="b" x1="200.73" y1="520.49" x2="200.73" y2="517.23"/><line class="b" x1="200.73" y1="517.23" x2="199.51" y2="517.23"/><line class="b" x1="161.19" y1="520.49" x2="162.41" y2="520.49"/><line class="b" x1="162.41" y1="520.49" x2="162.41" y2="517.75"/><line class="b" x1="162.41" y1="517.75" x2="162.1" y2="517.75"/><line class="b" x1="162.1" y1="517.75" x2="162.1" y2="517.23"/><line class="b" x1="162.1" y1="517.23" x2="161.19" y2="517.23"/><line class="b" x1="161.19" y1="517.23" x2="161.19" y2="517.66"/><line class="b" x1="171.96" y1="517.23" x2="171.96" y2="517.75"/><line class="b" x1="171.96" y1="517.75" x2="171.65" y2="517.75"/><line class="b" x1="171.65" y1="517.75" x2="171.65" y2="520.49"/><line class="b" x1="171.65" y1="520.49" x2="172.51" y2="520.49"/><line class="b" x1="172.51" y1="520.49" x2="172.51" y2="519.36"/><line class="b" x1="172.51" y1="519.36" x2="172.87" y2="519.36"/><line class="b" x1="172.87" y1="519.36" x2="172.87" y2="517.23"/><line class="b" x1="172.87" y1="517.23" x2="171.96" y2="517.23"/><line class="b" x1="169.92" y1="516.5" x2="164.14" y2="516.5"/><line class="b" x1="164.14" y1="517.75" x2="169.92" y2="517.75"/><line class="b" x1="164.14" y1="517.12" x2="169.92" y2="517.12"/><line class="b" x1="200.73" y1="520.49" x2="200.73" y2="517.66"/><line class="b" x1="200.73" y1="520.49" x2="200.73" y2="517.66"/><line class="b" x1="161.19" y1="520.49" x2="161.19" y2="517.66"/><line class="b" x1="161.19" y1="520.49" x2="161.19" y2="517.66"/><line class="b" x1="202.15" y1="520.49" x2="202.15" y2="489.92"/><line class="b" x1="177.17" y1="331.99" x2="177.17" y2="328.67"/><line class="b" x1="174.13" y1="328.67" x2="174.13" y2="331.99"/><line class="b" x1="177.17" y1="328.67" x2="177.78" y2="328.67"/><line class="b" x1="177.02" y1="328.67" x2="177.17" y2="328.67"/><line class="b" x1="174.13" y1="328.67" x2="177.02" y2="328.67"/><line class="b" x1="173.52" y1="328.67" x2="174.13" y2="328.67"/><line class="b" x1="177.78" y1="329.72" x2="177.78" y2="328.67"/><line class="b" x1="173.52" y1="328.67" x2="173.52" y2="329.72"/><line class="b" x1="177.02" y1="338.15" x2="177.02" y2="337.44"/><line class="b" x1="177.78" y1="337.81" x2="177.78" y2="336.39"/><line class="b" x1="178.36" y1="336.39" x2="178.36" y2="337.81"/><line class="b" x1="178.36" y1="337.81" x2="177.78" y2="337.81"/><line class="b" x1="172.94" y1="337.81" x2="172.94" y2="336.39"/><line class="b" x1="173.52" y1="337.81" x2="172.94" y2="337.81"/><line class="b" x1="173.52" y1="337.44" x2="173.52" y2="337.81"/><line class="b" x1="177.02" y1="338.15" x2="177.02" y2="337.44"/><line class="b" x1="173.52" y1="338.23" x2="173.52" y2="339.37"/><line class="b" x1="177.02" y1="328.67" x2="177.78" y2="328.67"/><line class="b" x1="177.02" y1="327.97" x2="177.02" y2="328.67"/><line class="b" x1="177.78" y1="328.31" x2="177.78" y2="329.72"/><line class="b" x1="178.36" y1="329.72" x2="178.36" y2="328.31"/><line class="b" x1="178.36" y1="328.31" x2="177.78" y2="328.31"/><line class="b" x1="172.94" y1="328.31" x2="172.94" y2="329.72"/><line class="b" x1="173.52" y1="329.72" x2="173.52" y2="328.67"/><line class="b" x1="173.52" y1="328.31" x2="172.94" y2="328.31"/><line class="b" x1="177.02" y1="328.67" x2="173.52" y2="328.67"/><line class="b" x1="173.52" y1="328.67" x2="173.52" y2="328.31"/><line class="b" x1="177.02" y1="327.97" x2="177.02" y2="328.67"/><line class="b" x1="173.52" y1="327.88" x2="173.52" y2="326.75"/><line class="b" x1="173.52" y1="328.67" x2="174.13" y2="328.67"/><line class="b" x1="173.52" y1="328.67" x2="174.13" y2="328.67"/><line class="b" x1="174.13" y1="328.67" x2="177.02" y2="328.67"/><line class="b" x1="174.13" y1="328.67" x2="177.02" y2="328.67"/><line class="b" x1="177.02" y1="328.67" x2="177.17" y2="328.67"/><line class="b" x1="177.17" y1="328.67" x2="177.78" y2="328.67"/><line class="b" x1="173.52" y1="328.67" x2="173.52" y2="329.72"/><line class="b" x1="173.52" y1="328.67" x2="173.52" y2="329.72"/><line class="b" x1="177.02" y1="328.67" x2="177.17" y2="328.67"/><line class="b" x1="177.17" y1="328.67" x2="177.78" y2="328.67"/><line class="b" x1="177.78" y1="328.67" x2="177.78" y2="329.72"/><line class="b" x1="177.78" y1="328.67" x2="177.78" y2="329.72"/><line class="b" x1="172.94" y1="329.72" x2="173.52" y2="329.72"/><line class="b" x1="177.78" y1="329.72" x2="178.36" y2="329.72"/><line class="b" x1="177.78" y1="337.44" x2="177.78" y2="336.39"/><line class="b" x1="177.78" y1="337.44" x2="177.78" y2="336.39"/><line class="b" x1="177.17" y1="337.44" x2="177.78" y2="337.44"/><line class="b" x1="177.02" y1="337.44" x2="177.17" y2="337.44"/><line class="b" x1="173.52" y1="337.44" x2="173.52" y2="336.39"/><line class="b" x1="173.52" y1="337.44" x2="173.52" y2="336.39"/><line class="b" x1="177.17" y1="337.44" x2="177.78" y2="337.44"/><line class="b" x1="177.02" y1="337.44" x2="177.17" y2="337.44"/><line class="b" x1="174.13" y1="337.44" x2="177.02" y2="337.44"/><line class="b" x1="174.13" y1="337.44" x2="177.02" y2="337.44"/><line class="b" x1="173.52" y1="337.44" x2="174.13" y2="337.44"/><line class="b" x1="173.52" y1="337.44" x2="174.13" y2="337.44"/><line class="b" x1="177.02" y1="337.44" x2="173.52" y2="337.44"/><line class="b" x1="173.52" y1="336.39" x2="173.52" y2="337.44"/><line class="b" x1="172.94" y1="336.39" x2="173.52" y2="336.39"/><line class="b" x1="177.78" y1="336.39" x2="178.36" y2="336.39"/><line class="b" x1="177.02" y1="337.44" x2="177.78" y2="337.44"/><line class="b" x1="173.52" y1="336.39" x2="173.52" y2="337.44"/><line class="b" x1="177.78" y1="337.44" x2="177.78" y2="336.39"/><line class="b" x1="173.52" y1="337.44" x2="174.13" y2="337.44"/><line class="b" x1="174.13" y1="337.44" x2="177.02" y2="337.44"/><line class="b" x1="177.02" y1="337.44" x2="177.17" y2="337.44"/><line class="b" x1="177.17" y1="337.44" x2="177.78" y2="337.44"/><line class="b" x1="174.13" y1="334.82" x2="174.13" y2="337.44"/><line class="b" x1="177.17" y1="337.44" x2="177.17" y2="334.82"/><line class="b" x1="174.13" y1="331.99" x2="174.13" y2="334.82"/><line class="b" x1="177.78" y1="331.99" x2="177.17" y2="331.99"/><line class="b" x1="177.17" y1="334.82" x2="177.78" y2="334.82"/><line class="b" x1="174.68" y1="451.79" x2="174.68" y2="396.58"/><line class="b" x1="145.66" y1="413.78" x2="145.66" y2="414.83"/><line class="b" x1="149.16" y1="414.83" x2="149.16" y2="413.78"/><line class="b" x1="149.74" y1="415.2" x2="149.74" y2="413.78"/><line class="b" x1="149.74" y1="413.78" x2="149.16" y2="413.78"/><line class="b" x1="149.16" y1="413.78" x2="149.16" y2="415.2"/><line class="b" x1="149.16" y1="415.2" x2="149.74" y2="415.2"/><line class="b" x1="145.66" y1="415.2" x2="145.66" y2="413.78"/><line class="b" x1="145.66" y1="413.78" x2="145.09" y2="413.78"/><line class="b" x1="145.09" y1="413.78" x2="145.09" y2="415.2"/><line class="b" x1="145.09" y1="415.2" x2="145.66" y2="415.2"/><line class="b" x1="149.16" y1="415.96" x2="146.88" y2="415.96"/><line class="b" x1="146.88" y1="415.96" x2="146.88" y2="415.62"/><line class="b" x1="146.88" y1="415.62" x2="145.66" y2="415.62"/><line class="b" x1="145.66" y1="415.62" x2="145.66" y2="414.83"/><line class="b" x1="145.66" y1="414.83" x2="149.16" y2="414.83"/><line class="b" x1="149.16" y1="414.83" x2="149.16" y2="415.96"/><line class="b" x1="145.66" y1="414.83" x2="149.16" y2="414.83"/><line class="b" x1="145.66" y1="414.83" x2="149.16" y2="414.83"/><line class="b" x1="145.66" y1="414.83" x2="145.66" y2="413.78"/><line class="b" x1="145.66" y1="414.83" x2="145.66" y2="413.78"/><line class="b" x1="149.16" y1="414.83" x2="149.16" y2="413.78"/><line class="b" x1="149.16" y1="414.83" x2="149.16" y2="413.78"/><line class="b" x1="145.66" y1="436.43" x2="145.66" y2="437.48"/><line class="b" x1="149.16" y1="437.48" x2="149.16" y2="436.43"/><line class="b" x1="149.16" y1="436.06" x2="149.16" y2="437.48"/><line class="b" x1="149.16" y1="437.48" x2="149.74" y2="437.48"/><line class="b" x1="149.74" y1="437.48" x2="149.74" y2="436.06"/><line class="b" x1="149.74" y1="436.06" x2="149.16" y2="436.06"/><line class="b" x1="145.09" y1="436.06" x2="145.09" y2="437.48"/><line class="b" x1="145.09" y1="437.48" x2="145.66" y2="437.48"/><line class="b" x1="145.66" y1="437.48" x2="145.66" y2="436.06"/><line class="b" x1="145.66" y1="436.06" x2="145.09" y2="436.06"/><line class="b" x1="149.16" y1="436.43" x2="145.66" y2="436.43"/><line class="b" x1="145.66" y1="436.43" x2="145.66" y2="435.64"/><line class="b" x1="145.66" y1="435.64" x2="146.88" y2="435.64"/><line class="b" x1="146.88" y1="435.64" x2="146.88" y2="435.3"/><line class="b" x1="146.88" y1="435.3" x2="149.16" y2="435.3"/><line class="b" x1="149.16" y1="435.3" x2="149.16" y2="436.43"/><line class="b" x1="145.66" y1="435.64" x2="145.66" y2="434.5"/><line class="b" x1="145.66" y1="436.43" x2="149.16" y2="436.43"/><line class="b" x1="145.66" y1="436.43" x2="149.16" y2="436.43"/><line class="b" x1="145.66" y1="436.43" x2="145.66" y2="437.48"/><line class="b" x1="145.66" y1="436.43" x2="145.66" y2="437.48"/><line class="b" x1="149.16" y1="436.43" x2="149.16" y2="437.48"/><line class="b" x1="149.16" y1="436.43" x2="149.16" y2="437.48"/><path class="b" d="M124.19,435.64c0-11.06,9.62-20,21.47-20"/><line class="b" x1="124.19" y1="435.64" x2="145.66" y2="435.64"/><line class="b" x1="145.66" y1="434.5" x2="124.19" y2="434.5"/><line class="b" x1="124.19" y1="434.5" x2="124.19" y2="435.64"/><line class="b" x1="145.38" y1="493.55" x2="146.32" y2="492.81"/><line class="b" x1="146.91" y1="493.46" x2="146.32" y2="492.81"/><line class="b" x1="145.34" y1="491.73" x2="144.18" y2="492.64"/><line class="b" x1="144.18" y1="492.64" x2="145.16" y2="493.72"/><line class="b" x1="145.16" y1="493.72" x2="146.32" y2="492.81"/><line class="b" x1="146.32" y1="492.81" x2="145.34" y2="491.73"/><line class="b" x1="174.68" y1="396.58" x2="195.42" y2="384.1"/><line class="b" x1="196.57" y1="383.41" x2="195.42" y2="384.1"/><line class="b" x1="195.42" y1="384.1" x2="195.42" y2="395.48"/><line class="b" x1="195.42" y1="395.48" x2="195.42" y2="451.79"/><line class="b" x1="195.42" y1="451.79" x2="196.57" y2="451.79"/><line class="b" x1="193.14" y1="385.47" x2="195.42" y2="384.59"/><line class="b" x1="195.42" y1="384.59" x2="195.42" y2="384.1"/><line class="b" x1="195.42" y1="395.67" x2="195.42" y2="395.48"/><line class="b" x1="176.18" y1="395.67" x2="195.42" y2="395.67"/><line class="b" x1="195.42" y1="384.59" x2="193.14" y2="385.47"/><line class="b" x1="195.42" y1="395.48" x2="195.42" y2="384.59"/><line class="b" x1="195.42" y1="401.9" x2="195.42" y2="395.67"/><line class="b" x1="174.68" y1="401.9" x2="195.42" y2="401.9"/><line class="b" x1="195.42" y1="395.67" x2="176.18" y2="395.67"/><line class="b" x1="195.42" y1="408.14" x2="195.42" y2="401.9"/><line class="b" x1="174.68" y1="408.14" x2="195.42" y2="408.14"/><line class="b" x1="195.42" y1="401.9" x2="174.68" y2="401.9"/><line class="b" x1="195.42" y1="408.14" x2="174.68" y2="408.14"/><line class="b" x1="195.42" y1="414.38" x2="195.42" y2="408.14"/><line class="b" x1="174.68" y1="414.38" x2="195.42" y2="414.38"/><line class="b" x1="195.42" y1="414.38" x2="174.68" y2="414.38"/><line class="b" x1="195.42" y1="420.61" x2="195.42" y2="414.38"/><line class="b" x1="174.68" y1="420.61" x2="195.42" y2="420.61"/><line class="b" x1="195.42" y1="420.61" x2="174.68" y2="420.61"/><line class="b" x1="195.42" y1="426.85" x2="195.42" y2="420.61"/><line class="b" x1="174.68" y1="426.85" x2="195.42" y2="426.85"/><line class="b" x1="195.42" y1="426.85" x2="174.68" y2="426.85"/><line class="b" x1="174.68" y1="433.09" x2="195.42" y2="433.09"/><line class="b" x1="195.42" y1="433.09" x2="174.68" y2="433.09"/><line class="b" x1="195.42" y1="439.32" x2="195.42" y2="433.09"/><line class="b" x1="174.68" y1="439.32" x2="195.42" y2="439.32"/><line class="b" x1="195.42" y1="439.32" x2="174.68" y2="439.32"/><line class="b" x1="195.42" y1="445.56" x2="195.42" y2="439.32"/><line class="b" x1="174.68" y1="445.56" x2="195.42" y2="445.56"/><line class="b" x1="195.42" y1="445.56" x2="174.68" y2="445.56"/><line class="b" x1="195.42" y1="451.79" x2="195.42" y2="445.56"/><line class="b" x1="174.68" y1="451.79" x2="195.42" y2="451.79"/><line class="b" x1="167.65" y1="263.65" x2="167.65" y2="289.16"/><line class="b" x1="167.65" y1="289.16" x2="190.46" y2="289.16"/><line class="b" x1="190.46" y1="289.16" x2="190.46" y2="263.65"/><path class="b" d="M192.6,339.76a.45.45,0,0,1,.46.43"/><path class="b" d="M188.19,340.19a.45.45,0,0,1,.46-.43"/><path class="b" d="M188.65,350.82a.45.45,0,0,1-.46-.43"/><path class="b" d="M193.06,350.39a.45.45,0,0,1-.46.43"/><line class="b" x1="188.65" y1="339.76" x2="192.6" y2="339.76"/><line class="b" x1="188.19" y1="350.39" x2="188.19" y2="340.19"/><line class="b" x1="192.6" y1="350.82" x2="188.65" y2="350.82"/><line class="b" x1="193.06" y1="340.19" x2="193.06" y2="350.39"/><path class="b" d="M196,338.91a.44.44,0,0,1,.45.43"/><line class="b" x1="187.74" y1="338.91" x2="195.95" y2="338.91"/><path class="b" d="M187.28,339.34a.44.44,0,0,1,.46-.43"/><line class="b" x1="187.28" y1="351.24" x2="187.28" y2="339.34"/><path class="b" d="M187.74,351.67a.44.44,0,0,1-.46-.43"/><line class="b" x1="195.95" y1="351.67" x2="187.74" y2="351.67"/><path class="b" d="M196.4,351.24a.44.44,0,0,1-.45.43"/><line class="b" x1="196.4" y1="339.34" x2="196.4" y2="351.24"/><line class="b" x1="196.4" y1="347.74" x2="196.4" y2="348.51"/><line class="b" x1="196.4" y1="348.51" x2="196.57" y2="348.51"/><line class="b" x1="196.57" y1="347.74" x2="196.4" y2="347.74"/><line class="b" x1="196.4" y1="342.07" x2="196.4" y2="342.84"/><line class="b" x1="196.4" y1="342.84" x2="196.57" y2="342.84"/><line class="b" x1="196.57" y1="342.07" x2="196.4" y2="342.07"/><line class="b" x1="193.19" y1="377.75" x2="193.4" y2="377.33"/><line class="b" x1="193.4" y1="377.33" x2="193.59" y2="376.89"/><line class="b" x1="193.59" y1="376.89" x2="193.75" y2="376.44"/><line class="b" x1="193.75" y1="376.44" x2="193.89" y2="375.98"/><line class="b" x1="193.89" y1="375.98" x2="193.99" y2="375.52"/><line class="b" x1="193.99" y1="375.52" x2="194.06" y2="375.05"/><line class="b" x1="194.06" y1="375.05" x2="194.11" y2="374.58"/><line class="b" x1="194.11" y1="374.58" x2="194.12" y2="374.11"/><line class="b" x1="194.12" y1="374.11" x2="194.08" y2="373.78"/><line class="b" x1="194.08" y1="373.78" x2="193.97" y2="373.48"/><line class="b" x1="193.97" y1="373.48" x2="193.78" y2="373.2"/><line class="b" x1="193.78" y1="373.2" x2="193.54" y2="372.96"/><line class="b" x1="193.54" y1="372.96" x2="193.24" y2="372.78"/><line class="b" x1="193.24" y1="372.78" x2="192.91" y2="372.67"/><line class="b" x1="192.91" y1="372.67" x2="192.56" y2="372.62"/><line class="b" x1="192.56" y1="372.62" x2="192.21" y2="372.65"/><line class="b" x1="192.21" y1="372.65" x2="191.04" y2="372.85"/><line class="b" x1="191.04" y1="372.85" x2="189.87" y2="372.98"/><line class="b" x1="189.87" y1="372.98" x2="188.69" y2="373.06"/><line class="b" x1="188.69" y1="373.06" x2="187.51" y2="373.09"/><line class="b" x1="187.51" y1="373.09" x2="186.32" y2="373.06"/><line class="b" x1="186.32" y1="373.06" x2="185.14" y2="372.98"/><line class="b" x1="185.14" y1="372.98" x2="183.97" y2="372.85"/><line class="b" x1="183.97" y1="372.85" x2="182.81" y2="372.65"/><line class="b" x1="182.81" y1="372.65" x2="182.46" y2="372.62"/><line class="b" x1="182.46" y1="372.62" x2="182.11" y2="372.67"/><line class="b" x1="182.11" y1="372.67" x2="181.78" y2="372.78"/><line class="b" x1="181.78" y1="372.78" x2="181.48" y2="372.96"/><line class="b" x1="181.48" y1="372.96" x2="181.23" y2="373.2"/><line class="b" x1="181.23" y1="373.2" x2="181.05" y2="373.48"/><line class="b" x1="181.05" y1="373.48" x2="180.93" y2="373.78"/><line class="b" x1="180.93" y1="373.78" x2="180.89" y2="374.11"/><line class="b" x1="180.89" y1="374.11" x2="180.91" y2="374.58"/><line class="b" x1="180.91" y1="374.58" x2="180.95" y2="375.05"/><line class="b" x1="180.95" y1="375.05" x2="181.02" y2="375.52"/><line class="b" x1="181.02" y1="375.52" x2="181.13" y2="375.98"/><line class="b" x1="181.13" y1="375.98" x2="181.26" y2="376.44"/><line class="b" x1="181.26" y1="376.44" x2="181.42" y2="376.89"/><line class="b" x1="181.42" y1="376.89" x2="181.61" y2="377.33"/><line class="b" x1="181.61" y1="377.33" x2="181.83" y2="377.75"/><line class="b" x1="181.83" y1="377.75" x2="193.19" y2="377.75"/><path class="b" d="M187.51,359.86a4.36,4.36,0,0,1,2.46.76"/><path class="b" d="M190,360.62a7.07,7.07,0,0,1,2.63,5.45c0,.13,0,.27,0,.4"/><path class="b" d="M192.59,366.47v.29a11.44,11.44,0,0,1-1.77,6.09"/><path class="b" d="M184.19,372.85a11.44,11.44,0,0,1-1.77-6.09,2.81,2.81,0,0,1,0-.29"/><path class="b" d="M182.43,366.47c0-.13,0-.27,0-.4a7.07,7.07,0,0,1,2.63-5.45"/><path class="b" d="M185,360.62a4.39,4.39,0,0,1,2.47-.76"/><line class="b" x1="187.51" y1="372.85" x2="190.82" y2="372.85"/><line class="b" x1="184.19" y1="372.85" x2="187.51" y2="372.85"/><line class="b" x1="192.66" y1="364.9" x2="192.28" y2="363.49"/><line class="b" x1="192.28" y1="363.49" x2="191.7" y2="362.16"/><line class="b" x1="191.7" y1="362.16" x2="190.93" y2="361.11"/><line class="b" x1="190.93" y1="361.11" x2="189.92" y2="360.3"/><line class="b" x1="189.92" y1="360.3" x2="188.75" y2="359.79"/><line class="b" x1="188.75" y1="359.79" x2="187.51" y2="359.61"/><line class="b" x1="187.51" y1="359.61" x2="186.26" y2="359.79"/><line class="b" x1="186.26" y1="359.79" x2="185.09" y2="360.3"/><line class="b" x1="185.09" y1="360.3" x2="184.09" y2="361.11"/><line class="b" x1="184.09" y1="361.11" x2="183.31" y2="362.16"/><line class="b" x1="183.31" y1="362.16" x2="182.73" y2="363.49"/><line class="b" x1="182.73" y1="363.49" x2="182.35" y2="364.9"/><line class="b" x1="182.35" y1="364.9" x2="182.19" y2="366.36"/><line class="b" x1="182.19" y1="366.36" x2="182.23" y2="367.82"/><line class="b" x1="182.23" y1="367.82" x2="183.22" y2="377.75"/><line class="b" x1="183.22" y1="377.75" x2="191.79" y2="377.75"/><line class="b" x1="191.79" y1="377.75" x2="192.78" y2="367.82"/><line class="b" x1="192.78" y1="367.82" x2="192.83" y2="366.36"/><line class="b" x1="192.83" y1="366.36" x2="192.66" y2="364.9"/><line class="b" x1="185.77" y1="377.75" x2="185.77" y2="378.32"/><line class="b" x1="189.24" y1="377.75" x2="189.24" y2="378.32"/><line class="b" x1="186.28" y1="378.32" x2="185.77" y2="378.32"/><line class="b" x1="187.02" y1="378.32" x2="186.28" y2="378.32"/><line class="b" x1="188.73" y1="378.32" x2="187.99" y2="378.32"/><line class="b" x1="189.24" y1="378.32" x2="188.73" y2="378.32"/><line class="b" x1="186.28" y1="377.75" x2="185.77" y2="377.75"/><line class="b" x1="187.02" y1="377.75" x2="186.28" y2="377.75"/><line class="b" x1="188.73" y1="377.75" x2="187.99" y2="377.75"/><line class="b" x1="189.24" y1="377.75" x2="188.73" y2="377.75"/><line class="b" x1="187.02" y1="377.75" x2="187.02" y2="378.32"/><line class="b" x1="187.99" y1="377.75" x2="187.99" y2="378.32"/><line class="b" x1="187.16" y1="378.32" x2="187.02" y2="378.32"/><line class="b" x1="187.51" y1="378.32" x2="187.16" y2="378.32"/><line class="b" x1="187.85" y1="378.32" x2="187.51" y2="378.32"/><line class="b" x1="187.99" y1="378.32" x2="187.85" y2="378.32"/><line class="b" x1="187.16" y1="377.75" x2="187.02" y2="377.75"/><line class="b" x1="187.51" y1="377.75" x2="187.16" y2="377.75"/><line class="b" x1="187.85" y1="377.75" x2="187.51" y2="377.75"/><line class="b" x1="187.99" y1="377.75" x2="187.85" y2="377.75"/><line class="b" x1="196.57" y1="335.39" x2="196.57" y2="334.82"/><line class="b" x1="177.78" y1="300.33" x2="177.78" y2="299.28"/><line class="b" x1="177.78" y1="300.33" x2="177.78" y2="299.28"/><line class="b" x1="177.17" y1="300.33" x2="177.78" y2="300.33"/><line class="b" x1="177.02" y1="300.33" x2="177.17" y2="300.33"/><line class="b" x1="173.52" y1="300.33" x2="173.52" y2="299.28"/><line class="b" x1="173.52" y1="300.33" x2="173.52" y2="299.28"/><line class="b" x1="177.17" y1="300.33" x2="177.78" y2="300.33"/><line class="b" x1="177.02" y1="300.33" x2="177.17" y2="300.33"/><line class="b" x1="174.13" y1="300.33" x2="177.02" y2="300.33"/><line class="b" x1="174.13" y1="300.33" x2="177.02" y2="300.33"/><line class="b" x1="173.52" y1="300.33" x2="174.13" y2="300.33"/><line class="b" x1="173.52" y1="300.33" x2="174.13" y2="300.33"/><line class="b" x1="159.17" y1="302.26" x2="159.17" y2="301.12"/><line class="b" x1="173.52" y1="302.26" x2="159.17" y2="302.26"/><line class="b" x1="173.52" y1="301.12" x2="173.52" y2="302.26"/><line class="b" x1="159.17" y1="301.12" x2="173.52" y2="301.12"/><line class="b" x1="159.17" y1="326.75" x2="159.17" y2="327.88"/><line class="b" x1="173.52" y1="326.75" x2="159.17" y2="326.75"/><line class="b" x1="159.17" y1="327.88" x2="173.52" y2="327.88"/><line class="b" x1="177.02" y1="300.33" x2="177.02" y2="301.04"/><line class="b" x1="173.52" y1="300.33" x2="177.02" y2="300.33"/><line class="b" x1="173.52" y1="300.7" x2="173.52" y2="300.33"/><path class="b" d="M173.52,314.5c-7.93,0-14.35-6-14.35-13.38"/><path class="b" d="M159.17,327.88c0-7.39,6.42-13.38,14.35-13.38"/><line class="b" x1="172.94" y1="300.7" x2="173.52" y2="300.7"/><line class="b" x1="172.94" y1="299.28" x2="172.94" y2="300.7"/><line class="b" x1="173.52" y1="299.28" x2="172.94" y2="299.28"/><line class="b" x1="173.52" y1="300.33" x2="173.52" y2="299.28"/><line class="b" x1="177.78" y1="300.7" x2="178.36" y2="300.7"/><line class="b" x1="177.78" y1="299.28" x2="177.78" y2="300.7"/><line class="b" x1="178.36" y1="299.28" x2="177.78" y2="299.28"/><line class="b" x1="178.36" y1="300.7" x2="178.36" y2="299.28"/><line class="b" x1="177.02" y1="300.33" x2="177.02" y2="301.04"/><line class="b" x1="177.78" y1="300.33" x2="177.02" y2="300.33"/><line class="b" x1="177.78" y1="356.88" x2="177.78" y2="357.93"/><line class="b" x1="177.78" y1="356.88" x2="177.78" y2="357.93"/><line class="b" x1="177.17" y1="356.88" x2="177.78" y2="356.88"/><line class="b" x1="177.02" y1="356.88" x2="177.17" y2="356.88"/><line class="b" x1="173.52" y1="356.88" x2="173.52" y2="357.93"/><line class="b" x1="173.52" y1="356.88" x2="173.52" y2="357.93"/><line class="b" x1="177.17" y1="356.88" x2="177.78" y2="356.88"/><line class="b" x1="177.02" y1="356.88" x2="177.17" y2="356.88"/><line class="b" x1="174.13" y1="356.88" x2="177.02" y2="356.88"/><line class="b" x1="174.13" y1="356.88" x2="177.02" y2="356.88"/><line class="b" x1="173.52" y1="356.88" x2="174.13" y2="356.88"/><line class="b" x1="173.52" y1="356.88" x2="174.13" y2="356.88"/><line class="b" x1="154.36" y1="339.37" x2="154.36" y2="338.23"/><line class="b" x1="173.52" y1="339.37" x2="154.36" y2="339.37"/><line class="b" x1="154.36" y1="338.23" x2="173.52" y2="338.23"/><line class="b" x1="177.02" y1="356.88" x2="177.02" y2="356.18"/><line class="b" x1="173.52" y1="356.88" x2="177.02" y2="356.88"/><line class="b" x1="173.52" y1="356.52" x2="173.52" y2="356.88"/><path class="b" d="M173.52,356.09c-10.58,0-19.16-8-19.16-17.86"/><line class="b" x1="172.94" y1="356.52" x2="173.52" y2="356.52"/><line class="b" x1="172.94" y1="357.93" x2="172.94" y2="356.52"/><line class="b" x1="173.52" y1="357.93" x2="172.94" y2="357.93"/><line class="b" x1="173.52" y1="356.88" x2="173.52" y2="357.93"/><line class="b" x1="177.78" y1="356.52" x2="178.36" y2="356.52"/><line class="b" x1="177.78" y1="357.93" x2="177.78" y2="356.52"/><line class="b" x1="178.36" y1="357.93" x2="177.78" y2="357.93"/><line class="b" x1="178.36" y1="356.52" x2="178.36" y2="357.93"/><line class="b" x1="177.02" y1="356.88" x2="177.02" y2="356.18"/><line class="b" x1="177.78" y1="356.88" x2="177.02" y2="356.88"/><line class="b" x1="173.52" y1="356.88" x2="173.52" y2="357.93"/><line class="b" x1="173.52" y1="299.28" x2="173.52" y2="300.33"/><line class="b" x1="177.17" y1="296.02" x2="177.78" y2="296.02"/><line class="b" x1="174.13" y1="296.02" x2="177.17" y2="296.02"/><line class="b" x1="173.52" y1="296.02" x2="174.13" y2="296.02"/><line class="b" x1="177.78" y1="300.33" x2="177.78" y2="299.28"/><line class="b" x1="177.78" y1="357.93" x2="177.78" y2="356.88"/><line class="b" x1="173.52" y1="300.33" x2="174.13" y2="300.33"/><line class="b" x1="174.13" y1="300.33" x2="177.02" y2="300.33"/><line class="b" x1="177.02" y1="300.33" x2="177.17" y2="300.33"/><line class="b" x1="177.17" y1="300.33" x2="177.78" y2="300.33"/><line class="b" x1="173.52" y1="356.88" x2="174.13" y2="356.88"/><line class="b" x1="174.13" y1="356.88" x2="177.02" y2="356.88"/><line class="b" x1="177.02" y1="356.88" x2="177.17" y2="356.88"/><line class="b" x1="177.17" y1="356.88" x2="177.78" y2="356.88"/><line class="b" x1="174.13" y1="296.02" x2="174.13" y2="300.33"/><line class="b" x1="177.17" y1="300.33" x2="177.17" y2="296.02"/><line class="b" x1="190.46" y1="128.23" x2="190.46" y2="289.21"/><line class="b" x1="148.96" y1="377.13" x2="149.56" y2="373.92"/><line class="b" x1="147.93" y1="376.97" x2="149.02" y2="377.14"/><line class="b" x1="148.96" y1="377.13" x2="149.56" y2="373.92"/><line class="b" x1="148.19" y1="372.59" x2="145.72" y2="374.9"/><line class="b" x1="149.62" y1="373.93" x2="148.19" y2="372.59"/><line class="b" x1="145.72" y1="374.9" x2="147.93" y2="376.97"/><line class="b" x1="128.49" y1="390.95" x2="126.02" y2="393.26"/><line class="b" x1="119.68" y1="393.26" x2="119.68" y2="390"/><line class="b" x1="126.48" y1="388.22" x2="125.68" y2="388.96"/><line class="b" x1="126.48" y1="388.22" x2="125.68" y2="388.96"/><line class="b" x1="128.95" y1="390.53" x2="128.16" y2="391.27"/><line class="b" x1="128.95" y1="390.53" x2="128.16" y2="391.27"/><line class="b" x1="128.95" y1="390.53" x2="126.48" y2="388.22"/><line class="b" x1="128.95" y1="390.53" x2="126.48" y2="388.22"/><line class="b" x1="142.86" y1="372.95" x2="143.66" y2="372.21"/><line class="b" x1="142.86" y1="372.95" x2="143.66" y2="372.21"/><line class="b" x1="145.34" y1="375.25" x2="146.13" y2="374.51"/><line class="b" x1="145.34" y1="375.25" x2="146.13" y2="374.51"/><line class="b" x1="145.34" y1="375.25" x2="142.86" y2="372.95"/><line class="b" x1="145.34" y1="375.25" x2="142.86" y2="372.95"/><line class="b" x1="112.76" y1="372.7" x2="111.9" y2="373.51"/><line class="b" x1="127.94" y1="386.86" x2="112.76" y2="372.7"/><line class="b" x1="127.08" y1="387.66" x2="127.94" y2="386.86"/><line class="b" x1="111.9" y1="373.51" x2="127.08" y2="387.66"/><line class="b" x1="129.23" y1="390.27" x2="128.95" y2="390.53"/><line class="b" x1="126.48" y1="388.22" x2="126.76" y2="387.96"/><line class="b" x1="128.95" y1="390.53" x2="126.48" y2="388.22"/><line class="b" x1="145.34" y1="375.25" x2="145.06" y2="375.51"/><line class="b" x1="142.86" y1="372.95" x2="145.34" y2="375.25"/><line class="b" x1="142.58" y1="373.21" x2="142.86" y2="372.95"/><path class="b" d="M111.9,373.51a22.59,22.59,0,0,1,30.36,0"/><line class="b" x1="129.23" y1="390.27" x2="129.64" y2="390.65"/><line class="b" x1="128.16" y1="391.27" x2="128.95" y2="390.53"/><line class="b" x1="128.56" y1="391.65" x2="128.16" y2="391.27"/><line class="b" x1="129.64" y1="390.65" x2="128.56" y2="391.65"/><line class="b" x1="145.47" y1="375.89" x2="145.06" y2="375.51"/><line class="b" x1="146.54" y1="374.89" x2="145.47" y2="375.89"/><line class="b" x1="146.13" y1="374.51" x2="146.54" y2="374.89"/><line class="b" x1="145.34" y1="375.25" x2="146.13" y2="374.51"/><line class="b" x1="126.35" y1="387.58" x2="126.76" y2="387.96"/><line class="b" x1="125.27" y1="388.58" x2="126.35" y2="387.58"/><line class="b" x1="125.68" y1="388.96" x2="125.27" y2="388.58"/><line class="b" x1="126.48" y1="388.22" x2="125.68" y2="388.96"/><line class="b" x1="142.58" y1="373.21" x2="142.18" y2="372.83"/><line class="b" x1="143.66" y1="372.21" x2="142.86" y2="372.95"/><line class="b" x1="143.25" y1="371.82" x2="143.66" y2="372.21"/><line class="b" x1="142.18" y1="372.83" x2="143.25" y2="371.82"/><line class="b" x1="145.34" y1="375.25" x2="146.13" y2="374.51"/><line class="b" x1="126.02" y1="393.26" x2="128.95" y2="390.53"/><line class="b" x1="126.48" y1="388.22" x2="125.68" y2="388.96"/><line class="b" x1="143.66" y1="372.21" x2="142.86" y2="372.95"/><line class="b" x1="145.34" y1="375.25" x2="142.86" y2="372.95"/><line class="b" x1="128.95" y1="390.53" x2="126.48" y2="388.22"/><line class="b" x1="128.49" y1="390.95" x2="128.16" y2="391.27"/><line class="b" x1="148.19" y1="296.02" x2="144.69" y2="296.02"/><line class="b" x1="120.47" y1="511.18" x2="120.47" y2="512.6"/><line class="b" x1="118.95" y1="511.18" x2="84.56" y2="511.18"/><line class="b" x1="84.56" y1="512.6" x2="118.95" y2="512.6"/><line class="b" x1="84.56" y1="511.89" x2="118.95" y2="511.89"/><line class="b" x1="120.47" y1="512.6" x2="121.02" y2="512.6"/><line class="b" x1="118.95" y1="512.6" x2="120.47" y2="512.6"/><line class="b" x1="118.95" y1="511.18" x2="118.95" y2="512.6"/><line class="b" x1="120.47" y1="511.18" x2="118.95" y2="511.18"/><line class="b" x1="83.93" y1="508.91" x2="119.59" y2="508.91"/><line class="b" x1="114.63" y1="512.6" x2="121.02" y2="512.6"/><line class="b" x1="97.46" y1="512.6" x2="106.05" y2="512.6"/><line class="b" x1="83.93" y1="508.91" x2="119.59" y2="508.91"/><line class="b" x1="82.15" y1="513.45" x2="121.36" y2="513.45"/><line class="b" x1="120.47" y1="511.18" x2="121.45" y2="512.27"/><line class="b" x1="144.18" y1="492.64" x2="121.64" y2="510.27"/><line class="b" x1="122.62" y1="511.36" x2="145.16" y2="493.72"/><line class="b" x1="122.13" y1="510.81" x2="144.67" y2="493.18"/><line class="b" x1="121.02" y1="512.6" x2="121.45" y2="512.27"/><line class="b" x1="121.64" y1="510.27" x2="120.47" y2="511.18"/><line class="b" x1="122.62" y1="511.36" x2="121.64" y2="510.27"/><line class="b" x1="121.45" y1="512.27" x2="122.62" y2="511.36"/><line class="b" x1="119.59" y1="508.91" x2="143.78" y2="489.99"/><line class="b" x1="142.93" y1="495.47" x2="146.32" y2="492.81"/><line class="b" x1="130.39" y1="505.28" x2="136.96" y2="500.13"/><line class="b" x1="121.02" y1="512.6" x2="124.42" y2="509.94"/><line class="b" x1="119.59" y1="508.91" x2="143.78" y2="489.99"/><line class="b" x1="121.36" y1="513.45" x2="146.91" y2="493.46"/><line class="b" x1="202.15" y1="489.92" x2="200.83" y2="489.92"/><line class="b" x1="203.87" y1="489.92" x2="200.83" y2="489.92"/><line class="b" x1="148.74" y1="289.21" x2="148.74" y2="296.02"/><line class="b" x1="136.3" y1="296.02" x2="136.3" y2="289.21"/><line class="b" x1="144.69" y1="296.02" x2="148.19" y2="296.02"/><line class="b" x1="193.53" y1="489.92" x2="194.65" y2="489.92"/><line class="b" x1="193.53" y1="489.92" x2="194.65" y2="489.92"/><line class="b" x1="193.53" y1="486.38" x2="193.53" y2="489.92"/><line class="b" x1="193.53" y1="483.12" x2="194.65" y2="483.12"/><line class="b" x1="193.53" y1="483.12" x2="194.65" y2="483.12"/><line class="b" x1="193.53" y1="486.38" x2="193.53" y2="489.92"/><line class="b" x1="193.53" y1="483.12" x2="193.53" y2="486.38"/><line class="b" x1="193.53" y1="483.12" x2="193.53" y2="486.38"/><line class="b" x1="170.36" y1="489.92" x2="169.23" y2="489.92"/><line class="b" x1="170.36" y1="489.92" x2="169.23" y2="489.92"/><line class="b" x1="170.36" y1="486.38" x2="170.36" y2="489.92"/><line class="b" x1="170.36" y1="483.12" x2="169.23" y2="483.12"/><line class="b" x1="170.36" y1="483.12" x2="169.23" y2="483.12"/><line class="b" x1="170.36" y1="486.38" x2="170.36" y2="489.92"/><line class="b" x1="170.36" y1="483.12" x2="170.36" y2="486.38"/><line class="b" x1="170.36" y1="483.12" x2="170.36" y2="486.38"/><line class="b" x1="191.46" y1="463.1" x2="192.68" y2="463.1"/><line class="b" x1="191.46" y1="483.12" x2="191.46" y2="463.1"/><line class="b" x1="192.68" y1="483.12" x2="191.46" y2="483.12"/><line class="b" x1="192.68" y1="463.1" x2="192.68" y2="483.12"/><line class="b" x1="192.31" y1="486.38" x2="193.53" y2="486.38"/><line class="b" x1="192.31" y1="484.25" x2="192.31" y2="486.38"/><line class="b" x1="192.68" y1="484.25" x2="192.31" y2="484.25"/><line class="b" x1="192.68" y1="483.12" x2="192.68" y2="484.25"/><line class="b" x1="193.53" y1="483.12" x2="192.68" y2="483.12"/><line class="b" x1="170.36" y1="486.38" x2="171.57" y2="486.38"/><line class="b" x1="171.21" y1="483.12" x2="170.36" y2="483.12"/><line class="b" x1="171.21" y1="484.25" x2="171.21" y2="483.12"/><line class="b" x1="171.57" y1="484.25" x2="171.21" y2="484.25"/><line class="b" x1="171.57" y1="486.38" x2="171.57" y2="484.25"/><path class="b" d="M171.21,483.12c0-11.06,9.61-20,21.47-20"/><line class="b" x1="193.13" y1="483.12" x2="193.13" y2="482.58"/><line class="b" x1="194.65" y1="483.12" x2="193.13" y2="483.12"/><line class="b" x1="194.65" y1="482.58" x2="194.65" y2="483.12"/><line class="b" x1="193.13" y1="482.58" x2="194.65" y2="482.58"/><line class="b" x1="170.75" y1="482.58" x2="170.75" y2="483.12"/><line class="b" x1="169.23" y1="482.58" x2="170.75" y2="482.58"/><line class="b" x1="169.23" y1="483.12" x2="169.23" y2="482.58"/><line class="b" x1="170.75" y1="483.12" x2="169.23" y2="483.12"/><line class="b" x1="193.13" y1="490.46" x2="193.13" y2="489.92"/><line class="b" x1="194.65" y1="490.46" x2="193.13" y2="490.46"/><line class="b" x1="194.65" y1="489.92" x2="194.65" y2="490.46"/><line class="b" x1="193.13" y1="489.92" x2="194.65" y2="489.92"/><line class="b" x1="192.77" y1="486.38" x2="193.53" y2="486.38"/><line class="b" x1="192.77" y1="489.92" x2="192.77" y2="486.38"/><line class="b" x1="193.53" y1="489.92" x2="192.77" y2="489.92"/><line class="b" x1="170.75" y1="489.92" x2="170.75" y2="490.46"/><line class="b" x1="169.23" y1="489.92" x2="170.75" y2="489.92"/><line class="b" x1="169.23" y1="490.46" x2="169.23" y2="489.92"/><line class="b" x1="170.75" y1="490.46" x2="169.23" y2="490.46"/><line class="b" x1="170.36" y1="486.38" x2="171.12" y2="486.38"/><line class="b" x1="171.12" y1="489.92" x2="170.36" y2="489.92"/><line class="b" x1="171.12" y1="486.38" x2="171.12" y2="489.92"/><line class="b" x1="132.23" y1="503.83" x2="138.81" y2="498.69"/><line class="b" x1="121.02" y1="512.6" x2="125.66" y2="508.97"/><line class="b" x1="114.63" y1="512.6" x2="121.02" y2="512.6"/><line class="b" x1="97.46" y1="512.6" x2="106.05" y2="512.6"/><line class="b" x1="132.18" y1="145.24" x2="172.21" y2="145.24"/><line class="b" x1="135.31" y1="218.39" x2="130.88" y2="218.39"/><line class="b" x1="146.39" y1="218.39" x2="141.96" y2="218.39"/><line class="b" x1="135.31" y1="201.95" x2="130.88" y2="201.95"/><line class="b" x1="146.39" y1="201.95" x2="141.96" y2="201.95"/><line class="b" x1="147.61" y1="218.39" x2="147.61" y2="201.95"/><line class="b" x1="147.61" y1="201.95" x2="132.4" y2="201.95"/><line class="b" x1="132.4" y1="218.39" x2="147.61" y2="218.39"/><line class="b" x1="130.88" y1="243.75" x2="130.88" y2="176.6"/><line class="b" x1="130.88" y1="176.6" x2="112.63" y2="176.6"/><line class="b" x1="112.63" y1="176.6" x2="112.63" y2="243.75"/><line class="b" x1="112.63" y1="243.75" x2="130.88" y2="243.75"/><line class="b" x1="130.88" y1="176.6" x2="130.88" y2="243.75"/><line class="b" x1="130.88" y1="243.75" x2="149.13" y2="243.75"/><line class="b" x1="149.13" y1="243.75" x2="149.13" y2="176.6"/><line class="b" x1="149.13" y1="176.6" x2="130.88" y2="176.6"/><line class="b" x1="142.92" y1="131.92" x2="142.92" y2="141.84"/><line class="b" x1="153.1" y1="131.92" x2="142.92" y2="131.92"/><line class="b" x1="153.1" y1="141.84" x2="153.1" y2="131.92"/><line class="b" x1="142.92" y1="141.84" x2="153.1" y2="141.84"/><line class="b" x1="141.39" y1="143.26" x2="165.72" y2="143.26"/><line class="b" x1="165.72" y1="143.26" x2="165.72" y2="129.08"/><line class="b" x1="165.72" y1="129.08" x2="141.39" y2="129.08"/><line class="b" x1="141.39" y1="129.08" x2="141.39" y2="143.26"/><line class="b" x1="190.46" y1="263.65" x2="167.65" y2="263.65"/><line class="b" x1="190.46" y1="263.65" x2="190.46" y2="128.23"/><line class="b" x1="190.46" y1="128.23" x2="132.18" y2="128.23"/><line class="b" x1="132.18" y1="128.23" x2="132.18" y2="145.24"/><line class="b" x1="172.21" y1="145.24" x2="172.21" y2="263.65"/><line class="b" x1="172.21" y1="263.65" x2="190.46" y2="263.65"/><line class="b" x1="130.41" y1="122.96" x2="130.41" y2="128.23"/><line class="b" x1="130.87" y1="128.23" x2="130.41" y2="128.23"/><line class="b" x1="130.87" y1="119.13" x2="130.87" y2="119.7"/><line class="b" x1="130.87" y1="122.05" x2="130.87" y2="122.96"/><line class="b" x1="130.87" y1="122.05" x2="130.87" y2="122.96"/><line class="b" x1="130.87" y1="119.7" x2="130.87" y2="122.05"/><line class="b" x1="130.87" y1="119.7" x2="130.87" y2="122.05"/><line class="b" x1="120.53" y1="118.96" x2="109.72" y2="113.47"/><line class="b" x1="107.42" y1="111.49" x2="106.69" y2="112.73"/><line class="b" x1="110.09" y1="112.84" x2="107.42" y2="111.49"/><line class="b" x1="109.36" y1="114.09" x2="110.09" y2="112.84"/><line class="b" x1="106.69" y1="112.73" x2="109.36" y2="114.09"/><line class="b" x1="122.84" y1="120.95" x2="123.57" y2="119.7"/><line class="b" x1="120.17" y1="119.59" x2="122.84" y2="120.95"/><line class="b" x1="120.9" y1="118.34" x2="120.17" y2="119.59"/><line class="b" x1="123.57" y1="119.7" x2="120.9" y2="118.34"/><line class="b" x1="103.65" y1="113.47" x2="92.84" y2="118.96"/><line class="b" x1="92.48" y1="118.34" x2="89.81" y2="119.7"/><line class="b" x1="93.21" y1="119.59" x2="92.48" y2="118.34"/><line class="b" x1="90.54" y1="120.95" x2="93.21" y2="119.59"/><line class="b" x1="106.69" y1="112.73" x2="105.96" y2="111.49"/><line class="b" x1="104.02" y1="114.09" x2="106.69" y2="112.73"/><line class="b" x1="103.29" y1="112.84" x2="104.02" y2="114.09"/><line class="b" x1="105.96" y1="111.49" x2="103.29" y2="112.84"/><line class="b" x1="129.65" y1="122.96" x2="130.87" y2="122.96"/><line class="b" x1="129.65" y1="119.7" x2="129.65" y2="122.96"/><line class="b" x1="130.87" y1="119.7" x2="129.65" y2="119.7"/><line class="b" x1="130.87" y1="122.96" x2="130.87" y2="119.7"/><line class="b" x1="120.53" y1="118.96" x2="109.72" y2="113.47"/><line class="b" x1="109.72" y1="113.47" x2="109.36" y2="114.09"/><line class="b" x1="109.36" y1="114.09" x2="120.17" y2="119.59"/><line class="b" x1="120.17" y1="119.59" x2="120.53" y2="118.96"/><line class="b" x1="120.9" y1="118.34" x2="110.09" y2="112.84"/><line class="b" x1="110.09" y1="112.84" x2="109.72" y2="113.47"/><line class="b" x1="109.72" y1="113.47" x2="120.53" y2="118.96"/><line class="b" x1="120.53" y1="118.96" x2="120.9" y2="118.34"/><line class="b" x1="103.65" y1="113.47" x2="92.84" y2="118.96"/><line class="b" x1="92.84" y1="118.96" x2="93.21" y2="119.59"/><line class="b" x1="93.21" y1="119.59" x2="104.02" y2="114.09"/><line class="b" x1="104.02" y1="114.09" x2="103.65" y2="113.47"/><line class="b" x1="103.29" y1="112.84" x2="92.48" y2="118.34"/><line class="b" x1="92.48" y1="118.34" x2="92.84" y2="118.96"/><line class="b" x1="92.84" y1="118.96" x2="103.65" y2="113.47"/><line class="b" x1="103.65" y1="113.47" x2="103.29" y2="112.84"/><line class="b" x1="172.37" y1="121.12" x2="172.37" y2="128.23"/><line class="b" x1="172.83" y1="128.23" x2="172.37" y2="128.23"/><line class="b" x1="136.79" y1="121.12" x2="136.79" y2="128.23"/><line class="b" x1="136.33" y1="128.23" x2="136.79" y2="128.23"/><line class="b" x1="136.33" y1="119.13" x2="136.33" y2="119.7"/><line class="b" x1="136.33" y1="119.7" x2="136.33" y2="121.12"/><line class="b" x1="136.33" y1="119.7" x2="136.33" y2="121.12"/><line class="b" x1="170.55" y1="121.12" x2="156.1" y2="121.12"/><line class="b" x1="156.1" y1="119.7" x2="170.55" y2="119.7"/><line class="b" x1="156.1" y1="120.41" x2="170.55" y2="120.41"/><line class="b" x1="170.55" y1="119.7" x2="172.83" y2="119.7"/><line class="b" x1="170.55" y1="121.12" x2="170.55" y2="119.7"/><line class="b" x1="172.83" y1="121.12" x2="170.55" y2="121.12"/><line class="b" x1="156.1" y1="121.12" x2="154.58" y2="121.12"/><line class="b" x1="156.1" y1="119.7" x2="156.1" y2="121.12"/><line class="b" x1="154.58" y1="119.7" x2="156.1" y2="119.7"/><line class="b" x1="153.82" y1="121.12" x2="137.85" y2="121.12"/><line class="b" x1="137.85" y1="119.7" x2="153.82" y2="119.7"/><line class="b" x1="137.85" y1="120.41" x2="153.82" y2="120.41"/><line class="b" x1="153.82" y1="119.7" x2="154.58" y2="119.7"/><line class="b" x1="153.82" y1="121.12" x2="153.82" y2="119.7"/><line class="b" x1="154.58" y1="121.12" x2="153.82" y2="121.12"/><line class="b" x1="137.85" y1="121.12" x2="136.33" y2="121.12"/><line class="b" x1="137.85" y1="119.7" x2="137.85" y2="121.12"/><line class="b" x1="136.33" y1="119.7" x2="137.85" y2="119.7"/><line class="b" x1="136.79" y1="128.23" x2="172.37" y2="128.23"/><line class="b" x1="167.45" y1="119.13" x2="172.83" y2="119.13"/><line class="b" x1="150.29" y1="119.13" x2="158.87" y2="119.13"/><line class="b" x1="136.33" y1="119.13" x2="141.7" y2="119.13"/><line class="b" x1="136.33" y1="118.28" x2="172.83" y2="118.28"/><line class="b" x1="136.33" y1="119.13" x2="136.33" y2="118.28"/><line class="b" x1="130.87" y1="128.23" x2="136.33" y2="128.23"/><line class="b" x1="130.87" y1="122.96" x2="130.41" y2="122.96"/><line class="b" x1="130.87" y1="128.23" x2="130.41" y2="128.23"/><line class="b" x1="130.41" y1="122.96" x2="130.41" y2="128.23"/><line class="b" x1="136.33" y1="121.12" x2="136.79" y2="121.12"/><line class="b" x1="136.33" y1="128.23" x2="136.79" y2="128.23"/><line class="b" x1="136.79" y1="121.12" x2="136.79" y2="128.23"/><line class="b" x1="172.83" y1="121.12" x2="172.37" y2="121.12"/><line class="b" x1="172.83" y1="128.23" x2="172.37" y2="128.23"/><line class="b" x1="172.37" y1="121.12" x2="172.37" y2="128.23"/><line class="b" x1="45.21" y1="116.3" x2="45.82" y2="116.3"/><line class="b" x1="43.99" y1="116.3" x2="43.99" y2="119.13"/><line class="b" x1="43.99" y1="119.13" x2="47.03" y2="119.13"/><line class="b" x1="47.03" y1="119.13" x2="47.03" y2="116.3"/><line class="b" x1="47.03" y1="116.3" x2="43.99" y2="116.3"/><line class="b" x1="55.29" y1="122.96" x2="55.29" y2="128.23"/><line class="b" x1="54.84" y1="128.23" x2="55.29" y2="128.23"/><line class="b" x1="54.84" y1="119.13" x2="54.84" y2="119.7"/><line class="b" x1="54.84" y1="122.05" x2="54.84" y2="122.96"/><line class="b" x1="54.84" y1="122.05" x2="54.84" y2="122.96"/><line class="b" x1="54.84" y1="119.7" x2="54.84" y2="122.05"/><line class="b" x1="54.84" y1="119.7" x2="54.84" y2="122.05"/><line class="b" x1="89.81" y1="119.7" x2="90.54" y2="120.95"/><line class="b" x1="86.78" y1="118.96" x2="75.96" y2="113.47"/><line class="b" x1="73.66" y1="111.49" x2="72.93" y2="112.73"/><line class="b" x1="76.33" y1="112.84" x2="73.66" y2="111.49"/><line class="b" x1="75.6" y1="114.09" x2="76.33" y2="112.84"/><line class="b" x1="72.93" y1="112.73" x2="75.6" y2="114.09"/><line class="b" x1="89.08" y1="120.95" x2="89.81" y2="119.7"/><line class="b" x1="86.41" y1="119.59" x2="89.08" y2="120.95"/><line class="b" x1="87.14" y1="118.34" x2="86.41" y2="119.59"/><line class="b" x1="89.81" y1="119.7" x2="87.14" y2="118.34"/><line class="b" x1="69.9" y1="113.47" x2="59.09" y2="118.96"/><line class="b" x1="56.05" y1="119.7" x2="56.78" y2="120.95"/><line class="b" x1="58.72" y1="118.34" x2="56.05" y2="119.7"/><line class="b" x1="59.45" y1="119.59" x2="58.72" y2="118.34"/><line class="b" x1="56.78" y1="120.95" x2="59.45" y2="119.59"/><line class="b" x1="72.93" y1="112.73" x2="72.2" y2="111.49"/><line class="b" x1="70.26" y1="114.09" x2="72.93" y2="112.73"/><line class="b" x1="69.53" y1="112.84" x2="70.26" y2="114.09"/><line class="b" x1="72.2" y1="111.49" x2="69.53" y2="112.84"/><line class="b" x1="54.84" y1="122.96" x2="56.05" y2="122.96"/><line class="b" x1="54.84" y1="119.7" x2="54.84" y2="122.96"/><line class="b" x1="56.05" y1="119.7" x2="54.84" y2="119.7"/><line class="b" x1="56.05" y1="122.96" x2="56.05" y2="119.7"/><line class="b" x1="86.78" y1="118.96" x2="75.96" y2="113.47"/><line class="b" x1="75.96" y1="113.47" x2="75.6" y2="114.09"/><line class="b" x1="75.6" y1="114.09" x2="86.41" y2="119.59"/><line class="b" x1="86.41" y1="119.59" x2="86.78" y2="118.96"/><line class="b" x1="87.14" y1="118.34" x2="76.33" y2="112.84"/><line class="b" x1="76.33" y1="112.84" x2="75.96" y2="113.47"/><line class="b" x1="75.96" y1="113.47" x2="86.78" y2="118.96"/><line class="b" x1="86.78" y1="118.96" x2="87.14" y2="118.34"/><line class="b" x1="69.9" y1="113.47" x2="59.09" y2="118.96"/><line class="b" x1="59.09" y1="118.96" x2="59.45" y2="119.59"/><line class="b" x1="59.45" y1="119.59" x2="70.26" y2="114.09"/><line class="b" x1="70.26" y1="114.09" x2="69.9" y2="113.47"/><line class="b" x1="69.53" y1="112.84" x2="58.72" y2="118.34"/><line class="b" x1="58.72" y1="118.34" x2="59.09" y2="118.96"/><line class="b" x1="59.09" y1="118.96" x2="69.9" y2="113.47"/><line class="b" x1="69.9" y1="113.47" x2="69.53" y2="112.84"/><line class="b" x1="43.97" y1="197.32" x2="43.97" y2="260.17"/><line class="b" x1="60.08" y1="491.6" x2="61.72" y2="489.92"/><line class="b" x1="59.05" y1="492.64" x2="60.08" y2="491.6"/><line class="b" x1="59.05" y1="492.64" x2="60.08" y2="491.6"/><line class="b" x1="83.1" y1="511.21" x2="82.08" y2="512.25"/><line class="b" x1="81.98" y1="510.25" x2="61.21" y2="492.55"/><line class="b" x1="60.18" y1="493.6" x2="80.95" y2="511.29"/><line class="b" x1="60.69" y1="493.08" x2="81.47" y2="510.77"/><line class="b" x1="82.08" y1="512.25" x2="82.49" y2="512.6"/><line class="b" x1="80.95" y1="511.29" x2="82.08" y2="512.25"/><line class="b" x1="81.98" y1="510.25" x2="80.95" y2="511.29"/><line class="b" x1="83.1" y1="511.21" x2="81.98" y2="510.25"/><line class="b" x1="61.21" y1="492.55" x2="60.08" y2="491.6"/><line class="b" x1="60.18" y1="493.6" x2="61.21" y2="492.55"/><line class="b" x1="59.05" y1="492.64" x2="60.18" y2="493.6"/><line class="b" x1="61.72" y1="489.92" x2="84.09" y2="508.97"/><line class="b" x1="79.21" y1="509.81" x2="82.49" y2="512.6"/><line class="b" x1="67.6" y1="499.92" x2="73.94" y2="505.32"/><line class="b" x1="59.05" y1="492.64" x2="62.33" y2="495.43"/><line class="b" x1="58.44" y1="493.27" x2="82.12" y2="513.44"/><line class="b" x1="59.05" y1="492.64" x2="58.44" y2="493.27"/><line class="b" x1="55.86" y1="489.92" x2="59.05" y2="492.64"/><line class="b" x1="83.04" y1="511.18" x2="83.04" y2="512.6"/><line class="b" x1="82.49" y1="512.6" x2="83.04" y2="512.6"/><line class="b" x1="84.56" y1="511.18" x2="83.04" y2="511.18"/><line class="b" x1="84.56" y1="512.6" x2="84.56" y2="511.18"/><line class="b" x1="83.04" y1="512.6" x2="84.56" y2="512.6"/><line class="b" x1="82.49" y1="512.6" x2="88.88" y2="512.6"/><line class="b" x1="61.72" y1="489.92" x2="61.72" y2="483.12"/><line class="b" x1="82.49" y1="512.6" x2="88.88" y2="512.6"/><line class="b" x1="78.68" y1="509.35" x2="82.49" y2="512.6"/><line class="b" x1="66.01" y1="498.56" x2="72.34" y2="503.96"/><line class="b" x1="59.05" y1="492.64" x2="59.67" y2="493.17"/><line class="c" x1="71.15" y1="247.02" x2="71.15" y2="274.73"/><line class="c" x1="72.97" y1="272.21" x2="72.97" y2="248.66"/><line class="c" x1="86.44" y1="264.15" x2="83.01" y2="272.21"/><line class="c" x1="72.97" y1="248.66" x2="76.41" y2="256.72"/><line class="c" x1="79.58" y1="264.15" x2="83.01" y2="272.21"/><line class="c" x1="68.59" y1="147.22" x2="68.59" y2="190.31"/><line class="c" x1="80.38" y1="158.58" x2="80.38" y2="178.95"/><line class="c" x1="80.08" y1="158.3" x2="80.08" y2="179.23"/><line class="c" x1="80.33" y1="178.99" x2="80.33" y2="158.53"/><line class="c" x1="69.17" y1="189.4" x2="69.17" y2="148.13"/><line class="c" x1="68.59" y1="147.22" x2="68.59" y2="190.31"/><line class="c" x1="68.89" y1="190.02" x2="68.89" y2="147.5"/><line class="c" x1="80.83" y1="158.26" x2="91.55" y2="158.26"/><line class="c" x1="91.55" y1="147.61" x2="91.55" y2="157.93"/><line class="c" x1="91.55" y1="157.93" x2="80.47" y2="157.93"/><line class="c" x1="80.73" y1="158.16" x2="91.55" y2="158.16"/><line class="c" x1="91.7" y1="147.61" x2="91.55" y2="147.61"/><line class="c" x1="91.55" y1="158.16" x2="91.55" y2="168.25"/><line class="c" x1="91.55" y1="169.27" x2="91.55" y2="179.36"/><line class="c" x1="91.55" y1="179.27" x2="80.83" y2="179.27"/><line class="c" x1="80.47" y1="179.6" x2="91.55" y2="179.6"/><line class="c" x1="91.55" y1="179.6" x2="91.55" y2="189.92"/><line class="c" x1="91.55" y1="179.36" x2="80.73" y2="179.36"/><line class="c" x1="91.55" y1="189.92" x2="91.7" y2="189.92"/><line class="c" x1="68.89" y1="147.87" x2="91.31" y2="168.76"/><line class="c" x1="91.31" y1="168.76" x2="68.89" y2="189.65"/><line class="c" x1="68.89" y1="190.02" x2="91.7" y2="168.76"/><line class="c" x1="91.7" y1="168.76" x2="68.89" y2="147.5"/><line class="c" x1="70.5" y1="148.64" x2="91.55" y2="148.64"/><line class="c" x1="91.55" y1="188.89" x2="70.5" y2="188.89"/><line class="c" x1="69.9" y1="148.07" x2="91.55" y2="148.07"/><line class="c" x1="91.55" y1="189.46" x2="69.9" y2="189.46"/><line class="c" x1="162.84" y1="247.02" x2="139.12" y2="247.02"/><line class="c" x1="140.95" y1="248.66" x2="161.02" y2="248.66"/><line class="c" x1="161.02" y1="248.66" x2="157.59" y2="256.72"/><line class="c" x1="140.95" y1="248.66" x2="144.38" y2="256.72"/><line class="c" x1="128.68" y1="247.02" x2="104.96" y2="247.02"/><line class="c" x1="106.78" y1="248.66" x2="126.85" y2="248.66"/><line class="c" x1="126.85" y1="248.66" x2="123.42" y2="256.72"/><line class="c" x1="106.78" y1="248.66" x2="110.22" y2="256.72"/><line class="c" x1="94.87" y1="247.02" x2="71.15" y2="247.02"/><line class="c" x1="94.87" y1="274.73" x2="94.87" y2="247.02"/><line class="c" x1="71.15" y1="274.73" x2="94.87" y2="274.73"/><line class="c" x1="94.87" y1="273.85" x2="71.15" y2="273.85"/><line class="c" x1="93.05" y1="272.21" x2="72.97" y2="272.21"/><line class="c" x1="72.97" y1="248.66" x2="93.05" y2="248.66"/><line class="c" x1="93.05" y1="248.66" x2="93.05" y2="272.21"/><line class="c" x1="93.05" y1="248.66" x2="89.61" y2="256.72"/><line class="c" x1="160.13" y1="147.22" x2="68.59" y2="147.22"/><line class="c" x1="160.13" y1="190.31" x2="160.13" y2="147.22"/><line class="c" x1="68.59" y1="190.31" x2="160.13" y2="190.31"/><line class="c" x1="137.47" y1="158.26" x2="148.19" y2="158.26"/><line class="c" x1="148.55" y1="157.93" x2="137.47" y2="157.93"/><line class="c" x1="137.47" y1="157.93" x2="137.47" y2="147.61"/><line class="c" x1="137.47" y1="158.16" x2="148.29" y2="158.16"/><line class="c" x1="137.47" y1="147.61" x2="137.32" y2="147.61"/><line class="c" x1="114.66" y1="158.26" x2="137.17" y2="158.26"/><line class="c" x1="137.17" y1="147.61" x2="137.17" y2="157.93"/><line class="c" x1="137.17" y1="157.93" x2="114.66" y2="157.93"/><line class="c" x1="114.66" y1="157.93" x2="114.66" y2="147.61"/><line class="c" x1="114.66" y1="158.16" x2="137.17" y2="158.16"/><line class="c" x1="137.32" y1="147.61" x2="137.17" y2="147.61"/><line class="c" x1="114.66" y1="147.61" x2="114.51" y2="147.61"/><line class="c" x1="91.85" y1="158.26" x2="114.36" y2="158.26"/><line class="c" x1="114.36" y1="147.61" x2="114.36" y2="157.93"/><line class="c" x1="114.36" y1="157.93" x2="91.85" y2="157.93"/><line class="c" x1="91.85" y1="157.93" x2="91.85" y2="147.61"/><line class="c" x1="91.85" y1="158.16" x2="114.36" y2="158.16"/><line class="c" x1="114.51" y1="147.61" x2="114.36" y2="147.61"/><line class="c" x1="91.85" y1="147.61" x2="91.7" y2="147.61"/><line class="c" x1="137.47" y1="168.25" x2="137.47" y2="158.16"/><line class="c" x1="137.17" y1="158.16" x2="137.17" y2="168.53"/><line class="c" x1="114.66" y1="168.53" x2="114.66" y2="158.16"/><line class="c" x1="114.36" y1="158.16" x2="114.36" y2="168.53"/><line class="c" x1="91.85" y1="168.53" x2="91.85" y2="158.16"/><line class="c" x1="159.73" y1="147.5" x2="137.18" y2="168.53"/><line class="c" x1="137.18" y1="168.53" x2="91.84" y2="168.53"/><line class="c" x1="91.84" y1="168.53" x2="69.29" y2="147.5"/><line class="c" x1="91.7" y1="168.76" x2="137.32" y2="168.76"/><line class="c" x1="148.64" y1="178.95" x2="148.64" y2="158.58"/><line class="c" x1="148.94" y1="179.23" x2="148.94" y2="158.3"/><line class="c" x1="148.69" y1="158.53" x2="148.69" y2="178.99"/><line class="c" x1="137.47" y1="179.36" x2="137.47" y2="169.27"/><line class="c" x1="114.66" y1="179.36" x2="114.66" y2="169"/><line class="c" x1="137.17" y1="169" x2="137.17" y2="179.36"/><line class="c" x1="91.85" y1="179.36" x2="91.85" y2="169"/><line class="c" x1="114.36" y1="169" x2="114.36" y2="179.36"/><line class="c" x1="159.85" y1="148.13" x2="159.85" y2="189.4"/><line class="c" x1="148.19" y1="179.27" x2="137.47" y2="179.27"/><line class="c" x1="137.47" y1="189.92" x2="137.47" y2="179.6"/><line class="c" x1="137.47" y1="179.6" x2="148.55" y2="179.6"/><line class="c" x1="148.29" y1="179.36" x2="137.47" y2="179.36"/><line class="c" x1="137.32" y1="189.92" x2="137.47" y2="189.92"/><line class="c" x1="137.17" y1="179.27" x2="114.66" y2="179.27"/><line class="c" x1="114.66" y1="189.92" x2="114.66" y2="179.6"/><line class="c" x1="114.66" y1="179.6" x2="137.17" y2="179.6"/><line class="c" x1="137.17" y1="179.6" x2="137.17" y2="189.92"/><line class="c" x1="137.17" y1="179.36" x2="114.66" y2="179.36"/><line class="c" x1="114.51" y1="189.92" x2="114.66" y2="189.92"/><line class="c" x1="137.17" y1="189.92" x2="137.32" y2="189.92"/><line class="c" x1="114.36" y1="179.27" x2="91.85" y2="179.27"/><line class="c" x1="91.85" y1="189.92" x2="91.85" y2="179.6"/><line class="c" x1="91.85" y1="179.6" x2="114.36" y2="179.6"/><line class="c" x1="114.36" y1="179.6" x2="114.36" y2="189.92"/><line class="c" x1="114.36" y1="179.36" x2="91.85" y2="179.36"/><line class="c" x1="91.7" y1="189.92" x2="91.85" y2="189.92"/><line class="c" x1="114.36" y1="189.92" x2="114.51" y2="189.92"/><line class="c" x1="160.13" y1="189.65" x2="137.71" y2="168.76"/><line class="c" x1="137.71" y1="168.76" x2="160.13" y2="147.87"/><line class="c" x1="160.13" y1="147.5" x2="137.32" y2="168.76"/><line class="c" x1="137.32" y1="168.76" x2="160.13" y2="190.02"/><line class="c" x1="69.29" y1="190.02" x2="91.84" y2="169"/><line class="c" x1="91.84" y1="169" x2="137.18" y2="169"/><line class="c" x1="137.18" y1="169" x2="159.73" y2="190.02"/><line class="c" x1="91.85" y1="148.64" x2="114.36" y2="148.64"/><line class="c" x1="114.66" y1="148.64" x2="137.17" y2="148.64"/><line class="c" x1="137.47" y1="148.64" x2="158.52" y2="148.64"/><line class="c" x1="158.52" y1="188.89" x2="137.47" y2="188.89"/><line class="c" x1="137.17" y1="188.89" x2="114.66" y2="188.89"/><line class="c" x1="114.36" y1="188.89" x2="91.85" y2="188.89"/><line class="c" x1="91.85" y1="148.07" x2="114.36" y2="148.07"/><line class="c" x1="114.66" y1="148.07" x2="137.17" y2="148.07"/><line class="c" x1="137.47" y1="148.07" x2="159.12" y2="148.07"/><line class="c" x1="159.12" y1="189.46" x2="137.47" y2="189.46"/><line class="c" x1="137.17" y1="189.46" x2="114.66" y2="189.46"/><line class="c" x1="114.36" y1="189.46" x2="91.85" y2="189.46"/><line class="c" x1="68.59" y1="190.31" x2="160.43" y2="190.31"/><line class="c" x1="160.43" y1="190.31" x2="160.43" y2="147.22"/><line class="c" x1="160.43" y1="147.22" x2="68.59" y2="147.22"/><line class="c" x1="68.89" y1="147.5" x2="160.13" y2="147.5"/><line class="c" x1="160.13" y1="147.5" x2="160.13" y2="190.02"/><line class="c" x1="160.13" y1="190.02" x2="68.89" y2="190.02"/><line class="c" x1="139.12" y1="247.02" x2="139.12" y2="274.73"/><line class="c" x1="162.84" y1="274.73" x2="162.84" y2="247.02"/><line class="c" x1="139.12" y1="274.73" x2="162.84" y2="274.73"/><line class="c" x1="162.84" y1="273.85" x2="139.12" y2="273.85"/><line class="c" x1="161.02" y1="272.21" x2="140.95" y2="272.21"/><line class="c" x1="140.95" y1="272.21" x2="140.95" y2="248.66"/><line class="c" x1="161.02" y1="248.66" x2="161.02" y2="272.21"/><line class="c" x1="154.42" y1="264.15" x2="150.98" y2="272.21"/><line class="c" x1="147.55" y1="264.15" x2="150.98" y2="272.21"/><line class="c" x1="104.96" y1="247.02" x2="104.96" y2="274.73"/><line class="c" x1="128.68" y1="274.73" x2="128.68" y2="247.02"/><line class="c" x1="104.96" y1="274.73" x2="128.68" y2="274.73"/><line class="c" x1="128.68" y1="273.85" x2="104.96" y2="273.85"/><line class="c" x1="126.85" y1="272.21" x2="106.78" y2="272.21"/><line class="c" x1="106.78" y1="272.21" x2="106.78" y2="248.66"/><line class="c" x1="126.85" y1="248.66" x2="126.85" y2="272.21"/><line class="c" x1="120.25" y1="264.15" x2="116.82" y2="272.21"/><line class="c" x1="113.39" y1="264.15" x2="116.82" y2="272.21"/><text class="d" transform="matrix(-1, 0, 0, 1, 210.08, 601.53)">27 Montpelier 003</text><text class="d" transform="translate(46.32 600.58)">172 Henniker 020</text><polyline class="e" points="194.66 489.92 193.53 489.92 193.53 486.38 193.53 483.12 194.66 483.12"/><polyline class="e" points="196.57 348.51 197.01 348.51 197.01 347.74 196.57 347.74"/><polyline class="e" points="196.57 342.84 197.01 342.84 197.01 342.07 196.57 342.07"/><polygon class="e" points="177.02 356.18 177.78 356.18 177.78 356.88 177.78 357.93 177.78 377.75 196.57 377.75 196.57 348.51 196.57 347.74 196.57 342.84 196.57 342.07 196.57 335.39 177.78 335.39 177.78 336.39 177.78 337.44 177.78 338.15 177.02 338.15 177.02 338.57 174.74 338.57 174.74 338.23 173.52 338.23 173.52 337.81 173.52 337.44 173.52 336.39 173.52 329.72 173.52 328.67 173.52 328.31 173.52 327.88 174.74 327.88 174.74 327.54 177.02 327.54 177.02 327.97 177.78 327.97 177.78 328.67 177.78 329.72 177.78 331.42 196.57 331.42 196.57 296.02 177.78 296.02 177.78 299.28 177.78 300.33 177.78 301.04 177.02 301.04 177.02 301.46 174.74 301.46 174.74 301.12 173.52 301.12 173.52 300.7 173.52 300.33 173.52 299.28 173.52 296.02 173.07 296.02 173.07 289.21 190.46 289.21 190.92 289.21 190.92 127.81 172.83 127.81 172.83 121.12 172.83 119.7 172.83 119.14 200.22 119.14 200.22 197.32 200.22 289.21 203.87 289.21 203.87 489.92 200.83 489.92 200.22 489.92 194.66 489.92 193.53 489.92 193.53 486.38 193.53 483.12 194.66 483.12 196.57 483.12 196.57 451.79 196.57 395.48 196.57 383.41 196.57 381.01 177.78 381.01 177.78 381.75 177.17 381.64 174.13 381.16 173.52 381.06 173.52 377.84 173.53 377.75 173.52 357.93 173.52 356.88 173.52 356.52 173.52 356.09 174.74 356.09 174.74 355.75 177.02 355.75 177.02 356.18"/><polygon class="e" points="149.16 483.12 169.23 483.12 170.36 483.12 170.36 486.38 170.36 489.92 169.23 489.92 160.92 489.92 160.92 517.66 161.19 517.66 161.19 520.5 157.88 520.5 157.88 516.37 157.88 509.21 157.88 501.21 157.88 494.05 157.88 489.92 150.02 489.92 146.32 492.81 145.34 491.73 143.78 489.99 143.87 489.92 143.87 483.12 145.66 483.12 145.66 437.48 145.66 436.43 149.16 436.43 149.16 437.48 149.16 483.12"/><polygon class="e" points="128.49 390.95 149.16 410.22 149.16 413.78 149.16 414.83 145.66 414.83 145.66 413.78 145.66 411.57 126.02 393.26 119.68 393.26 119.68 390 124.57 390 125.68 388.96 126.48 388.22 126.76 387.96 127.08 387.66 127.94 388.46 128.2 388.22 129.81 389.72 129.23 390.27 128.95 390.53 128.49 390.95"/><polygon class="e" points="143.12 374.31 142.26 373.51 142.58 373.21 142.86 372.95 143.66 372.21 144.69 371.25 144.69 296.02 136.3 296.02 136.3 289.21 143.6 289.21 143.6 284.92 148.74 284.92 148.74 289.21 148.74 296.02 148.19 296.02 148.19 372.59 146.13 374.51 145.34 375.25 145.06 375.51 144.48 376.05 142.86 374.55 143.12 374.31"/><polyline class="e" points="203.87 489.92 203.87 520.5 200.73 520.5 200.73 517.66 200.83 517.66 200.83 489.92 200.22 489.92"/><polyline class="e" points="161.19 517.66 161.19 520.5 157.88 520.5 157.88 516.37"/><polygon class="e" points="136.33 121.12 136.33 127.81 130.87 127.81 130.87 122.96 130.87 122.05 130.87 119.7 130.87 119.14 136.33 119.14 136.33 119.7 136.33 121.12"/><polygon class="e" points="54.84 122.96 55.29 122.96 55.29 128.23 54.84 128.23 53.73 128.23 53.73 260.17 53.73 266.98 47.62 266.98 47.62 289.21 47.62 296.02 47.62 310.12 59.99 310.12 59.99 355.79 47.62 355.79 47.62 390 54.39 390 54.39 393.26 47.62 393.26 47.62 415.2 57.9 415.2 57.9 456.5 47.62 456.5 47.62 483.12 61.72 483.12 61.72 489.92 60.08 491.6 59.05 492.64 55.86 489.92 43.97 489.92 40.32 489.92 40.32 260.17 43.97 260.17 43.97 197.32 43.97 119.14 54.84 119.14 54.84 119.7 54.84 122.05 54.84 122.96"/><polyline class="e" points="169.23 483.12 170.36 483.12 170.36 486.38 170.36 489.92 169.23 489.92"/><polyline class="e" points="157.88 494.05 157.88 489.92 150.02 489.92 146.32 492.81 145.34 491.73 143.78 489.99"/></svg>