<svg xmlns="http://www.w3.org/2000/svg" viewBox="0 0 318.24 583.97"><defs><style>.a{fill:silver;}.b{fill:none;stroke:#1d1d1b;stroke-linecap:round;stroke-linejoin:round;stroke-width:0.21px;}.c{font-size:22.2px;fill:#3a7979;font-family:ArialMT, Arial;}.d{fill:#1d1d1b;}</style></defs><rect class="a" x="168.32" y="328.74" width="29.38" height="25.58"/><polygon class="a" points="174.49 269.64 193.9 269.64 193.9 156.38 193.11 156.38 193.11 107.13 179.34 107.13 142.49 107.13 109.17 107.13 109.17 124.19 174.49 124.19 174.49 269.64"/><line class="b" x1="66.94" y1="99.32" x2="66.94" y2="107.13"/><line class="b" x1="174.49" y1="124.19" x2="174.49" y2="269.64"/><line class="b" x1="179.34" y1="99.32" x2="179.34" y2="107.13"/><line class="b" x1="187.73" y1="511.19" x2="187.73" y2="518.4"/><line class="b" x1="150.75" y1="470.71" x2="153.9" y2="470.71"/><line class="b" x1="150.75" y1="467.83" x2="153.9" y2="467.83"/><line class="b" x1="75.07" y1="276.73" x2="75.07" y2="269.64"/><line class="b" x1="64.06" y1="486.93" x2="64.06" y2="483.44"/><line class="b" x1="194.69" y1="470.71" x2="194.69" y2="467.83"/><line class="b" x1="153.9" y1="470.71" x2="153.9" y2="467.83"/><line class="b" x1="109.17" y1="124.19" x2="174.49" y2="124.19"/><line class="b" x1="179.34" y1="107.13" x2="193.11" y2="107.13"/><line class="b" x1="77.17" y1="499.06" x2="64.06" y2="486.93"/><line class="b" x1="73.5" y1="507.22" x2="56.84" y2="491.97"/><line class="b" x1="116.39" y1="499.06" x2="129.63" y2="486.93"/><line class="b" x1="120.19" y1="507.22" x2="122.81" y2="504.82"/><line class="b" x1="128.32" y1="499.78" x2="136.85" y2="491.97"/><line class="b" x1="117.57" y1="501.58" x2="131.6" y2="488.73"/><line class="b" x1="118.75" y1="503.5" x2="133.18" y2="490.29"/><line class="b" x1="64.06" y1="486.93" x2="58.55" y2="491.97"/><line class="b" x1="77.17" y1="499.06" x2="116.39" y2="499.06"/><line class="b" x1="73.5" y1="507.22" x2="120.19" y2="507.22"/><line class="b" x1="75.99" y1="501.58" x2="117.57" y2="501.58"/><line class="b" x1="74.94" y1="503.5" x2="118.75" y2="503.5"/><line class="b" x1="77.83" y1="502.54" x2="115.86" y2="502.54"/><line class="b" x1="119.67" y1="500.98" x2="130.68" y2="491.01"/><line class="b" x1="75.99" y1="501.58" x2="62.09" y2="488.73"/><line class="b" x1="74.94" y1="503.5" x2="60.39" y2="490.29"/><line class="b" x1="73.89" y1="500.98" x2="63.01" y2="491.01"/><line class="b" x1="123.86" y1="502.18" x2="138.68" y2="515.75"/><line class="b" x1="125.44" y1="500.86" x2="139.6" y2="513.83"/><line class="b" x1="126.22" y1="502.9" x2="138.29" y2="513.95"/><line class="b" x1="139.6" y1="513.83" x2="159.8" y2="513.83"/><line class="b" x1="140.39" y1="514.79" x2="157.57" y2="514.79"/><line class="b" x1="187.73" y1="511.19" x2="197.7" y2="511.19"/><line class="b" x1="187.73" y1="513.83" x2="197.7" y2="513.83"/><line class="b" x1="138.68" y1="515.75" x2="159.8" y2="515.75"/><line class="b" x1="187.73" y1="518.4" x2="197.7" y2="518.4"/><line class="b" x1="187.73" y1="515.75" x2="197.7" y2="515.75"/><line class="b" x1="189.83" y1="514.79" x2="197.7" y2="514.79"/><polyline class="b" points="154.67 452.36 155.13 452.34 155.59 452.33 156.05 452.34 156.51 452.35 156.96 452.38 157.42 452.41 157.87 452.46 158.32 452.51 158.77 452.58 159.21 452.66 159.66 452.75 160.09 452.84 160.53 452.95 160.97 453.07 161.4 453.19 161.82 453.33 162.25 453.48 162.66 453.64 163.08 453.8 163.49 453.98 163.89 454.17 164.29 454.36 164.69 454.56 165.07 454.78 165.46 455 165.84 455.23 166.21 455.48 166.57 455.73 166.93 455.99 167.28 456.25 167.63 456.53 167.97 456.82"/><polyline class="b" points="167.97 456.82 168.3 457.11 168.62 457.41 168.93 457.72 169.24 458.03 169.53 458.35 169.81 458.68 170.09 459.01 170.35 459.35 170.61 459.69 170.85 460.04 171.09 460.4 171.31 460.76 171.53 461.12 171.73 461.49 171.93 461.87 172.11 462.24 172.28 462.63 172.45 463.01 172.6 463.4 172.74 463.8 172.87 464.19 172.99 464.59 173.1 465 173.2 465.4 173.28 465.81 173.36 466.22 173.42 466.63 173.48 467.05 173.52 467.47 173.55 467.89 173.56 468.31 173.57 468.73"/><polyline class="b" points="175.01 468.73 175.02 468.31 175.04 467.88 175.07 467.47 175.11 467.05 175.16 466.63 175.22 466.22 175.3 465.81 175.39 465.4 175.48 465 175.59 464.59 175.71 464.19 175.84 463.8 175.98 463.4 176.14 463.01 176.3 462.63 176.47 462.24 176.66 461.87 176.85 461.49 177.06 461.12 177.27 460.76 177.5 460.4 177.73 460.04 177.98 459.69 178.23 459.35 178.5 459.01 178.77 458.68 179.05 458.35 179.35 458.03 179.65 457.72 179.96 457.41 180.28 457.11 180.62 456.82"/><polyline class="b" points="180.62 456.82 180.95 456.53 181.3 456.25 181.65 455.99 182.01 455.73 182.38 455.48 182.75 455.23 183.13 455 183.51 454.78 183.9 454.56 184.29 454.36 184.69 454.17 185.1 453.98 185.51 453.8 185.92 453.64 186.34 453.48 186.76 453.33 187.19 453.19 187.62 453.07 188.05 452.95 188.49 452.84 188.93 452.75 189.37 452.66 189.82 452.58 190.26 452.51 190.72 452.46 191.17 452.41 191.62 452.38 192.08 452.35 192.53 452.34 192.99 452.33 193.45 452.34 193.91 452.36"/><line class="b" x1="165.18" y1="276.73" x2="165.18" y2="269.64"/><polyline class="b" points="76.21 249.02 76.87 248.99 77.52 248.98 78.18 248.99 78.83 249.01 79.48 249.04 80.12 249.09 80.77 249.16 81.41 249.24 82.05 249.34 82.68 249.45 83.31 249.57 83.94 249.71 84.56 249.86 85.18 250.03 85.79 250.21 86.4 250.41 87 250.62 87.6 250.84 88.19 251.08 88.77 251.33 89.35 251.59 89.92 251.87 90.48 252.16 91.03 252.47 91.58 252.79 92.12 253.12 92.65 253.46 93.17 253.82 93.68 254.19 94.19 254.57 94.68 254.97 95.16 255.37"/><polyline class="b" points="95.16 255.37 95.63 255.79 96.09 256.22 96.53 256.66 96.97 257.11 97.38 257.56 97.79 258.03 98.18 258.5 98.56 258.98 98.92 259.47 99.27 259.97 99.6 260.48 99.92 260.99 100.23 261.51 100.52 262.04 100.8 262.57 101.06 263.11 101.31 263.65 101.54 264.2 101.76 264.76 101.96 265.32 102.15 265.88 102.32 266.45 102.47 267.03 102.61 267.61 102.73 268.19 102.84 268.77 102.93 269.36 103.01 269.95 103.07 270.55 103.11 271.14 103.13 271.74 103.14 272.35"/><polyline class="b" points="105.24 272.34 105.25 271.74 105.27 271.14 105.32 270.55 105.37 269.95 105.45 269.36 105.54 268.77 105.65 268.19 105.77 267.6 105.91 267.02 106.06 266.45 106.24 265.88 106.42 265.31 106.62 264.75 106.84 264.2 107.07 263.65 107.32 263.1 107.58 262.57 107.86 262.03 108.15 261.51 108.46 260.99 108.78 260.48 109.11 259.97 109.46 259.47 109.83 258.98 110.2 258.5 110.59 258.03 111 257.56 111.42 257.11 111.85 256.66 112.29 256.22 112.75 255.79 113.22 255.37"/><polyline class="b" points="113.22 255.37 113.7 254.97 114.2 254.57 114.7 254.19 115.21 253.82 115.73 253.46 116.26 253.12 116.8 252.79 117.35 252.47 117.9 252.16 118.46 251.87 119.03 251.59 119.61 251.33 120.19 251.08 120.78 250.84 121.38 250.62 121.98 250.41 122.59 250.21 123.2 250.03 123.82 249.86 124.44 249.71 125.07 249.57 125.7 249.45 126.33 249.34 126.97 249.24 127.61 249.16 128.26 249.09 128.91 249.04 129.55 249.01 130.21 248.99 130.86 248.98 131.51 248.99 132.17 249.02"/><polyline class="b" points="143.8 272.58 143.81 272.12 143.82 271.66 143.86 271.2 143.9 270.75 143.96 270.29 144.03 269.84 144.11 269.39 144.21 268.94 144.31 268.5 144.43 268.06 144.56 267.62 144.71 267.18 144.86 266.75 145.03 266.32 145.21 265.9 145.4 265.48 145.6 265.07 145.81 264.66 146.04 264.25 146.27 263.86 146.52 263.46 146.78 263.07 147.04 262.69 147.32 262.31 147.61 261.94 147.91 261.58 148.22 261.22 148.55 260.87 148.88 260.53 149.22 260.19 149.57 259.86 149.93 259.54"/><polyline class="b" points="149.93 259.54 150.31 259.23 150.68 258.92 151.07 258.63 151.46 258.35 151.86 258.07 152.27 257.81 152.69 257.55 153.1 257.31 153.53 257.07 153.96 256.85 154.4 256.63 154.84 256.43 155.29 256.24 155.75 256.06 156.2 255.88 156.67 255.72 157.13 255.57 157.6 255.43 158.08 255.31 158.56 255.19 159.04 255.08 159.52 254.98 160.01 254.9 160.5 254.83 161 254.76 161.49 254.72 161.99 254.68 162.49 254.65 162.99 254.63 163.49 254.63 163.99 254.64 164.5 254.66"/><line class="b" x1="109.17" y1="107.13" x2="109.17" y2="124.19"/><line class="b" x1="142.49" y1="107.13" x2="179.34" y2="107.13"/><line class="b" x1="179.34" y1="104.25" x2="142.49" y2="104.25"/><line class="b" x1="179.34" y1="102.21" x2="142.49" y2="102.21"/><line class="b" x1="180.52" y1="98.24" x2="141.18" y2="98.24"/><line class="b" x1="176.98" y1="103.29" x2="144.72" y2="103.29"/><polyline class="b" points="67.69 87.46 68.1 87.44 68.51 87.43 68.92 87.44 69.34 87.45 69.75 87.47 70.15 87.5 70.56 87.55 70.96 87.59 71.36 87.66 71.76 87.72 72.16 87.8 72.56 87.89 72.95 87.99 73.34 88.09 73.72 88.21 74.11 88.33 74.48 88.46 74.86 88.6 75.23 88.75 75.6 88.91 75.96 89.08 76.32 89.25 76.67 89.44 77.02 89.63 77.37 89.83 77.71 90.04 78.04 90.25 78.37 90.48 78.69 90.71 79.01 90.95 79.32 91.2 79.62 91.46"/><polyline class="b" points="79.62 91.46 79.92 91.72 80.21 91.99 80.49 92.27 80.76 92.55 81.02 92.84 81.28 93.13 81.52 93.43 81.76 93.73 81.99 94.04 82.21 94.35 82.42 94.67 82.62 94.99 82.82 95.32 83 95.65 83.17 95.99 83.34 96.33 83.5 96.67 83.64 97.02 83.78 97.37 83.91 97.72 84.02 98.08 84.13 98.44 84.23 98.8 84.31 99.16 84.39 99.53 84.46 99.9 84.52 100.27 84.56 100.64 84.6 101.02 84.63 101.39 84.64 101.77 84.65 102.15"/><polyline class="b" points="86.09 102.14 86.1 101.77 86.11 101.39 86.14 101.01 86.18 100.64 86.22 100.27 86.28 99.89 86.35 99.53 86.43 99.16 86.51 98.8 86.61 98.43 86.72 98.08 86.84 97.72 86.96 97.37 87.1 97.02 87.25 96.67 87.4 96.33 87.57 95.99 87.74 95.65 87.93 95.32 88.12 94.99 88.32 94.67 88.53 94.35 88.75 94.04 88.98 93.73 89.22 93.43 89.46 93.13 89.72 92.83 89.98 92.55 90.25 92.27 90.53 91.99 90.82 91.72 91.12 91.46"/><polyline class="b" points="91.12 91.46 91.42 91.2 91.73 90.95 92.05 90.71 92.37 90.48 92.7 90.25 93.03 90.04 93.37 89.83 93.72 89.63 94.07 89.44 94.42 89.25 94.78 89.08 95.14 88.91 95.51 88.75 95.88 88.6 96.26 88.46 96.64 88.33 97.02 88.21 97.4 88.09 97.79 87.99 98.19 87.89 98.58 87.8 98.98 87.72 99.38 87.66 99.78 87.59 100.18 87.55 100.59 87.5 101 87.47 101.41 87.45 101.82 87.44 102.23 87.43 102.64 87.44 103.05 87.46"/><line class="b" x1="175.54" y1="373.3" x2="186.16" y2="373.3"/><line class="b" x1="189.31" y1="373.3" x2="197.7" y2="373.3"/><line class="b" x1="175.54" y1="379.07" x2="197.7" y2="379.07"/><line class="b" x1="175.54" y1="384.71" x2="197.7" y2="384.71"/><line class="b" x1="175.54" y1="390.36" x2="197.7" y2="390.36"/><line class="b" x1="175.54" y1="396" x2="197.7" y2="396"/><line class="b" x1="175.54" y1="401.77" x2="197.7" y2="401.77"/><line class="b" x1="175.54" y1="407.41" x2="197.7" y2="407.41"/><line class="b" x1="175.54" y1="413.06" x2="197.7" y2="413.06"/><line class="b" x1="176.32" y1="418.7" x2="197.7" y2="418.7"/><line class="b" x1="179.47" y1="424.47" x2="197.7" y2="424.47"/><polyline class="b" points="179.54 424.47 179.42 424.47 179.3 424.46 179.18 424.45 179.06 424.45 178.94 424.43 178.83 424.42 178.71 424.4 178.6 424.38 178.49 424.36 178.37 424.33 178.26 424.31 178.15 424.28 178.04 424.24 177.94 424.21 177.83 424.17 177.73 424.13 177.62 424.09 177.52 424.05 177.42 424 177.32 423.95 177.22 423.9 177.12 423.85 177.03 423.8 176.94 423.74 176.84 423.68 176.75 423.62 176.66 423.56 176.58 423.49 176.49 423.43 176.41 423.36 176.32 423.29 176.25 423.22 176.17 423.15 176.09 423.07 176.02 422.99 175.94 422.92 175.88 422.84 175.81 422.75 175.74 422.67 175.68 422.59 175.62 422.5 175.56 422.42 175.5 422.33 175.44 422.24 175.39 422.14 175.34 422.05 175.29 421.96 175.25 421.86 175.21 421.77 175.16 421.67 175.13 421.57 175.09 421.47 175.06 421.37 175.03 421.27 175 421.17 174.98 421.06 174.96 420.96 174.94 420.85 174.92 420.75 174.91 420.64 174.9 420.53 174.89 420.42 174.88 420.31 174.88 420.2"/><line class="b" x1="175.54" y1="357.2" x2="175.54" y2="417.26"/><line class="b" x1="174.09" y1="357.2" x2="174.09" y2="417.26"/><line class="b" x1="165.18" y1="328.74" x2="168.32" y2="328.74"/><line class="b" x1="165.18" y1="307.48" x2="168.32" y2="307.48"/><polyline class="b" points="166.03 328.02 165.5 328.01 164.98 327.99 164.46 327.96 163.94 327.92 163.42 327.86 162.91 327.8 162.4 327.72 161.89 327.63 161.38 327.53 160.88 327.41 160.38 327.29 159.89 327.15 159.4 327 158.92 326.85 158.44 326.68 157.96 326.49 157.49 326.3 157.03 326.1 156.57 325.89 156.11 325.66 155.67 325.43 155.22 325.18 154.79 324.93 154.36 324.66 153.94 324.38 153.53 324.1 153.12 323.8 152.72 323.5 152.33 323.18 151.95 322.85 151.58 322.52 151.21 322.17"/><polyline class="b" points="151.21 322.17 150.86 321.82 150.51 321.46 150.18 321.09 149.85 320.72 149.54 320.33 149.24 319.95 148.95 319.55 148.68 319.15 148.41 318.75 148.16 318.33 147.91 317.92 147.68 317.5 147.46 317.07 147.26 316.64 147.06 316.2 146.88 315.76 146.71 315.32 146.55 314.87 146.4 314.42 146.27 313.96 146.15 313.5 146.04 313.04 145.94 312.57 145.86 312.11 145.79 311.64 145.73 311.16 145.69 310.69 145.66 310.21 145.64 309.74 145.63 309.26 145.64 308.78 145.67 308.3"/><line class="b" x1="168.32" y1="328.74" x2="197.7" y2="328.74"/><polyline class="b" points="160.85 514.01 160.86 513.43 160.88 512.86 160.92 512.29 160.98 511.71 161.05 511.15 161.14 510.58 161.24 510.02 161.36 509.46 161.49 508.91 161.64 508.36 161.8 507.81 161.98 507.27 162.18 506.73 162.38 506.2 162.61 505.67 162.84 505.15 163.09 504.63 163.36 504.12 163.64 503.62 163.93 503.12 164.24 502.63 164.56 502.14 164.9 501.67 165.25 501.2 165.61 500.74 165.98 500.28 166.37 499.83 166.77 499.4 167.18 498.97 167.61 498.55 168.05 498.14 168.5 497.74"/><polyline class="b" points="168.5 497.74 168.97 497.35 169.44 496.97 169.92 496.6 170.41 496.25 170.91 495.9 171.42 495.57 171.93 495.26 172.46 494.95 172.99 494.66 173.53 494.38 174.07 494.11 174.63 493.86 175.19 493.62 175.75 493.39 176.32 493.18 176.9 492.98 177.48 492.79 178.07 492.61 178.66 492.45 179.26 492.31 179.86 492.17 180.47 492.05 181.07 491.95 181.69 491.86 182.3 491.78 182.92 491.72 183.54 491.67 184.16 491.63 184.79 491.62 185.41 491.61 186.04 491.62 186.67 491.64"/><polyline class="b" points="173.18 371.74 181.05 371.74 183.28 366.09 187.74 377.38 189.96 371.74 197.7 371.74"/><line class="b" x1="145.63" y1="309.28" x2="165.96" y2="309.28"/><line class="b" x1="145.63" y1="308.32" x2="145.63" y2="309.28"/><line class="b" x1="165.96" y1="308.32" x2="145.63" y2="308.32"/><line class="b" x1="165.96" y1="309.28" x2="165.96" y2="308.32"/><line class="b" x1="145.63" y1="308.8" x2="165.96" y2="308.8"/><line class="b" x1="155.8" y1="309.28" x2="155.8" y2="308.32"/><line class="b" x1="102.09" y1="87.43" x2="102.09" y2="102.09"/><line class="b" x1="103.01" y1="87.43" x2="102.09" y2="87.43"/><line class="b" x1="103.01" y1="102.09" x2="103.01" y2="87.43"/><line class="b" x1="102.09" y1="102.09" x2="103.01" y2="102.09"/><line class="b" x1="102.09" y1="94.76" x2="103.01" y2="94.76"/><line class="b" x1="102.55" y1="102.09" x2="102.55" y2="87.43"/><line class="b" x1="68.52" y1="87.43" x2="68.52" y2="102.09"/><line class="b" x1="68.52" y1="102.09" x2="67.73" y2="102.09"/><line class="b" x1="67.73" y1="102.09" x2="67.73" y2="87.43"/><line class="b" x1="67.73" y1="87.43" x2="68.52" y2="87.43"/><line class="b" x1="68.52" y1="94.76" x2="67.73" y2="94.76"/><line class="b" x1="68.12" y1="102.09" x2="68.12" y2="87.43"/><line class="b" x1="163.34" y1="254.63" x2="163.34" y2="272.53"/><line class="b" x1="164.39" y1="254.63" x2="163.34" y2="254.63"/><line class="b" x1="164.39" y1="272.53" x2="164.39" y2="254.63"/><line class="b" x1="163.34" y1="272.53" x2="164.39" y2="272.53"/><line class="b" x1="163.34" y1="263.58" x2="164.39" y2="263.58"/><line class="b" x1="163.87" y1="272.53" x2="163.87" y2="254.63"/><line class="b" x1="130.68" y1="248.98" x2="130.68" y2="272.29"/><line class="b" x1="132.13" y1="248.98" x2="130.68" y2="248.98"/><line class="b" x1="132.13" y1="272.29" x2="132.13" y2="248.98"/><line class="b" x1="130.68" y1="272.29" x2="132.13" y2="272.29"/><line class="b" x1="130.68" y1="260.63" x2="132.13" y2="260.63"/><line class="b" x1="131.4" y1="272.29" x2="131.4" y2="248.98"/><line class="b" x1="77.57" y1="248.98" x2="77.57" y2="272.29"/><line class="b" x1="77.57" y1="272.29" x2="76.12" y2="272.29"/><line class="b" x1="76.12" y1="272.29" x2="76.12" y2="248.98"/><line class="b" x1="76.12" y1="248.98" x2="77.57" y2="248.98"/><line class="b" x1="77.57" y1="260.63" x2="76.12" y2="260.63"/><line class="b" x1="76.85" y1="272.29" x2="76.85" y2="248.98"/><line class="b" x1="192.85" y1="452.33" x2="192.85" y2="468.67"/><line class="b" x1="193.9" y1="452.33" x2="192.85" y2="452.33"/><line class="b" x1="193.9" y1="468.67" x2="193.9" y2="452.33"/><line class="b" x1="192.85" y1="468.67" x2="193.9" y2="468.67"/><line class="b" x1="192.85" y1="460.5" x2="193.9" y2="460.5"/><line class="b" x1="193.37" y1="468.67" x2="193.37" y2="452.33"/><line class="b" x1="155.6" y1="452.33" x2="155.6" y2="468.67"/><line class="b" x1="155.6" y1="468.67" x2="154.68" y2="468.67"/><line class="b" x1="154.68" y1="468.67" x2="154.68" y2="452.33"/><line class="b" x1="154.68" y1="452.33" x2="155.6" y2="452.33"/><line class="b" x1="155.6" y1="460.5" x2="154.68" y2="460.5"/><line class="b" x1="155.14" y1="468.67" x2="155.14" y2="452.33"/><line class="b" x1="173.31" y1="417.26" x2="176.32" y2="417.26"/><line class="b" x1="176.32" y1="417.26" x2="176.32" y2="420.14"/><line class="b" x1="176.32" y1="420.14" x2="173.31" y2="420.14"/><line class="b" x1="173.31" y1="420.14" x2="173.31" y2="417.26"/><line class="b" x1="176.32" y1="418.7" x2="173.31" y2="418.7"/><line class="b" x1="174.82" y1="420.14" x2="174.82" y2="417.26"/><line class="b" x1="142.88" y1="276.73" x2="133.18" y2="276.73"/><line class="b" x1="133.18" y1="276.73" x2="133.18" y2="269.64"/><line class="b" x1="133.18" y1="269.64" x2="142.88" y2="269.64"/><line class="b" x1="142.88" y1="269.64" x2="142.88" y2="276.73"/><line class="b" x1="142.88" y1="273.19" x2="133.18" y2="273.19"/><line class="b" x1="138.03" y1="276.73" x2="138.03" y2="269.64"/><line class="b" x1="137.5" y1="518.4" x2="121.9" y2="503.98"/><line class="b" x1="121.9" y1="503.98" x2="127.4" y2="499.06"/><line class="b" x1="127.4" y1="499.06" x2="140.78" y2="511.19"/><line class="b" x1="140.78" y1="511.19" x2="159.8" y2="511.19"/><line class="b" x1="159.8" y1="511.19" x2="159.8" y2="518.4"/><line class="b" x1="159.8" y1="518.4" x2="137.5" y2="518.4"/><line class="b" x1="138.07" y1="508.73" x2="127.03" y2="508.73"/><line class="b" x1="140.85" y1="518.4" x2="140.85" y2="511.19"/><line class="b" x1="103.67" y1="107.13" x2="103.67" y2="99.32"/><line class="b" x1="103.67" y1="99.32" x2="142.49" y2="99.32"/><line class="b" x1="142.49" y1="99.32" x2="142.49" y2="107.13"/><line class="b" x1="142.49" y1="107.13" x2="103.67" y2="107.13"/><line class="b" x1="142.49" y1="103.23" x2="103.67" y2="103.23"/><line class="b" x1="123.08" y1="107.13" x2="123.08" y2="99.32"/><line class="b" x1="185.24" y1="491.61" x2="185.24" y2="513.95"/><line class="b" x1="186.69" y1="491.61" x2="185.24" y2="491.61"/><line class="b" x1="186.69" y1="513.95" x2="186.69" y2="491.61"/><line class="b" x1="185.24" y1="513.95" x2="186.69" y2="513.95"/><line class="b" x1="185.24" y1="502.78" x2="186.69" y2="502.78"/><line class="b" x1="185.96" y1="513.95" x2="185.96" y2="491.61"/><path class="b" d="M124.21,438.22c.49-12,11.29-21.56,24.44-21.56"/><polyline class="b" points="125.37 439 124.19 437.92 124.19 439 148.71 439 148.71 437.92 124.19 437.92"/><text class="c" transform="matrix(-1, 0, 0, 1, 188.26, 601.2)">148 Haldane 121</text><polygon class="d" points="42.68 99.32 66.94 99.32 66.94 107.13 51.2 107.13 51.2 156.38 50.42 156.38 50.42 269.64 75.08 269.64 75.08 276.73 46.62 276.73 46.62 381.23 150.75 381.23 150.75 386.99 147.73 386.99 147.73 384.11 46.62 384.11 46.62 483.44 64.06 483.44 64.06 486.93 58.55 491.97 56.98 490.53 42.68 490.53 42.68 99.32"/><polygon class="d" points="165.18 269.64 193.9 269.64 193.9 156.38 193.11 156.38 193.11 107.13 179.34 107.13 179.34 99.32 201.64 99.32 201.64 518.39 197.7 518.39 197.7 490.53 193.64 490.53 193.64 483.44 197.7 483.44 197.7 357.2 165.18 357.2 165.18 328.74 168.32 328.74 168.32 354.32 197.7 354.32 197.7 276.73 165.18 276.73 165.18 269.64"/><rect class="d" x="133.18" y="269.64" width="9.71" height="7.09"/><rect class="d" x="103.67" y="99.32" width="38.82" height="7.81"/><line class="d" x1="154.95" y1="490.53" x2="136.72" y2="490.53"/><line class="d" x1="136.72" y1="490.53" x2="135.01" y2="491.97"/><line class="d" x1="135.01" y1="491.97" x2="129.63" y2="486.93"/><line class="d" x1="129.63" y1="486.93" x2="129.63" y2="483.44"/><line class="d" x1="129.63" y1="483.44" x2="154.95" y2="483.44"/><line class="d" x1="154.95" y1="483.44" x2="154.95" y2="490.53"/><line class="d" x1="154.95" y1="487.71" x2="130.47" y2="487.71"/><line class="d" x1="142.29" y1="490.53" x2="142.29" y2="483.44"/><polyline class="d" points="44.45 383.87 148.32 383.87 148.32 415.82 151.34 415.82 151.34 380.99 44.45 380.99"/><polyline class="d" points="129.63 483.44 129.63 486.93 135.01 491.97 151.34 491.97 151.34 439.96 148.32 439.96 148.32 483.44"/><rect class="d" x="165.18" y="274.68" width="3.15" height="32.79"/></svg>