<svg xmlns="http://www.w3.org/2000/svg" viewBox="0 0 113.39 198.43"><defs><style>.a{fill:none;stroke:#1d1d1b;stroke-linecap:round;stroke-linejoin:round;stroke-width:0.1px;}.b{fill:silver;}.c{fill:#1d1d1b;}</style></defs><line class="a" x1="77.32" y1="144.42" x2="77.84" y2="144.42"/><line class="a" x1="78.1" y1="144.92" x2="86.06" y2="144.92"/><line class="a" x1="82.21" y1="132.23" x2="86.06" y2="132.23"/><line class="a" x1="81.23" y1="132.23" x2="81.71" y2="132.23"/><line class="a" x1="77.84" y1="134.36" x2="86.06" y2="134.36"/><line class="a" x1="77.84" y1="136.47" x2="86.06" y2="136.47"/><line class="a" x1="77.84" y1="138.58" x2="86.06" y2="138.58"/><line class="a" x1="77.84" y1="140.71" x2="86.06" y2="140.71"/><line class="a" x1="77.84" y1="142.82" x2="86.06" y2="142.82"/><polyline class="a" points="84.45 158.18 84.82 158.18 84.82 159.16"/><line class="a" x1="84.82" y1="159.16" x2="84.45" y2="159.16"/><polyline class="a" points="84.45 159.16 84.45 158.18 84.02 158.18"/><polyline class="a" points="76.97 159.16 76.6 159.16 76.6 158.18"/><polyline class="a" points="76.97 159.16 76.97 158.18 76.6 158.18"/><line class="a" x1="62.96" y1="51.01" x2="62.96" y2="51.47"/><line class="a" x1="61.93" y1="51.56" x2="61.93" y2="52.04"/><line class="a" x1="62.43" y1="49.84" x2="62.43" y2="53.19"/><line class="a" x1="78.41" y1="50.23" x2="78.41" y2="50.62"/><line class="a" x1="78.02" y1="52.04" x2="78.02" y2="51.01"/><line class="a" x1="46.46" y1="50.23" x2="46.46" y2="50.62"/><line class="a" x1="61.93" y1="51.56" x2="78.02" y2="51.56"/><line class="a" x1="61.93" y1="52.04" x2="78.41" y2="52.04"/><line class="a" x1="46.46" y1="52.04" x2="46.85" y2="52.04"/><line class="a" x1="46.85" y1="51.47" x2="62.96" y2="51.47"/><line class="a" x1="78.02" y1="51.01" x2="78.41" y2="51.01"/><line class="a" x1="46.46" y1="51.01" x2="62.96" y2="51.01"/><line class="a" x1="78.41" y1="50.23" x2="46.46" y2="50.23"/><line class="a" x1="46.85" y1="52.04" x2="46.85" y2="51.01"/><line class="a" x1="83.95" y1="165.74" x2="71.74" y2="165.74"/><line class="a" x1="76.21" y1="158.14" x2="76.21" y2="159.16"/><line class="a" x1="74.43" y1="158.62" x2="76.21" y2="158.62"/><line class="a" x1="74.04" y1="158.14" x2="76.6" y2="158.14"/><line class="a" x1="74.43" y1="158.68" x2="76.21" y2="158.68"/><line class="a" x1="74.04" y1="159.16" x2="76.6" y2="159.16"/><line class="a" x1="74.43" y1="158.14" x2="74.43" y2="159.16"/><line class="a" x1="67.48" y1="165.33" x2="68.17" y2="166.07"/><line class="a" x1="59.87" y1="170.87" x2="66.98" y2="164.22"/><line class="a" x1="61.26" y1="171.79" x2="67.8" y2="165.66"/><line class="a" x1="60.65" y1="171.7" x2="67.76" y2="165.05"/><line class="a" x1="61.33" y1="171.85" x2="67.85" y2="165.72"/><line class="a" x1="61.37" y1="172.46" x2="68.45" y2="165.81"/><line class="a" x1="69.67" y1="165.74" x2="61.04" y2="173.83"/><line class="a" x1="44.42" y1="50.23" x2="44.42" y2="50.62"/><line class="a" x1="44.03" y1="52.04" x2="44.03" y2="51.01"/><line class="a" x1="36.4" y1="53.19" x2="44.42" y2="53.19"/><line class="a" x1="36.4" y1="50.23" x2="36.4" y2="50.62"/><line class="a" x1="36.79" y1="51.56" x2="44.03" y2="51.56"/><line class="a" x1="36.4" y1="52.04" x2="44.42" y2="52.04"/><line class="a" x1="36.79" y1="51.47" x2="44.03" y2="51.47"/><line class="a" x1="36.4" y1="51.01" x2="44.42" y2="51.01"/><line class="a" x1="44.42" y1="50.23" x2="36.4" y2="50.23"/><line class="a" x1="36.79" y1="52.04" x2="36.79" y2="51.01"/><line class="a" x1="82.97" y1="89.57" x2="82.97" y2="89.96"/><line class="a" x1="82.58" y1="91.37" x2="82.58" y2="90.33"/><line class="a" x1="71.67" y1="89.57" x2="71.67" y2="89.96"/><line class="a" x1="72.06" y1="90.89" x2="82.58" y2="90.89"/><line class="a" x1="71.67" y1="91.37" x2="82.97" y2="91.37"/><line class="a" x1="72.06" y1="90.81" x2="82.58" y2="90.81"/><line class="a" x1="71.67" y1="90.33" x2="82.97" y2="90.33"/><line class="a" x1="82.97" y1="89.57" x2="71.67" y2="89.57"/><line class="a" x1="72.06" y1="91.37" x2="72.06" y2="90.33"/><line class="a" x1="46.46" y1="50.62" x2="46.46" y2="53.19"/><line class="a" x1="44.42" y1="50.62" x2="44.42" y2="53.19"/><line class="a" x1="46.46" y1="50.62" x2="44.42" y2="50.62"/><line class="a" x1="46.46" y1="53.19" x2="44.42" y2="53.19"/><line class="a" x1="78.6" y1="147.05" x2="86.06" y2="147.05"/><polyline class="a" points="77.58 146.01 77.63 146.29 77.71 146.53 77.89 146.75 78.1 146.9 78.34 147.01 78.6 147.05"/><line class="a" x1="77.58" y1="146.01" x2="77.58" y2="145.44"/><line class="a" x1="76.6" y1="159.16" x2="76.6" y2="158.14"/><polyline class="a" points="77.84 133.97 81.25 132.47 81.19 131.73 82.25 132.77 82.19 132.03 87.38 129.51"/><line class="a" x1="76.37" y1="134.62" x2="77.32" y2="134.2"/><line class="a" x1="39.03" y1="173.44" x2="39.03" y2="173.83"/><line class="a" x1="60.93" y1="171.44" x2="61.65" y2="172.2"/><line class="a" x1="48.55" y1="172.02" x2="48.55" y2="173.05"/><line class="a" x1="39.03" y1="170.87" x2="48.94" y2="170.87"/><line class="a" x1="39.42" y1="172.5" x2="48.55" y2="172.5"/><line class="a" x1="39.03" y1="172.02" x2="48.94" y2="172.02"/><line class="a" x1="39.42" y1="172.57" x2="48.55" y2="172.57"/><line class="a" x1="39.03" y1="173.05" x2="48.94" y2="173.05"/><line class="a" x1="39.42" y1="172.02" x2="39.42" y2="173.05"/><line class="a" x1="59.48" y1="172.02" x2="59.48" y2="173.05"/><line class="a" x1="49.96" y1="170.87" x2="59.87" y2="170.87"/><line class="a" x1="50.35" y1="172.5" x2="59.48" y2="172.5"/><line class="a" x1="49.96" y1="172.02" x2="59.87" y2="172.02"/><line class="a" x1="50.35" y1="172.57" x2="59.48" y2="172.57"/><line class="a" x1="49.96" y1="173.05" x2="59.87" y2="173.05"/><line class="a" x1="61.04" y1="173.83" x2="39.03" y2="173.83"/><line class="a" x1="50.35" y1="172.02" x2="50.35" y2="173.05"/><polygon class="b" points="80.2 98.45 80.2 121.02 86.37 121.02 86.37 92.3 83.29 92.3 72 92.3 69.96 92.3 69.96 98.45 80.2 98.45"/><polygon class="b" points="80.2 98.45 80.2 121.02 86.37 121.02 86.37 92.3 83.29 92.3 72 92.3 69.96 92.3 69.96 98.45 80.2 98.45"/><polygon class="c" points="82.97 92.52 86.06 92.52 86.06 121.28 79.89 121.28 69.63 121.28 69.63 109.98 68.08 109.98 68.08 126.67 63.67 126.67 63.67 128.41 68.08 128.41 68.08 133.03 69.63 133.03 69.63 122.3 86.06 122.3 86.06 158.14 84.82 158.14 84.82 159.16 86.06 159.16 86.06 163.18 83.95 163.18 83.95 165.74 88.62 165.74 88.62 89.96 87.34 89.96 87.34 50.62 78.41 50.62 78.41 53.19 85.6 53.19 85.6 89.96 82.97 89.96 82.97 92.52"/><polygon class="c" points="34.92 170.87 34.92 151.05 38.01 151.05 38.01 135.64 34.92 135.64 34.92 128.41 39.33 128.41 39.33 126.67 34.92 126.67 34.92 85.53 36.09 85.53 36.09 82.96 35.38 82.96 35.38 75.77 44.61 75.77 44.61 82.96 43.9 82.96 43.9 85.53 46.53 85.53 46.53 82.96 45.66 82.96 45.66 74.75 35.38 74.75 35.38 53.19 36.4 53.19 36.4 50.62 33.64 50.62 33.64 82.96 32.36 82.96 32.36 173.44 39.03 173.44 39.03 170.87 34.92 170.87"/><polyline class="c" points="69.63 92.52 69.63 99.7 68.08 99.7 68.08 94.57 65.41 94.57 65.41 85.53 63.98 85.53 63.98 82.96 67.98 82.96 67.98 89.96 71.67 89.96 71.67 92.52"/><polygon class="c" points="69.63 163.18 69.63 159.16 74.04 159.16 74.04 158.14 69.63 158.14 69.63 140.84 68.08 140.84 68.08 163.18 66.98 164.22 68.74 166.09 69.11 165.74 71.74 165.74 71.74 163.18 69.63 163.18"/><polygon class="c" points="77.84 144.42 77.84 133.97 77.32 134.21 77.32 144.42 77.06 144.42 77.06 145.44 78.1 145.44 78.1 144.42 77.84 144.42"/><polygon class="c" points="59.87 170.87 59.87 173.44 60.89 173.44 61.63 172.74 59.87 170.87"/><rect class="c" x="48.94" y="170.87" width="1.02" height="2.56"/></svg>