<svg xmlns="http://www.w3.org/2000/svg" viewBox="0 0 113.39 198.43"><defs><style>.a,.b{fill:none;stroke-linecap:round;stroke-linejoin:round;stroke-width:0.1px;}.a{stroke:#1d1d1b;}.b{stroke:blue;}.c{fill:#1d1d1b;}</style></defs><line class="a" x1="78.82" y1="128.52" x2="80.17" y2="127.17"/><polyline class="a" points="76.73 131.61 76.73 130.61 75.69 130.61 75.69 131.61 76.73 131.61 76.73 130.61 78.13 129.22"/><polygon class="a" points="68.08 167.42 67.73 167.81 66.99 167.07 67.33 166.72 68.08 167.42"/><rect class="a" x="37.49" y="174.16" width="0.52" height="1.04"/><polyline class="a" points="75.21 165.85 83.74 165.85 83.74 166.94 74.73 166.94 74.73 165.85"/><line class="a" x1="37.45" y1="59.74" x2="61.9" y2="59.74"/><polyline class="a" points="62.2 57.09 62.2 56.78 37.14 56.78 37.14 57.09"/><rect class="a" x="37.45" y="57.87" width="0.52" height="1"/><line class="a" x1="37.97" y1="58.35" x2="43.02" y2="58.35"/><line class="a" x1="44.06" y1="58.35" x2="55.28" y2="58.35"/><line class="a" x1="56.28" y1="58.35" x2="61.37" y2="58.35"/><rect class="a" x="61.37" y="57.87" width="0.52" height="1"/><line class="a" x1="37.97" y1="57.87" x2="61.37" y2="57.87"/><line class="a" x1="37.97" y1="58.87" x2="61.37" y2="58.87"/><polyline class="a" points="82.43 92.67 82.43 92.37 69.51 92.37 69.51 92.67"/><rect class="a" x="69.82" y="93.46" width="0.52" height="1.04"/><polyline class="a" points="76.64 142.05 84.26 142.05 75.82 135.7 75.82 147.58"/><polyline class="a" points="75.82 148.58 75.82 149.23 75.91 149.71 76.12 150.15 76.43 150.49 76.86 150.71 77.34 150.8 84.26 150.8"/><line class="a" x1="70.34" y1="93.98" x2="75.47" y2="93.98"/><polyline class="a" points="76.73 147.58 76.73 148.58 84.26 148.58"/><rect class="a" x="75.69" y="147.58" width="1.04" height="1"/><line class="a" x1="76.65" y1="133.31" x2="78.52" y2="133.31"/><line class="a" x1="79.47" y1="133.31" x2="81.43" y2="133.31"/><line class="a" x1="76.52" y1="93.98" x2="81.61" y2="93.98"/><rect class="a" x="81.61" y="93.46" width="0.52" height="1.04"/><line class="a" x1="70.34" y1="93.46" x2="81.61" y2="93.46"/><line class="a" x1="70.34" y1="94.5" x2="81.61" y2="94.5"/><polygon class="a" points="75.47 93.46 75.47 94.5 75.99 94.5 75.99 93.46 76.52 93.46 76.52 94.5 75.99 94.5 75.99 93.46 75.47 93.46"/><polygon class="a" points="55.28 57.87 55.28 58.87 55.76 58.87 55.76 57.87 56.28 57.87 56.28 58.87 55.76 58.87 55.76 57.87 55.28 57.87"/><polygon class="a" points="43.02 57.87 43.02 58.87 43.54 58.87 43.54 57.87 44.06 57.87 44.06 58.87 43.54 58.87 43.54 57.87 43.02 57.87"/><rect class="a" x="83.74" y="161.89" width="0.52" height="1.04"/><rect class="a" x="83.74" y="165.85" width="0.52" height="1.09"/><rect class="a" x="74.73" y="161.89" width="0.48" height="1.04"/><rect class="a" x="74.73" y="165.85" width="0.48" height="1.09"/><rect class="a" x="72.21" y="161.89" width="0.52" height="1.04"/><polyline class="a" points="72.21 165.85 72.21 166.94 72.21 161.89"/><rect class="a" x="72.21" y="165.85" width="0.52" height="1.09"/><polyline class="a" points="72.73 166.94 74.21 166.94 74.21 165.85 72.73 165.85"/><line class="a" x1="72.73" y1="162.94" x2="74.21" y2="162.94"/><line class="a" x1="72.73" y1="161.89" x2="74.21" y2="161.89"/><line class="a" x1="74.21" y1="162.41" x2="72.73" y2="162.41"/><line class="a" x1="74.21" y1="166.37" x2="72.73" y2="166.37"/><line class="a" x1="80.47" y1="150.8" x2="80.47" y2="139.18"/><polyline class="a" points="81.56 143.14 80.47 142.05 79.34 143.14"/><rect class="a" x="74.21" y="161.89" width="0.52" height="1.04"/><rect class="a" x="74.21" y="165.85" width="0.52" height="1.09"/><line class="a" x1="79.56" y1="131.13" x2="81.47" y2="131.13"/><line class="a" x1="76.73" y1="131.13" x2="78.56" y2="131.13"/><line class="a" x1="82.3" y1="128.61" x2="84.26" y2="127.78"/><line class="a" x1="79.6" y1="129.7" x2="81.39" y2="128.96"/><line class="a" x1="76.73" y1="130.92" x2="78.73" y2="130.09"/><line class="a" x1="79.56" y1="123.04" x2="80.13" y2="121.69"/><line class="a" x1="78.47" y1="125.69" x2="79.21" y2="123.91"/><line class="a" x1="77.34" y1="128.39" x2="78.08" y2="126.61"/><line class="a" x1="76.43" y1="130.61" x2="76.99" y2="129.26"/><line class="a" x1="76.12" y1="129.52" x2="76.12" y2="130.61"/><line class="a" x1="76.12" y1="126.65" x2="76.12" y2="128.57"/><line class="a" x1="76.12" y1="123.74" x2="76.12" y2="125.65"/><polyline class="a" points="78.3 121.69 76.12 121.69 76.12 122.78"/><line class="a" x1="82.91" y1="124.43" x2="84.26" y2="123.08"/><line class="a" x1="80.87" y1="126.48" x2="82.21" y2="125.13"/><rect class="a" x="67.73" y="124.52" width="0.52" height="1.04"/><rect class="a" x="75.3" y="124.52" width="0.52" height="1.04"/><polyline class="a" points="37.19 176.73 37.19 175.94 47.23 176.73"/><polyline class="a" points="49.41 176.73 61.38 176.73 70.69 166.94 61.38 176.73"/><polyline class="a" points="58.37 174.16 58.37 175.21 58.85 175.21"/><line class="a" x1="58.85" y1="174.16" x2="58.37" y2="174.16"/><line class="a" x1="58.37" y1="174.68" x2="49.89" y2="174.68"/><line class="a" x1="46.71" y1="174.68" x2="38.01" y2="174.68"/><line class="a" x1="58.37" y1="175.2" x2="49.89" y2="175.2"/><line class="a" x1="46.71" y1="175.2" x2="38.01" y2="175.2"/><line class="a" x1="58.37" y1="174.16" x2="49.89" y2="174.16"/><line class="a" x1="46.71" y1="174.16" x2="38.01" y2="174.16"/><line class="a" x1="67.38" y1="167.46" x2="61.98" y2="173.12"/><line class="a" x1="62.33" y1="173.46" x2="61.99" y2="173.85"/><polyline class="a" points="61.24 173.16 61.59 172.77 62.33 173.47"/><line class="a" x1="67.73" y1="167.81" x2="62.33" y2="173.46"/><line class="a" x1="66.99" y1="167.07" x2="61.59" y2="172.77"/><polyline class="a" points="49.41 175.21 49.89 175.21 49.89 174.16 49.41 174.16"/><polyline class="a" points="46.71 174.16 46.71 175.21 47.23 175.21"/><line class="a" x1="47.24" y1="174.16" x2="46.71" y2="174.16"/><line class="a" x1="66.73" y1="166.11" x2="60.59" y2="172.55"/><line class="a" x1="61.24" y1="173.16" x2="61.99" y2="173.85"/><line class="a" x1="58.85" y1="175.2" x2="58.85" y2="174.16"/><line class="a" x1="58.85" y1="173.29" x2="49.41" y2="173.29"/><line class="a" x1="49.41" y1="174.16" x2="49.41" y2="175.2"/><line class="a" x1="47.24" y1="175.2" x2="47.24" y2="174.16"/><line class="a" x1="47.24" y1="173.29" x2="37.49" y2="173.29"/><polyline class="a" points="84.26 140.92 75.82 134.57 75.82 135.7"/><line class="a" x1="79.26" y1="121.69" x2="81.17" y2="121.69"/><line class="a" x1="82.13" y1="121.69" x2="84.26" y2="121.69"/><rect class="a" x="66.73" y="130.65" width="1" height="0.52"/><rect class="a" x="66.73" y="139.01" width="1" height="0.52"/><rect class="a" x="65.86" y="92.15" width="1.04" height="0.52"/><rect class="a" x="65.86" y="83.1" width="1.04" height="0.52"/><line class="a" x1="82.39" y1="133.31" x2="84.26" y2="133.31"/><line class="a" x1="77.08" y1="135.48" x2="78.73" y2="135.48"/><line class="a" x1="79.69" y1="135.48" x2="81.65" y2="135.48"/><line class="a" x1="82.61" y1="135.48" x2="84.26" y2="135.48"/><line class="a" x1="76.65" y1="137.66" x2="78.47" y2="137.66"/><line class="a" x1="79.95" y1="137.66" x2="81.65" y2="137.66"/><line class="a" x1="82.61" y1="137.66" x2="84.26" y2="137.66"/><line class="a" x1="76.65" y1="139.88" x2="81.39" y2="139.88"/><line class="a" x1="82.87" y1="139.88" x2="84.26" y2="139.88"/><line class="a" x1="76.65" y1="144.23" x2="84.26" y2="144.23"/><line class="a" x1="76.65" y1="146.4" x2="84.26" y2="146.4"/><line class="a" x1="76.65" y1="133.87" x2="76.65" y2="135.18"/><line class="a" x1="76.65" y1="131.61" x2="76.65" y2="132.92"/><line class="a" x1="82.43" y1="131.13" x2="84.26" y2="131.13"/><line class="a" x1="76.65" y1="136.31" x2="76.65" y2="147.58"/><line class="b" x1="66.73" y1="130.65" x2="65.2" y2="130.65"/><line class="b" x1="64.2" y1="130.65" x2="62.29" y2="130.65"/><line class="b" x1="61.33" y1="130.65" x2="59.42" y2="130.65"/><line class="b" x1="58.46" y1="130.65" x2="56.5" y2="130.65"/><line class="b" x1="55.55" y1="130.65" x2="53.63" y2="130.65"/><line class="b" x1="52.67" y1="130.65" x2="50.72" y2="130.65"/><line class="b" x1="49.76" y1="130.65" x2="47.84" y2="130.65"/><line class="b" x1="46.89" y1="130.65" x2="44.93" y2="130.65"/><line class="b" x1="43.97" y1="130.65" x2="42.06" y2="130.65"/><line class="b" x1="41.1" y1="130.65" x2="39.19" y2="130.65"/><line class="b" x1="38.19" y1="130.65" x2="36.27" y2="130.65"/><line class="b" x1="35.31" y1="130.65" x2="33.79" y2="130.65"/><line class="b" x1="66.73" y1="127.74" x2="65.2" y2="127.74"/><line class="b" x1="64.2" y1="127.74" x2="62.29" y2="127.74"/><line class="b" x1="61.33" y1="127.74" x2="59.42" y2="127.74"/><line class="b" x1="58.46" y1="127.74" x2="56.5" y2="127.74"/><line class="b" x1="55.55" y1="127.74" x2="53.63" y2="127.74"/><line class="b" x1="52.67" y1="127.74" x2="50.72" y2="127.74"/><line class="b" x1="49.76" y1="127.74" x2="47.84" y2="127.74"/><line class="b" x1="46.89" y1="127.74" x2="44.93" y2="127.74"/><line class="b" x1="43.97" y1="127.74" x2="42.06" y2="127.74"/><line class="b" x1="41.1" y1="127.74" x2="39.19" y2="127.74"/><line class="b" x1="38.19" y1="127.74" x2="36.27" y2="127.74"/><line class="b" x1="35.31" y1="127.74" x2="33.79" y2="127.74"/><polyline class="b" points="66.73 131.18 65.59 131.22 64.51 131.48 63.46 131.87 62.46 132.4 61.55 133.09 60.77 133.87 60.11 134.74 59.59 135.74 59.2 136.79 58.94 137.88 58.85 139.01 66.73 139.01"/><polyline class="c" points="65.86 83.1 64.2 83.1 64.2 59.74 61.9 59.74 61.9 57.09 66.9 57.09 66.9 83.1"/><polygon class="c" points="64.2 92.67 64.2 97.89 66.73 97.89 66.73 130.65 67.73 130.65 67.73 95.37 69.81 95.37 69.81 92.67 64.2 92.67"/><polygon class="c" points="82.13 95.37 82.13 92.67 86.78 92.67 86.78 166.94 84.26 166.94 84.26 125.56 75.82 125.56 75.82 124.52 84.26 124.52 84.26 95.37 82.13 95.37"/><polygon class="c" points="49.41 175.21 49.41 176.73 47.23 176.73 47.23 175.21 47.23 174.16 47.23 173.29 49.41 173.29 49.41 174.16 49.41 175.21"/><polygon class="c" points="58.85 173.29 59.9 173.29 60.59 172.55 61.24 173.16 61.98 173.86 61.99 173.85 62.55 174.38 61.03 175.94 58.85 175.94 58.85 175.21 58.85 174.16 58.85 173.29"/><polygon class="c" points="37.49 173.29 33.79 173.29 33.79 155.28 37.53 155.28 37.53 142.23 33.79 142.23 33.79 59.74 37.45 59.74 37.45 57.09 31.36 57.09 31.36 175.94 37.49 175.94 37.49 175.21 37.49 173.29"/><polygon class="c" points="68.64 167.94 69.64 166.94 72.21 166.94 72.21 161.89 67.73 161.89 67.73 139.53 66.73 139.53 66.73 166.11 68.64 167.94"/></svg>