<svg xmlns="http://www.w3.org/2000/svg" viewBox="0 0 318.24 583.97"><defs><style>.a{fill:silver;}.b,.c{fill:none;stroke-linecap:round;stroke-linejoin:round;}.b{stroke:#1d1d1b;stroke-width:0.2px;}.c{stroke:#009fe3;stroke-width:0.25px;}.d{font-size:22.2px;fill:#3a7979;font-family:ArialMT, Arial;}.e{fill:#1d1d1b;}</style></defs><polygon class="a" points="171.59 184.57 191.17 184.57 191.17 232.14 191.17 232.26 171.59 232.26 171.59 184.57"/><polygon class="a" points="68.9 275.38 65.06 275.38 51.84 275.38 51.84 184.57 73.1 184.57 107.22 184.57 107.22 201.51 68.9 201.51 68.9 275.38"/><polygon class="a" points="152.29 218.03 148.92 218.03 148.92 207.16 152.29 207.16 153.07 207.28 153.85 207.64 154.57 208.18 155.17 208.84 155.65 209.62 156.01 210.58 156.25 211.54 156.31 212.56 156.25 213.58 156.01 214.6 155.65 215.5 155.17 216.34 154.57 217 153.85 217.49 153.07 217.84 152.29 218.03"/><polygon class="a" points="162.92 188.16 163.36 189.55 163.49 189.96 163.6 190.38 163.71 190.8 163.81 191.22 163.9 191.65 163.98 192.07 164.06 192.5 164.12 192.93 164.18 193.36 164.23 193.79 164.27 194.22 164.31 194.65 164.33 195.09 164.35 195.52 164.36 196.11 164.36 196.44 164.35 196.63 164.34 196.82 164.32 197.01 164.29 197.19 164.26 197.38 164.23 197.56 164.19 197.75 164.15 197.93 164.1 198.11 164.05 198.29 163.99 198.46 163.93 198.64 163.86 198.81 163.79 198.98 163.71 199.15 163.63 199.32 163.54 199.48 163.46 199.65 163.36 199.81 163.26 199.96 163.16 200.12 163.05 200.27 162.94 200.42 162.82 200.56 162.7 200.71 162.58 200.85 162.45 200.99 162.32 201.12 162.18 201.25 162.04 201.38 161.91 201.5 161.86 201.55 161.78 201.61 161.71 201.66 161.63 201.72 161.56 201.77 161.48 201.82 161.4 201.87 161.32 201.91 161.24 201.96 161.16 202 161.08 202.04 161 202.08 160.92 202.12 160.83 202.15 160.75 202.19 160.66 202.22 160.57 202.25 160.49 202.28 160.4 202.3 160.31 202.33 160.22 202.35 160.14 202.37 160.05 202.39 159.96 202.41 159.87 202.42 159.78 202.44 159.68 202.45 159.59 202.46 159.5 202.46 159.41 202.47 159.32 202.47 159.22 202.47 159.13 202.47 159.04 202.47 158.95 202.46 158.85 202.46 158.76 202.45 158.67 202.44 158.58 202.42 158.49 202.41 158.4 202.39 158.31 202.37 158.22 202.35 158.13 202.33 158.05 202.3 157.96 202.28 157.87 202.25 157.78 202.22 157.7 202.19 157.62 202.15 157.53 202.12 157.45 202.08 157.37 202.04 157.28 202 157.2 201.96 157.12 201.91 157.04 201.87 156.97 201.82 156.89 201.77 156.81 201.72 156.74 201.66 156.66 201.61 156.59 201.55 156.5 201.5 156.35 201.38 156.21 201.25 156.07 201.12 155.94 200.99 155.81 200.85 155.68 200.71 155.56 200.56 155.45 200.42 155.34 200.27 155.23 200.12 155.13 199.96 155.03 199.81 154.93 199.65 154.84 199.48 154.76 199.32 154.67 199.15 154.6 198.98 154.53 198.81 154.46 198.64 154.4 198.46 154.34 198.29 154.28 198.11 154.24 197.93 154.19 197.75 154.16 197.56 154.12 197.38 154.09 197.19 154.07 197.01 154.05 196.82 154.04 196.63 154.03 196.44 154.03 196.11 154.04 195.52 154.06 195.09 154.08 194.65 154.12 194.22 154.16 193.79 154.21 193.36 154.26 192.93 154.33 192.5 154.41 192.07 154.49 191.65 154.58 191.22 154.68 190.8 154.79 190.38 154.9 189.96 155.03 189.55 155.47 188.15 155.23 188.14 153.85 188 153.85 184.57 164.48 184.57 164.48 188 164.48 188.02 163.22 188.14 162.92 188.16"/><line class="b" x1="175.2" y1="386.72" x2="175.2" y2="437.89"/><line class="b" x1="173.88" y1="386.72" x2="173.88" y2="437.89"/><line class="b" x1="196.22" y1="432.85" x2="175.2" y2="432.85"/><line class="b" x1="196.22" y1="439.21" x2="175.92" y2="439.21"/><line class="b" x1="196.22" y1="426.48" x2="175.2" y2="426.48"/><line class="b" x1="196.22" y1="420.11" x2="175.2" y2="420.11"/><line class="b" x1="196.22" y1="413.75" x2="175.2" y2="413.75"/><line class="b" x1="196.22" y1="407.38" x2="175.2" y2="407.38"/><line class="b" x1="196.22" y1="400.9" x2="175.2" y2="400.9"/><line class="b" x1="181.32" y1="394.53" x2="175.2" y2="394.53"/><polyline class="b" points="175.2 388.88 181.68 393.45 180.72 396.33 184.57 391.65 183.73 394.41 196.22 400.9"/><rect class="b" x="173.16" y="437.89" width="2.76" height="2.76"/><rect class="b" x="193.82" y="450.98" width="1.08" height="22.1"/><polyline class="b" points="68.9 275.38 68.9 201.51 107.22 201.51"/><polyline class="b" points="107.22 174.6 71.66 174.6 71.66 176.05"/><line class="b" x1="107.21" y1="201.51" x2="107.21" y2="184.57"/><line class="b" x1="171.59" y1="475.13" x2="171.59" y2="472.24"/><polygon class="b" points="152.29 218.03 153.07 217.84 153.85 217.49 154.57 217 155.17 216.34 155.65 215.5 156.01 214.6 156.25 213.58 156.31 212.56 156.25 211.54 156.01 210.58 155.65 209.62 155.17 208.84 154.57 208.18 153.85 207.64 153.07 207.28 152.29 207.16 148.92 207.16 148.92 218.03 152.29 218.03"/><line class="b" x1="83.55" y1="508.4" x2="112.86" y2="508.4"/><polygon class="b" points="164.48 188.02 164.48 188 164.48 184.57 153.85 184.57 153.85 188 155.23 188.14 156.56 188.23 157.89 188.28 159.22 188.3 160.56 188.28 161.89 188.23 163.22 188.14 164.48 188.02"/><polyline class="b" points="155.47 188.15 155.03 189.55 154.9 189.96 154.79 190.38 154.68 190.8 154.58 191.22 154.49 191.65 154.41 192.07 154.33 192.5 154.26 192.93 154.21 193.36 154.16 193.79 154.12 194.22 154.08 194.65 154.06 195.09 154.04 195.52 154.03 196.11 154.03 196.44 154.04 196.63 154.05 196.82 154.07 197.01 154.09 197.19 154.12 197.38 154.16 197.56 154.19 197.75 154.24 197.93 154.28 198.11 154.34 198.29 154.4 198.46 154.46 198.64 154.53 198.81 154.6 198.98 154.67 199.15 154.76 199.32 154.84 199.48 154.93 199.65 155.03 199.81 155.13 199.96 155.23 200.12 155.34 200.27 155.45 200.42 155.56 200.56 155.68 200.71 155.81 200.85 155.94 200.99 156.07 201.12 156.21 201.25 156.35 201.38 156.5 201.5 156.59 201.55 156.66 201.61 156.74 201.66 156.81 201.72 156.89 201.77 156.97 201.82 157.04 201.87 157.12 201.91 157.2 201.96 157.28 202 157.37 202.04 157.45 202.08 157.53 202.12 157.62 202.15 157.7 202.19 157.78 202.22 157.87 202.25 157.96 202.28 158.05 202.3 158.13 202.33 158.22 202.35 158.31 202.37 158.4 202.39 158.49 202.41 158.58 202.42 158.67 202.44 158.76 202.45 158.85 202.46 158.95 202.46 159.04 202.47 159.13 202.47 159.22 202.47 159.32 202.47 159.41 202.47 159.5 202.46 159.59 202.46 159.68 202.45 159.78 202.44 159.87 202.42 159.96 202.41 160.05 202.39 160.14 202.37 160.22 202.35 160.31 202.33 160.4 202.3 160.49 202.28 160.57 202.25 160.66 202.22 160.75 202.19 160.83 202.15 160.92 202.12 161 202.08 161.08 202.04 161.16 202 161.24 201.96 161.32 201.91 161.4 201.87 161.48 201.82 161.56 201.77 161.63 201.72 161.71 201.66 161.78 201.61 161.86 201.55 161.91 201.5 162.04 201.38 162.18 201.25 162.32 201.12 162.45 200.99 162.58 200.85 162.7 200.71 162.82 200.56 162.94 200.42 163.05 200.27 163.16 200.12 163.26 199.96 163.36 199.81 163.46 199.65 163.54 199.48 163.63 199.32 163.71 199.15 163.79 198.98 163.86 198.81 163.93 198.64 163.99 198.46 164.05 198.29 164.1 198.11 164.15 197.93 164.19 197.75 164.23 197.56 164.26 197.38 164.29 197.19 164.32 197.01 164.34 196.82 164.35 196.63 164.36 196.44 164.36 196.11 164.35 195.52 164.33 195.09 164.31 194.65 164.27 194.22 164.23 193.79 164.18 193.36 164.12 192.93 164.06 192.5 163.98 192.07 163.9 191.65 163.81 191.22 163.71 190.8 163.6 190.38 163.49 189.96 163.36 189.55 162.92 188.16"/><line class="b" x1="83.55" y1="510.92" x2="112.86" y2="510.92"/><line class="b" x1="85.59" y1="512" x2="110.82" y2="512"/><line class="b" x1="83.55" y1="515.6" x2="112.86" y2="515.6"/><line class="b" x1="83.55" y1="513.08" x2="112.86" y2="513.08"/><line class="b" x1="60.97" y1="485.21" x2="83.55" y2="508.4"/><line class="b" x1="59.29" y1="487.02" x2="81.75" y2="510.2"/><line class="b" x1="59.89" y1="489.18" x2="79.47" y2="509.36"/><line class="b" x1="55.93" y1="490.14" x2="78.39" y2="513.44"/><line class="b" x1="57.73" y1="488.46" x2="80.19" y2="511.64"/><line class="b" x1="135.44" y1="485.21" x2="112.86" y2="508.4"/><line class="b" x1="137.24" y1="487.02" x2="114.66" y2="510.2"/><line class="b" x1="136.52" y1="489.18" x2="116.94" y2="509.36"/><line class="b" x1="140.49" y1="490.14" x2="118.02" y2="513.44"/><line class="b" x1="138.68" y1="488.46" x2="116.22" y2="511.64"/><line class="b" x1="152.02" y1="473.92" x2="170.51" y2="473.92"/><polyline class="b" points="170.51 473.8 152.02 473.8 152.38 473.8"/><line class="b" x1="152.02" y1="473.56" x2="170.51" y2="473.56"/><line class="b" x1="152.02" y1="473.44" x2="170.51" y2="473.44"/><polyline class="b" points="171.59 472.72 150.94 472.72 152.38 472.72"/><line class="b" x1="150.94" y1="474.64" x2="171.59" y2="474.64"/><line class="b" x1="171.59" y1="475.13" x2="150.94" y2="475.13"/><line class="b" x1="171.59" y1="472.24" x2="150.94" y2="472.24"/><line class="b" x1="43.32" y1="176.89" x2="43.32" y2="188.3"/><line class="b" x1="43.32" y1="199.59" x2="43.32" y2="211"/><line class="b" x1="43.32" y1="222.29" x2="43.32" y2="233.7"/><line class="b" x1="43.32" y1="244.99" x2="43.32" y2="256.4"/><line class="b" x1="107.21" y1="184.57" x2="107.21" y2="174.6"/><line class="b" x1="107.21" y1="184.57" x2="73.1" y2="184.57"/><line class="b" x1="74.18" y1="180.49" x2="106.01" y2="180.49"/><line class="b" x1="74.18" y1="180.37" x2="106.01" y2="180.37"/><line class="b" x1="106.01" y1="180.13" x2="74.18" y2="180.13"/><line class="b" x1="74.18" y1="180.13" x2="106.01" y2="180.13"/><line class="b" x1="107.21" y1="179.41" x2="73.94" y2="179.41"/><line class="b" x1="73.1" y1="181.21" x2="105.65" y2="181.21"/><line class="b" x1="191.17" y1="184.57" x2="169.91" y2="184.57"/><rect class="b" x="108.18" y="158.63" width="0.84" height="17.54"/><rect class="b" x="143.97" y="158.63" width="0.84" height="17.54"/><line class="b" x1="145.77" y1="176.05" x2="107.21" y2="176.05"/><line class="b" x1="65.06" y1="176.05" x2="43.32" y2="176.05"/><line class="b" x1="43.32" y1="176.05" x2="73.1" y2="176.05"/><line class="b" x1="169.91" y1="184.57" x2="169.91" y2="177.37"/><line class="b" x1="169.91" y1="184.57" x2="148.65" y2="184.57"/><line class="b" x1="149.73" y1="181.21" x2="168.83" y2="181.21"/><polyline class="b" points="168.83 181.09 149.74 181.09 150.09 181.09"/><line class="b" x1="149.73" y1="180.85" x2="168.83" y2="180.85"/><line class="b" x1="149.73" y1="180.73" x2="168.83" y2="180.73"/><polyline class="b" points="169.91 180.01 148.65 180.01 150.09 180.01"/><line class="b" x1="148.65" y1="181.93" x2="169.91" y2="181.93"/><polyline class="b" points="147.21 176.05 147.21 174.6 171.35 174.6 171.35 176.05"/><line class="b" x1="171.59" y1="232.26" x2="171.59" y2="184.57"/><line class="b" x1="191.17" y1="232.14" x2="191.17" y2="184.57"/><rect class="b" x="171.59" y="184.57" width="19.58" height="47.68"/><line class="b" x1="65.06" y1="275.38" x2="68.9" y2="275.38"/><path class="b" d="M148.9,267.88a22.4,22.4,0,0,0,21.55-22.39"/><polyline class="b" points="148.11 266.81 149.19 267.89 148.11 267.89 148.11 245.43 149.19 245.43 149.19 267.89"/><line class="c" x1="117.9" y1="235.98" x2="120.07" y2="235.98"/><line class="c" x1="112.74" y1="235.98" x2="114.78" y2="235.98"/><line class="c" x1="107.58" y1="235.98" x2="109.74" y2="235.98"/><line class="c" x1="102.53" y1="235.98" x2="104.57" y2="235.98"/><polyline class="c" points="97.25 237.06 97.25 235.98 99.41 235.98"/><line class="c" x1="97.25" y1="242.11" x2="97.25" y2="240.07"/><line class="c" x1="97.25" y1="247.27" x2="97.25" y2="245.23"/><line class="c" x1="97.25" y1="252.32" x2="97.25" y2="250.28"/><line class="c" x1="97.25" y1="257.48" x2="97.25" y2="255.44"/><polyline class="c" points="99.41 261.57 97.25 261.57 97.25 260.49"/><line class="c" x1="104.57" y1="261.57" x2="102.53" y2="261.57"/><line class="c" x1="109.74" y1="261.57" x2="107.58" y2="261.57"/><line class="c" x1="114.78" y1="261.57" x2="112.74" y2="261.57"/><polyline class="c" points="120.07 260.49 120.07 261.57 117.91 261.57"/><line class="c" x1="120.07" y1="255.44" x2="120.07" y2="257.48"/><line class="c" x1="120.07" y1="250.28" x2="120.07" y2="252.32"/><line class="c" x1="120.07" y1="245.23" x2="120.07" y2="247.27"/><line class="c" x1="120.07" y1="240.07" x2="120.07" y2="242.11"/><line class="c" x1="120.07" y1="235.98" x2="120.07" y2="237.06"/><line class="c" x1="120.43" y1="234.54" x2="121.39" y2="234.54"/><line class="c" x1="115.26" y1="234.54" x2="117.3" y2="234.54"/><line class="c" x1="110.22" y1="234.54" x2="112.26" y2="234.54"/><line class="c" x1="105.05" y1="234.54" x2="107.09" y2="234.54"/><line class="c" x1="100.01" y1="234.54" x2="102.05" y2="234.54"/><polyline class="c" points="95.92 237.06 95.92 234.54 96.89 234.54"/><line class="c" x1="95.92" y1="242.11" x2="95.92" y2="240.07"/><line class="c" x1="95.92" y1="247.27" x2="95.92" y2="245.23"/><line class="c" x1="95.92" y1="252.32" x2="95.92" y2="250.28"/><line class="c" x1="95.92" y1="257.48" x2="95.92" y2="255.44"/><polyline class="c" points="96.89 262.89 95.92 262.89 95.92 260.49"/><line class="c" x1="102.05" y1="262.89" x2="100.01" y2="262.89"/><line class="c" x1="107.09" y1="262.89" x2="105.05" y2="262.89"/><line class="c" x1="112.26" y1="262.89" x2="110.22" y2="262.89"/><line class="c" x1="117.3" y1="262.89" x2="115.26" y2="262.89"/><polyline class="c" points="121.39 260.49 121.39 262.89 120.43 262.89"/><line class="c" x1="121.39" y1="255.44" x2="121.39" y2="257.48"/><line class="c" x1="121.39" y1="250.28" x2="121.39" y2="252.32"/><line class="c" x1="121.39" y1="245.23" x2="121.39" y2="247.27"/><line class="c" x1="121.39" y1="240.07" x2="121.39" y2="242.11"/><line class="c" x1="121.39" y1="234.54" x2="121.39" y2="237.06"/><text class="d" transform="translate(47.71 600.81)">56 Montpelier 000</text><polygon class="e" points="73.1 176.05 73.1 184.57 51.84 184.57 51.84 275.38 65.06 275.38 65.06 282.47 46.92 282.47 46.92 409.78 56.41 409.78 56.41 453.75 46.92 453.75 46.92 483.05 58.93 483.05 60.97 485.21 55.93 490.14 39.71 490.14 39.71 275.38 43.31 275.38 43.31 256.4 43.31 244.99 43.31 233.7 43.31 222.29 43.31 211 43.31 199.59 43.31 188.3 43.31 176.89 43.31 176.05 65.06 176.05 73.1 176.05"/><rect class="e" x="145.77" y="176.05" width="2.88" height="72.19"/><polygon class="e" points="150.94 483.05 155.98 483.05 155.98 490.14 140.49 490.14 135.44 485.21 137.48 483.05 148.05 483.05 148.05 386.72 147.33 386.72 147.33 383.96 148.05 383.96 151.78 383.96 151.78 384.92 151.78 385.52 151.78 386.12 151.78 386.72 150.94 386.72 150.94 472.24 150.94 475.13 150.94 483.05"/><polygon class="e" points="112.86 515.6 112.86 508.4 118.03 513.44 115.86 515.6 112.86 515.6"/><polygon class="e" points="78.39 513.44 83.55 508.4 83.55 515.6 80.55 515.6 78.39 513.44"/><polygon class="e" points="191.17 245.47 170.15 245.47 170.15 248.23 191.17 248.23 191.17 275.38 177.96 275.38 177.96 282.47 196.22 282.47 196.22 483.05 191.17 483.05 191.17 490.14 203.31 490.14 203.31 275.38 199.7 275.38 199.7 265.65 199.7 254.36 199.7 242.95 199.7 231.66 199.7 220.25 199.7 208.96 199.7 197.55 199.7 186.26 199.7 176.05 169.91 176.05 169.91 184.57 191.17 184.57 191.17 245.47"/></svg>