<svg xmlns="http://www.w3.org/2000/svg" viewBox="0 0 318.24 583.97"><defs><style>.a{fill:silver;}.b,.c{fill:none;stroke-linecap:round;stroke-linejoin:round;}.b{stroke:#1d1d1b;stroke-width:0.2px;}.c{stroke:#009fe3;stroke-width:0.25px;}.d{fill:#1d1d1b;}</style></defs><polygon class="a" points="198.06 279.61 176.08 279.61 176.08 134.94 146.72 134.94 146.72 117.94 153.38 117.94 153.38 117.88 181.73 117.88 193.08 117.88 193.08 249.83 193.08 256.91 198.06 256.91 198.06 279.61"/><rect class="a" x="60.6" y="143.29" width="9.13" height="12.97"/><path class="a" d="M77.11,121v8.06A5.14,5.14,0,0,1,72,134.18a5.3,5.3,0,0,1-5.21-5h0V117.88H77.11Z"/><line class="b" x1="60.6" y1="143.29" x2="60.6" y2="156.26"/><rect class="b" x="61.08" y="144.01" width="8.17" height="11.53"/><line class="b" x1="60.6" y1="143.29" x2="69.72" y2="143.29"/><polyline class="b" points="69.72 143.29 69.72 156.26 60.6 156.26"/><line class="b" x1="63.24" y1="150.01" x2="63.24" y2="156.26"/><line class="b" x1="63.24" y1="143.29" x2="63.24" y2="149.53"/><path class="b" d="M66.78,129.07A5.31,5.31,0,0,0,72,134.18a5.14,5.14,0,0,0,5.11-5.11V117.88"/><line class="b" x1="62.94" y1="117.88" x2="79.99" y2="117.88"/><rect class="b" x="66.78" y="117.88" width="10.33" height="3.12"/><line class="b" x1="77.11" y1="121.49" x2="66.78" y2="121.49"/><line class="b" x1="66.78" y1="129.17" x2="66.78" y2="118.36"/><line class="b" x1="145.48" y1="135.33" x2="145" y2="135.81"/><polygon class="b" points="134.34 112.3 134.34 114.94 132.78 114.94 132.78 113.38 133.32 113.38 133.32 112.3 134.34 112.3"/><polygon class="b" points="92.85 112.3 92.85 113.38 93.39 113.38 93.39 114.94 91.83 114.94 91.83 112.3 92.85 112.3"/><polyline class="b" points="132.24 92.12 132.24 112.3 133.32 112.3 133.32 92.12"/><polyline class="b" points="192.84 508.49 192.48 508.49 192.12 508.43 191.76 508.43 191.4 508.37 191.04 508.31 190.68 508.25 190.32 508.19 189.96 508.13 189.54 508.07 189.18 508.01 188.88 507.95 188.51 507.83 188.16 507.71 187.79 507.65 187.43 507.53 187.07 507.41 186.71 507.29 186.35 507.17 186.05 506.99 185.69 506.87 185.33 506.75 185.03 506.57 184.67 506.39 184.37 506.27 184.01 506.09 183.71 505.9 183.41 505.73 183.05 505.55 182.75 505.31 182.45 505.13 182.15 504.94 181.85 504.7 181.55 504.46 181.25 504.28 180.95 504.04 180.71 503.8 180.41 503.56 180.11 503.32 179.87 503.08 179.57 502.84 179.33 502.54 179.09 502.3 178.79 502 178.55 501.76 178.31 501.46 178.06 501.22 177.82 500.92 177.59 500.62 177.41 500.32 177.16 500.02 176.98 499.72 176.74 499.42 176.56 499.12 176.38 498.82 176.14 498.46 175.96 498.16 175.78 497.86 175.66 497.5 175.48 497.2 175.3 496.84 175.18 496.54 175 496.18 174.88 495.82 174.76 495.52 174.58 495.15 174.46 494.8 174.34 494.44 174.28 494.07 174.16 493.71 174.04 493.35 173.98 493.05 173.86 492.69 173.8 492.33 173.74 491.97 173.68 491.55 173.62 491.19 173.56 490.83 173.5 490.47 173.5 490.11 173.44 489.75 173.44 489.39 173.44 489.03 173.38 488.67 173.38 488.25 173.38 488.67 173.38 489.03 173.38 489.39 173.38 489.75 173.32 490.11 173.26 490.47 173.26 490.83 173.2 491.19 173.14 491.55 173.08 491.97 173.02 492.33 172.9 492.69 172.84 493.05 172.72 493.35 172.66 493.71 172.54 494.07 172.42 494.44 172.3 494.8 172.18 495.15 172.06 495.52 171.94 495.82 171.82 496.18 171.64 496.54 171.52 496.84 171.34 497.2 171.16 497.5 170.98 497.86 170.8 498.16 170.62 498.46 170.44 498.82 170.26 499.12 170.08 499.42 169.84 499.72 169.66 500.02 169.42 500.32 169.18 500.62 169 500.92 168.76 501.22 168.52 501.46 168.28 501.76 167.98 502 167.74 502.3 167.5 502.54 167.25 502.84 166.96 503.08 166.72 503.32 166.41 503.56 166.11 503.8 165.87 504.04 165.57 504.28 165.27 504.46 164.97 504.7 164.67 504.94 164.37 505.13 164.07 505.31 163.71 505.55 163.41 505.73 163.11 505.9 162.75 506.09 162.45 506.27 162.09 506.39 161.79 506.57 161.43 506.75 161.13 506.87 160.77 506.99 160.41 507.17 160.11 507.29 159.75 507.41 159.39 507.53 159.03 507.65 158.67 507.71 158.31 507.83 157.95 507.95 157.59 508.01 157.23 508.07 156.87 508.13 156.5 508.19 156.15 508.25 155.78 508.31 155.42 508.37 155.06 508.43 154.7 508.43 154.34 508.49 153.98 508.49"/><polyline class="b" points="92.85 92.12 92.85 112.3 93.93 112.3 93.93 92.12"/><polyline class="b" points="83.12 265.98 83.42 265.98 83.72 265.98 84.02 265.98 84.32 266.04 84.62 266.1 84.92 266.1 85.22 266.16 85.46 266.22 85.76 266.28 86.06 266.34 86.36 266.4 86.66 266.46 86.9 266.52 87.2 266.64 87.5 266.7 87.74 266.82 88.04 266.88 88.34 267 88.58 267.12 88.88 267.24 89.12 267.36 89.42 267.48 89.66 267.6 89.9 267.72 90.2 267.9 90.44 268.02 90.68 268.14 90.98 268.32 91.22 268.44 91.47 268.62 91.7 268.8 91.94 268.98 92.19 269.17 92.43 269.35 92.67 269.52 92.91 269.7 93.09 269.88 93.33 270.06 93.57 270.25 93.75 270.49 93.99 270.67 94.17 270.91 94.41 271.09 94.59 271.33 94.77 271.57 94.95 271.75 95.13 271.99 95.31 272.23 95.49 272.47 95.67 272.71 95.85 272.95 96.03 273.19 96.15 273.43 96.33 273.67 96.51 273.97 96.63 274.21 96.75 274.45 96.93 274.75 97.05 274.99 97.17 275.23 97.29 275.53 97.41 275.77 97.53 276.07 97.65 276.31 97.71 276.61 97.83 276.91 97.95 277.15 98.01 277.45 98.07 277.75 98.19 278.05 98.25 278.29 98.31 278.59 98.37 278.89 98.43 279.19 98.49 279.49 98.55 279.73 98.55 280.04 98.61 280.33 98.61 280.63 98.67 280.94 98.67 281.24 98.67 281.54 98.67 281.84 98.67 282.14 98.67 281.84 98.73 281.54 98.73 281.24 98.73 280.94 98.79 280.63 98.79 280.33 98.85 280.04 98.85 279.73 98.91 279.49 98.97 279.19 99.03 278.89 99.09 278.59 99.15 278.29 99.21 278.05 99.27 277.75 99.39 277.45 99.45 277.15 99.57 276.91 99.63 276.61 99.75 276.31 99.87 276.07 99.99 275.77 100.11 275.53 100.23 275.23 100.35 274.99 100.47 274.75 100.59 274.45 100.77 274.21 100.89 273.97 101.07 273.67 101.19 273.43 101.37 273.19 101.55 272.95 101.73 272.71 101.91 272.47 102.09 272.23 102.28 271.99 102.45 271.75 102.64 271.57 102.81 271.33 103 271.09 103.24 270.91 103.42 270.67 103.66 270.49 103.84 270.25 104.08 270.06 104.32 269.88 104.5 269.7 104.74 269.52 104.98 269.35 105.22 269.17 105.46 268.98 105.7 268.8 105.94 268.62 106.18 268.44 106.42 268.32 106.66 268.14 106.96 268.02 107.2 267.9 107.44 267.72 107.74 267.6 107.98 267.48 108.28 267.36 108.52 267.24 108.82 267.12 109.06 267 109.36 266.88 109.66 266.82 109.9 266.7 110.2 266.64 110.5 266.52 110.74 266.46 111.04 266.4 111.34 266.34 111.64 266.28 111.94 266.22 112.18 266.16 112.48 266.1 112.78 266.1 113.08 266.04 113.39 265.98 113.69 265.98 113.99 265.98 114.29 265.98"/><polyline class="b" points="114.05 265.98 114.05 282.14 114.89 282.14 114.89 265.98"/><polyline class="b" points="82.52 265.98 82.52 282.14 83.36 282.14 83.36 265.98"/><polyline class="b" points="93.63 92.12 93.99 92.12 94.35 92.12 94.71 92.18 95.13 92.24 95.49 92.24 95.85 92.3 96.21 92.36 96.57 92.42 96.93 92.48 97.29 92.6 97.65 92.66 98.01 92.78 98.37 92.84 98.73 92.96 99.09 93.08 99.39 93.2 99.75 93.32 100.11 93.44 100.47 93.56 100.77 93.68 101.13 93.86 101.49 93.98 101.79 94.16 102.16 94.34 102.45 94.52 102.75 94.7 103.12 94.88 103.42 95.06 103.72 95.24 104.02 95.48 104.32 95.66 104.62 95.9 104.92 96.08 105.22 96.32 105.52 96.56 105.82 96.8 106.12 97.04 106.36 97.28 106.66 97.52 106.9 97.77 107.2 98 107.44 98.31 107.68 98.55 107.92 98.85 108.16 99.09 108.4 99.39 108.64 99.69 108.88 99.99 109.12 100.23 109.3 100.53 109.54 100.83 109.72 101.19 109.96 101.49 110.14 101.79 110.32 102.09 110.5 102.45 110.68 102.75 110.86 103.05 111.04 103.41 111.16 103.71 111.34 104.07 111.46 104.43 111.64 104.73 111.76 105.09 111.88 105.45 112 105.81 112.12 106.11 112.24 106.47 112.3 106.83 112.42 107.19 112.54 107.55 112.6 107.91 112.66 108.27 112.72 108.64 112.78 109 112.84 109.36 112.91 109.72 112.97 110.08 113.03 110.5 113.03 110.86 113.03 111.22 113.08 111.58 113.08 111.94 113.08 112.3 113.08 111.94 113.08 111.58 113.08 111.22 113.14 110.86 113.14 110.5 113.2 110.08 113.27 109.72 113.33 109.36 113.39 109 113.44 108.64 113.5 108.27 113.56 107.91 113.63 107.55 113.75 107.19 113.87 106.83 113.93 106.47 114.05 106.11 114.17 105.81 114.29 105.45 114.41 105.09 114.53 104.73 114.71 104.43 114.83 104.07 115.01 103.71 115.13 103.41 115.31 103.05 115.49 102.75 115.67 102.45 115.85 102.09 116.03 101.79 116.21 101.49 116.45 101.19 116.63 100.83 116.87 100.53 117.05 100.23 117.29 99.99 117.53 99.69 117.77 99.39 118.01 99.09 118.25 98.85 118.49 98.55 118.73 98.31 118.97 98 119.27 97.77 119.51 97.52 119.81 97.28 120.05 97.04 120.35 96.8 120.65 96.56 120.95 96.32 121.25 96.08 121.55 95.9 121.85 95.66 122.15 95.48 122.45 95.24 122.75 95.06 123.05 94.88 123.42 94.7 123.72 94.52 124.02 94.34 124.38 94.16 124.68 93.98 125.04 93.86 125.4 93.68 125.7 93.56 126.06 93.44 126.42 93.32 126.78 93.2 127.08 93.08 127.44 92.96 127.8 92.84 128.16 92.78 128.52 92.66 128.88 92.6 129.24 92.48 129.6 92.42 129.96 92.36 130.32 92.3 130.68 92.24 131.04 92.24 131.46 92.18 131.82 92.12 132.18 92.12 132.54 92.12"/><polyline class="b" points="154.28 508.49 154.28 488.25 153.2 488.25 153.2 508.49"/><polygon class="b" points="193.62 488.25 193.62 487.23 193.08 487.23 193.08 485.61 194.7 485.61 194.7 488.25 193.62 488.25"/><polygon class="b" points="152.12 488.25 152.12 485.61 153.74 485.61 153.74 487.23 153.2 487.23 153.2 488.25 152.12 488.25"/><polyline class="b" points="193.62 508.49 193.62 488.25 192.54 488.25 192.54 508.49"/><polyline class="b" points="167.31 373.96 169.12 374.68 171.04 375.22 173.02 375.58 175 375.7"/><rect class="b" x="85.94" y="158.48" width="17.9" height="0.96"/><polygon class="b" points="83.48 140.59 83.48 142.09 84.98 142.09 84.98 141.61 85.94 141.61 85.94 140.59 83.48 140.59"/><polygon class="b" points="84.98 159.44 84.98 158.96 83.48 158.96 83.48 160.46 85.94 160.46 85.94 159.44 84.98 159.44"/><path class="b" d="M168.88,279.43a23,23,0,0,0-21.68-22.94"/><rect class="b" x="145.94" y="256.49" width="1.26" height="23"/><polygon class="b" points="170.2 282.62 168.28 282.62 168.28 280.75 168.88 280.75 168.88 279.43 170.2 279.43 170.2 282.62"/><polygon class="b" points="145.94 280.75 146.54 280.75 146.54 282.62 144.61 282.62 144.61 279.43 145.94 279.43 145.94 280.75"/><path class="b" d="M121.37,362.61a20.51,20.51,0,0,0,20.42,19.28"/><rect class="b" x="121.37" y="361.47" width="20.42" height="1.14"/><polygon class="b" points="144.61 383.03 144.61 381.35 142.93 381.35 142.93 381.89 141.79 381.89 141.79 383.03 144.61 383.03"/><polygon class="b" points="142.93 361.47 142.93 362.01 144.61 362.01 144.61 360.33 141.79 360.33 141.79 361.47 142.93 361.47"/><polygon class="b" points="167.31 373.96 166.41 373.48 175 357.81 175.9 358.29 167.31 373.96"/><polygon class="b" points="177.47 376.67 177.47 375.16 176.02 375.16 176.02 375.7 175 375.7 175 376.67 177.47 376.67"/><polygon class="b" points="176.02 357.81 176.02 358.29 177.47 358.29 177.47 356.79 175 356.79 175 357.81 176.02 357.81"/><path class="b" d="M103.78,158.48a17.73,17.73,0,0,0-17.84-16.87"/><line class="b" x1="176.08" y1="279.61" x2="176.08" y2="134.94"/><polygon class="b" points="77.23 508.61 82.76 504.22 83.66 505.31 85.1 505.31 85.1 512.39 80.23 512.39 77.23 508.61"/><polygon class="b" points="127.08 508.61 121.49 504.22 120.59 505.31 119.21 505.31 119.21 512.39 124.02 512.39 127.08 508.61"/><line class="b" x1="52.07" y1="279.61" x2="60.6" y2="279.61"/><rect class="b" x="174.82" y="376.66" width="2.82" height="2.82"/><polyline class="b" points="176.08 134.94 146.72 134.94 146.72 117.88"/><polyline class="b" points="133.02 256.91 130.8 256.91 130.8 259.25"/><line class="b" x1="91.83" y1="117.88" x2="91.83" y2="109.36"/><path class="b" d="M152.94,120.12a20.45,20.45,0,0,0,0,12.64"/><path class="b" d="M177.6,132.76a20.37,20.37,0,0,0,0-12.64"/><path class="b" d="M178,132.89a20.76,20.76,0,0,0,0-12.9"/><line class="b" x1="176.92" y1="133.2" x2="153.62" y2="133.2"/><line class="b" x1="176.92" y1="119.63" x2="153.62" y2="119.63"/><line class="b" x1="176.92" y1="119.14" x2="153.62" y2="119.14"/><line class="b" x1="176.92" y1="133.62" x2="153.62" y2="133.62"/><polyline class="b" points="60.6 145.33 60.6 149.77 60.6 154.16"/><path class="b" d="M152.54,120a20.83,20.83,0,0,0,0,12.9"/><polyline class="b" points="83.3 176.68 83.3 185.99 60.6 185.99 60.6 163.29 69.91 163.29"/><path class="b" d="M83.3,176.71a13.42,13.42,0,0,0-13.43-13.42"/><line class="b" x1="119.21" y1="512.39" x2="85.1" y2="512.39"/><line class="b" x1="198.06" y1="391.44" x2="193.62" y2="391.44"/><polyline class="b" points="151.94 109.42 151.94 108.03 183.17 108.03 183.17 109.42"/><line class="b" x1="134.16" y1="488.13" x2="121.49" y2="504.22"/><line class="b" x1="64.86" y1="112.6" x2="79.03" y2="112.6"/><line class="b" x1="139.75" y1="492.51" x2="127.08" y2="508.61"/><line class="b" x1="198.06" y1="441.35" x2="182.51" y2="441.35"/><line class="b" x1="176.26" y1="379.49" x2="176.26" y2="434.5"/><line class="b" x1="70.08" y1="488.13" x2="82.76" y2="504.22"/><line class="b" x1="198.06" y1="403.93" x2="176.26" y2="403.93"/><line class="b" x1="198.06" y1="410.18" x2="176.26" y2="410.18"/><line class="b" x1="198.06" y1="416.42" x2="176.26" y2="416.42"/><line class="b" x1="198.06" y1="422.67" x2="176.26" y2="422.67"/><line class="b" x1="198.06" y1="428.85" x2="176.26" y2="428.85"/><line class="b" x1="198.06" y1="435.1" x2="176.92" y2="435.1"/><line class="b" x1="153.38" y1="117.88" x2="181.73" y2="117.88"/><line class="b" x1="174.82" y1="379.49" x2="174.82" y2="434.5"/><line class="b" x1="80.83" y1="505.73" x2="68.16" y2="489.69"/><line class="b" x1="64.56" y1="492.51" x2="77.23" y2="508.61"/><line class="b" x1="79.15" y1="507.05" x2="66.48" y2="491.01"/><line class="b" x1="85.1" y1="507.83" x2="119.21" y2="507.83"/><line class="b" x1="153.38" y1="112.66" x2="181.73" y2="112.66"/><line class="b" x1="153.38" y1="114.76" x2="181.73" y2="114.76"/><line class="b" x1="119.21" y1="505.3" x2="85.1" y2="505.3"/><line class="b" x1="64.86" y1="117.88" x2="79.03" y2="117.88"/><line class="b" x1="198.06" y1="397.68" x2="179.93" y2="397.68"/><polyline class="b" points="63.42 109.36 63.42 107.97 80.47 107.97 80.47 109.36"/><line class="b" x1="125.1" y1="507.05" x2="137.77" y2="491.01"/><line class="b" x1="123.41" y1="505.73" x2="136.09" y2="489.69"/><polyline class="b" points="176.26 399.25 185.39 395.28 185.33 392.1 188.4 397.5 188.4 393.78 198.06 389.4"/><rect class="b" x="174.1" y="434.5" width="2.82" height="2.82"/><path class="b" d="M176.9,437.38a7,7,0,0,0,5.57,4"/><line class="b" x1="64.86" y1="114.7" x2="79.03" y2="114.7"/><line class="b" x1="85.1" y1="509.93" x2="119.21" y2="509.93"/><rect class="b" x="177.77" y="165.69" width="13.27" height="25.52"/><line class="c" x1="82.4" y1="234.21" x2="82.4" y2="191.69"/><line class="c" x1="107.98" y1="230.19" x2="97.59" y2="230.19"/><line class="c" x1="96.45" y1="230.19" x2="87.2" y2="230.19"/><line class="c" x1="87.2" y1="195.72" x2="96.45" y2="195.72"/><line class="c" x1="97.59" y1="195.72" x2="107.98" y2="195.72"/><polyline class="c" points="107.98 211.57 107.98 191.69 109.06 191.69 109.06 211.57"/><polyline class="c" points="109.06 214.33 109.06 234.21 107.98 234.21 107.98 214.33"/><polyline class="c" points="96.45 204.97 96.45 191.69 97.59 191.69 97.59 206.11"/><polyline class="c" points="95.67 220.16 82.4 220.16 82.4 219.02 96.81 219.02"/><polyline class="c" points="96.81 206.89 82.4 206.89 82.4 205.75 95.67 205.75"/><polyline class="c" points="97.59 219.8 97.59 234.21 96.45 234.21 96.45 220.94"/><line class="c" x1="82.58" y1="233.25" x2="82.58" y2="220.16"/><line class="c" x1="86.42" y1="229.41" x2="86.42" y2="220.16"/><line class="c" x1="82.7" y1="233.07" x2="82.7" y2="220.16"/><line class="c" x1="83.54" y1="191.99" x2="96.45" y2="191.99"/><line class="c" x1="83.36" y1="191.87" x2="96.45" y2="191.87"/><line class="c" x1="86.24" y1="205.75" x2="86.24" y2="196.38"/><line class="c" x1="82.58" y1="205.75" x2="82.58" y2="192.65"/><line class="c" x1="82.7" y1="205.75" x2="82.7" y2="192.83"/><line class="c" x1="82.58" y1="219.02" x2="82.58" y2="206.89"/><line class="c" x1="86.42" y1="219.02" x2="86.42" y2="206.89"/><line class="c" x1="82.7" y1="219.02" x2="82.7" y2="206.89"/><line class="c" x1="96.45" y1="234.03" x2="83.36" y2="234.03"/><line class="c" x1="96.45" y1="233.91" x2="83.54" y2="233.91"/><line class="c" x1="107.98" y1="234.03" x2="97.59" y2="234.03"/><line class="c" x1="107.98" y1="233.91" x2="97.59" y2="233.91"/><line class="c" x1="97.59" y1="191.99" x2="107.98" y2="191.99"/><line class="c" x1="97.59" y1="191.87" x2="107.98" y2="191.87"/><line class="c" x1="103" y1="211.51" x2="83.18" y2="191.69"/><line class="c" x1="102.21" y1="212.29" x2="82.4" y2="192.47"/><polyline class="c" points="103 214.39 91.89 225.5 83.18 234.21"/><polyline class="c" points="102.22 213.61 91.04 224.72 82.4 233.43"/><path class="c" d="M105,213a1.23,1.23,0,1,0-1.23,1.23A1.23,1.23,0,0,0,105,213Z"/><line class="c" x1="125.52" y1="191.69" x2="125.52" y2="211.57"/><line class="c" x1="124.38" y1="191.69" x2="124.38" y2="211.57"/><line class="c" x1="124.38" y1="234.21" x2="124.38" y2="214.33"/><line class="c" x1="125.52" y1="234.21" x2="125.52" y2="214.33"/><line class="c" x1="167.5" y1="234.21" x2="167.5" y2="191.69"/><line class="c" x1="125.52" y1="230.19" x2="140.77" y2="230.19"/><line class="c" x1="109.06" y1="230.19" x2="124.38" y2="230.19"/><line class="c" x1="141.91" y1="230.19" x2="152.24" y2="230.19"/><line class="c" x1="153.38" y1="230.19" x2="162.63" y2="230.19"/><line class="c" x1="162.63" y1="195.72" x2="153.38" y2="195.72"/><line class="c" x1="152.24" y1="195.72" x2="141.91" y2="195.72"/><line class="c" x1="124.38" y1="195.72" x2="109.06" y2="195.72"/><line class="c" x1="140.77" y1="195.72" x2="125.52" y2="195.72"/><polyline class="c" points="147.26 214.03 167.5 234.21 82.4 234.21 102.58 214.03"/><polyline class="c" points="141.91 211.57 141.91 191.69 140.77 191.69 140.77 211.57"/><polyline class="c" points="140.77 214.33 140.77 234.21 141.91 234.21 141.91 214.33"/><polyline class="c" points="153.38 204.97 153.38 191.69 152.24 191.69 152.24 206.11"/><polyline class="c" points="154.16 220.16 167.5 220.16 167.5 219.02 153.08 219.02"/><polyline class="c" points="153.08 206.89 167.5 206.89 167.5 205.75 154.16 205.75"/><polyline class="c" points="152.24 219.8 152.24 234.21 153.38 234.21 153.38 220.94"/><line class="c" x1="167.32" y1="233.25" x2="167.32" y2="220.16"/><line class="c" x1="163.47" y1="229.41" x2="163.47" y2="220.16"/><line class="c" x1="167.14" y1="233.07" x2="167.14" y2="220.16"/><line class="c" x1="166.35" y1="191.99" x2="153.38" y2="191.99"/><line class="c" x1="166.47" y1="191.87" x2="153.38" y2="191.87"/><line class="c" x1="163.59" y1="205.75" x2="163.59" y2="196.38"/><line class="c" x1="167.32" y1="205.75" x2="167.32" y2="192.65"/><line class="c" x1="167.14" y1="205.75" x2="167.14" y2="192.83"/><line class="c" x1="167.32" y1="219.02" x2="167.32" y2="206.89"/><line class="c" x1="163.47" y1="219.02" x2="163.47" y2="206.89"/><line class="c" x1="167.14" y1="219.02" x2="167.14" y2="206.89"/><line class="c" x1="153.38" y1="234.03" x2="166.47" y2="234.03"/><line class="c" x1="153.38" y1="233.91" x2="166.35" y2="233.91"/><line class="c" x1="141.91" y1="234.03" x2="152.24" y2="234.03"/><line class="c" x1="141.91" y1="233.91" x2="152.24" y2="233.91"/><line class="c" x1="125.52" y1="234.03" x2="140.77" y2="234.03"/><line class="c" x1="109.06" y1="234.03" x2="124.38" y2="234.03"/><line class="c" x1="125.52" y1="233.91" x2="140.77" y2="233.91"/><line class="c" x1="109.06" y1="233.91" x2="124.38" y2="233.91"/><line class="c" x1="124.38" y1="191.99" x2="109.06" y2="191.99"/><line class="c" x1="140.77" y1="191.99" x2="125.52" y2="191.99"/><line class="c" x1="124.38" y1="191.87" x2="109.06" y2="191.87"/><line class="c" x1="140.77" y1="191.87" x2="125.52" y2="191.87"/><line class="c" x1="152.24" y1="191.99" x2="141.91" y2="191.99"/><line class="c" x1="152.24" y1="191.87" x2="141.91" y2="191.87"/><line class="c" x1="146.84" y1="211.51" x2="166.71" y2="191.69"/><line class="c" x1="147.68" y1="212.29" x2="167.5" y2="192.47"/><polyline class="c" points="146.84 214.39 158.01 225.5 166.72 234.21"/><polyline class="c" points="147.68 213.61 158.79 224.72 167.5 233.43"/><polyline class="c" points="102.58 211.87 82.4 191.69 167.5 191.69 147.26 211.87"/><polyline class="c" points="145.4 214.33 104.26 214.33 104.2 214.39 103 214.39 102.58 213.97"/><line class="c" x1="145.4" y1="211.57" x2="104.44" y2="211.57"/><path class="c" d="M147.2,213a1.24,1.24,0,1,0-1.23,1.23A1.23,1.23,0,0,0,147.2,213Z"/><rect class="d" x="134.34" y="109.42" width="19.04" height="8.53"/><polygon class="d" points="137.59 483.75 149.3 483.75 149.3 400.75 141.19 388.68 134.71 388.68 134.71 383.03 144.61 383.03 144.61 388.68 152.12 399.91 152.12 490.83 141.01 490.83 139.75 492.51 134.16 488.13 137.59 483.75"/><polygon class="d" points="115.73 279.61 115.73 286.7 141.79 286.7 141.79 299.13 144.61 299.13 144.61 279.61 115.73 279.61"/><polygon class="d" points="83.3 117.88 83.3 140.59 86.12 140.59 86.12 117.88 91.83 117.88 91.83 109.36 79.03 109.36 79.03 117.88 83.3 117.88"/><polygon class="d" points="48.52 490.83 63.24 490.83 64.56 492.51 70.08 488.13 66.66 483.75 55.61 483.75 55.61 286.7 81.68 286.7 81.68 279.61 60.6 279.61 60.6 188.81 86.12 188.81 86.12 160.46 83.3 160.46 83.3 185.99 60.6 185.99 60.6 117.88 64.86 117.88 64.86 109.36 52.07 109.36 52.07 279.61 48.52 279.61 48.52 490.83"/><polygon class="d" points="198.06 279.61 170.2 279.61 170.2 282.5 198.06 282.5 198.06 353.96 144.61 353.96 144.61 333.96 141.79 333.96 141.79 360.33 144.61 360.33 144.61 356.79 198.06 356.79 198.06 483.75 194.7 483.75 194.7 490.83 205.15 490.83 205.15 279.61 205.15 249.83 201.61 249.83 201.61 109.36 181.73 109.36 181.73 117.88 193.08 117.88 193.08 249.83 193.08 256.91 198.06 256.91 198.06 279.61"/></svg>