<svg xmlns="http://www.w3.org/2000/svg" viewBox="0 0 318.24 583.97"><defs><style>.a{fill:silver;}.b,.c{fill:none;stroke-linecap:round;stroke-linejoin:round;}.b{stroke:#1d1d1b;stroke-width:0.21px;}.c{stroke:#009fe3;stroke-width:0.26px;}.d{fill:#1d1d1b;}</style></defs><polygon class="a" points="196.86 279.61 173.73 279.61 173.73 134.94 142.84 134.94 142.84 117.94 149.85 117.94 149.85 117.88 179.67 117.88 191.62 117.88 191.62 249.83 191.62 256.91 196.86 256.91 196.86 279.61"/><rect class="a" x="52.23" y="143.29" width="9.6" height="12.97"/><path class="a" d="M69.6,121v8.06a5.28,5.28,0,0,1-5.38,5.11,5.46,5.46,0,0,1-5.48-5h0c0-3.6,0-7.2,0-10.81v-.48H69.6Z"/><line class="b" x1="52.23" y1="143.29" x2="52.23" y2="156.26"/><rect class="b" x="52.73" y="144.01" width="8.59" height="11.53"/><line class="b" x1="52.23" y1="143.29" x2="61.83" y2="143.29"/><polyline class="b" points="61.83 143.29 61.83 156.26 52.23 156.26"/><line class="b" x1="55.01" y1="150.01" x2="55.01" y2="156.26"/><line class="b" x1="55.01" y1="143.29" x2="55.01" y2="149.53"/><path class="b" d="M58.73,129.07a5.47,5.47,0,0,0,5.49,5.11,5.28,5.28,0,0,0,5.38-5.11V117.88"/><line class="b" x1="54.69" y1="117.88" x2="72.63" y2="117.88"/><rect class="b" x="58.73" y="117.88" width="10.87" height="3.12"/><line class="b" x1="69.6" y1="121.49" x2="58.73" y2="121.49"/><line class="b" x1="58.73" y1="129.17" x2="58.73" y2="118.36"/><line class="b" x1="141.53" y1="135.33" x2="141.03" y2="135.81"/><polygon class="b" points="129.82 112.3 129.82 114.94 128.18 114.94 128.18 113.38 128.74 113.38 128.74 112.3 129.82 112.3"/><polygon class="b" points="86.16 112.3 86.16 113.38 86.72 113.38 86.72 114.94 85.08 114.94 85.08 112.3 86.16 112.3"/><polyline class="b" points="127.61 92.12 127.61 112.3 128.74 112.3 128.74 92.12"/><polyline class="b" points="191.36 508.49 190.98 508.49 190.6 508.43 190.22 508.43 189.85 508.37 189.47 508.31 189.09 508.25 188.71 508.19 188.33 508.13 187.89 508.07 187.51 508.01 187.19 507.95 186.81 507.83 186.43 507.71 186.06 507.65 185.68 507.53 185.3 507.41 184.92 507.29 184.54 507.17 184.22 506.99 183.84 506.87 183.46 506.75 183.15 506.57 182.77 506.39 182.45 506.27 182.07 506.09 181.76 505.9 181.44 505.73 181.06 505.55 180.75 505.31 180.43 505.13 180.12 504.94 179.8 504.7 179.48 504.46 179.17 504.28 178.85 504.04 178.6 503.8 178.28 503.56 177.97 503.32 177.71 503.08 177.4 502.84 177.15 502.54 176.89 502.3 176.58 502 176.32 501.76 176.07 501.46 175.82 501.22 175.57 500.92 175.31 500.62 175.12 500.32 174.87 500.02 174.68 499.72 174.43 499.42 174.24 499.12 174.05 498.82 173.8 498.46 173.61 498.16 173.42 497.86 173.29 497.5 173.1 497.2 172.91 496.84 172.79 496.54 172.6 496.18 172.47 495.82 172.34 495.52 172.15 495.15 172.03 494.8 171.9 494.44 171.84 494.07 171.71 493.71 171.59 493.35 171.52 493.05 171.4 492.69 171.33 492.33 171.27 491.97 171.21 491.55 171.14 491.19 171.08 490.83 171.02 490.47 171.02 490.11 170.95 489.75 170.95 489.39 170.95 489.03 170.89 488.67 170.89 488.25 170.89 488.67 170.89 489.03 170.89 489.39 170.89 489.75 170.83 490.11 170.76 490.47 170.76 490.83 170.7 491.19 170.64 491.55 170.57 491.97 170.51 492.33 170.38 492.69 170.32 493.05 170.19 493.35 170.13 493.71 170 494.07 169.88 494.44 169.75 494.8 169.63 495.15 169.5 495.52 169.37 495.82 169.25 496.18 169.06 496.54 168.93 496.84 168.74 497.2 168.55 497.5 168.36 497.86 168.17 498.16 167.98 498.46 167.79 498.82 167.6 499.12 167.41 499.42 167.16 499.72 166.97 500.02 166.72 500.32 166.47 500.62 166.28 500.92 166.03 501.22 165.77 501.46 165.52 501.76 165.2 502 164.95 502.3 164.7 502.54 164.44 502.84 164.13 503.08 163.88 503.32 163.56 503.56 163.24 503.8 162.99 504.04 162.68 504.28 162.36 504.46 162.04 504.7 161.73 504.94 161.41 505.13 161.1 505.31 160.72 505.55 160.4 505.73 160.09 505.9 159.71 506.09 159.39 506.27 159.01 506.39 158.69 506.57 158.32 506.75 158 506.87 157.62 506.99 157.24 507.17 156.93 507.29 156.55 507.41 156.17 507.53 155.79 507.65 155.41 507.71 155.03 507.83 154.65 507.95 154.27 508.01 153.89 508.07 153.51 508.13 153.13 508.19 152.75 508.25 152.38 508.31 152 508.37 151.62 508.43 151.24 508.43 150.86 508.49 150.48 508.49"/><polyline class="b" points="86.16 92.12 86.16 112.3 87.29 112.3 87.29 92.12"/><polyline class="b" points="75.92 265.98 76.24 265.98 76.55 265.98 76.87 265.98 77.18 266.04 77.5 266.1 77.82 266.1 78.13 266.16 78.38 266.22 78.7 266.28 79.02 266.34 79.33 266.4 79.65 266.46 79.9 266.52 80.22 266.64 80.53 266.7 80.79 266.82 81.1 266.88 81.42 267 81.67 267.12 81.99 267.24 82.24 267.36 82.56 267.48 82.81 267.6 83.06 267.72 83.38 267.9 83.63 268.02 83.88 268.14 84.2 268.32 84.45 268.44 84.7 268.62 84.96 268.8 85.21 268.98 85.46 269.17 85.71 269.35 85.97 269.52 86.22 269.7 86.41 269.88 86.66 270.06 86.92 270.25 87.1 270.49 87.36 270.67 87.55 270.91 87.8 271.09 87.99 271.33 88.18 271.57 88.37 271.75 88.56 271.99 88.75 272.23 88.94 272.47 89.13 272.71 89.32 272.95 89.5 273.19 89.63 273.43 89.82 273.67 90.01 273.97 90.14 274.21 90.26 274.45 90.45 274.75 90.58 274.99 90.71 275.23 90.83 275.53 90.96 275.77 91.08 276.07 91.21 276.31 91.28 276.61 91.4 276.91 91.53 277.15 91.59 277.45 91.65 277.75 91.78 278.05 91.84 278.29 91.91 278.59 91.97 278.89 92.03 279.19 92.1 279.49 92.16 279.73 92.16 280.04 92.22 280.33 92.22 280.63 92.29 280.94 92.29 281.24 92.29 281.54 92.29 281.84 92.29 282.14 92.29 281.84 92.35 281.54 92.35 281.24 92.35 280.94 92.41 280.63 92.41 280.33 92.47 280.04 92.47 279.73 92.54 279.49 92.6 279.19 92.67 278.89 92.73 278.59 92.79 278.29 92.85 278.05 92.92 277.75 93.04 277.45 93.11 277.15 93.23 276.91 93.3 276.61 93.42 276.31 93.55 276.07 93.68 275.77 93.8 275.53 93.93 275.23 94.06 274.99 94.18 274.75 94.31 274.45 94.5 274.21 94.62 273.97 94.81 273.67 94.94 273.43 95.13 273.19 95.32 272.95 95.51 272.71 95.7 272.47 95.89 272.23 96.08 271.99 96.27 271.75 96.46 271.57 96.64 271.33 96.83 271.09 97.09 270.91 97.28 270.67 97.53 270.49 97.72 270.25 97.97 270.06 98.22 269.88 98.42 269.7 98.67 269.52 98.92 269.35 99.17 269.17 99.43 268.98 99.68 268.8 99.93 268.62 100.18 268.44 100.44 268.32 100.69 268.14 101 268.02 101.26 267.9 101.51 267.72 101.83 267.6 102.08 267.48 102.39 267.36 102.65 267.24 102.96 267.12 103.22 267 103.53 266.88 103.85 266.82 104.1 266.7 104.42 266.64 104.73 266.52 104.99 266.46 105.3 266.4 105.62 266.34 105.93 266.28 106.25 266.22 106.5 266.16 106.82 266.1 107.13 266.1 107.45 266.04 107.77 265.98 108.08 265.98 108.4 265.98 108.71 265.98"/><polyline class="b" points="108.46 265.98 108.46 282.14 109.35 282.14 109.35 265.98"/><polyline class="b" points="75.29 265.98 75.29 282.14 76.17 282.14 76.17 265.98"/><polyline class="b" points="86.98 92.12 87.36 92.12 87.74 92.12 88.11 92.18 88.56 92.24 88.94 92.24 89.32 92.3 89.69 92.36 90.07 92.42 90.45 92.48 90.83 92.6 91.21 92.66 91.59 92.78 91.97 92.84 92.35 92.96 92.73 93.08 93.04 93.2 93.42 93.32 93.8 93.44 94.18 93.56 94.5 93.68 94.88 93.86 95.25 93.98 95.57 94.16 95.95 94.34 96.27 94.52 96.58 94.7 96.96 94.88 97.28 95.06 97.59 95.24 97.91 95.48 98.22 95.66 98.54 95.9 98.86 96.08 99.17 96.32 99.49 96.56 99.81 96.8 100.12 97.04 100.37 97.28 100.69 97.52 100.94 97.77 101.26 98 101.51 98.31 101.76 98.55 102.02 98.85 102.27 99.09 102.52 99.39 102.78 99.69 103.03 99.99 103.28 100.23 103.47 100.53 103.72 100.83 103.91 101.19 104.17 101.49 104.35 101.79 104.54 102.09 104.73 102.45 104.92 102.75 105.11 103.05 105.3 103.41 105.43 103.71 105.62 104.07 105.74 104.43 105.93 104.73 106.06 105.09 106.19 105.45 106.31 105.81 106.44 106.11 106.57 106.47 106.63 106.83 106.75 107.19 106.88 107.55 106.94 107.91 107.01 108.27 107.07 108.64 107.13 109 107.2 109.36 107.26 109.72 107.32 110.08 107.39 110.5 107.39 110.86 107.39 111.22 107.45 111.58 107.45 111.94 107.45 112.3 107.45 111.94 107.45 111.58 107.45 111.22 107.51 110.86 107.51 110.5 107.58 110.08 107.64 109.72 107.7 109.36 107.77 109 107.83 108.64 107.89 108.27 107.96 107.91 108.02 107.55 108.14 107.19 108.27 106.83 108.33 106.47 108.46 106.11 108.59 105.81 108.71 105.45 108.84 105.09 108.97 104.73 109.16 104.43 109.28 104.07 109.47 103.71 109.6 103.41 109.79 103.05 109.98 102.75 110.17 102.45 110.36 102.09 110.55 101.79 110.74 101.49 110.99 101.19 111.18 100.83 111.43 100.53 111.62 100.23 111.87 99.99 112.13 99.69 112.38 99.39 112.63 99.09 112.88 98.85 113.14 98.55 113.39 98.31 113.64 98 113.96 97.77 114.21 97.52 114.53 97.28 114.78 97.04 115.1 96.8 115.41 96.56 115.73 96.32 116.04 96.08 116.36 95.9 116.68 95.66 116.99 95.48 117.31 95.24 117.62 95.06 117.94 94.88 118.32 94.7 118.63 94.52 118.95 94.34 119.33 94.16 119.64 93.98 120.03 93.86 120.4 93.68 120.72 93.56 121.1 93.44 121.48 93.32 121.86 93.2 122.17 93.08 122.55 92.96 122.93 92.84 123.31 92.78 123.69 92.66 124.07 92.6 124.45 92.48 124.83 92.42 125.21 92.36 125.58 92.3 125.96 92.24 126.34 92.24 126.79 92.18 127.17 92.12 127.54 92.12 127.92 92.12"/><polyline class="b" points="150.8 508.49 150.8 488.25 149.66 488.25 149.66 508.49"/><polygon class="b" points="192.18 488.25 192.18 487.23 191.62 487.23 191.62 485.61 193.32 485.61 193.32 488.25 192.18 488.25"/><polygon class="b" points="148.52 488.25 148.52 485.61 150.23 485.61 150.23 487.23 149.66 487.23 149.66 488.25 148.52 488.25"/><polyline class="b" points="192.18 508.49 192.18 488.25 191.05 488.25 191.05 508.49"/><polyline class="b" points="164.51 373.96 166.4 374.68 168.43 375.22 170.51 375.58 172.6 375.7"/><rect class="b" x="78.89" y="158.48" width="18.83" height="0.96"/><polygon class="b" points="76.3 140.59 76.3 142.09 77.88 142.09 77.88 141.61 78.89 141.61 78.89 140.59 76.3 140.59"/><polygon class="b" points="77.88 159.44 77.88 158.96 76.3 158.96 76.3 160.46 78.89 160.46 78.89 159.44 77.88 159.44"/><path class="b" d="M166.15,279.43c0-12.19-10-22.26-22.81-22.94"/><rect class="b" x="142.01" y="256.49" width="1.33" height="23"/><polygon class="b" points="167.54 282.62 165.52 282.62 165.52 280.75 166.15 280.75 166.15 279.43 167.54 279.43 167.54 282.62"/><polygon class="b" points="142.01 280.75 142.65 280.75 142.65 282.62 140.62 282.62 140.62 279.43 142.01 279.43 142.01 280.75"/><path class="b" d="M116.17,362.61c.69,10.81,10.09,19.25,21.48,19.28"/><rect class="b" x="116.17" y="361.47" width="21.48" height="1.14"/><polygon class="b" points="140.62 383.03 140.62 381.35 138.85 381.35 138.85 381.89 137.65 381.89 137.65 383.03 140.62 383.03"/><polygon class="b" points="138.85 361.47 138.85 362.01 140.62 362.01 140.62 360.33 137.65 360.33 137.65 361.47 138.85 361.47"/><polygon class="b" points="164.51 373.96 163.56 373.48 172.6 357.81 173.54 358.29 164.51 373.96"/><polygon class="b" points="175.19 376.67 175.19 375.16 173.67 375.16 173.67 375.7 172.6 375.7 172.6 376.67 175.19 376.67"/><polygon class="b" points="173.67 357.81 173.67 358.29 175.19 358.29 175.19 356.79 172.6 356.79 172.6 357.81 173.67 357.81"/><path class="b" d="M97.66,158.48c-.49-9.5-8.77-16.94-18.77-16.87"/><line class="b" x1="173.73" y1="279.61" x2="173.73" y2="134.94"/><polygon class="b" points="69.73 508.61 75.54 504.22 76.49 505.31 78 505.31 78 512.39 72.89 512.39 69.73 508.61"/><polygon class="b" points="122.17 508.61 116.3 504.22 115.35 505.31 113.89 505.31 113.89 512.39 118.95 512.39 122.17 508.61"/><line class="b" x1="43.25" y1="279.61" x2="52.23" y2="279.61"/><rect class="b" x="172.41" y="376.66" width="2.97" height="2.82"/><polyline class="b" points="173.73 134.94 142.84 134.94 142.84 117.88"/><polyline class="b" points="128.43 256.91 126.09 256.91 126.09 259.25"/><line class="b" x1="85.08" y1="117.88" x2="85.08" y2="109.36"/><path class="b" d="M149.39,120.12a19.41,19.41,0,0,0,0,12.64"/><path class="b" d="M175.33,132.76a19.41,19.41,0,0,0,0-12.64"/><path class="b" d="M175.75,132.89a19.8,19.8,0,0,0,0-12.9"/><line class="b" x1="174.62" y1="133.2" x2="150.1" y2="133.2"/><line class="b" x1="174.62" y1="119.63" x2="150.1" y2="119.63"/><line class="b" x1="174.62" y1="119.14" x2="150.1" y2="119.14"/><line class="b" x1="174.62" y1="133.62" x2="150.1" y2="133.62"/><polyline class="b" points="52.23 145.33 52.23 149.77 52.23 154.16"/><path class="b" d="M149,120a19.8,19.8,0,0,0,0,12.9"/><polyline class="b" points="76.11 176.68 76.11 185.99 52.23 185.99 52.23 163.29 62.02 163.29"/><path class="b" d="M76.11,176.71c0-7.41-6.32-13.42-14.12-13.42"/><line class="b" x1="113.9" y1="512.39" x2="78.01" y2="512.39"/><line class="b" x1="196.86" y1="391.44" x2="192.18" y2="391.44"/><polyline class="b" points="148.33 109.42 148.33 108.03 181.19 108.03 181.19 109.42"/><line class="b" x1="129.63" y1="488.13" x2="116.3" y2="504.22"/><line class="b" x1="56.71" y1="112.6" x2="71.62" y2="112.6"/><line class="b" x1="135.51" y1="492.51" x2="122.17" y2="508.61"/><line class="b" x1="196.86" y1="441.35" x2="180.49" y2="441.35"/><line class="b" x1="173.92" y1="379.49" x2="173.92" y2="434.5"/><line class="b" x1="62.21" y1="488.13" x2="75.54" y2="504.22"/><line class="b" x1="196.86" y1="403.93" x2="173.92" y2="403.93"/><line class="b" x1="196.86" y1="410.18" x2="173.92" y2="410.18"/><line class="b" x1="196.86" y1="416.42" x2="173.92" y2="416.42"/><line class="b" x1="196.86" y1="422.67" x2="173.92" y2="422.67"/><line class="b" x1="196.86" y1="428.85" x2="173.92" y2="428.85"/><line class="b" x1="196.86" y1="435.1" x2="174.62" y2="435.1"/><line class="b" x1="149.85" y1="117.88" x2="179.67" y2="117.88"/><line class="b" x1="172.41" y1="379.49" x2="172.41" y2="434.5"/><line class="b" x1="73.52" y1="505.73" x2="60.19" y2="489.69"/><line class="b" x1="56.4" y1="492.51" x2="69.73" y2="508.61"/><line class="b" x1="71.75" y1="507.05" x2="58.42" y2="491.01"/><line class="b" x1="78.01" y1="507.83" x2="113.9" y2="507.83"/><line class="b" x1="149.85" y1="112.66" x2="179.67" y2="112.66"/><line class="b" x1="149.85" y1="114.76" x2="179.67" y2="114.76"/><line class="b" x1="113.9" y1="505.3" x2="78.01" y2="505.3"/><line class="b" x1="56.71" y1="117.88" x2="71.62" y2="117.88"/><line class="b" x1="196.86" y1="397.68" x2="177.78" y2="397.68"/><polyline class="b" points="55.2 109.36 55.2 107.97 73.14 107.97 73.14 109.36"/><line class="b" x1="120.09" y1="507.05" x2="133.42" y2="491.01"/><line class="b" x1="118.32" y1="505.73" x2="131.65" y2="489.69"/><polyline class="b" points="173.92 399.25 183.53 395.28 183.46 392.1 186.69 397.5 186.69 393.78 196.86 389.4"/><rect class="b" x="171.65" y="434.5" width="2.97" height="2.82"/><path class="b" d="M174.59,437.38a7.36,7.36,0,0,0,5.87,4"/><line class="b" x1="56.71" y1="114.7" x2="71.62" y2="114.7"/><line class="b" x1="78.01" y1="509.93" x2="113.9" y2="509.93"/><rect class="b" x="175.5" y="165.69" width="13.96" height="25.52"/><line class="c" x1="75.16" y1="234.21" x2="75.16" y2="191.69"/><line class="c" x1="102.08" y1="230.19" x2="91.15" y2="230.19"/><line class="c" x1="89.95" y1="230.19" x2="80.22" y2="230.19"/><line class="c" x1="80.22" y1="195.72" x2="89.95" y2="195.72"/><line class="c" x1="91.15" y1="195.72" x2="102.08" y2="195.72"/><polyline class="c" points="102.08 211.57 102.08 191.69 103.22 191.69 103.22 211.57"/><polyline class="c" points="103.22 214.33 103.22 234.21 102.08 234.21 102.08 214.33"/><polyline class="c" points="89.95 204.97 89.95 191.69 91.15 191.69 91.15 206.11"/><polyline class="c" points="89.13 220.16 75.16 220.16 75.16 219.02 90.33 219.02"/><polyline class="c" points="90.33 206.89 75.16 206.89 75.16 205.75 89.13 205.75"/><polyline class="c" points="91.15 219.8 91.15 234.21 89.95 234.21 89.95 220.94"/><line class="c" x1="75.35" y1="233.25" x2="75.35" y2="220.16"/><line class="c" x1="79.4" y1="229.41" x2="79.4" y2="220.16"/><line class="c" x1="75.48" y1="233.07" x2="75.48" y2="220.16"/><line class="c" x1="76.36" y1="191.99" x2="89.95" y2="191.99"/><line class="c" x1="76.17" y1="191.87" x2="89.95" y2="191.87"/><line class="c" x1="79.21" y1="205.75" x2="79.21" y2="196.38"/><line class="c" x1="75.35" y1="205.75" x2="75.35" y2="192.65"/><line class="c" x1="75.48" y1="205.75" x2="75.48" y2="192.83"/><line class="c" x1="75.35" y1="219.02" x2="75.35" y2="206.89"/><line class="c" x1="79.4" y1="219.02" x2="79.4" y2="206.89"/><line class="c" x1="75.48" y1="219.02" x2="75.48" y2="206.89"/><line class="c" x1="89.95" y1="234.03" x2="76.17" y2="234.03"/><line class="c" x1="89.95" y1="233.91" x2="76.36" y2="233.91"/><line class="c" x1="102.08" y1="234.03" x2="91.15" y2="234.03"/><line class="c" x1="102.08" y1="233.91" x2="91.15" y2="233.91"/><line class="c" x1="91.15" y1="191.99" x2="102.08" y2="191.99"/><line class="c" x1="91.15" y1="191.87" x2="102.08" y2="191.87"/><line class="c" x1="96.84" y1="211.51" x2="75.98" y2="191.69"/><line class="c" x1="96.01" y1="212.29" x2="75.16" y2="192.47"/><polyline class="c" points="96.83 214.39 85.14 225.5 75.98 234.21"/><polyline class="c" points="96.01 213.61 84.26 224.72 75.16 233.43"/><path class="c" d="M99,213a1.3,1.3,0,1,0-1.29,1.23A1.26,1.26,0,0,0,99,213Z"/><line class="c" x1="120.53" y1="191.69" x2="120.53" y2="211.57"/><line class="c" x1="119.33" y1="191.69" x2="119.33" y2="211.57"/><line class="c" x1="119.33" y1="234.21" x2="119.33" y2="214.33"/><line class="c" x1="120.53" y1="234.21" x2="120.53" y2="214.33"/><line class="c" x1="164.7" y1="234.21" x2="164.7" y2="191.69"/><line class="c" x1="120.53" y1="230.19" x2="136.58" y2="230.19"/><line class="c" x1="103.22" y1="230.19" x2="119.33" y2="230.19"/><line class="c" x1="137.78" y1="230.19" x2="148.65" y2="230.19"/><line class="c" x1="149.85" y1="230.19" x2="159.58" y2="230.19"/><line class="c" x1="159.58" y1="195.72" x2="149.85" y2="195.72"/><line class="c" x1="148.65" y1="195.72" x2="137.78" y2="195.72"/><line class="c" x1="119.33" y1="195.72" x2="103.22" y2="195.72"/><line class="c" x1="136.58" y1="195.72" x2="120.53" y2="195.72"/><polyline class="c" points="143.4 214.03 164.7 234.21 75.16 234.21 96.39 214.03"/><polyline class="c" points="137.78 211.57 137.78 191.69 136.58 191.69 136.58 211.57"/><polyline class="c" points="136.58 214.33 136.58 234.21 137.78 234.21 137.78 214.33"/><polyline class="c" points="149.85 204.97 149.85 191.69 148.65 191.69 148.65 206.11"/><polyline class="c" points="150.67 220.16 164.7 220.16 164.7 219.02 149.53 219.02"/><polyline class="c" points="149.53 206.89 164.7 206.89 164.7 205.75 150.67 205.75"/><polyline class="c" points="148.65 219.8 148.65 234.21 149.85 234.21 149.85 220.94"/><line class="c" x1="164.51" y1="233.25" x2="164.51" y2="220.16"/><line class="c" x1="160.46" y1="229.41" x2="160.46" y2="220.16"/><line class="c" x1="164.32" y1="233.07" x2="164.32" y2="220.16"/><line class="c" x1="163.5" y1="191.99" x2="149.85" y2="191.99"/><line class="c" x1="163.62" y1="191.87" x2="149.85" y2="191.87"/><line class="c" x1="160.59" y1="205.75" x2="160.59" y2="196.38"/><line class="c" x1="164.51" y1="205.75" x2="164.51" y2="192.65"/><line class="c" x1="164.32" y1="205.75" x2="164.32" y2="192.83"/><line class="c" x1="164.51" y1="219.02" x2="164.51" y2="206.89"/><line class="c" x1="160.46" y1="219.02" x2="160.46" y2="206.89"/><line class="c" x1="164.32" y1="219.02" x2="164.32" y2="206.89"/><line class="c" x1="149.85" y1="234.03" x2="163.62" y2="234.03"/><line class="c" x1="149.85" y1="233.91" x2="163.5" y2="233.91"/><line class="c" x1="137.78" y1="234.03" x2="148.65" y2="234.03"/><line class="c" x1="137.78" y1="233.91" x2="148.65" y2="233.91"/><line class="c" x1="120.53" y1="234.03" x2="136.58" y2="234.03"/><line class="c" x1="103.22" y1="234.03" x2="119.33" y2="234.03"/><line class="c" x1="120.53" y1="233.91" x2="136.58" y2="233.91"/><line class="c" x1="103.22" y1="233.91" x2="119.33" y2="233.91"/><line class="c" x1="119.33" y1="191.99" x2="103.22" y2="191.99"/><line class="c" x1="136.58" y1="191.99" x2="120.53" y2="191.99"/><line class="c" x1="119.33" y1="191.87" x2="103.22" y2="191.87"/><line class="c" x1="136.58" y1="191.87" x2="120.53" y2="191.87"/><line class="c" x1="148.65" y1="191.99" x2="137.78" y2="191.99"/><line class="c" x1="148.65" y1="191.87" x2="137.78" y2="191.87"/><line class="c" x1="142.96" y1="211.51" x2="163.88" y2="191.69"/><line class="c" x1="143.85" y1="212.29" x2="164.7" y2="192.47"/><polyline class="c" points="142.96 214.39 154.71 225.5 163.88 234.21"/><polyline class="c" points="143.85 213.61 155.54 224.72 164.7 233.43"/><polyline class="c" points="96.39 211.87 75.16 191.69 164.7 191.69 143.4 211.87"/><polyline class="c" points="141.44 214.33 98.16 214.33 98.1 214.39 96.83 214.39 96.39 213.97"/><line class="c" x1="141.45" y1="211.57" x2="98.35" y2="211.57"/><path class="c" d="M143.34,213a1.3,1.3,0,1,0-1.29,1.23A1.26,1.26,0,0,0,143.34,213Z"/><rect class="d" x="129.82" y="109.42" width="20.03" height="8.53"/><polygon class="d" points="133.23 483.75 145.55 483.75 145.55 400.75 137.02 388.68 130.2 388.68 130.2 383.03 140.62 383.03 140.62 388.68 148.52 399.91 148.52 490.83 136.83 490.83 135.5 492.51 129.63 488.13 133.23 483.75"/><polygon class="d" points="110.23 279.61 110.23 286.7 137.65 286.7 137.65 299.13 140.62 299.13 140.62 279.61 110.23 279.61"/><polygon class="d" points="76.11 117.88 76.11 140.59 79.08 140.59 79.08 117.88 85.08 117.88 85.08 109.36 71.62 109.36 71.62 117.88 76.11 117.88"/><polygon class="d" points="39.52 490.83 55.01 490.83 56.4 492.51 62.21 488.13 58.61 483.75 46.98 483.75 46.98 286.7 74.4 286.7 74.4 279.61 52.23 279.61 52.23 188.81 79.08 188.81 79.08 160.46 76.11 160.46 76.11 185.99 52.23 185.99 52.23 117.88 56.71 117.88 56.71 109.36 43.25 109.36 43.25 279.61 39.52 279.61 39.52 490.83"/><polygon class="d" points="196.86 279.61 167.54 279.61 167.54 282.5 196.86 282.5 196.86 353.96 140.62 353.96 140.62 333.96 137.65 333.96 137.65 360.33 140.62 360.33 140.62 356.79 196.86 356.79 196.86 483.75 193.32 483.75 193.32 490.83 204.32 490.83 204.32 279.61 204.32 249.83 200.59 249.83 200.59 109.36 179.67 109.36 179.67 117.88 191.62 117.88 191.62 249.83 191.62 256.91 196.86 256.91 196.86 279.61"/></svg>