<svg xmlns="http://www.w3.org/2000/svg" viewBox="0 0 113.39 198.43"><defs><style>.a,.c{fill:none;stroke-linecap:round;stroke-linejoin:round;stroke-width:0.1px;}.a{stroke:#1d1d1b;}.b{fill:silver;}.c{stroke:blue;}.d{fill:#1d1d1b;}</style></defs><line class="a" x1="79.92" y1="140.75" x2="79.92" y2="131.18"/><rect class="a" x="79.65" y="140.75" width="1.04" height="1.04"/><line class="a" x1="80.44" y1="140.75" x2="80.44" y2="131.39"/><line class="a" x1="88.05" y1="132.22" x2="86.62" y2="132.22"/><line class="a" x1="80.44" y1="118.52" x2="80.44" y2="117.21"/><line class="a" x1="80.44" y1="120.43" x2="80.44" y2="119.17"/><line class="a" x1="80.44" y1="122.39" x2="80.44" y2="121.08"/><line class="a" x1="80.44" y1="124.3" x2="80.44" y2="123"/><line class="a" x1="80.44" y1="126.22" x2="80.44" y2="124.96"/><line class="a" x1="80.44" y1="128.13" x2="80.44" y2="126.87"/><line class="a" x1="80.44" y1="130.09" x2="80.44" y2="128.78"/><line class="a" x1="79.92" y1="117.47" x2="79.92" y2="115.95"/><line class="a" x1="79.92" y1="119.39" x2="79.92" y2="118.08"/><line class="a" x1="79.92" y1="121.3" x2="79.92" y2="120.04"/><line class="a" x1="79.92" y1="123.22" x2="79.92" y2="121.95"/><line class="a" x1="79.92" y1="125.17" x2="79.92" y2="123.87"/><line class="a" x1="79.92" y1="127.09" x2="79.92" y2="125.78"/><line class="a" x1="79.92" y1="129" x2="79.92" y2="127.74"/><line class="a" x1="79.92" y1="131.18" x2="79.92" y2="129.65"/><line class="a" x1="82" y1="125.43" x2="80.44" y2="125.43"/><line class="a" x1="83.92" y1="125.43" x2="82.61" y2="125.43"/><line class="a" x1="85.83" y1="125.43" x2="84.57" y2="125.43"/><line class="a" x1="88.05" y1="125.43" x2="86.49" y2="125.43"/><line class="a" x1="82" y1="127.7" x2="80.44" y2="127.7"/><line class="a" x1="83.92" y1="127.7" x2="82.61" y2="127.7"/><line class="a" x1="85.83" y1="127.7" x2="84.57" y2="127.7"/><line class="a" x1="88.05" y1="127.7" x2="86.49" y2="127.7"/><line class="a" x1="85.83" y1="123.17" x2="84.57" y2="123.17"/><line class="a" x1="83.92" y1="123.17" x2="82.61" y2="123.17"/><line class="a" x1="82" y1="123.17" x2="80.44" y2="123.17"/><line class="a" x1="88.05" y1="123.17" x2="86.49" y2="123.17"/><line class="a" x1="82" y1="129.96" x2="80.44" y2="129.96"/><line class="a" x1="83.92" y1="129.96" x2="82.61" y2="129.96"/><line class="a" x1="85.83" y1="129.96" x2="84.57" y2="129.96"/><line class="a" x1="88.05" y1="129.96" x2="86.49" y2="129.96"/><line class="a" x1="84.05" y1="132.22" x2="82.61" y2="132.22"/><line class="a" x1="85.96" y1="132.22" x2="84.7" y2="132.22"/><line class="a" x1="88.05" y1="136.75" x2="80.44" y2="136.75"/><line class="a" x1="82.61" y1="132.22" x2="80.44" y2="132.22"/><line class="a" x1="88.05" y1="139.01" x2="80.44" y2="139.01"/><path class="a" d="M81.94,143.58a2.07,2.07,0,0,1-2-1.76"/><line class="a" x1="88.05" y1="143.53" x2="81.96" y2="143.53"/><line class="a" x1="88.05" y1="141.27" x2="80.7" y2="141.27"/><line class="a" x1="88.05" y1="134.48" x2="80.44" y2="134.48"/><line class="a" x1="44.85" y1="26.11" x2="43.54" y2="26.11"/><line class="a" x1="46.76" y1="26.11" x2="45.46" y2="26.11"/><line class="a" x1="48.68" y1="26.11" x2="47.42" y2="26.11"/><line class="a" x1="50.64" y1="26.11" x2="49.33" y2="26.11"/><line class="a" x1="52.55" y1="26.11" x2="51.24" y2="26.11"/><line class="a" x1="54.46" y1="26.11" x2="53.2" y2="26.11"/><line class="a" x1="56.38" y1="26.11" x2="55.12" y2="26.11"/><line class="a" x1="58.34" y1="26.11" x2="57.03" y2="26.11"/><line class="a" x1="60.25" y1="26.11" x2="58.95" y2="26.11"/><line class="a" x1="62.16" y1="26.11" x2="60.9" y2="26.11"/><line class="a" x1="64.12" y1="26.11" x2="62.82" y2="26.11"/><line class="a" x1="65.95" y1="26.11" x2="64.73" y2="26.11"/><line class="a" x1="53.2" y1="23.28" x2="54.46" y2="23.28"/><line class="a" x1="51.24" y1="23.28" x2="52.55" y2="23.28"/><line class="a" x1="49.33" y1="23.28" x2="50.64" y2="23.28"/><line class="a" x1="47.42" y1="23.28" x2="48.68" y2="23.28"/><line class="a" x1="45.46" y1="23.28" x2="46.76" y2="23.28"/><line class="a" x1="43.54" y1="23.28" x2="44.85" y2="23.28"/><line class="a" x1="41.63" y1="23.28" x2="42.89" y2="23.28"/><line class="a" x1="39.8" y1="23.28" x2="40.98" y2="23.28"/><line class="a" x1="40.98" y1="26.11" x2="39.8" y2="26.11"/><line class="a" x1="42.89" y1="26.11" x2="41.63" y2="26.11"/><line class="a" x1="64.73" y1="23.28" x2="65.95" y2="23.28"/><line class="a" x1="62.82" y1="23.28" x2="64.12" y2="23.28"/><line class="a" x1="60.9" y1="23.28" x2="62.16" y2="23.28"/><line class="a" x1="58.95" y1="23.28" x2="60.25" y2="23.28"/><line class="a" x1="57.03" y1="23.28" x2="58.34" y2="23.28"/><line class="a" x1="55.12" y1="23.28" x2="56.38" y2="23.28"/><line class="a" x1="82.57" y1="26.63" x2="73.96" y2="26.63"/><rect class="a" x="74.52" y="173.25" width="0.44" height="8.14"/><path class="a" d="M82.61,173.27a8.12,8.12,0,0,1-7.8,8.11"/><polyline class="a" points="78.26 130.53 83.96 132.74 83.96 134.44 85.09 131.48 85.09 133.18 90.84 135.4"/><polyline class="a" points="39.37 166.59 39.37 172.86 65.99 172.86 65.99 166.59"/><polyline class="a" points="83.48 172.86 89.31 172.86 89.31 166.59"/><line class="a" x1="73.69" y1="172.86" x2="67.78" y2="172.86"/><line class="a" x1="88.05" y1="171.59" x2="82.96" y2="171.59"/><polyline class="a" points="88.05 115.95 78.39 115.95 78.39 114.91 88.05 114.91"/><line class="a" x1="88.92" y1="104.64" x2="88.92" y2="113.34"/><line class="a" x1="89.7" y1="104.64" x2="89.7" y2="113.34"/><polyline class="a" points="90.62 114.12 91.1 114.12 91.1 103.86 90.62 103.86"/><polyline class="a" points="82.96 173.25 89.7 173.25 89.7 166.07"/><polyline class="a" points="39.76 166.07 39.76 172.47 65.6 172.47 65.6 166.07"/><polyline class="a" points="82.96 172.47 88.92 172.47 88.92 166.07"/><polyline class="a" points="38.98 166.07 38.98 173.25 66.39 173.25 66.39 166.07"/><line class="a" x1="84.44" y1="25.06" x2="72.08" y2="25.06"/><polygon class="a" points="39.89 23.76 42.89 17.62 43.41 17.89 40.41 24.06 39.89 23.76"/><line class="a" x1="74.22" y1="173.25" x2="67.26" y2="173.25"/><polyline class="a" points="67.26 171.59 74.22 171.59 74.22 174.16 67.26 174.16 38.11 174.16 38.11 166.07"/><line class="a" x1="74.22" y1="172.47" x2="67.26" y2="172.47"/><polygon class="a" points="65.82 23.76 62.82 17.62 62.3 17.89 65.3 24.06 65.82 23.76"/><polyline class="a" points="40.67 166.07 40.67 171.59 64.69 171.59 64.69 166.07"/><line class="a" x1="67.26" y1="174.16" x2="67.26" y2="166.07"/><line class="a" x1="72.08" y1="26.11" x2="84.44" y2="26.11"/><polyline class="a" points="71.34 23.28 71.34 22.76 85.22 22.76 85.22 23.28"/><polygon class="a" points="47.2 23.76 44.2 17.62 43.63 17.89 46.63 24.06 47.2 23.76"/><polyline class="a" points="90.62 166.07 90.62 174.16 82.96 174.16 82.96 171.59 88.05 171.59 88.05 166.07"/><line class="a" x1="84.44" y1="24.28" x2="72.08" y2="24.28"/><polygon class="b" points="85.78 104.82 85.78 104.91 85.76 104.97 85.76 105.06 85.74 105.15 85.72 105.23 85.72 105.3 85.67 105.39 85.65 105.47 85.63 105.54 85.59 105.63 85.57 105.69 85.52 105.75 85.48 105.84 85.44 105.91 85.37 105.97 85.33 106.04 85.26 106.1 85.22 106.15 85.15 106.21 85.09 106.28 85.02 106.32 84.96 106.36 84.89 106.41 84.81 106.45 84.74 106.49 84.68 106.54 84.59 106.56 84.5 106.58 84.44 106.62 84.35 106.65 84.26 106.65 84.2 106.67 84.11 106.69 84.02 106.69 83.94 106.69 83.85 106.69 83.78 106.69 83.7 106.69 83.61 106.67 83.52 106.65 83.46 106.65 83.37 106.62 83.28 106.58 83.22 106.56 83.13 106.54 83.07 106.49 82.98 106.45 82.92 106.41 82.85 106.36 82.79 106.32 82.72 106.28 82.66 106.21 82.59 106.15 82.53 106.1 82.48 106.04 82.42 105.97 82.37 105.91 82.33 105.84 82.29 105.75 82.24 105.69 82.2 105.63 82.18 105.54 82.13 105.47 82.11 105.39 82.09 105.3 82.07 105.23 82.05 105.15 82.05 105.06 82.03 104.97 82.03 104.91 82.03 104.82 82.03 101.19 85.78 101.19 85.78 104.82"/><polygon class="b" points="75.18 101.19 80.31 101.19 80.31 104.28 80.31 104.3 75.18 104.3 75.18 104.28 75.18 101.22 75.18 101.19"/><polygon class="b" points="65.38 25.68 65.38 31.81 81.76 31.81 81.76 84.42 87.93 84.42 87.93 25.68 84.59 25.68 72.25 25.68 66.12 25.68 65.38 25.68"/><polyline class="c" points="68.21 71.01 68.21 70.05 68.86 70.05"/><line class="c" x1="74.09" y1="75.84" x2="74.56" y2="77.05"/><line class="c" x1="73.35" y1="74.05" x2="73.82" y2="75.27"/><line class="c" x1="72.65" y1="72.27" x2="73.13" y2="73.49"/><polyline class="c" points="71.74 71.66 72.08 70.79 72.43 71.66"/><line class="c" x1="71" y1="73.49" x2="71.48" y2="72.27"/><line class="c" x1="70.3" y1="75.27" x2="70.78" y2="74.05"/><line class="c" x1="69.56" y1="77.05" x2="70.04" y2="75.84"/><line class="c" x1="75.13" y1="73.36" x2="75.13" y2="72.09"/><line class="c" x1="75.13" y1="75.31" x2="75.13" y2="74.01"/><line class="c" x1="75.13" y1="77.23" x2="75.13" y2="75.97"/><line class="c" x1="75.91" y1="72.92" x2="75.91" y2="71.66"/><line class="c" x1="75.91" y1="74.84" x2="75.91" y2="73.57"/><line class="c" x1="75.91" y1="76.79" x2="75.91" y2="75.49"/><line class="c" x1="75.91" y1="78.71" x2="75.91" y2="77.4"/><line class="c" x1="68.21" y1="72.92" x2="68.21" y2="71.66"/><line class="c" x1="68.21" y1="74.84" x2="68.21" y2="73.57"/><line class="c" x1="68.21" y1="76.79" x2="68.21" y2="75.49"/><line class="c" x1="68.21" y1="78.71" x2="68.21" y2="77.4"/><line class="c" x1="69" y1="73.36" x2="69" y2="72.09"/><line class="c" x1="69" y1="75.31" x2="69" y2="74.01"/><line class="c" x1="69" y1="77.23" x2="69" y2="75.97"/><line class="c" x1="73.35" y1="78.53" x2="74.65" y2="78.53"/><line class="c" x1="71.43" y1="78.53" x2="72.69" y2="78.53"/><line class="c" x1="69.47" y1="78.53" x2="70.78" y2="78.53"/><polyline class="c" points="75.26 80.32 75.91 80.32 75.91 79.36"/><line class="c" x1="73.35" y1="80.32" x2="74.65" y2="80.32"/><line class="c" x1="71.43" y1="80.32" x2="72.69" y2="80.32"/><line class="c" x1="69.47" y1="80.32" x2="70.78" y2="80.32"/><polyline class="c" points="68.21 79.36 68.21 80.32 68.86 80.32"/><polyline class="c" points="75.26 70.05 75.91 70.05 75.91 71.01"/><line class="c" x1="73.35" y1="70.05" x2="74.65" y2="70.05"/><line class="c" x1="71.43" y1="70.05" x2="72.69" y2="70.05"/><line class="c" x1="69.47" y1="70.05" x2="70.78" y2="70.05"/><polyline class="c" points="74.3 70.79 75.13 70.79 75.13 71.44"/><line class="c" x1="72.39" y1="70.79" x2="73.65" y2="70.79"/><line class="c" x1="70.47" y1="70.79" x2="71.74" y2="70.79"/><polyline class="c" points="69 71.44 69 70.79 69.82 70.79"/><line class="c" x1="50.2" y1="75.84" x2="49.72" y2="77.05"/><line class="c" x1="50.9" y1="74.05" x2="50.42" y2="75.27"/><line class="c" x1="51.64" y1="72.27" x2="51.16" y2="73.49"/><polyline class="c" points="52.55 71.66 52.2 70.79 51.85 71.66"/><line class="c" x1="53.29" y1="73.49" x2="52.81" y2="72.27"/><line class="c" x1="53.99" y1="75.27" x2="53.51" y2="74.05"/><line class="c" x1="54.73" y1="77.05" x2="54.25" y2="75.84"/><line class="c" x1="49.11" y1="73.36" x2="49.11" y2="72.09"/><line class="c" x1="49.11" y1="75.31" x2="49.11" y2="74.01"/><line class="c" x1="49.11" y1="77.23" x2="49.11" y2="75.97"/><line class="c" x1="48.37" y1="72.92" x2="48.37" y2="71.66"/><line class="c" x1="48.37" y1="74.84" x2="48.37" y2="73.57"/><line class="c" x1="48.37" y1="76.79" x2="48.37" y2="75.49"/><line class="c" x1="48.37" y1="78.71" x2="48.37" y2="77.4"/><line class="c" x1="56.07" y1="72.92" x2="56.07" y2="71.66"/><line class="c" x1="56.07" y1="74.84" x2="56.07" y2="73.57"/><line class="c" x1="56.07" y1="76.79" x2="56.07" y2="75.49"/><line class="c" x1="56.07" y1="78.71" x2="56.07" y2="77.4"/><line class="c" x1="55.29" y1="73.36" x2="55.29" y2="72.09"/><line class="c" x1="55.29" y1="75.31" x2="55.29" y2="74.01"/><line class="c" x1="55.29" y1="77.23" x2="55.29" y2="75.97"/><line class="c" x1="50.94" y1="78.53" x2="49.63" y2="78.53"/><line class="c" x1="52.85" y1="78.53" x2="51.55" y2="78.53"/><line class="c" x1="54.77" y1="78.53" x2="53.51" y2="78.53"/><polyline class="c" points="48.98 80.32 48.37 80.32 48.37 79.36"/><line class="c" x1="50.94" y1="80.32" x2="49.63" y2="80.32"/><line class="c" x1="52.85" y1="80.32" x2="51.55" y2="80.32"/><line class="c" x1="54.77" y1="80.32" x2="53.51" y2="80.32"/><polyline class="c" points="56.07 79.36 56.07 80.32 55.42 80.32"/><polyline class="c" points="48.98 70.05 48.37 70.05 48.37 71.01"/><line class="c" x1="50.94" y1="70.05" x2="49.63" y2="70.05"/><line class="c" x1="52.85" y1="70.05" x2="51.55" y2="70.05"/><line class="c" x1="54.77" y1="70.05" x2="53.51" y2="70.05"/><polyline class="c" points="56.07 71.01 56.07 70.05 55.42 70.05"/><polyline class="c" points="49.98 70.79 49.11 70.79 49.11 71.44"/><line class="c" x1="51.9" y1="70.79" x2="50.59" y2="70.79"/><line class="c" x1="53.81" y1="70.79" x2="52.55" y2="70.79"/><polyline class="c" points="55.29 71.44 55.29 70.79 54.46 70.79"/><line class="c" x1="41.85" y1="85.15" x2="43.15" y2="85.15"/><line class="c" x1="41.85" y1="87.28" x2="43.15" y2="87.28"/><line class="c" x1="39.93" y1="87.28" x2="41.19" y2="87.28"/><line class="c" x1="38.02" y1="87.28" x2="39.28" y2="87.28"/><line class="c" x1="63.04" y1="85.15" x2="64.34" y2="85.15"/><line class="c" x1="61.12" y1="85.15" x2="62.43" y2="85.15"/><line class="c" x1="59.21" y1="85.15" x2="60.47" y2="85.15"/><line class="c" x1="57.25" y1="85.15" x2="58.55" y2="85.15"/><line class="c" x1="55.33" y1="85.15" x2="56.64" y2="85.15"/><line class="c" x1="53.42" y1="85.15" x2="54.68" y2="85.15"/><line class="c" x1="51.51" y1="85.15" x2="52.77" y2="85.15"/><line class="c" x1="49.55" y1="85.15" x2="50.85" y2="85.15"/><line class="c" x1="47.63" y1="85.15" x2="48.94" y2="85.15"/><line class="c" x1="45.72" y1="85.15" x2="46.98" y2="85.15"/><line class="c" x1="43.76" y1="85.15" x2="45.07" y2="85.15"/><line class="c" x1="38.02" y1="85.15" x2="39.28" y2="85.15"/><line class="c" x1="39.93" y1="85.15" x2="41.19" y2="85.15"/><line class="c" x1="63.04" y1="87.28" x2="64.34" y2="87.28"/><line class="c" x1="61.12" y1="87.28" x2="62.43" y2="87.28"/><line class="c" x1="59.21" y1="87.28" x2="60.47" y2="87.28"/><line class="c" x1="57.25" y1="87.28" x2="58.55" y2="87.28"/><line class="c" x1="55.33" y1="87.28" x2="56.64" y2="87.28"/><line class="c" x1="53.42" y1="87.28" x2="54.68" y2="87.28"/><line class="c" x1="51.51" y1="87.28" x2="52.77" y2="87.28"/><line class="c" x1="49.55" y1="87.28" x2="50.85" y2="87.28"/><line class="c" x1="47.63" y1="87.28" x2="48.94" y2="87.28"/><line class="c" x1="45.72" y1="87.28" x2="46.98" y2="87.28"/><line class="c" x1="43.76" y1="87.28" x2="45.07" y2="87.28"/><polyline class="d" points="71.52 158.06 75.44 158.06 75.44 159.11 71.52 159.11"/><polyline class="d" points="90.62 84.93 90.62 23.28 84.44 23.28 84.44 26.11 87.79 26.11 87.79 84.93"/><rect class="d" x="65.95" y="23.28" width="6.13" height="2.83"/><polyline class="d" points="36.5 84.93 36.5 26.11 39.8 26.11 39.8 23.28 33.67 23.28 33.67 84.93"/><polyline class="d" points="88.05 113.34 90.62 113.34 90.62 166.07 87.01 166.07 87.01 163.5 88.05 163.5 88.05 113.34 88.05 104.64"/><polygon class="d" points="32.41 84.93 32.41 166.07 40.67 166.07 40.67 163.5 34.97 163.5 34.97 87.5 36.5 87.5 36.5 84.93 33.67 84.93 32.41 84.93"/><polyline class="d" points="71.52 163.5 64.69 163.5 64.69 166.07 71.52 166.07 71.52 146.01 70.52 146.01 70.52 163.5"/><polyline class="d" points="34.97 125.69 70.52 125.69 70.52 137.27 71.52 137.27 71.52 124.65 34.97 124.65"/><polyline class="d" points="88.05 159.11 84.14 159.11 84.14 158.06 88.05 158.06"/><polygon class="d" points="88.05 101.72 88.05 104.64 90.62 104.64 90.62 84.93 78.18 84.93 78.18 87.5 88.05 87.5 88.05 100.68 69.43 100.68 69.43 84.93 65.82 84.93 65.82 87.5 68.39 87.5 68.39 115.95 69.43 115.95 70.47 115.95 70.47 114.91 69.43 114.91 69.43 101.72 88.05 101.72"/></svg>