<svg xmlns="http://www.w3.org/2000/svg" viewBox="0 0 318.24 583.97"><defs><style>.a{fill:silver;}.b,.c,.d{fill:none;stroke-linecap:round;stroke-linejoin:round;}.b{stroke:silver;}.c{stroke:#1d1d1b;stroke-width:0.2px;}.d{stroke:#009fe3;stroke-width:0.25px;}.e{fill:#1d1d1b;}</style></defs><polygon class="a" points="133.71 256.67 133.72 256.67 149.32 256.67 149.32 221.18 133.71 221.18 133.71 230.85 133.71 256.67"/><polygon class="a" points="173.01 212.56 173.01 229.59 173.01 263.64 173.01 280.67 173.01 297.69 173.01 314.72 173.01 331.74 173.01 348.77 173.79 348.77 190.04 348.77 190.04 272.26 190.04 263.64 190.04 246.62 190.04 229.59 190.04 212.56 173.01 212.56"/><polygon class="a" points="71.13 247.25 71.13 230.22 71.13 213.19 54.1 213.19 54.1 230.22 54.1 247.25 54.1 264.27 71.13 264.27 71.13 247.25"/><rect class="b" x="173.01" y="229.59" width="17.03" height="34.05"/><polyline class="c" points="173.01 348.77 173.01 331.74 190.04 331.74"/><polyline class="c" points="190.04 314.72 173.01 314.72 173.01 331.74 190.04 331.74"/><polyline class="c" points="190.04 314.72 173.01 314.72 173.01 297.69 190.04 297.69"/><polyline class="c" points="190.04 280.67 173.01 280.67 173.01 297.69 190.04 297.69"/><polyline class="c" points="190.04 280.67 173.01 280.67 173.01 263.64 190.04 263.64"/><line class="c" x1="195.71" y1="453.48" x2="176.71" y2="453.48"/><path class="c" d="M176.72,453.48a4.25,4.25,0,0,1-4.25-4.25"/><line class="c" x1="172.44" y1="449.21" x2="172.44" y2="447.23"/><line class="c" x1="195.71" y1="447.23" x2="172.8" y2="447.23"/><line class="c" x1="195.71" y1="440.99" x2="175.08" y2="440.99"/><line class="c" x1="195.71" y1="434.74" x2="175.08" y2="434.74"/><line class="c" x1="195.71" y1="428.52" x2="175.08" y2="428.52"/><line class="c" x1="195.71" y1="422.28" x2="175.08" y2="422.28"/><line class="c" x1="175.08" y1="444.26" x2="175.08" y2="416.03"/><line class="c" x1="172.8" y1="444.26" x2="172.8" y2="416.03"/><rect class="c" x="172.44" y="444.26" width="3" height="2.97"/><polyline class="c" points="155.5 483.51 171 483.51 171 490.86 155.5 490.86"/><line class="c" x1="116.02" y1="512.03" x2="136.74" y2="490.77"/><line class="c" x1="173.79" y1="348.77" x2="196.61" y2="348.77"/><line class="c" x1="177.07" y1="375.41" x2="172.8" y2="375.41"/><line class="c" x1="177.07" y1="377.54" x2="174.93" y2="377.54"/><line class="c" x1="172.8" y1="375.41" x2="172.8" y2="416.03"/><line class="c" x1="174.93" y1="377.54" x2="174.93" y2="416.03"/><polyline class="c" points="171.21 416.03 183.7 416.03 184.54 418.86 186.25 413.18 187.09 416.03 199.59 416.03"/><line class="c" x1="177.07" y1="377.54" x2="177.07" y2="375.41"/><line class="c" x1="195.71" y1="382.82" x2="174.93" y2="382.82"/><line class="c" x1="195.71" y1="387.09" x2="174.93" y2="387.09"/><line class="c" x1="195.71" y1="391.35" x2="174.93" y2="391.35"/><line class="c" x1="195.71" y1="395.58" x2="174.93" y2="395.58"/><line class="c" x1="195.71" y1="399.85" x2="174.93" y2="399.85"/><line class="c" x1="195.71" y1="404.11" x2="174.93" y2="404.11"/><line class="c" x1="195.71" y1="408.38" x2="174.93" y2="408.38"/><line class="c" x1="193.58" y1="376.46" x2="193.58" y2="392.91"/><path class="c" d="M193.61,392.94a16.49,16.49,0,0,1-16.51-16.48"/><polyline class="c" points="193.58 376.46 192.83 376.46 192.83 392.91 193.58 392.91"/><line class="c" x1="147.46" y1="375.38" x2="126.29" y2="375.41"/><path class="c" d="M126.26,375.41a21.26,21.26,0,0,1,21.24-21.29"/><polyline class="c" points="147.49 375.38 147.46 374.62 126.26 374.62 126.26 375.38"/><polygon class="c" points="115.42 511.43 115 511.85 114.46 511.85 114.46 513.53 115.75 513.53 116.62 512.63 115.42 511.43"/><polyline class="c" points="155.5 488.04 171 488.04 171 486.33 155.5 486.33"/><line class="c" x1="169.86" y1="488.04" x2="169.86" y2="486.33"/><line class="c" x1="156.65" y1="488.04" x2="156.65" y2="486.33"/><line class="c" x1="156.65" y1="487.17" x2="169.86" y2="487.17"/><line class="c" x1="193.01" y1="483.51" x2="192.98" y2="465.25"/><path class="c" d="M171,487.23a22,22,0,0,1,22-22"/><polyline class="c" points="193.01 487.17 192.26 487.17 192.23 465.22 192.98 465.22"/><line class="c" x1="193.01" y1="487.14" x2="193.01" y2="483.51"/><rect class="c" x="173.79" y="350.3" width="19.22" height="1.14"/><line class="c" x1="190.04" y1="272.26" x2="190.04" y2="348.77"/><rect class="c" x="143.37" y="203.19" width="5.95" height="2.85"/><line class="c" x1="188.9" y1="234.99" x2="173.58" y2="234.99"/><line class="c" x1="173.58" y1="258.09" x2="188.9" y2="258.09"/><line class="c" x1="188.9" y1="258.09" x2="188.9" y2="234.99"/><line class="c" x1="173.58" y1="234.99" x2="173.58" y2="258.09"/><polyline class="c" points="149.32 208.3 150.04 208.3 150.04 207.67 149.59 207.67 149.59 206.05 149.32 206.05"/><line class="c" x1="149.59" y1="206.05" x2="172.71" y2="206.05"/><line class="c" x1="172.29" y1="208.3" x2="150.04" y2="208.3"/><line class="c" x1="150.94" y1="206.74" x2="171.39" y2="206.77"/><line class="c" x1="150.94" y1="207.04" x2="171.39" y2="207.04"/><line class="c" x1="150.94" y1="207.31" x2="171.39" y2="207.31"/><line class="c" x1="150.94" y1="207.61" x2="171.39" y2="207.61"/><line class="c" x1="173.01" y1="203.19" x2="149.32" y2="203.19"/><polyline class="c" points="143.37 208.3 142.65 208.3 142.65 207.67 143.07 207.67 143.07 206.68 142.65 206.68 142.65 206.05 143.37 206.05"/><polyline class="c" points="107.25 208.3 107.94 208.3 107.94 207.67 107.52 207.67 107.52 206.68 107.94 206.68 107.94 206.05 107.25 206.05"/><line class="c" x1="107.94" y1="206.05" x2="142.65" y2="206.05"/><line class="c" x1="142.65" y1="208.3" x2="107.94" y2="208.3"/><line class="c" x1="108.87" y1="206.74" x2="141.72" y2="206.74"/><line class="c" x1="108.87" y1="207.04" x2="141.72" y2="207.04"/><line class="c" x1="108.87" y1="207.31" x2="141.72" y2="207.31"/><line class="c" x1="108.87" y1="207.61" x2="141.72" y2="207.61"/><polyline class="c" points="107.25 208.3 106.53 208.3 106.53 207.67 106.95 207.67 106.95 206.68 106.53 206.68 106.53 206.05 107.25 206.05"/><line class="c" x1="149.32" y1="221.18" x2="149.32" y2="256.67"/><line class="c" x1="145.63" y1="382.91" x2="126.29" y2="382.88"/><path class="c" d="M147,404.19a21.26,21.26,0,0,1-20.7-21.28"/><polyline class="c" points="147.49 382.91 147.46 383.66 126.26 383.66 126.26 382.91"/><line class="c" x1="145.63" y1="382.91" x2="147.46" y2="382.91"/><line class="c" x1="133.7" y1="230.85" x2="133.7" y2="256.67"/><polyline class="c" points="133.71 230.85 133.71 218.36 143.37 218.36 143.37 203.19 149.32 203.19 149.32 221.18"/><line class="c" x1="149.32" y1="221.18" x2="149.32" y2="208.3"/><polyline class="c" points="60.26 483.51 84.58 508.43 113.59 508.43 137.64 483.78"/><polyline class="c" points="55.57 490.86 81.01 516.96 117.16 516.96 142.59 490.86"/><line class="c" x1="61.43" y1="490.77" x2="82.15" y2="512.03"/><line class="c" x1="83.71" y1="512.69" x2="114.46" y2="512.69"/><polyline class="c" points="62.03 490.2 83.14 511.85 115.03 511.85 137.64 488.67"/><polygon class="c" points="82.45 513.53 83.71 513.53 83.71 511.85 83.14 511.85 82.75 511.43 81.55 512.63 82.45 513.53"/><line class="c" x1="60.26" y1="490.8" x2="60.31" y2="490.86"/><line class="c" x1="62.03" y1="490.2" x2="60.26" y2="488.37"/><rect class="c" x="54.1" y="213.19" width="17.03" height="17.03"/><rect class="c" x="54.1" y="230.22" width="17.03" height="17.03"/><rect class="c" x="54.1" y="247.25" width="17.03" height="17.03"/><line class="c" x1="143.37" y1="203.19" x2="71.13" y2="203.19"/><polyline class="c" points="71.13 208.3 71.85 208.3 71.85 207.67 71.4 207.67 71.4 206.68 71.85 206.68 71.85 206.05 71.13 206.05"/><line class="c" x1="71.85" y1="206.05" x2="106.53" y2="206.05"/><line class="c" x1="106.53" y1="208.3" x2="71.85" y2="208.3"/><line class="c" x1="72.75" y1="206.74" x2="105.6" y2="206.74"/><line class="c" x1="72.75" y1="207.04" x2="105.6" y2="207.04"/><line class="c" x1="72.75" y1="207.31" x2="105.6" y2="207.31"/><line class="c" x1="72.75" y1="207.61" x2="105.6" y2="207.61"/><rect class="c" x="54.1" y="213.19" width="17.03" height="51.08"/><line class="c" x1="52.69" y1="212.56" x2="52.69" y2="264.9"/><polyline class="c" points="60.26 490.8 82.45 513.53 115.75 513.53 137.85 490.86"/><line class="c" x1="190.04" y1="212.56" x2="173.01" y2="212.56"/><polyline class="c" points="173.01 212.56 173.01 229.59 190.04 229.59"/><line class="c" x1="174.84" y1="234.99" x2="174.84" y2="258.09"/><polygon class="c" points="138.54 239.32 138.54 246.01 148.81 246.01 148.81 221.81 138.54 221.81 138.54 238.54 138.54 239.32"/><line class="d" x1="86.43" y1="227.16" x2="87.84" y2="227.16"/><line class="d" x1="88.68" y1="227.16" x2="90.12" y2="227.16"/><line class="d" x1="90.96" y1="227.16" x2="92.37" y2="227.16"/><line class="d" x1="93.21" y1="227.16" x2="94.65" y2="227.16"/><line class="d" x1="95.49" y1="227.16" x2="96.91" y2="227.16"/><line class="d" x1="97.78" y1="227.16" x2="99.19" y2="227.16"/><polyline class="d" points="100.03 227.16 101.02 227.16 101.02 228.15"/><line class="d" x1="101.02" y1="229.02" x2="101.02" y2="230.43"/><line class="d" x1="101.02" y1="231.28" x2="101.02" y2="232.72"/><line class="d" x1="101.02" y1="233.56" x2="101.02" y2="234.97"/><line class="d" x1="101.02" y1="235.81" x2="101.02" y2="237.25"/><line class="d" x1="101.02" y1="238.09" x2="101.02" y2="239.5"/><line class="d" x1="101.02" y1="240.37" x2="101.02" y2="241.79"/><line class="d" x1="101.02" y1="242.63" x2="101.02" y2="244.04"/><line class="d" x1="101.02" y1="244.91" x2="101.02" y2="246.32"/><line class="d" x1="101.02" y1="247.16" x2="101.02" y2="248.6"/><line class="d" x1="101.02" y1="249.44" x2="101.02" y2="250.85"/><polyline class="d" points="101.02 251.72 101.02 252.72 100.03 252.72"/><line class="d" x1="99.19" y1="252.72" x2="97.78" y2="252.72"/><line class="d" x1="96.91" y1="252.72" x2="95.49" y2="252.72"/><line class="d" x1="94.65" y1="252.72" x2="93.21" y2="252.72"/><line class="d" x1="92.37" y1="252.72" x2="90.96" y2="252.72"/><line class="d" x1="90.12" y1="252.72" x2="88.68" y2="252.72"/><line class="d" x1="87.84" y1="252.72" x2="86.43" y2="252.72"/><line class="d" x1="77.33" y1="227.16" x2="78.77" y2="227.16"/><line class="d" x1="79.61" y1="227.16" x2="81.02" y2="227.16"/><line class="d" x1="81.89" y1="227.16" x2="83.3" y2="227.16"/><line class="d" x1="84.14" y1="227.16" x2="85.56" y2="227.16"/><line class="d" x1="85.56" y1="252.72" x2="84.14" y2="252.72"/><line class="d" x1="83.3" y1="252.72" x2="81.89" y2="252.72"/><line class="d" x1="81.02" y1="252.72" x2="79.61" y2="252.72"/><line class="d" x1="78.77" y1="252.72" x2="77.33" y2="252.72"/><line class="d" x1="156.36" y1="227.16" x2="157.8" y2="227.16"/><line class="d" x1="158.64" y1="227.16" x2="160.05" y2="227.16"/><line class="d" x1="160.9" y1="227.16" x2="162.34" y2="227.16"/><line class="d" x1="163.18" y1="227.16" x2="164.59" y2="227.16"/><polyline class="d" points="165.46 227.16 166.45 227.16 166.45 228.15"/><polyline class="d" points="166.45 251.72 166.45 252.72 165.46 252.72"/><line class="d" x1="164.59" y1="252.72" x2="163.18" y2="252.72"/><line class="d" x1="162.34" y1="252.72" x2="160.9" y2="252.72"/><line class="d" x1="160.05" y1="252.72" x2="158.64" y2="252.72"/><line class="d" x1="157.8" y1="252.72" x2="156.36" y2="252.72"/><line class="d" x1="76.49" y1="252.72" x2="75.5" y2="252.72"/><polyline class="d" points="75.5 228.15 75.5 227.16 76.49 227.16"/><line class="d" x1="75.5" y1="230.43" x2="75.5" y2="229.02"/><line class="d" x1="75.5" y1="232.72" x2="75.5" y2="231.28"/><line class="d" x1="75.5" y1="234.97" x2="75.5" y2="233.56"/><line class="d" x1="75.5" y1="237.25" x2="75.5" y2="235.81"/><line class="d" x1="75.5" y1="239.5" x2="75.5" y2="238.09"/><line class="d" x1="75.5" y1="241.79" x2="75.5" y2="240.37"/><line class="d" x1="75.5" y1="244.04" x2="75.5" y2="242.63"/><line class="d" x1="75.5" y1="246.32" x2="75.5" y2="244.91"/><line class="d" x1="75.5" y1="248.6" x2="75.5" y2="247.16"/><line class="d" x1="75.5" y1="250.85" x2="75.5" y2="249.44"/><line class="d" x1="75.5" y1="252.72" x2="75.5" y2="251.72"/><line class="d" x1="141.89" y1="252.72" x2="140.9" y2="252.72"/><line class="d" x1="144.17" y1="252.72" x2="142.76" y2="252.72"/><line class="d" x1="146.45" y1="252.72" x2="145.01" y2="252.72"/><line class="d" x1="148.7" y1="252.72" x2="147.29" y2="252.72"/><line class="d" x1="150.99" y1="252.72" x2="149.57" y2="252.72"/><line class="d" x1="153.24" y1="252.72" x2="151.83" y2="252.72"/><line class="d" x1="155.52" y1="252.72" x2="154.11" y2="252.72"/><line class="d" x1="166.45" y1="249.44" x2="166.45" y2="250.85"/><line class="d" x1="166.45" y1="247.16" x2="166.45" y2="248.6"/><line class="d" x1="166.45" y1="244.91" x2="166.45" y2="246.32"/><line class="d" x1="166.45" y1="242.63" x2="166.45" y2="244.04"/><line class="d" x1="166.45" y1="240.37" x2="166.45" y2="241.79"/><line class="d" x1="166.45" y1="238.09" x2="166.45" y2="239.5"/><line class="d" x1="166.45" y1="235.81" x2="166.45" y2="237.25"/><line class="d" x1="166.45" y1="233.56" x2="166.45" y2="234.97"/><line class="d" x1="166.45" y1="231.28" x2="166.45" y2="232.72"/><line class="d" x1="166.45" y1="229.02" x2="166.45" y2="230.43"/><line class="d" x1="154.11" y1="227.16" x2="155.52" y2="227.16"/><line class="d" x1="151.83" y1="227.16" x2="153.24" y2="227.16"/><line class="d" x1="149.57" y1="227.16" x2="150.99" y2="227.16"/><line class="d" x1="147.29" y1="227.16" x2="148.7" y2="227.16"/><line class="d" x1="145.01" y1="227.16" x2="146.45" y2="227.16"/><line class="d" x1="142.76" y1="227.16" x2="144.17" y2="227.16"/><polyline class="d" points="140.9 228.15 140.9 227.16 141.89 227.16"/><line class="d" x1="140.9" y1="230.43" x2="140.9" y2="229.02"/><line class="d" x1="140.9" y1="232.72" x2="140.9" y2="231.28"/><line class="d" x1="140.9" y1="234.97" x2="140.9" y2="233.56"/><line class="d" x1="140.9" y1="237.25" x2="140.9" y2="235.81"/><line class="d" x1="140.9" y1="239.5" x2="140.9" y2="238.09"/><line class="d" x1="140.9" y1="241.79" x2="140.9" y2="240.37"/><line class="d" x1="140.9" y1="244.04" x2="140.9" y2="242.63"/><line class="d" x1="140.9" y1="246.32" x2="140.9" y2="244.91"/><line class="d" x1="140.9" y1="248.6" x2="140.9" y2="247.16"/><line class="d" x1="140.9" y1="250.85" x2="140.9" y2="249.44"/><line class="d" x1="140.9" y1="252.72" x2="140.9" y2="251.72"/><polygon class="e" points="149.32 272.26 143.37 272.26 143.37 259.5 133.71 259.5 133.72 256.67 149.32 256.67 149.32 272.26"/><polygon class="e" points="149.32 221.18 149.32 203.19 143.37 203.19 143.37 218.36 133.71 218.36 133.71 221.18 149.32 221.18"/><polygon class="e" points="47.01 380.42 71.67 380.42 71.67 376.73 47.01 376.73 47.01 342.28 59.45 342.28 59.45 301.15 46.92 301.15 46.92 272.26 71.13 272.26 71.13 264.9 52.69 264.9 52.69 212.56 71.13 212.56 71.13 203.19 43.32 203.19 39.72 203.19 39.72 490.86 60.31 490.86 60.8 491.37 62.03 490.2 62.03 490.2 60.26 488.37 60.26 483.51 47.01 483.51 47.01 444.02 56.14 444.02 56.14 400.93 47.01 400.93 47.01 380.42"/><line class="e" x1="173.01" y1="203.19" x2="196.61" y2="203.19"/><polygon class="e" points="190.04 348.77 190.04 331.74 190.04 314.72 190.04 297.69 190.04 280.67 190.04 263.64 190.04 246.62 190.04 229.59 190.04 212.56 173.01 212.56 173.01 208.3 172.29 208.3 172.29 207.67 172.71 207.67 172.71 206.05 173.01 206.05 173.01 203.19 196.61 203.19 202.2 203.19 202.2 490.86 193.01 490.86 193.01 487.14 193.01 483.51 193.01 483.51 195.71 483.51 195.71 377.54 193.58 377.54 193.58 375.4 195.71 375.4 195.71 353 173.79 353 173.01 353 173.01 351.74 173.79 351.74 195.71 351.74 195.71 350.03 173.79 350.03 173.01 350.03 173.01 348.77 190.04 348.77"/><line class="e" x1="146.96" y1="404.2" x2="147.5" y2="404.2"/><line class="e" x1="149.32" y1="483.51" x2="145.63" y2="483.51"/><polygon class="e" points="145.63 346.49 149.32 346.49 149.32 349.31 154.6 349.31 154.6 353 149.32 353 149.32 354.08 145.63 354.08 143.37 354.08 143.37 346.49 145.63 346.49"/><polygon class="e" points="133.1 376.73 145.63 376.73 145.63 375.38 149.32 375.38 149.32 382.91 147.46 382.91 145.63 382.91 145.63 380.42 120.97 380.42 120.97 376.73 133.1 376.73"/><path class="e" d="M137.64,483.51h8V404.2h3.69v79.31h6.19v7.35H137.85l-.48.51-1.23-1.17,1.5-1.53Z"/><line class="e" x1="145.63" y1="483.51" x2="145.63" y2="404.2"/></svg>