<svg xmlns="http://www.w3.org/2000/svg" viewBox="0 0 113.39 198.43"><defs><style>.a,.c{fill:none;stroke-linecap:round;stroke-linejoin:round;stroke-width:0.1px;}.a{stroke:#1d1d1b;}.b{fill:silver;}.c{stroke:blue;}.d{fill:#1d1d1b;}</style></defs><line class="a" x1="79.24" y1="58.62" x2="65.91" y2="58.62"/><line class="a" x1="79.24" y1="59.9" x2="65.91" y2="59.9"/><line class="a" x1="43.82" y1="57.08" x2="57.51" y2="57.08"/><rect class="a" x="78.09" y="164.59" width="0.37" height="0.98"/><rect class="a" x="80.02" y="141.48" width="1.02" height="1.02"/><polyline class="a" points="90.18 122.89 84.93 125.43 84.41 124.91 84.56 126.41 84.02 125.89 78.77 128.43"/><polyline class="a" points="85.5 128.73 84.47 127.71 83.45 128.73"/><line class="a" x1="84.47" y1="127.71" x2="84.47" y2="144.02"/><line class="a" x1="77.29" y1="172.73" x2="88.06" y2="172.73"/><line class="a" x1="80.26" y1="141.48" x2="80.26" y2="127.71"/><line class="a" x1="80.78" y1="141.48" x2="80.78" y2="127.45"/><line class="a" x1="80.78" y1="137.92" x2="88.17" y2="137.92"/><line class="a" x1="80.78" y1="133.83" x2="88.17" y2="133.83"/><line class="a" x1="80.78" y1="135.87" x2="88.17" y2="135.87"/><polyline class="a" points="88.17 144.01 81.31 144.01 81.05 143.97 80.78 143.88 80.59 143.71 80.42 143.52 80.33 143.25 80.28 143"/><polyline class="a" points="40.8 165.77 45.94 171.37 60.31 171.37 65.46 165.77"/><line class="a" x1="80.78" y1="131.79" x2="88.17" y2="131.79"/><line class="a" x1="80.78" y1="129.75" x2="88.17" y2="129.75"/><line class="a" x1="80.78" y1="127.71" x2="88.17" y2="127.71"/><line class="a" x1="84.47" y1="125.67" x2="88.17" y2="125.67"/><line class="a" x1="70.6" y1="166.59" x2="71.65" y2="166.59"/><polyline class="a" points="70.6 171.71 77.29 171.71 77.29 172.73 70.6 172.73 70.6 166.07"/><polyline class="a" points="88.06 166.07 88.06 172.73 89.08 172.73 89.08 166.07"/><line class="a" x1="81.05" y1="141.97" x2="88.17" y2="141.97"/><line class="a" x1="80.78" y1="139.96" x2="88.17" y2="139.96"/><line class="a" x1="71.65" y1="166.07" x2="71.65" y2="172.73"/><line class="a" x1="71.17" y1="166.59" x2="71.17" y2="171.71"/><line class="a" x1="71.08" y1="166.59" x2="71.08" y2="171.71"/><line class="a" x1="88.51" y1="166.59" x2="88.51" y2="171.71"/><line class="a" x1="88.6" y1="166.59" x2="88.6" y2="171.71"/><line class="a" x1="76.77" y1="172.19" x2="71.65" y2="172.19"/><line class="a" x1="76.77" y1="172.28" x2="71.65" y2="172.28"/><polyline class="a" points="36.89 166.07 44.6 174.43 61.66 174.43 69.37 166.07"/><polyline class="a" points="66.96 167.18 61.2 173.41 45.05 173.41 39.3 167.18"/><line class="a" x1="60.25" y1="172.93" x2="46.01" y2="172.93"/><polyline class="a" points="66.2 166.46 60.75 172.39 45.49 172.39 40.04 166.46"/><line class="a" x1="60.25" y1="172.86" x2="46.01" y2="172.86"/><line class="a" x1="52.11" y1="171.37" x2="45.94" y2="171.37"/><line class="a" x1="40" y1="167.22" x2="44.75" y2="172.39"/><line class="a" x1="40.04" y1="167.18" x2="44.79" y2="172.32"/><line class="a" x1="65.85" y1="166.85" x2="66.61" y2="167.55"/><line class="a" x1="66.26" y1="167.22" x2="61.51" y2="172.39"/><line class="a" x1="66.2" y1="167.18" x2="61.44" y2="172.32"/><line class="a" x1="61.1" y1="172.02" x2="61.86" y2="172.71"/><line class="a" x1="77.59" y1="164.53" x2="77.59" y2="165.57"/><polyline class="a" points="73.99 166.07 73.99 166.59 78.09 166.59 78.09 163.51 73.99 163.51"/><line class="a" x1="78.09" y1="165.57" x2="73.99" y2="165.57"/><line class="a" x1="77.59" y1="165.09" x2="74.51" y2="165.09"/><line class="a" x1="78.09" y1="164.53" x2="73.99" y2="164.53"/><line class="a" x1="77.59" y1="165.01" x2="74.51" y2="165.01"/><line class="a" x1="74.51" y1="164.53" x2="74.51" y2="165.57"/><polyline class="a" points="65.92 57.08 65.92 56.58 79.24 56.58 79.24 57.08"/><line class="a" x1="79.24" y1="57.6" x2="65.91" y2="57.6"/><line class="a" x1="78.74" y1="58.05" x2="66.44" y2="58.05"/><line class="a" x1="78.74" y1="58.14" x2="66.44" y2="58.14"/><line class="b" x1="80.3" y1="87.5" x2="80.34" y2="87.5"/><polygon class="b" points="61.55 59.43 61.55 65.58 80.3 65.58 80.3 87.5 80.34 87.5 86.43 87.5 86.43 59.43 79.06 59.43 65.75 59.43 61.55 59.43"/><path class="b" d="M86.34,119.42h.12l.11,0,.1.07.08.08.06.11,0,.11,0,.12v.34l0,.17,0,.16-.05.17,0,.16-.07.16-.07.15H82.72l-.07-.15-.07-.16,0-.16,0-.17,0-.16,0-.17V120l0-.12,0-.11.06-.11.08-.08.1-.07.11,0H83l-.16-1.75,0-.53.06-.53.12-.51.2-.48.26-.38.34-.29.39-.19.42-.06.43.06.39.19.34.29.26.38.2.48.12.51.06.53,0,.53-.16,1.75Zm-2.5.13.4,0H85l.4,0,.32,0H83.52Z"/><rect class="b" x="82.28" y="101.2" width="4.69" height="3.3"/><rect class="c" x="56.69" y="69.34" width="10.35" height="10.31"/><rect class="c" x="56.17" y="68.82" width="11.4" height="11.33"/><polygon class="d" points="61.79 88.01 71.65 88.01 71.65 100.71 73.34 100.71 73.34 101.73 71.65 101.73 71.65 118.14 70.52 118.14 70.52 90.57 61.79 90.57 61.79 88.01"/><polygon class="d" points="70.6 127.91 68.98 127.91 68.98 126.37 70.52 126.37 70.52 125.33 71.65 125.33 71.65 163.51 73.99 163.51 73.99 166.07 68.65 166.07 67.33 167.52 65.46 165.77 67.54 163.51 70.6 163.51 70.6 127.91"/><rect class="d" x="57.51" y="57.08" width="8.4" height="2.82"/><polygon class="d" points="38.72 163.51 40.8 165.77 38.91 167.52 37.59 166.07 32.36 166.07 32.36 88.01 33.88 88.01 33.88 57.08 43.82 57.08 43.82 59.9 36.7 59.9 36.7 88.01 41.95 88.01 41.95 90.57 34.92 90.57 34.92 126.37 38.72 126.37 38.72 127.91 34.92 127.91 34.92 163.51 38.72 163.51"/><polygon class="d" points="86.62 88.01 86.62 59.9 79.24 59.9 79.24 57.08 89.45 57.08 89.45 88.01 90.73 88.01 90.73 166.07 86.3 166.07 86.3 163.51 88.17 163.51 88.17 101.73 81.46 101.73 81.46 106.31 80.52 106.31 80.52 100.71 88.17 100.71 88.17 90.57 80.52 90.57 80.52 88.01 86.62 88.01"/><polyline class="d" points="88.17 122.85 80.52 122.85 80.52 112.63 81.46 112.63 81.46 121.83 88.17 121.83"/></svg>