<?xml version="1.0" encoding="UTF-8"?>
<svg id="Layer_1" data-name="Layer 1" xmlns="http://www.w3.org/2000/svg" viewBox="0 0 297.64 694.31">
  <defs>
    <style>
      .cls-1, .cls-2 {
        fill: #231f20;
      }

      .cls-2 {
        font-family: Inter-Regular, Inter;
        font-size: 12px;
        font-variation-settings: 'opsz' 14, 'wght' 400;
      }

      .cls-3 {
        fill: none;
        stroke: #231f20;
        stroke-miterlimit: 10;
        stroke-width: .5px;
      }

      .cls-4 {
        letter-spacing: -.08em;
      }

      .cls-5 {
        letter-spacing: -.02em;
      }

      .cls-6 {
        letter-spacing: -.02em;
      }

      .cls-7 {
        letter-spacing: -.02em;
      }

      .cls-8 {
        letter-spacing: -.02em;
      }

      .cls-9 {
        letter-spacing: -.01em;
      }

      .cls-10 {
        letter-spacing: -.04em;
      }

      .cls-11 {
        letter-spacing: 0em;
      }

      .cls-12 {
        letter-spacing: 0em;
      }

      .cls-13 {
        letter-spacing: .02em;
      }

      .cls-14 {
        letter-spacing: 0em;
      }

      .cls-15 {
        letter-spacing: 0em;
      }
    </style>
  </defs>
  <rect class="cls-3" x="51.99" y="68.41" width="155.88" height="90.49"/>
  <text class="cls-2" transform="translate(32.36 25.35)"><tspan class="cls-14" x="0" y="0">M</tspan><tspan x="10.9" y="0">y </tspan><tspan class="cls-7" x="21.02" y="0">r</tspan><tspan x="25.34" y="0">es</tspan><tspan class="cls-15" x="38.67" y="0">e</tspan><tspan x="45.78" y="0">a</tspan><tspan class="cls-7" x="52.52" y="0">r</tspan><tspan x="56.84" y="0">ch question </tspan><tspan class="cls-15" x="126.43" y="0">c</tspan><tspan x="133.4" y="0">an be </tspan><tspan x="0" y="14.4">(best) ans</tspan><tspan class="cls-5" x="56.89" y="14.4">w</tspan><tspan x="66.5" y="14.4">e</tspan><tspan class="cls-7" x="73.49" y="14.4">r</tspan><tspan x="77.81" y="14.4">ed </tspan><tspan class="cls-8" x="95.53" y="14.4">b</tspan><tspan x="102.64" y="14.4">y:</tspan></text>
  <text class="cls-2" transform="translate(59.24 96.42)"><tspan x="0" y="0">…collecting nume</tspan><tspan class="cls-15" x="100.44" y="0">r</tspan><tspan x="105.07" y="0">i</tspan><tspan class="cls-15" x="107.98" y="0">c</tspan><tspan x="114.95" y="0">al </tspan><tspan x="0" y="14.4">da</tspan><tspan class="cls-14" x="14.09" y="14.4">t</tspan><tspan x="18.07" y="14.4">a </tspan><tspan class="cls-12" x="28.18" y="14.4">t</tspan><tspan x="31.99" y="14.4">o m</tspan><tspan class="cls-15" x="53.07" y="14.4">e</tspan><tspan x="60.19" y="14.4">asu</tspan><tspan class="cls-7" x="80.36" y="14.4">r</tspan><tspan x="84.67" y="14.4">e, </tspan><tspan class="cls-12" x="98.5" y="14.4">t</tspan><tspan x="102.31" y="14.4">est, or </tspan><tspan class="cls-8" x="0" y="28.8">e</tspan><tspan class="cls-11" x="6.76" y="28.8">v</tspan><tspan x="13.45" y="28.8">alua</tspan><tspan class="cls-12" x="36.93" y="28.8">t</tspan><tspan x="40.73" y="28.8">e </tspan><tspan class="cls-7" x="51.11" y="28.8">r</tspan><tspan x="55.42" y="28.8">elationships, </tspan><tspan class="cls-15" x="0" y="43.2">p</tspan><tspan x="7.46" y="43.2">at</tspan><tspan class="cls-12" x="18.13" y="43.2">t</tspan><tspan x="21.94" y="43.2">e</tspan><tspan class="cls-13" x="28.93" y="43.2">r</tspan><tspan x="33.64" y="43.2">ns, or ou</tspan><tspan class="cls-12" x="83.27" y="43.2">t</tspan><tspan x="87.08" y="43.2">comes.</tspan></text>
  <rect class="cls-3" x="51.99" y="311.76" width="155.88" height="90.49"/>
  <text class="cls-2" transform="translate(57.78 339.77)"><tspan x="0" y="0">…</tspan><tspan class="cls-6" x="10.37" y="0">e</tspan><tspan x="17.1" y="0">xplo</tspan><tspan class="cls-15" x="41.1" y="0">r</tspan><tspan x="45.73" y="0">ing m</tspan><tspan class="cls-15" x="76.97" y="0">e</tspan><tspan x="84.09" y="0">anings, </tspan><tspan class="cls-6" x="0" y="14.4">e</tspan><tspan x="6.73" y="14.4">xpe</tspan><tspan class="cls-15" x="27.62" y="14.4">r</tspan><tspan x="32.26" y="14.4">iences, or </tspan><tspan x="0" y="28.8">p</tspan><tspan class="cls-7" x="7.35" y="28.8">r</tspan><tspan x="11.67" y="28.8">ocesses </tspan><tspan class="cls-12" x="62.09" y="28.8">t</tspan><tspan x="65.89" y="28.8">o gain </tspan><tspan x="0" y="43.2">in-depth unders</tspan><tspan class="cls-14" x="90.98" y="43.2">t</tspan><tspan x="94.97" y="43.2">anding.</tspan></text>
  <rect class="cls-3" x="52.18" y="595.8" width="155.88" height="90.49"/>
  <text class="cls-2" transform="translate(57.97 631.01)"><tspan x="0" y="0">…c</tspan><tspan class="cls-7" x="17.23" y="0">r</tspan><tspan class="cls-15" x="21.54" y="0">e</tspan><tspan x="28.66" y="0">ating, </tspan><tspan class="cls-12" x="63.51" y="0">t</tspan><tspan x="67.32" y="0">esting, or </tspan><tspan class="cls-7" x="0" y="14.4">r</tspan><tspan x="4.32" y="14.4">efining a p</tspan><tspan class="cls-7" x="63.94" y="14.4">r</tspan><tspan x="68.26" y="14.4">oduct, </tspan><tspan x="0" y="28.8">model, or in</tspan><tspan class="cls-12" x="66.87" y="28.8">t</tspan><tspan x="70.68" y="28.8">e</tspan><tspan class="cls-13" x="77.68" y="28.8">r</tspan><tspan class="cls-8" x="82.38" y="28.8">v</tspan><tspan x="88.89" y="28.8">ention.</tspan></text>
  <rect class="cls-3" x="25.54" y="7" width="189.34" height="42.38"/>
  <polyline class="cls-3" points="38.66 49.38 38.66 357.01 51.99 357.01"/>
  <polyline class="cls-3" points="51.99 357.01 38.66 357.01 38.66 641.05 51.99 641.05"/>
  <line class="cls-3" x1="38.66" y1="113.66" x2="51.99" y2="113.66"/>
  <text class="cls-2" transform="translate(84.32 179.82)"><tspan x="0" y="0">Su</tspan><tspan class="cls-13" x="14.79" y="0">r</tspan><tspan class="cls-8" x="19.5" y="0">ve</tspan><tspan x="32.77" y="0">ys/ </tspan><tspan x="0" y="14.4">Questionnai</tspan><tspan class="cls-7" x="67.45" y="14.4">r</tspan><tspan x="71.77" y="14.4">es</tspan></text>
  <text class="cls-2" transform="translate(84.32 224.12)"><tspan x="0" y="0">S</tspan><tspan class="cls-14" x="7.7" y="0">t</tspan><tspan x="11.68" y="0">atisti</tspan><tspan class="cls-15" x="38.42" y="0">c</tspan><tspan x="45.39" y="0">al </tspan><tspan class="cls-4" x="58.41" y="0">T</tspan><tspan x="65.22" y="0">es</tspan><tspan class="cls-12" x="78.55" y="0">t</tspan><tspan x="82.36" y="0">s/ Modelling</tspan></text>
  <text class="cls-2" transform="translate(84.32 254)"><tspan x="0" y="0">E</tspan><tspan class="cls-9" x="7.21" y="0">n</tspan><tspan x="14.13" y="0">vi</tspan><tspan class="cls-7" x="23.78" y="0">r</tspan><tspan x="28.1" y="0">onmen</tspan><tspan class="cls-14" x="66.98" y="0">t</tspan><tspan x="70.96" y="0">al </tspan><tspan x="0" y="14.4">Simulation</tspan></text>
  <polyline class="cls-3" points="66.03 158.9 66.03 182.66 80.06 182.66"/>
  <polyline class="cls-3" points="66.03 182.53 66.03 219.75 80.06 219.75"/>
  <polyline class="cls-3" points="66.03 217.77 66.03 254.99 80.06 254.99"/>
  <polyline class="cls-3" points="66.03 254.86 66.03 292.08 80.06 292.08"/>
  <text class="cls-2" transform="translate(84.32 292.96)"><tspan x="0" y="0">...</tspan></text>
  <text class="cls-2" transform="translate(84.32 430.25)"><tspan x="0" y="0">Obse</tspan><tspan class="cls-13" x="29.85" y="0">r</tspan><tspan class="cls-11" x="34.56" y="0">v</tspan><tspan x="41.24" y="0">ation</tspan></text>
  <text class="cls-2" transform="translate(84.32 467.46)"><tspan x="0" y="0">Case Stu</tspan><tspan class="cls-14" x="50.93" y="0">d</tspan><tspan x="58.34" y="0">y</tspan></text>
  <text class="cls-2" transform="translate(84.32 495.5)"><tspan x="0" y="0">In</tspan><tspan class="cls-12" x="10.31" y="0">t</tspan><tspan x="14.12" y="0">e</tspan><tspan class="cls-13" x="21.12" y="0">r</tspan><tspan x="25.82" y="0">vi</tspan><tspan class="cls-5" x="35.47" y="0">e</tspan><tspan x="42.25" y="0">ws / </tspan><tspan class="cls-10" x="69.48" y="0">F</tspan><tspan x="76.09" y="0">ocus </tspan><tspan x="0" y="14.4">G</tspan><tspan class="cls-7" x="8.95" y="14.4">r</tspan><tspan x="13.27" y="14.4">oups</tspan></text>
  <polyline class="cls-3" points="66.03 402.25 66.03 426.01 80.06 426.01"/>
  <polyline class="cls-3" points="66.03 425.88 66.03 463.1 80.06 463.1"/>
  <polyline class="cls-3" points="66.03 461.12 66.03 498.34 80.06 498.34"/>
  <polyline class="cls-3" points="66.03 498.21 66.03 535.42 80.06 535.42"/>
  <text class="cls-2" transform="translate(84.32 532.59)"><tspan x="0" y="0">Discourse / Document </tspan><tspan x="0" y="14.4">Ana</tspan><tspan class="cls-14" x="22.11" y="14.4">l</tspan><tspan x="25.07" y="14.4">ysis</tspan></text>
  <polyline class="cls-3" points="66.03 535.42 66.03 572.64 80.06 572.64"/>
  <text class="cls-2" transform="translate(84.32 573.53)"><tspan x="0" y="0">...</tspan></text>
  <g>
    <polyline class="cls-3" points="208.06 641.05 263.16 641.05 263.16 357.01 222.62 357.01"/>
    <polygon class="cls-1" points="225.94 352.92 226.62 353.65 223.01 357.01 226.62 360.36 225.94 361.1 221.54 357.01 225.94 352.92"/>
  </g>
  <g>
    <polyline class="cls-3" points="263.16 359.79 263.16 113.66 222.63 113.66"/>
    <polygon class="cls-1" points="225.94 109.57 226.62 110.3 223.01 113.66 226.62 117.02 225.94 117.75 221.54 113.66 225.94 109.57"/>
  </g>
</svg>