<?xml version="1.0" encoding="UTF-8"?>
<svg id="Layer_1" data-name="Layer 1" xmlns="http://www.w3.org/2000/svg" viewBox="0 0 595.28 556.43">
  <defs>
    <style>
      .cls-1 {
        stroke: #9f5021;
        stroke-width: 1.3px;
      }

      .cls-1, .cls-2, .cls-3, .cls-4 {
        fill: none;
        stroke-linecap: round;
        stroke-linejoin: round;
      }

      .cls-5 {
        fill: #231f20;
        font-family: Inter-Regular, Inter;
        font-size: 10px;
        font-variation-settings: 'opsz' 14, 'wght' 400;
      }

      .cls-2 {
        stroke-dasharray: 5.2 5.2;
      }

      .cls-2, .cls-4 {
        stroke: #808285;
        stroke-width: .32px;
      }

      .cls-3 {
        stroke: #3a3331;
        stroke-width: .65px;
      }
    </style>
  </defs>
  <polyline class="cls-2" points="390.03 193.71 389.38 196.76 385.48 200.65 378.32 203.04"/>
  <polyline class="cls-2" points="443.19 96.07 422.95 120.51 414.77 135.21 412.42 142.76 403.38 156.86 397.49 166.6 392.49 179.72 392.38 180.4"/>
  <path class="cls-2" d="M428.72,120.67c-1.73,1.48-3.38,3.06-5.15,4.51-2.1,1.72-3.19,2.6-4.08,5.32-.58,1.77-1.24,4.77-.45,6.71.51,1.26,1.47,1.62,2.58,2.07,1.08.43,2.04.96,2.93,1.73"/>
  <path class="cls-2" d="M412.2,160.89c-3.42,2.68-8.39,6.84-9.3,11.77"/>
  <path class="cls-2" d="M390.03,199.4c-.84.79-1.6,1.64-2.38,2.48-.68.73-1.66,1.74-2.82,1.82-1.04.08-2.41-.56-3.3-.87-1.17-.4-2.15-.54-3.33.03"/>
  <path class="cls-2" d="M359.09,217.09c-7.52,3.94-15.28,7.4-22.64,11.65-3.69,2.13-7.24,4.42-10.67,6.94-.41.3-2.25,1.77-2.78,1.94-.99.3-1.68-1.33-1.98-1.9-.39-.74-.97-2.07-2.07-2.18-1.01-.1-2.23.64-2.99,1.09"/>
  <path class="cls-2" d="M434.7,82.92c-3.12,4.55-6.23,9.1-9.35,13.65-1.54,2.24-3.07,4.48-4.61,6.72-.77,1.12-1.54,2.24-2.3,3.36-.1.14-.19.28-.29.42-.1.14-.22.26-.29.42-.14.34-.27.68-.41,1.02-.27.68-.54,1.36-.81,2.04-1,2.53-2.01,5.06-3.01,7.59-.5,1.27-1,2.53-1.5,3.8-.13.32-.3.61-.37.95-.07.36-.14.71-.22,1.07-.15.71-.29,1.43-.44,2.14-.28,1.37-.56,2.74-.84,4.11-.07.34-.11.68-.27,1-.16.3-.31.61-.47.92-.31.61-.62,1.22-.94,1.83-1.25,2.44-2.5,4.88-3.74,7.32-1.3,2.55-2.61,5.1-3.92,7.65-.6,1.17-1.2,2.33-1.8,3.5-.61,1.19-1.29,2.34-1.78,3.59-1.01,2.57-2.02,5.14-3.03,7.7-.5,1.28-1.01,2.57-1.52,3.85-.25.64-.53,1.27-.67,1.95-.15.67-.29,1.34-.43,2.01-.29,1.35-.58,2.69-.87,4.04-.29,1.35-.53,2.71-.88,4.04-.35,1.34-.69,2.67-1.04,4.01-.17.67-.34,1.34-.52,2.01-.04.17-.09.33-.13.5-.02.08-.04.17-.07.25-.02.1-.1.14-.16.2-.23.26-.45.52-.67.78-.85.98-1.71,1.96-2.56,2.94-.11.12-.17.27-.32.37-.15.09-.3.18-.45.28-.3.19-.6.37-.9.56-.6.37-1.2.74-1.8,1.11-2.4,1.48-4.79,2.96-7.19,4.44"/>
  <polyline class="cls-2" points="359.09 208.41 356.88 209 332.56 215.75 310.54 222.9 309.43 223.31"/>
  <line class="cls-2" x1="265.94" y1="312.9" x2="290.94" y2="289.2"/>
  <line class="cls-2" x1="264.47" y1="310.36" x2="289.47" y2="286.65"/>
  <line class="cls-2" x1="290.94" y1="289.2" x2="289.47" y2="286.65"/>
  <path class="cls-2" d="M426.09,69.58c-3.79,7.08-7.58,14.16-11.37,21.24-.47.89-.95,1.77-1.42,2.66-.12.22-.24.44-.36.66-.13.25-.21.5-.28.77-.14.58-.29,1.15-.43,1.73-.58,2.3-1.15,4.61-1.73,6.92-.58,2.3-1.15,4.61-1.73,6.91-.08.33-.08.66-.12,1-.04.33-.08.66-.11,1-.08.67-.15,1.33-.22,2-.15,1.33-.3,2.67-.45,4-.03.3-.02.6-.14.89-.11.27-.22.54-.32.81-.22.54-.43,1.08-.65,1.62-.43,1.08-.86,2.16-1.3,3.23-.86,2.16-1.73,4.31-2.6,6.47-1.45,3.6-2.92,7.2-4.39,10.79-1.68,4.09-3.32,8.18-4.97,12.28-.44,1.08-.88,2.16-1.32,3.24-.44,1.08-.66,2.22-.96,3.33-.6,2.23-1.19,4.47-1.79,6.7-.64,2.4-1.39,4.76-2.11,7.14-.09.3-.18.59-.27.89-.1.32-.32.52-.5.76-.37.49-.75.98-1.12,1.47-.37.49-.74.98-1.12,1.47-.19.24-.37.49-.56.73-.21.27-.44.51-.69.74-2.19,1.98-4.39,3.95-6.58,5.93-1.1.99-2.19,1.98-3.29,2.97-.24.22-.44.48-.77.61-.21.09-.42.17-.62.25-.42.17-.83.33-1.25.5-6.67,2.66-13.34,5.35-19.98,8.07-1.66.68-3.32,1.36-4.98,2.04-.83.34-1.66.68-2.49,1.02-.41.17-.83.34-1.24.51-.59.24-1.19.42-1.79.62-5.4,1.76-10.79,3.52-16.2,5.26-2.7.87-5.4,1.74-8.1,2.61-1.89.61-3.82,1.01-5.74,1.48l-2.67.64c-.45.11-.89.21-1.34.32-.11.03-.22.05-.33.08-.11.03-.19-.02-.29-.03-.19-.03-.38-.05-.57-.08l-4.59-.61c-.48-.06-.96-.09-1.43-.24-.53-.17-1.06-.33-1.59-.5-1.06-.33-2.13-.66-3.19-1-.3-.09-2.91-.89-3.2-1.04-1.1-.58-2.21-1.16-3.31-1.75l-3.31-1.75c-.55-.29-1.1-.58-1.65-.87-.57-.3-1.1-.67-1.65-1.01l-3.29-2.03c-.55-.34-1.1-.68-1.64-1.02-.29-.18-.38-.47-.55-.73-.17-.26-.34-.51-.51-.77-1.37-2.04-2.73-4.08-4.1-6.12-.24-.36-.4-.76-.59-1.14l-.59-1.14c-.39-.76-.79-1.51-1.18-2.27l-.59-1.13c-.1-.2-.2-.4-.26-.61-.06-.24-.12-.47-.18-.71-.24-.94-.48-1.89-.72-2.83-.15-.59-1.32-5.13-1.41-5.74-.26-1.76-.5-3.52-.75-5.29-.12-.88-.25-1.76-.38-2.64-.05-.33-.32-2.38-.41-2.71l-2.23-8.31c-.18-.69-.37-1.38-.56-2.08-.13-.48-.25-1.24-.51-1.7-.4-.68-.82-1.34-1.24-2.01-2.37-3.71-4.86-7.34-7.16-11.1-1.13-1.85-2.39-3.61-3.6-5.39-1.39-2.05-2.79-4.09-4.18-6.14-1.07-1.56-3.74-5.39-4.75-6.99-1.08-1.71-2.15-3.42-3.23-5.13-2.15-3.42-4.33-6.83-6.43-10.28-1.05-1.73-2.1-3.45-3.15-5.18-.53-.86-1.05-1.72-1.58-2.59-.27-.44-.55-.86-.79-1.32-.27-.51-.53-1.02-.8-1.53-2.12-4.07-4.24-8.15-6.36-12.22-.83-1.6-1.49-3.28-2.22-4.93-.72-1.64-1.44-3.28-2.16-4.92-.72-1.64-1.44-3.28-2.16-4.92-.45-1.03-2.49-4.77-3.02-5.76-1.04-1.95-2.08-3.91-3.12-5.86-.52-.98-1.04-1.95-1.56-2.93-.29-.55-.51-1.13-.77-1.7-.25-.57-.51-1.14-.77-1.71-1.02-2.28-2.04-4.55-3.06-6.83-.55-1.22-1.08-2.44-1.71-3.62l-2.31-4.35"/>
  <path class="cls-2" d="M417.3,55.97c-2.66,7.04-5.32,14.08-7.98,21.13-.33.88-.66,1.76-.99,2.64-.17.44-.33.88-.5,1.32-.21.56-.22,1.13-.29,1.7-.28,2.45-.56,4.91-.84,7.36-.28,2.45-.56,4.91-.84,7.36-.13,1.12-.29,7.48-.33,8.6,0,.31-.02.62-.03.94,0,.16.03.31-.02.47-.04.14-.09.28-.13.42-.17.57-.34,1.13-.52,1.69-.35,1.13-.69,2.26-1.04,3.39-.69,2.26-1.39,4.52-2.08,6.78-1.1,3.56-2.16,7.14-3.2,10.72-.21.73-.42,1.46-.63,2.18-.3,1.04-.77,2.01-1.18,3.01-.9,2.17-1.8,4.33-2.7,6.5-.45,1.08-.9,2.17-1.35,3.25-.23.54-.45,1.08-.68,1.62-.23.54-.4,1.09-.57,1.65-.7,2.22-1.4,4.43-2.1,6.65-.75,2.38-1.54,4.75-2.35,7.11-.2.59-.4,1.18-.61,1.77-.2.59-.33,1.19-.69,1.73-.69,1.03-1.37,2.06-2.06,3.09-.34.52-.69,1.03-1.03,1.54-.23.34-.52.63-.78.94-.27.32-.53.63-.8.95-1.06,1.27-2.13,2.53-3.2,3.8-1.07,1.27-2.13,2.53-3.2,3.8-.53.63-1.07,1.26-1.6,1.9-.27.32-.53.63-.8.95-.21.25-.37.54-.69.7-5.37,2.73-10.74,5.46-16.08,8.23-2.73,1.42-5.46,2.83-8.2,4.25-.34.18-.68.35-1.02.53-.49.25-1.47.52-1.98.68-1.47.48-2.93.96-4.4,1.44-2.93.96-5.87,1.91-8.8,2.86-2.94.94-5.88,1.89-8.82,2.83-1.47.47-2.94.94-4.41,1.42-.59.19-1.09.35-1.7.45-.39.06-.79.12-1.18.18-1.58.24-3.16.48-4.74.72-.39.06-.79.12-1.18.18-.1.01-.18.07-.29.03-.07-.03-.14-.05-.21-.08-.14-.05-.28-.1-.42-.15-.57-.2-1.14-.41-1.7-.61-1.79-.65-3.59-1.28-5.39-1.91-1.04-.36-2.07-.72-3.11-1.08-.56-.2-1.11-.41-1.64-.67-.6-.29-1.19-.58-1.79-.87-2.41-1.17-4.82-2.37-7.25-3.5-1.28-.6-2.57-1.2-3.85-1.8-.32-.15-.64-.3-.96-.45-.08-.04-.16-.07-.24-.11-.08-.04-.17-.04-.23-.12-.1-.13-.2-.26-.3-.39-.39-.52-.79-1.03-1.18-1.54-.79-1.03-1.57-2.06-2.36-3.09-.39-.51-.79-1.03-1.18-1.54-.24-.31-.54-.56-.82-.82-.52-.5-1.05-1-1.58-1.5-.26-.25-.53-.5-.79-.75-.13-.12-.26-.25-.39-.37-.07-.06-.13-.12-.2-.19-.09-.08-.09-.19-.13-.29-.64-1.62-1.27-3.24-1.9-4.86l-.48-1.22c-.24-.61-.27-.83-.38-1.47-.2-1.13-.39-2.26-.59-3.38-.25-1.46-.51-2.93-.76-4.39-.21-1.19-.5-2.35-.78-3.52-.35-1.47-.7-2.95-1.06-4.42-.35-1.47-.7-2.95-1.06-4.42-.09-.37-.18-.74-.26-1.1-.02-.1-.21-.96-.26-1.05-.15-.28-.3-.55-.45-.83-.9-1.58-1.86-3.13-2.81-4.69-1.06-1.74-2.14-3.47-3.18-5.22-.42-.7-.83-1.4-1.23-2.11-.16-.29-.3-.59-.48-.86-.35-.51-.69-1.02-1.04-1.54-2.76-4.09-5.51-8.19-8.27-12.28-4.71-7-9.3-14.08-13.82-21.2-.47-.75-2.69-4.18-3.1-4.97-1.1-2.1-2.2-4.2-3.29-6.3-1.1-2.1-2.2-4.2-3.29-6.3-.48-.92-2.28-5.07-2.7-6.01-1.17-2.65-2.33-5.3-3.5-7.94-.2-.45-.47-.86-.71-1.29-.24-.44-.49-.88-.73-1.32l-1.46-2.63c-.97-1.76-1.95-3.51-2.92-5.26-.49-.88-.97-1.76-1.46-2.63-.24-.44-.52-.86-.73-1.33-.24-.54-.48-1.09-.73-1.63-.97-2.17-1.94-4.35-2.91-6.52-1.03-2.31-1.98-4.64-3.17-6.88-1.61-3.02-3.21-6.04-4.81-9.07"/>
  <path class="cls-2" d="M408.02,42.75c-1.47,6.95-2.95,13.91-4.41,20.86-.18.87-.37,1.74-.55,2.61-.09.44-.18.87-.28,1.3-.05.22-.09.44-.14.65-.06.29-.04.58-.04.87.03,2.59.05,5.18.08,7.77l.08,7.77c.03,3.05.2,6.1.32,9.16.03.65.05,1.29.08,1.94,0,.16-.07.29-.1.44-.03.15-.07.29-.1.44-.07.3-.13.59-.2.89-.27,1.18-.53,2.36-.79,3.54-.53,2.36-1.06,4.72-1.59,7.08-.18.8-1.42,6.12-1.54,6.93-.19,1.31-.39,2.61-.58,3.92-.1.65-.19,1.31-.29,1.96-.05.33-.1.65-.15.98-.05.31-.49,1.26-.61,1.53-.92,2.18-1.85,4.35-2.77,6.53-.92,2.17-1.85,4.35-2.79,6.52-.47,1.08-.83,2.2-1.23,3.3-.4,1.1-.8,2.21-1.21,3.31-.84,2.3-1.67,4.6-2.54,6.89-.44,1.15-.87,2.29-1.31,3.44-.22.57-.44,1.15-.65,1.72-.22.58-.59,1.06-.9,1.59-.61,1.05-1.23,2.1-1.84,3.14-.84,1.43-1.8,2.76-2.73,4.13-2.02,2.97-4.03,5.95-6.05,8.93-.5.74-1.01,1.49-1.51,2.23-.25.37-.51.74-.76,1.12-.09.14-.15.3-.31.4-.06.04-.12.09-.19.13-.5.34-1.01.68-1.51,1.02-1,.68-2.01,1.36-3.01,2.03-2.01,1.36-4.02,2.72-6.01,4.09-2.12,1.45-4.24,2.91-6.36,4.36-.53.36-1.06.73-1.59,1.09-.27.18-.53.36-.79.55-.31.21-.59.45-.96.57-3.13,1.02-6.26,2.05-9.39,3.07-6.26,2.04-12.53,4.03-18.8,6.04-.78.25-1.57.5-2.35.75-.2.06-.84.31-1.07.32-.17,0-.34.01-.51.02-.68.03-1.36.05-2.04.08-1.36.05-2.72.1-4.08.16-.12,0-.22.02-.33-.06-.07-.06-.15-.12-.22-.18-.15-.12-.29-.24-.44-.36-.29-.24-.59-.48-.88-.72-.29-.24-.59-.48-.88-.72-.31-.26-.59-.54-.99-.7-2.01-.81-4.04-1.56-6.03-2.44l-3.86-1.71c-1.31-.58-2.58-1.23-3.95-1.68l-4.54-1.47c-.38-.12-.76-.25-1.13-.37-.19-.06-.38-.12-.57-.18-.09-.03-.19-.02-.27-.1l-.17-.19c-.46-.52-.91-1.03-1.37-1.54-.91-1.03-1.82-2.05-2.74-3.08-.23-.26-.46-.51-.68-.77-.1-.11-.14-.26-.32-.3-.09-.02-.17-.04-.26-.06l-1.03-.25c-.69-.16-1.37-.33-2.06-.49-.17-.04-.34-.08-.52-.12-.09-.02-.17-.04-.26-.06-.11-.03-.13-.11-.18-.19-.21-.31-.42-.63-.62-.94-.41-.63-.83-1.26-1.24-1.88-.21-.32-.42-.63-.62-.94-.1-.16-.21-.31-.31-.47-.05-.08-.1-.16-.16-.24-.08-.12-.07-.26-.1-.39-.49-2.22-.96-4.44-1.44-6.66-1.17-5.39-2.32-10.79-3.48-16.19-.15-.69-1.7-3.33-2.02-3.9-.85-1.51-1.7-3.01-2.56-4.52-.77-1.35-1.53-2.71-2.25-4.09-.14-.27-.28-.54-.42-.82-.13-.27-.32-.49-.48-.73-.17-.25-.33-.5-.5-.75-.67-1-1.34-2-2-3-2.67-4.01-5.34-8.01-8.01-12.02-2.37-3.55-4.78-7.08-7.18-10.6-2.05-3.01-4.06-6.04-6.08-9.07-.26-.39-.55-.76-.77-1.18-.29-.55-.58-1.1-.87-1.66-.58-1.1-1.15-2.2-1.73-3.31-1.15-2.21-2.31-4.41-3.47-6.61-1.05-2-1.9-4.08-2.82-6.14-.89-2.01-1.78-4.03-2.67-6.04-.25-.57-.5-1.13-.81-1.67-.42-.74-.85-1.47-1.27-2.21-.85-1.47-1.7-2.95-2.55-4.42-.85-1.47-1.7-2.95-2.55-4.42-.42-.74-.85-1.47-1.27-2.21-.23-.4-.45-.8-.64-1.22-.21-.48-.43-.97-.64-1.45-1.71-3.86-3.42-7.72-5.13-11.58-1.16-2.61-2.79-5.47-4.12-7.98-1.53-2.88-3.06-5.76-4.59-8.64"/>
  <path class="cls-2" d="M398.12,38.36c-.11,3.03-.22,6.06-.33,9.09-.05,1.52-.11,3.03-.16,4.55l-.08,2.27c-.01.39-.07.78-.03,1.18.08.6.15,1.21.23,1.81.6,4.82,1.21,9.64,1.81,14.46.35,2.84.62,5.68.91,8.53.08.74.15,1.49.23,2.23.04.37.08.74.11,1.12.04.36-.02.7-.08,1.05l-.62,4.1-2.24,14.68c-.07.45-.14.89-.13,1.34,0,.29.01.58.02.87.01.58.02,1.16.04,1.74.03,1.16.05,2.32.08,3.47,0,.15-.09.25-.15.37-.06.14-.12.27-.18.41-.12.27-.23.54-.35.82-.24.54-.47,1.09-.71,1.63-.47,1.09-.94,2.17-1.42,3.26-.94,2.17-1.88,4.35-2.84,6.52-1.91,4.33-3.65,8.72-5.44,13.09-.99,2.42-2.01,4.82-3.02,7.23-.64,1.53-2.89,5.81-3.71,7.25-2.07,3.66-4.14,7.32-6.22,10.97-1.04,1.83-2.07,3.66-3.11,5.49-.26.46-.52.91-.78,1.37-.12.22-.25.43-.43.61-.19.18-.38.36-.57.55-3.03,2.93-6.05,5.86-9.07,8.79-1.53,1.49-3.06,2.98-4.6,4.47-.09.09-.19.19-.29.28-.22.22-.67.28-.93.37-.83.27-1.66.54-2.49.82-1.66.54-3.32,1.09-4.98,1.64-3.32,1.09-6.65,2.16-9.98,3.23l-9.99,3.19-5,1.6c-.23.07-.77.32-1.04.29-.14-.02-.29-.03-.43-.05-.29-.03-.57-.07-.86-.1-1.15-.13-2.3-.26-3.44-.39-.29-.03-.57-.06-.86-.1-.07,0-.14-.01-.22-.02-.08-.01-.06-.08-.08-.13-.04-.1-.09-.2-.13-.3-.17-.4-.34-.79-.52-1.19-.14-.32-.27-.64-.41-.96-.07-.16-.14-.32-.21-.48-.04-.08-.07-.16-.1-.24-.02-.04-.03-.08-.05-.12-.02-.04,0-.09-.05-.12-.79-.38-1.57-.75-2.36-1.13-.8-.38-1.57-.81-2.4-1.14-1.21-.47-2.42-.95-3.63-1.42-.6-.24-1.21-.47-1.82-.71-.3-.12-.6-.24-.91-.35-.31-.12-.59-.29-.92-.35-1.55-.3-3.1-.59-4.66-.89-.77-.15-1.55-.3-2.33-.44-.09-.02-.19.01-.27-.07-.06-.05-.11-.11-.17-.16-.11-.11-.23-.22-.34-.33-.23-.22-.46-.44-.69-.66-.92-.88-1.85-1.75-2.77-2.63-.23-.22-.46-.44-.69-.66-.12-.11-.23-.22-.35-.33-.03-.03-.27-.28-.34-.26-.39.12-.77.24-1.16.36-.77.24-1.54.48-2.31.72-.39.12-.77.24-1.16.36-.08.03-.15.03-.23-.03-.06-.04-.11-.08-.17-.12-.12-.08-.23-.17-.35-.25-.46-.33-.93-.66-1.4-.99-.46-.33-.93-.66-1.39-.99-.13-.09-.2-.47-.23-.59-.06-.23-.13-.46-.19-.7-.13-.46-.25-.93-.38-1.39-.25-.93-.51-1.86-.76-2.79-.13-.46-.25-.93-.38-1.39-.17-.64-.27-1.3-.4-1.95-.15-.79-.31-1.58-.46-2.36-.62-3.18-1.24-6.37-1.87-9.55-.16-.8-.31-1.59-.47-2.39-.05-.27-.09-.54-.21-.8-.07-.14-.13-.28-.2-.42-.28-.59-.57-1.18-.87-1.77-1.29-2.6-2.65-5.16-3.94-7.75-.3-.59-.59-1.18-.87-1.78-.15-.32-.29-.64-.49-.94-.33-.5-.66-1.01-.99-1.51-1.33-2.01-2.65-4.02-3.98-6.03-2.65-4.02-5.3-8.04-7.96-12.05-.97-1.48-2.05-2.88-3.08-4.3-.94-1.3-1.89-2.6-2.83-3.9-.94-1.3-1.88-2.61-2.81-3.91-.47-.65-.94-1.3-1.4-1.96-.25-.35-.52-.68-.72-1.06-.29-.55-.58-1.11-.87-1.66l-3.5-6.64c-.58-1.11-1.16-2.21-1.75-3.32-.5-.95-.89-1.95-1.32-2.93-.86-1.93-1.72-3.86-2.58-5.79-.21-.48-.43-.97-.65-1.45-.11-.24-.21-.48-.32-.73-.17-.38-.41-.73-.62-1.09-.97-1.63-1.95-3.26-2.92-4.89-1.48-2.48-2.96-4.96-4.44-7.45-.39-.65-.8-1.28-1.11-1.97l-1.13-2.57c-.75-1.71-1.51-3.42-2.26-5.13l-2.26-5.13c-.38-.85-.75-1.71-1.13-2.57-.3-.69-.7-1.32-1.05-1.98-.36-.68-.72-1.35-1.08-2.03l-8.61-16.2"/>
  <polyline class="cls-2" points="391.43 35.66 392.42 42.31 396.77 61.07 398.53 72.16 396.6 93.82 397.96 99.75 392.51 112.04 379.53 140.63 368.78 162.75 361.79 173.9 359.4 177.72 344.39 182.63 322.74 189.53 317.79 187.92 317.95 183.51 314.45 181.39 307.53 179.06 299.99 178.56 294.58 174.34 289.23 178.35 285.34 178.06 283.31 172.39 280.05 154.18 274.64 142.07 260.57 120.55 251.91 109.72 245.94 98.46 241.66 88.9 232.39 73.87 224.97 56.97 211.75 32.11 211.72 32.04"/>
  <path class="cls-2" d="M383.18,32.62c.42.32.81.65,1.16,1.01,1.28,1.32,1.98,2.97,2.55,4.85,1.5,5,2.04,11.65,3.08,17.91,1.2,7.3,3.08,14.08,3.52,21.16.44,7.04-.54,14.37-2.08,21.49-.92,4.27-2.05,8.45-3.51,12.46-4.2,11.53-11.14,21.55-16.11,33.12-4.34,10.13-7.17,21.46-14.35,28.38-4.92,4.75-11.88,7.42-18.97,7.56-3.91.07-7.87-.62-11.86-1.55-6.17-1.44-12.44-3.45-17.73-7.01-4.15-2.79-7.7-6.54-12.61-8.02-3.32-1-7.25-.95-9.83-2.41-5.01-2.84-4.87-11.4-6.35-18.64-3.77-18.38-18.03-28.29-28.25-41.24-10.03-12.7-16.16-28.33-22.75-43.44-4.09-9.4-8.36-18.59-12.67-27.76"/>
  <path class="cls-2" d="M305.74,18.08c.06,1.5.17,3,.36,4.5.51,3.9,1.46,6.93,3.51,10.33,1.91,3.16,4.27,5.98,6.32,9.04,2.39,3.57,3.24,5.71,4.43,9.8.96,3.31,2.01,7.44,4.14,10.38,1.11,1.54,2.51,2.76,4.32,3.45,1.84.71,4.16.9,6.05,1.23.47.44.84.96,1.19,1.44.42.56.83,1.14,1.33,1.74.23.29.49.59.78.86.72.42,1.23.94,1.49,1.74.19.8.06,1.73-.09,2.5-.2,1.04-.5,2.05-.78,3.07-.65,2.36-.91,3.73-.92,6.2,0,1.82.15,3.62-.18,5.44-.13,1.83-.81,3.55-1.35,5.13-.61,1.73-1.08,3.39-.88,5.48.43.38.71,1.05.9,1.65.25.76.46,1.55.75,2.3.3.78.59,1.32,1.07,1.91.19.23.38.46.57.7.17.24.32.5.44.79.24.56.38,1.24.47,1.84.13.77.21,1.55.27,2.33.04.46.07.93.09,1.4.02.37.03.73.05,1.09.06,1.54.06,3-.2,4.48,0,.05-.02.11-.03.16-.26,1.47-.73,2.74-1.33,4.08-.22.49-.46.99-.73,1.5-.34.75-.76,1.54-1.22,2.28-.82,1.32-1.78,2.48-2.87,3.75-1.03,1.21-2.12,2.36-3.1,3.45-.43.48-.82.9-1.17,1.29-.65.68-1.32,1.33-2.03,2.06-.65.66-1.31,1.32-1.99,1.87-.37.28-.72.52-1.07.72-.99.58-1.91.82-3.03.77-.06,0-.12,0-.18,0-1.11-.04-2.26-.34-3.4-.86-.59-.27-1.16-.61-1.74-.97-.1-.06-.2-.13-.3-.19-.49-.32-.99-.65-1.49-.99-.32-.22-.65-.44-.98-.66-.58-.38-1.22-.84-1.91-1.15-.39-.17-.76-.28-1.12-.36-.21-.05-.41-.09-.61-.12-.45-.07-.87-.12-1.3-.14-.31-.01-.61,0-.94.03-.86.73-1.62,1.54-2.46,2.3-.48.43-.95.8-1.42,1.11-1.29.83-2.66,1.21-4.57,1.07-1.81-.12-4.27-.8-5.94-1.44-2.15-.85-4-2.01-5.71-3.29-1.61-1.2-3.12-2.58-4.6-4.01-.4-.39-.8-.79-1.21-1.19-2.2-2.2-4.4-4.55-6.45-6.99-.36-.43-.72-.86-1.07-1.28-2.79-3.4-5.41-6.89-7.83-10.59-3.3-5.03-6.17-10.26-9.17-15.42-1.4-2.41-2.83-4.8-4.35-7.16-1.44-2.25-2.97-4.44-4.5-6.63-1-1.43-2.01-2.86-3-4.29-2.12-3.07-4.17-6.17-6-9.43-.33-.59-.65-1.18-.97-1.78-2.07-3.91-3.82-7.94-5.56-12-.87-2.03-1.74-4.06-2.64-6.08-.89-2.02-1.83-4.02-2.81-5.99-.73-1.47-1.47-2.92-2.23-4.37-1.29-2.46-2.61-4.89-3.94-7.33-.24-.44-.48-.88-.71-1.32"/>
  <path class="cls-2" d="M314.89,18.56c.49,1.68,1.18,3.25,2.2,4.92,1.56,2.57,3.48,4.86,5.15,7.34,1.95,2.9,2.66,4.66,3.64,7.98.79,2.69,1.66,6.03,3.38,8.43.9,1.26,2.03,2.25,3.49,2.83,1.49.59,3.35.76,4.88,1.05.59.81.92,1.79,1.25,2.66.38,1.02.75,2.05,1.3,3.09.26.49.58,1.03.98,1.47.65.44,1.14.94,1.46,1.66.17.65.07,1.41-.03,2.03-.14.84-.36,1.66-.57,2.49-.47,1.91-.64,3.02-.6,5.02.03,1.46.19,2.91-.04,4.38.16,1.51-.06,2.85-.22,4.1-.22,1.37-.31,2.67.11,4.43.87.48,1.41,1.54,1.79,2.44.49,1.16.87,2.37,1.41,3.51.56,1.18,1.09,1.88,2.01,2.7.36.32.73.63,1.08.97.32.33.59.67.82,1.09.43.81.68,1.86.85,2.75.22,1.15.36,2.3.49,3.46.07.69.14,1.38.21,2.06.05.54.1,1.08.15,1.61.23,2.29.48,4.49.42,6.74,0,.08,0,.16,0,.24-.08,2.24-.47,4.21-1.08,6.35-.22.78-.48,1.6-.77,2.43-.4,1.28-.89,2.6-1.43,3.8-.96,2.15-2.08,3.95-3.44,5.98-1.3,1.94-2.69,3.8-3.98,5.63-.57.8-1.06,1.51-1.51,2.17-.8,1.13-1.57,2.2-2.43,3.51-.77,1.19-1.56,2.43-2.4,3.55-.44.56-.88,1.08-1.33,1.56-1.26,1.35-2.54,2.27-4.28,2.79-.09.03-.18.06-.27.08-1.76.52-3.7.58-5.63.2-1-.2-1.98-.52-2.96-.9-.17-.07-.34-.13-.51-.2-.84-.34-1.67-.71-2.51-1.1-.54-.25-1.07-.51-1.61-.78-.96-.47-1.95-1.05-2.96-1.54-.56-.27-1.11-.51-1.63-.74-.31-.14-.61-.27-.9-.4-.66-.29-1.29-.57-1.95-.79-.47-.16-.95-.29-1.47-.37-.85.51-1.63,1.11-2.48,1.68-.48.32-.96.59-1.44.82-1.3.61-2.67.88-4.46.72-1.69-.15-3.89-.75-5.45-1.39-2.15-.93-3.85-2.33-5.35-3.79-1.42-1.38-2.7-2.96-3.95-4.56-.34-.44-.68-.88-1.02-1.32-1.85-2.39-3.7-4.76-5.54-7.32-.32-.45-.64-.9-.96-1.34-2.54-3.56-5.05-7.1-7.47-10.75-3.3-4.97-6.38-10-9.58-14.99-1.49-2.33-3.01-4.64-4.58-6.93-1.5-2.19-3.06-4.34-4.6-6.51-1.01-1.42-2.01-2.84-2.99-4.27-2.1-3.06-4.11-6.17-5.92-9.41-.33-.59-.65-1.18-.96-1.77-2.05-3.89-3.82-7.89-5.56-11.92-.87-2.02-1.74-4.04-2.63-6.05-.89-2.01-1.8-4-2.75-5.98-.71-1.46-1.43-2.92-2.16-4.37-1.25-2.46-2.53-4.9-3.81-7.34-.85-1.62-1.7-3.25-2.54-4.88"/>
  <path class="cls-2" d="M328.66,19.89c1.41,2.12,1.98,3.5,2.73,5.98.63,2.07,1.31,4.63,2.63,6.48.69.97,1.55,1.74,2.66,2.2,1.13.47,2.54.63,3.7.88.7,1.19,1.01,2.62,1.3,3.88.34,1.48.66,2.96,1.28,4.45.29.7.67,1.46,1.18,2.08.58.46,1.06.95,1.44,1.58.14.5.09,1.08.03,1.55-.08.65-.22,1.27-.35,1.91-.3,1.46-.37,2.31-.28,3.83.06,1.11.23,2.21.11,3.32.45,1.2.7,2.16.9,3.07.17,1,.45,1.95,1.1,3.38,1.31.58,2.11,2.01,2.68,3.23.73,1.55,1.28,3.19,2.08,4.72.83,1.58,1.6,2.45,2.96,3.49.53.41,1.08.79,1.59,1.23.46.41.87.85,1.2,1.4.63,1.05.98,2.49,1.22,3.67.31,1.52.51,3.05.7,4.59.11.91.21,1.82.32,2.73.09.71.17,1.43.26,2.14.4,3.03.91,5.99,1.04,9,0,.11.01.22.01.33.1,3-.21,5.68-.82,8.62-.23,1.08-.5,2.21-.81,3.36-.45,1.81-1.02,3.66-1.64,5.33-1.1,2.98-2.37,5.42-4.01,8.22-1.56,2.67-3.27,5.24-4.86,7.8-.7,1.13-1.3,2.11-1.85,3.06-.95,1.57-1.83,3.08-2.82,4.97-.9,1.71-1.81,3.53-2.81,5.22-.51.84-1.04,1.65-1.58,2.4-1.54,2.12-3.18,3.71-5.53,4.82-.12.06-.25.12-.37.17-2.4,1.08-5.14,1.49-7.86,1.25-1.41-.13-2.79-.43-4.18-.83-.24-.07-.48-.14-.72-.21-1.18-.36-2.36-.77-3.53-1.21-.75-.28-1.5-.58-2.25-.9-1.34-.56-2.69-1.25-4.02-1.93-.73-.38-1.45-.74-2.14-1.12-.4-.23-.8-.45-1.18-.68-.87-.51-1.72-1.01-2.61-1.44-.64-.31-1.29-.58-2-.77-.85.29-1.65.68-2.5,1.05-.48.21-.96.39-1.45.54-1.31.39-2.68.55-4.36.36-1.58-.18-3.52-.7-4.96-1.35-2.16-1.02-3.7-2.64-4.99-4.29-1.22-1.55-2.28-3.35-3.3-5.11-.28-.48-.55-.96-.83-1.43-1.5-2.58-3-4.97-4.62-7.65-.29-.47-.57-.94-.86-1.41-2.28-3.72-4.68-7.31-7.1-10.92-3.29-4.91-6.58-9.74-9.98-14.55-1.58-2.24-3.19-4.48-4.82-6.7-1.56-2.12-3.14-4.24-4.69-6.39-1.01-1.4-2.01-2.81-2.98-4.24-2.08-3.05-4.04-6.16-5.84-9.39-.32-.58-.64-1.17-.95-1.76-2.04-3.87-3.82-7.84-5.56-11.83-.87-2-1.74-4.01-2.62-6.01-.88-2-1.78-3.98-2.7-5.96-.69-1.46-1.39-2.92-2.1-4.37-1.2-2.46-2.44-4.91-3.68-7.35-1.43-2.82-2.85-5.64-4.25-8.47"/>
  <path class="cls-2" d="M344.03,22.24c.2.88.34,1.76.47,2.59.3,1.95.58,3.88,1.26,5.8.32.91.76,1.9,1.38,2.68.52.48.98.96,1.41,1.5.12.35.1.75.09,1.08-.03.45-.09.88-.14,1.32-.13,1.01-.1,1.61.04,2.64.1.76.27,1.51.25,2.25.75.89,1.45,1.46,2.03,2.04.55.63,1.22,1.23,2.09,2.33,1.75.68,2.81,2.5,3.57,4.03.96,1.95,1.69,4.02,2.74,5.93,1.09,1.98,2.11,3.01,3.9,4.28.7.49,1.42.96,2.1,1.49.61.49,1.15,1.02,1.58,1.7.83,1.3,1.29,3.11,1.6,4.58.4,1.89.66,3.8.91,5.71.15,1.14.29,2.27.43,3.41.12.89.24,1.77.37,2.66.57,3.78,1.34,7.48,1.66,11.25.01.14.02.27.03.41.29,3.77.05,7.15-.57,10.89-.23,1.37-.52,2.82-.85,4.29-.51,2.34-1.15,4.72-1.85,6.85-1.24,3.81-2.66,6.89-4.58,10.45-1.83,3.4-3.84,6.68-5.74,9.98-.83,1.45-1.54,2.71-2.2,3.94-1.1,2.02-2.08,3.95-3.21,6.42-1.02,2.24-2.06,4.64-3.22,6.9-.59,1.13-1.19,2.22-1.83,3.24-1.81,2.89-3.82,5.16-6.78,6.84-.16.09-.31.18-.47.26-3.04,1.63-6.58,2.41-10.09,2.31-1.83-.06-3.61-.35-5.4-.76-.31-.07-.62-.15-.93-.22-1.53-.38-3.04-.83-4.55-1.33-.97-.32-1.93-.66-2.88-1.03-1.72-.66-3.42-1.45-5.08-2.33-.91-.48-1.79-.97-2.64-1.5-.5-.32-.99-.64-1.47-.96-1.08-.72-2.14-1.46-3.26-2.1-.81-.46-1.64-.86-2.53-1.17-.85.08-1.66.24-2.52.42-.49.1-.97.18-1.47.25-1.33.18-2.69.23-4.26,0-1.46-.2-3.14-.65-4.47-1.3-2.16-1.11-3.55-2.96-4.63-4.8-1.02-1.73-1.86-3.73-2.65-5.66-.21-.52-.43-1.04-.64-1.55-1.16-2.77-2.3-5.18-3.7-7.98-.25-.49-.5-.99-.75-1.47-2.03-3.88-4.32-7.51-6.74-11.08-3.29-4.85-6.79-9.49-10.38-14.12-1.68-2.16-3.37-4.31-5.05-6.47-1.61-2.07-3.23-4.14-4.78-6.27-1.02-1.39-2.01-2.79-2.97-4.21-2.06-3.04-3.98-6.15-5.75-9.38-.32-.58-.63-1.17-.94-1.76-2.02-3.85-3.82-7.78-5.57-11.75-.88-1.99-1.74-3.98-2.61-5.97-.87-1.99-1.75-3.97-2.65-5.94-.67-1.46-1.34-2.92-2.03-4.37-1.17-2.46-2.35-4.91-3.55-7.37-1.9-3.89-3.8-7.78-5.67-11.69-.06-.13-.13-.26-.19-.4"/>
  <path class="cls-2" d="M362.23,201.04c-5.38,1.73-10.73,3.54-16.09,5.33-5.95,1.99-11.91,3.96-17.88,5.9-6.28,2.04-12.56,4.1-18.87,6.07-1.32.41-2.64.82-3.96,1.23-.66.21-1.32.41-1.98.62-.33.1-.62.25-.99.25h-.96c-1.28,0-2.56,0-3.84,0-.64,0-1.28,0-1.92,0h-.96c-.16,0-.32.03-.48-.01-.17-.05-.33-.1-.5-.14l-8.28-2.35c-.36-.1-.68-.29-1-.47-.33-.19-.66-.37-.99-.56-.66-.37-1.32-.74-1.97-1.11-1.32-.74-2.63-1.49-3.94-2.23-.33-.19-.66-.37-.99-.56-.33-.19-.64-.41-.94-.64-.6-.47-1.2-.94-1.8-1.41-1.2-.94-2.4-1.88-3.61-2.82l-.45-.35c-.08-.06-.1-.16-.15-.24-.05-.08-.1-.16-.14-.24-.19-.32-.38-.65-.57-.97-.38-.64-.76-1.29-1.15-1.93-.76-1.29-1.53-2.58-2.29-3.87-.21-.35-.41-.69-.61-1.04-.18-.31-.23-.66-.33-.99-.2-.65-.4-1.31-.6-1.96-.4-1.31-.8-2.62-1.2-3.93-.2-.66-.46-1.29-.58-1.98-.12-.72-.24-1.43-.36-2.15l-.73-4.3c-.24-1.43-.48-2.86-.73-4.3-.26-1.53-.38-3.08-.57-4.62-.18-1.55-.36-3.1-.54-4.65l-.27-2.32c-.05-.41-.07-.81-.19-1.21-.14-.47-.29-.95-.44-1.42-.49-1.6-.99-3.21-1.48-4.81-.25-.8-.49-1.6-.74-2.41-.12-.4-.25-.8-.37-1.2-.08-.25-.16-.48-.31-.7-1.58-2.43-3.24-4.8-4.88-7.19-1.6-2.33-3.24-4.63-4.75-7.02-.78-1.23-1.65-2.41-2.48-3.61l-2.64-3.82c-1.91-2.77-3.83-5.55-5.74-8.32-.85-1.23-3.77-6.07-4.55-7.34-2.96-4.84-5.92-9.68-8.81-14.57-.4-.67-4.01-6.75-4.38-7.45-1.4-2.7-2.8-5.4-4.2-8.1-.7-1.35-1.4-2.7-2.1-4.05l-1.05-2.03c-.35-.66-.65-1.35-.95-2.04-1.19-2.72-2.38-5.44-3.57-8.16-.54-1.23-1.08-2.46-1.61-3.69-.55-1.26-1.09-2.53-1.72-3.76-1.35-2.65-2.7-5.3-4.05-7.95l-2.03-3.97c-.71-1.39-1.33-2.83-1.97-4.25-.65-1.44-1.3-2.89-1.95-4.33-.18-.4-1.78-3.97-1.99-4.36"/>
  <polyline class="cls-2" points="301.41 226.27 299.6 226.93 289.63 227.82 279.33 225.12 269.93 219.5 263.78 213.62 258.9 204.39 256.85 193.32 255.28 179.28 254.03 166.34 250.79 157.34 240.89 143.49 229.32 126.97 218.95 109.71 210.64 95.34 202.25 79.12 194.76 61.92 188.13 48.29 185.54 42.6"/>
  <path class="cls-2" d="M297.64,17.92c-.09,7.14-.1,14.36,2.55,20.61,2.98,7.03,9.31,12.84,12.48,19.81,1.72,3.8,2.5,7.94,3.93,12.13,1.51,4.43,3.73,8.91,8.31,10.63,4.04,1.52,9.91.9,11.45,3.21,1.44,2.16-.91,6.88-1.67,11.01-.74,4.04.04,7.52-.79,10.87-.93,3.76-3.89,7.35-4.2,11.51-.22,3.02.95,6.34.21,8.9-.7,2.43-3.14,4.18-5.98,5.97-2.95,1.85-6.34,3.74-8.53,1.95-1.84-1.51-2.81-5.63-4.17-6.06-1.58-.51-3.69,4-6.31,5.82-2.09,1.45-4.51,1.19-6.82.68-7.42-1.64-13.68-5.83-19.27-10.7-5.07-4.43-9.59-9.44-13.31-14.96-5.32-7.9-9-16.84-14-24.99-4.14-6.75-9.2-12.96-13.08-19.82-4.14-7.32-6.94-15.39-10.57-23.02-2.02-4.25-4.3-8.37-6.6-12.47"/>
  <path class="cls-2" d="M351.75,23.78c.06.45.18.77.34,1.26.14.41.31.8.39,1.19,1.05.57,2.21.77,3.15,1,.94.26,1.98.52,3.08,1.29,2.18.77,3.51,2.97,4.46,4.82,1.2,2.35,2.1,4.84,3.41,7.14,1.36,2.38,2.61,3.58,4.85,5.07.87.58,1.77,1.13,2.61,1.76.76.57,1.43,1.2,1.96,2.01,1.03,1.55,1.59,3.73,1.98,5.49.49,2.26.82,4.55,1.12,6.84.18,1.36.36,2.72.55,4.07.15,1.06.3,2.12.48,3.18.75,4.52,1.76,8.97,2.28,13.51.02.16.04.33.05.49.47,4.54.32,8.62-.31,13.16-.23,1.66-.54,3.43-.9,5.22-.57,2.87-1.29,5.78-2.06,8.38-1.38,4.64-2.95,8.35-5.15,12.69-2.09,4.13-4.42,8.11-6.62,12.15-.97,1.78-1.79,3.32-2.54,4.83-1.25,2.47-2.34,4.83-3.6,7.88-1.15,2.77-2.32,5.74-3.62,8.57-.66,1.41-1.35,2.79-2.09,4.09-2.09,3.66-4.45,6.6-8.03,8.87-.19.12-.38.23-.57.35-3.69,2.19-8.01,3.33-12.32,3.36-2.24.02-4.42-.26-6.62-.69-.38-.08-.76-.15-1.15-.24-1.87-.4-3.73-.89-5.57-1.44-1.18-.35-2.35-.73-3.51-1.15-2.1-.75-4.15-1.66-6.13-2.72-1.08-.58-2.13-1.2-3.15-1.89-.6-.4-1.18-.82-1.76-1.24-1.29-.94-2.56-1.9-3.91-2.75-.98-.61-1.98-1.15-3.05-1.57-.84-.14-1.68-.19-2.54-.21-.49-.01-.98-.02-1.48-.03-1.34-.03-2.7-.1-4.16-.35-1.34-.23-2.76-.61-3.98-1.25-2.16-1.19-3.4-3.28-4.28-5.3-.83-1.9-1.44-4.12-2-6.21-.15-.57-.3-1.13-.45-1.67-.81-2.96-1.6-5.39-2.78-8.31-.21-.52-.42-1.03-.64-1.53-1.77-4.04-3.95-7.72-6.37-11.24-3.29-4.79-7-9.23-10.79-13.68-1.77-2.08-3.55-4.15-5.29-6.25-1.67-2.01-3.31-4.04-4.88-6.14-1.02-1.38-2.01-2.77-2.96-4.19-2.04-3.02-3.92-6.14-5.67-9.35-.32-.58-.63-1.16-.93-1.75-2.01-3.83-3.82-7.73-5.57-11.66-.88-1.97-1.74-3.95-2.6-5.93-.86-1.98-1.72-3.95-2.6-5.92-.65-1.46-1.3-2.92-1.96-4.37-1.12-2.47-2.26-4.93-3.41-7.38-1.83-3.9-3.68-7.79-5.51-11.69-.64-1.35-1.27-2.69-1.9-4.04"/>
  <line class="cls-1" x1="308.23" y1="313.6" x2="308.19" y2="313.53"/>
  <line class="cls-4" x1="69.56" y1="326.24" x2="121.55" y2="399.01"/>
  <line class="cls-4" x1="69.56" y1="352.78" x2="115.53" y2="417.12"/>
  <line class="cls-4" x1="139.91" y1="275.98" x2="69.56" y2="326.24"/>
  <line class="cls-4" x1="69.56" y1="352.78" x2="69.56" y2="326.24"/>
  <line class="cls-4" x1="212.58" y1="409.2" x2="212.58" y2="382.67"/>
  <line class="cls-4" x1="212.58" y1="382.67" x2="139.91" y2="275.98"/>
  <line class="cls-4" x1="328.01" y1="383.37" x2="333.71" y2="378.7"/>
  <line class="cls-4" x1="355.62" y1="423.87" x2="328.01" y2="383.37"/>
  <line class="cls-4" x1="380.36" y1="407.01" x2="355.62" y2="423.87"/>
  <line class="cls-4" x1="395.71" y1="429.52" x2="380.36" y2="407.01"/>
  <line class="cls-4" x1="352.2" y1="459.18" x2="395.71" y2="429.52"/>
  <line class="cls-4" x1="352.2" y1="485.71" x2="352.2" y2="459.18"/>
  <line class="cls-4" x1="297.08" y1="404.84" x2="352.2" y2="485.71"/>
  <line class="cls-4" x1="297.08" y1="404.84" x2="297.08" y2="378.31"/>
  <line class="cls-4" x1="336.8" y1="383.24" x2="355.48" y2="370.5"/>
  <line class="cls-4" x1="355.48" y1="397.03" x2="355.48" y2="370.5"/>
  <line class="cls-4" x1="343.08" y1="405.48" x2="355.48" y2="397.03"/>
  <line class="cls-4" x1="333.71" y1="391.73" x2="333.71" y2="378.7"/>
  <line class="cls-4" x1="333.71" y1="378.7" x2="336.8" y2="383.24"/>
  <line class="cls-4" x1="336.8" y1="396.26" x2="336.8" y2="383.24"/>
  <line class="cls-4" x1="369.97" y1="354.32" x2="409.61" y2="327.75"/>
  <line class="cls-4" x1="369.97" y1="380.85" x2="409.61" y2="354.28"/>
  <line class="cls-4" x1="357.86" y1="336.26" x2="369.97" y2="354.32"/>
  <line class="cls-4" x1="369.97" y1="380.85" x2="369.97" y2="354.32"/>
  <line class="cls-4" x1="357.86" y1="362.79" x2="369.97" y2="380.85"/>
  <line class="cls-4" x1="414" y1="297.32" x2="357.86" y2="336.26"/>
  <line class="cls-4" x1="357.86" y1="362.79" x2="357.86" y2="336.26"/>
  <line class="cls-4" x1="425.69" y1="313.54" x2="414" y2="297.32"/>
  <line class="cls-4" x1="419.31" y1="317.83" x2="425.69" y2="313.54"/>
  <line class="cls-4" x1="425.69" y1="326.27" x2="425.69" y2="313.54"/>
  <line class="cls-4" x1="465.69" y1="379.2" x2="419.31" y2="317.83"/>
  <line class="cls-4" x1="452.08" y1="388.99" x2="465.69" y2="379.2"/>
  <line class="cls-4" x1="447.88" y1="382.93" x2="452.08" y2="388.99"/>
  <line class="cls-4" x1="407.27" y1="411.1" x2="447.88" y2="382.93"/>
  <line class="cls-4" x1="447.88" y1="409.47" x2="447.88" y2="382.93"/>
  <line class="cls-4" x1="407.27" y1="437.64" x2="447.88" y2="409.47"/>
  <line class="cls-4" x1="395.32" y1="394.49" x2="407.27" y2="411.1"/>
  <line class="cls-4" x1="407.27" y1="437.64" x2="407.27" y2="411.1"/>
  <line class="cls-4" x1="395.32" y1="421.02" x2="407.27" y2="437.64"/>
  <line class="cls-4" x1="436.22" y1="366.12" x2="395.32" y2="394.49"/>
  <line class="cls-4" x1="395.32" y1="421.02" x2="395.32" y2="394.49"/>
  <line class="cls-4" x1="409.61" y1="354.28" x2="409.61" y2="327.75"/>
  <line class="cls-4" x1="409.61" y1="327.75" x2="436.22" y2="366.12"/>
  <line class="cls-4" x1="409.61" y1="354.28" x2="423.79" y2="374.74"/>
  <line class="cls-4" x1="262.69" y1="502.6" x2="244.35" y2="516.18"/>
  <line class="cls-4" x1="229.41" y1="457.66" x2="262.69" y2="502.6"/>
  <line class="cls-4" x1="229.41" y1="479.77" x2="252.11" y2="510.43"/>
  <line class="cls-4" x1="212.81" y1="469.96" x2="229.41" y2="457.66"/>
  <line class="cls-4" x1="229.41" y1="479.77" x2="229.41" y2="457.66"/>
  <line class="cls-4" x1="209.41" y1="465.37" x2="212.81" y2="469.96"/>
  <line class="cls-4" x1="171.41" y1="493.51" x2="209.41" y2="465.37"/>
  <line class="cls-4" x1="209.41" y1="487.48" x2="209.41" y2="465.37"/>
  <line class="cls-4" x1="177.12" y1="501.22" x2="171.41" y2="493.51"/>
  <line class="cls-4" x1="169.81" y1="506.63" x2="177.12" y2="501.22"/>
  <line class="cls-4" x1="164.11" y1="498.92" x2="169.81" y2="506.63"/>
  <line class="cls-4" x1="292.5" y1="506.89" x2="236.21" y2="425.28"/>
  <line class="cls-4" x1="256.54" y1="532.14" x2="292.5" y2="506.89"/>
  <line class="cls-4" x1="292.5" y1="529" x2="292.5" y2="506.89"/>
  <line class="cls-4" x1="395.29" y1="256.04" x2="408.73" y2="246.79"/>
  <line class="cls-4" x1="395.29" y1="278.15" x2="408.73" y2="268.9"/>
  <line class="cls-4" x1="359.09" y1="203.45" x2="395.29" y2="256.04"/>
  <line class="cls-4" x1="395.29" y1="278.15" x2="395.29" y2="256.04"/>
  <line class="cls-4" x1="359.09" y1="225.56" x2="395.29" y2="278.15"/>
  <line class="cls-4" x1="371.8" y1="193.66" x2="359.09" y2="203.45"/>
  <line class="cls-4" x1="359.09" y1="225.56" x2="359.09" y2="203.45"/>
  <line class="cls-4" x1="408.73" y1="268.9" x2="408.73" y2="246.79"/>
  <line class="cls-4" x1="408.73" y1="246.79" x2="371.8" y2="193.66"/>
  <line class="cls-4" x1="426.22" y1="234.8" x2="439.66" y2="225.54"/>
  <line class="cls-4" x1="426.22" y1="256.91" x2="439.66" y2="247.65"/>
  <line class="cls-4" x1="390.03" y1="182.21" x2="426.22" y2="234.8"/>
  <line class="cls-4" x1="426.22" y1="256.91" x2="426.22" y2="234.8"/>
  <line class="cls-4" x1="390.03" y1="204.32" x2="426.22" y2="256.91"/>
  <line class="cls-4" x1="402.74" y1="172.42" x2="390.03" y2="182.21"/>
  <line class="cls-4" x1="390.03" y1="204.32" x2="390.03" y2="182.21"/>
  <line class="cls-4" x1="439.66" y1="247.65" x2="439.66" y2="225.54"/>
  <line class="cls-4" x1="439.66" y1="225.54" x2="402.74" y2="172.42"/>
  <line class="cls-4" x1="457.29" y1="213.87" x2="470.53" y2="204.34"/>
  <line class="cls-4" x1="457.29" y1="235.98" x2="470.53" y2="226.45"/>
  <line class="cls-4" x1="412.2" y1="151.16" x2="457.29" y2="213.87"/>
  <line class="cls-4" x1="457.29" y1="235.98" x2="457.29" y2="213.87"/>
  <line class="cls-4" x1="412.2" y1="173.27" x2="457.29" y2="235.98"/>
  <line class="cls-4" x1="424.6" y1="140.97" x2="412.2" y2="151.16"/>
  <line class="cls-4" x1="412.2" y1="173.27" x2="412.2" y2="151.16"/>
  <line class="cls-4" x1="470.53" y1="226.45" x2="470.53" y2="204.34"/>
  <line class="cls-4" x1="470.53" y1="204.34" x2="424.6" y2="140.97"/>
  <line class="cls-4" x1="85.72" y1="271.15" x2="58.49" y2="290.01"/>
  <line class="cls-4" x1="89.06" y1="275.98" x2="85.72" y2="271.15"/>
  <line class="cls-4" x1="104.63" y1="265.2" x2="89.06" y2="275.98"/>
  <line class="cls-4" x1="100.87" y1="259.77" x2="104.63" y2="265.2"/>
  <line class="cls-4" x1="97.88" y1="261.93" x2="100.87" y2="259.77"/>
  <line class="cls-4" x1="100.87" y1="267.81" x2="100.87" y2="259.77"/>
  <line class="cls-4" x1="90.17" y1="251.3" x2="97.88" y2="261.93"/>
  <line class="cls-4" x1="97.88" y1="269.87" x2="97.88" y2="261.94"/>
  <line class="cls-4" x1="90.17" y1="273.41" x2="91.04" y2="274.61"/>
  <line class="cls-4" x1="86.45" y1="254.05" x2="90.17" y2="251.3"/>
  <line class="cls-4" x1="90.17" y1="273.41" x2="90.17" y2="251.3"/>
  <line class="cls-4" x1="88.26" y1="274.82" x2="90.17" y2="273.41"/>
  <line class="cls-4" x1="80.91" y1="246.41" x2="86.45" y2="254.05"/>
  <line class="cls-4" x1="86.45" y1="272.21" x2="86.45" y2="254.05"/>
  <line class="cls-4" x1="80.91" y1="268.52" x2="83.79" y2="272.49"/>
  <line class="cls-4" x1="88.15" y1="241.4" x2="80.91" y2="246.41"/>
  <line class="cls-4" x1="80.91" y1="268.52" x2="80.91" y2="246.41"/>
  <line class="cls-4" x1="77.42" y1="225.9" x2="88.15" y2="241.4"/>
  <line class="cls-4" x1="77.42" y1="248.01" x2="80.91" y2="253.05"/>
  <line class="cls-4" x1="58.95" y1="238.69" x2="77.42" y2="225.9"/>
  <line class="cls-4" x1="77.42" y1="248.01" x2="77.42" y2="225.9"/>
  <line class="cls-4" x1="58.95" y1="260.8" x2="77.42" y2="248.01"/>
  <line class="cls-4" x1="50.19" y1="226.04" x2="58.95" y2="238.69"/>
  <line class="cls-4" x1="58.95" y1="260.8" x2="58.95" y2="238.69"/>
  <line class="cls-4" x1="50.19" y1="248.15" x2="58.95" y2="260.8"/>
  <line class="cls-4" x1="63.6" y1="216.76" x2="50.19" y2="226.04"/>
  <line class="cls-4" x1="50.19" y1="248.15" x2="50.19" y2="226.04"/>
  <line class="cls-4" x1="49.67" y1="197.57" x2="63.6" y2="216.76"/>
  <line class="cls-4" x1="49.67" y1="219.68" x2="52.92" y2="224.15"/>
  <line class="cls-4" x1="49.67" y1="219.68" x2="49.67" y2="197.57"/>
  <line class="cls-4" x1="45.7" y1="222.56" x2="49.67" y2="219.68"/>
  <line class="cls-4" x1="73.95" y1="180.07" x2="70.42" y2="182.52"/>
  <line class="cls-4" x1="87.77" y1="200.03" x2="73.95" y2="180.07"/>
  <line class="cls-4" x1="84.23" y1="202.48" x2="87.77" y2="200.03"/>
  <line class="cls-4" x1="115.53" y1="429.64" x2="115.53" y2="403.11"/>
  <line class="cls-4" x1="128.12" y1="265.87" x2="84.23" y2="202.48"/>
  <line class="cls-4" x1="128.02" y1="270.7" x2="128.12" y2="265.87"/>
  <line class="cls-4" x1="128.12" y1="284.4" x2="128.12" y2="265.87"/>
  <line class="cls-4" x1="56.84" y1="342.13" x2="56.84" y2="320.02"/>
  <line class="cls-4" x1="56.84" y1="320.02" x2="128.02" y2="270.7"/>
  <line class="cls-4" x1="128.02" y1="284.47" x2="128.02" y2="270.7"/>
  <line class="cls-4" x1="56.84" y1="342.13" x2="69.56" y2="333.32"/>
  <polyline class="cls-4" points="535.71 388.16 501.84 410.62 513.37 428"/>
  <line class="cls-4" x1="244.35" y1="516.18" x2="222.98" y2="532.01"/>
  <line class="cls-4" x1="248.16" y1="538.04" x2="256.54" y2="532.14"/>
  <line class="cls-4" x1="58.49" y1="290.01" x2="35.37" y2="256.63"/>
  <line class="cls-4" x1="34.47" y1="289.73" x2="56.84" y2="320.02"/>
  <line class="cls-4" x1="36.57" y1="314.69" x2="56.84" y2="342.13"/>
  <line class="cls-4" x1="70.42" y1="182.52" x2="59.67" y2="167.7"/>
  <line class="cls-4" x1="62.3" y1="162.32" x2="139.78" y2="276.07"/>
  <line class="cls-4" x1="45.7" y1="222.56" x2="45.7" y2="203.75"/>
  <line class="cls-4" x1="47.04" y1="199.48" x2="49.67" y2="197.57"/>
  <line class="cls-4" x1="41.94" y1="217.38" x2="45.7" y2="222.56"/>
  <line class="cls-4" x1="158.37" y1="503.17" x2="164.11" y2="498.92"/>
  <line class="cls-4" x1="236.21" y1="425.28" x2="142.06" y2="492.19"/>
  <line class="cls-4" x1="169.81" y1="509.87" x2="169.81" y2="506.63"/>
  <line class="cls-4" x1="164.11" y1="506.63" x2="164.11" y2="498.92"/>
  <line class="cls-4" x1="274.52" y1="541.62" x2="292.5" y2="529"/>
  <path class="cls-4" d="M274.52,541.62c32.96,2.79,66.09-.68,97.76-10.22,34.32-10.34,66.14-27.59,93.53-50.71,27.39-23.12,49.75-51.6,65.7-83.69,14.73-29.62,23.7-61.7,26.49-94.66,2.79-32.96-.67-66.09-10.22-97.76-10.34-34.32-27.59-66.14-50.71-93.53-23.12-27.39-51.6-49.75-83.69-65.7-29.62-14.72-61.7-23.7-94.66-26.49-32.96-2.79-66.09.67-97.77,10.22-34.32,10.34-66.14,27.59-93.53,50.71-27.39,23.12-49.75,51.6-65.7,83.69-14.73,29.62-23.7,61.7-26.49,94.67-2.79,32.96.68,66.09,10.22,97.76,10.34,34.32,27.59,66.14,50.71,93.53,23.12,27.39,51.6,49.75,83.69,65.7,29.62,14.72,61.7,23.7,94.67,26.49Z"/>
  <line class="cls-4" x1="121.54" y1="399.01" x2="115.53" y2="403.11"/>
  <line class="cls-4" x1="115.53" y1="429.64" x2="136.78" y2="460.84"/>
  <line class="cls-4" x1="136.78" y1="460.84" x2="136.78" y2="434.3"/>
  <line class="cls-4" x1="115.53" y1="403.11" x2="136.78" y2="434.3"/>
  <line class="cls-4" x1="136.78" y1="460.84" x2="212.58" y2="409.2"/>
  <line class="cls-4" x1="136.78" y1="434.3" x2="212.58" y2="382.67"/>
  <line class="cls-4" x1="111.77" y1="349.07" x2="128.17" y2="337.9"/>
  <line class="cls-4" x1="128.17" y1="337.9" x2="128.17" y2="311.37"/>
  <line class="cls-4" x1="99.42" y1="330.95" x2="128.17" y2="311.37"/>
  <line class="cls-4" x1="128.17" y1="311.37" x2="123.71" y2="305.14"/>
  <line class="cls-4" x1="128.17" y1="328.48" x2="134.92" y2="323.66"/>
  <line class="cls-4" x1="134.92" y1="323.66" x2="134.92" y2="297.13"/>
  <line class="cls-4" x1="123.71" y1="305.14" x2="134.92" y2="297.13"/>
  <line class="cls-4" x1="134.92" y1="323.66" x2="142.13" y2="333.75"/>
  <line class="cls-4" x1="134.92" y1="297.13" x2="148.45" y2="316.06"/>
  <line class="cls-4" x1="142.13" y1="346.9" x2="142.13" y2="320.37"/>
  <line class="cls-4" x1="148.45" y1="316.06" x2="142.13" y2="320.37"/>
  <line class="cls-4" x1="142.13" y1="346.9" x2="142.43" y2="347.32"/>
  <line class="cls-4" x1="142.13" y1="320.37" x2="147.5" y2="327.88"/>
  <line class="cls-4" x1="142.43" y1="357.86" x2="142.43" y2="331.33"/>
  <line class="cls-4" x1="147.5" y1="327.88" x2="142.43" y2="331.33"/>
  <line class="cls-4" x1="142.43" y1="357.86" x2="147.4" y2="364.82"/>
  <line class="cls-4" x1="147.4" y1="364.82" x2="147.4" y2="338.29"/>
  <line class="cls-4" x1="142.43" y1="331.33" x2="147.4" y2="338.29"/>
  <line class="cls-4" x1="147.4" y1="364.82" x2="152.38" y2="361.25"/>
  <line class="cls-4" x1="152.39" y1="361.25" x2="152.39" y2="334.72"/>
  <line class="cls-4" x1="147.4" y1="338.29" x2="152.38" y2="334.72"/>
  <line class="cls-4" x1="152.39" y1="361.25" x2="157.01" y2="368.04"/>
  <line class="cls-4" x1="152.39" y1="334.72" x2="161.77" y2="348.5"/>
  <line class="cls-4" x1="157.01" y1="378.27" x2="157.01" y2="351.74"/>
  <line class="cls-4" x1="161.77" y1="348.5" x2="157.01" y2="351.74"/>
  <line class="cls-4" x1="157.01" y1="378.27" x2="161.14" y2="384.33"/>
  <line class="cls-4" x1="161.14" y1="384.34" x2="161.14" y2="357.8"/>
  <line class="cls-4" x1="157.01" y1="351.74" x2="161.14" y2="357.8"/>
  <line class="cls-4" x1="161.14" y1="384.34" x2="165.9" y2="381.09"/>
  <line class="cls-4" x1="231.11" y1="519.95" x2="231.11" y2="497.84"/>
  <line class="cls-4" x1="231.11" y1="519.95" x2="216" y2="529.86"/>
  <line class="cls-4" x1="222.69" y1="484.75" x2="229.41" y2="479.77"/>
  <line class="cls-4" x1="212.81" y1="488.3" x2="212.81" y2="469.96"/>
  <line class="cls-4" x1="209.41" y1="487.48" x2="210.92" y2="489.52"/>
  <polyline class="cls-4" points="174.97 512.65 221.41 482.77 231.11 497.84 194.49 521.86"/>
  <line class="cls-4" x1="177.12" y1="511.26" x2="177.12" y2="501.22"/>
  <line class="cls-4" x1="178.51" y1="510.37" x2="209.41" y2="487.49"/>
  <line class="cls-4" x1="165.9" y1="381.09" x2="165.9" y2="354.56"/>
  <line class="cls-4" x1="161.14" y1="357.8" x2="165.9" y2="354.56"/>
  <polyline class="cls-4" points="355.48 370.5 340.59 348.65 297.08 378.31 352.2 459.18"/>
  <line class="cls-4" x1="342.3" y1="520.01" x2="342.3" y2="493.48"/>
  <line class="cls-4" x1="352.2" y1="485.71" x2="372.02" y2="472.2"/>
  <line class="cls-4" x1="395.71" y1="455.24" x2="395.71" y2="429.52"/>
  <line class="cls-4" x1="465.69" y1="405.12" x2="465.69" y2="379.2"/>
  <line class="cls-4" x1="447.88" y1="409.47" x2="451.78" y2="415.08"/>
  <line class="cls-4" x1="452.08" y1="414.86" x2="452.08" y2="388.99"/>
  <polyline class="cls-4" points="368.84 532.42 342.3 493.48 465.72 405.1 496.22 450.45"/>
  <line class="cls-4" x1="465.72" y1="435.39" x2="484.49" y2="463.31"/>
  <line class="cls-4" x1="465.72" y1="461.92" x2="473.69" y2="473.77"/>
  <line class="cls-4" x1="435.08" y1="312.15" x2="435.08" y2="290.04"/>
  <line class="cls-4" x1="512.54" y1="264.21" x2="512.54" y2="286.32"/>
  <line class="cls-4" x1="527.39" y1="286.47" x2="527.39" y2="308.58"/>
  <line class="cls-4" x1="554.38" y1="268.46" x2="554.38" y2="290.58"/>
  <line class="cls-4" x1="554.38" y1="290.58" x2="527.39" y2="308.58"/>
  <polyline class="cls-4" points="527.39 308.58 512.54 286.32 472.91 312.58"/>
  <line class="cls-4" x1="505.5" y1="315.17" x2="505.5" y2="332.3"/>
  <polyline class="cls-4" points="550.65 345.67 487.4 391.1 435.08 312.15"/>
  <line class="cls-4" x1="422.49" y1="309.11" x2="435.08" y2="300.43"/>
  <polyline class="cls-4" points="555.94 319.75 487.4 368.99 435.08 290.04 524.21 227.63 552.24 221.34"/>
  <polyline class="cls-4" points="556.11 241.84 539.53 246.2 522.78 257.38 532.07 271.31 548.82 260.13 554.38 268.46 527.39 286.47 512.54 264.21 467.13 294.49 461.47 296.16 477.77 319.56 498.5 305.12 505.5 315.17 484.77 329.61 492.81 341.15 558.5 295.38"/>
  <line class="cls-4" x1="558.39" y1="263.34" x2="552.08" y2="265.01"/>
  <line class="cls-4" x1="539.53" y1="246.2" x2="539.53" y2="266.33"/>
  <line class="cls-4" x1="124.76" y1="469.02" x2="124.76" y2="442.49"/>
  <line class="cls-4" x1="124.76" y1="469.02" x2="118.79" y2="473.08"/>
  <polyline class="cls-4" points="42.25 344.31 52.72 336.73 124.75 442.49 102.7 456.9"/>
  <line class="cls-4" x1="447.82" y1="81.13" x2="447.82" y2="103.24"/>
  <polyline class="cls-4" points="430.87 54.88 447.82 81.13 458.78 74.05"/>
  <polyline class="cls-4" points="473.58 86.61 447.82 103.24 413.47 50.03 413.47 45.39"/>
  <line class="cls-4" x1="165.9" y1="381.09" x2="169.37" y2="386.19"/>
  <line class="cls-4" x1="165.9" y1="354.56" x2="181.72" y2="377.78"/>
  <line class="cls-4" x1="454.25" y1="131.09" x2="454.25" y2="143.85"/>
  <line class="cls-4" x1="503.23" y1="203.22" x2="503.23" y2="215.98"/>
  <line class="cls-4" x1="454.25" y1="143.85" x2="503.23" y2="215.98"/>
  <line class="cls-4" x1="503.23" y1="215.98" x2="542.64" y2="189.22"/>
  <polyline class="cls-4" points="492.14 105.36 454.25 131.09 469.55 153.63 503.23 203.22 538.67 179.15"/>
  <polyline class="cls-4" points="390.54 525.17 373.83 502.18 465.72 435.39 465.72 461.92"/>
  <line class="cls-4" x1="465.72" y1="461.92" x2="386.45" y2="519.54"/>
  <line class="cls-4" x1="342.3" y1="520.01" x2="353.43" y2="536.33"/>
  <line class="cls-4" x1="151.65" y1="406.12" x2="151.65" y2="398.26"/>
  <line class="cls-4" x1="181.72" y1="377.79" x2="151.65" y2="398.26"/>
  <line class="cls-4" x1="151.65" y1="398.26" x2="155.31" y2="403.63"/>
  <line class="cls-4" x1="155.31" y1="403.63" x2="146.93" y2="409.34"/>
  <line class="cls-4" x1="146.93" y1="409.34" x2="133.89" y2="390.19"/>
  <line class="cls-4" x1="138.1" y1="396.38" x2="138.1" y2="387.73"/>
  <line class="cls-4" x1="133.89" y1="390.19" x2="138.1" y2="387.73"/>
  <line class="cls-4" x1="138.1" y1="387.73" x2="99.42" y2="330.95"/>
  <path class="cls-4" d="M424.77,141.2c1.01.92,1.77,1.92,2.31,3.19"/>
  <polygon class="cls-4" points="214.99 234.96 205.78 241.3 210.49 248.13 183.1 267.02 117.27 171.52 145.27 152.21 199.78 232.59 208.98 226.24 214.99 234.96"/>
  <path class="cls-4" d="M425.91,77.53c-1.9-.28-3.94-.44-5.76-.1-2.53.47-4.62,1.92-7.64,2.41-.28.05-.58.09-.76,0-.35-.18-.26-.86-.17-1.49.55-3.88,1.02-5.92.43-9.22-.18-1.03-.46-2.18-.33-2.85.54-2.62,7.45,1.9,10.28,4.3"/>
  <path class="cls-4" d="M398.81,92.41c1.78-1.79,3.42-3.68,5.34-5.39,1.23-1.1,2.57-2.13,3.43-3.48.91-1.44,1.26-3.26,1.41-5.03.29-3.26-.03-6.41-.27-9.58-.66-9.06-.55-18.25-.87-27.38"/>
  <path class="cls-4" d="M222.48,211.77c-3.4-2.18-6.8-4.37-10.19-6.55l-10.07,6.89c8.69,12.71,17.39,25.41,26.08,38.12,5.85-1.73,11.93-2.81,18.06-3.13-10.65-9.61-14.47-13.46-17.73-17.52-3.26-4.06-5.95-8.32-6.15-17.81Z"/>
  <path class="cls-4" d="M228.94,252.41c6.37-1.88,13.01-2.97,19.68-3.12,3.91-.08,7.83.16,11.7.7"/>
  <path class="cls-4" d="M241.54,189.56c-.28.05-.56.1-.84.15-.46.09-.91.18-1.36.3-.33.09-.66.19-.98.33-.27.11-.53.25-.77.4-.28.18-.55.39-.8.61-.35.31-.67.64-.99.97-.44.47-.86.95-1.27,1.45-1.06,1.27-2.03,2.6-2.94,3.98-2.49,3.8-4.42,7.96-5.74,12.31-.35,1.14-.69,2.28-1.04,3.42.08,1.37.23,2.73.48,4.08.27,1.47.66,2.92,1.22,4.3.47,1.16,1.05,2.28,1.72,3.33.65,1.03,1.4,2,2.16,2.96.82,1.02,1.67,2.02,2.55,2.99,1.09,1.2,2.21,2.35,3.36,3.49,1.57,1.55,3.17,3.07,4.78,4.57,2.82,2.63,5.68,5.21,8.54,7.79,4.63-.03,9.26.38,13.8,1.18"/>
  <path class="cls-4" d="M241.97,187.18c-4.33.7-5.57,1.08-8.22,4.03-2.86,3.18-7.38,9.35-10.07,18.19l-7.59-4.97c.39-.43.76-.87,1.1-1.33,2.18-2.86,3.62-6.28,4.15-9.84.29-1.95.31-3.95.06-5.91-.1-.79-.24-1.57-.42-2.34-.18-.77-.41-1.53-.67-2.28-.43-1.24-.96-2.43-1.51-3.62-.55-1.19-1.14-2.36-1.67-3.55-.39-.88-.75-1.76-1.04-2.67-.29-.91-.49-1.85-.62-2.8-.07-.55-.11-1.1-.13-1.66-.01-.55,0-1.11.08-1.66.03-.24.08-.49.15-.72.07-.24.15-.47.29-.68.11-.17.25-.32.4-.46.15-.14.31-.26.48-.38,2.88-1.99,5.76-3.98,8.64-5.97,1.11,1.73,2.22,3.47,3.33,5.2,1.95-1.32,3.91-2.64,5.86-3.95,1.5,2.92,2.94,5.86,5.13,8.42,1.23,1.43,2.69,2.74,3.4,4.35.91,2.04.6,4.56.21,7.03-.41,2.58-.91,5.1-1.37,7.58Z"/>
  <path class="cls-4" d="M241.54,189.56c-.85,4.88-1.4,9.6-.69,14.34.99,6.59,4.42,13.2,9.05,18.3,3.04,3.34,6.59,6.03,9.77,9.13,4.06,3.96,7.53,8.61,11.67,12.3"/>
  <polyline class="cls-4" points="210.08 203.68 195.23 213.26 150.82 147.76 150.31 148.1 195.06 214.1 210.41 204.2"/>
  <path class="cls-4" d="M142.77,67.77c10.57,15.15,21.15,30.29,31.72,45.43.47-.45.95-.9,1.43-1.34.74-.68,1.47-1.37,2.15-2.11.2-.22.39-.44.57-.67.18-.23.35-.47.51-.72.23-.36.42-.75.53-1.16.1-.36.14-.75.17-1.13.03-.38.03-.76.02-1.14-9.64-14.28-19.28-28.57-28.93-42.85"/>
  <path class="cls-4" d="M139.15,70.45c10.7,15.39,21.39,30.79,32.09,46.18-1.21,1.38-2.36,2.81-3.48,4.26-1.74,2.25-3.42,4.54-5.22,6.75-2.24,2.76-4.65,5.39-7.29,7.77-1.92,1.74-3.96,3.35-6.09,4.83-1.37-.27-2.74-.54-4.12-.8-5.55,3.83-11.11,7.66-16.66,11.49"/>
  <path class="cls-4" d="M226.63,27.43c1.35,2.69,2.59,5.42,3.66,8.23,2.63,6.91,4.22,14.28,7.35,20.93,2.77,5.89,6.75,11.21,10.68,16.48,5.6,7.49,11.12,14.87,15.55,23.19,5.19,9.74,8.89,20.79,16.36,28.29,6.56,6.59,16.02,10.44,23.61,16.33,3.58,2.78,6.74,6.01,9.89,9.24.77.81,1.71,1.54,2.74,1.94,2.08.81,4.51.21,6.81-.49,6.49-1.98,11.98-4.77,17.73-7.5,8.36-3.97,17.26-7.79,24.35-13.83,2.49-2.12,4.76-4.52,6.96-6.97,3.77-4.2,7.34-8.55,11.2-12.62,6.59-6.96,13.99-13.09,20.54-20.26,2.62-2.87,5.11-5.92,8.42-7.93,1.77-1.08,3.77-1.86,5.83-2.1,5.71-.65,11.79,2.95,15.66,7.2"/>
  <path class="cls-4" d="M276.64,240.57c-5.77-3.42-10.45-8-15.27-12.44-3.87-3.57-7.84-7.06-11.03-11.3-2.67-3.55-4.8-7.62-5.83-11.83-1.69-6.88-.46-14.14,1.44-21.49,1.01-3.89,2.2-7.8,1.14-11.32-.39-1.31-1.1-2.56-1.78-3.82-4.57-8.43-8.42-17.3-15.45-23.51-1.9-1.68-4.03-3.16-5.77-4.95-3.45-3.56-5.35-8.32-8.3-12.61-4.67-6.78-11.98-12.38-12.86-20.1-.21-1.89-.04-3.91-.19-5.84-.55-7.16-5.48-13.11-10.44-18.98-3.44-4.06-6.9-8.08-7.75-12.85-.36-2-.26-4.12-.11-6.29.45-6.82,1.32-13.98.26-20.22"/>
  <path class="cls-4" d="M191.18,40.05c.21.38.41.78.61,1.2.93-.67,1.86-1.33,2.79-2-.16-.15-.32-.3-.47-.46"/>
  <path class="cls-4" d="M182.32,44.13c.61,4.03.26,8.25-.43,12.25-.35,2.01-.7,4.02-1.04,6.03-.22-.32-.44-.65-.66-.97-1.57-2.31-3.05-4.73-4.12-7.31-.79-1.9-1.36-3.89-1.9-5.89"/>
  <path class="cls-4" d="M212.58,382.96c3.03,4.45,6.06,8.9,9.09,13.35,1.46,2.15,2.62,4.16,2.67,6.93.05,2.52-.82,5.04-1.96,7.21-1.2,2.27-2.68,4.23-4.45,6.07-1.77,1.83-3.76,3.33-5.84,4.76-28.45,19.61-56.9,39.23-85.36,58.84"/>
  <path class="cls-4" d="M317.84,541.7c-21.95-31.54-43.91-63.08-65.86-94.62-.9-1.3-1.8-2.53-3.14-3.47"/>
  <path class="cls-4" d="M349.79,537.11c-24.64-35.4-49.28-70.81-73.93-106.21-1.27-1.74-2.27-3.38-2.39-5.66-.11-2.22.48-4.07,1.42-6.02.92-1.91,2.1-3.57,3.54-5.12,1.44-1.55,3.07-2.79,4.79-3.98,4.62-3.18,9.24-6.37,13.86-9.55"/>
  <path class="cls-4" d="M350.75,363.56c1.72-1.19,3.45-2.38,5.18-3.57.48-.33.82-.64.84-1.29.02-.56-.15-1.06-.29-1.59-.14-.52-.31-1.02-.29-1.59.02-.65.36-.96.84-1.29.28-.19.55-.38.83-.57"/>
  <path class="cls-4" d="M544.98,195.82c-67.6,46.6-135.21,93.21-202.81,139.81-.41.28-.77.47-1.3.34-.47-.11-.85-.36-1.26-.6-.4-.24-.78-.49-1.25-.6-.54-.13-.89.06-1.3.34-25.64,17.68-51.27,35.35-76.91,53.02-1.29.89-2.58,1.67-4.1,2.16-1.51.49-3,.69-4.58.62-1.6-.07-3.03-.38-4.46-1.17-1.44-.8-2.36-1.94-3.25-3.25-23.84-34.96-47.68-69.92-71.52-104.89-.96-1.41-2.34.91-3.31-.51-3.8-5.58-7.6-11.16-11.4-16.74-.24-.35-.41-.66-.36-1.12.05-.42.22-.77.38-1.14.17-.37.34-.72.39-1.14.05-.45-.12-.77-.36-1.12-27.4-40.18-54.8-80.36-82.2-120.55"/>
  <path class="cls-4" d="M351.89,23.81c.13,3.31.6,6.71.83,10.12.61,9.19-.59,18.43-4.78,26.27-5.25,9.81-15.21,17.41-26,20.98-9.17,3.03-18.94,3.15-28.35,1.56-6.35-1.08-12.53-2.93-18.34-5.6-5.86.9-11.72,1.81-17.58,2.71.96,1.35,1.9,2.71,2.83,4.08,1.68,2.5,3.29,5.04,4.79,7.65,1.13,1.97,2.2,3.98,3.21,6.01,1.07,2.14,2.08,4.32,3.11,6.48.86,1.82,1.73,3.64,2.65,5.44.75,1.48,1.54,2.95,2.38,4.39.8,1.37,1.65,2.7,2.58,3.99.88,1.24,1.83,2.43,2.88,3.53.93.99,1.93,1.91,2.98,2.78,2.18,1.81,4.55,3.38,6.95,4.88,1.86,1.16,3.75,2.28,5.62,3.43,1.35.82,2.69,1.65,4.01,2.52,1.34.88,2.66,1.8,3.94,2.78,1.21.92,2.38,1.89,3.51,2.9,2.49,2.21,4.82,4.59,7.15,6.97.51.93,1.28,1.86,2.23,2.28,1.27.56,2.83.19,4.27-.26,2-.63,3.75-1.44,5.51-2.26,6.57-3.07,13.27-6.41,19.97-9.79,5.28-2.66,10.56-5.34,14.98-9.06,4.95-4.17,8.81-9.64,13.21-14.53,4.83-5.37,10.29-10.04,15.53-14.96,5.35-5.03,10.46-10.33,15.62-15.56"/>
  <path class="cls-4" d="M303.76,18.02c-2.03,3.36-3.64,6.87-5.43,10.33,1.93-.29,3.86-.6,5.78-.91,9.41-1.53,18.72-3.18,27.98-6.24.6-.2,1.2-.4,1.8-.62"/>
  <path class="cls-4" d="M300.49,17.95c-2.05,3.55-3.78,7.2-5.69,10.81l-15.52,1.78"/>
  <polyline class="cls-4" points="267.18 315.04 267.05 303.66 267.11 303.76 267.07 301.21 263.42 294.91 263.39 297.33 263.45 297.43 263.45 297.56"/>
  <polyline class="cls-4" points="263.3 308.35 263.45 297.43 263.43 299.05"/>
  <polygon class="cls-4" points="266.43 301.29 264.08 297.24 263.98 309.51 266.49 313.85 266.43 301.29"/>
  <line class="cls-4" x1="263.45" y1="297.71" x2="263.44" y2="298.57"/>
  <line class="cls-4" x1="247.81" y1="259.02" x2="247.81" y2="259.41"/>
  <polygon class="cls-4" points="248.87 265.84 249.82 267.48 249.82 265.62 248.87 263.98 248.87 265.84"/>
  <polygon class="cls-4" points="248.87 270.16 249.82 271.8 249.82 269.92 248.87 268.27 248.87 270.16"/>
  <polygon class="cls-4" points="248.87 272.14 249.81 273.78 249.82 271.9 248.87 270.25 248.87 272.14"/>
  <polygon class="cls-4" points="248.86 280.83 249.81 282.47 249.81 280.58 248.86 278.94 248.86 280.83"/>
  <polygon class="cls-4" points="252.03 271.29 252.98 272.93 252.98 271.07 252.03 269.43 252.03 271.29"/>
  <polygon class="cls-4" points="252.02 275.61 252.97 277.26 252.98 275.37 252.03 273.73 252.02 275.61"/>
  <polygon class="cls-4" points="252.02 277.6 252.97 279.24 252.97 277.35 252.02 275.71 252.02 277.6"/>
  <polygon class="cls-4" points="252.01 286.28 252.96 287.92 252.96 286.03 252.01 284.39 252.01 286.28"/>
  <polygon class="cls-4" points="255.19 276.74 256.14 278.38 256.14 276.53 255.19 274.88 255.19 276.74"/>
  <polygon class="cls-4" points="255.18 281.07 256.13 282.71 256.13 280.82 255.18 279.18 255.18 281.07"/>
  <polygon class="cls-4" points="255.18 283.05 256.13 284.69 256.13 282.8 255.18 281.16 255.18 283.05"/>
  <polygon class="cls-4" points="255.17 291.73 256.12 293.37 256.12 291.48 255.17 289.84 255.17 291.73"/>
  <polygon class="cls-4" points="258.36 282.22 259.31 283.86 259.31 282 258.36 280.36 258.36 282.22"/>
  <polygon class="cls-4" points="258.35 286.55 259.3 288.19 259.3 286.3 258.35 284.66 258.35 286.55"/>
  <polygon class="cls-4" points="258.35 288.53 259.3 290.17 259.3 288.28 258.35 286.64 258.35 288.53"/>
  <polygon class="cls-4" points="258.34 297.21 259.29 298.85 259.29 296.96 258.34 295.32 258.34 297.21"/>
  <polygon class="cls-4" points="261.51 287.67 262.46 289.32 262.47 287.46 261.51 285.82 261.51 287.67"/>
  <polygon class="cls-4" points="261.51 292 262.46 293.64 262.46 291.75 261.51 290.11 261.51 292"/>
  <polygon class="cls-4" points="261.51 293.98 262.46 295.62 262.46 293.73 261.51 292.09 261.51 293.98"/>
  <polygon class="cls-4" points="261.5 302.66 262.45 304.31 262.45 302.42 261.5 300.78 261.5 302.66"/>
  <polygon class="cls-4" points="280.7 320.82 281.65 322.46 281.65 320.6 280.7 318.96 280.7 320.82"/>
  <polygon class="cls-4" points="280.69 325.14 281.64 326.78 281.64 324.89 280.69 323.25 280.69 325.14"/>
  <polygon class="cls-4" points="280.69 327.12 281.64 328.76 281.64 326.88 280.69 325.23 280.69 327.12"/>
  <polygon class="cls-4" points="280.68 335.81 281.63 337.45 281.63 335.56 280.68 333.92 280.68 335.81"/>
  <polygon class="cls-4" points="277.54 315.36 278.48 316.98 278.48 315.12 277.54 313.5 277.54 315.36"/>
  <polygon class="cls-4" points="277.54 319.69 278.49 321.33 278.49 319.44 277.54 317.8 277.54 319.69"/>
  <polygon class="cls-4" points="277.53 321.67 278.47 323.28 278.47 321.4 277.53 319.78 277.53 321.67"/>
  <polygon class="cls-4" points="277.52 330.35 278.46 331.97 278.46 330.08 277.53 328.46 277.52 330.35"/>
  <polygon class="cls-4" points="274.37 309.88 275.32 311.53 275.32 309.67 274.37 308.02 274.37 309.88"/>
  <polygon class="cls-4" points="274.36 314.21 275.31 315.85 275.32 313.96 274.37 312.32 274.36 314.21"/>
  <polygon class="cls-4" points="274.36 316.19 275.31 317.83 275.31 315.94 274.36 314.3 274.36 316.19"/>
  <polygon class="cls-4" points="274.35 324.87 275.3 326.52 275.3 324.63 274.35 322.99 274.35 324.87"/>
  <polygon class="cls-4" points="271.21 304.43 272.16 306.07 272.16 304.21 271.21 302.57 271.21 304.43"/>
  <polygon class="cls-4" points="271.21 308.76 272.16 310.4 272.16 308.51 271.21 306.87 271.21 308.76"/>
  <polygon class="cls-4" points="271.21 310.74 272.15 312.38 272.16 310.49 271.21 308.85 271.21 310.74"/>
  <polygon class="cls-4" points="271.2 319.42 272.15 321.06 272.15 319.17 271.2 317.53 271.2 319.42"/>
  <polygon class="cls-4" points="268.06 298.98 269.01 300.62 269.01 298.76 268.06 297.12 268.06 298.98"/>
  <polygon class="cls-4" points="268.05 303.3 269 304.95 269 303.06 268.05 301.42 268.05 303.3"/>
  <polygon class="cls-4" points="268.05 305.28 269 306.93 269 305.04 268.05 303.4 268.05 305.28"/>
  <polygon class="cls-4" points="268.04 313.97 268.99 315.61 268.99 313.72 268.04 312.08 268.04 313.97"/>
  <polygon class="cls-4" points="264.78 293.31 265.73 294.95 265.73 293.1 264.78 291.45 264.78 293.31"/>
  <path class="cls-4" d="M344.86,22.4c0,.59.02,1.17.04,1.76.04.92.09,1.84.17,2.75.14,1.72.32,3.44.48,5.17.1,1.05.18,2.11.24,3.16.07,1.35.1,2.7.08,4.05-.05,2.61-.28,5.22-.75,7.78-.45,2.42-1.11,4.8-2.05,7.07-.47,1.14-1.01,2.25-1.61,3.32-.74,1.31-1.59,2.57-2.52,3.77-1.94,2.5-4.22,4.73-6.73,6.66-2.58,1.99-5.4,3.68-8.36,5.02-1.45.66-2.93,1.23-4.45,1.72-1.29.42-2.61.77-3.93,1.05-2.68.58-5.42.9-8.16,1.01-2.81.11-5.63,0-8.42-.3-1.43-.15-2.86-.35-4.28-.6-1.9-.33-3.78-.73-5.65-1.21-2.4-.62-4.76-1.37-7.07-2.26,2.44-2.6,4.58-5.49,6.36-8.61,2.56-4.5,4.35-9.48,5.06-14.58.52-3.72.45-7.52,1.07-11.21.4-2.36,1.08-4.68,1.84-6.96,1.97-.29,3.94-.59,5.9-.9,1.92-.3,3.84-.61,5.75-.94,3.75-.63,7.5-1.3,11.22-2.1,3.78-.81,7.53-1.75,11.24-2.88,1.82-.55,3.62-1.15,5.4-1.81.91-.34,1.82-.69,2.71-1.07"/>
  <line class="cls-4" x1="421.97" y1="70.58" x2="425.91" y2="77.53"/>
  <line class="cls-4" x1="433.97" y1="87.56" x2="447.81" y2="107.71"/>
  <path class="cls-4" d="M226.52,152.87c-.17.12-.33.23-.5.35-3.85,2.66-7.71,5.33-11.56,7.99-.7.48-1.35,1.07-1.84,1.76-1.11,1.57-1.36,3.66-1.3,5.65.07,2.28.52,4.43,1.27,6.49,1.3,3.58,3.46,6.88,4.4,10.58.71,2.8.72,5.84.01,8.68-.64,2.52-1.85,4.89-3.5,6.87-1.04,1.26-2.27,2.36-3.6,3.28-4.95,3.19-9.9,6.39-14.85,9.58l-46.52-68.61.45-.29c3.24-2.05,6.31-4.37,9.15-6.96,2.85-2.59,5.45-5.46,7.85-8.43,3.65-4.54,6.79-9.33,11.17-13.55,2.53-2.45,5.48-4.7,6.4-7.9.32-1.13.4-2.38.35-3.58,2.74-1.77,5.48-3.53,8.23-5.3,10.12,15.71,20.24,31.42,30.36,47.13,1.34,2.08,2.68,4.17,4.02,6.25Z"/>
  <path class="cls-4" d="M231.06,26.25c.21.95.45,1.9.73,2.82,1.5,4.9,4.14,9.42,5.82,14.28,1.5,4.33,2.25,8.92,3.98,13.15,1.16,2.84,2.77,5.52,4.49,8.08,8.08-1.18,16.16-2.36,24.24-3.54.52,2.12,1.52,4.2,3.05,5.74,1.59,1.6,3.75,2.63,5.93,3.15,3.01-3.2,5.52-6.88,7.37-10.87,1.23-2.64,2.17-5.41,2.76-8.27.14-.71.27-1.42.36-2.13.04-.26.07-.52.1-.79.06-.54.11-1.08.16-1.62.11-1.28.18-2.57.27-3.85.09-1.22.19-2.44.35-3.65.2-1.48.48-2.95.84-4.39.24-.95.51-1.9.8-2.83-4.34.5-8.69,1-13.04,1.51"/>
  <polyline class="cls-4" points="311.25 274.32 311.25 274.32 311.25 269.13"/>
  <polygon class="cls-4" points="279.66 269.6 280.45 270.97 280.45 268.44 279.66 267.06 279.66 269.6"/>
  <polygon class="cls-4" points="279.66 272.25 280.45 273.63 280.45 271.1 279.66 269.72 279.66 272.25"/>
  <polygon class="cls-4" points="284.19 277.89 285.45 278.85 285.45 276.32 284.19 275.36 284.19 277.89"/>
  <polygon class="cls-4" points="284.19 275.23 285.45 276.2 285.45 273.67 284.19 272.7 284.19 275.23"/>
  <polygon class="cls-4" points="290.53 281.36 292.06 281.77 292.06 279.24 290.53 278.83 290.53 281.36"/>
  <polygon class="cls-4" points="290.53 278.7 292.06 279.11 292.06 276.58 290.53 276.17 290.53 278.7"/>
  <polygon class="cls-4" points="297.71 282.14 299.29 281.93 299.29 279.4 297.71 279.61 297.71 282.14"/>
  <polygon class="cls-4" points="297.71 279.49 299.29 279.28 299.29 276.75 297.71 276.95 297.71 279.49"/>
  <polygon class="cls-4" points="304.65 280.11 306.03 279.32 306.03 276.78 304.65 277.58 304.65 280.11"/>
  <polygon class="cls-4" points="190.51 286.81 190 287.16 101.43 162.54 111.29 155.66 110.74 154.85 111.84 154.09 112.19 154.59 111.59 155.01 112.15 155.81 102.29 162.69 190.5 286.8 190.51 286.81"/>
  <polygon class="cls-4" points="304.65 277.46 306.03 276.66 306.03 274.13 304.65 274.92 304.65 277.46"/>
  <line class="cls-4" x1="316.81" y1="321.8" x2="316.6" y2="311.03"/>
  <polyline class="cls-4" points="316.59 310.88 316.59 310.75 316.7 310.69 316.62 308.26 310.34 311.89 310.28 314.4 310.39 314.34 310.13 325.66"/>
  <polygon class="cls-4" points="285.26 322.44 286.9 321.5 286.9 319.63 285.26 320.58 285.26 322.44"/>
  <polygon class="cls-4" points="285.25 326.78 286.89 325.84 286.89 323.94 285.26 324.89 285.25 326.78"/>
  <polygon class="cls-4" points="285.25 328.77 286.88 327.82 286.89 325.93 285.25 326.87 285.25 328.77"/>
  <polygon class="cls-4" points="285.23 337.48 286.87 336.53 286.87 334.64 285.24 335.58 285.23 337.48"/>
  <polygon class="cls-4" points="290.7 319.3 292.34 318.35 292.34 316.49 290.7 317.44 290.7 319.3"/>
  <polygon class="cls-4" points="290.69 323.64 292.33 322.69 292.33 320.8 290.69 321.75 290.69 323.64"/>
  <polygon class="cls-4" points="290.69 325.63 292.32 324.68 292.33 322.79 290.69 323.73 290.69 325.63"/>
  <polygon class="cls-4" points="290.67 334.34 292.31 333.39 292.31 331.5 290.67 332.44 290.67 334.34"/>
  <polygon class="cls-4" points="296.14 316.16 297.78 315.21 297.78 313.35 296.14 314.29 296.14 316.16"/>
  <polygon class="cls-4" points="296.13 320.5 297.77 319.55 297.77 317.66 296.13 318.6 296.13 320.5"/>
  <polygon class="cls-4" points="296.13 322.48 297.77 321.54 297.77 319.64 296.13 320.59 296.13 322.48"/>
  <polygon class="cls-4" points="296.11 331.19 297.75 330.25 297.75 328.35 296.11 329.3 296.11 331.19"/>
  <polygon class="cls-4" points="301.61 313 303.24 312.06 303.25 310.19 301.61 311.14 301.61 313"/>
  <polygon class="cls-4" points="301.6 317.34 303.23 316.39 303.24 314.5 301.6 315.45 301.6 317.34"/>
  <polygon class="cls-4" points="301.59 319.33 303.23 318.38 303.23 316.49 301.6 317.43 301.59 319.33"/>
  <polygon class="cls-4" points="301.58 328.04 303.21 327.09 303.22 325.2 301.58 326.14 301.58 328.04"/>
  <polygon class="cls-4" points="307.04 309.86 308.68 308.91 308.69 307.05 307.05 307.99 307.04 309.86"/>
  <polygon class="cls-4" points="307.03 314.2 308.67 313.25 308.68 311.36 307.04 312.3 307.03 314.2"/>
  <polygon class="cls-4" points="307.03 316.18 308.67 315.24 308.67 313.34 307.04 314.29 307.03 316.18"/>
  <polygon class="cls-4" points="307.02 324.89 308.65 323.95 308.66 322.05 307.02 323 307.02 324.89"/>
  <polygon class="cls-4" points="340.1 290.76 341.74 289.81 341.74 287.95 340.11 288.89 340.1 290.76"/>
  <polygon class="cls-4" points="340.09 295.1 341.73 294.15 341.73 292.26 340.1 293.21 340.09 295.1"/>
  <polygon class="cls-4" points="340.09 297.09 341.73 296.14 341.73 294.24 340.09 295.19 340.09 297.09"/>
  <polygon class="cls-4" points="340.07 305.8 341.71 304.85 341.71 302.95 340.08 303.9 340.07 305.8"/>
  <polygon class="cls-4" points="334.66 293.9 336.27 292.97 336.28 291.11 334.67 292.04 334.66 293.9"/>
  <polygon class="cls-4" points="334.65 298.24 336.29 297.3 336.29 295.4 334.66 296.35 334.65 298.24"/>
  <polygon class="cls-4" points="334.65 300.23 336.26 299.3 336.26 297.4 334.65 298.33 334.65 300.23"/>
  <polygon class="cls-4" points="334.63 308.94 336.24 308.01 336.25 306.11 334.64 307.04 334.63 308.94"/>
  <polygon class="cls-4" points="329.2 297.06 330.83 296.11 330.84 294.25 329.2 295.2 329.2 297.06"/>
  <polygon class="cls-4" points="329.19 301.4 330.83 300.45 330.83 298.56 329.19 299.51 329.19 301.4"/>
  <polygon class="cls-4" points="329.19 303.39 330.82 302.44 330.83 300.54 329.19 301.49 329.19 303.39"/>
  <polygon class="cls-4" points="329.17 312.09 330.81 311.15 330.81 309.25 329.17 310.2 329.17 312.09"/>
  <polygon class="cls-4" points="323.76 300.2 325.39 299.26 325.4 297.39 323.76 298.34 323.76 300.2"/>
  <polygon class="cls-4" points="323.75 304.54 325.39 303.6 325.39 301.7 323.75 302.65 323.75 304.54"/>
  <polygon class="cls-4" points="323.75 306.53 325.38 305.58 325.39 303.69 323.75 304.63 323.75 306.53"/>
  <polygon class="cls-4" points="323.73 315.24 325.37 314.29 325.37 312.4 323.73 313.34 323.73 315.24"/>
  <polygon class="cls-4" points="318.32 303.35 319.96 302.4 319.96 300.53 318.32 301.48 318.32 303.35"/>
  <polygon class="cls-4" points="318.31 307.68 319.95 306.74 319.95 304.84 318.31 305.79 318.31 307.68"/>
  <polygon class="cls-4" points="318.31 309.67 319.94 308.72 319.95 306.83 318.31 307.78 318.31 309.67"/>
  <polygon class="cls-4" points="318.29 318.38 319.93 317.43 319.93 315.54 318.29 316.49 318.29 318.38"/>
  <polygon class="cls-4" points="312.67 306.61 314.3 305.66 314.31 303.8 312.67 304.75 312.67 306.61"/>
  <polyline class="cls-4" points="315.51 310.1 311.47 312.43 311.29 324.99"/>
  <line class="cls-4" x1="315.62" y1="322.49" x2="315.51" y2="310.1"/>
  <line class="cls-4" x1="310.29" y1="275.58" x2="311.25" y2="274.32"/>
  <polyline class="cls-4" points="311.25 271.79 310.29 273.05 310.29 275.58"/>
  <line class="cls-4" x1="310.29" y1="272.93" x2="311.25" y2="271.67"/>
  <polyline class="cls-4" points="311.25 269.13 310.29 270.39 310.29 272.93"/>
  <polygon class="cls-4" points="313.76 269.24 314.17 267.71 314.17 265.18 313.76 266.71 313.76 269.24"/>
  <polygon class="cls-4" points="313.76 266.59 314.17 265.05 314.17 262.52 313.76 264.05 313.76 266.59"/>
  <polygon class="cls-4" points="277.63 265.31 277.84 266.89 277.84 264.36 277.63 262.78 277.63 265.31"/>
  <polygon class="cls-4" points="277.63 262.66 277.84 264.23 277.84 261.7 277.63 260.12 277.63 262.66"/>
  <line class="cls-4" x1="313.76" y1="266.59" x2="313.76" y2="266.71"/>
  <line class="cls-4" x1="314.17" y1="265.18" x2="314.17" y2="265.05"/>
  <line class="cls-4" x1="314.54" y1="259.4" x2="314.54" y2="259.52"/>
  <line class="cls-4" x1="277.63" y1="262.66" x2="277.63" y2="262.78"/>
  <line class="cls-4" x1="277.84" y1="264.36" x2="277.84" y2="264.23"/>
  <line class="cls-4" x1="230.84" y1="255.19" x2="228.94" y2="252.41"/>
  <line class="cls-4" x1="279.66" y1="269.6" x2="279.66" y2="269.72"/>
  <line class="cls-4" x1="280.45" y1="271.09" x2="280.45" y2="270.97"/>
  <line class="cls-4" x1="285.45" y1="276.32" x2="285.45" y2="276.2"/>
  <line class="cls-4" x1="290.53" y1="278.7" x2="290.53" y2="278.83"/>
  <line class="cls-4" x1="297.71" y1="279.49" x2="297.71" y2="279.61"/>
  <line class="cls-4" x1="299.29" y1="279.4" x2="299.29" y2="279.28"/>
  <line class="cls-4" x1="87.77" y1="207.59" x2="87.77" y2="200.03"/>
  <line class="cls-4" x1="304.65" y1="277.46" x2="304.65" y2="277.58"/>
  <line class="cls-4" x1="246.03" y1="313.46" x2="253.53" y2="326.33"/>
  <line class="cls-4" x1="247.89" y1="312.09" x2="255.49" y2="325.11"/>
  <line class="cls-4" x1="323.18" y1="331.76" x2="315.02" y2="336.47"/>
  <line class="cls-4" x1="322.78" y1="330.92" x2="314.54" y2="335.67"/>
  <line class="cls-4" x1="322.35" y1="330" x2="314.03" y2="334.81"/>
  <line class="cls-4" x1="321.96" y1="329.15" x2="313.55" y2="334.01"/>
  <line class="cls-4" x1="321.53" y1="328.23" x2="313.03" y2="333.14"/>
  <line class="cls-4" x1="320.31" y1="325.8" x2="311.64" y2="330.81"/>
  <line class="cls-4" x1="320.31" y1="325.62" x2="311.56" y2="330.68"/>
  <line class="cls-4" x1="320.74" y1="326.54" x2="312.08" y2="331.54"/>
  <line class="cls-4" x1="321.14" y1="327.39" x2="312.55" y2="332.34"/>
  <line class="cls-4" x1="320.74" y1="326.7" x2="312.15" y2="331.66"/>
  <line class="cls-4" x1="321.14" y1="327.55" x2="312.63" y2="332.46"/>
  <line class="cls-4" x1="321.53" y1="328.41" x2="313.11" y2="333.27"/>
  <line class="cls-4" x1="321.96" y1="329.31" x2="313.62" y2="334.13"/>
  <line class="cls-4" x1="322.35" y1="330.17" x2="314.1" y2="334.94"/>
  <line class="cls-4" x1="193.22" y1="281.43" x2="221.67" y2="326.6"/>
  <line class="cls-4" x1="221.67" y1="326.6" x2="249.99" y2="310.07"/>
  <line class="cls-4" x1="254.23" y1="378.29" x2="314.48" y2="336.76"/>
  <line class="cls-4" x1="230.81" y1="341.12" x2="254.23" y2="378.29"/>
  <line class="cls-4" x1="322.78" y1="331.08" x2="314.62" y2="335.79"/>
  <line class="cls-4" x1="323.18" y1="331.9" x2="315.08" y2="336.57"/>
  <polyline class="cls-4" points="339.63 320.17 339.28 319.66 323.78 330.35"/>
  <polyline class="cls-4" points="229.96 344.77 222.1 331.15 223.64 330.26 229.96 341.22"/>
  <line class="cls-4" x1="223.64" y1="329.97" x2="230.01" y2="340.89"/>
  <line class="cls-4" x1="229.23" y1="325.85" x2="235.89" y2="337.25"/>
  <polyline class="cls-4" points="227.37 327.51 227.37 327.22 229.23 326.13 235.71 337.36"/>
  <line class="cls-4" x1="227.37" y1="327.22" x2="233.93" y2="338.47"/>
  <polyline class="cls-4" points="225.5 328.88 225.5 328.6 227.37 327.51 233.76 338.57"/>
  <line class="cls-4" x1="225.5" y1="328.6" x2="231.97" y2="339.68"/>
  <polyline class="cls-4" points="223.64 330.26 223.64 329.97 225.5 328.88 231.8 339.79"/>
  <line class="cls-4" x1="236.7" y1="320.34" x2="243.73" y2="332.4"/>
  <polyline class="cls-4" points="234.83 322.01 234.83 321.72 236.7 320.63 243.56 332.51"/>
  <line class="cls-4" x1="234.83" y1="321.72" x2="241.77" y2="333.61"/>
  <polyline class="cls-4" points="232.97 323.38 232.97 323.09 234.83 322.01 241.59 333.72"/>
  <line class="cls-4" x1="232.97" y1="323.09" x2="239.81" y2="334.83"/>
  <polyline class="cls-4" points="231.1 324.76 231.1 324.47 232.97 323.38 239.64 334.93"/>
  <line class="cls-4" x1="231.1" y1="324.47" x2="237.85" y2="336.04"/>
  <polyline class="cls-4" points="229.23 326.13 229.23 325.84 231.1 324.76 237.68 336.15"/>
  <line class="cls-4" x1="240.43" y1="317.59" x2="247.65" y2="329.97"/>
  <polyline class="cls-4" points="238.56 319.25 238.56 318.97 240.43 317.88 247.47 330.08"/>
  <line class="cls-4" x1="238.56" y1="318.97" x2="245.69" y2="331.18"/>
  <polyline class="cls-4" points="236.7 320.63 236.7 320.34 238.56 319.25 245.51 331.29"/>
  <polyline class="cls-4" points="240.43 317.88 240.43 317.59 242.3 316.5 249.43 328.87"/>
  <line class="cls-4" x1="242.3" y1="316.21" x2="249.61" y2="328.76"/>
  <polyline class="cls-4" points="247.89 312.38 247.89 312.09 249.76 311 257.27 324.01"/>
  <polyline class="cls-4" points="246.03 313.75 246.03 313.46 247.89 312.38 255.31 325.23"/>
  <line class="cls-4" x1="244.16" y1="314.84" x2="251.57" y2="327.54"/>
  <polyline class="cls-4" points="244.16 315.13 244.16 314.84 246.03 313.75 253.35 326.44"/>
  <polyline class="cls-4" points="242.3 316.5 242.3 316.21 244.16 315.13 251.39 327.65"/>
  <line class="cls-4" x1="258.24" y1="324.14" x2="230.82" y2="341.12"/>
  <polyline class="cls-3" points="287.29 301.94 301.33 293.83 300.83 292.96"/>
  <line class="cls-3" x1="300.83" y1="294.13" x2="300.83" y2="292.96"/>
  <polyline class="cls-3" points="222.96 260.53 232.72 274.8 232.21 275.15 222.8 261.38"/>
  <polyline class="cls-3" points="231.19 272.56 234.22 270.49 234.99 271.62"/>
  <polyline class="cls-3" points="230.42 271.44 233.25 269.5 234.02 270.63"/>
  <polyline class="cls-3" points="229.65 270.31 232.27 268.52 233.04 269.64"/>
  <polyline class="cls-3" points="228.88 269.18 231.29 267.53 232.06 268.66"/>
  <polyline class="cls-3" points="228.11 268.06 230.32 266.55 231.09 267.67"/>
  <polyline class="cls-3" points="328.06 278.4 318.35 284.01 316.5 280.8 316.5 250.47"/>
  <polyline class="cls-3" points="227.34 266.93 229.34 265.56 230.11 266.69"/>
  <polyline class="cls-3" points="226.57 265.81 228.37 264.58 229.14 265.71"/>
  <polyline class="cls-3" points="225.8 264.68 227.39 263.59 228.16 264.72"/>
  <line class="cls-3" x1="274.91" y1="268.43" x2="274.91" y2="250.38"/>
  <line class="cls-3" x1="272.72" y1="276.71" x2="272.72" y2="271.11"/>
  <polyline class="cls-3" points="225.03 263.56 226.42 262.61 227.19 263.73"/>
  <polyline class="cls-3" points="231.96 273.69 235.2 271.47 236.17 272.9 236.17 272.46"/>
  <line class="cls-3" x1="314.47" y1="341.84" x2="314.45" y2="341.86"/>
  <polyline class="cls-3" points="232.72 274.8 232.72 275.26 232.21 275.61 232.21 275.15"/>
  <polyline class="cls-3" points="232.21 275.61 222.8 261.84 193.53 281.93"/>
  <line class="cls-3" x1="222.8" y1="261.38" x2="222.8" y2="261.84"/>
  <line class="cls-3" x1="236.17" y1="272.9" x2="247.2" y2="265.36"/>
  <line class="cls-3" x1="222.8" y1="261.38" x2="193.22" y2="281.43"/>
  <line class="cls-3" x1="192.38" y1="281.26" x2="222.96" y2="260.53"/>
  <line class="cls-3" x1="221.47" y1="331.86" x2="192.38" y2="285.68"/>
  <line class="cls-3" x1="192.38" y1="281.26" x2="192.38" y2="285.68"/>
  <line class="cls-3" x1="221.47" y1="327.43" x2="192.38" y2="281.26"/>
  <line class="cls-3" x1="221.67" y1="326.6" x2="221.47" y2="327.44"/>
  <line class="cls-3" x1="250.32" y1="310.59" x2="249.99" y2="310.07"/>
  <line class="cls-3" x1="221.47" y1="331.86" x2="221.47" y2="327.44"/>
  <line class="cls-3" x1="315.3" y1="338.31" x2="315.28" y2="338.33"/>
  <line class="cls-3" x1="315.3" y1="336.94" x2="315.3" y2="338.31"/>
  <line class="cls-3" x1="315.3" y1="336.94" x2="254.06" y2="379.16"/>
  <line class="cls-3" x1="254.23" y1="378.29" x2="254.06" y2="379.16"/>
  <line class="cls-3" x1="254.06" y1="383.58" x2="254.06" y2="379.16"/>
  <line class="cls-3" x1="254.06" y1="383.58" x2="229.97" y2="345.34"/>
  <line class="cls-3" x1="254.06" y1="379.16" x2="229.97" y2="340.92"/>
  <line class="cls-3" x1="229.96" y1="340.92" x2="257.92" y2="323.61"/>
  <line class="cls-3" x1="229.96" y1="345.34" x2="229.96" y2="340.92"/>
  <line class="cls-3" x1="258.24" y1="324.14" x2="258.24" y2="324.21"/>
  <line class="cls-3" x1="257.92" y1="323.61" x2="258.24" y2="324.14"/>
  <line class="cls-3" x1="323.57" y1="331.24" x2="321.76" y2="327.99"/>
  <line class="cls-3" x1="323.57" y1="331.24" x2="323.57" y2="332.61"/>
  <line class="cls-3" x1="275.64" y1="281.78" x2="264.31" y2="262.15"/>
  <line class="cls-3" x1="316.5" y1="258.36" x2="328.06" y2="278.4"/>
  <line class="cls-3" x1="264.31" y1="262.15" x2="274.91" y2="256.04"/>
  <line class="cls-3" x1="277.71" y1="239.95" x2="247.2" y2="257.57"/>
  <line class="cls-3" x1="308.7" y1="222.06" x2="295.66" y2="229.58"/>
  <line class="cls-3" x1="344.21" y1="283.55" x2="308.7" y2="222.06"/>
  <line class="cls-3" x1="344.21" y1="305.98" x2="344.21" y2="283.55"/>
  <line class="cls-3" x1="282.7" y1="341.49" x2="344.21" y2="305.98"/>
  <line class="cls-3" x1="247.2" y1="280" x2="247.2" y2="257.57"/>
  <line class="cls-3" x1="247.2" y1="257.57" x2="282.7" y2="319.06"/>
  <line class="cls-3" x1="282.7" y1="341.49" x2="282.7" y2="319.06"/>
  <line class="cls-3" x1="247.2" y1="280" x2="282.7" y2="341.49"/>
  <path class="cls-3" d="M316.4,252.34c1.08-11.43-7.31-21.58-18.74-22.66-11.43-1.08-21.58,7.31-22.66,18.75-1.08,11.43,7.31,21.58,18.75,22.66,11.43,1.08,21.58-7.31,22.66-18.74Z"/>
  <line class="cls-3" x1="311" y1="329.74" x2="315.3" y2="336.94"/>
  <polyline class="cls-3" points="323.18 331.76 322.78 331.08 322.78 330.92 322.35 330.17 322.35 330 321.96 329.31 321.96 329.15 321.53 328.41 321.53 328.23 321.14 327.55 321.14 327.39 320.74 326.7 320.74 326.54 320.31 325.8 320.31 325.62 319.92 324.94 319.92 324.78"/>
  <line class="cls-3" x1="319.92" y1="324.78" x2="321.76" y2="327.99"/>
  <polyline class="cls-3" points="323.57 332.61 323.18 331.9 323.18 331.76"/>
  <polyline class="cls-3" points="323.57 331.24 339.63 320.17 323.57 332.61"/>
  <line class="cls-3" x1="236.17" y1="272.46" x2="247.2" y2="264.93"/>
  <line class="cls-3" x1="235.2" y1="271.03" x2="247.2" y2="262.83"/>
  <line class="cls-3" x1="282.7" y1="319.06" x2="344.21" y2="283.55"/>
  <line class="cls-3" x1="315.28" y1="338.33" x2="254.06" y2="383.58"/>
  <line class="cls-3" x1="221.47" y1="331.86" x2="222.25" y2="331.41"/>
  <line class="cls-3" x1="250.32" y1="310.59" x2="221.47" y2="327.43"/>
  <line class="cls-3" x1="287.29" y1="301.94" x2="275.8" y2="282.05"/>
  <path class="cls-3" d="M275.8,282.05c5.04,8.74,15.19,13.16,25.02,10.91"/>
  <path class="cls-3" d="M274.91,260.78c-3.15,6.71-2.88,14.53.74,21"/>
  <line class="cls-3" x1="314.49" y1="277.33" x2="316.5" y2="280.8"/>
  <path class="cls-3" d="M274.91,268.43c0,9.73,6.75,18.16,16.24,20.29,9.49,2.13,19.18-2.6,23.35-11.39"/>
  <polyline class="cls-3" points="235.2 271.47 235.2 271.03 236.17 272.46"/>
  <text class="cls-5" transform="translate(66.22 541.62)"><tspan x="0" y="0">Axonometric</tspan></text>
</svg>