<?xml version="1.0" encoding="UTF-8"?>
<svg id="Layer_1" data-name="Layer 1" xmlns="http://www.w3.org/2000/svg" xmlns:xlink="http://www.w3.org/1999/xlink" viewBox="0 0 595.28 556.43">
  <defs>
    <style>
      .cls-1, .cls-2, .cls-3, .cls-4, .cls-5, .cls-6, .cls-7, .cls-8, .cls-9, .cls-10 {
        fill: none;
      }

      .cls-11 {
        fill: #f26649;
      }

      .cls-2 {
        stroke: #747475;
        stroke-width: .06px;
      }

      .cls-2, .cls-5, .cls-6, .cls-7, .cls-8, .cls-9 {
        stroke-linecap: round;
        stroke-linejoin: round;
      }

      .cls-3, .cls-4 {
        stroke: #f26649;
        stroke-miterlimit: 10;
      }

      .cls-3, .cls-6 {
        stroke-dasharray: 2 2;
      }

      .cls-12, .cls-13 {
        fill: #231f20;
      }

      .cls-5, .cls-6 {
        stroke: #3a3331;
      }

      .cls-5, .cls-6, .cls-9 {
        stroke-width: .12px;
      }

      .cls-14 {
        clip-path: url(#clippath-17);
      }

      .cls-15 {
        clip-path: url(#clippath-11);
      }

      .cls-16 {
        clip-path: url(#clippath-16);
      }

      .cls-17 {
        clip-path: url(#clippath-10);
      }

      .cls-18 {
        clip-path: url(#clippath-15);
      }

      .cls-19 {
        clip-path: url(#clippath-13);
      }

      .cls-20 {
        clip-path: url(#clippath-14);
      }

      .cls-21 {
        clip-path: url(#clippath-12);
      }

      .cls-22 {
        clip-path: url(#clippath-1);
      }

      .cls-23 {
        clip-path: url(#clippath-3);
      }

      .cls-24 {
        clip-path: url(#clippath-4);
      }

      .cls-25 {
        clip-path: url(#clippath-2);
      }

      .cls-26 {
        clip-path: url(#clippath-7);
      }

      .cls-27 {
        clip-path: url(#clippath-6);
      }

      .cls-28 {
        clip-path: url(#clippath-9);
      }

      .cls-29 {
        clip-path: url(#clippath-8);
      }

      .cls-30 {
        clip-path: url(#clippath-5);
      }

      .cls-13 {
        font-family: Inter-Regular, Inter;
        font-size: 10px;
        font-variation-settings: 'opsz' 14, 'wght' 400;
      }

      .cls-7 {
        stroke: #cb654f;
        stroke-width: .25px;
      }

      .cls-31 {
        fill: #fff;
      }

      .cls-8, .cls-10 {
        stroke: #231f20;
        stroke-width: .75px;
      }

      .cls-9 {
        stroke: #ec0083;
      }

      .cls-32 {
        clip-path: url(#clippath);
      }
    </style>
    <clipPath id="clippath">
      <rect class="cls-1" x="510.42" y="409.03" width="21.4" height="8.22"/>
    </clipPath>
    <clipPath id="clippath-1">
      <rect class="cls-1" x="510.42" y="409.03" width="21.4" height="8.22"/>
    </clipPath>
    <clipPath id="clippath-2">
      <rect class="cls-1" x="490.7" y="-10.52" width=".5" height="546.93"/>
    </clipPath>
    <clipPath id="clippath-3">
      <rect class="cls-1" x="490.7" y="-10.52" width=".5" height="546.93"/>
    </clipPath>
    <clipPath id="clippath-4">
      <rect class="cls-1" x="510.42" y="409.03" width="21.4" height="8.22"/>
    </clipPath>
    <clipPath id="clippath-5">
      <rect class="cls-1" x="445.49" y="379.91" width="3.24" height="7.48"/>
    </clipPath>
    <clipPath id="clippath-6">
      <rect class="cls-1" x="489.2" y="398.97" width="3.74" height="6.48"/>
    </clipPath>
    <clipPath id="clippath-7">
      <rect class="cls-1" x="532.82" y="380.24" width="3.24" height="7.48"/>
    </clipPath>
    <clipPath id="clippath-8">
      <rect class="cls-1" x="219.7" y="-8.12" width="141.73" height="520.57"/>
    </clipPath>
    <clipPath id="clippath-9">
      <rect class="cls-1" x="227.3" y="381.64" width="6.48" height="7.48"/>
    </clipPath>
    <clipPath id="clippath-10">
      <rect class="cls-1" x="295.97" y="423.45" width="7.48" height="6.48"/>
    </clipPath>
    <clipPath id="clippath-11">
      <rect class="cls-1" x="345.72" y="337.97" width="6.48" height="7.48"/>
    </clipPath>
    <clipPath id="clippath-12">
      <rect class="cls-1" x="219.7" y="-8.12" width="141.73" height="520.57"/>
    </clipPath>
    <clipPath id="clippath-13">
      <rect class="cls-1" x="219.7" y="-8.12" width="141.73" height="520.57"/>
    </clipPath>
    <clipPath id="clippath-14">
      <rect class="cls-1" x="219.7" y="21.3" width="141.73" height="520.57"/>
    </clipPath>
    <clipPath id="clippath-15">
      <rect class="cls-1" x="299.22" y="21.37" width="1" height="546.92"/>
    </clipPath>
    <clipPath id="clippath-16">
      <rect class="cls-1" x="299.22" y="21.37" width="1" height="546.92"/>
    </clipPath>
    <clipPath id="clippath-17">
      <rect class="cls-1" x="219.7" y="-8.12" width="141.73" height="520.57"/>
    </clipPath>
  </defs>
  <g class="cls-32">
    <path class="cls-12" d="M449.76,366.13h26.07l.98-.78v6.81s3.9,0,3.9,0v13.39h.73v-9.83h2.5v-2.32h3.11s0,2.32,0,2.32h2.55v-2.32h2.71v2.32h2.55s-.04-2.32,0-2.32,3.11,0,3.11,0v2.32h2.5v9.83h.73c.06,0,0-13.39,0-13.39h3.91v-6.81s.96.52.96.52l26.08.26v26.95h-82.39"/>
    <line class="cls-9" x1="501.19" y1="375.45" x2="501.19" y2="375.71"/>
    <line class="cls-9" x1="480.71" y1="375.45" x2="480.71" y2="375.71"/>
    <rect class="cls-2" x="509.42" y="383.94" width="11.31" height="8.67"/>
    <rect class="cls-2" x="461.38" y="383.94" width="11.62" height="8.67"/>
    <path class="cls-2" d="M463.89,385.14c0,1.21-.49,2.2-1.1,2.2s-1.1-.98-1.1-2.2.49-2.2,1.1-2.2,1.1.98,1.1,2.2Z"/>
    <path class="cls-2" d="M463.89,391.06c0,1.21-.49,2.2-1.1,2.2s-1.1-.98-1.1-2.2.49-2.2,1.1-2.2,1.1.98,1.1,2.2Z"/>
    <path class="cls-2" d="M468.49,384.86c0,1.21-.49,2.2-1.1,2.2s-1.1-.98-1.1-2.2.49-2.2,1.1-2.2,1.1.98,1.1,2.2Z"/>
    <path class="cls-2" d="M468.49,391.06c0,1.21-.49,2.2-1.1,2.2s-1.1-.98-1.1-2.2.49-2.2,1.1-2.2,1.1.98,1.1,2.2Z"/>
    <path class="cls-2" d="M472.63,385.14c0,1.21-.49,2.2-1.1,2.2s-1.1-.98-1.1-2.2.49-2.2,1.1-2.2,1.1.98,1.1,2.2Z"/>
    <path class="cls-2" d="M472.63,391.06c0,1.21-.49,2.2-1.1,2.2s-1.1-.98-1.1-2.2.49-2.2,1.1-2.2,1.1.98,1.1,2.2Z"/>
    <path class="cls-2" d="M511.81,385.14c0,1.21-.49,2.2-1.1,2.2s-1.1-.98-1.1-2.2.49-2.2,1.1-2.2,1.1.98,1.1,2.2Z"/>
    <path class="cls-2" d="M511.81,391.06c0,1.21-.49,2.2-1.1,2.2s-1.1-.98-1.1-2.2.49-2.2,1.1-2.2,1.1.98,1.1,2.2Z"/>
    <path class="cls-2" d="M516.41,384.86c0,1.21-.49,2.2-1.1,2.2s-1.1-.98-1.1-2.2.49-2.2,1.1-2.2,1.1.98,1.1,2.2Z"/>
    <path class="cls-2" d="M516.41,391.06c0,1.21-.49,2.2-1.1,2.2s-1.1-.98-1.1-2.2.49-2.2,1.1-2.2,1.1.98,1.1,2.2Z"/>
    <path class="cls-2" d="M520.54,385.14c0,1.21-.49,2.2-1.1,2.2s-1.1-.98-1.1-2.2.49-2.2,1.1-2.2,1.1.98,1.1,2.2Z"/>
    <path class="cls-2" d="M520.54,391.06c0,1.21-.49,2.2-1.1,2.2s-1.1-.98-1.1-2.2.49-2.2,1.1-2.2,1.1.98,1.1,2.2Z"/>
  </g>
  <g class="cls-22">
    <g class="cls-25">
      <g class="cls-23">
        <line class="cls-3" x1="490.95" y1="536.4" x2="490.95" y2="-10.52"/>
      </g>
    </g>
    <path class="cls-2" d="M503.8,368.27h-1.68s-.03.02-.03-.02v-6.63c0-.47,0-.89.14-1.32.28-.85.86-1.04,1.25-.41.16.26.32.76.32,1.2v7.18Z"/>
    <path class="cls-2" d="M527.06,361.32v-4.29c0-.36-.02-1.77.04-2.14.12-.7.45-1.17.81-1.17s.7.47.82,1.17c.06.37.04,1.77.04,2.13v4.29h-1.71Z"/>
    <path class="cls-2" d="M512.9,361.32v-4.29c0-.36-.02-1.77.04-2.14.12-.7.45-1.17.82-1.17s.7.47.82,1.17c.06.37.04,1.77.04,2.13v4.29h-1.71Z"/>
    <path class="cls-2" d="M509.88,361.32v-4.29c0-.36-.02-1.77.04-2.14.12-.7.45-1.17.82-1.17s.7.47.82,1.17c.06.37.04,1.77.04,2.13v4.29h-1.71Z"/>
    <path class="cls-2" d="M506.84,384.67c0,.07,0,.14,0,.21,0,.07-.01.1-.05.1h-.98v.63s-3.81,0-3.81,0"/>
    <path class="cls-2" d="M507.21,384.72s0,.09,0,.13c0,.48-.18.88-.42.88h-.59c0,.21,0,.42.01.63h-3.82"/>
    <path class="cls-2" d="M515.92,361.32v-4.29c0-.36-.02-1.77.04-2.14.12-.7.45-1.17.81-1.17s.7.47.82,1.17c.06.37.04,1.77.04,2.13v4.29h-1.71Z"/>
    <path class="cls-2" d="M506.86,361.32v-4.29c0-.36-.02-1.77.04-2.14.12-.7.45-1.17.82-1.17s.7.47.82,1.17c.06.37.04,1.77.04,2.13v4.29h-1.71Z"/>
    <path class="cls-2" d="M474.7,384.72s0,.09,0,.13c0,.48.18.88.42.88h.59c0,.21,0,.42-.01.63h3.82"/>
    <path class="cls-2" d="M475.07,384.67c0,.07,0,.14,0,.21,0,.07.01.1.05.1h.98v.63s3.81,0,3.81,0"/>
    <path class="cls-2" d="M518.94,361.32v-4.29c0-.36-.02-1.77.04-2.14.12-.7.45-1.17.82-1.17s.7.47.82,1.17c.06.37.04,1.77.04,2.13v4.29h-1.71Z"/>
    <path class="cls-2" d="M478.11,368.27h1.68s.03.02.03-.02v-6.63c0-.47,0-.89-.14-1.32-.28-.85-.86-1.04-1.25-.41-.17.26-.32.76-.32,1.2v7.18Z"/>
    <path class="cls-2" d="M454.85,361.32v-4.29c0-.36.02-1.77-.04-2.14-.12-.7-.45-1.17-.81-1.17s-.7.47-.82,1.17c-.06.37-.04,1.77-.04,2.13v4.29h1.71Z"/>
    <path class="cls-2" d="M469.01,361.32v-4.29c0-.36.02-1.77-.04-2.14-.12-.7-.45-1.17-.81-1.17s-.7.47-.82,1.17c-.06.37-.04,1.77-.04,2.13v4.29h1.71Z"/>
    <path class="cls-2" d="M472.03,361.32v-4.29c0-.36.02-1.77-.04-2.14-.12-.7-.45-1.17-.82-1.17s-.7.47-.82,1.17c-.06.37-.04,1.77-.04,2.13v4.29h1.71Z"/>
    <path class="cls-2" d="M465.99,361.32v-4.29c0-.36.02-1.77-.04-2.14-.12-.7-.45-1.17-.81-1.17s-.7.47-.82,1.17c-.06.37-.04,1.77-.04,2.13v4.29h1.71Z"/>
    <path class="cls-2" d="M475.05,361.32v-4.29c0-.36.02-1.77-.04-2.14-.12-.7-.45-1.17-.82-1.17s-.7.47-.82,1.17c-.06.37-.04,1.77-.04,2.13v4.29h1.71Z"/>
    <path class="cls-2" d="M462.97,361.32v-4.29c0-.36.02-1.77-.04-2.14-.12-.7-.45-1.17-.82-1.17s-.7.47-.82,1.17c-.06.37-.04,1.77-.04,2.13v4.29h1.71Z"/>
    <path class="cls-2" d="M519.17,105.11v-4.29c0-.36-.02-1.76.04-2.13.12-.7.45-1.17.82-1.17s.7.47.82,1.17c.06.37.04,1.77.04,2.13v4.29h-1.71Z"/>
    <path class="cls-2" d="M507.09,105.11v-4.29c0-.36-.02-1.76.04-2.13.12-.7.45-1.17.81-1.17s.7.47.82,1.17c.06.37.04,1.77.04,2.13v4.29h-1.71Z"/>
    <path class="cls-2" d="M516.15,105.11v-4.29c0-.36-.02-1.76.04-2.13.12-.7.45-1.17.82-1.17s.7.47.82,1.17c.06.37.04,1.77.04,2.13v4.29h-1.71Z"/>
    <path class="cls-2" d="M510.11,105.11v-4.29c0-.36-.02-1.76.04-2.13.12-.7.45-1.17.82-1.17s.7.47.81,1.17c.06.37.04,1.77.04,2.13v4.29h-1.71Z"/>
    <path class="cls-2" d="M513.13,105.11v-4.29c0-.36-.02-1.76.04-2.13.12-.7.45-1.17.82-1.17s.7.47.81,1.17c.06.37.04,1.77.04,2.13v4.29h-1.71Z"/>
    <path class="cls-2" d="M527.29,105.11v-4.29c0-.36-.02-1.76.04-2.13.12-.7.45-1.17.82-1.17s.7.47.82,1.17c.06.37.04,1.77.04,2.13v4.29h-1.71Z"/>
    <path class="cls-2" d="M454.62,105.11v-4.29c0-.36.02-1.76-.04-2.13-.12-.7-.45-1.17-.82-1.17s-.7.47-.82,1.17c-.06.37-.04,1.77-.04,2.13v4.29h1.71Z"/>
    <path class="cls-2" d="M468.78,105.11v-4.29c0-.36.02-1.76-.04-2.13-.12-.7-.45-1.17-.81-1.17s-.7.47-.82,1.17c-.06.37-.04,1.77-.04,2.13v4.29h1.71Z"/>
    <path class="cls-2" d="M471.8,105.11v-4.29c0-.36.02-1.76-.04-2.13-.12-.7-.45-1.17-.82-1.17s-.7.47-.81,1.17c-.06.37-.04,1.77-.04,2.13v4.29h1.71Z"/>
    <path class="cls-2" d="M465.76,105.11v-4.29c0-.36.02-1.76-.04-2.13-.12-.7-.45-1.17-.82-1.17s-.7.47-.82,1.17c-.06.37-.04,1.77-.04,2.13v4.29h1.71Z"/>
    <path class="cls-2" d="M474.82,105.11v-4.29c0-.36.02-1.76-.04-2.13-.12-.7-.45-1.17-.82-1.17s-.7.47-.82,1.17c-.06.37-.04,1.77-.04,2.13v4.29h1.71Z"/>
    <path class="cls-2" d="M462.74,105.11v-4.29c0-.36.02-1.76-.04-2.13-.12-.7-.45-1.17-.82-1.17s-.7.47-.82,1.17c-.06.37-.04,1.77-.04,2.13v4.29h1.71Z"/>
    <path class="cls-2" d="M501.65,387.21c0,.06,0,.13,0,.19,0,.07,0,.11-.03.16-.02.05-.04.07-.08.07-3.53,0-7.06,0-10.59-.01-3.53,0-7.06,0-10.6.01-.03,0-.05-.02-.08-.07-.02-.05-.03-.09-.03-.16,0-.06,0-.13,0-.19"/>
    <path class="cls-2" d="M502.03,387.25s0,.08,0,.12c0,.29-.03.5-.14.7-.1.21-.2.3-.35.3-2.62,0-5.24,0-7.86-.01-.91,0-1.82,0-2.73,0-.91,0-1.82,0-2.73,0-2.62,0-5.24,0-7.86.01-.14,0-.25-.09-.35-.3-.1-.21-.14-.41-.14-.7,0-.04,0-.08,0-.12"/>
    <path class="cls-2" d="M465.53,77.82c.62-1.79,1.95-1.79,2.57,0"/>
    <path class="cls-2" d="M469.27,77.82c-.03-.13-.06-.26-.09-.39-.93-4.04-3.8-4.04-4.73,0-.03.13-.06.26-.09.39"/>
    <path class="cls-2" d="M471.73,77.82c.62-1.79,1.95-1.79,2.57,0"/>
    <path class="cls-2" d="M475.47,77.82c-.03-.13-.06-.26-.09-.39-.93-4.04-3.8-4.04-4.73,0-.03.13-.06.26-.09.39"/>
    <path class="cls-2" d="M480.74,75.35c-1.33-1.88-3.19-.88-3.87,2.08-.03.13-.06.26-.09.39"/>
    <path class="cls-2" d="M502.4,387.27s0,.05,0,.08c0,.51-.06.88-.24,1.25-.18.37-.36.52-.62.52-3.53,0-7.06,0-10.59-.01-3.53,0-7.06,0-10.59.01-.26,0-.44-.15-.62-.52-.18-.37-.25-.74-.24-1.25,0-.02,0-.05,0-.08"/>
    <path class="cls-2" d="M506.07,365.61c.07,3.86.15,7.73.22,11.59h.37c.23,0,.41.36.42.81l.13,6.59c.01.48-.18.88-.42.88h-.59v.63s-3.82,0-3.82,0c0,.33.01.66.02.99,0,.51-.06.88-.24,1.25-.18.37-.36.53-.62.52-3.53,0-7.06,0-10.59-.01h-10.59c-.26.01-.44-.14-.62-.51-.18-.37-.25-.74-.24-1.25,0-.33.01-.66.02-.99h-3.83v-.63s-.58,0-.58,0c-.24,0-.43-.4-.42-.88.04-2.2.08-4.39.13-6.59,0-.45.2-.81.42-.81h.37c.07-3.86.15-7.73.22-11.59"/>
    <path class="cls-2" d="M505.32,365.32v.03h.38c.08,4.2.16,8.4.24,12.59h.73s.05.03.05.1c.04,2.19.08,4.39.13,6.59,0,.07-.01.1-.05.1h-.98c0,.21,0,.42.01.63h-3.83c.01.59.02,1.17.03,1.76,0,.29-.03.5-.14.7-.1.21-.2.3-.35.3-2.62,0-5.24,0-7.86-.01-.91,0-1.82,0-2.73,0s-1.82,0-2.73,0c-2.62,0-5.24,0-7.86.01-.14,0-.25-.09-.35-.3-.1-.21-.14-.41-.14-.7.01-.59.02-1.18.03-1.76h-3.83c0-.21,0-.42.01-.63h-.98s-.05-.03-.05-.1l.13-6.59c0-.07.02-.1.05-.1h.73c.08-4.2.16-8.39.24-12.59h.38v-.03"/>
    <path class="cls-2" d="M505.09,365.09h.22l.26,13.6h.78c.03,1.76.07,3.52.1,5.29h-1.03c0,.21,0,.42.01.63h-3.83c.02.85.03,1.69.05,2.54,0,.07,0,.11-.03.16-.02.05-.05.07-.08.06-3.53,0-7.06,0-10.59-.01-3.53,0-7.06,0-10.6.01-.03,0-.05-.02-.08-.06s-.03-.09-.03-.16c.02-.85.03-1.69.05-2.54h-3.83c0-.21,0-.42.01-.63h-1.03c.03-1.76.07-3.53.1-5.29h.78l.26-13.6h.22"/>
    <path class="cls-2" d="M501.17,75.35c1.33-1.88,3.19-.88,3.87,2.08.03.13.06.26.09.39"/>
    <path class="cls-2" d="M506.44,77.82c.03-.13.06-.26.09-.39.93-4.04,3.8-4.04,4.73,0,.03.13.06.26.09.39"/>
    <path class="cls-2" d="M510.18,77.82c-.62-1.79-1.95-1.79-2.57,0"/>
    <path class="cls-2" d="M512.63,77.82c.03-.13.06-.26.09-.39.93-4.04,3.8-4.04,4.73,0,.03.13.06.26.09.39"/>
    <path class="cls-2" d="M516.38,77.82c-.62-1.79-1.95-1.79-2.57,0"/>
    <path class="cls-4" d="M440.47,163.63c-.02,82.49-.03,164.98-.05,247.47,0,1.19.48,2.16,1.08,2.16h98.9c.59,0,1.07-.94,1.08-2.11v-1.7c0-.58,0-1.17,0-1.75,0-1.17,0-2.34,0-3.51,0-2.34,0-4.68,0-7.02,0-4.68,0-9.36,0-14.04,0-10.45,0-20.91,0-31.36,0-20.91,0-41.81-.01-62.72,0-41.81-.02-83.62-.03-125.43"/>
  </g>
  <g class="cls-24">
    <g class="cls-30">
      <polygon class="cls-11" points="445.49 379.91 445.49 387.39 445.49 387.39 448.72 383.65 448.72 383.65 445.49 379.91 445.49 379.91"/>
    </g>
    <g class="cls-27">
      <polygon class="cls-11" points="491.07 398.97 489.2 405.45 492.94 405.45 491.07 398.97"/>
    </g>
    <g class="cls-26">
      <polygon class="cls-11" points="536.06 380.24 532.82 383.98 536.06 387.72 536.06 380.24"/>
    </g>
    <path class="cls-5" d="M490.95,359.29c.38,0,.75.32,1.01.89.29.63.35,1.28.35,2.08v10.87s-.02,0-.03,0h-1.33.59-.59.59v-3.53h-1.19v3.53h.59-.59.59-1.33s-.03.03-.03,0v-10.87c0-.8.06-1.45.35-2.08.26-.57.62-.89,1.01-.89Z"/>
    <path class="cls-5" d="M478.11,106.27h1.68s.03.03.03-.02v-6.63c0-.47,0-.89-.14-1.32-.28-.85-.86-1.04-1.25-.41-.17.26-.32.76-.32,1.2v7.18Z"/>
    <path class="cls-5" d="M484.14,105.11h2.6s.1.07.1-.03v-10.49c0-.74,0-1.41-.21-2.09-.44-1.34-1.35-1.64-1.98-.65-.26.41-.51,1.2-.51,1.9v11.36Z"/>
    <path class="cls-5" d="M497.76,105.11h-2.6s-.1.07-.1-.03v-10.49c0-.74,0-1.41.21-2.09.44-1.34,1.35-1.64,1.98-.65.26.41.51,1.2.51,1.9v11.36Z"/>
    <path class="cls-5" d="M503.8,106.27h-1.68s-.03.03-.03-.02v-6.63c0-.47,0-.89.14-1.32.28-.85.86-1.04,1.25-.41.16.26.32.76.32,1.2v7.18Z"/>
    <path class="cls-5" d="M490.36,105.11h-.73c-.05,0-.03-.21-.03-.26v-10.9c0-1.49.62-2.67,1.35-2.67s1.35,1.19,1.35,2.67v10.9c0,.06.02.26-.03.26h-.73"/>
    <path class="cls-5" d="M484.14,373.14h2.6s.1.06.1-.02v-10.49c0-.74,0-1.41-.21-2.09-.44-1.34-1.35-1.64-1.98-.65-.26.41-.51,1.2-.51,1.9v11.36Z"/>
    <path class="cls-5" d="M497.76,373.14h-2.6s-.1.06-.1-.02v-10.49c0-.74,0-1.41.21-2.09.44-1.34,1.35-1.64,1.98-.65.26.41.51,1.2.51,1.9v11.36Z"/>
  </g>
  <line class="cls-2" x1="247.85" y1="382.25" x2="247.85" y2="385.3"/>
  <line class="cls-2" x1="342.19" y1="336.9" x2="342.19" y2="345.9"/>
  <line class="cls-2" x1="341.22" y1="336.82" x2="341.22" y2="345.92"/>
  <line class="cls-5" x1="337.57" y1="336.5" x2="337.57" y2="345.97"/>
  <line class="cls-2" x1="339.36" y1="336.65" x2="339.36" y2="345.94"/>
  <line class="cls-2" x1="338.46" y1="336.57" x2="338.46" y2="345.96"/>
  <line class="cls-2" x1="343.08" y1="336.98" x2="343.08" y2="345.89"/>
  <line class="cls-2" x1="343.98" y1="337.06" x2="343.98" y2="345.88"/>
  <line class="cls-5" x1="344.95" y1="337.14" x2="344.95" y2="345.86"/>
  <line class="cls-5" x1="344.95" y1="337.14" x2="335.7" y2="336.33"/>
  <line class="cls-5" x1="344.95" y1="336.22" x2="335.7" y2="336.09"/>
  <line class="cls-5" x1="335.7" y1="335.49" x2="344.31" y2="335.62"/>
  <line class="cls-5" x1="345.17" y1="346.45" x2="335.7" y2="346.59"/>
  <line class="cls-5" x1="335.7" y1="346" x2="345.72" y2="345.85"/>
  <line class="cls-5" x1="307.97" y1="420.68" x2="292.69" y2="420.68"/>
  <line class="cls-2" x1="307.93" y1="418.97" x2="292.69" y2="418.97"/>
  <line class="cls-2" x1="307.94" y1="416.76" x2="292.68" y2="416.76"/>
  <line class="cls-2" x1="307.88" y1="414.71" x2="292.67" y2="414.71"/>
  <line class="cls-2" x1="307.82" y1="412.66" x2="292.66" y2="412.66"/>
  <line class="cls-2" x1="307.75" y1="410.45" x2="292.65" y2="410.45"/>
  <line class="cls-2" x1="307.69" y1="408.4" x2="292.64" y2="408.4"/>
  <line class="cls-2" x1="307.62" y1="406.36" x2="292.63" y2="406.36"/>
  <line class="cls-2" x1="307.55" y1="404.14" x2="292.62" y2="404.14"/>
  <line class="cls-2" x1="307.49" y1="402.1" x2="292.61" y2="402.1"/>
  <line class="cls-2" x1="307.3" y1="395.79" x2="292.57" y2="395.79"/>
  <line class="cls-2" x1="307.23" y1="393.57" x2="292.56" y2="393.57"/>
  <line class="cls-2" x1="307.17" y1="391.52" x2="292.55" y2="391.52"/>
  <line class="cls-2" x1="307.1" y1="389.48" x2="292.54" y2="389.48"/>
  <line class="cls-2" x1="307.42" y1="399.88" x2="292.59" y2="399.88"/>
  <line class="cls-2" x1="307.36" y1="397.83" x2="292.58" y2="397.83"/>
  <polyline class="cls-5" points="240.26 421.44 292.69 419.42 292.53 387.29"/>
  <line class="cls-5" x1="292.69" y1="422.38" x2="292.69" y2="419.42"/>
  <line class="cls-5" x1="292.1" y1="418.85" x2="291.94" y2="387.32"/>
  <line class="cls-5" x1="240.26" y1="421.44" x2="240.26" y2="424.4"/>
  <line class="cls-5" x1="292.69" y1="422.38" x2="240.26" y2="424.4"/>
  <line class="cls-5" x1="240.26" y1="421.44" x2="237.7" y2="386.01"/>
  <line class="cls-5" x1="237.7" y1="386.01" x2="237.7" y2="388.97"/>
  <line class="cls-5" x1="240.26" y1="424.4" x2="237.7" y2="388.97"/>
  <line class="cls-5" x1="237.7" y1="386.01" x2="254.27" y2="384.75"/>
  <line class="cls-5" x1="242.26" y1="383.74" x2="254.27" y2="380.55"/>
  <polyline class="cls-12" points="238.33 386.55 254.31 385.33 238.33 386.55 240.8 420.83 292.1 418.85 291.94 387.32 307.62 387.21 308.58 418.21 350.79 416.59 345.17 346.45 335.7 346.59 335.7 346 337.56 345.97 337.56 336.5 335.7 336.33 335.7 335.49 344.3 335.49 342.01 306.95 333.85 306.95 333.85 375.19 265.56 375.19 265.56 306.95 254.31 306.95 254.27 384.75 254.31 385.33"/>
  <line class="cls-5" x1="238.33" y1="386.55" x2="240.8" y2="420.83"/>
  <line class="cls-5" x1="240.81" y1="420.83" x2="292.09" y2="418.85"/>
  <line class="cls-5" x1="292.53" y1="387.29" x2="307.03" y2="387.23"/>
  <line class="cls-5" x1="307.62" y1="387.21" x2="308.58" y2="418.21"/>
  <line class="cls-5" x1="308.01" y1="421.79" x2="308.01" y2="418.83"/>
  <line class="cls-5" x1="308.01" y1="418.83" x2="307.03" y2="387.23"/>
  <line class="cls-5" x1="308.58" y1="418.21" x2="350.8" y2="416.59"/>
  <line class="cls-5" x1="351.43" y1="417.15" x2="308.01" y2="418.83"/>
  <line class="cls-5" x1="351.43" y1="420.12" x2="308.01" y2="421.79"/>
  <line class="cls-5" x1="351.43" y1="420.12" x2="351.43" y2="417.15"/>
  <line class="cls-5" x1="350.79" y1="416.59" x2="351.43" y2="417.15"/>
  <line class="cls-5" x1="342.6" y1="306.9" x2="344.95" y2="336.22"/>
  <line class="cls-5" x1="344.95" y1="336.22" x2="344.95" y2="337.14"/>
  <line class="cls-5" x1="342.01" y1="306.95" x2="344.3" y2="335.62"/>
  <line class="cls-5" x1="350.79" y1="416.59" x2="345.17" y2="346.45"/>
  <line class="cls-5" x1="345.72" y1="345.85" x2="351.43" y2="417.15"/>
  <line class="cls-5" x1="345.72" y1="346.77" x2="345.72" y2="346.8"/>
  <line class="cls-2" x1="340.32" y1="336.74" x2="340.32" y2="345.93"/>
  <line class="cls-2" x1="250.61" y1="381.5" x2="250.61" y2="385.02"/>
  <line class="cls-2" x1="251.57" y1="381.26" x2="251.58" y2="384.95"/>
  <line class="cls-2" x1="253.44" y1="380.69" x2="253.44" y2="384.81"/>
  <line class="cls-2" x1="254.33" y1="375.6" x2="254.33" y2="384.99"/>
  <line class="cls-2" x1="249.71" y1="381.76" x2="249.71" y2="385.09"/>
  <line class="cls-2" x1="248.82" y1="381.99" x2="248.82" y2="385.16"/>
  <line class="cls-2" x1="252.47" y1="381.09" x2="252.47" y2="384.88"/>
  <line class="cls-2" x1="245.01" y1="382.99" x2="245.01" y2="385.45"/>
  <line class="cls-2" x1="245.98" y1="382.75" x2="245.98" y2="385.37"/>
  <line class="cls-2" x1="244.12" y1="383.24" x2="244.12" y2="385.51"/>
  <line class="cls-2" x1="243.23" y1="383.48" x2="243.23" y2="385.65"/>
  <line class="cls-5" x1="242.26" y1="383.74" x2="242.26" y2="385.65"/>
  <line class="cls-2" x1="246.88" y1="382.51" x2="246.88" y2="385.3"/>
  <g class="cls-29">
    <path class="cls-4" d="M351.88,269.2l3.84,47.97c.04.48.02.87-.34,1.25-.32.34-.71.54-1.11.75-.39.22-.78.41-1.11.75-.36.38-.38.77-.34,1.25,2.39,29.85,4.78,59.7,7.18,89.54.12,1.5.15,2.96-.17,4.45-.32,1.49-.87,2.83-1.69,4.11-.83,1.3-1.77,2.34-3.12,3.15-1.36.82-2.75,1.03-4.27,1.15-40.58,3.04-81.15,6.09-121.73,9.13"/>
    <g class="cls-28">
      <polygon class="cls-11" points="227.3 381.64 227.3 389.12 227.3 389.12 233.78 385.38 227.3 381.64"/>
    </g>
    <g class="cls-17">
      <polygon class="cls-11" points="299.71 423.45 295.97 429.92 303.45 429.92 299.71 423.45 299.71 423.45"/>
    </g>
    <g class="cls-15">
      <polygon class="cls-11" points="352.2 337.97 345.72 341.71 352.2 345.45 352.2 337.97 352.2 337.97"/>
    </g>
  </g>
  <line class="cls-5" x1="297.42" y1="195.99" x2="302.02" y2="195.99"/>
  <line class="cls-5" x1="297.45" y1="194.52" x2="302" y2="194.52"/>
  <line class="cls-5" x1="297.45" y1="193.02" x2="301.97" y2="193.02"/>
  <polygon class="cls-5" points="302.61 192.35 302.73 192.35 302.7 191.06 296.74 191.06 296.71 192.35 296.83 192.35 296.54 203.62 302.91 203.62 302.61 192.35"/>
  <line class="cls-5" x1="298.39" y1="191.64" x2="298.39" y2="203.62"/>
  <line class="cls-5" x1="301.06" y1="191.64" x2="301.06" y2="203.62"/>
  <rect class="cls-5" x="303.2" y="194.46" width="30.03" height=".29"/>
  <rect class="cls-5" x="266.22" y="194.46" width="30.03" height=".29"/>
  <rect class="cls-5" x="266.3" y="193.91" width="29.94" height=".18"/>
  <rect class="cls-5" x="266.21" y="193" width="30.06" height=".15"/>
  <rect class="cls-5" x="303.17" y="193" width="30.03" height=".15"/>
  <polygon class="cls-5" points="303.17 193.91 333.14 193.91 333.14 194.08 303.2 194.08 303.17 193.91"/>
  <line class="cls-5" x1="240.15" y1="206.23" x2="240.15" y2="209.84"/>
  <line class="cls-5" x1="292.6" y1="206.23" x2="292.6" y2="209.73"/>
  <line class="cls-5" x1="292.87" y1="203.27" x2="292.87" y2="209.73"/>
  <line class="cls-5" x1="265.6" y1="190.56" x2="265.3" y2="203.27"/>
  <polyline class="cls-5" points="333.08 190.5 333.84 190.56 334.11 203.27"/>
  <line class="cls-5" x1="266.36" y1="190.5" x2="265.6" y2="190.56"/>
  <polyline class="cls-5" points="231.9 209.87 345.29 209.61 353.54 209.61"/>
  <line class="cls-5" x1="345.29" y1="206.23" x2="345.29" y2="209.61"/>
  <line class="cls-5" x1="306.54" y1="206.23" x2="306.54" y2="209.7"/>
  <rect class="cls-5" x="238.8" y="203.27" width="54.07" height="2.97"/>
  <rect class="cls-5" x="306.54" y="203.27" width="40.1" height="2.97"/>
  <rect class="cls-5" x="280.13" y="177.06" width="39.19" height=".59"/>
  <rect class="cls-5" x="280.16" y="175.94" width="39.13" height=".79"/>
  <rect class="cls-5" x="280.01" y="175.82" width="39.42" height=".12"/>
  <rect class="cls-5" x="280.01" y="176.73" width="39.42" height=".15"/>
  <rect class="cls-5" x="280.07" y="176.88" width="39.3" height=".18"/>
  <rect class="cls-5" x="279.98" y="177.64" width="39.48" height=".35"/>
  <rect class="cls-5" x="292.87" y="203.62" width="13.68" height="6.05"/>
  <line class="cls-5" x1="306.54" y1="209.08" x2="292.87" y2="209.08"/>
  <line class="cls-5" x1="306.54" y1="208.7" x2="292.87" y2="208.7"/>
  <line class="cls-5" x1="306.54" y1="208.35" x2="292.87" y2="208.35"/>
  <line class="cls-5" x1="306.54" y1="207.99" x2="292.87" y2="207.99"/>
  <line class="cls-5" x1="306.54" y1="207.61" x2="292.87" y2="207.61"/>
  <line class="cls-5" x1="306.54" y1="207.26" x2="292.87" y2="207.26"/>
  <line class="cls-5" x1="306.54" y1="206.91" x2="292.87" y2="206.91"/>
  <line class="cls-5" x1="306.54" y1="206.53" x2="292.87" y2="206.53"/>
  <line class="cls-5" x1="306.54" y1="206.17" x2="292.87" y2="206.17"/>
  <line class="cls-5" x1="306.54" y1="205.79" x2="292.87" y2="205.79"/>
  <line class="cls-5" x1="306.54" y1="205.44" x2="292.87" y2="205.44"/>
  <line class="cls-5" x1="306.54" y1="205.09" x2="292.87" y2="205.09"/>
  <line class="cls-5" x1="306.54" y1="204.71" x2="292.87" y2="204.71"/>
  <line class="cls-5" x1="306.54" y1="204.35" x2="292.87" y2="204.35"/>
  <line class="cls-5" x1="306.54" y1="204" x2="292.87" y2="204"/>
  <line class="cls-5" x1="306.54" y1="209.37" x2="292.87" y2="209.37"/>
  <line class="cls-5" x1="266.27" y1="194.76" x2="266.27" y2="203.27"/>
  <line class="cls-5" x1="333.17" y1="194.76" x2="333.17" y2="203.27"/>
  <rect class="cls-5" x="298.8" y="170.63" width="1.82" height="2.44"/>
  <rect class="cls-5" x="298.8" y="173.18" width="1.82" height="2.44"/>
  <rect class="cls-5" x="305.02" y="170.63" width="1.53" height="2.44"/>
  <rect class="cls-5" x="305.02" y="173.18" width="1.53" height="2.44"/>
  <rect class="cls-5" x="315.09" y="170.63" width=".65" height="2.44"/>
  <rect class="cls-5" x="315.09" y="173.18" width=".65" height="2.44"/>
  <rect class="cls-5" x="310.57" y="170.63" width="1.17" height="2.44"/>
  <rect class="cls-5" x="310.57" y="173.18" width="1.17" height="2.44"/>
  <rect class="cls-5" x="318.05" y="170.63" width=".12" height="2.44"/>
  <rect class="cls-5" x="318.05" y="173.18" width=".12" height="2.44"/>
  <rect class="cls-5" x="292.9" y="170.63" width="1.53" height="2.44"/>
  <rect class="cls-5" x="292.9" y="173.18" width="1.53" height="2.44"/>
  <rect class="cls-5" x="283.71" y="170.63" width=".65" height="2.44"/>
  <rect class="cls-5" x="283.71" y="173.18" width=".65" height="2.44"/>
  <rect class="cls-5" x="287.67" y="170.63" width="1.2" height="2.44"/>
  <rect class="cls-5" x="287.67" y="173.18" width="1.2" height="2.44"/>
  <rect class="cls-5" x="281.24" y="170.63" width=".12" height="2.44"/>
  <rect class="cls-5" x="281.24" y="173.18" width=".12" height="2.44"/>
  <rect class="cls-5" x="268.33" y="184.92" width="1.82" height="1.79"/>
  <rect class="cls-5" x="268.33" y="189.06" width="1.82" height="1.82"/>
  <rect class="cls-5" x="268.33" y="190.97" width="1.82" height="1.82"/>
  <rect class="cls-5" x="268.33" y="199.34" width="1.82" height="1.82"/>
  <rect class="cls-5" x="274.38" y="184.92" width="1.82" height="1.79"/>
  <rect class="cls-5" x="274.38" y="189.06" width="1.82" height="1.82"/>
  <rect class="cls-5" x="274.38" y="190.97" width="1.82" height="1.82"/>
  <rect class="cls-5" x="274.38" y="199.34" width="1.82" height="1.82"/>
  <rect class="cls-5" x="280.42" y="184.92" width="1.82" height="1.79"/>
  <rect class="cls-5" x="280.42" y="189.06" width="1.82" height="1.82"/>
  <rect class="cls-5" x="280.42" y="190.97" width="1.82" height="1.82"/>
  <rect class="cls-5" x="280.42" y="199.34" width="1.82" height="1.82"/>
  <rect class="cls-5" x="286.5" y="184.92" width="1.82" height="1.79"/>
  <rect class="cls-5" x="286.5" y="189.06" width="1.82" height="1.82"/>
  <rect class="cls-5" x="286.5" y="190.97" width="1.82" height="1.82"/>
  <rect class="cls-5" x="286.5" y="199.34" width="1.82" height="1.82"/>
  <rect class="cls-5" x="292.54" y="184.92" width="1.82" height="1.79"/>
  <rect class="cls-5" x="292.54" y="189.06" width="1.82" height="1.82"/>
  <rect class="cls-5" x="292.54" y="190.97" width="1.82" height="1.82"/>
  <rect class="cls-5" x="292.54" y="199.34" width="1.82" height="1.82"/>
  <rect class="cls-5" x="329.29" y="184.92" width="1.82" height="1.79"/>
  <rect class="cls-5" x="329.29" y="189.06" width="1.82" height="1.82"/>
  <rect class="cls-5" x="329.29" y="190.97" width="1.82" height="1.82"/>
  <rect class="cls-5" x="329.29" y="199.34" width="1.82" height="1.82"/>
  <rect class="cls-5" x="323.25" y="184.92" width="1.79" height="1.79"/>
  <polygon class="cls-5" points="301.97 191.64 297.47 191.64 297.3 203.62 302.11 203.62 301.97 191.64"/>
  <rect class="cls-5" x="323.25" y="190.97" width="1.79" height="1.82"/>
  <rect class="cls-5" x="323.25" y="199.34" width="1.79" height="1.82"/>
  <rect class="cls-5" x="317.17" y="184.92" width="1.82" height="1.79"/>
  <rect class="cls-5" x="317.17" y="189.06" width="1.82" height="1.82"/>
  <rect class="cls-5" x="317.17" y="190.97" width="1.82" height="1.82"/>
  <rect class="cls-5" x="317.17" y="199.34" width="1.82" height="1.82"/>
  <rect class="cls-5" x="311.12" y="184.92" width="1.82" height="1.79"/>
  <rect class="cls-5" x="311.12" y="189.06" width="1.82" height="1.82"/>
  <rect class="cls-5" x="311.12" y="190.97" width="1.82" height="1.82"/>
  <rect class="cls-5" x="311.12" y="199.34" width="1.82" height="1.82"/>
  <rect class="cls-5" x="305.08" y="184.92" width="1.82" height="1.79"/>
  <rect class="cls-5" x="305.08" y="189.06" width="1.82" height="1.82"/>
  <rect class="cls-5" x="305.08" y="190.97" width="1.82" height="1.82"/>
  <rect class="cls-5" x="305.08" y="199.34" width="1.82" height="1.82"/>
  <rect class="cls-5" x="298.8" y="184.92" width="1.82" height="1.79"/>
  <line class="cls-5" x1="297.3" y1="203.47" x2="302.11" y2="203.47"/>
  <line class="cls-5" x1="297.39" y1="197.49" x2="302.05" y2="197.49"/>
  <line class="cls-5" x1="297.36" y1="198.95" x2="302.05" y2="198.95"/>
  <line class="cls-5" x1="297.36" y1="200.45" x2="302.08" y2="200.45"/>
  <line class="cls-5" x1="297.33" y1="201.92" x2="302.11" y2="201.92"/>
  <polyline class="cls-2" points="303.43 375.19 303.17 364.45 303.29 364.45 303.2 362.07 296.21 362.07 296.16 364.45 296.27 364.45 296.01 375.19"/>
  <polyline class="cls-5" points="265.56 375.19 333.85 375.19 333.85 353.76"/>
  <polyline class="cls-5" points="333.08 193 333.08 182.31 266.36 182.31 266.36 193"/>
  <line class="cls-5" x1="280.04" y1="178" x2="280.04" y2="182.31"/>
  <g class="cls-21">
    <path class="cls-5" d="M304.1,341.71c8.07-1.68,14.4-7.77,16.74-15.59"/>
    <path class="cls-5" d="M278.6,326.12c2.34,7.82,8.66,13.91,16.74,15.59"/>
  </g>
  <line class="cls-5" x1="295.33" y1="341.71" x2="277.63" y2="341.71"/>
  <line class="cls-5" x1="321.8" y1="341.71" x2="304.1" y2="341.71"/>
  <polyline class="cls-5" points="286.21 285.47 265.58 285.47 265.58 353.76 333.85 353.76 333.85 285.47 313.23 285.47"/>
  <line class="cls-5" x1="320.83" y1="341.71" x2="320.83" y2="326.12"/>
  <line class="cls-5" x1="278.6" y1="326.12" x2="278.6" y2="341.71"/>
  <line class="cls-5" x1="321.8" y1="312.72" x2="319.72" y2="312.72"/>
  <line class="cls-5" x1="279.73" y1="312.72" x2="277.63" y2="312.72"/>
  <line class="cls-5" x1="277.63" y1="326.12" x2="278.6" y2="326.12"/>
  <line class="cls-5" x1="320.83" y1="326.12" x2="321.8" y2="326.12"/>
  <path class="cls-5" d="M311.3,283.91c-9-6.4-21.48-4.29-27.88,4.72-6.4,9-4.29,21.48,4.71,27.88,9,6.4,21.48,4.29,27.88-4.72,6.4-9,4.29-21.48-4.72-27.88Z"/>
  <rect class="cls-1" x="219.7" y="-8.12" width="141.73" height="520.57"/>
  <line class="cls-5" x1="277.63" y1="341.71" x2="277.63" y2="326.12"/>
  <line class="cls-5" x1="277.63" y1="312.72" x2="277.63" y2="296.44"/>
  <line class="cls-5" x1="277.63" y1="296.44" x2="280.08" y2="296.44"/>
  <line class="cls-5" x1="319.36" y1="296.44" x2="321.81" y2="296.44"/>
  <line class="cls-5" x1="321.81" y1="296.44" x2="321.81" y2="312.72"/>
  <line class="cls-5" x1="321.81" y1="326.12" x2="321.81" y2="341.71"/>
  <line class="cls-5" x1="279.73" y1="318.01" x2="279.73" y2="300.46"/>
  <line class="cls-5" x1="319.72" y1="300.99" x2="319.72" y2="318.01"/>
  <g class="cls-19">
    <path class="cls-5" d="M279.74,316.98c-.43,11.19,8.4,20.55,19.59,20.77,11.19.22,20.38-8.8,20.38-19.99"/>
  </g>
  <line class="cls-5" x1="319.37" y1="178" x2="319.37" y2="182.31"/>
  <line class="cls-5" x1="265.56" y1="375.19" x2="265.56" y2="353.76"/>
  <rect class="cls-5" x="323.25" y="189.06" width="1.82" height="1.82"/>
  <polyline class="cls-5" points="319.31 175.82 319.31 162.34 299.72 160.97 280.13 162.34 280.13 175.82"/>
  <g class="cls-20">
    <g class="cls-18">
      <g class="cls-16">
        <line class="cls-3" x1="299.72" y1="21.37" x2="299.72" y2="568.29"/>
      </g>
    </g>
  </g>
  <polyline class="cls-7" points="303.43 203.62 303.17 192.88 303.29 192.88 303.2 190.5 296.21 190.5 296.15 192.88 296.27 192.88 296.01 203.62"/>
  <line class="cls-8" x1="237.7" y1="209.87" x2="351.43" y2="209.87"/>
  <rect class="cls-2" x="321.8" y="387.49" width="12.05" height="12.39"/>
  <rect class="cls-2" x="259.54" y="387.49" width="6.04" height="12.39"/>
  <rect class="cls-2" x="269.54" y="387.49" width="6.04" height="12.39"/>
  <rect class="cls-2" x="279.72" y="387.49" width="6.04" height="12.39"/>
  <rect class="cls-2" x="259.13" y="376.84" width="1.94" height="1.94"/>
  <rect class="cls-2" x="289.32" y="376.84" width="1.94" height="1.94"/>
  <rect class="cls-2" x="274.07" y="376.84" width="1.94" height="1.94"/>
  <rect class="cls-2" x="308.58" y="376.84" width="1.94" height="1.94"/>
  <rect class="cls-2" x="338.77" y="376.84" width="1.94" height="1.94"/>
  <rect class="cls-2" x="259.13" y="362.92" width="1.94" height="1.94"/>
  <rect class="cls-2" x="338.77" y="362.92" width="1.94" height="1.94"/>
  <rect class="cls-2" x="259.13" y="349.99" width="1.94" height="1.94"/>
  <rect class="cls-2" x="338.77" y="349.99" width="1.94" height="1.94"/>
  <rect class="cls-2" x="259.13" y="330.35" width="1.94" height="1.94"/>
  <rect class="cls-2" x="338.77" y="330.35" width="1.94" height="1.94"/>
  <rect class="cls-2" x="259.13" y="316.43" width="1.94" height="1.94"/>
  <rect class="cls-2" x="338.77" y="316.43" width="1.94" height="1.94"/>
  <rect class="cls-2" x="323.52" y="376.84" width="1.94" height="1.94"/>
  <g class="cls-14">
    <path class="cls-2" d="M262.46,317.4c0,1.3-1.05,2.36-2.36,2.36s-2.36-1.05-2.36-2.36,1.05-2.36,2.36-2.36,2.36,1.05,2.36,2.36Z"/>
    <path class="cls-2" d="M262.46,331.32c0,1.3-1.05,2.36-2.36,2.36s-2.36-1.05-2.36-2.36,1.05-2.36,2.36-2.36,2.36,1.05,2.36,2.36Z"/>
    <path class="cls-2" d="M342.09,317.4c0,1.3-1.05,2.36-2.35,2.36s-2.36-1.05-2.36-2.36,1.05-2.36,2.36-2.36,2.35,1.05,2.35,2.36Z"/>
    <path class="cls-2" d="M342.09,331.32c0,1.3-1.05,2.36-2.35,2.36s-2.36-1.05-2.36-2.36,1.05-2.36,2.36-2.36,2.35,1.05,2.35,2.36Z"/>
    <path class="cls-2" d="M262.46,350.95c0,1.3-1.05,2.36-2.36,2.36s-2.36-1.05-2.36-2.36,1.05-2.36,2.36-2.36,2.36,1.05,2.36,2.36Z"/>
    <path class="cls-2" d="M262.46,363.89c0,1.3-1.05,2.36-2.36,2.36s-2.36-1.05-2.36-2.36,1.05-2.36,2.36-2.36,2.36,1.05,2.36,2.36Z"/>
    <path class="cls-2" d="M262.46,377.81c0,1.3-1.05,2.36-2.36,2.36s-2.36-1.05-2.36-2.36,1.05-2.36,2.36-2.36,2.36,1.05,2.36,2.36Z"/>
    <path class="cls-2" d="M277.39,377.81c0,1.3-1.05,2.36-2.36,2.36s-2.36-1.05-2.36-2.36,1.05-2.36,2.36-2.36,2.36,1.05,2.36,2.36Z"/>
    <path class="cls-2" d="M292.64,377.81c0,1.3-1.05,2.36-2.36,2.36s-2.36-1.05-2.36-2.36,1.05-2.36,2.36-2.36,2.36,1.05,2.36,2.36Z"/>
    <path class="cls-2" d="M311.9,377.81c0,1.3-1.06,2.36-2.36,2.36s-2.36-1.05-2.36-2.36,1.05-2.36,2.36-2.36,2.36,1.05,2.36,2.36Z"/>
    <path class="cls-2" d="M326.84,377.81c0,1.3-1.06,2.36-2.36,2.36s-2.36-1.05-2.36-2.36,1.05-2.36,2.36-2.36,2.36,1.05,2.36,2.36Z"/>
    <path class="cls-2" d="M342.09,377.81c0,1.3-1.06,2.36-2.36,2.36s-2.36-1.05-2.36-2.36,1.05-2.36,2.36-2.36,2.36,1.05,2.36,2.36Z"/>
    <path class="cls-2" d="M342.09,363.89c0,1.3-1.06,2.36-2.36,2.36s-2.36-1.05-2.36-2.36,1.05-2.36,2.36-2.36,2.36,1.05,2.36,2.36Z"/>
    <path class="cls-2" d="M342.09,350.95c0,1.3-1.06,2.36-2.36,2.36s-2.36-1.05-2.36-2.36,1.05-2.36,2.36-2.36,2.36,1.05,2.36,2.36Z"/>
  </g>
  <line class="cls-6" x1="280.09" y1="42.02" x2="280.09" y2="63.6"/>
  <line class="cls-6" x1="319.27" y1="63.6" x2="319.27" y2="42.02"/>
  <polygon class="cls-5" points="266.23 63.6 266.31 42.02 333.04 42.02 333.13 63.6 266.23 63.6"/>
  <polyline class="cls-5" points="319.27 42.02 319.27 22.67 299.68 21.3 280.09 22.67 280.09 42.02"/>
  <rect class="cls-12" x="238.87" y="63.6" width="107.84" height="6.1"/>
  <text class="cls-13" transform="translate(65 69.77)"><tspan x="0" y="0">Massing</tspan></text>
  <text class="cls-13" transform="translate(65.64 209.52)"><tspan x="0" y="0">Elevation</tspan></text>
  <text class="cls-13" transform="translate(65 419.95)"><tspan x="0" y="0">Platform, Street &amp; Building</tspan></text>
  <text class="cls-13" transform="translate(447.35 416.59)"><tspan x="0" y="0">Street Line </tspan></text>
  <text class="cls-13" transform="translate(473.45 436.81)"><tspan x="0" y="0">Plinth</tspan></text>
  <rect class="cls-12" x="510.42" y="428.59" width="21.4" height="8.22"/>
  <rect class="cls-12" x="289.92" y="486.31" width="19.56" height="19.56"/>
  <rect class="cls-10" x="289.92" y="486.31" width="19.56" height="19.56"/>
  <rect class="cls-31" x="293.24" y="489.63" width="12.92" height="12.93"/>
  <rect class="cls-10" x="293.24" y="489.63" width="12.92" height="12.93"/>
</svg>