<?xml version="1.0" encoding="UTF-8"?>
<svg id="Layer_1" data-name="Layer 1" xmlns="http://www.w3.org/2000/svg" viewBox="0 0 595.28 556.43">
  <defs>
    <style>
      .cls-1, .cls-2 {
        fill: #231f20;
      }

      .cls-3, .cls-4, .cls-5, .cls-6, .cls-7, .cls-8 {
        fill: none;
      }

      .cls-3, .cls-4, .cls-5, .cls-7 {
        stroke: #231f20;
      }

      .cls-3, .cls-6, .cls-7 {
        stroke-linecap: round;
        stroke-linejoin: round;
      }

      .cls-3, .cls-7 {
        stroke-width: .1px;
      }

      .cls-2 {
        font-family: Inter-Regular, Inter;
        font-size: 10px;
        font-variation-settings: 'opsz' 14, 'wght' 400;
      }

      .cls-9 {
        fill: #fff;
      }

      .cls-4 {
        stroke-width: .5px;
      }

      .cls-4, .cls-5, .cls-8 {
        stroke-miterlimit: 10;
      }

      .cls-5 {
        stroke-width: 2px;
      }

      .cls-6 {
        stroke: #3a3331;
      }

      .cls-6, .cls-8 {
        stroke-width: .25px;
      }

      .cls-7 {
        stroke-dasharray: 4.07 4.07;
      }

      .cls-8 {
        stroke: #808285;
      }
    </style>
  </defs>
  <g>
    <line class="cls-6" x1="293.81" y1="500.09" x2="303.43" y2="500.09"/>
    <rect class="cls-6" x="296.8" y="462.99" width="3.64" height="3.58"/>
    <rect class="cls-6" x="309.36" y="491.81" width="3.64" height="3.64"/>
    <rect class="cls-6" x="309.36" y="475.08" width="3.64" height="3.64"/>
    <rect class="cls-6" x="309.36" y="471.27" width="3.64" height="3.64"/>
    <rect class="cls-6" x="309.36" y="462.99" width="3.64" height="3.58"/>
    <rect class="cls-6" x="321.46" y="491.81" width="3.64" height="3.64"/>
    <rect class="cls-6" x="321.46" y="475.08" width="3.64" height="3.64"/>
    <rect class="cls-6" x="321.46" y="471.27" width="3.64" height="3.64"/>
    <rect class="cls-6" x="321.46" y="462.99" width="3.64" height="3.58"/>
    <rect class="cls-6" x="333.55" y="491.81" width="3.64" height="3.64"/>
    <rect class="cls-6" x="333.55" y="475.08" width="3.64" height="3.64"/>
    <rect class="cls-6" x="333.55" y="471.27" width="3.64" height="3.64"/>
    <rect class="cls-6" x="333.55" y="462.99" width="3.64" height="3.58"/>
    <rect class="cls-6" x="345.7" y="491.81" width="3.58" height="3.64"/>
    <rect class="cls-6" x="345.7" y="475.08" width="3.58" height="3.64"/>
    <rect class="cls-6" x="345.7" y="471.27" width="3.64" height="3.64"/>
    <rect class="cls-6" x="345.7" y="462.99" width="3.58" height="3.58"/>
    <rect class="cls-6" x="357.8" y="491.81" width="3.64" height="3.64"/>
    <rect class="cls-6" x="357.8" y="475.08" width="3.64" height="3.64"/>
    <rect class="cls-6" x="357.8" y="471.27" width="3.64" height="3.64"/>
    <rect class="cls-6" x="357.8" y="462.99" width="3.64" height="3.58"/>
    <rect class="cls-6" x="284.29" y="491.81" width="3.64" height="3.64"/>
    <rect class="cls-6" x="284.29" y="475.08" width="3.64" height="3.64"/>
    <rect class="cls-6" x="284.29" y="471.27" width="3.64" height="3.64"/>
    <rect class="cls-6" x="284.29" y="462.99" width="3.64" height="3.58"/>
    <rect class="cls-6" x="272.2" y="491.81" width="3.64" height="3.64"/>
    <rect class="cls-6" x="272.2" y="475.08" width="3.64" height="3.64"/>
    <rect class="cls-6" x="272.2" y="471.27" width="3.64" height="3.64"/>
    <rect class="cls-6" x="272.2" y="462.99" width="3.64" height="3.58"/>
    <rect class="cls-6" x="260.05" y="491.81" width="3.64" height="3.64"/>
    <rect class="cls-6" x="260.05" y="475.08" width="3.64" height="3.64"/>
    <rect class="cls-6" x="260.05" y="471.27" width="3.64" height="3.64"/>
    <rect class="cls-6" x="260.05" y="462.99" width="3.64" height="3.58"/>
    <rect class="cls-6" x="247.95" y="491.81" width="3.64" height="3.64"/>
    <rect class="cls-6" x="247.95" y="475.08" width="3.64" height="3.64"/>
    <rect class="cls-6" x="247.95" y="471.27" width="3.64" height="3.64"/>
    <rect class="cls-6" x="247.95" y="462.99" width="3.64" height="3.58"/>
    <rect class="cls-6" x="235.86" y="491.81" width="3.64" height="3.64"/>
    <rect class="cls-6" x="235.86" y="475.08" width="3.64" height="3.64"/>
    <rect class="cls-6" x="235.86" y="471.27" width="3.64" height="3.64"/>
    <rect class="cls-6" x="235.86" y="462.99" width="3.64" height="3.58"/>
    <rect class="cls-6" x="261.69" y="439.51" width=".23" height="4.87"/>
    <rect class="cls-6" x="261.69" y="434.4" width=".23" height="4.87"/>
    <rect class="cls-6" x="274.55" y="439.51" width="2.41" height="4.87"/>
    <rect class="cls-6" x="274.55" y="434.4" width="2.41" height="4.87"/>
    <rect class="cls-6" x="266.62" y="439.51" width="1.29" height="4.87"/>
    <rect class="cls-6" x="266.62" y="434.4" width="1.29" height="4.87"/>
    <rect class="cls-6" x="285" y="439.51" width="3.05" height="4.87"/>
    <rect class="cls-6" x="285" y="434.4" width="3.05" height="4.87"/>
    <rect class="cls-6" x="335.31" y="439.51" width=".23" height="4.87"/>
    <rect class="cls-6" x="335.31" y="434.4" width=".23" height="4.87"/>
    <rect class="cls-6" x="320.34" y="439.51" width="2.35" height="4.87"/>
    <rect class="cls-6" x="320.34" y="434.4" width="2.35" height="4.87"/>
    <rect class="cls-6" x="329.38" y="439.51" width="1.29" height="4.87"/>
    <rect class="cls-6" x="329.38" y="434.4" width="1.29" height="4.87"/>
    <rect class="cls-6" x="309.25" y="439.51" width="3.05" height="4.87"/>
    <rect class="cls-6" x="309.25" y="434.4" width="3.05" height="4.87"/>
    <rect class="cls-6" x="296.8" y="439.51" width="3.64" height="4.87"/>
    <rect class="cls-6" x="296.8" y="434.4" width="3.64" height="4.87"/>
    <line class="cls-6" x1="365.54" y1="482.66" x2="365.54" y2="499.68"/>
    <line class="cls-6" x1="365.37" y1="479.14" x2="365.37" y2="457.77"/>
    <line class="cls-6" x1="337.95" y1="449.14" x2="337.95" y2="456.53"/>
    <line class="cls-6" x1="231.75" y1="482.66" x2="231.75" y2="499.68"/>
    <line class="cls-6" x1="231.93" y1="479.14" x2="231.93" y2="457.77"/>
    <rect class="cls-6" x="312.3" y="499.68" width="80.19" height="5.93"/>
    <rect class="cls-6" x="176.8" y="499.68" width="108.13" height="5.93"/>
    <line class="cls-6" x1="312.3" y1="505.61" x2="312.3" y2="512.54"/>
    <line class="cls-6" x1="259.28" y1="449.14" x2="259.28" y2="456.53"/>
    <line class="cls-6" x1="284.94" y1="499.68" x2="284.94" y2="512.6"/>
    <line class="cls-6" x1="284.41" y1="505.61" x2="284.41" y2="512.6"/>
    <line class="cls-6" x1="179.5" y1="505.61" x2="179.5" y2="512.83"/>
    <polyline class="cls-6" points="306.08 500.39 305.55 478.9 305.78 478.9 305.61 474.15 291.63 474.15 291.52 478.9 291.75 478.9 291.22 500.39"/>
    <polygon class="cls-6" points="303.14 476.43 294.16 476.43 293.81 500.39 303.43 500.39 303.14 476.43"/>
    <polyline class="cls-6" points="337.84 444.79 337.84 417.82 298.65 415.09 259.46 417.82 259.46 444.79"/>
    <rect class="cls-6" x="231.93" y="456.53" width="133.44" height="1.23"/>
    <line class="cls-6" x1="389.79" y1="505.61" x2="389.79" y2="512.83"/>
    <line class="cls-8" x1="293.87" y1="496.98" x2="303.43" y2="496.98"/>
    <line class="cls-8" x1="293.93" y1="494.05" x2="303.38" y2="494.05"/>
    <line class="cls-8" x1="293.93" y1="491.05" x2="303.32" y2="491.05"/>
    <line class="cls-8" x1="293.98" y1="488.12" x2="303.32" y2="488.12"/>
    <line class="cls-8" x1="312.3" y1="511.89" x2="284.94" y2="511.89"/>
    <line class="cls-8" x1="312.3" y1="501.15" x2="284.94" y2="501.15"/>
    <line class="cls-8" x1="312.3" y1="501.85" x2="284.94" y2="501.85"/>
    <line class="cls-8" x1="312.3" y1="502.56" x2="284.94" y2="502.56"/>
    <line class="cls-8" x1="312.3" y1="503.32" x2="284.94" y2="503.32"/>
    <line class="cls-8" x1="312.3" y1="504.03" x2="284.94" y2="504.03"/>
    <line class="cls-8" x1="312.3" y1="504.73" x2="284.94" y2="504.73"/>
    <line class="cls-8" x1="312.3" y1="505.49" x2="284.94" y2="505.49"/>
    <line class="cls-8" x1="312.3" y1="506.2" x2="284.94" y2="506.2"/>
    <line class="cls-8" x1="312.3" y1="506.96" x2="284.94" y2="506.96"/>
    <line class="cls-8" x1="312.3" y1="507.67" x2="284.94" y2="507.67"/>
    <line class="cls-8" x1="312.3" y1="508.37" x2="284.94" y2="508.37"/>
    <line class="cls-8" x1="312.3" y1="509.13" x2="284.94" y2="509.13"/>
    <line class="cls-8" x1="312.3" y1="509.84" x2="284.94" y2="509.84"/>
    <line class="cls-8" x1="312.3" y1="510.54" x2="284.94" y2="510.54"/>
    <line class="cls-8" x1="312.3" y1="511.31" x2="284.94" y2="511.31"/>
    <rect class="cls-8" x="284.94" y="500.39" width="27.36" height="12.09"/>
    <rect class="cls-8" x="259.17" y="448.43" width="78.96" height=".71"/>
    <rect class="cls-8" x="259.34" y="446.91" width="78.61" height=".35"/>
    <rect class="cls-8" x="259.23" y="446.61" width="78.85" height=".29"/>
    <rect class="cls-8" x="259.23" y="444.79" width="78.85" height=".24"/>
    <rect class="cls-8" x="259.52" y="445.03" width="78.26" height="1.58"/>
    <rect class="cls-8" x="259.46" y="447.26" width="78.38" height="1.17"/>
    <line class="cls-8" x1="231.93" y1="474.15" x2="230.4" y2="474.26"/>
    <polyline class="cls-8" points="365.37 474.15 366.9 474.26 367.42 499.68"/>
    <line class="cls-8" x1="230.4" y1="474.26" x2="229.81" y2="499.68"/>
    <polygon class="cls-8" points="305.55 480.96 365.49 480.96 365.49 481.31 305.61 481.31 305.55 480.96"/>
    <rect class="cls-8" x="305.55" y="479.14" width="60.06" height=".29"/>
    <rect class="cls-8" x="231.63" y="479.14" width="60.12" height=".29"/>
    <rect class="cls-8" x="231.81" y="480.96" width="59.88" height=".35"/>
    <rect class="cls-8" x="231.63" y="482.07" width="60.06" height=".59"/>
    <rect class="cls-8" x="305.61" y="482.07" width="60.05" height=".59"/>
    <polyline class="cls-8" points="305.61 500.39 305.08 478.49 305.31 478.49 305.2 474.62 292.1 474.62 291.99 478.49 292.22 478.49 291.69 500.39"/>
    <polygon class="cls-8" points="304.43 477.84 304.67 477.84 304.61 475.26 292.69 475.26 292.63 477.84 292.87 477.84 292.28 500.39 305.02 500.39 304.43 477.84"/>
    <line class="cls-8" x1="294.1" y1="479.19" x2="303.14" y2="479.19"/>
    <line class="cls-8" x1="294.1" y1="482.19" x2="303.2" y2="482.19"/>
    <line class="cls-8" x1="294.04" y1="485.12" x2="303.26" y2="485.12"/>
    <line class="cls-8" x1="295.98" y1="476.43" x2="295.98" y2="500.39"/>
    <line class="cls-8" x1="301.32" y1="476.43" x2="301.32" y2="500.39"/>
    <line class="cls-5" x1="65" y1="512.83" x2="531.01" y2="512.83"/>
  </g>
  <g>
    <polygon points="364.03 90.81 364.45 90.81 364.45 91.05 366.32 91.05 366.32 99.82 364.45 99.82 364.45 100.06 364.03 100.06 364.03 90.81"/>
    <polygon points="364.03 87.62 364.03 78.31 364.45 78.31 364.45 78.61 366.32 78.61 366.32 87.32 364.45 87.32 364.45 87.62 364.03 87.62"/>
    <polygon points="364.03 65.87 364.45 65.87 364.45 66.11 366.32 66.11 366.32 74.89 364.45 74.89 364.45 75.13 364.03 75.13 364.03 65.87"/>
    <polygon points="364.03 62.69 364.03 53.38 364.45 53.38 364.45 53.68 366.32 53.68 366.32 62.39 364.45 62.39 364.45 62.69 364.03 62.69"/>
    <polygon points="362.17 47.67 362.17 45.8 366.32 45.8 366.32 49.95 364.45 49.95 364.45 50.19 364.03 50.19 364.03 48.09 361.93 48.09 361.93 47.67 362.17 47.67"/>
    <polygon points="366.32 182.38 362.17 182.38 362.17 180.52 361.93 180.52 361.93 180.1 364.03 180.1 364.03 177.99 364.45 177.99 364.45 178.23 366.32 178.23 366.32 182.38"/>
    <polygon points="358.74 180.1 358.74 180.52 358.44 180.52 358.44 182.38 349.73 182.38 349.73 180.52 349.43 180.52 349.43 180.1 358.74 180.1"/>
    <polygon points="364.03 137.38 364.03 128.12 364.45 128.12 364.45 128.36 366.32 128.36 366.32 137.13 364.45 137.13 364.45 137.38 364.03 137.38"/>
    <polygon points="364.03 140.56 364.45 140.56 364.45 140.86 366.32 140.86 366.32 149.57 364.45 149.57 364.45 149.87 364.03 149.87 364.03 140.56"/>
    <polygon points="364.03 162.31 364.03 153.06 364.45 153.06 364.45 153.3 366.32 153.3 366.32 162.07 364.45 162.07 364.45 162.31 364.03 162.31"/>
    <polygon points="366.32 165.8 366.32 174.51 364.45 174.51 364.45 174.81 364.03 174.81 364.03 165.5 364.45 165.5 364.45 165.8 366.32 165.8"/>
    <polygon points="364.45 53.68 366.32 53.68 366.32 62.39 364.45 62.39 364.45 62.69 364.03 62.69 364.03 53.37 364.45 53.37 364.45 53.68"/>
    <polygon points="364.03 65.87 364.45 65.87 364.45 66.11 366.32 66.11 366.32 74.89 364.45 74.89 364.45 75.13 364.03 75.13 364.03 65.87"/>
    <polygon points="364.45 50.19 364.03 50.19 364.03 48.09 361.93 48.09 361.93 47.67 362.17 47.67 362.17 45.8 366.32 45.8 366.32 49.95 364.45 49.95 364.45 50.19"/>
    <polygon points="358.74 48.09 349.43 48.09 349.43 47.67 349.73 47.67 349.73 45.8 358.44 45.8 358.44 47.67 358.74 47.67 358.74 48.09"/>
    <polygon points="231.98 119.29 231.98 124.94 231.55 124.94 231.55 124.64 229.69 124.64 229.69 103.49 231.55 103.49 231.55 103.25 231.98 103.25 231.98 108.89 231.98 119.29"/>
    <polygon points="237.31 48.09 237.31 47.67 237.61 47.67 237.61 45.8 246.32 45.8 246.32 47.67 246.63 47.67 246.63 48.09 237.31 48.09"/>
    <polygon points="231.6 50.19 231.6 49.95 229.74 49.95 229.74 45.8 233.89 45.8 233.89 47.67 234.13 47.67 234.13 48.09 232.03 48.09 232.03 50.19 231.6 50.19"/>
    <polygon points="232.03 65.87 232.03 75.13 231.6 75.13 231.6 74.89 229.74 74.89 229.74 66.11 231.6 66.11 231.6 65.87 232.03 65.87"/>
    <polygon points="231.6 53.68 231.6 53.37 232.03 53.37 232.03 62.69 231.6 62.69 231.6 62.39 229.74 62.39 229.74 53.68 231.6 53.68"/>
    <polygon points="229.74 165.8 231.6 165.8 231.6 165.5 232.03 165.5 232.03 174.81 231.6 174.81 231.6 174.51 229.74 174.51 229.74 165.8"/>
    <polygon points="232.02 162.31 231.6 162.31 231.6 162.07 229.74 162.07 229.74 153.3 231.6 153.3 231.6 153.06 232.02 153.06 232.02 162.31"/>
    <polygon points="232.02 140.56 232.02 149.87 231.6 149.87 231.6 149.57 229.74 149.57 229.74 140.86 231.6 140.86 231.6 140.56 232.02 140.56"/>
    <polygon points="232.02 137.38 231.6 137.38 231.6 137.13 229.74 137.13 229.74 128.36 231.6 128.36 231.6 128.12 232.02 128.12 232.02 137.38"/>
    <polygon points="237.31 180.1 246.63 180.1 246.63 180.52 246.33 180.52 246.33 182.38 237.61 182.38 237.61 180.52 237.31 180.52 237.31 180.1"/>
    <polygon points="229.74 182.38 229.74 178.23 231.6 178.23 231.6 177.99 232.03 177.99 232.03 180.1 234.13 180.1 234.13 180.52 233.89 180.52 233.89 182.38 229.74 182.38"/>
    <polygon points="233.89 47.67 234.13 47.67 234.13 48.09 232.03 48.09 232.03 50.19 231.6 50.19 231.6 49.95 229.74 49.95 229.74 45.8 233.89 45.8 233.89 47.67"/>
    <polygon points="232.02 62.69 231.6 62.69 231.6 62.39 229.74 62.39 229.74 53.68 231.6 53.68 231.6 53.38 232.02 53.38 232.02 62.69"/>
    <polygon points="232.02 65.87 232.02 75.13 231.6 75.13 231.6 74.89 229.74 74.89 229.74 66.11 231.6 66.11 231.6 65.87 232.02 65.87"/>
    <polygon points="232.02 87.62 231.6 87.62 231.6 87.32 229.74 87.32 229.74 78.61 231.6 78.61 231.6 78.31 232.02 78.31 232.02 87.62"/>
    <polygon points="232.02 90.81 232.02 100.06 231.6 100.06 231.6 99.82 229.74 99.82 229.74 91.05 231.6 91.05 231.6 90.81 232.02 90.81"/>
    <path d="M308.63,182.38h-20.82c-.16,0-.39.1-.39-.16v-1.6s.03-.11-.04-.11-.2.13-.2,0v-.36c0-.16.15-.06.24-.06h2.62c.09,0,.02-.33.02-.37v-19.88c0-.22-.21-.11-.34-.11h-35.86s-.03,0-.03.01v20.06c0,.12-.08.3.12.3h4.97s.14-.09.14,0v.33s.05.08,0,.08h-.18s-.05-.03-.05,0v1.86c0,.09-.09,0-.14,0h-8.61c-.06,0-.03-.05-.03-.09v-1.76c0-.13-.13-.02-.19-.02-.05,0-.11,0-.11-.06v-.34c0-.15.15-.01.22-.01h1.5c.14,0,.08-.12.08-.21v-1.76c0-.14.1-.14.21-.14.07,0,.21-.13.21.02,0,.39.16.23.43.23.09,0,.59.07.59-.1v-3.54s.04-.09-.02-.09h-.82c-.06,0-.19-.13-.19,0s.08.3-.12.3h-.3c-.11,0,0-.11,0-.17v-9.13c0-.06.06-.02.09-.02h.33s0,.04,0,.06v.14c0,.11.08.11.16.11h.83s.03-.02.03-.04v-3.52c0-.08,0-.16-.11-.16h-.85c-.16,0,.07.24-.09.24h-.39s0-.04,0-.06v-9.1s-.05-.1.01-.1h.34c.16,0-.09.24.07.24h.8c.07,0,.22.13.22-.01v-3.65s.04-.06,0-.06h-.74c-.31,0-.28,0-.28.3,0,.05-.05,0-.08,0h-.33s0,0,0,0v-9.08c0-.08-.09-.23.06-.23h.19c.06,0,.18-.08.18.03v.25c0,.06.06.02.09.02h.86c.17,0,.08-.16.08-.25v-3.47s-.03,0-.05,0h-.85s-.12-.07-.12.01v.25c0,.1-.1.04-.15.04-.11,0-.27.08-.27-.1v-9.14s-.05-.07,0-.07h.42c.11,0,0,.11,0,.17,0,.14.13.07.21.07h.8c.07,0,.01-.07.01-.1v-3.53c0-.09-.06-.09-.14-.09h-.84c-.11,0-.04.1-.04.16,0,.26-.23.14-.38.14-.19,0-.04-.18-.04-.28v-5.66c0-1.22,0-2.44,0-3.66v-11.85c0-.1-.04-.23.12-.23h.14c.07,0,.17-.05.17.06v.16c0,.15.15.02.22.02h.66c.08,0,.14,0,.14-.1v-3.55c0-.11-.11-.01-.16-.01h-.33c-.21,0-.53-.17-.53.19,0,.12-.11.05-.18.05h-.24c-.15,0,0-.15,0-.22v-8.97s-.03-.06.01-.06h.27s.14-.09.14,0v.16c0,.2.19.08.3.08h.66c.11,0,.06-.32.06-.38v-3.01c0-.12.15-.34-.07-.34h-.82c-.11,0-.12.07-.12.16,0,.23-.2.14-.34.14h-.07c-.11,0,0-.11,0-.17v-9.02s-.07-.12.01-.12h.04c.14,0,.37-.13.37.12,0,.07-.07.18.05.18h.83c.06,0,.15.04.15-.06v-3.61c0-.1-.09-.06-.15-.06h-.83s-.05.03-.05.07v.16c0,.07-.07.02-.1.02h-.31c-.08,0-.01-.08-.01-.12v-8.97c0-.06-.1-.17,0-.17h.2c.07,0,.21-.1.21.04v.16c0,.12.39.05.45.05h.49c.22,0,.07-.22.07-.34v-3.28s.06-.1,0-.1h-.83c-.09,0-.19-.02-.19.11v.16c0,.12-.12.03-.18.03h-.23s-.01-.04-.01-.05v-9.1c0-.05-.08-.16.02-.16.08,0,.4-.12.4.04v.16c0,.14.12.1.21.1h.55c.09,0,.26.11.26-.06v-3.01c0-.09.07-.65-.1-.65h-.83c-.07,0-.1.04-.1.11,0,.15-.11.13-.22.13s-.2,0-.2-.13v-1.84s.08-.13,0-.13h-1.7c-.07,0-.09-.03-.09-.09v-.23c0-.17.15-.1.25-.1.18,0,.05-.61.05-.7v-1.01c0-.07-.03-.16.08-.16h1.53c.11,0,.01-.11.01-.16,0-.11.01-.22.04-.33.3-1.08,1.19-1.68,2.28-1.68h2.69c.21,0,.15.18.15.32v.74c0,.13.08.32-.13.32h-2.82c-.22,0-.05.21-.05.33v20.85c0,.07-.11.51.03.51h58.28c.21,0,.09-.2.09-.32v-20.72c0-.11.03-.23-.13-.23h-.99c-.26,0-.14-.24-.14-.39v-1.03c0-.08-.06-.38.09-.38h28.44c.44,0,2.99-.05,3.44.12.75.3,1.43.95,1.43,1.83v.17s.03.03.05.03h1.17c.09,0,.4-.1.4.07v1.07c0,.08-.11.72.06.72h.17c.15,0,.07.3.07.38,0,.1-.31.04-.36.04h-1.04c-.15,0-.41-.15-.41.13v1.47c0,.06.08.5-.05.5h-.15c-.08,0-.23.11-.23-.04v-.17c0-.15-.14-.03-.22-.03h-.72c-.22,0-.09.21-.09.33v3.26c0,.21.19.13.32.13h.36c.13,0,.34.12.34-.11,0-.07-.1-.19.03-.19h.39s0,.05,0,.07v9.18s-.03.06-.07.06h-.3c-.11,0-.06-.11-.06-.17,0-.18-.15-.13-.27-.13h-.72c-.14,0-.03.14-.03.22v3.26s-.05.25.02.25h.72s.28.08.28-.02v-.17c0-.13.13-.05.2-.05h.22c.13,0,0,.13,0,.2v8.91s.09.14,0,.14h-.24c-.07,0-.18.05-.18-.07v-.17c0-.1-.1,0-.15,0h-.54c-.12,0-.33-.11-.33.1v3.59c0,.06.05.03.08.03h.72c.08,0,.22.11.22-.04v-.11c0-.25.22-.16.37-.16h.04c.08,0,.01.08.01.12v9.18s0,.02,0,.02h-.4c-.14,0,0-.14,0-.21,0-.04.03-.09-.03-.09h-.9c-.21,0-.09.2-.09.32v3.26c0,.1.04.14.14.14h.36c.08,0,.52.11.52-.05v-.17c0-.07.06-.03.1-.03h.29c.16,0,.03.16.03.25v8.92c0,.19-.18.09-.29.09-.07,0-.13,0-.13-.09,0-.07,0-.15-.09-.15h-.89c-.14,0-.03.13-.03.2v2.89c0,.22-.18.57.2.57h.72c.1,0,.11-.06.11-.14,0-.08.05-.1.12-.1h.29c.07,0,0,.07,0,.1v8.66c0,2.69,0,5.38,0,8.06v4.82c0,.1-.26.05-.31.05-.07,0-.11-.01-.11-.09,0-.07.12-.21-.02-.21h-.89c-.14,0-.12.11-.12.21v3.3c0,.1-.02.21.12.21h.89c.11,0,.02-.11.02-.17,0-.08.06-.07.11-.07.11,0,.31-.12.31.08v9.15s.04.08-.02.08h-.18c-.08,0-.23.12-.23-.03v-.26c0-.11-.11,0-.17,0h-.85s0,.02,0,.03v3.66s-.02.03,0,.03h.85c.1,0,.17-.01.17-.13,0-.27.23-.17.4-.17.05,0,.02.05.02.08v9.15c0,.06-.03.09-.09.09-.05,0-.33.11-.33,0v-.24s.02-.06-.02-.06h-.88c-.14,0-.12.11-.12.21v3.3c0,.1-.03.21.12.21h.49c.26,0,.41.13.41-.24,0-.11.27,0,.33,0,.06,0,.09.02.09.08v9.09s.04.09-.02.09h-.37c-.09,0-.03-.09-.03-.14,0-.11-.08-.1-.16-.1h-.85s0,.02,0,.03v3.66s-.02.04,0,.04h.85c.06,0,.17.1.17,0v-.26c0-.15.15-.03.22-.03h.18c.05,0,.02.05.02.08v9.15c0,.2-.19.09-.3.09-.07,0-.12-.01-.12-.09,0-.07.12-.21-.02-.21h-.89c-.14,0-.12.11-.12.21v3.3c0,.1-.03.22.12.22h.89c.11,0,.02-.11.02-.17,0-.08.05-.08.11-.08.04,0,.31-.07.31.02v1.79c0,.11-.13.29.07.29h1.59c.05,0,.14-.05.14.04v.37c0,.13-.13.01-.2.01h-.1c-.07,0,0,.07,0,.1v1.65s.05.11-.02.11h-8.57c-.06,0-.18.08-.18-.04v-1.6c0-.08.14-.22-.01-.22h-.21c-.15,0-.02-.15-.02-.22v-.18s0-.02.02-.02h5.08c.26,0,.12-.23.12-.38v-19.98c0-.1-.1,0-.15,0h-36.03c-.13,0-.06.12-.06.19v20.11s-.02.07.02.07h2.5c.13,0,.36-.15.36.09,0,.14.07.33-.15.33h-.08c-.08,0-.01.21-.01.25v1.62ZM263.23,127.18c-.72.27-1.45.54-2.17.82-.09.03-.18.07-.27.1-.08.03-.19.17-.24.02-.08-.21-.16-.42-.23-.63-.15-.42-.29-.85-.43-1.28-.14-.43-.27-.86-.39-1.29-.06-.22-.12-.43-.18-.65-.06-.21-.41.03-.52.06l-2.24.58c-.37.1-.75.2-1.12.29-.13.03.04.23.06.29.03.1.05.21.08.31.06.2.11.41.17.61.24.81.5,1.62.78,2.42.07.2.14.4.22.6.1.28-.21.23-.38.29-.19.07-.23-.32-.26-.42-.07-.18-.13-.37-.2-.55-.13-.37-.25-.74-.37-1.11l-.09-.28s-.03-.24-.08-.24h-1.55c-.12,0,0,.23,0,.29v30.9c0,.11.11,0,.16,0h29.93c.18,0,.49.18.49-.15v-1.61c0-.08-.23-.08-.27-.09-.09-.03-.18-.06-.27-.09-.18-.06-.36-.12-.55-.19-.36-.13-.73-.26-1.09-.39-2.92-1.1-5.65-2.48-8.27-4.16-6.38-4.09-11.61-9.73-15.2-16.4-.22-.41-.44-.83-.65-1.25-.1-.21-.21-.42-.31-.63-.05-.11-.1-.21-.15-.32-.06-.13.22-.13.29-.16.1-.05.2-.1.26.03.05.11.11.23.16.34.11.22.22.45.33.67.23.45.46.89.7,1.33.99,1.8,2.08,3.51,3.31,5.16,2.55,3.42,5.45,6.33,8.86,8.9,13.25,9.95,30.97,11.62,45.85,4.33,6.86-3.36,12.73-8.45,17.02-14.77,1.04-1.52,1.97-3.09,2.8-4.73.2-.4.4-.81.6-1.21.02-.05,0-.16.09-.12.05.02.1.04.15.07.1.04.19.09.29.14.07.03,0,.08,0,.12-.02.05-.05.1-.07.14-.05.09-.09.19-.14.29-.37.77-.76,1.52-1.18,2.26-1.68,3.01-3.64,5.74-5.95,8.28-.14.16-.29.31-.43.47-.16.17-.14.35-.14.55v9.66s.06.11-.02.11h-.32s-.02-.01-.02-.03v-9.59c0-.05.06-.24-.02-.16-.04.04-.07.08-.11.12-.15.15-.3.3-.45.45-1.21,1.21-2.48,2.33-3.82,3.39-.33.27-.67.52-1.01.78-.1.08,0,.15,0,.23v1.15c0,.06.1.36-.02.36h-.32c-.12,0-.02-.12-.02-.18v-1.28c0-.09-.08.04-.11.07l-.13.09c-.17.12-.35.25-.52.37-.35.24-.7.48-1.05.72-1.43.94-2.9,1.79-4.43,2.55-1.53.77-3.08,1.44-4.69,2.03-.4.15-.8.29-1.2.42-.07.02-.54.08-.54.22v1.67s.04.04.07.04h12.35s.26.07.26-.01v-4.07s-.06-.13.03-.13h.21c.17,0,.12.14.12.25v3.75c0,.07-.11.2.03.2h5.09c.06,0,.29.11.29,0v-.38c0-.08-.07-.46.09-.46h.14s.13-.06.13.03v.67c0,.51.49.15.76.15h4.78s.11.07.11,0v-1.69s-.02-.05.02-.05h.57s.02.02.02.04v1.64c0,.07.05.07.11.07h5.18c.1,0,.24.07.24-.09v-5.51c0-.1.13-.29-.07-.29h-5.43s-.03,0-.03.01v1.45s.06.1,0,.1h-.56s-.04.01-.04-.01v-3.54s-.03-.05,0-.05h.55c.13,0,.05.12.05.2v1.27c0,.05-.1.15,0,.15h5.38s.15.1.15,0v-5.47c0-.09-.09,0-.13,0h-5.39c-.08,0,0,.08,0,.11v.7c0,.2.15.51-.19.51-.16,0-.41.14-.41-.14v-1.77s.04-.01.05-.01h6.03c.08,0,.05-.07.05-.12v-18.48c0-.09.04-.21-.1-.21h-1.44c-.14,0-.06.14-.09.22-.04.11-.07.22-.11.33-.14.45-.29.89-.45,1.33-.08.22-.16.44-.24.66-.06.15-.17.05-.27.02-.05-.02-.11-.04-.16-.06-.05-.02-.15,0-.11-.08.18-.48.35-.95.51-1.43.16-.48.31-.96.46-1.45.07-.24.14-.49.21-.73l.1-.37c.02-.07.2-.3.06-.34-.9-.23-1.79-.47-2.68-.7-.22-.06-.45-.12-.67-.18-.11-.03-.22-.06-.34-.09-.05-.01-.13-.13-.16-.02-.02.07-.04.13-.05.2-.14.52-.29,1.04-.45,1.55-.16.51-.33,1.03-.51,1.53-.05.13-.09.25-.14.38-.02.06-.05.13-.07.19-.02.05-.02.13-.1.1-.22-.08-.43-.16-.65-.24-.43-.16-.87-.33-1.3-.49-.22-.08-.43-.16-.65-.24-.1-.04.03-.11.05-.16.02-.05.04-.11.06-.16.04-.11.08-.22.12-.33.31-.89.59-1.78.84-2.68.5-1.82.85-3.65,1.06-5.53.05-.47.1-.93.13-1.4.02-.23.03-.47.05-.7,0-.07-.09-.32.05-.32.12,0,.23.01.35.02.46.02.92.04,1.39.07.23.01.46.02.69.03.11,0,.23.01.35.02.15,0,.02.29.02.36-.06,1.08-.17,2.14-.32,3.21-.07.53-.16,1.06-.25,1.6-.05.26-.1.53-.15.79-.07.35.28.25.48.29.91.19,1.81.37,2.72.56.45.09.91.19,1.36.28.11.02.23.05.34.07.17.03.07-.28.07-.36v-.95c0-3.92,0-7.84,0-11.76v-8.56c0-.07.05-.17-.07-.17h-6.07c-.17,0-.06.16-.03.26.04.13.08.26.12.38.16.51.31,1.03.46,1.55.28,1.04.52,2.09.72,3.15.2,1.06.35,2.13.47,3.2.06.53.1,1.07.14,1.61.02.27.03.54.04.8,0,.13.01.27.02.4,0,.07,0,.13,0,.2,0,.11-.11,0-.17,0-.46.01-.93.03-1.39.04l-.7.02c-.13,0-.57.14-.58-.09-.03-.87-.09-1.74-.17-2.61-.19-1.8-.5-3.57-.95-5.33-.96-3.77-2.41-7.19-4.47-10.5-4.18-6.72-10.4-11.93-17.75-14.87-3.46-1.38-6.93-2.21-10.64-2.52-.43-.04-.86-.07-1.3-.09-.11,0-.21-.01-.32-.01-.14,0-.12-.12-.11-.22,0-.23.02-.46.03-.7.02-.46.04-.93.05-1.39,0-.21-.14-.54.21-.52.27.01.54.03.81.04,1.08.07,2.16.18,3.23.34.54.08,1.07.17,1.6.27.19.04.11-.17.11-.28v-2.32s-.02-.07.03-.07h.27c.06,0,.12,0,.12.08v.96c0,.37-.15.46.32.46h6.92c.23,0,.39.18.39-.18v-5c0-.23.15-.35-.19-.35h-7.4s-.04,0-.04.03v1.34s.08.13,0,.13h-.24c-.06,0-.17.1-.17-.01v-1.32c0-.06.09-.17-.03-.17-1.14,0-2.29,0-3.43,0h-4.3c-1.83,0-3.65,0-5.48,0h-1.57c-.08,0-.17-.02-.17.09v1.36s0,.05-.02.05h-.27c-.06,0-.12,0-.12-.08v-1.37s.04-.06,0-.06h-5.23c-1.38,0-2.76,0-4.14,0h-1.41c-.25,0-.1.47-.1.6v10.03c0,.09.09,0,.13-.03.12-.06.24-.13.36-.19.48-.25.98-.49,1.47-.72.99-.46,2-.88,3.03-1.25,1.03-.38,2.07-.71,3.12-1,.53-.14,1.05-.28,1.59-.4.27-.06.53-.12.8-.18.06-.01.37.02.37-.1v-2.14c0-.07-.06-.61.07-.61h.31c.1,0,.03.1.03.16v2.51c0,.12.12,0,.18,0,.07-.01.13-.03.2-.04.27-.05.54-.09.81-.14.54-.09,1.08-.16,1.62-.22.54-.06,1.09-.12,1.63-.16.27-.02.55-.04.82-.05.15,0,.68-.2.69.08.02.47.04.94.05,1.41,0,.23.02.47.03.7,0,.12,0,.23.01.35,0,.1.11.26-.07.27-1.78.07-3.54.27-5.3.59-7.7,1.43-14.74,5.24-20.13,10.92-5.27,5.54-8.7,12.55-9.83,20.11-.13.87-.23,1.74-.3,2.61-.03.43-.06.86-.08,1.29,0,.12.08.52-.15.52-.23,0-.46-.01-.69-.02-.46-.01-.92-.03-1.38-.04-.12,0-.23,0-.35-.01-.1,0-.3.13-.29-.07,0-.27.02-.53.03-.8.05-1.07.15-2.14.29-3.2.28-2.14.73-4.22,1.35-6.29.08-.26.16-.51.24-.77.04-.13.08-.26.12-.38.06-.18-.18-.06-.27-.06h-5.87c-.16,0-.09.36-.09.44v5.93c0,1.98,0,3.97,0,5.95v9.47c0,.1.1,0,.15-.01.11-.02.23-.05.34-.07.23-.05.45-.09.68-.14.45-.09.9-.19,1.35-.28.45-.09.9-.19,1.35-.28.23-.05.45-.09.68-.14.11-.02.23-.05.34-.07.17-.04.08-.18.06-.29-.21-1.05-.38-2.11-.5-3.18-.06-.53-.11-1.07-.15-1.6-.02-.27-.04-.53-.05-.8,0-.11-.14-.3.07-.31.11,0,.23-.01.34-.02.46-.02.92-.04,1.38-.07.23-.01.46-.02.69-.03h.17c.06-.01.16-.12.17-.01,0,.12.01.23.02.35.22,3.8.98,7.37,2.32,10.93M292.35,180.1h11.36v-20.37h-11.36v20.37ZM313.62,45.02v21.13c0,.36-.22.56.3.56h22.63c.14,0,.03.14.03.21v7.98s.07.11,0,.11h-1.39c-.12,0-.05-.11-.05-.18v-6.71c0-.14-.14-.02-.21-.02h-20.81c-.22,0-.13.19-.13.33v8.83c0,.18.12.22.25.27,1.12.5,2.22,1.04,3.3,1.64,2.2,1.23,4.25,2.63,6.18,4.25,3.98,3.33,7.05,7.09,9.52,11.66.66,1.21,1.25,2.46,1.78,3.73.13.32.26.63.38.95.17.44.02.54.59.54h6.18c.19,0,.07-.18.07-.29v-19.77c0-.07-.07,0-.11,0h-6.89c-.21,0-.09-.2-.09-.32v-2.29c0-.05-.09-.15.01-.15h1.29c.05,0,.14-.06.14.04v1.18c0,.25.82.11.95.11h4.14c.07,0,.32.12.32-.02v-5.4c0-.08.09-.23-.06-.23h-2.53c-.14,0-.05-.13-.05-.21v-.11s-.07-.11,0-.11h.18c.08,0,0-.08,0-.12v-6.1c0-.18.14-.15.27-.15h2.42c.07,0,.01-.21.01-.25v-20.94c0-.07,0-.14-.09-.14h-28.51ZM313.56,77.24v-3.15c0-.11-.28-.05-.33-.05h-7.28c-.1,0-.01.1-.01.15v.62c0,.14.53.19.61.21.8.17,1.6.37,2.39.6,1.58.45,3.12.99,4.64,1.62M278.29,68.1h-24.45c-.13,0,0,.13,0,.2v31.5c0,.2-.16.51.18.51h6.42c.16,0,.09-.15.12-.24.07-.18.14-.37.21-.55,1.59-4.07,3.71-7.64,6.5-11,2.79-3.36,5.92-6.08,9.63-8.39.26-.16.51-.32.77-.47.13-.08.26-.15.39-.23.12-.07.23-.12.23-.29v-11.05Z"/>
    <path d="M331.7,129.85c.75.35,1.5.7,2.25,1.05.09.04.19.09.28.13.07.03.02.08,0,.13-.02.05-.05.1-.07.16-.1.21-.2.41-.3.62-.21.41-.42.82-.64,1.23-.9,1.66-1.91,3.24-3.04,4.77-2.37,3.19-5.06,5.88-8.25,8.26-6.08,4.52-13.31,7.22-20.87,7.79-15.42,1.16-30.12-6.62-37.79-20.07-.51-.89-.98-1.8-1.42-2.74-.11-.22.34-.3.46-.36.21-.1.42-.2.63-.29.42-.2.83-.39,1.25-.59.05-.02.1-.05.16-.07.08-.04.06.07.08.12.05.1.09.2.14.3.1.2.2.4.3.6.2.4.41.8.63,1.19.44.8.91,1.58,1.41,2.34,2.1,3.21,4.54,5.94,7.5,8.38,5.86,4.82,13.04,7.73,20.61,8.34,15.48,1.25,30.1-7.2,36.69-21.27"/>
    <polygon points="333.81 180.1 333.81 180.52 333.57 180.52 333.57 182.38 324.8 182.38 324.8 180.52 324.5 180.52 324.5 180.1 333.81 180.1"/>
    <polygon points="312.06 180.1 321.37 180.1 321.37 180.52 321.07 180.52 321.07 182.38 312.36 182.38 312.36 180.52 312.06 180.52 312.06 180.1"/>
    <polygon points="284 180.1 284 180.52 283.7 180.52 283.7 182.38 274.99 182.38 274.99 180.52 274.69 180.52 274.69 180.1 284 180.1"/>
    <polygon points="262.25 180.1 271.56 180.1 271.56 180.52 271.26 180.52 271.26 182.38 262.49 182.38 262.49 180.52 262.25 180.52 262.25 180.1"/>
    <rect x="274.99" y="43.64" width="3.48" height="1.38"/>
    <rect x="303.77" y="43.64" width="3.48" height="1.38"/>
    <rect x="296.56" y="43.64" width="3.48" height="1.38"/>
    <rect x="289.35" y="43.64" width="3.48" height="1.38"/>
    <rect x="282.2" y="43.64" width="3.48" height="1.38"/>
    <rect x="267.78" y="43.64" width="3.49" height="1.38"/>
    <rect x="260.57" y="43.64" width="3.48" height="1.38"/>
    <polygon points="364.03 119.29 364.03 108.89 364.03 103.25 364.45 103.25 364.45 103.49 366.32 103.49 366.32 124.64 364.45 124.64 364.45 124.94 364.03 124.94 364.03 119.29"/>
    <path class="cls-3" d="M272.84,137.49c6.16,6.63,14.69,10.56,23.74,10.94v-.54c-8.89-.38-17.28-4.24-23.34-10.76-.13.12-.26.24-.4.37Z"/>
    <path class="cls-3" d="M264.08,108.66c-1.52,9.46.99,19.13,6.91,26.67.14-.11.28-.22.42-.33-5.83-7.42-8.29-16.93-6.8-26.25l-.53-.09Z"/>
    <path class="cls-3" d="M296.71,79.76c-15.31.58-28.39,11.23-32.06,26.1l.52.13c3.61-14.64,16.48-25.12,31.56-25.69,0-.18-.01-.36-.02-.54Z"/>
    <path class="cls-3" d="M331.98,108.66c1.52,9.46-.99,19.13-6.91,26.67-.14-.11-.28-.22-.42-.33,5.83-7.42,8.29-16.93,6.8-26.25l.53-.09Z"/>
    <path class="cls-3" d="M298.03,145.09c-8.08,0-15.85-3.15-21.64-8.78-.13.13-.25.26-.38.39,5.89,5.74,13.79,8.94,22.02,8.94"/>
    <path class="cls-3" d="M273.35,133.76c.14-.11.28-.22.42-.34-7.19-9.02-8.78-21.28-4.13-31.83,4.65-10.55,14.78-17.65,26.28-18.42l-.04-.54c-11.71.79-22.01,8.01-26.74,18.74-4.73,10.73-3.12,23.21,4.2,32.38Z"/>
    <path class="cls-3" d="M323.22,137.49c-6.16,6.63-14.69,10.56-23.74,10.94v-.54c8.89-.38,17.28-4.24,23.34-10.76.13.12.26.24.4.37Z"/>
    <path class="cls-3" d="M322.71,133.76c-.14-.11-.28-.22-.42-.34,7.19-9.02,8.78-21.28,4.12-31.83-4.65-10.55-14.78-17.65-26.28-18.42l.04-.54c11.71.79,22.01,8.01,26.74,18.74,4.73,10.73,3.12,23.21-4.2,32.38Z"/>
    <path class="cls-3" d="M299.35,79.76c15.31.58,28.39,11.23,32.06,26.1-.18.04-.35.09-.52.13-3.61-14.64-16.49-25.12-31.56-25.69,0-.18.01-.36.02-.54Z"/>
    <path class="cls-3" d="M298.03,145.09c8.08,0,15.85-3.15,21.64-8.78.12.13.25.26.38.39-5.89,5.74-13.8,8.94-22.02,8.94"/>
    <path class="cls-3" d="M298.03,77.82c-.67,0-1.34.02-2,.05"/>
    <path class="cls-7" d="M291.98,78.32c-17.17,2.87-30.26,17.8-30.26,35.78s14.12,34.07,32.27,36.06"/>
    <path class="cls-3" d="M296.03,150.33c.66.04,1.33.05,2,.05"/>
    <path class="cls-3" d="M298.03,77.82c.67,0,1.34.02,2,.05"/>
    <path class="cls-7" d="M304.08,78.32c17.17,2.87,30.26,17.8,30.26,35.78s-14.12,34.07-32.27,36.06"/>
    <path class="cls-3" d="M300.03,150.33c-.66.04-1.33.05-2,.05"/>
    <line class="cls-6" x1="334.29" y1="131.07" x2="337.9" y2="132.75"/>
    <line class="cls-6" x1="335.49" y1="128.18" x2="339.25" y2="129.55"/>
    <line class="cls-6" x1="326.66" y1="142.06" x2="329.49" y2="144.89"/>
    <line class="cls-6" x1="316.93" y1="153.84" x2="315.19" y2="150.23"/>
    <line class="cls-6" x1="319.99" y1="152.28" x2="317.95" y2="148.79"/>
    <line class="cls-6" x1="276.06" y1="152.28" x2="278.11" y2="148.79"/>
    <line class="cls-6" x1="279.13" y1="153.84" x2="280.87" y2="150.23"/>
    <line class="cls-6" x1="269.39" y1="142.06" x2="266.57" y2="144.89"/>
    <path class="cls-6" d="M298.03,80.61c-18.51-.01-33.52,14.98-33.52,33.49s15.01,33.51,33.52,33.49"/>
    <line class="cls-6" x1="261.76" y1="131.07" x2="258.16" y2="132.75"/>
    <line class="cls-6" x1="260.56" y1="128.18" x2="256.81" y2="129.55"/>
    <path class="cls-6" d="M298.03,80.61c18.51-.01,33.52,14.98,33.52,33.49s-15.01,33.51-33.52,33.49"/>
    <path class="cls-8" d="M295.05,156l-1.44-.12c-4.22-.42-8.44-1.53-12.32-3.24l-1.26-.6"/>
    <polyline class="cls-8" points="295.17 139.66 295.17 124.04 298.03 124.04"/>
    <path class="cls-8" d="M298.03,139.79c-4.66,0-9.33-1.25-13.37-3.74l-.9-.54c-.52.78-1.04,1.56-1.56,2.34l1.02.66c3.02,1.88,6.43,3.04,9.91,3.73l1.2.18c-.1.69-.2,1.38-.3,2.08-.55-.08-2.23-.33-2.23-.33l-1.14-.3c-14.21-3.51-23.88-16.46-23.31-31.06l.12-1.2.12-1.2c1.59-14.36,13.6-25.82,28-26.86l2.4-.12h.03"/>
    <path class="cls-8" d="M282.29,137.71c.34.22.68.44,1.02.66,3,1.87,6.38,3.02,9.85,3.7.4.06.8.12,1.2.18.06,0,.11.02.17.02,0,.06-.02.11-.02.17-.11.75-.21,1.5-.32,2.25-.4-.06-.8-.12-1.2-.18-.6-.09-1.2-.18-1.21-.18,0,0-.3-.08-.58-.15l-.57-.15c-14.27-3.53-24.01-16.57-23.44-31.24,0,0,.03-.31.06-.61.04-.4.08-.8.12-1.2.03-.3.06-.6.06-.6,1.59-14.43,13.69-25.97,28.16-27.01,0,0,.6-.03,1.2-.06.6-.03,1.2-.06,1.21-.06,0,0,.01,0,.03,0"/>
    <path class="cls-8" d="M298.03,139.96c-4.7,0-9.4-1.26-13.46-3.76-.3-.18-.6-.36-.9-.54"/>
    <line class="cls-8" x1="294.14" y1="139.63" x2="293.75" y2="142.17"/>
    <path class="cls-8" d="M265.91,141.04l-.9-1.08c-1.67-2.16-3.16-4.44-4.45-6.85l-.6-1.2"/>
    <polyline class="cls-8" points="268.01 144.05 268.07 143.38 268.61 143.38"/>
    <path class="cls-8" d="M277.09,150.53l-1.2-.78c-2.24-1.34-4.97-3.48-6.79-5.35l-1.02-.96"/>
    <polyline class="cls-8" points="280.63 151.86 280.03 152.04 280.27 152.7"/>
    <polyline class="cls-8" points="260.92 132.27 259.96 131.91 259.78 132.81"/>
    <line class="cls-8" x1="257.38" y1="124.7" x2="258.34" y2="125.3"/>
    <polyline class="cls-8" points="258.7 128.84 258.22 127.52 257.74 126.08 257.38 124.7 257.02 125.72"/>
    <polyline class="cls-8" points="337.36 128.84 337.84 127.52 338.32 126.08 338.68 124.7 339.04 125.72"/>
    <line class="cls-8" x1="338.68" y1="124.7" x2="337.72" y2="125.3"/>
    <polyline class="cls-8" points="335.14 132.27 336.1 131.91 336.28 132.81"/>
    <polyline class="cls-8" points="315.43 151.86 316.03 152.04 315.79 152.7"/>
    <path class="cls-8" d="M318.97,150.53l1.2-.78c2.24-1.34,4.97-3.48,6.79-5.35l1.02-.96"/>
    <polyline class="cls-8" points="328.04 144.05 327.98 143.38 327.44 143.38"/>
    <path class="cls-8" d="M330.15,141.04l.9-1.08c1.67-2.16,3.16-4.44,4.45-6.85l.6-1.2"/>
    <line class="cls-8" x1="301.92" y1="139.63" x2="302.31" y2="142.17"/>
    <path class="cls-8" d="M298.03,139.96c4.7,0,9.4-1.26,13.46-3.76.3-.18.6-.36.9-.54"/>
    <path class="cls-8" d="M313.77,137.71c-.34.22-.68.44-1.02.66-3,1.87-6.38,3.02-9.85,3.7-.4.06-.8.12-1.2.18-.06,0-.11.02-.17.02,0,.06.02.11.02.17.11.75.21,1.5.32,2.25.4-.06.8-.12,1.2-.18.6-.09,1.2-.18,1.21-.18,0,0,.3-.08.58-.15l.57-.15c14.27-3.53,24.01-16.57,23.44-31.24,0,0-.03-.31-.06-.61-.04-.4-.08-.8-.12-1.2-.03-.3-.06-.6-.06-.6-1.6-14.43-13.69-25.97-28.16-27.01,0,0-.61-.03-1.21-.06-.6-.03-1.2-.06-1.21-.06,0,0-.01,0-.03,0"/>
    <path class="cls-8" d="M298.03,139.79c4.66,0,9.33-1.25,13.37-3.74l.9-.54c.52.78,1.04,1.56,1.56,2.34l-1.02.66c-3.02,1.88-6.43,3.04-9.91,3.73l-1.2.18c.1.69.2,1.38.3,2.08.55-.08,2.23-.33,2.23-.33l1.14-.3c14.21-3.51,23.88-16.46,23.31-31.06l-.12-1.2-.12-1.2c-1.59-14.36-13.6-25.82-28-26.86l-2.4-.12s0,0-.03,0"/>
    <polyline class="cls-8" points="300.88 139.66 300.88 124.04 298.03 124.04"/>
    <path class="cls-8" d="M325.28,68.1v1.26h-.48l-.42.06c-2.97.59-4.47,3.88-3,6.55l.3.42.24.36c2.28,2.33,5.99,1.76,7.39-1.2l.18-.48.12-.42h.96v4.87h4.57"/>
    <path class="cls-8" d="M325.58,68.1v1.56h-.76c-.06,0-.13.02-.19.03-.09.01-.18.03-.2.03-2.77.56-4.16,3.59-2.8,6.09.02.02.08.11.14.2.08.11.15.21.15.21,0,0,.17.26.23.34,2.14,2.17,5.56,1.64,6.88-1.13,0-.02.05-.13.09-.23.04-.1.08-.21.09-.23,0-.02.03-.11.06-.2.02-.07.04-.14.06-.21.02-.07.04-.14.06-.22h1.49v4.87h4.27"/>
    <path class="cls-8" d="M301,156l1.44-.12c4.22-.42,8.44-1.53,12.32-3.24l1.26-.6"/>
    <path class="cls-8" d="M302.09,140.92l1.08-.18c3.36-.61,6.07-1.82,9.01-3.48l.9-.6"/>
    <line class="cls-4" x1="328.71" y1="139.84" x2="331.77" y2="142.36"/>
    <path class="cls-4" d="M335.16,115.89c-.19,3.93-.95,7.6-2.34,11.29-.17-.06-.34-.13-.51-.19,1.36-3.63,2.11-7.25,2.3-11.12.18,0,.36.02.54.03Z"/>
    <path class="cls-4" d="M299.46,76.98c19.54.74,35.16,16.5,35.73,36.04-.18,0-.36.01-.54.02-.56-19.26-15.95-34.79-35.21-35.52,0-.18.01-.36.02-.54Z"/>
    <polygon class="cls-4" points="358.74 48.09 358.74 47.67 358.44 47.67 358.44 45.8 349.73 45.8 349.73 47.67 349.43 47.67 349.43 48.09 358.74 48.09"/>
    <line class="cls-8" x1="302.09" y1="140.92" x2="302.51" y2="140.32"/>
    <line class="cls-8" x1="302.69" y1="141.34" x2="302.09" y2="140.92"/>
    <path class="cls-4" d="M331.7,129.85c.86.4,1.72.8,2.57,1.21-6.58,14.06-20.71,23.04-36.24,23.03"/>
    <path class="cls-4" d="M264.36,129.85c-.86.4-1.72.8-2.57,1.21,6.58,14.06,20.71,23.04,36.24,23.03"/>
    <line class="cls-8" x1="293.37" y1="141.34" x2="293.97" y2="140.92"/>
    <line class="cls-8" x1="293.97" y1="140.92" x2="293.55" y2="140.32"/>
    <path class="cls-8" d="M293.97,140.92l-1.08-.18c-3.36-.61-6.07-1.82-9.01-3.48l-.9-.6"/>
    <line class="cls-4" x1="267.35" y1="139.84" x2="264.29" y2="142.36"/>
    <path class="cls-4" d="M260.9,115.89c.19,3.93.95,7.6,2.34,11.29.17-.06.34-.13.5-.19-1.36-3.63-2.11-7.25-2.3-11.12-.18,0-.36.02-.54.03Z"/>
    <path class="cls-4" d="M296.6,76.98c-19.54.74-35.16,16.5-35.73,36.04.18,0,.36.01.54.02.56-19.26,15.95-34.79,35.21-35.52,0-.18-.01-.36-.02-.54Z"/>
    <polygon class="cls-4" points="237.31 48.09 237.31 47.67 237.61 47.67 237.61 45.8 246.32 45.8 246.32 47.67 246.63 47.67 246.63 48.09 237.31 48.09"/>
    <polygon class="cls-4" points="231.6 50.19 232.03 50.19 232.03 48.09 234.13 48.09 234.13 47.67 233.89 47.67 233.89 45.8 229.74 45.8 229.74 49.95 231.6 49.95 231.6 50.19"/>
    <polygon class="cls-4" points="232.03 65.87 231.6 65.87 231.6 66.11 229.74 66.11 229.74 74.89 231.6 74.89 231.6 75.13 232.03 75.13 232.03 65.87"/>
    <polygon class="cls-4" points="231.6 53.68 229.74 53.68 229.74 62.39 231.6 62.39 231.6 62.69 232.03 62.69 232.03 53.37 231.6 53.37 231.6 53.68"/>
    <polygon class="cls-4" points="229.74 165.8 229.74 174.51 231.6 174.51 231.6 174.81 232.03 174.81 232.03 165.5 231.6 165.5 231.6 165.8 229.74 165.8"/>
    <polygon class="cls-4" points="232.02 162.31 231.6 162.31 231.6 162.07 229.74 162.07 229.74 153.3 231.6 153.3 231.6 153.06 232.02 153.06 232.02 162.31"/>
    <polygon class="cls-4" points="232.02 140.56 232.02 149.87 231.6 149.87 231.6 149.57 229.74 149.57 229.74 140.86 231.6 140.86 231.6 140.56 232.02 140.56"/>
    <polygon class="cls-4" points="232.02 137.38 231.6 137.38 231.6 137.13 229.74 137.13 229.74 128.36 231.6 128.36 231.6 128.12 232.02 128.12 232.02 137.38"/>
    <polygon class="cls-4" points="237.31 180.1 237.31 180.52 237.61 180.52 237.61 182.38 246.33 182.38 246.33 180.52 246.63 180.52 246.63 180.1 237.31 180.1"/>
    <polygon class="cls-4" points="229.74 182.38 233.89 182.38 233.89 180.52 234.13 180.52 234.13 180.1 232.03 180.1 232.03 177.99 231.6 177.99 231.6 178.23 229.74 178.23 229.74 182.38"/>
    <polygon class="cls-4" points="233.89 47.67 233.89 45.8 229.74 45.8 229.74 49.95 231.6 49.95 231.6 50.19 232.03 50.19 232.03 48.09 234.13 48.09 234.13 47.67 233.89 47.67"/>
    <polygon class="cls-4" points="232.02 62.69 232.02 53.38 231.6 53.38 231.6 53.68 229.74 53.68 229.74 62.39 231.6 62.39 231.6 62.69 232.02 62.69"/>
    <polygon class="cls-4" points="232.02 65.87 231.6 65.87 231.6 66.11 229.74 66.11 229.74 74.89 231.6 74.89 231.6 75.13 232.02 75.13 232.02 65.87"/>
    <polygon class="cls-4" points="232.02 87.62 232.02 78.31 231.6 78.31 231.6 78.61 229.74 78.61 229.74 87.32 231.6 87.32 231.6 87.62 232.02 87.62"/>
    <polygon class="cls-4" points="232.02 90.81 231.6 90.81 231.6 91.05 229.74 91.05 229.74 99.82 231.6 99.82 231.6 100.06 232.02 100.06 232.02 90.81"/>
    <path class="cls-4" d="M298.03,150.71c-14.22.01-27.15-8.21-33.18-21.09-.16.08-.33.15-.49.23,6.12,13.06,19.24,21.41,33.67,21.4"/>
    <polygon class="cls-4" points="284 180.1 274.69 180.1 274.69 180.52 274.99 180.52 274.99 182.38 283.7 182.38 283.7 180.52 284 180.52 284 180.1"/>
    <polygon class="cls-4" points="262.25 180.1 262.25 180.52 262.49 180.52 262.49 182.38 271.26 182.38 271.26 180.52 271.56 180.52 271.56 180.1 262.25 180.1"/>
    <path class="cls-4" d="M260.87,113.02c-.95-.03-1.89-.05-2.84-.08.12-3.99.79-7.77,2.06-11.55h-6.25v7.39c0,3.55,0,7.09,0,10.64v3.8c1.67-.34,3.34-.69,5-1.03-.42-2.04-.68-4.07-.78-6.15.95-.05,1.89-.09,2.84-.14"/>
    <line class="cls-4" x1="259.96" y1="158.29" x2="265.61" y2="158.29"/>
    <path class="cls-4" d="M342.22,138.98v6.84c0,.23-.22.09-.35.09h-5.56c-.07,0-.21-.11-.21.03v1.72c0,.07-.06.17.05.17h.54s0-.03,0-.05v-1.2s-.02-.07.03-.07h5.48s.01.04.01.06v5.27s.07.14-.02.14h-5.4s-.11.07-.11,0v-1.44c0-.06.11-.17,0-.17h-.35c-.09,0-.25-.13-.25.04v3.53s-.02.03,0,.03h.36c.08,0,.24.13.24-.03v-.95c0-.12-.1-.59.12-.59h5.05c.15,0,.36-.09.36.16v5.72c0,.11-.11,0-.17,0h-5.06c-.11,0-.29.14-.29-.06v-1.6s.03-.08-.02-.08h-.39c-.08,0-.19-.05-.19.08v1.6s.04.07,0,.07h-5.42c-.07,0-.22.14-.22,0v-.69c0-.09-.02-.15-.12-.15h-.18c-.19,0-.06.18-.06.28v.56c0,.1-.1,0-.14,0h-4.96c-.11,0-.3.11-.3-.09v-4.02s.02-.1-.05-.1h-.12c-.39,0-.19.35-.19.58v3.49c0,.15-.11.14-.22.14h-12.22s-.23.08-.23,0v-1.73c0-.12.36-.14.42-.16.15-.05.3-.1.44-.15.59-.2,1.18-.42,1.76-.65,2.06-.8,4.02-1.75,5.94-2.84.95-.55,1.88-1.13,2.79-1.74.23-.15.45-.31.68-.46.11-.08.22-.16.33-.24.06-.04.11-.08.17-.12.04-.03.14-.17.14-.07v1.23c0,.07-.11.21.03.21h.31c.12,0,.02-.12.02-.18v-1.48c0-.1.52-.47.57-.51.22-.17.43-.34.65-.51.86-.69,1.69-1.4,2.49-2.15.4-.37.8-.75,1.18-1.14.1-.1.19-.19.29-.29.05-.05.1-.1.14-.15.02-.02.05-.05.07-.07.05-.05.01.07.01.1v9.36c0,.05-.1.32,0,.32h.35c.08,0,.01-.08.01-.12v-9.23c0-.35-.12-.69.18-1.01,1.81-1.94,3.42-4,4.85-6.23,1.08-1.67,2.03-3.39,2.88-5.18.07-.16-.09-.16-.19-.21-.1-.05-.22-.22-.3-.04-.11.24-.23.47-.34.71-.23.47-.47.94-.72,1.4-.51.94-1.04,1.86-1.61,2.76-2.39,3.76-5.19,6.99-8.59,9.88-6.49,5.53-14.43,9.05-22.89,10.14-3.82.5-7.54.5-11.35,0-9.83-1.27-18.95-5.83-25.87-12.94-1.72-1.77-3.27-3.65-4.68-5.68-.7-1.02-1.36-2.07-1.98-3.14-.3-.53-.6-1.07-.88-1.61-.14-.27-.28-.54-.41-.81-.07-.13-.13-.27-.2-.41-.03-.07-.06-.14-.1-.2-.03-.06.01-.23-.11-.17-.14.06-.28.13-.42.19-.15.07.07.31.11.38.13.28.27.55.4.83.28.55.56,1.09.86,1.63.6,1.08,1.24,2.12,1.93,3.15,1.38,2.05,2.9,3.95,4.59,5.75l.19.2c1.83,1.92,3.8,3.64,5.94,5.2,3.93,2.87,8.05,4.96,12.68,6.44v1.76h-30.58v-31.18h1.56c.27.89.57,1.77.9,2.64.17-.06.35-.13.52-.19-.53-1.43-.99-2.87-1.38-4.35,1.29-.34,2.58-.67,3.88-1.01.35,1.35.77,2.68,1.27,3.98l2.66-1"/>
    <line class="cls-4" x1="259.96" y1="158.29" x2="265.61" y2="158.29"/>
    <line class="cls-4" x1="253.84" y1="138.98" x2="253.84" y2="145.91"/>
    <rect class="cls-4" x="292.35" y="159.73" width="11.36" height="20.37"/>
    <path class="cls-4" d="M308.63,182.38v-1.83s.04-.03.07-.03h.16c.08,0,0-.08,0-.12v-.28c0-.07-.28-.02-.32-.02h-2.48c-.14,0-.09-.12-.09-.2v-20c0-.08-.01-.16.1-.16h35.98c.05,0,.16-.11.16,0v20.31s.03.05,0,.05h-5.22s0,.03,0,.05c0,.06-.11.37,0,.37h.23c.07,0,0,.07,0,.1v1.7s-.04.06,0,.06h8.75s.02-.02.02-.03v-1.81c0-.06.06-.02.09-.02.08,0,.21.08.21-.06,0-.06.07-.36-.04-.36h-1.75c-.1,0-.01-.1-.01-.15v-1.75c0-.08.07-.2-.06-.2h-.25c-.09,0-.11.05-.11.13,0,.23-.21.11-.35.11h-.59s-.09.04-.09-.02v-3.61s-.06-.1,0-.1h.92c.06,0,.09.01.09.08,0,.11-.02.22.13.22h.28s.01,0,.01-.02v-9.19c0-.12-.1-.11-.18-.11h-.24c-.1,0,0,.1,0,.15s.1.15,0,.15h-.57s-.45.05-.45-.04v-3.43c0-.09-.14-.25.03-.25h.67c.22,0,.33-.14.33.18,0,.03,0,.06.04.06h.38s0-.02,0-.02v-9.14s.06-.09,0-.09h-.37c-.15,0-.05.14-.05.22,0,.02,0,.02-.02.02h-.95c-.12,0-.05-.11-.05-.17v-3.47c0-.14.46-.08.54-.08h.4s.09-.05.09.01c0,.11-.08.29.11.29h.31c.14,0,0-.14,0-.2v-9.11s-.02,0-.02,0h-.33c-.2,0-.07.19-.07.3,0,.12-.12,0-.18,0h-.8s-.05.03-.05,0v-3.67s-.02-.05.02-.05h1c.13,0,0,.13,0,.19,0,.25.24.11.38.11.2,0,.04-.19.04-.29v-8.92s.07-.1,0-.1c-.06,0-.42-.1-.42.03,0,.38-.16.21-.41.21h-.44c-.06,0-.17.1-.17-.02v-3.68c0-.11.1-.03.16-.03h.8c.2,0-.14.3.06.3h.42s0-.03,0-.04v-1.01c0-3.98,0-7.97,0-11.95v-8.56s.08-.13,0-.13h-.17c-.09,0-.24-.1-.24.06,0,.08.04.18-.08.18h-.85s-.09.02-.09-.04v-3.42c0-.07-.08-.2.05-.2h.95c.06,0,.02.06.02.1,0,.07,0,.14.1.14h.17c.36,0,.15-.34.15-.54v-8.55c0-.05.11-.16,0-.16h-.2c-.07,0-.22-.12-.22.02v.14c0,.2-.19.07-.29.07h-.61c-.24,0-.11-.58-.11-.7v-2.24c0-.11-.14-.79.09-.79h.61c.12,0,.32-.13.32.09v.18c0,.14.13.03.2.03h.19c.07,0,.03-.07.03-.11v-9.08c0-.09-.03-.12-.12-.12-.13,0-.3-.06-.3.15,0,.07.02.15-.09.15h-.92c-.06,0-.01-.06-.01-.09v-3.21c0-.07-.1-.42.04-.42h.76c.08,0,.22-.13.22.02,0,.1-.03.22.12.22h.25c.22,0,.05-.21.05-.33v-8.84s.05-.08,0-.08h-.28c-.14,0-.13.1-.13.21,0,.13-.12.03-.19.03h-.77c-.21,0-.07-.2-.07-.32v-3.04c0-.08-.09-.37.07-.37h.67c.06,0,.29-.1.29.01v.2c0,.1.07.09.15.09.1,0,.27.13.27-.06v-9.13c0-.09-.04-.13-.13-.13h-.27c-.12,0-.01.12-.01.19,0,.28-.81.11-.95.11-.23,0-.07-.22-.07-.34v-3.35s.04-.04.07-.04h.83c.09,0,.11.05.11.13,0,.24.22.11.36.11.03,0,.06.01.06-.03v-2.06c0-.09.09-.01.14-.01h1.62s.05-.02.05-.06v-.14c0-.08.11-.22-.04-.22h-.2c-.12,0-.07-.11-.07-.18v-1.52c0-.09-.02-.16-.13-.16h-1.06c-.16,0-.43.17-.43-.12,0-.1,0-.19-.02-.29-.16-.67-.47-1.1-1.06-1.46-.61-.37-1.21-.3-1.85-.3h-30.31c-.06,0-.17-.1-.17.01v1.56c0,.08-.12.23.03.23h1.01c.08,0,.22-.08.22.07v21.19c0,.13-.13,0-.2,0h-58.18c-.05,0-.03-.05-.03-.08v-21.48s-.09-.13,0-.13h2.76c.08,0,.24.12.24-.04v-1.28c0-.16-.16-.05-.24-.05h-3.04c-.72,0-1.49.81-1.74,1.4-.09.21-.14.42-.14.66,0,.07-.02.11-.1.11h-1.34c-.37,0-.19.34-.19.55v.77c0,.07.1.54-.04.54h-.25c-.1,0-.02.1-.02.15v.17c0,.23.21.09.34.09h1.12c.08,0,.34-.12.34.03v1.74c0,.13-.12.34.11.34.07,0,.31.11.31-.02v-.2c0-.11.27-.02.33-.02h.63c.15,0,.06.46.06.54v3.08c0,.26-.25.11-.39.11-.1,0-.63.14-.63-.06v-.12s.06-.11-.01-.11h-.39c-.1,0-.02.1-.02.15v9.14s.02.02.04.02h.17c.09,0,.2.03.2-.1v-.12c0-.11.1-.07.17-.07h.84c.11,0,0,.11,0,.16v3.27s.07.3-.02.3h-.63c-.14,0-.37.13-.37-.11,0-.09-.03-.13-.12-.13h-.26c-.11,0-.04.11-.04.17v8.85c0,.08-.13.24.03.24h.24c.08,0,.15,0,.15-.1,0-.11.05-.14.16-.14h.77s.09-.03.09.03v3.18c0,.08.11.52-.05.52h-.39c-.09,0-.58.13-.58-.06v-.23c0-.13-.23-.02-.3-.02h-.12c-.09,0,0,.09,0,.13v9.05s-.08.14.01.14h.4c.07,0,0-.07,0-.11v-.11c0-.14.44-.08.51-.08h.39c.17,0,.12.14.12.25v3.18c0,.06.1.3-.01.3h-.77c-.11,0-.23.03-.23-.13,0-.09-.04-.11-.12-.11h-.16c-.3,0-.14.28-.14.45v8.77c0,.05.05.03.08.03h.16c.08,0,.18.04.18-.08,0-.07-.03-.16.08-.16h.77c.09,0,.16,0,.16.11v3.48c0,.11-.1.08-.17.08h-.58s-.27.04-.27-.03v-.18c0-.07-.07-.03-.11-.03h-.16c-.07,0-.15-.04-.15.07v2.14c0,6.49,0,12.97,0,19.46,0,.08.24.02.28.02.06,0,.14.04.14-.05v-.24c0-.11.11,0,.17,0h.83s.02.04.02.06v3.55c0,.09-.04.12-.13.12h-.85s-.04,0-.04-.03v-.2c0-.15-.15-.01-.22-.01h-.17s-.03-.02-.03,0v9.31s.02,0,.03,0h.17c.08,0,.23.13.23-.01v-.25s.01-.03.04-.03h.39c.09,0,.6-.07.6.1v3.55s.03.07-.02.07h-.83c-.06,0-.18.12-.18,0,0-.13.07-.3-.13-.3-.04,0-.29-.06-.29.02v9.06c0,.08-.14.23.02.23h.24c.1,0,.16-.03.16-.14,0-.3.1-.16.3-.16h.62s.1-.05.1.01v3.65s-.02.06-.06.06h-.87s-.09.06-.09,0v-.24c0-.09-.09,0-.14,0h-.25s-.03.04-.03.07v9.1s-.02.08.03.08h.25c.09,0,.14-.02.14-.12,0-.24.22-.12.36-.12h.6s.07,0,.07.05v3.66c0,.06-.06.02-.09.02h-.87s-.06.03-.06,0v-.29c0-.11-.11,0-.16,0h-.24c-.14,0-.02.14-.02.21v9.1s.03.01.05.01h.26c.12,0,.12-.08.12-.17,0-.28.26-.13.42-.13h.57c.08,0,.04.08.04.12v3.48s.08.13,0,.13h-.99s-.03.01-.03,0v-.13s.06-.1,0-.1h-.41c-.06,0-.01.06-.01.09v1.96s.03.05,0,.05h-1.76s-.04,0-.04.02v.24c0,.1.03.16.14.16.38,0,.16.36.16.57v1.12c0,.06-.07.17.04.17h8.6s.13.09.13,0v-1.64c0-.11-.01-.22.14-.22.07,0,.1-.02.1-.09,0-.06.05-.33-.07-.33h-5.07s-.09.04-.09-.02v-20.35c0-.11.11,0,.16,0h35.76c.12,0,.31-.09.31.11v20.18s0,.08-.06.08h-2.64c-.07,0-.18-.07-.18.06v.26c0,.09.06.11.14.11h.1c.12,0,0,.26,0,.32v1.51c0,.07.07.03.1.03h21.1Z"/>
    <polygon class="cls-4" points="231.98 119.29 231.98 124.94 231.55 124.94 231.55 124.64 229.69 124.64 229.69 103.49 231.55 103.49 231.55 103.25 231.98 103.25 231.98 108.89 231.98 119.29"/>
    <polygon class="cls-4" points="364.03 119.29 364.03 124.94 364.45 124.94 364.45 124.64 366.32 124.64 366.32 103.49 364.45 103.49 364.45 103.25 364.03 103.25 364.03 108.89 364.03 119.29"/>
    <path class="cls-4" d="M313.62,45.02h28.6c.13,0,0,.13,0,.19v21.05c0,.08-.04.1-.11.1h-2.54c-.11,0-.05.27-.05.32v5.86c0,.09.03.18-.1.18-.04,0-.08-.01-.08.04v.36c0,.06.22.02.25.02h2.25c.32,0,.15.3.15.49v4.8c0,.08.12.36-.04.36h-5.36c-.06,0-.01-.06-.01-.09v-1.12c0-.19-.17-.11-.29-.11h-.82c-.14,0-.33-.08-.33.14v2.54c0,.17.15.09.25.09h6.72c.21,0,.12.19.12.31v19.66s.05.09,0,.09h-6.59c-.09,0-.15-.3-.16-.34-.19-.51-.39-1.01-.61-1.51-.43-1.01-.9-1.99-1.41-2.96-2.12-4.04-4.74-7.48-8.08-10.6-1.76-1.64-3.62-3.1-5.65-4.4-.99-.64-2.01-1.23-3.05-1.78-.52-.27-1.04-.53-1.57-.78-.26-.12-.53-.24-.79-.36-.05-.02-.33-.12-.33-.21v-9.17c0-.2.18-.09.29-.09h20.77c.22,0,.09.21.09.33v6.39c0,.07-.12.2,0,.2h.82c.24,0,.61.2.61-.21v-8.03c0-.11-.1-.05-.16-.05h-22.54c-.42,0-.25-.14-.25-.44v-21.25Z"/>
    <rect class="cls-4" x="274.99" y="43.64" width="3.48" height="1.38"/>
    <rect class="cls-4" x="303.77" y="43.64" width="3.48" height="1.38"/>
    <rect class="cls-4" x="296.56" y="43.64" width="3.48" height="1.38"/>
    <rect class="cls-4" x="289.35" y="43.64" width="3.48" height="1.38"/>
    <rect class="cls-4" x="282.2" y="43.64" width="3.48" height="1.38"/>
    <rect class="cls-4" x="267.78" y="43.64" width="3.49" height="1.38"/>
    <rect class="cls-4" x="260.57" y="43.64" width="3.48" height="1.38"/>
    <path class="cls-4" d="M298.03,68.1h1.23s6.25,0,6.25,0v1.5h.42v-1.5h7.63v5.53h-7.63v-1.5h-.42v2.69c-1.97-.37-3.94-.6-5.95-.67-.04.95-.07,1.89-.11,2.84"/>
    <path class="cls-4" d="M313.56,77.24v-3.19h-7.63v.85c2.64.53,5.15,1.3,7.63,2.35Z"/>
    <path class="cls-4" d="M298.03,68.1h-1.23s-6.25,0-6.25,0v1.5h-.42v-1.5h-7.63s-3.24,0-3.24,0v10.68c3.47-1.84,7.02-3.11,10.87-3.88v-2.77h.42v2.69c1.97-.37,3.94-.6,5.95-.67.04.95.07,1.89.11,2.84"/>
    <path class="cls-4" d="M278.29,68.1v11.21c-8.24,4.67-14.55,12.11-17.82,21h-6.63v-32.21h24.45Z"/>
    <line class="cls-4" x1="313.56" y1="68.1" x2="305.93" y2="68.1"/>
    <line class="cls-4" x1="336.09" y1="158.29" x2="330.45" y2="158.29"/>
    <line class="cls-4" x1="342.22" y1="146.51" x2="342.22" y2="151.98"/>
    <polygon class="cls-4" points="364.45 50.19 364.03 50.19 364.03 48.09 361.93 48.09 361.93 47.67 362.17 47.67 362.17 45.8 366.32 45.8 366.32 49.95 364.45 49.95 364.45 50.19"/>
    <polygon class="cls-4" points="364.03 65.87 364.45 65.87 364.45 66.11 366.32 66.11 366.32 74.89 364.45 74.89 364.45 75.13 364.03 75.13 364.03 65.87"/>
    <path class="cls-4" d="M335.19,113.02c.95-.03,1.89-.05,2.84-.08-.12-3.99-.79-7.77-2.06-11.55h6.25v7.39c0,3.55,0,7.09,0,10.64v3.8c-1.67-.34-3.34-.69-5-1.03.42-2.04.68-4.07.78-6.15-.95-.05-1.89-.09-2.84-.14"/>
    <polygon class="cls-4" points="333.81 180.1 333.81 180.52 333.57 180.52 333.57 182.38 324.8 182.38 324.8 180.52 324.5 180.52 324.5 180.1 333.81 180.1"/>
    <polygon class="cls-4" points="312.06 180.1 321.37 180.1 321.37 180.52 321.07 180.52 321.07 182.38 312.36 182.38 312.36 180.52 312.06 180.52 312.06 180.1"/>
    <path class="cls-4" d="M298.03,150.71c14.22.01,27.15-8.21,33.18-21.09.16.08.33.15.49.23-6.12,13.06-19.24,21.41-33.67,21.4"/>
    <polygon class="cls-4" points="364.45 53.68 366.32 53.68 366.32 62.39 364.45 62.39 364.45 62.69 364.03 62.69 364.03 53.37 364.45 53.37 364.45 53.68"/>
    <polygon class="cls-4" points="364.03 90.81 364.45 90.81 364.45 91.05 366.32 91.05 366.32 99.82 364.45 99.82 364.45 100.06 364.03 100.06 364.03 90.81"/>
    <polygon class="cls-4" points="364.03 87.62 364.03 78.31 364.45 78.31 364.45 78.61 366.32 78.61 366.32 87.32 364.45 87.32 364.45 87.62 364.03 87.62"/>
    <polygon class="cls-4" points="364.03 65.87 364.45 65.87 364.45 66.11 366.32 66.11 366.32 74.89 364.45 74.89 364.45 75.13 364.03 75.13 364.03 65.87"/>
    <polygon class="cls-4" points="364.03 62.69 364.03 53.38 364.45 53.38 364.45 53.68 366.32 53.68 366.32 62.39 364.45 62.39 364.45 62.69 364.03 62.69"/>
    <polygon class="cls-4" points="362.17 47.67 362.17 45.8 366.32 45.8 366.32 49.95 364.45 49.95 364.45 50.19 364.03 50.19 364.03 48.09 361.93 48.09 361.93 47.67 362.17 47.67"/>
    <polygon class="cls-4" points="366.32 182.38 362.17 182.38 362.17 180.52 361.93 180.52 361.93 180.1 364.03 180.1 364.03 177.99 364.45 177.99 364.45 178.23 366.32 178.23 366.32 182.38"/>
    <polygon class="cls-4" points="358.74 180.1 358.74 180.52 358.44 180.52 358.44 182.38 349.73 182.38 349.73 180.52 349.43 180.52 349.43 180.1 358.74 180.1"/>
    <polygon class="cls-4" points="364.03 137.38 364.45 137.38 364.45 137.13 366.32 137.13 366.32 128.36 364.45 128.36 364.45 128.12 364.03 128.12 364.03 137.38"/>
    <polygon class="cls-4" points="364.03 140.56 364.03 149.87 364.45 149.87 364.45 149.57 366.32 149.57 366.32 140.86 364.45 140.86 364.45 140.56 364.03 140.56"/>
    <polygon class="cls-4" points="364.03 162.31 364.45 162.31 364.45 162.07 366.32 162.07 366.32 153.3 364.45 153.3 364.45 153.06 364.03 153.06 364.03 162.31"/>
    <polygon class="cls-4" points="366.32 165.8 366.32 174.51 364.45 174.51 364.45 174.81 364.03 174.81 364.03 165.5 364.45 165.5 364.45 165.8 366.32 165.8"/>
  </g>
  <g>
    <line class="cls-6" x1="230.82" y1="286.35" x2="230.82" y2="293.8"/>
    <line class="cls-6" x1="233.1" y1="286.35" x2="233.1" y2="293.8"/>
    <line class="cls-6" x1="365.11" y1="286.35" x2="365.11" y2="293.8"/>
    <line class="cls-6" x1="367.39" y1="286.35" x2="367.39" y2="293.8"/>
    <polyline class="cls-6" points="267.72 290.63 299.1 290.63 330.49 290.63"/>
    <polyline class="cls-6" points="270.74 298.93 299.1 298.93 327.47 298.93"/>
    <polyline class="cls-6" points="264.75 285.16 299.1 285.16 333.46 285.16"/>
    <polyline class="cls-6" points="264.75 283.77 299.1 283.77 333.46 283.77"/>
    <polyline class="cls-6" points="270.74 297.54 299.1 297.54 327.47 297.54"/>
    <polyline class="cls-6" points="267.72 292.02 299.1 292.02 330.49 292.02"/>
    <line class="cls-6" x1="263.43" y1="249.2" x2="263.43" y2="259.96"/>
    <line class="cls-6" x1="260.68" y1="249.2" x2="260.68" y2="259.33"/>
    <line class="cls-6" x1="337.53" y1="249.2" x2="337.53" y2="259.33"/>
    <line class="cls-6" x1="334.78" y1="249.2" x2="334.78" y2="259.96"/>
    <line class="cls-6" x1="233.1" y1="278.07" x2="233.1" y2="281.65"/>
    <line class="cls-6" x1="230.82" y1="278.07" x2="230.82" y2="281.65"/>
    <line class="cls-6" x1="365.11" y1="278.07" x2="365.11" y2="281.65"/>
    <line class="cls-6" x1="367.39" y1="278.07" x2="367.39" y2="281.65"/>
    <line class="cls-6" x1="326.8" y1="305.84" x2="326.8" y2="313.12"/>
    <line class="cls-6" x1="325.54" y1="305.84" x2="325.54" y2="313.12"/>
    <line class="cls-6" x1="314.43" y1="305.84" x2="314.43" y2="313.12"/>
    <line class="cls-6" x1="313.83" y1="305.84" x2="313.83" y2="313.12"/>
    <line class="cls-6" x1="303.07" y1="305.84" x2="303.07" y2="313.12"/>
    <line class="cls-6" x1="303.67" y1="305.84" x2="303.67" y2="313.12"/>
    <line class="cls-6" x1="294.54" y1="305.84" x2="294.54" y2="313.12"/>
    <line class="cls-6" x1="295.14" y1="305.84" x2="295.14" y2="313.12"/>
    <line class="cls-6" x1="283.72" y1="305.84" x2="283.72" y2="313.12"/>
    <line class="cls-6" x1="284.32" y1="305.84" x2="284.32" y2="313.12"/>
    <line class="cls-6" x1="272.61" y1="305.84" x2="272.61" y2="313.12"/>
    <line class="cls-6" x1="271.34" y1="305.84" x2="271.34" y2="313.12"/>
    <rect class="cls-8" x="235.24" y="286.35" width="3.64" height="3.64"/>
    <rect class="cls-8" x="275.03" y="254.59" width="2.41" height="4.87"/>
    <rect class="cls-8" x="329.81" y="249.48" width="1.29" height="4.87"/>
    <rect class="cls-8" x="320.77" y="254.59" width="2.41" height="4.87"/>
    <rect class="cls-8" x="347.72" y="278.07" width="3.64" height="3.58"/>
    <rect class="cls-8" x="359.38" y="290.16" width="3.58" height="3.64"/>
    <rect class="cls-8" x="347.72" y="290.16" width="3.58" height="3.64"/>
    <rect class="cls-8" x="347.72" y="286.35" width="3.64" height="3.64"/>
    <polyline class="cls-8" points="332.4 259.96 299.1 259.96 265.81 259.96"/>
    <polyline class="cls-8" points="334.32 263.99 299.1 263.99 263.89 263.99"/>
    <rect class="cls-8" x="297.69" y="298.93" width="2.83" height="6.01"/>
    <rect class="cls-8" x="297.69" y="292.02" width="2.83" height="5.53"/>
    <rect class="cls-8" x="297.69" y="285.16" width="2.83" height="5.47"/>
    <polygon class="cls-8" points="299.1 254.59 300.92 254.59 300.92 259.46 299.1 259.46 297.28 259.46 297.28 254.59 299.1 254.59"/>
    <polygon class="cls-8" points="299.1 249.48 300.92 249.48 300.92 254.35 299.1 254.35 297.28 254.35 297.28 249.48 299.1 249.48"/>
    <rect class="cls-8" x="359.32" y="286.35" width="3.64" height="3.64"/>
    <rect class="cls-8" x="359.32" y="278.07" width="3.64" height="3.58"/>
    <rect class="cls-8" x="320.77" y="249.48" width="2.41" height="4.87"/>
    <rect class="cls-8" x="329.81" y="254.59" width="1.29" height="4.87"/>
    <rect class="cls-8" x="309.67" y="254.59" width="3.05" height="4.87"/>
    <rect class="cls-8" x="309.67" y="249.48" width="3.05" height="4.87"/>
    <rect class="cls-8" x="285.48" y="249.48" width="3.05" height="4.87"/>
    <rect class="cls-8" x="285.48" y="254.59" width="3.05" height="4.87"/>
    <rect class="cls-8" x="267.11" y="249.48" width="1.29" height="4.87"/>
    <rect class="cls-8" x="267.11" y="254.59" width="1.29" height="4.87"/>
    <rect class="cls-8" x="275.03" y="249.48" width="2.41" height="4.87"/>
    <rect class="cls-8" x="235.24" y="278.07" width="3.64" height="3.58"/>
    <rect class="cls-8" x="246.84" y="278.07" width="3.64" height="3.58"/>
    <rect class="cls-8" x="235.24" y="290.16" width="3.58" height="3.64"/>
    <rect class="cls-8" x="246.9" y="290.16" width="3.58" height="3.64"/>
    <rect class="cls-8" x="246.84" y="286.35" width="3.64" height="3.64"/>
    <path class="cls-1" d="M233.1,283.6c6.51,0,13.02.01,19.53.02v-7.33h-19.53v1.79h-2.28v-3.84c-.11-.05-.23-.09-.34-.14v-.69h1.14v.64c.11.12.23.24.34.35,4.62.17,9.24.33,13.85.5.1.13.19.26.29.39h14.58c0-4.04,0-8.09,0-12.13-.03,0-.06,0-.09,0v-.54h.09v-1.21h-.09v-.24h-.09v-.3s-.06-.04-.09-.06h.09s.06-.04.1-.06v-1.02s-.06-.04-.1-.06c-.03-.04-.06-.08-.09-.12-.03-.02-.06-.04-.1-.06v-.12c.5-.04,1.01-.08,1.51-.12v-.24h.47v.96c1.01,0,2.02,0,3.03,0-.1.2-.19.4-.29.6-.73,1.17-.88,2.19-1.13,3.43,0,6.59,0,13.19,0,19.78h.87v1.39h-.33v5.47h3.29v1.39h-.35v5.53h3.37v1.39h-.32v6.01h57.37v-6.01h-.32v-1.39h3.37v-5.53h-.35v-1.39h3.29v-5.47h-.33v-1.39h.87c0-6.59,0-13.19,0-19.78-.25-1.24-.4-2.26-1.13-3.43-.1-.2-.19-.4-.29-.6,1.01,0,2.02,0,3.03,0v-.96h.47v.24c.5.04,1.01.08,1.51.12v.12s-.06.04-.1.06c-.03.04-.06.08-.09.12-.03.02-.06.04-.1.06,0,.34,0,.68,0,1.02.03.02.06.04.09.06h.09s-.06.04-.09.06c0,.1,0,.2,0,.3h-.1v.24h-.09v1.21h.09c0,.18,0,.36,0,.54-.03,0-.06,0-.09,0,0,4.04,0,8.09,0,12.13h14.58c.1-.13.19-.26.29-.39,4.62-.17,9.24-.33,13.85-.5.11-.12.22-.24.34-.35v-.64h1.15v.69c-.11.05-.23.09-.34.14v3.84h-2.28v-1.79h-19.53v7.33c6.51,0,13.02-.01,19.53-.02v.78h-19.53v20.57h19.53v-11.14h2.28v21.66h163.62v19.87H65v-19.87h165.82v-21.66h2.28v11.14h19.53v-20.57h-19.53"/>
    <path class="cls-4" d="M233.1,283.6c6.51,0,13.02.01,19.53.02v-7.33h-19.53v1.79h-2.28v-3.84c-.11-.05-.23-.09-.34-.14v-.69h1.14v.64c.11.12.23.24.34.35,4.62.17,9.24.33,13.85.5.1.13.19.26.29.39h14.58c0-4.04,0-8.09,0-12.13-.03,0-.06,0-.09,0v-.54h.09v-1.21h-.09v-.24h-.09v-.3s-.06-.04-.09-.06h.09s.06-.04.1-.06v-1.02s-.06-.04-.1-.06c-.03-.04-.06-.08-.09-.12-.03-.02-.06-.04-.1-.06v-.12c.5-.04,1.01-.08,1.51-.12v-.24h.47v.96c1.01,0,2.02,0,3.03,0-.1.2-.19.4-.29.6-.73,1.17-.88,2.19-1.13,3.43,0,6.59,0,13.19,0,19.78h.87v1.39h-.33v5.47h3.29v1.39h-.35v5.53h3.37v1.39h-.32v6.01h57.37v-6.01h-.32v-1.39h3.37v-5.53h-.35v-1.39h3.29v-5.47h-.33v-1.39h.87c0-6.59,0-13.19,0-19.78-.25-1.24-.4-2.26-1.13-3.43-.1-.2-.19-.4-.29-.6,1.01,0,2.02,0,3.03,0v-.96h.47v.24c.5.04,1.01.08,1.51.12v.12s-.06.04-.1.06c-.03.04-.06.08-.09.12-.03.02-.06.04-.1.06,0,.34,0,.68,0,1.02.03.02.06.04.09.06h.09s-.06.04-.09.06c0,.1,0,.2,0,.3h-.1v.24h-.09v1.21h.09c0,.18,0,.36,0,.54-.03,0-.06,0-.09,0,0,4.04,0,8.09,0,12.13h14.58c.1-.13.19-.26.29-.39,4.62-.17,9.24-.33,13.85-.5.11-.12.22-.24.34-.35v-.64h1.15v.69c-.11.05-.23.09-.34.14v3.84h-2.28v-1.79h-19.53v7.33c6.51,0,13.02-.01,19.53-.02v.78h-19.53v20.57h19.53v-11.14h2.28v21.66h163.62v19.87H65v-19.87h165.82v-21.66h2.28v11.14h19.53v-20.57h-19.53"/>
    <line class="cls-1" x1="335.92" y1="249.4" x2="335.92" y2="259"/>
    <line class="cls-4" x1="335.92" y1="249.4" x2="335.92" y2="259"/>
    <line class="cls-4" x1="331.42" y1="292.02" x2="331.42" y2="297.54"/>
    <line class="cls-4" x1="330.84" y1="292.02" x2="330.84" y2="297.54"/>
    <rect class="cls-1" x="365.11" y="281.65" width="2.28" height="4.7"/>
    <rect class="cls-4" x="365.11" y="281.65" width="2.28" height="4.7"/>
    <rect class="cls-9" x="331.42" y="292.01" width="2.91" height="5.53"/>
    <rect class="cls-4" x="331.42" y="292.01" width="2.91" height="5.53"/>
    <rect class="cls-9" x="328.36" y="298.93" width="5.96" height="6.01"/>
    <rect class="cls-4" x="328.36" y="298.93" width="5.96" height="6.01"/>
    <rect class="cls-9" x="345.58" y="305.84" width="19.53" height="7.28"/>
    <rect class="cls-4" x="345.58" y="305.84" width="19.53" height="7.28"/>
    <rect class="cls-9" x="233.1" y="305.84" width="19.53" height="7.28"/>
    <rect class="cls-4" x="233.1" y="305.84" width="19.53" height="7.28"/>
    <rect class="cls-9" x="263.88" y="298.93" width="5.96" height="6.01"/>
    <rect class="cls-4" x="263.88" y="298.93" width="5.96" height="6.01"/>
    <rect class="cls-9" x="263.88" y="292.01" width="2.91" height="5.53"/>
    <rect class="cls-4" x="263.88" y="292.01" width="2.91" height="5.53"/>
    <rect class="cls-1" x="230.82" y="281.65" width="2.28" height="4.7"/>
    <rect class="cls-4" x="230.82" y="281.65" width="2.28" height="4.7"/>
    <line class="cls-4" x1="267.37" y1="292.02" x2="267.37" y2="297.54"/>
    <line class="cls-4" x1="266.79" y1="292.02" x2="266.79" y2="297.54"/>
    <line class="cls-1" x1="262.29" y1="249.4" x2="262.29" y2="259"/>
    <line class="cls-4" x1="262.29" y1="249.4" x2="262.29" y2="259"/>
    <line class="cls-4" x1="261.82" y1="249.4" x2="261.82" y2="259"/>
    <line class="cls-4" x1="336.39" y1="249.4" x2="336.39" y2="259"/>
    <polygon class="cls-9" points="254.91 316.55 254.91 314.03 299.1 314.03 343.3 314.03 343.3 316.55 365.11 316.55 365.11 327.97 299.1 327.97 233.1 327.97 233.1 316.55 254.91 316.55"/>
    <polygon class="cls-4" points="254.91 316.55 254.91 314.03 299.1 314.03 343.3 314.03 343.3 316.55 365.11 316.55 365.11 327.97 299.1 327.97 233.1 327.97 233.1 316.55 254.91 316.55"/>
    <polygon class="cls-1" points="299.1 229.35 339.81 233.35 339.81 234.47 337.53 234.47 337.53 249.2 336.39 249.2 336.39 249.4 335.92 249.4 335.92 249.2 334.78 249.2 334.78 238.99 335.63 238.99 335.63 237.4 334.88 237.14 334.88 233.65 334.88 233.42 299.05 229.95 299.1 229.96 299.16 229.95 263.33 233.42 263.33 233.65 263.33 237.14 262.57 237.4 262.57 238.99 263.43 238.99 263.43 249.2 262.29 249.2 262.29 249.4 261.82 249.4 261.82 249.2 260.68 249.2 260.68 234.47 258.4 234.47 258.4 233.35 299.1 229.35"/>
    <polygon class="cls-4" points="299.1 229.35 339.81 233.35 339.81 234.47 337.53 234.47 337.53 249.2 336.39 249.2 336.39 249.4 335.92 249.4 335.92 249.2 334.78 249.2 334.78 238.99 335.63 238.99 335.63 237.4 334.88 237.14 334.88 233.65 334.88 233.42 299.05 229.95 299.1 229.96 299.16 229.95 263.33 233.42 263.33 233.65 263.33 237.14 262.57 237.4 262.57 238.99 263.43 238.99 263.43 249.2 262.29 249.2 262.29 249.4 261.82 249.4 261.82 249.2 260.68 249.2 260.68 234.47 258.4 234.47 258.4 233.35 299.1 229.35"/>
    <rect class="cls-9" x="337.54" y="276.28" width="5.76" height="28.66"/>
    <rect class="cls-4" x="337.54" y="276.28" width="5.76" height="28.66"/>
    <rect class="cls-9" x="254.91" y="276.28" width="5.76" height="28.66"/>
    <rect class="cls-4" x="254.91" y="276.28" width="5.76" height="28.66"/>
    <polygon class="cls-9" points="299.1 313.12 337.54 313.12 337.54 305.84 299.1 305.84 260.67 305.84 260.67 313.12 299.1 313.12"/>
    <polygon class="cls-4" points="299.1 313.12 337.54 313.12 337.54 305.84 299.1 305.84 260.67 305.84 260.67 313.12 299.1 313.12"/>
  </g>
  <text class="cls-2" transform="translate(65.74 539.5)"><tspan x="0" y="0">Elevation</tspan></text>
  <text class="cls-2" transform="translate(65.74 350.74)"><tspan x="0" y="0">Section</tspan></text>
  <text class="cls-2" transform="translate(65 182.42)"><tspan x="0" y="0">Plan</tspan></text>
</svg>